<svg id="Capa_1" enable-background="new 0 0 512 512" height="512" viewBox="0 0 512 512" width="512" xmlns="http://www.w3.org/2000/svg"><g><path d="m507.85 209.92-103.75 156.79c-3.6 5.44-7.51 10.66-11.71 15.64-4.19 4.97-8.68 9.71-13.43 14.17-67.87 63.74-174.59 60.28-238.18-7.72l-140.21-149.91c2.62-39.81 14.35-77.12 33.11-109.89 44.12-77.07 127.16-129 222.32-129s178.2 51.93 222.32 129c12.98 22.67 22.59 47.52 28.15 73.86.5 2.34.96 4.7 1.38 7.06z" fill="#92eaff"/><g><path d="m507.86 209.93-.01-.01-103.75 156.79c-3.6 5.44-7.51 10.66-11.71 15.64-4.19 4.97-8.68 9.71-13.43 14.17-67.87 63.74-174.59 60.28-238.18-7.72l-140.21-149.91c2.62-39.81 14.35-77.12 33.11-109.89 44.12 77.07 127.16 129 222.32 129s178.2-51.93 222.32-129c14.14 24.69 24.28 51.96 29.54 80.93z" fill="#63dbfa"/></g><g><path d="m509.61 291.07v-.01c-157.87 87.03-349.35 87.03-507.22 0-.78-5.61-1.37-11.28-1.76-17-.42-5.96-.63-11.99-.63-18.06 0-5.75.19-11.46.57-17.11 2.86-1.25 5.93-2.03 9.05-2.22 10.76-.66 21.64 5.64 26.42 15.31 6.76-8.4 20.18-11.3 29.43-5.76 9.25 5.55 13.38 18.28 9.16 28.2 5.92-5.77 14.76-8.19 22.9-6.71 8.13 1.47 15.41 7.06 18.93 14.54 4.11-10.13 14.51-14.8 25.44-14.78 10.92.03 21.5 7.2 25.55 17.35 7.16-12.61 25.81-17.77 38.2-10.24-2.07-9.29 2.58-18.88 10.06-24.76 7.47-5.88 18.36-7.04 26.9-2.85 6.59 3.23 11.52 9.52 13.39 16.6.55 2.09.84 4.25.82 6.42 5.26-8.18 16.88-9.65 26.41-7.72 9.54 1.92 17.49 10.08 19.17 19.66 3.56-8.39 14.69-15.78 23.78-16.31 9.1-.53 18.3 4.47 22.8 12.39 3.71-11.32 19.61-15.49 30.89-11.64-2.57-9.05 5.47-22.3 12.87-28.12 7.39-5.81 18.35-6.64 26.53-2.01 8.19 4.64 13.11 14.45 11.93 23.79 8.35-9.78 26.76-10.07 37.01-2.31-5.11-15.04-.78-31.42 11.97-40.9 7.84-5.83 18-8.14 27.67-6.9 2.59 14.15 3.99 28.7 4.14 43.56.01.84.01 1.68.01 2.52 0 11.89-.81 23.6-2.39 35.07z" fill="#43af3e"/><path d="m509.61 291.07v-.01c-78.93 43.52-166.27 65.27-253.61 65.27v-92.76c.55 2.09.84 4.25.82 6.42 5.26-8.18 16.88-9.65 26.41-7.72 9.54 1.92 17.49 10.08 19.17 19.66 3.56-8.39 14.69-15.78 23.78-16.31 9.1-.53 18.3 4.47 22.8 12.39 3.71-11.32 19.61-15.49 30.89-11.64-2.57-9.05 5.47-22.3 12.87-28.12 7.39-5.81 18.35-6.64 26.53-2.01 8.19 4.64 13.11 14.45 11.93 23.79 8.35-9.78 26.76-10.07 37.01-2.31-5.11-15.04-.78-31.42 11.97-40.9 7.84-5.83 18-8.14 27.67-6.9 2.59 14.15 3.99 28.7 4.14 43.56.01.84.01 1.68.01 2.52 0 11.89-.81 23.6-2.39 35.07z" fill="#00a23e"/><path d="m509.61 291.06c-1.37 10.11-3.35 20.03-5.88 29.72-6.07 23.28-15.34 45.27-27.31 65.47-1.84 3.11-3.75 6.18-5.72 9.2l-109.92 59.67c-64.87 35.22-143.57 33.27-206.63-5.09l-125.58-76.42c-8.62-16.62-15.47-34.32-20.3-52.83-2.52-9.69-4.5-19.61-5.88-29.72 61.88 18.05 152.56 29.44 253.61 29.44s191.73-11.39 253.61-29.44z" fill="#b6e337"/><path d="m509.61 291.06c-1.37 10.11-3.35 20.03-5.88 29.72-6.07 23.28-15.34 45.27-27.31 65.47-1.84 3.11-3.75 6.18-5.72 9.2l-109.92 59.67c-32.67 17.74-68.85 26.05-104.78 25.02v-159.64c101.05 0 191.73-11.39 253.61-29.44z" fill="#6cdc2d"/><g><path d="m251.388 38.865h9.252v55.533h-9.252z" fill="#ffc300"/><path d="m256 38.865h4.639v55.533h-4.639z" fill="#ff9f00"/><g><path d="m184.862 278.915h19.277v77.811h-19.277z" fill="#fe3345"/><path d="m223.421 278.915h19.282v77.811h-19.282z" fill="#fe3345"/><g fill="#de1263"><path d="m307.867 278.915h19.277v77.811h-19.277z"/><path d="m269.302 278.915h19.282v77.811h-19.282z"/></g></g><g><g fill="#de1263"><path d="m205.961 153.402h100.094v31.995h-100.094z"/><path d="m184.862 278.915h19.277v14.032h-19.277z"/><path d="m223.421 278.915h19.282v14.032h-19.282z"/></g><path d="m269.302 278.915h19.282v14.032h-19.282z" fill="#ce0557"/><path d="m307.867 278.915h19.277v14.032h-19.277z" fill="#ce0557"/><g><path d="m184.862 356.726h19.277v77.811h-19.277z" fill="#fe3345"/><path d="m223.421 356.726h19.282v77.811h-19.282z" fill="#fe3345"/><g fill="#de1263"><path d="m307.867 356.726h19.277v77.811h-19.277z"/><path d="m269.302 356.726h19.282v77.811h-19.282z"/></g></g><path d="m184.862 356.726h19.277v14.032h-19.277z" fill="#de1263"/><path d="m223.421 356.726h19.282v14.032h-19.282z" fill="#de1263"/><path d="m269.302 356.726h19.282v14.032h-19.282z" fill="#ce0557"/><path d="m307.867 356.726h19.277v14.032h-19.277z" fill="#ce0557"/><path d="m256 153.402h50.055v31.995h-50.055z" fill="#ce0557"/><path d="m205.959 161.102h19.281v90.451h-19.281z" fill="#fe3345"/><path d="m286.775 161.102h19.281v90.451h-19.281z" fill="#de1263"/><path d="m194.503 147.291h123.005v24.073h-123.005z" fill="#fe3345"/><path d="m256 147.291h61.508v24.073h-61.508z" fill="#de1263"/><path d="m343.171 140.646c-10.787 7.873-24.911 12.648-40.376 12.648h-93.573c-15.465 0-29.594-4.775-40.376-12.648 35.18 0 65.487-26.912 79.26-41.403 4.921-5.169 7.727-8.76 7.895-8.981 0-.005.005 0 .005 0 0-.005.005-.011.005-.011s2.828 3.655 7.905 8.992c13.773 14.491 44.086 41.403 79.255 41.403z" fill="#4e689b"/><path d="m343.171 140.646c-10.787 7.873-24.911 12.648-40.376 12.648h-68.478c-7.17 0-13.718-4.775-18.715-12.648 16.309 0 30.357-26.912 36.743-41.403 2.282-5.169 3.579-8.76 3.661-8.981 0-.005.005-.011.005-.011s2.828 3.655 7.905 8.992c13.773 14.491 44.086 41.403 79.255 41.403z" fill="#384c81"/><path d="m302.794 153.293h-46.794v-63.032c.005-.005.011-.011.011-.011s2.828 3.655 7.905 8.992c13.772 14.492 44.086 41.403 79.254 41.403-10.787 7.874-24.911 12.648-40.376 12.648z" fill="#1a3863"/><path d="m194.503 214.882h123.005v17.963h-123.005z" fill="#fe3345"/><path d="m173.847 253.333h164.322v25.582h-164.322z" fill="#fe3345"/><path d="m256 253.333h82.169v25.582h-82.169z" fill="#de1263"/><path d="m365.454 248.299c-10.782 7.878-24.911 12.653-40.376 12.653h-138.151c-15.465 0-29.589-4.775-40.376-12.653 17.72 0 34.195-6.824 47.952-15.454h123.005c13.756 8.63 30.232 15.454 47.946 15.454z" fill="#4e689b"/><path d="m365.454 248.299c-10.782 7.878-24.911 12.653-40.376 12.653h-103.614c-7.732 0-14.794-4.775-20.185-12.653 8.857 0 17.098-6.824 23.976-15.454h92.254c13.755 8.63 30.231 15.454 47.945 15.454z" fill="#384c81"/><path d="m375.09 344.073c-10.782 7.879-24.911 12.653-40.376 12.653h-157.433c-15.465 0-29.589-4.775-40.371-12.653 17.714 0 34.196-6.824 47.952-15.454h142.282c13.756 8.63 30.232 15.454 47.946 15.454z" fill="#4e689b"/><path d="m375.09 344.073c-10.782 7.879-24.911 12.653-40.376 12.653h-121.048c-8.316 0-15.914-4.775-21.71-12.653 9.522 0 18.39-6.824 25.787-15.454h109.4c13.757 8.63 30.233 15.454 47.947 15.454z" fill="#384c81"/></g><path d="m265.987 93.164c0 2.287-.773 4.396-2.071 6.078h-15.811c-1.298-1.682-2.066-3.791-2.066-6.078 0-5.505 4.461-9.966 9.96-9.971h.011c5.511 0 9.977 4.462 9.977 9.971z" fill="#ff9f00"/><path d="m325.078 260.952h-69.078v-28.107h61.508c13.756 8.63 30.232 15.454 47.946 15.454-10.782 7.879-24.911 12.653-40.376 12.653z" fill="#1a3863"/><path d="m375.09 344.073c-10.782 7.879-24.911 12.653-40.376 12.653h-78.714v-28.107h71.144c13.756 8.63 30.232 15.454 47.946 15.454z" fill="#1a3863"/><path d="m256 214.882h61.508v17.963h-61.508z" fill="#de1263"/><path d="m265.987 93.164c0 2.287-.773 4.396-2.071 6.078h-7.916v-16.049h.011c5.51 0 9.976 4.462 9.976 9.971z" fill="#ec781b"/></g><path d="m470.7 395.45c-45.65 70.16-124.76 116.55-214.7 116.55-93.43 0-175.17-50.05-219.86-124.8-2.66-4.44-5.18-8.97-7.57-13.59 1.41-.03 2.83-.02 4.24.05 21.54 1 41.77 13.48 49.7 30.66 8.89-8.46 24.29-7.02 35.99-1.63 11.71 5.4 18.14 18.03 14.79 29.04 4.48-8.34 13.61-8.56 24.31-9.25s21.65 3.92 27.54 11.6c9.94-22.52 46.74-32.05 70.86-19.7.09.04.18.09.27.14-.11-.6-.2-1.2-.27-1.8-.31-2.51-.3-5.04 0-7.55 2.25-18.81 20.65-36.72 42.5-39.6 25.48-3.36 52.22 13.49 56.05 35.32 6.89-7.56 20.11-5.83 31.17-4.39 11.05 1.45 20.92 8.31 24.86 17.27 2.86-17.12 29.11-25.96 48.87-22.36 4.04.74 7.83 2.13 11.25 4.04z" fill="#43af3e"/><path d="m470.71 395.45c-4.03 6.19-8.32 12.2-12.85 18-4.05 5.2-8.31 10.24-12.75 15.1-46.66 51.1-113.74 83.22-188.32 83.45h-.79v-106.83c2.25-18.81 20.65-36.72 42.5-39.6 25.48-3.36 52.22 13.49 56.05 35.32 6.89-7.56 20.11-5.83 31.17-4.39 11.05 1.45 20.92 8.31 24.86 17.27 2.86-17.12 29.11-25.96 48.87-22.36 4.05.74 7.84 2.14 11.26 4.04z" fill="#00a23e"/><path d="m411.44 459.41c-42.9 32.84-96.5 52.41-154.65 52.59h-.79c-67.99 0-129.8-26.51-175.64-69.76 2.77-.55 5.52-.76 8.1-.56 12.64.98 23.59 10.57 24.46 21.41 6.97-9.31 19.38-13.08 32.18-11.59 12.8 1.48 24.19 9.72 28.03 20.28 4.06-14.01 20.38-22.84 36.53-27 16.14-4.15 33.94-.49 46.34 9.28 5.85-10.42 19.41-15.85 32.92-15.64 6.83-21.99 58.25-27.27 50.83 9.75 11.19-9.79 28.91-13.69 44.22-9.71 12.11 3.15 22.28 11.1 27.47 20.95z" fill="#00a23e"/><path d="m411.44 459.41c-42.9 32.84-96.5 52.41-154.65 52.59h-.79v-57.94c5.85-10.42 19.41-15.85 32.92-15.64 6.83-21.99 58.25-27.27 50.83 9.75 11.19-9.79 28.91-13.69 44.22-9.71 12.11 3.15 22.28 11.1 27.47 20.95z" fill="#008839"/><g><path d="m155.906 194.91c0-.074.006-.147.006-.222 0-13.578-11.007-24.585-24.585-24.585-3.226 0-6.303.628-9.126 1.757-5.452-9.767-15.883-16.375-27.863-16.375-15.557 0-28.506 11.141-31.32 25.879-.839-.12-1.696-.186-2.568-.186-8.458 0-15.545 5.855-17.439 13.732z" fill="#fff"/><path d="m131.918 194.91c0-.043.003-.085.003-.128 0-7.808-6.329-14.137-14.137-14.137-1.855 0-3.625.361-5.248 1.01-3.135-5.616-9.133-9.416-16.022-9.416-8.946 0-16.391 6.406-18.01 14.881-.483-.069-.975-.107-1.477-.107-4.864 0-8.939 3.367-10.028 7.896h64.919z" fill="#dff7fd"/></g><g><path d="m465.65 202.687c0-.074.005-.147.005-.222 0-13.578-11.007-24.585-24.585-24.585-3.226 0-6.303.628-9.126 1.757-5.452-9.767-15.883-16.375-27.863-16.375-15.557 0-28.506 11.141-31.32 25.879-.839-.12-1.696-.186-2.568-.186-8.458 0-15.545 5.855-17.439 13.732z" fill="#fff"/><path d="m441.663 202.687c0-.043.003-.085.003-.128 0-7.808-6.329-14.137-14.137-14.137-1.855 0-3.625.361-5.247 1.01-3.135-5.616-9.133-9.416-16.022-9.416-8.946 0-16.391 6.406-18.01 14.881-.482-.069-.975-.107-1.476-.107-4.864 0-8.939 3.367-10.028 7.897z" fill="#dff7fd"/></g><g><path d="m148.513 73.131c0-.046-.003-.09-.003-.136 0-8.346 6.766-15.111 15.111-15.111 1.983 0 3.874.386 5.609 1.08 3.351-6.003 9.763-10.065 17.126-10.065 9.562 0 17.521 6.848 19.251 15.906.516-.074 1.042-.114 1.578-.114 5.199 0 9.555 3.599 10.719 8.441h-69.391z" fill="#fff"/><path d="m163.257 73.131c0-.026-.002-.052-.002-.078 0-4.799 3.89-8.689 8.689-8.689 1.14 0 2.228.222 3.226.621 1.927-3.452 5.614-5.788 9.848-5.788 5.499 0 10.075 3.938 11.07 9.147.297-.042.599-.066.908-.066 2.99 0 5.494 2.07 6.164 4.854h-39.903z" fill="#dff7fd"/></g><g><path d="m344.953 96.927c0-.046-.003-.09-.003-.136 0-8.346 6.766-15.112 15.112-15.112 1.983 0 3.874.386 5.609 1.08 3.351-6.003 9.763-10.065 17.126-10.065 9.562 0 17.521 6.848 19.251 15.907.516-.074 1.042-.114 1.578-.114 5.199 0 9.555 3.599 10.719 8.441h-69.392z" fill="#fff"/><path d="m359.698 96.927c0-.026-.002-.052-.002-.078 0-4.799 3.89-8.689 8.689-8.689 1.14 0 2.228.222 3.225.621 1.927-3.452 5.614-5.788 9.848-5.788 5.499 0 10.075 3.938 11.07 9.147.297-.042.599-.066.908-.066 2.99 0 5.494 2.07 6.164 4.854h-39.902z" fill="#dff7fd"/></g></g></g></svg>