<svg height="512pt" viewBox="0 0 512 512" width="512pt" xmlns="http://www.w3.org/2000/svg"><path d="m60.742188 421.550781c-37.601563-44.300781-60.398438-101.558593-60.73828175-164.140625-.76171825-141.03125 111.53515575-255.539062 252.55859375-257.3867185 142.960938-1.8749995 259.4375 113.4492185 259.4375 255.9765625 0 68.921875-27.246094 131.476562-71.542969 177.5h-353.980469c-9.917968 0-19.316406-4.386719-25.734374-11.949219zm0 0" fill="#f7c32a"/><path d="m390 200v194.054688c0 58.585937-43.3125 108.507812-101.433594 115.890624-10.664062 1.355469-21.535156 2.054688-32.566406 2.054688-79.792969 0-151.050781-36.511719-198-93.726562v-218.273438c0-33.136719 26.863281-60 60-60h30c16.570312 0 30-13.429688 30-30v-60c0-16.570312 13.429688-30 30-30h32c16.570312 0 30 13.429688 30 30v60c0 16.570312 13.429688 30 30 30h30c33.136719 0 60 26.863281 60 60zm0 0" fill="#bb5335"/><path d="m208 20h1.714844c-1.105469 3.128906-1.714844 6.492188-1.714844 10v90c0 27.613281-22.386719 50-50 50h-30c-22.089844 0-40 17.90625-40 40v239.160156c-10.839844-9.4375-20.878906-19.773437-30-30.890625v-218.269531c0-33.136719 26.863281-60 60-60h30c16.570312 0 30-13.433594 30-30v-60c0-16.566406 13.433594-30 30-30zm0 0" fill="#a0452c"/><path d="m270 60h-92c-16.570312 0-30-13.429688-30-30s13.429688-30 30-30h92c16.570312 0 30 13.429688 30 30s-13.429688 30-30 30zm0 0" fill="#03ad6b"/><path d="m174.511719 30c0-16.566406 13.429687-30 30-30h65.488281c16.566406 0 30 13.433594 30 30s-13.429688 30-30 30h-65.488281c-16.570313 0-30-13.433594-30-30zm-116.511719 180v170h332v-170zm0 0" fill="#23c77d"/><path d="m58 210h30.035156v170h-30.035156zm0 0" fill="#03ad6b"/><path d="m273.585938 511.386719c-16.921876-2.976563-30.394532-16.621094-32.699219-34.179688l-30.144531-229.554687c-.394532-2.996094 1.9375-5.652344 4.957031-5.652344h248.601562c3.019531 0 5.351563 2.65625 4.957031 5.652344l-23.6875 180.394531c-43.148437 47.511719-103.917968 78.722656-171.984374 83.339844zm0 0" fill="#99c8d3"/><path d="m469.257812 247.652344-23.6875 180.394531c-36.449218 40.136719-85.46875 68.632813-140.84375 79.300781-11.6875-6.074218-20.203124-17.566406-22.023437-31.40625l-30.71875-233.941406h212.316406c3.019531 0 5.351563 2.65625 4.957031 5.652344zm0 0" fill="#afdbe1"/><path d="m425.007812 280c3.019532 0 5.351563 2.65625 4.957032 5.652344l-16.113282 122.730468c-1.792968 13.640626-8.269531 26.25-18.371093 35.585938-.316407.292969-.628907.582031-.949219.871094-10.765625 9.839844-24.90625 15.160156-39.492188 15.160156h-30.328124c-29.628907 0-54.667969-21.964844-58.527344-51.34375l-16.152344-123.003906c-.390625-2.996094 1.9375-5.652344 4.957031-5.652344zm0 0" fill="#e2902a"/><path d="m429.96875 285.652344-16.117188 122.730468c-1.460937 11.128907-6.046874 21.570313-13.171874 30.109376-70.28125-10.632813-125.269532-76.675782-130.296876-158.492188h154.628907c3.015625 0 5.347656 2.65625 4.957031 5.652344zm0 0" fill="#f49f1f"/><path d="m400 350v30c0 5.523438-4.476562 10-10 10h-30c-5.523438 0-10-4.476562-10-10v-30c0-5.523438 4.476562-10 10-10h30c5.523438 0 10 4.476562 10 10zm-36.714844-62.070312-21.214844-21.214844c-3.90625-3.902344-10.238281-3.902344-14.140624 0l-21.214844 21.214844c-3.902344 3.90625-3.902344 10.234374 0 14.140624l21.214844 21.214844c3.902343 3.90625 10.234374 3.90625 14.140624 0l21.214844-21.214844c3.90625-3.90625 3.90625-10.234374 0-14.140624zm-47.425781 95c-3.90625-3.90625-10.238281-3.90625-14.144531 0l-21.210938 21.214843c-3.90625 3.902344-3.90625 10.234375 0 14.140625l21.210938 21.210938c3.90625 3.90625 10.238281 3.90625 14.144531 0l21.210937-21.210938c3.90625-3.90625 3.90625-10.238281 0-14.140625zm0 0" fill="#fbf1d1"/></svg>