<svg height="512pt" viewBox="0 0 512 512" width="512pt" xmlns="http://www.w3.org/2000/svg"><path d="m512 256c0 141.386719-114.613281 256-256 256s-256-114.613281-256-256 114.613281-256 256-256 256 114.613281 256 256zm0 0" fill="#2b697a"/><path d="m195.796875 16.6875c25.398437 23.59375 64.015625.867188 94.09375 30.949219.835937.835937 1.65625 1.675781 2.464844 2.523437.074219.082032.148437.160156.222656.238282 14.628906 15.519531 11.25 40.921874-6.984375 51.988281-15.65625 9.5-104.402344 5.050781-89.796875-85.699219zm0 0" fill="#75c24b"/><path d="m303.878906 139.421875c-.71875-25.585937-17.332031-50.300781-45.261718-63.203125-4.441407-2.050781-6.511719-7.21875-4.871094-11.828125 1.886718-5.304687 7.933594-7.84375 13.042968-5.476563 22.199219 10.277344 39.332032 26.972657 49.277344 46.25zm0 0" fill="#66a548"/><path d="m387.824219 58.816406c0 5.425782-3.910157 10.132813-9.273438 10.949219-32.554687 4.9375-57.699219 35.625-57.699219 75.84375h-19.136718c0-49.394531 31.714844-90.445313 72.992187-97.722656 6.832031-1.203125 13.117188 3.992187 13.117188 10.929687zm0 0" fill="#75c24b"/><path d="m471.515625 286.355469c-23.707031 79.632812-89.816406 132.878906-147.664063 118.929687-.050781-.011718-.097656-.023437-.152343-.039062-9.40625-2.289063-19.253907-2.289063-28.664063 0-.050781.011718-.097656.027344-.148437.039062-57.847657 13.949219-123.957031-39.296875-147.664063-118.929687-23.707031-79.632813 3.96875-155.5 61.816406-169.449219 23.640626-5.703125 48.660157-.179688 71.601563 13.78125 17.421875 10.605469 40.035156 10.605469 57.457031 0 22.941406-13.960938 47.960938-19.484375 71.601563-13.78125 57.847656 13.949219 85.523437 89.816406 61.816406 169.449219zm0 0" fill="#8cd246"/><path d="m422.167969 370.484375c-89.730469 14.707031-192.238281-41.648437-229.003907-125.925781-20.066406-45.992188-16.402343-90.796875 5.640626-124.421875 3.296874-1.296875 6.710937-2.378907 10.234374-3.230469 23.640626-5.703125 48.660157-.175781 71.601563 13.785156 17.421875 10.601563 40.035156 10.601563 57.457031 0 22.941406-13.960937 47.960938-19.488281 71.601563-13.785156 57.847656 13.953125 85.523437 89.816406 61.816406 169.449219-10.078125 33.863281-27.828125 62.949219-49.347656 84.128906zm0 0" fill="#b0da3c"/><path d="m422.828125 142.554688c26.261719 14.191406 26.0625 53.84375 15.484375 60.53125-14.976562 9.472656-69.851562-35.074219-63.347656-53.964844 3.792968-11.007813 29.527344-16.476563 47.863281-6.566406zm0 0" fill="#c3e171"/><path d="m343.601562 310c3.691407 0 6.652344 3.691406 6.382813 8.050781-6.101563 98.664063-75.691406 176.476563-160.648437 176.476563-84.960938 0-154.550782-77.808594-160.652344-176.476563-.269532-4.355469 2.691406-8.050781 6.382812-8.050781zm0 0" fill="#c3e171"/><path d="m221.261719 490.773438c-10.320313 2.457031-20.996094 3.753906-31.929688 3.753906-84.960937 0-154.546875-77.8125-160.648437-176.476563-.269532-4.359375 2.691406-8.050781 6.382812-8.050781h63.855469c-3.695313 0-6.652344 3.691406-6.386719 8.050781 5.316406 85.96875 58.835938 156.097657 128.726563 172.722657zm0 0" fill="#b0da3c"/><path d="m349.984375 316.375c-6.101563 78.160156-75.691406 139.796875-160.648437 139.796875-84.960938 0-154.550782-61.636719-160.652344-139.796875-.269532-3.449219 2.691406-6.375 6.382812-6.375h93.460938c-27.898438 0 215.074218 0 215.074218 0 3.691407 0 6.652344 2.925781 6.382813 6.375zm0 0" fill="#fae8b1"/><path d="m265.964844 313.042969c-2.910156 37.28125-36.105469 66.683593-76.628906 66.683593-40.527344 0-73.722657-29.402343-76.632813-66.683593-.128906-1.648438 1.285156-3.042969 3.046875-3.042969h44.578125c-13.304687 0 102.59375 0 102.59375 0 1.757813 0 3.171875 1.394531 3.042969 3.042969zm0 0" fill="#f8df92"/><path d="m227.390625 347.269531c-4.011719 3.746094-12.015625 3.6875-19.242187-.484375-7.230469-4.175781-11.285157-11.078125-10.042969-16.421875 4.011719-3.75 12.015625-3.691406 19.242187.484375 7.230469 4.171875 11.28125 11.074219 10.042969 16.421875zm-66.074219-16.421875c-7.226562 4.171875-11.28125 11.074219-10.039062 16.421875 4.007812 3.746094 12.011718 3.6875 19.242187-.484375 7.230469-4.175781 11.28125-11.078125 10.042969-16.421875-4.011719-3.75-12.015625-3.691406-19.246094.484375zm0 0" fill="#d58a2d"/></svg>