<svg height="512pt" viewBox="0 0 512 512" width="512pt" xmlns="http://www.w3.org/2000/svg"><path d="m512 256c0 114.199219-74.78125 210.917969-178.042969 243.898438-11.578125-144.054688-132.140625-257.351563-279.171875-257.351563-18.699218 0-36.96875 1.851563-54.644531 5.347656 4.285156-137.632812 117.1875-247.894531 255.859375-247.894531 141.386719 0 256 114.613281 256 256zm0 0" fill="#2b697a"/><path d="m398.847656 100.339844 108.871094 108.871094c2.804688 15.171874 4.28125 30.808593 4.28125 46.789062 0 2.613281-.050781 5.21875-.128906 7.8125-32.59375 33.734375-60.507813 71.707031-82.980469 112.910156-23.910156 43.835938-53.980469 84.019532-89.285156 119.324219l-2.984375 2.984375c-25.347656 8.40625-52.449219 12.96875-80.621094 12.96875-64.128906 0-122.75-23.582031-167.664062-62.542969.804687-2.425781 2.15625-4.710937 4.089843-6.644531l48.90625-48.90625c35.304688-35.304688 65.371094-75.488281 89.28125-119.324219 23.910157-43.835937 53.980469-84.019531 89.285157-119.324219l54.917968-54.917968c6.632813-6.636719 17.394532-6.636719 24.03125 0zm0 0" fill="#db5886"/><path d="m488.992188 190.484375c-39.316407 39.71875-73.570313 84.054687-101.730469 131.734375-28.75 48.675781-63.832031 93.875-104.183594 134.226562l-54.132813 54.132813c-32.996093-3.464844-64.121093-13.207031-92.167968-28l31.285156-31.28125c40.347656-40.351563 75.433594-85.554687 104.183594-134.226563 28.746094-48.675781 63.832031-93.875 104.183594-134.226562l52.460937-52.460938zm-240.351563 102.765625c26.472656-48.53125 59.757813-93.019531 98.847656-132.109375l56.082031-56.078125-25.148437-25.148438c-6.636719-6.636718-17.398437-6.636718-24.035156 0l-54.914063 54.914063c-35.308594 35.308594-65.375 75.492187-89.285156 119.324219-23.910156 43.835937-53.976562 84.019531-89.285156 119.328125l-48.90625 48.90625c-2.046875 2.046875-3.460938 4.492187-4.242188 7.082031 12.492188 13.554688 26.433594 25.753906 41.574219 36.355469l40.460937-40.464844c39.089844-39.089844 72.378907-83.578125 98.851563-132.109375zm0 0" fill="#cc4978"/><path d="m465.558594 167.054688c-39.316406 39.71875-97.398438 105.265624-125.558594 152.945312-28.75 48.675781-40.003906 72.660156-80.355469 113.011719l-70.222656 70.226562c-9.558594-2.566406-18.898437-5.664062-27.980469-9.273437l24.644532-24.644532c40.351562-40.351562 75.433593-85.550781 104.183593-134.226562 28.75-48.671875 63.832031-93.875 104.183594-134.226562l52.460937-52.460938zm0 0" fill="#e788a8"/><path d="m358.003906 151.578125c6.636719 6.640625 6.636719 17.398437 0 24.035156l-6.847656 6.851563c-35.308594 35.304687-65.375 75.488281-89.285156 119.324218-23.910156 43.832032-53.976563 84.015626-89.285156 119.324219l-52.097657 52.097657c-63.550781-39.730469-108.417969-106.558594-118.390625-184.316407 23.507813-27.515625 44.132813-57.414062 61.5-89.246093 23.910156-43.835938 53.976563-84.019532 89.285156-119.328126l54.914063-54.914062c6.636719-6.636719 17.398437-6.636719 24.03125 0zm0 0" fill="#f9a29b"/><path d="m321.972656 115.550781c-39.316406 39.71875-73.570312 84.054688-101.730468 131.734375-28.75 48.671875-63.832032 93.875-104.183594 134.226563l-48.140625 48.136719c-19.785157-21.417969-35.964844-46.21875-47.554688-73.445313 32.300781-35.054687 60.808594-73.339844 84.863281-114.066406 28.75-48.675781 63.832032-93.875 104.183594-134.226563l52.460938-52.460937zm-240.351562 102.765625c21.242187-38.945312 46.886718-75.28125 76.382812-108.316406 7.261719-8.132812 14.746094-16.074219 22.46875-23.792969l56.078125-56.078125-25.148437-25.152344c-6.636719-6.636718-17.398438-6.636718-24.035156 0l-54.914063 54.917969c-15.765625 15.761719-30.476563 32.503907-44.070313 50.105469-16.851562 21.816406-31.980468 44.957031-45.214843 69.21875-12.632813 23.160156-27 45.289062-42.933594 66.230469-.140625 3.5-.234375 7.015625-.234375 10.550781 0 23.050781 3.0625 45.378906 8.773438 66.625 28.011718-31.964844 52.460937-66.929688 72.847656-104.308594zm0 0" fill="#f79085"/><path d="m298.539062 92.117188c-39.3125 39.722656-100.378906 110.203124-128.539062 157.882812-28.75 48.675781-37.023438 67.726562-77.375 108.078125l-45.691406 45.691406c-5.25-7.414062-10.101563-15.128906-14.554688-23.09375 34.785156-36.792969 65.335938-77.28125 90.871094-120.515625 28.75-48.675781 63.835938-93.875 104.183594-134.226562l52.460937-52.460938zm0 0" fill="#fccfc9"/></svg>