<svg height="512pt" viewBox="0 0 512 512.00074" width="512pt" xmlns="http://www.w3.org/2000/svg"><path d="m512 255.742188c.140625 141.082031-114.921875 256.257812-256 256.257812-127.132812 0-232.601562-92.675781-252.578125-214.148438-.132813-.792968-.078125-1.609374.136719-2.382812 3.191406-11.417969 4.867187-23.222656 4.867187-35.300781 0-13.015625-1.960937-25.707031-5.652343-37.941407-.246094-.816406-.320313-1.671874-.199219-2.511718 17.621093-124.195313 124.359375-219.714844 253.425781-219.714844 141.300781 0 255.863281 114.476562 256 255.742188zm0 0" fill="#ec3c52"/><path d="m444.605469 344.761719c-50.707031 108.746093-160.53125 164.859375-245.296875 125.332031-.039063-.019531-.082032-.039062-.121094-.058594-5.574219-2.605468-6.421875-10.21875-1.597656-14.035156 17.082031-13.519531 33.882812-29.695312 49.949218-48.175781-68.332031 25.257812-139.453124 16.292969-183.484374-29.898438-.03125-.03125-.0625-.066406-.09375-.097656-4.242188-4.457031-2.257813-11.855469 3.625-13.652344 28.636718-8.746093 58.613281-22.355469 88.496093-40.429687-56.929687 9.710937-111.742187.085937-152.542969-25.210938-2.316406-13.835937-3.539062-28.042968-3.539062-42.535156 0-12.765625.949219-25.308594 2.753906-37.570312 48.863282-1.71875 102.96875-12.503907 157.445313-33.066407 79.167969-29.882812 144.097656-74.742187 185.027343-123.070312 1.515626 3.039062 15.019532 7.066406 22.164063 10.6875.457031-1.390625.914063-2.78125 1.347656-4.167969 1.144531.984375 2.273438 1.996094 3.394531 3.019531 3.640626 1.324219 7.25 2.800781 10.808594 4.460938 84.765625 39.527343 112.371094 159.726562 61.664063 268.46875zm0 0" fill="#d9a92f"/><path d="m404.664062 69.394531-1.894531 25.054688c-.378906 5.007812-5.148437 8.730469-10.65625 8.3125l-52.203125-3.945313c-43.816406 42.742188-90.460937 77.207032-165.183594 104.8125-13.054687 4.824219-25.707031 8.886719-37.917968 12.28125-55.382813 15.402344-101.730469 17.128906-135.511719 14.195313.402344-4 .90625-7.96875 1.488281-11.914063 41.851563-1.730468 87.542969-10.238281 134.023438-25.566406 7.78125-2.566406 15.582031-5.316406 23.390625-8.261719 64.820312-24.46875 182.324219-80.332031 188.265625-167.539062l.636718-8.480469c.378907-5.007812 5.152344-8.726562 10.660157-8.3125l17.585937 1.328125c7.554688.574219 14.167969 4.972656 17.082032 11.371094 8.1875 17.972656 11.691406 37.371093 10.234374 56.664062zm0 0" fill="#f1bd1f"/><path d="m404.605469 326.109375c-30.320313 65.027344-76.527344 114.785156-125.847657 141.707031-24.386718 13.3125-53.703124 14.164063-78.929687 2.515625-.171875-.078125-.347656-.160156-.519531-.238281l-.121094-.058594c-5.570312-2.597656-6.488281-10.164062-1.671875-13.976562 17.109375-13.53125 33.933594-29.726563 50.023437-48.234375 31.8125-11.757813 63.023438-30.925781 90.613282-57.226563 69.214844-65.976562 94.753906-156.851562 69.609375-225.304687-1.925781-5.234375-2.882813-1.847657-2.976563.84375-2.234375 62.570312-36.25 134.523437-97.085937 192.515625-51.605469 49.199218-112.332031 78.636718-167.785157 85.96875-28.023437 3.703125-56.167968-6.117188-75.710937-26.535156-.050781-.054688-.101563-.105469-.152344-.160157l-.09375-.097656c-4.242187-4.464844-2.320312-11.835937 3.574219-13.636719 58.066406-17.726562 121.632812-55.394531 178.8125-109.902344 31.929688-30.4375 58.707031-63.117187 79.699219-95.992187.957031-1.5-1.085938-3.09375-2.304688-1.792969-44.644531 47.480469-117.730469 95.601563-177.632812 118.210938-65.621094 24.773437-102.78125 24.546875-144.613281 8.925781-.976563-9.078125-1.492188-18.300781-1.492188-27.640625 0-9.902344.570312-19.675781 1.667969-29.289062.125-1.085938 14.332031 12.957031 94.332031-3.042969 93.71875-18.746094 231.5625-67.769531 266.355469-193.667969v-20c0-5.523438 4.476562-10 10-10h17.636719c7.496093 0 14.429687 4.160156 17.792968 10.859375 9.578125 19.085937 14.566406 40.148437 14.566406 61.5v27.640625c0 1.265625.945313 7.132812 1.539063 8.75 21.855469 59.351562 16.78125 140.023438-19.285156 217.359375zm0 0" fill="#f5cf51"/><path d="m93.488281 355.074219c1.003907 7.675781.550781 16.554687-1.640625 25.734375-1.371094 5.734375-3.300781 11.050781-5.613281 15.800781-7.960937-5.359375-15.398437-11.570313-22.183594-18.683594-.03125-.03125-.058593-.066406-.09375-.097656-4.238281-4.457031-2.253906-11.855469 3.628907-13.652344 8.527343-2.605469 17.175781-5.648437 25.902343-9.101562zm129.574219 100.316406c-2.933594-4.773437-6.226562-9.039063-9.703125-12.710937-5.222656 4.683593-10.480469 9.136718-15.769531 13.320312-4.824219 3.816406-3.976563 11.429688 1.597656 14.035156.039062.019532.082031.039063.121094.058594 10.839844 5.054688 22.085937 8.53125 33.566406 10.546875-1.304688-7.957031-4.589844-16.75-9.8125-25.25zm0 0" fill="#e2902a"/></svg>