<svg height="512pt" viewBox="0 0 512 512" width="512pt" xmlns="http://www.w3.org/2000/svg"><path d="m512 256c0 141.386719-114.613281 256-256 256s-256-114.613281-256-256 114.613281-256 256-256 256 114.613281 256 256zm0 0" fill="#6dcce4"/><path d="m350 71.0625c0 5.523438 4.476562 10 10 10h15c8.285156 0 15 6.71875 15 15 0 8.285156-6.714844 15-15 15h-130c-8.285156 0-15-6.714844-15-15 0-8.28125 6.714844-15 15-15h75c5.523438 0 10-4.476562 10-10s-4.476562-10-10-10h-35c-8.285156 0-15-6.714844-15-15 0-8.28125 6.714844-15 15-15h93.324219c15.585937 8.496094 30.183593 18.574219 43.597656 30h-61.921875c-5.523438 0-10 4.476562-10 10zm0 0" fill="#b7e3ef"/><path d="m511.613281 270c-7.269531 134.871094-118.925781 242-255.613281 242s-248.34375-107.128906-255.613281-242zm0 0" fill="#ec3c52"/><path d="m512 269c0 93.335938-114.613281 169-256 169s-256-75.664062-256-169 114.613281-169 256-169 256 75.664062 256 169zm0 0" fill="#bb5335"/><path d="m482 269c0 78.753906-101.183594 142.59375-226 142.59375s-226-63.839844-226-142.59375 101.183594-142.59375 226-142.59375 226 63.839844 226 142.59375zm0 0" fill="#a0452c"/><path d="m419.808594 161.828125c-43.871094-27.679687-102.042969-42.921875-163.808594-42.921875s-119.9375 15.242188-163.808594 42.921875c-44.941406 28.355469-69.691406 66.417969-69.691406 107.171875s24.75 78.816406 69.691406 107.171875c43.867188 27.679687 102.042969 42.921875 163.808594 42.921875s119.9375-15.242188 163.808594-42.921875c44.941406-28.355469 69.691406-66.417969 69.691406-107.171875s-24.75-78.816406-69.691406-107.171875zm-382.085938 113.171875h210.777344v37.5h-199.332031c-6.640625-12-10.523438-24.601562-11.445313-37.5zm.269532-15c1.390624-12.929688 5.757812-25.53125 12.902343-37.5h197.605469v37.5zm225.507812 15h210.777344c-.921875 12.898438-4.808594 25.5-11.449219 37.5h-199.328125zm0-15v-37.5h197.605469c7.144531 11.96875 11.511719 24.570312 12.902343 37.5zm186.921875-52.5h-186.921875v-37.5h140.800781c2.546875 1.464844 5.050781 2.96875 7.503907 4.515625 15.691406 9.898437 28.636718 21.019531 38.617187 32.984375zm-201.921875-52.5h-109.535156c32.621094-12.917969 70.160156-20.1875 109.535156-21.007812zm15-21.007812c39.375.820312 76.914062 8.089843 109.535156 21.007812h-109.535156zm-163.304688 40.523437c2.453126-1.546875 4.957032-3.050781 7.503907-4.515625h140.800781v37.5h-186.921875c9.980469-11.964844 22.925781-23.085938 38.617187-32.984375zm-41.042968 152.984375h189.347656v37.5h-145.84375c-.824219-.503906-1.648438-1.003906-2.460938-1.515625-16.996093-10.722656-30.769531-22.875-41.042968-35.984375zm204.347656 52.5h116.773438c-34.253907 14.789062-74.449219 23.125-116.773438 24.007812zm-15 24.007812c-42.324219-.882812-82.519531-9.21875-116.773438-24.007812h116.773438zm163.304688-40.523437c-.8125.511719-1.636719 1.011719-2.457032 1.515625h-145.847656v-37.5h189.347656c-10.273437 13.109375-24.046875 25.261719-41.042968 35.984375zm0 0" fill="#e06e4e"/><path d="m171.925781 239.949219c5.125 8.839843 8.074219 19.097656 8.074219 30.050781 0 33.136719-26.863281 60-60 60s-60-26.863281-60-60c0-32.492188 25.832031-58.933594 58.074219-59.949219-5.125-8.839843-8.074219-19.097656-8.074219-30.050781 0-33.136719 26.863281-60 60-60s60 26.863281 60 60c0 32.492188-25.832031 58.933594-58.074219 59.949219zm0 0" fill="#f1bd1f"/><path d="m230 180c0 11.441406-3.207031 22.136719-8.765625 31.234375-9.097656 5.558594-19.792969 8.765625-31.234375 8.765625-33.136719 0-60-26.863281-60-60 0-11.441406 3.207031-22.136719 8.765625-31.234375 9.097656-5.558594 19.792969-8.765625 31.234375-8.765625 33.136719 0 60 26.863281 60 60zm-110 30c-11.441406 0-22.136719 3.207031-31.234375 8.765625-5.558594 9.097656-8.765625 19.792969-8.765625 31.234375 0 33.136719 26.863281 60 60 60 11.441406 0 22.136719-3.207031 31.234375-8.765625 5.558594-9.097656 8.765625-19.792969 8.765625-31.234375 0-33.136719-26.863281-60-60-60zm0 0" fill="#f5cf51"/><path d="m497.496094 191.644531-147.222656 85c-11.957032 6.90625-27.25 2.808594-34.152344-9.148437-4.625-8.011719-4.304688-17.511719-.003906-24.988282l-15.84375 9.148438c-11.957032 6.902344-27.25 2.804688-34.152344-9.152344-6.902344-11.957031-2.808594-27.246094 9.152344-34.148437l147.222656-85c11.957031-6.90625 27.246094-2.808594 34.152344 9.148437 4.625 8.011719 4.304687 17.511719 0 24.992188l15.847656-9.152344c11.957031-6.902344 27.246094-2.804688 34.152344 9.152344 6.902343 11.957031 2.804687 27.246094-9.152344 34.148437zm0 0" fill="#75c24b"/><path d="m437.496094 149.335938-147.222656 85c-8.878907 5.125-19.589844 4.183593-27.34375-1.535157-1.074219-9.574219 3.464843-19.320312 12.34375-24.445312l147.222656-85c8.878906-5.125 19.589844-4.183594 27.34375 1.53125 1.074218 9.574219-3.464844 19.324219-12.34375 24.449219zm62.34375.542968c-7.753906-5.71875-18.464844-6.660156-27.34375-1.535156l-147.222656 85c-8.878907 5.128906-13.417969 14.875-12.34375 24.449219 7.753906 5.714843 18.464843 6.65625 27.34375 1.53125l147.222656-85c8.878906-5.125 13.417968-14.871094 12.34375-24.445313zm0 0" fill="#b0da3c"/><path d="m255 330c0 33.136719-26.863281 60-60 60s-60-26.863281-60-60 26.863281-60 60-60 60 26.863281 60 60zm0 0" fill="#fae8b1"/><path d="m190 291.816406c-23.847656 0-43.183594 19.335938-43.183594 43.183594s19.335938 43.183594 43.183594 43.183594 43.183594-19.335938 43.183594-43.183594-19.335938-43.183594-43.183594-43.183594zm0 76.367188c-18.324219 0-33.183594-14.855469-33.183594-33.183594s14.859375-33.183594 33.183594-33.183594 33.183594 14.855469 33.183594 33.183594-14.859375 33.183594-33.183594 33.183594zm0-56.367188c-12.804688 0-23.183594 10.378906-23.183594 23.183594s10.378906 23.183594 23.183594 23.183594 23.183594-10.378906 23.183594-23.183594-10.378906-23.183594-23.183594-23.183594zm0 36.367188c-7.28125 0-13.183594-5.902344-13.183594-13.183594s5.902344-13.183594 13.183594-13.183594 13.183594 5.902344 13.183594 13.183594-5.902344 13.183594-13.183594 13.183594zm0 0" fill="#f8df92"/><path d="m385 285c0 5.078125-.480469 10.0625-1.410156 14.921875-8.878906 46.476563-62.882813 67.621094-102.183594 41.273437-19.769531-13.253906-44.964844-21.195312-72.40625-21.195312-4.867188 0-9.664062.25-14.371094.734375-21.003906 2.164063-39.511718-14.171875-39.628906-35.285156 0-.148438 0-.300781 0-.449219 0-52.46875 51.488281-95 115-95s115 42.53125 115 95zm0 0" fill="#e2902a"/><path d="m281.40625 341.195312c-13.582031-9.109374-29.730469-15.707031-47.40625-18.945312-.671875-.121094-1.53125-.234375-2.546875-.335938-28.1875-2.796874-47.328125-30.285156-39.363281-57.46875.585937-1.996093 1.222656-3.726562 1.910156-5.121093 17.035156-34.394531 54.269531-60.191407 99.523438-67.332031 52.230468 8.96875 91.476562 47.199218 91.476562 93.007812 0 5.078125-.480469 10.0625-1.410156 14.925781-8.878906 46.472657-62.882813 67.617188-102.183594 41.269531zm0 0" fill="#f7ad3b"/><path d="m224 215c0-4.144531 3.359375-7.5 7.5-7.5h75c4.140625 0 7.5 3.355469 7.5 7.5s-3.359375 7.5-7.5 7.5h-75c-4.140625 0-7.5-3.355469-7.5-7.5zm132.5 70h-165c-4.140625 0-7.5 3.355469-7.5 7.5 0 4.140625 3.359375 7.5 7.5 7.5h165c4.140625 0 7.5-3.359375 7.5-7.5 0-4.144531-3.359375-7.5-7.5-7.5zm-20 35h-35c-4.140625 0-7.5 3.355469-7.5 7.5 0 4.140625 3.359375 7.5 7.5 7.5h35c4.140625 0 7.5-3.359375 7.5-7.5 0-4.144531-3.359375-7.5-7.5-7.5zm-145-60h155c4.140625 0 7.5-3.355469 7.5-7.5s-3.359375-7.5-7.5-7.5h-155c-4.140625 0-7.5 3.355469-7.5 7.5s3.359375 7.5 7.5 7.5zm0 0" fill="#d58a2d"/></svg>