<svg height="512pt" viewBox="0 0 512.00001 512" width="512pt" xmlns="http://www.w3.org/2000/svg"><path d="m458.332031 391.179688v12.804687c0 5.914063-2.09375 11.628906-5.886719 16.164063-12.273437 14.671874-26.15625 27.945312-41.382812 39.554687-4.667969 3.558594-11.394531.226563-11.394531-5.644531 0-13.839844-11.21875-25.058594-25.058594-25.058594h-299.203125c-5.277344 0-10.273438-2.328125-13.710938-6.332031-38.453124-44.785157-61.695312-103.011719-61.695312-166.667969 0-141.382812 114.613281-256 256-256 141.089844 0 256.046875 114.996094 256 256.085938-.011719 38.777343-8.652344 75.53125-24.097656 108.464843-1.464844 3.121094-4.605469 5.113281-8.054688 5.113281-11.882812.003907-21.515625 9.636719-21.515625 21.515626zm0 0" fill="#03ad6b"/><path d="m512 256c0 4.699219-.136719 9.363281-.386719 14h-511.226562c-.25-4.636719-.386719-9.300781-.386719-14 0-141.386719 114.613281-256 256-256s256 114.613281 256 256zm0 0" fill="#23c77d"/><path d="m250 170v290c0 22.089844-17.910156 40-40 40h-31.636719c-46.6875-14.84375-87.558593-42.710938-118.363281-79.335938v-250.664062c0-18.742188 12.890625-34.464844 30.289062-38.808594 1.796876-11.761718 11.792969-20.820312 23.972657-21.171875l4.738281-90.019531h72l4.738281 90.019531c12.179688.351563 22.175781 9.410157 23.972657 21.175781 17.398437 4.339844 30.289062 20.0625 30.289062 38.804688zm0 0" fill="#d25e3e"/><path d="m219.976562 159.335938c.378907 5.824218-4.234374 10.664062-9.976562 10.664062h-99.851562c-10.976563 0-20.089844 8.785156-20.148438 19.761719v.21875 260.890625c-10.816406-9.222656-20.851562-19.328125-30-30.207032v-250.664062c0-18.742188 12.890625-34.464844 30.289062-38.808594 1.796876-11.761718 11.792969-20.820312 23.972657-21.171875l4.738281-90.019531h30l-3.425781 79.570312c-.246094 5.6875 4.296875 10.429688 9.988281 10.429688h24.4375c5.742188 0 10.355469 4.839844 9.976562 10.664062-.34375 5.316407-4.992187 9.335938-10.320312 9.335938h-35.394531c-.117188.003906-.234375.007812-.351563.011719-12.964844.558593-12.4375 19.988281.539063 19.988281h65.207031c5.328125 0 9.976562 4.019531 10.320312 9.335938zm0 0" fill="#bb5335"/><path d="m488.101562 313.808594v50.292968c-9.710937 20.8125-22.136718 40.105469-36.824218 57.417969v-101.519531c0-11.046875-8.957032-20-20-20h-17.960938v157.960938c-43.40625 33.859374-98.003906 54.039062-157.316406 54.039062-32.851562 0-64.253906-6.195312-93.109375-17.46875v-286.117188c0-11.046874 8.953125-20 20-20h210.425781c11.046875 0 20 8.953126 20 20v54.757813h24.148438c27.96875 0 50.636718 22.671875 50.636718 50.636719zm0 0" fill="#afdbe1"/><path d="m162.890625 494.53125v-284.640625c0-11.863281 9.613281-21.476563 21.472656-21.476563h29.113281c-11.863281 0-21.476562 9.613282-21.476562 21.476563v294.042969c-9.953125-2.5625-19.664062-5.710938-29.109375-9.402344zm0 0" fill="#99c8d3"/><path d="m365.695312 335.722656h-155.183593c-11.046875 0-20-8.953125-20-20v-107.308594c0-11.046874 8.953125-20 20-20h155.183593c11.046876 0 20 8.953126 20 20v107.308594c0 11.046875-8.953124 20-20 20zm0 0" fill="#f8df92"/><path d="m385.695312 302.402344v174.335937c-38.035156 22.398438-82.359374 35.261719-129.695312 35.261719-22.636719 0-44.585938-2.953125-65.488281-8.46875v-201.128906h98.007812c0-7.625 6.179688-13.808594 13.808594-13.808594 7.625 0 13.808594 6.179688 13.808594 13.808594zm-154.230468-19.128906c7.628906 0 13.808594-6.179688 13.808594-13.808594 0-7.625-6.179688-13.8125-13.808594-13.8125-7.625 0-13.808594 6.183594-13.808594 13.8125s6.183594 13.808594 13.808594 13.808594zm0 0" fill="#f5cf51"/><path d="m240.628906 335.722656c0 7.628906-6.183594 13.8125-13.808594 13.8125-7.628906 0-13.808593-6.183594-13.808593-13.8125 0-7.625 6.179687-13.808594 13.808593-13.808594 7.625 0 13.808594 6.183594 13.808594 13.808594zm27.621094 86.027344c-7.628906 0-13.808594 6.183594-13.808594 13.808594 0 7.628906 6.179688 13.8125 13.808594 13.8125s13.808594-6.183594 13.808594-13.8125c.003906-7.625-6.179688-13.808594-13.808594-13.808594zm80.550781 27.621094c-7.625 0-13.808593 6.183594-13.808593 13.808594 0 7.628906 6.183593 13.8125 13.808593 13.8125 7.628907 0 13.8125-6.183594 13.8125-13.8125 0-7.625-6.183593-13.808594-13.8125-13.808594zm-16.101562-55.242188c0-7.625-6.183594-13.8125-13.8125-13.8125-7.625 0-13.808594 6.183594-13.808594 13.8125s6.183594 13.808594 13.808594 13.808594c7.628906 0 13.8125-6.179688 13.8125-13.808594zm0 0" fill="#f1bd1f"/><path d="m426.207031 209.871094c0 17.601562-14.269531 31.867187-31.871093 31.867187-9.242188 0-17.550782-3.941406-23.371094-10.226562v28.640625c0 10.394531-8.609375 18.777344-19.085938 18.402344-9.980468-.355469-17.742187-8.859376-17.742187-18.839844v-.121094c0-4.910156-4.078125-8.707031-8.988281-8.648438-.667969.007813-1.347657-.019531-2.035157-.085937-8.304687-.808594-14.773437-7.238281-16.269531-15.21875-5.257812 3.832031-11.734375 6.097656-18.742188 6.097656-11.085937 0-20.847656-5.664062-26.554687-14.253906-5.710937 8.589844-15.472656 14.253906-26.558594 14.253906-11.089843 0-20.851562-5.664062-26.558593-14.253906-5.710938 8.589844-15.46875 14.253906-26.558594 14.253906-17.601563 0-31.871094-14.265625-31.871094-31.867187 0-17.601563 14.269531-31.871094 31.871094-31.871094 11.089844 0 20.847656 5.664062 26.558594 14.257812 5.707031-8.59375 15.46875-14.257812 26.558593-14.257812 11.085938 0 20.847657 5.664062 26.558594 14.257812 5.707031-8.59375 15.46875-14.257812 26.554687-14.257812 11.089844 0 20.851563 5.664062 26.558594 14.257812 5.710938-8.59375 15.472656-14.257812 26.558594-14.257812 11.089844 0 20.851562 5.664062 26.558594 14.257812 5.710937-8.59375 15.472656-14.257812 26.558594-14.257812 17.601562 0 31.871093 14.269531 31.871093 31.871094zm0 0" fill="#fbf1d1"/><path d="m394.335938 178c12.792968 0 23.816406 7.539062 28.890624 18.414062-5.074218 10.875-16.097656 18.414063-28.890624 18.414063-7.859376 0-15.054688-2.847656-20.609376-7.5625-3.457031-2.9375-8.441406-2.9375-11.898437 0-5.554687 4.714844-12.75 7.5625-20.609375 7.5625s-15.050781-2.847656-20.605469-7.5625c-3.457031-2.9375-8.445312-2.9375-11.902343 0-5.554688 4.714844-12.746094 7.5625-20.605469 7.5625s-15.054688-2.847656-20.609375-7.5625c-3.457032-2.9375-8.441406-2.9375-11.898438 0-5.558594 4.714844-12.75 7.5625-20.609375 7.5625s-15.050781-2.847656-20.609375-7.5625c-3.457031-2.9375-8.441406-2.9375-11.898437 0-5.554688 4.714844-12.75 7.5625-20.609375 7.5625-12.792969 0-23.816406-7.539063-28.890625-18.414063 5.074219-10.875 16.097656-18.414062 28.890625-18.414062 9.019531 0 17.164062 3.75 22.964844 9.777344 1.960937 2.039062 5.222656 2.039062 7.1875 0 5.796874-6.027344 13.941406-9.777344 22.960937-9.777344 9.023437 0 17.167969 3.75 22.964844 9.777344 1.964843 2.042968 5.226562 2.042968 7.191406 0 5.796875-6.027344 13.9375-9.777344 22.960937-9.777344 9.023438 0 17.167969 3.75 22.964844 9.777344 1.964844 2.042968 5.226563 2.042968 7.191406 0 5.796876-6.027344 13.9375-9.777344 22.960938-9.777344s17.167969 3.75 22.964844 9.777344c1.964844 2.039062 5.226562 2.039062 7.1875 0 5.800781-6.027344 13.941406-9.777344 22.964844-9.777344zm0 0" fill="#fff5f5"/><path d="m200 10v10c0 5.523438-4.476562 10-10 10h-70c-5.523438 0-10-4.476562-10-10v-10c0-5.523438 4.476562-10 10-10h70c5.523438 0 10 4.476562 10 10zm0 0" fill="#f1bd1f"/><path d="m200 10v10c0 5.523438-4.476562 10-10 10h-50c-5.523438 0-10-4.476562-10-10v-10c0-5.523438 4.476562-10 10-10h50c5.523438 0 10 4.476562 10 10zm0 0" fill="#f5cf51"/></svg>