<svg height="511pt" viewBox="1 1 511.99988 511" width="511pt" xmlns="http://www.w3.org/2000/svg"><path d="m512 256.5c0 29.972656-5.152344 58.742188-14.617188 85.46875-3.011718 8.503906-11.082031 14.167969-20.105468 14.167969h-442.554688c-9.027344 0-17.101562-5.671875-20.113281-14.179688-9.566406-27.019531-14.722656-56.125-14.609375-86.449219.226562-59.484374 20.519531-114.019531 54.464844-157.257812 6.554687 1.351562 13.34375 2.0625 20.296875 2.0625 50.632812 0 92.464843-37.628906 99.082031-86.445312 25.9375-8.726563 53.757812-13.429688 82.722656-13.367188 141.125.304688 255.433594 114.804688 255.433594 256zm0 0" fill="#6fb0c4"/><path d="m497.882812 340.5c-34.765624 100.121094-129.925781 172-241.882812 172-111.960938 0-207.117188-71.878906-241.882812-172zm0 0" fill="#f7b95f"/><path d="m253.09375 110.3125c0 55.230469-44.769531 100-100 100-55.226562 0-100-44.769531-100-100 0-3.605469.214844-7.160156.589844-10.664062 10.730468-13.824219 22.851562-26.519532 36.148437-37.875 14.453125-5.871094 27.222657-15.023438 37.382813-26.539063 15.484375-9.03125 32.003906-16.492187 49.335937-22.148437 43.910157 10.558593 76.542969 50.078124 76.542969 97.226562zm0 0" fill="#465c5c"/><path d="m88.921875 62.539062c12.574219-10.839843 26.214844-20.472656 40.738281-28.730468 7.414063-2.265625 15.28125-3.496094 23.4375-3.496094 44.179688 0 80 35.816406 80 80s-35.820312 80-80 80c-44.183594 0-80-35.816406-80-80-.003906-17.90625 5.882813-34.441406 15.824219-47.773438zm0 0" fill="#afdbe1"/><path d="m233.09375 110.3125c0 40.792969-30.539062 74.433594-70 79.355469-39.457031-4.921875-70-38.5625-70-79.355469s30.542969-74.429688 70-79.355469c39.460938 4.925781 70 38.5625 70 79.355469zm0 0" fill="#e1eff4"/><path d="m163.09375 50.3125c0 5.523438-4.476562 10-10 10s-10-4.476562-10-10 4.476562-10 10-10 10 4.476562 10 10zm-10 110c-5.523438 0-10 4.476562-10 10s4.476562 10 10 10 10-4.476562 10-10-4.476562-10-10-10zm-60-60c-5.523438 0-10 4.476562-10 10s4.476562 10 10 10 10-4.476562 10-10-4.476562-10-10-10zm120 0c-5.523438 0-10 4.476562-10 10s4.476562 10 10 10 10-4.476562 10-10-4.476562-10-10-10zm0 0" fill="#99c8d3"/><path d="m154.152344 109.136719c.3125.382812.613281.773437.894531 1.175781-4.1875 5.976562-12.011719 10-20.976563 10-8.964843 0-16.785156-4.023438-20.976562-10 4.1875-5.976562 12.011719-10 20.976562-10 5.585938 0 10.722657 1.5625 14.820313 4.183594-3.578125-6.460938-5.796875-15.34375-5.796875-25.160156 0-13.238282 4.023438-24.789063 10-30.976563 5.976562 6.1875 10 17.738281 10 30.976563 0 12.445312-3.554688 23.394531-8.941406 29.800781zm0 0" fill="#465c5c"/><path d="m153.09375 95.3125c8.285156 0 15 6.71875 15 15 0 8.285156-6.714844 15-15 15-8.28125 0-15-6.714844-15-15 0-8.28125 6.71875-15 15-15zm0 0" fill="#749eab"/><path d="m470 97.265625v34.628906c0 2.292969-.101562 4.582031-.308594 6.863281l-20.625 227.886719c-.710937 7.847657-7.289062 13.855469-15.167968 13.855469h-110.53125c-7.875 0-14.453126-6.007812-15.164063-13.855469l-20.625-227.886719c-.207031-2.28125-.308594-4.570312-.308594-6.863281v-34.628906c0-2.105469 1.703125-3.808594 3.804688-3.808594h175.117187c2.105469 0 3.808594 1.707031 3.808594 3.808594zm0 0" fill="#99c8d3"/><path d="m470 97.265625v34.632813c0 2.289062-.101562 4.578124-.308594 6.859374l-20.625 227.886719c-.710937 7.847657-7.289062 13.855469-15.167968 13.855469h-84.390626c-7.875 0-14.453124-6.007812-15.164062-13.855469l-18.742188-207.097656c-.808593-8.914063 6.210938-16.597656 15.164063-16.597656h111.824219c4.371094 0 7.886718-3.6875 7.597656-8.121094-.261719-4.046875-3.804688-7.109375-7.859375-7.109375h-113.691406c-8.410157 0-15.230469-6.816406-15.230469-15.226562v-15.226563c0-2.105469 1.707031-3.808594 3.808594-3.808594h148.976562c2.105469 0 3.808594 1.707031 3.808594 3.808594zm0 0" fill="#afdbe1"/><path d="m433.515625 165.789062h3.710937c2.234376 0 3.992188 1.921876 3.789063 4.152344l-15.597656 172.339844c-.710938 7.84375-7.289063 13.855469-15.167969 13.855469h-62.945312c-7.878907 0-14.457032-6.011719-15.167969-13.855469l-13.53125-149.5c-.203125-2.230469 1.554687-4.148438 3.792969-4.148438 19.015624 0 37.835937-3.863281 55.316406-11.355468l.15625-.066406c17.582031-7.535157 36.515625-11.421876 55.644531-11.421876zm0 0" fill="#fbf1d1"/><path d="m441.015625 169.941406-15.597656 172.339844c-.066407.757812-.207031 1.488281-.382813 2.207031-1.394531.136719-2.792968.222657-4.203125.222657-43.539062 0-80.746093-64.738282-95.683593-156.117188 18.078124-.351562 35.929687-4.1875 52.570312-11.316406l.152344-.066406c17.582031-7.535157 36.511718-11.421876 55.640625-11.421876h3.710937c2.238282 0 3.996094 1.921876 3.792969 4.152344zm0 0" fill="#fff5f5"/><path d="m150.730469 350.328125c-21.753907 14.304687-52.769531 5.554687-69.277344-19.542969-13.296875-20.21875-13.113281-44.871094-1.171875-61.175781l-78.953125-120.042969c-2.445313-3.71875-1.4140625-8.714844 2.304687-11.160156l10.769532-7.085938c3.71875-2.445312 8.714844-1.414062 11.164062 2.304688l78.953125 120.042969c19.699219-4.507813 42.410157 5.089843 55.707031 25.308593 16.507813 25.101563 12.253907 57.042969-9.496093 71.351563zm0 0" fill="#bb5335"/><path d="m135.269531 356.492188c-19.246093 3.496093-40.941406-6.132813-53.816406-25.707032-13.296875-20.214844-13.113281-44.871094-1.171875-61.175781l-78.953125-120.042969c-2.445313-3.71875-1.4140625-8.714844 2.304687-11.160156l10.769532-7.085938c3.71875-2.445312 8.714844-1.414062 11.164062 2.304688l.402344.613281-6.335938 4.167969c-3.71875 2.445312-4.75 7.441406-2.304687 11.164062l78.953125 120.039063c-11.941406 16.304687-12.125 40.957031 1.171875 61.175781 9.378906 14.257813 23.433594 23.230469 37.816406 25.707032zm0 0" fill="#a0452c"/><path d="m200 250.5c0 11.046875-8.953125 20-20 20s-20-8.953125-20-20 8.953125-20 20-20 20 8.953125 20 20zm0 0" fill="#e2902a"/><path d="m311.101562 282.398438c0 22.113281-17.929687 40.042968-40.042968 40.042968-11.761719 0-22.335938-5.070312-29.664063-13.144531-7.324219 8.074219-17.902343 13.144531-29.660156 13.144531-11.761719 0-22.335937-5.070312-29.664063-13.144531-7.324218 8.074219-17.902343 13.144531-29.660156 13.144531-22.117187 0-40.046875-17.929687-40.046875-40.042968 0-22.117188 17.929688-40.046876 40.046875-40.046876 11.757813 0 22.335938 5.070313 29.660156 13.144532 7.328126-8.074219 17.902344-13.144532 29.664063-13.144532 11.757813 0 22.335937 5.070313 29.660156 13.144532 7.328125-8.074219 17.902344-13.144532 29.664063-13.144532 22.113281 0 40.042968 17.929688 40.042968 40.046876zm0 0" fill="#f5cf51"/><path d="m160 290.5c0 11.046875-8.953125 20-20 20s-20-8.953125-20-20 8.953125-20 20-20 20 8.953125 20 20zm110-30c-11.046875 0-20 8.953125-20 20s8.953125 20 20 20 20-8.953125 20-20-8.953125-20-20-20zm0 0" fill="#e2902a"/><path d="m366.734375 325.5c0 26.566406-21.539063 48.105469-48.105469 48.105469-14.125 0-26.832031-6.09375-35.632812-15.789063-8.800782 9.695313-21.503906 15.789063-35.628906 15.789063-14.128907 0-26.832032-6.09375-35.632813-15.789063-8.800781 9.695313-21.503906 15.789063-35.632813 15.789063-14.125 0-26.832031-6.09375-35.632812-15.789063-8.800781 9.695313-21.503906 15.789063-35.632812 15.789063-26.566407 0-48.101563-21.539063-48.101563-48.105469s21.539063-48.105469 48.101563-48.105469c14.128906 0 26.832031 6.09375 35.632812 15.789063 8.800781-9.695313 21.507812-15.789063 35.632812-15.789063 14.128907 0 26.832032 6.09375 35.632813 15.789063 8.800781-9.695313 21.503906-15.789063 35.632813-15.789063 14.125 0 26.832031 6.09375 35.628906 15.789063 8.800781-9.695313 21.507812-15.789063 35.632812-15.789063 26.566406.003907 48.105469 21.539063 48.105469 48.105469zm0 0" fill="#f5cf51"/><path d="m210 270.5c0 5.523438-4.476562 10-10 10s-10-4.476562-10-10 4.476562-10 10-10 10 4.476562 10 10zm25 25c-5.523438 0-10 4.476562-10 10s4.476562 10 10 10 10-4.476562 10-10-4.476562-10-10-10zm0 0" fill="#f1bd1f"/><path d="m143.886719 454.085938c-45.082031-22.785157-80.972657-67.589844-98.886719-123.585938h333.46875c-17.917969 55.996094-53.808594 100.800781-98.890625 123.585938-8.371094 4.230468-17.632813 6.414062-27.011719 6.414062h-81.664062c-9.382813 0-18.640625-2.183594-27.015625-6.414062zm0 0" fill="#ec3c52"/><path d="m386.734375 320.5v10c0 5.523438-4.476563 10-10 10h-76.734375c5.742188 0 10.355469 4.839844 9.976562 10.664062-.34375 5.316407-4.992187 9.335938-10.320312 9.335938h-176.929688c-16.074218 0-25.589843 18.007812-16.527343 31.28125 18.519531 27.117188 42.222656 48.660156 69.21875 62.304688 8.375 4.230468 17.632812 6.414062 27.015625 6.414062h-31.535156c-9.277344 0-18.449219-2.109375-26.738282-6.277344-42.488281-21.371094-76.839844-62.296875-95.722656-113.722656h-1.703125c-5.523437 0-10-4.476562-10-10v-10c0-5.523438 4.476563-10 10-10h330c5.523437 0 10 4.476562 10 10zm0 0" fill="#d73247"/><path d="m376.734375 340.5h-306.734375c-5.523438 0-10-4.476562-10-10v-10c0-5.523438 4.476562-10 10-10h306.734375c5.523437 0 10 4.476562 10 10v10c0 5.523438-4.476563 10-10 10zm0 0" fill="#ec3c52"/></svg>