<svg height="512pt" viewBox="0 0 512 512" width="512pt" xmlns="http://www.w3.org/2000/svg"><path d="m12 266v-87.636719c32.882812-103.425781 129.683594-178.363281 244-178.363281 141.386719 0 256 114.613281 256 256 0 3.351562-.085938 6.679688-.214844 10zm0 0" fill="#d25e3e"/><path d="m453.5 403.527344v13.542968c0 1.175782-.410156 2.316407-1.164062 3.21875-46.960938 56.0625-117.484376 91.710938-196.335938 91.710938-112.460938 0-207.972656-72.523438-242.351562-173.351562-1.085938-3.1875-1.648438-6.53125-1.648438-9.894532v-98.753906h498.695312c.859376 8.550781 1.304688 17.222656 1.304688 26 0 43.929688-11.078125 85.269531-30.574219 121.394531-.871093 1.613281-2.566406 2.605469-4.398437 2.605469-12.992188 0-23.527344 10.535156-23.527344 23.527344zm0 0" fill="#bb5335"/><path d="m320 100v200c0 5.523438-4.476562 10-10 10h-300c-1.625 0-3.152344-.394531-4.511719-1.085938-3.589843-17.074218-5.488281-34.769531-5.488281-52.914062 0-7.351562 0-24.507812 0-26v-130c0-5.523438 4.476562-10 10-10h300c5.523438 0 10 4.476562 10 10zm0 0" fill="#f1bd1f"/><path d="m190 400.503906v59.496094c0 11.289062-9.351562 20.390625-20.730469 19.988281-10.835937-.386719-19.269531-9.625-19.269531-20.46875v-.128906c0-5.332031-4.429688-9.457031-9.761719-9.390625-.726562.007812-1.464843-.023438-2.210937-.097656-10.316406-1.003906-18.027344-9.988282-18.027344-20.355469v-29.042969c0-11.261718 9.21875-20.761718 20.472656-20.496094 5.792969.132813 10.960938 2.742188 14.527344 6.792969 3.566406-4.050781 8.734375-6.660156 14.527344-6.792969 11.253906-.265624 20.472656 9.234376 20.472656 20.496094zm0 0" fill="#f7d674"/><path d="m451.894531 420.789062h-80.113281c-7.734375 0-14.789062 4.179688-18.769531 10.816407-6.207031 10.34375-15.277344 19.195312-26.296875 25.757812-.097656.058594-.195313.117188-.289063.171875-14.703125 8.675782-32.667969 9.800782-48.535156 3.511719l-172.898437-49.867187c-11.84375-4.667969-18.917969-17.289063-16.078126-30.304688.46875-2.144531 2.402344-3.652344 4.597657-3.652344h202.035156v.054688h103.632813v-.054688h82.34375c-8.378907 15.5625-18.332032 30.148438-29.628907 43.566406zm0 0" fill="#f0eff4"/><path d="m351.757812 433.613281c-6.148437 9.484375-14.742187 17.613281-25.042968 23.75-.097656.058594-.191406.117188-.289063.171875-14.699219 8.671875-32.667969 9.800782-48.535156 3.511719l-172.898437-49.867187c-5.207032-2.050782-9.492188-5.640626-12.417969-10.125.308593-.0625.617187-.105469.9375-.105469h202.039062v.054687h23.597657c18.007812 0 32.609374 14.601563 32.609374 32.609375zm47.421876-32.664062v.054687h-5.894532c-5.464844 0-9.894531 4.429688-9.894531 9.890625 0 5.464844 4.429687 9.894531 9.894531 9.894531h58.609375c5.351563-6.359374 10.402344-12.976562 15.125-19.839843zm0 0" fill="#dcdce1"/><path d="m310 310h-270c-5.523438 0-10-4.476562-10-10v-200c0-5.523438 4.476562-10 10-10h270c5.523438 0 10 4.476562 10 10v200c0 5.523438-4.476562 10-10 10zm0 0" fill="#f7c32a"/><path d="m410 310h-110c-5.523438 0-10-4.476562-10-10v-90c0-5.523438 4.476562-10 10-10h110c5.523438 0 10 4.476562 10 10v90c0 5.523438-4.476562 10-10 10zm0 0" fill="#f7d674"/><path d="m420 210v90c0 5.523438-4.476562 10-10 10h-80c-5.523438 0-10-4.476562-10-10v-90c0-5.523438 4.476562-10 10-10h80c5.523438 0 10 4.476562 10 10zm-199.988281-120c-.003907.167969-.011719.335938-.011719.503906v9.496094c0 10.367188 7.710938 19.355469 18.027344 20.359375.746094.070313 1.484375.101563 2.210937.09375 5.332031-.0625 9.761719 4.058594 9.761719 9.394531v.128906c0 10.84375 8.433594 20.078126 19.269531 20.464844 11.378907.40625 20.730469-8.699218 20.730469-19.988281v-39.949219c0-.167968-.007812-.335937-.011719-.503906zm0 0" fill="#fae8b1"/><path d="m2.253906 290h467.746094c5.523438 0 10 4.476562 10 10 0 22.089844-17.910156 40-40 40h-425.882812c-5.558594-16.003906-9.574219-32.730469-11.863282-50zm0 0" fill="#94d7e8"/><path d="m2.253906 290h467.746094c1.46875 0 2.855469.324219 4.113281.890625-7.035156 11.460937-19.679687 19.109375-34.113281 19.109375h-434.273438c-1.414062-6.578125-2.578124-13.246094-3.472656-20zm0 0" fill="#b7e3ef"/></svg>