<svg height="512pt" viewBox="0 0 512 512.00043" width="512pt" xmlns="http://www.w3.org/2000/svg"><path d="m71.289062 433.226562c-44.148437-45.996093-71.289062-108.4375-71.289062-177.226562 0-141.222656 114.355469-255.742188 255.519531-256 140.269531-.257812 255.292969 113.535156 256.472657 253.800781.585937 69.914063-26.867188 133.414063-71.777344 179.945313-3.851563 3.988281-9.144532 6.253906-14.683594 6.253906h-338.417969c-5.976562 0-11.683593-2.457031-15.824219-6.773438zm0 0" fill="#f7c32a"/><path d="m368.878906 103.25-86.570312 23.199219-9.988282 17.296875c-4.140624 7.175781-13.316406 9.632812-20.488281 5.492187-4.691406-2.710937-7.351562-7.574219-7.480469-12.621093l-10.703124 2.867187c-8 2.144531-16.226563-2.601563-18.371094-10.605469-2.144532-8 2.605468-16.226562 10.609375-18.371094l36.65625-9.820312 53.796875-93.183594c4.140625-7.175781 13.316406-9.632812 20.492187-5.492187 7.171875 4.144531 9.632813 13.316406 5.488281 20.492187l-38.800781 67.199219 57.59375-15.429687c8-2.144532 16.226563 2.601562 18.371094 10.605468s-2.601563 16.226563-10.605469 18.371094zm0 0" fill="#a0452c"/><path d="m378.3125 81.871094c-1.871094 3.621094-5.183594 6.484375-9.433594 7.621094l-94.976562 25.449218-15.910156 27.554688c-1.660157 2.878906-4.140626 4.980468-6.964844 6.222656-6.539063-4.347656-8.667969-13.078125-4.6875-19.972656l4.382812-7.59375-17.074218 4.574218c-6.9375 1.859376-14.035157-1.46875-17.199219-7.597656 1.871093-3.621094 5.1875-6.484375 9.433593-7.621094l36.660157-9.824218 53.796875-93.179688c1.660156-2.878906 4.140625-4.984375 6.964844-6.21875 6.539062 4.34375 8.667968 13.074219 4.6875 19.96875l-42.273438 73.222656 75.394531-20.203124c6.9375-1.859376 14.035157 1.46875 17.199219 7.597656zm0 0" fill="#bb5335"/><path d="m216.976562 44.941406c.40625 9.726563-24.457031 34.589844-34.183593 34.183594-10.875-.453125-20.335938-6.613281-23.867188-14.734375 2.125-5.820313 7.601563-10.285156 14.71875-12.027344-3.304687-6.324219-4.035156-13.105469-1.914062-18.484375 5.378906-2.117187 12.164062-1.390625 18.484375 1.914063 1.742187-7.117188 6.207031-12.59375 12.027344-14.71875 8.121093 3.53125 14.28125 12.992187 14.734374 23.867187zm0 0" fill="#65cc65"/><path d="m240.058594 143.007812c-11.523438-1.226562-23.351563-4.699218-34.820313-10.175781-38.492187-18.378906-34.847656-47.027343-34.847656-47.027343 2.289063-11.480469 12.066406-19.433594 23.546875-21.726563 2.070312-.410156 3.769531-1.511719 4.898438-3.09375 1.582031-1.128906 2.679687-2.824219 3.09375-4.898437 2.289062-11.476563 10.246093-21.253907 21.726562-23.546876 0 0 28.644531-3.644531 47.027344 34.847657 5.476562 11.46875 8.949218 23.296875 10.171875 34.820312 1.210937 11.378907-2.683594 22.4375-10.519531 30.277344-7.839844 7.835937-18.898438 11.730469-30.277344 10.523437zm0 0" fill="#f45751"/><path d="m263.328125 115.207031c-25.320313 6.703125-55.78125-1.730469-78.265625-24.214843-4.285156-4.28125-8.050781-8.855469-11.304688-13.625 4.308594-6.898438 11.78125-11.613282 20.179688-13.289063 2.070312-.414063 3.769531-1.511719 4.898438-3.09375 1.582031-1.128906 2.679687-2.828125 3.09375-4.898437 2.289062-11.480469 10.246093-21.257813 21.722656-23.546876 0 0 28.648437-3.644531 47.03125 34.847657 4.824218 10.101562 8.089844 20.480469 9.636718 30.683593-2.101562 8.160157-8.460937 14.875-16.992187 17.136719zm0 0" fill="#f56d59"/><path d="m442 300v120c-46.664062 49.332031-112.734375 80.117188-186 80.117188s-139.335938-30.785157-186-80.117188v-120c0-11.046875 8.953125-20 20-20h40v-130c0-11.046875 8.953125-20 20-20h212c11.046875 0 20 8.953125 20 20v130h40c11.046875 0 20 8.953125 20 20zm0 0" fill="#bb5335"/><path d="m442 300v120c-46.664062 49.332031-112.734375 80.117188-186 80.117188-58.71875 0-112.808594-19.785157-156-53.027344v-147.089844c0-11.046875 8.953125-20 20-20h40v-130c0-11.046875 8.953125-20 20-20h182c11.046875 0 20 8.953125 20 20v130h40c11.046875 0 20 8.953125 20 20zm0 0" fill="#d25e3e"/><path d="m382 300h-252v-100h252zm-312 110v21.882812c46.664062 49.332032 112.734375 80.117188 186 80.117188s139.335938-30.785156 186-80.117188v-21.882812zm0 0" fill="#ef586b"/><path d="m165 215c5.523438 0 10 4.476562 10 10s-4.476562 10-10 10c-1.824219 0-3.527344-.496094-5-1.347656v66.347656h222v-100h-222v16.347656c1.472656-.851562 3.175781-1.347656 5-1.347656zm175 15c5.523438 0 10 4.476562 10 10s-4.476562 10-10 10-10-4.476562-10-10 4.476562-10 10-10zm-50-20c5.523438 0 10 4.476562 10 10s-4.476562 10-10 10-10-4.476562-10-10 4.476562-10 10-10zm-42.5 220c5.523438 0 10 4.476562 10 10s-4.476562 10-10 10-10-4.476562-10-10 4.476562-10 10-10zm-47.5-215c5.523438 0 10 4.476562 10 10s-4.476562 10-10 10-10-4.476562-10-10 4.476562-10 10-10zm-100 195v20c5.523438 0 10 4.476562 10 10s-4.476562 10-10 10v8.972656c43.191406 33.246094 97.28125 53.027344 156 53.027344 73.265625 0 139.335938-30.785156 186-80.117188v-21.882812zm80 40c-5.523438 0-10-4.476562-10-10s4.476562-10 10-10 10 4.476562 10 10-4.476562 10-10 10zm90 30c-5.523438 0-10-4.476562-10-10s4.476562-10 10-10 10 4.476562 10 10-4.476562 10-10 10zm70-20c-5.523438 0-10-4.476562-10-10s4.476562-10 10-10 10 4.476562 10 10-4.476562 10-10 10zm40-10c-5.523438 0-10-4.476562-10-10s4.476562-10 10-10 10 4.476562 10 10-4.476562 10-10 10zm0 0" fill="#f78d9a"/><path d="m120 140v-10c0-11.046875 8.953125-20 20-20h232c11.046875 0 20 8.953125 20 20v10c0 11.046875-8.953125 20-20 20h-12c-5.523438 0-10 4.476562-10 10v25c0 11.289062-9.351562 20.390625-20.730469 19.988281-10.835937-.386719-19.269531-9.621093-19.269531-20.46875v-.128906c0-5.328125-4.425781-9.457031-9.753906-9.390625-1.433594.015625-2.90625-.117188-4.398438-.433594-9.339844-1.96875-15.847656-10.492187-15.847656-20.035156 0-2.503906-2.027344-4.53125-4.53125-4.53125h-135.46875c-11.046875 0-20-8.953125-20-20zm312 125h-352c-11.046875 0-20 8.953125-20 20v10c0 11.046875 8.953125 20 20 20h220c5.523438 0 10 4.476562 10 10v44.527344c0 10.839844 8.429688 20.074218 19.265625 20.460937 11.375.402344 20.722656-8.695312 20.722656-19.980469v-45.007812c0-5.523438 4.476563-10 10-10h72.011719c11.046875 0 20-8.953125 20-20v-10c0-11.046875-8.953125-20-20-20zm0 0" fill="#fccfc9"/><path d="m120 130c0-11.046875 8.953125-20 20-20h100.359375c2.429687-16.960938 17.007813-30 34.640625-30 16.203125 0 29.828125 11.011719 33.8125 25.957031 4.363281-3.710937 10.011719-5.957031 16.1875-5.957031 8.179688 0 15.4375 3.929688 20 10h27c11.046875 0 20 8.953125 20 20 0 5.523438-4.476562 10-10 10h-252c-5.523438 0-10-4.476562-10-10zm312 135h-11c0-13.804688-11.191406-25-25-25s-25 11.195312-25 25h-20c0-13.804688-11.191406-25-25-25s-25 11.195312-25 25h-20c0-13.804688-11.191406-25-25-25s-25 11.195312-25 25h-20c0-13.804688-11.191406-25-25-25s-25 11.195312-25 25h-20c0-13.804688-11.191406-25-25-25s-25 11.195312-25 25h-11c-11.046875 0-20 8.953125-20 20 0 5.523438 4.476562 10 10 10h372c5.523438 0 10-4.476562 10-10 0-11.046875-8.953125-20-20-20zm0 0" fill="#fff5f5"/></svg>