<svg height="512pt" viewBox="0 0 512.00034 512" width="512pt" xmlns="http://www.w3.org/2000/svg"><path d="m511.78125 256c0 141.386719-114.566406 256-255.890625 256s-255.890625-114.613281-255.890625-256c0-141.382812 114.566406-256 255.890625-256s255.890625 114.617188 255.890625 256zm0 0" fill="#fccfc9"/><path d="m421.84375 2.796875c16.601562-7.722656 31.925781 1.128906 33.542969 19.375.777343 8.800781-1.667969 17.667969-7.75 24.839844l-90.585938 106.808593 47.164063-131.886718c3.164062-8.859375 9.617187-15.410156 17.628906-19.136719zm0 0" fill="#019256"/><path d="m483.1875 55.246094-115.132812 79.710937 79.675781-115.183593c5.347656-7.734376 13.277343-12.390626 21.980469-13.917969 18.03125-3.160157 30.546874 9.359375 27.386718 27.398437-1.523437 8.707032-6.179687 16.636719-13.910156 21.992188zm0 0" fill="#03ad6b"/><path d="m508.984375 74.0625c-3.722656 8.011719-10.273437 14.46875-19.125 17.636719l-83.230469 29.789062c7.632813 15.015625 6.890625 31.675781-3.253906 41.824219-13.484375 13.492188-38.472656 10.367188-55.8125-6.980469-17.339844-17.34375-20.464844-42.34375-6.976562-55.835937 11.011718-11.019532 29.695312-10.949219 45.621093-1.101563 6.355469 3.929688 14.539063 3.226563 20.234375-1.609375l58.34375-49.527344c7.171875-6.085937 16.03125-8.53125 24.832032-7.753906 18.921874 1.675782 27.378906 16.324219 19.367187 33.558594zm0 0" fill="#019256"/><path d="m393.449219 146.40625c34.441406 34.453125 29.777343 91.582031-9.792969 119.988281l-276.097656 198.230469c-26.46875-18.871094-49.1875-42.65625-66.839844-70.023438l196.828125-274.382812c28.394531-39.585938 85.5-44.25 119.9375-9.796875zm0 0" fill="#f49f1f"/><path d="m393.449219 146.40625-8.199219-8.207031c-19.636719-19.644531-48.496094-24.710938-76.113281-16.9375-3.695313 1.042969-4.933594 5.652343-2.222657 8.367187l16.210938 16.21875c3.476562 3.476563 3.476562 9.117188 0 12.59375l-1.363281 1.363282c-3.476563 3.476562-9.113281 3.476562-12.589844 0l-23.773437-23.78125c-1.699219-1.699219-4.367188-1.960938-6.351563-.605469-9.511719 6.492187-18.285156 14.71875-25.75 24.59375l-15.285156 20.21875c-1.503907 1.988281-1.3125 4.785156.453125 6.550781l28.847656 28.863281c3.476562 3.476563 3.476562 9.117188 0 12.597657l-1.363281 1.359374c-3.476563 3.480469-9.113281 3.480469-12.589844 0l-25.933594-25.945312c-2.148437-2.144531-5.691406-1.898438-7.523437.519531l-23.957032 31.6875c-1.503906 1.992188-1.308593 4.785157.453126 6.550781l22.078124 22.085938c3.476563 3.480469 3.476563 9.121094 0 12.597656l-1.363281 1.363282c-3.476562 3.476562-9.117187 3.476562-12.59375-.003907l-19.160156-19.167969c-2.144531-2.144531-5.6875-1.898437-7.519531.519532l-41.304688 54.628906c-1.894531 2.511719-1.65625 6.035156.570313 8.261719 4.585937 4.585937 11.605469 11.597656 11.605469 11.597656 3.476562 3.476563 3.476562 9.117187 0 12.597656l-1.363282 1.363281c-3.476562 3.476563-9.113281 3.476563-12.589844 0l-9.484374-9.488281c-2.144532-2.148437-5.691407-1.902343-7.519532.519531l-33.777344 44.667969c-1.503906 1.992188-1.3125 4.789063.453126 6.550781l18 18.007813c3.476562 3.480469 3.476562 9.117187 0 12.597656l-1.363282 1.359375c-3.476562 3.480469-9.113281 3.480469-12.589844 0l-15.082031-15.089844c-2.148437-2.144531-5.691406-1.898437-7.523437.519532l-7.867188 10.40625c14.386719 17.535156 31.054688 33.125 49.554688 46.3125l276.097656-198.226563c39.570312-28.40625 44.234375-85.535156 9.792969-119.988281zm-251.714844 263.304688-1.363281 1.363281c-3.476563 3.476562-9.113282 3.476562-12.589844 0l-22.292969-22.304688c-3.476562-3.476562-3.476562-9.117187 0-12.597656l1.363281-1.359375c3.476563-3.480469 9.113282-3.480469 12.589844 0l22.292969 22.300781c3.476563 3.476563 3.476563 9.117188 0 12.597657zm55.8125-41.878907-1.363281 1.363281c-3.476563 3.476563-9.113282 3.476563-12.589844 0l-8.335938-8.34375c-3.480468-3.476562-3.480468-9.117187 0-12.597656l1.359376-1.359375c3.476562-3.480469 9.113281-3.480469 12.59375 0l8.335937 8.339844c3.476563 3.480469 3.476563 9.121094 0 12.597656zm34.882813-20.9375-1.363282 1.359375c-3.476562 3.480469-9.113281 3.480469-12.589844 0l-36.246093-36.257812c-3.476563-3.480469-3.476563-9.121094 0-12.597656l1.363281-1.363282c3.476562-3.480468 9.113281-3.480468 12.589844 0l36.246094 36.261719c3.476562 3.476563 3.476562 9.117187 0 12.597656zm55.8125-55.839843-1.359376 1.363281c-3.480468 3.480469-9.117187 3.480469-12.59375 0l-22.292968-22.300781c-3.476563-3.476563-3.476563-9.117188 0-12.597657l1.363281-1.359375c3.476563-3.480468 9.113281-3.480468 12.589844 0l22.292969 22.300782c3.480468 3.476562 3.480468 9.117187 0 12.59375zm0-97.714844-1.359376 1.363281c-3.480468 3.480469-9.117187 3.480469-12.59375 0l-8.339843-8.339844c-3.476563-3.480469-3.476563-9.117187 0-12.597656l1.363281-1.363281c3.476562-3.480469 9.113281-3.480469 12.589844 0l8.339844 8.34375c3.480468 3.476562 3.480468 9.117187 0 12.59375zm76.742187 48.859375-1.359375 1.363281c-3.476562 3.476562-9.117188 3.476562-12.59375 0l-36.242188-36.261719c-3.476562-3.480469-3.476562-9.117187 0-12.597656l1.359376-1.363281c3.480468-3.476563 9.117187-3.476563 12.59375 0l36.242187 36.261718c3.480469 3.480469 3.480469 9.117188 0 12.597657zm0 0" fill="#f7ad3b"/></svg>