<svg height="512pt" viewBox="0 0 512 512.00001" width="512pt" xmlns="http://www.w3.org/2000/svg"><path d="m510.613281 282.683594c-11.503906 111.023437-93.957031 200.96875-201.246093 223.726562-2.8125.59375-5.671876-.734375-7.019532-3.273437-65.222656-122.605469-167.210937-222.667969-291.261718-285.488281-4.589844-2.324219-7.035157-7.433594-6.019532-12.472657 23.578125-117.054687 126.984375-205.2031248 250.992188-205.175781 132.578125.0273438 240.742187 99.699219 254.453125 228.289062-1.726563 8.125-2.699219 17.277344-2.699219 26.972657 0 9.871093 1.011719 19.183593 2.800781 27.421875zm0 0" fill="#cc4978"/><path d="m360.121094 74.140625c7.8125 7.8125 7.8125 20.476563 0 28.285156l-308.167969 308.171875c-16.816406-22.160156-30.101563-47.140625-39.027344-74.109375l290.628907-290.628906c7.808593-7.8125 20.472656-7.8125 28.28125 0zm0 0" fill="#f49f1f"/><path d="m439.261719 365.550781c2.636719 3.941407 2.078125 9.210938-1.277344 12.566407l-128.207031 128.207031c-17.339844 3.707031-35.328125 5.675781-53.777344 5.675781-101.726562 0-189.589844-59.335938-230.882812-145.28125l299.648437-299.648438c7.8125-7.808593 20.476563-7.808593 28.285156 0l156.964844 156.964844c1.304687 10.472656 1.984375 21.140625 1.984375 31.964844 0 10.195312-.621094 20.242188-1.785156 30.125-7.640625-3.949219-16.320313-6.175781-25.527344-6.125-29.574219.164062-53.992188 24.132812-54.671875 53.699219-.273437 11.796875 3.171875 22.777343 9.246094 31.851562zm0 0" fill="#f7ad3b"/><path d="m270.054688 112.082031c-1.203126-23.734375 18.292968-43.230469 42.027343-42.03125 20.324219 1.03125 36.835938 17.542969 37.867188 37.867188 1.203125 23.734375-18.296875 43.230469-42.03125 42.027343-20.320313-1.027343-36.835938-17.542968-37.863281-37.863281zm82.027343 187.972657c-23.734375-1.203126-43.230469 18.292968-42.027343 42.027343 1.027343 20.324219 17.542968 36.835938 37.863281 37.867188 23.734375 1.203125 43.230469-18.296875 42.027343-42.03125-1.027343-20.320313-17.542968-36.835938-37.863281-37.863281zm-77.082031 139.945312c-13.808594 0-25 11.191406-25 25s11.191406 25 25 25 25-11.191406 25-25-11.191406-25-25-25zm0 0" fill="#f49f1f"/><path d="m260.121094 62.425781-85 85-168.136719 168.140625c-4.558594-19.117187-6.984375-39.054687-6.984375-59.566406 0-17.761719 1.8125-35.101562 5.257812-51.84375l65.421876-65.421875c3.5625-3.5625 9.175781-3.867187 13.195312-.832031 10.480469 7.917968 23.636719 12.480468 37.878906 12.074218 31.574219-.902343 57.320313-26.644531 58.21875-58.222656.40625-14.238281-4.152344-27.394531-12.070312-37.875-3.039063-4.019531-2.734375-9.636718.828125-13.199218l34.820312-34.820313c7.8125-7.808594 20.476563-7.808594 28.285157 0l28.285156 28.285156c7.8125 7.808594 7.8125 20.472657 0 28.28125zm0 0" fill="#f5cf51"/><path d="m436.898438 239.203125-142.058594 142.058594c-1.367188 1.367187-3.390625 1.796875-5.21875 1.167969-5.441406-1.867188-11.351563-2.722657-17.507813-2.339844-22.433593 1.402344-40.621093 19.589844-42.023437 42.023437-.382813 6.15625.472656 12.066407 2.339844 17.503907.628906 1.832031.199218 3.855468-1.167969 5.222656l-54.605469 54.605468c-102.542969-33.398437-176.65625-129.757812-176.65625-243.445312 0-1.410156.03125-2.8125.0546875-4.214844l87.8750005-87.878906 16.078124-16.078125c5.09375 1.40625 10.453126 2.171875 15.992188 2.171875 33.136719 0 60-26.863281 60-60 0-5.539062-.765625-10.898438-2.171875-15.992188l46.9375-46.9375c7.8125-7.808593 20.472656-7.808593 28.285156 0l183.847657 183.847657c7.8125 7.8125 7.8125 20.476562 0 28.285156zm0 0" fill="#f7d674"/><path d="m379.945312 227.917969c1.203126 23.734375-18.292968 43.230469-42.027343 42.027343-20.324219-1.027343-36.835938-17.542968-37.863281-37.863281-1.203126-23.734375 18.292968-43.230469 42.027343-42.03125 20.320313 1.03125 36.835938 17.546875 37.863281 37.867188zm-297.175781 112.144531c-23.863281-1.074219-44.820312 11.800781-55.421875 31.15625 16.976563 33.621094 41.136719 62.996094 70.484375 86.085938 24.976563-7.765626 42.960938-31.40625 42.140625-59.125-.921875-31.164063-26.054687-56.714844-57.203125-58.117188zm-32.769531-90.0625c16.570312 0 30-13.429688 30-30s-13.429688-30-30-30-30 13.429688-30 30 13.429688 30 30 30zm170-60c-16.570312 0-30 13.429688-30 30s13.429688 30 30 30 30-13.429688 30-30-13.429688-30-30-30zm0 0" fill="#f5cf51"/></svg>