<svg height="512pt" viewBox="0 0 512.00034 512" width="512pt" xmlns="http://www.w3.org/2000/svg"><path d="m511.996094 257.320312c-.710938 141.058594-114.9375 254.679688-255.996094 254.679688-36.714844 0-71.625-7.730469-103.191406-21.652344-1.253906-.550781-2.058594-1.800781-2.058594-3.171875 0-16.042969-13.007812-29.050781-29.050781-29.050781h-20.914063c-1.222656 0-2.414062-.40625-3.371094-1.164062-59.332031-46.882813-97.414062-119.472657-97.414062-200.960938 0-134.878906 104.308594-245.390625 236.660156-255.277344 5.667969 17.796875 22.328125 30.695313 42.003906 30.695313 17.0625 0 31.851563-9.699219 39.179688-23.878907 111.914062 27.765626 194.761719 129.140626 194.152344 249.78125zm0 0" fill="#b34068"/><path d="m301.757812 456.394531c-34.914062-.21875-92.820312 15.476563-125.457031 25.257813-8.042969 2.410156-15.804687 5.371094-23.328125 8.75-20.1875-8.886719-39.003906-20.292969-56.058594-33.839844l126.519532-190.0625 29.8125-44.785156 36.4375-54.734375c14.078125-21.148438 32.773437-37.441407 53.976562-48.496094 24.296875-12.664063 53.722656-11.03125 76.582032 4.082031.121093.082032.246093.164063.371093.246094l17.636719 11.742188c114.632812 120.539062 3.132812 322.726562-136.492188 321.839843zm0 0" fill="#f56d59"/><path d="m301.757812 456.394531c-34.914062-.21875-92.824218 15.476563-125.457031 25.257813-8.042969 2.410156-15.804687 5.371094-23.332031 8.75-.105469-.046875-.210938-.09375-.316406-.140625-16.601563-7.335938-22.453125-27.980469-12.394532-43.089844l105.445313-158.40625 29.8125-44.78125 36.433594-54.734375c14.078125-21.152344 32.777343-37.445312 53.976562-48.496094 24.300781-12.667968 53.722657-11.03125 76.582031 4.078125.125.085938.25.167969.375.25l9.621094 6.40625c90.171875 121.582031-17.472656 305.753907-150.746094 304.90625zm0 0" fill="#f77b68"/><path d="m237.25 369.691406c-36.351562 6.171875-93.691406 33.113282-125.835938 49.269532-12.433593 6.25-23.914062 13.773437-34.667968 22.089843-4.835938 3.738281-9.808594 6.75-14.972656 8.878907-21.640626 8.921874-45.183594-8.988282-41.363282-32.082032.277344-1.671875.679688-3.191406 1.246094-4.480468l99.324219-226.792969 22.789062-52.039063 13.476563-30.777344 14.375-32.824218c10.765625-24.574219 27.21875-44.945313 47.242187-60.328125 5.550781-4.265625 10.640625-7.21875 16.949219-9.832031 1.984375-.34375 19.0625-.9375 28.195312-.7304692 18.835938.4296872 36.804688 2.7109372 54.34375 7.5742192l1.835938.804687c21.835938 16.121094 38.398438 36.808594 50.285156 57.738281 65.046875 114.523438-10.320312 282.660156-133.222656 303.53125zm0 0" fill="#f79085"/><path d="m111.414062 419.039062c-12.433593 6.25-23.914062 13.777344-34.667968 22.09375-4.835938 3.738282-9.808594 6.746094-14.972656 8.875-.042969.015626-.082032.035157-.125.050782-7.257813 2.957031-14.996094-3.046875-14.28125-10.851563.066406-.730469.160156-1.464843.28125-2.203125.277343-1.675781.683593-3.195312 1.246093-4.480468l99.324219-226.796876 22.789062-52.035156 27.851563-63.601562c10.765625-24.578125 27.21875-44.949219 47.242187-60.332032 22.945313-17.625 53.84375-21.320312 80.386719-9.796874.144531.0625.289063.125.433594.1875l11.183594 4.898437c116.066406 109.902344 37.894531 321.164063-100.855469 344.722656-36.351562 6.171875-93.691406 33.113281-125.835938 49.269531zm0 0" fill="#f9a29b"/><path d="m343.527344 201.171875c9.171875 50.949219-39.730469 102.171875-51.273438 94.171875-14.511718-10.054688 8.382813-128.625 30.730469-129.460938 9.605469-.359374 17.984375 21.078126 20.542969 35.289063zm8.503906-106.992187c-9.523438-2.773438-32.410156 16.609374-28.070312 39.476562 3.328124 17.550781 21.410156 30.328125 30.089843 26.679688 14.527344-6.109376 11.839844-62.113282-2.019531-66.15625zm0 0" fill="#fab2a8"/><path d="m428.34375 335.96875c-3.574219 51.644531-63.523438 89.34375-72.761719 78.761719-11.605469-13.296875 39.605469-122.664063 61.476563-118.003907 9.402344 2 12.28125 24.839844 11.285156 39.242188zm34.425781-101.65625c-8.554687-5.019531-35.488281 8.175781-36.878906 31.40625-1.066406 17.832031 13.339844 34.644531 22.644531 33.230469 15.585938-2.367188 26.683594-57.328125 14.234375-64.636719zm0 0" fill="#f79085"/></svg>