<svg height="512pt" viewBox="0 0 512.00067 512" width="512pt" xmlns="http://www.w3.org/2000/svg"><path d="m418.910156 438.085938v5.953124c0 6.121094-2.875 11.875-7.738281 15.589844-43.054687 32.855469-96.832031 52.371094-155.171875 52.371094-58.40625 0-112.242188-19.5625-155.320312-52.488281-4.890626-3.738281-7.777344-9.527344-7.777344-15.683594v-122.230469c0-50.589844-41.007813-91.597656-91.597656-91.597656 13.03125-129.171875 122.085937-230 254.695312-230 141.386719 0 256 114.617188 256 256 0 53.617188-16.492188 103.375-44.671875 144.5-5.152344 7.523438-13.710937 12-22.835937 12-14.128907 0-25.582032 11.453125-25.582032 25.585938zm0 0" fill="#347d91"/><path d="m389.746094 37.6875c-.171875 1.085938-.429688 2.167969-.789063 3.234375-1.421875 4.214844-4.023437 7.605469-7.285156 9.988281-15.054687 10.984375-27.453125 25.207032-35.253906 42.132813l-6.285157 13.632812c16.277344 15.675781 22.417969 39.144531 13.710938 59.230469-.417969.964844-.863281 1.90625-1.335938 2.832031-6.324218 12.347657-7.507812 26.792969-2.519531 40.390625 9.871094 26.894532 9.304688 58.261719-4.027343 87.1875-25.742188 55.84375-89.300782 81.433594-141.96875 57.160156-52.664063-24.273437-74.488282-89.222656-48.75-145.066406 13.128906-28.480468 36.097656-49.089844 62.4375-59.230468 14.070312-5.414063 24.882812-15.875 30.550781-29.171876.179687-.429687.371093-.859374.570312-1.285156 9.417969-20.4375 31.515625-31.378906 54.425781-29.078125l6.277344-13.617187c7.800782-16.925782 10.558594-35.589844 9.136719-54.171875-.308594-4.023438.582031-8.210938 2.863281-12.023438.234375-.398437.496094-.777343.757813-1.152343 24.078125 6.433593 46.757812 16.28125 67.484375 29.007812zm0 0" fill="#1c5564"/><path d="m443.753906 430h-375.507812c-42.34375-45.671875-68.246094-106.804688-68.246094-174 0-12.011719.847656-23.828125 2.449219-35.398438 44.894531-66.710937 121.09375-110.601562 207.550781-110.601562 138.070312 0 250 111.929688 250 250v50.660156c-5.097656 6.714844-10.523438 13.167969-16.246094 19.339844zm0 0" fill="#e2902a"/><path d="m270 117.265625c-22.984375 5.664063-44.710938 14.515625-64.699219 26.042969.246094.210937.496094.425781.730469.660156 5.292969 5.289062 5.292969 13.871094 0 19.160156-5.289062 5.292969-13.867188 5.292969-19.160156 0-1.640625-1.640625-2.769532-3.601562-3.394532-5.679687-30.164062 21.855469-55.25 50.277343-73.167968 83.175781 2.09375.617188 4.070312 1.753906 5.722656 3.410156 5.292969 5.289063 5.292969 13.867188 0 19.15625-4.691406 4.691406-11.964844 5.214844-17.242188 1.585938-11.511718 27.917968-18.117187 58.371094-18.734374 90.300781 3.917968-.40625 7.976562.890625 10.976562 3.890625 5.292969 5.289062 5.292969 13.871094 0 19.160156-3.011719 3.015625-7.097656 4.304688-11.03125 3.882813v47.988281h363.753906c5.726563-6.171875 11.148438-12.625 16.246094-19.339844v-50.660156c0-117.386719-80.910156-215.859375-190-242.734375zm-136.871094 188.765625c-5.289062 5.292969-13.867187 5.292969-19.160156 0-5.289062-5.289062-5.289062-13.867188 0-19.160156 5.292969-5.289063 13.871094-5.289063 19.160156 0 5.292969 5.292968 5.289063 13.871094 0 19.160156zm0 0" fill="#f49f1f"/><path d="m497.265625 105.984375c-17.925781 5.097656-34.480469 14.144531-47.660156 27.324219l-17.796875 17.796875-28.742188-28.738281 17.800782-17.800782c13.179687-13.175781 22.226562-29.730468 27.324218-47.65625 1.105469-3.886718 3.386719-7.503906 6.847656-10.292968 7.460938-6.015626 18.328126-5.90625 25.683594.238281 6.035156 5.042969 8.34375 12.65625 6.929688 19.667969 7.011718-1.414063 14.625.894531 19.667968 6.929687 6.144532 7.355469 6.253907 18.222656.238282 25.683594-2.792969 3.460937-6.410156 5.742187-10.292969 6.847656zm0 0" fill="#f8df92"/><path d="m449.605469 133.308594-17.796875 17.796875-14.101563-14.101563 18.910157-18.910156c14-14 23.617187-31.589844 29.03125-50.636719 1.175781-4.125 3.597656-7.96875 7.277343-10.9375 3.535157-2.847656 7.792969-4.402343 12.113281-4.671875 2.738282 4.441406 3.613282 9.707032 2.613282 14.675782 7.011718-1.414063 14.621094.894531 19.667968 6.929687.226563.273437.445313.550781.65625.832031-.046874 1.136719-.171874 2.269532-.398437 3.386719.753906-.152344 1.519531-.253906 2.285156-.324219 3.464844 6.953125 2.714844 15.558594-2.308593 21.789063-2.789063 3.460937-6.40625 5.742187-10.289063 6.847656-17.925781 5.097656-34.480469 14.144531-47.660156 27.324219zm0 0" fill="#fae8b1"/><path d="m412.773438 243.453125c-.050782 28.648437-11.441407 57.882813-33.964844 80.402344-43.480469 43.480469-111.96875 45.488281-152.972656 4.484375-41.007813-41.007813-39-109.496094 4.480468-152.976563 22.175782-22.175781 50.855469-33.558593 79.078125-33.953125 15.074219-.207031 28.839844-6.28125 38.757813-16.792968.324218-.339844.648437-.679688.984375-1.011719 20.796875-20.796875 56.3125-18.902344 78.761719 4.425781 21.265624 22.101562 22.792968 55.953125 3.453124 76.203125-.726562.761719-1.472656 1.492187-2.238281 2.195313-10.203125 9.398437-16.316406 22.542968-16.339843 37.023437zm0 0" fill="#f1bd1f"/><path d="m427.898438 128.035156c-1.632813-1.695312-3.335938-3.277344-5.09375-4.746094-11.542969.992188-22.53125 5.703126-31.046876 14.21875-.332031.332032-.660156.671876-.980468 1.011719-1.613282 1.707031-3.335938 3.285157-5.140625 4.753907.0625.058593.128906.109374.1875.167968 5.292969 5.292969 5.292969 13.871094 0 19.160156-5.289063 5.292969-13.867188 5.292969-19.160157 0-2.363281-2.359374-3.660156-5.378906-3.914062-8.46875-3.476562.726563-7.0625 1.128907-10.730469 1.179688-18.652343.261719-37.503906 5.324219-54.546875 15.128906.753906.496094 1.46875 1.078125 2.132813 1.742188 5.289062 5.289062 5.289062 13.867187 0 19.160156-5.292969 5.289062-13.871094 5.289062-19.160157 0-1.710937-1.710938-2.855468-3.761719-3.460937-5.933594-1.371094 1.25-2.71875 2.53125-4.042969 3.855469-14.902344 14.902344-24.929687 32.742187-30.027344 51.40625 4.644532-1.429687 9.90625-.316406 13.578126 3.359375 5.292968 5.292969 5.292968 13.871094 0 19.160156-4.734376 4.738282-12.101563 5.222656-17.390626 1.476563-1.355468 28.363281 8.359376 56.570312 29.359376 77.570312.058593.058594.117187.117188.175781.175781 11.21875 11.164063 27.019531 16.507813 42.726562 14.609376 24.34375-2.9375 48.316407-14.035157 67.449219-33.167969 22.523438-22.523438 33.914062-51.753907 33.960938-80.402344.027343-14.484375 6.136718-27.628906 16.34375-37.023437.765624-.703126 1.511718-1.433594 2.238281-2.191407 19.339843-20.253906 17.808593-54.105469-3.457031-76.203125zm-94.765626 135.15625c-5.289062 5.292969-13.867187 5.292969-19.160156 0-5.289062-5.289062-5.289062-13.867187 0-19.15625 5.292969-5.292968 13.871094-5.292968 19.160156 0 5.292969 5.289063 5.292969 13.867188 0 19.15625zm52.691407-33.527344c-5.292969 5.289063-13.871094 5.289063-19.160157 0-5.292968-5.292968-5.292968-13.871093 0-19.160156 5.289063-5.292968 13.867188-5.292968 19.160157 0 5.289062 5.289063 5.289062 13.867188 0 19.160156zm0 0" fill="#f5cf51"/><path d="m160 410c2.328125-36.949219 18.085938-65.53125 37.191406-65.53125 5.824219 0 11.339844 2.65625 16.257813 7.394531 3.390625-34.453125 18.570312-60.441406 36.789062-60.441406 14.714844 0 27.445313 16.960937 33.582031 41.632813 28.277344-25.894532 60.890626-35.777344 74.742188-21.925782 13.851562 13.851563 3.96875 46.464844-21.925781 74.742188 19.195312 4.777344 33.71875 13.542968 39.222656 24.128906zm0 0" fill="#23c77d"/><path d="m167.375 410h-7.375c2.328125-36.949219 18.085938-65.53125 37.191406-65.53125 5.824219 0 11.339844 2.65625 16.257813 7.394531 3.390625-34.453125 18.570312-60.441406 36.789062-60.441406 6.179688 0 12.007813 3 17.144531 8.300781-20.097656 4.507813-36.296874 34.769532-40.148437 73.914063-6.0625-5.84375-12.863281-9.117188-20.046875-9.117188-16.953125 0-31.769531 18.261719-39.8125 45.480469zm0 0" fill="#03ad6b"/><path d="m290 405c0 24.851562-20.148438 45-45 45s-45-20.148438-45-45 20.148438-45 45-45 45 20.148438 45 45zm0 0" fill="#ec3c52"/><path d="m260 447.429688c-4.691406 1.660156-9.738281 2.570312-15 2.570312-24.851562 0-45-20.148438-45-45s20.148438-45 45-45c5.261719 0 10.308594.910156 15 2.570312-17.476562 6.179688-30 22.839844-30 42.429688 0 19.59375 12.523438 36.25 30 42.429688zm0 0" fill="#d73247"/><path d="m44.324219 400h423.355469c-15.648438 22.957031-34.933594 43.226562-57.019532 60h-309.316406c-22.089844-16.773438-41.375-37.042969-57.019531-60zm0 0" fill="#f7d674"/><path d="m433.964844 440h-277.011719c-25.175781 0-46.382813-16.917969-52.914063-40h363.636719c-9.859375 14.46875-21.167969 27.867188-33.710937 40zm0 0" fill="#f8df92"/><path d="m333.089844 426.640625c3.34375-1.136719 6.890625 1.242187 6.910156 4.773437v.195313c0 21.683594-17.972656 39.164063-39.832031 38.363281-18.246094-.667968-33.679688-14.433594-36.488281-32.472656-.324219-2.066406-.46875-4.105469-.457032-6.109375.019532-3.519531 3.570313-5.882813 6.902344-4.75 9.296875 3.164063 20.035156 4.972656 31.484375 4.972656 11.449219-.003906 22.1875-1.808593 31.480469-4.972656zm0 0" fill="#fff5f5"/></svg>