<svg height="512pt" viewBox="0 0 512 512" width="512pt" xmlns="http://www.w3.org/2000/svg"><path d="m0 256c0-141.386719 114.613281-256 256-256s256 114.613281 256 256c0 133.902344-102.808594 243.773438-233.792969 255.03125-7.320312-.628906-14.722656-.96875-22.207031-.96875s-14.886719.339844-22.207031.96875c-130.984375-11.257812-233.792969-121.128906-233.792969-255.03125zm0 0" fill="#b34068"/><path d="m135.40625 45.628906c.472656 11.316406-28.460938 40.25-39.777344 39.777344-12.660156-.527344-23.667968-7.691406-27.777344-17.148438 2.46875-6.773437 8.84375-11.96875 17.128907-13.992187-3.847657-7.359375-4.695313-15.253906-2.230469-21.515625 6.257812-2.464844 14.152344-1.617188 21.511719 2.230469 2.027343-8.28125 7.222656-14.660157 13.996093-17.128907 9.457032 4.109376 16.621094 15.117188 17.148438 27.777344zm0 0" fill="#54cc87"/><path d="m162.269531 159.746094c-13.410156-1.421875-27.175781-5.464844-40.523437-11.835938-44.792969-21.394531-40.550782-54.730468-40.550782-54.730468 2.664063-13.359376 14.042969-22.617188 27.402344-25.28125 2.410156-.480469 4.382813-1.761719 5.699219-3.601563 1.839844-1.316406 3.121094-3.289063 3.601563-5.699219 2.664062-13.359375 11.921874-24.738281 25.28125-27.402344 0 0 33.339843-4.242187 54.730468 40.550782 6.371094 13.347656 10.414063 27.113281 11.835938 40.523437 1.40625 13.242188-3.121094 26.109375-12.242188 35.234375-9.125 9.121094-21.992187 13.648438-35.234375 12.242188zm0 0" fill="#f56d59"/><path d="m189.347656 127.394531c-29.464844 7.800781-64.914062-2.007812-91.082031-28.175781-4.984375-4.984375-9.367187-10.304688-13.152344-15.855469 5.015625-8.027343 13.710938-13.515625 23.484375-15.464843 2.410156-.480469 4.382813-1.761719 5.699219-3.601563 1.839844-1.3125 3.121094-3.289063 3.601563-5.699219 2.664062-13.359375 11.921874-24.738281 25.28125-27.402344 0 0 33.339843-4.242187 54.730468 40.550782 5.613282 11.757812 9.414063 23.832031 11.214844 35.707031-2.449219 9.496094-9.847656 17.3125-19.777344 19.941406zm0 0" fill="#f79085"/><path d="m295.746094 444.574219c-8.6875 2.433593-14.746094 10.269531-14.746094 19.292969v46.914062c-8.226562.796875-16.5625 1.21875-25 1.21875s-16.773438-.421875-25-1.21875v-46.914062c0-9.023438-6.058594-16.859376-14.746094-19.292969-74.863281-20.960938-123.144531-99.582031-101.527344-179.273438l40.125-147.917969c1.179688-4.359374 5.136719-7.382812 9.652344-7.382812h182.992188c4.515625 0 8.46875 3.023438 9.652344 7.382812l40.125 147.917969c21.617187 79.691407-26.664063 158.3125-101.527344 179.273438zm0 0" fill="#99c8d3"/><path d="m304.792969 441.714844c-101.929688-30.105469-167.242188-137.84375-137.621094-247.035156l9.710937-35.796876c7.78125-1.789062 14.929688-5.691406 20.621094-11.378906 9.121094-9.125 13.648438-21.992187 12.242188-35.234375-.078125-.753906-.167969-1.511719-.265625-2.269531h138.015625c4.515625 0 8.472656 3.023438 9.652344 7.382812l40.125 147.917969c20.734374 76.433594-22.832032 151.878907-92.480469 176.414063zm-36.292969 6.285156c-6.902344 0-12.5 5.597656-12.5 12.5v51.5c8.4375 0 16.773438-.421875 25-1.21875v-50.28125c0-6.902344-5.597656-12.5-12.5-12.5zm0 0" fill="#afdbe1"/><path d="m367.773438 25.636719-99.570313 371.601562c-.714844 2.667969-3.457031 4.25-6.125 3.535157l-19.316406-5.175782c-2.667969-.714844-4.25-3.457031-3.535157-6.125l100.59375-375.417968c9.589844 3.320312 18.921876 7.191406 27.953126 11.582031zm0 0" fill="#23c77d"/><path d="m373.152344 270.046875c9.976562 36.785156 2.417968 75.25-20.738282 105.523437-23.15625 30.277344-58.300781 47.640626-96.414062 47.640626-38.117188 0-73.257812-17.363282-96.414062-47.640626-23.15625-30.273437-30.714844-68.738281-20.734376-105.523437l18-66.355469c.589844-2.179687 2.566407-3.691406 4.824219-3.691406h188.652344c2.257813 0 4.234375 1.511719 4.824219 3.691406zm0 0" fill="#ef586b"/><path d="m373.152344 270.046875-18-66.355469c-.59375-2.179687-2.570313-3.691406-4.828125-3.691406h-29.269531l-44.125 164.679688c-2.101563 7.84375 2.425781 15.902343 10.191406 18.261718 15.078125 4.578125 31.167968 7.058594 47.878906 7.058594 1.515625 0 3.019531-.027344 4.523438-.066406 4.617187-4.398438 8.929687-9.1875 12.890624-14.363282 23.15625-30.273437 30.714844-68.738281 20.738282-105.523437zm-63.152344 89.953125c-5.523438 0-10-4.476562-10-10s4.476562-10 10-10 10 4.476562 10 10-4.476562 10-10 10zm30-30c-5.523438 0-10-4.476562-10-10s4.476562-10 10-10 10 4.476562 10 10-4.476562 10-10 10zm-90-130c0-11.046875-8.953125-20-20-20-8.066406 0-14.996094 4.785156-18.160156 11.660156-2.054688-1.054687-4.375-1.660156-6.839844-1.660156-6.527344 0-12.066406 4.179688-14.128906 10h-3.25c-4.9375 14.167969-7.621094 29.289062-7.621094 45 0 9.570312 1.003906 18.917969 2.894531 27.96875 2.007813-2.03125 4.878907-3.207031 8.019531-2.929688 4.667969.414063 8.511719 4.164063 9.023438 8.824219.664062 6.03125-4.039062 11.136719-9.9375 11.136719-.863281 0-1.695312-.121094-2.492188-.324219 7.9375 22.9375 21.8125 43.375 39.9375 59.722657 8.292969 7.480468 21.585938 3.476562 24.480469-7.3125l38.070313-142.085938zm0 50c-5.523438 0-10-4.476562-10-10s4.476562-10 10-10 10 4.476562 10 10-4.476562 10-10 10zm0 0" fill="#f78d9a"/></svg>