<svg height="511pt" viewBox="0 1 511.99993 511" width="511pt" xmlns="http://www.w3.org/2000/svg"><path d="m512 256.375c.066406 140.613281-114.433594 255.613281-255.050781 256.125-25.019531.089844-49.207031-3.417969-72.082031-10.019531-3.597657-1.039063-6.507813-3.703125-7.871094-7.195313-27.570313-70.484375-85.488282-125.757812-157.683594-149.757812-2.472656-.824219-4.417969-2.734375-5.269531-5.199219-8.789063-25.375-13.703125-52.554687-14.027344-80.84375-1.613281-141.21875 114.546875-258.871094 255.777344-258.984375 141.4375-.113281 256.136719 114.476562 256.207031 255.875zm0 0" fill="#6dcce4"/><path d="m256.949219 48.613281 215.539062 215.539063-285.789062 238.847656c-81.027344-22.730469-145.792969-84.339844-172.914063-163.4375zm0 0" fill="#fae8b1"/><path d="m288.207031 79.871094 184.28125 184.28125-285.789062 238.847656c-65.089844-18.261719-119.691407-61.601562-152.710938-118.949219zm0 0" fill="#fff5f5"/><path d="m222.804688 481.128906-182.832032-182.832031c-1.871094-1.867187-2.003906-4.855469-.308594-6.882813l138.019532-165.140624c1.921875-2.300782 5.402344-2.457032 7.523437-.335938l209.960938 209.957031c2.117187 2.121094 1.964843 5.605469-.335938 7.527344l-165.144531 138.015625c-2.027344 1.695312-5.015625 1.5625-6.882812-.308594zm0 0" fill="#f9c77e"/><path d="m62.757812 321.085938-22.785156-22.789063c-1.871094-1.867187-2.003906-4.855469-.308594-6.882813l138.019532-165.140624c1.921875-2.300782 5.40625-2.457032 7.523437-.335938l22.144531 22.140625zm0 0" fill="#f7b95f"/><path d="m489.90625 262.132812-24.054688 24.054688c-3.984374 3.988281-10.449218 3.984375-14.433593 0l-216.503907-216.5c-3.984374-3.988281-3.984374-10.453125 0-14.4375l24.054688-24.054688c3.984375-3.984374 10.449219-3.984374 14.4375 0l11.253906 11.257813 8.988282-8.984375c3.65625-3.65625 9.46875-4 13.53125-.804688l200.925781 158.175782c4.804687 3.785156 5.230469 10.914062.902343 15.238281l-30.359374 30.363281 11.257812 11.253906c3.984375 3.988282 3.984375 10.453126 0 14.4375zm0 0" fill="#bb5335"/><path d="m509.007812 206.078125-30.359374 30.363281 11.257812 11.257813c3.984375 3.984375 3.984375 10.449219 0 14.433593l-24.054688 24.054688c-3.984374 3.984375-10.449218 3.988281-14.433593 0l-184.765625-184.761719c-3.984375-3.988281-3.984375-10.453125 0-14.4375l4.769531-4.765625c7.972656-7.972656 20.898437-7.972656 28.871094 0l137.292969 137.289063c3.902343 3.90625 10.234374 3.90625 14.140624 0l.292969-.292969c3.90625-3.90625 3.90625-10.238281 0-14.140625l-118.816406-118.820313c-7.972656-7.972656-7.972656-20.898437 0-28.871093.847656-.847657 1.816406-1.507813 2.84375-1.996094l172.058594 135.449219c4.804687 3.785156 5.230469 10.914062.902343 15.238281zm0 0" fill="#d25e3e"/><path d="m251.210938 350.734375c-27.90625 27.90625-68.625 32.433594-90.949219 10.105469-22.324219-22.324219-17.800781-63.042969 10.105469-90.949219 27.902343-27.902344 68.621093-32.429687 90.949218-10.105469 22.324219 22.324219 17.796875 63.042969-10.105468 90.949219zm0 0" fill="#e06e4e"/><path d="m251.195312 273.625c-14.300781 7.921875-24.660156 20.957031-29.175781 36.695312-7.980469 27.824219-29.5625 48.117188-55.449219 55.78125-2.230468-1.550781-4.34375-3.292968-6.308593-5.257812-3.65625-3.65625-6.578125-7.8125-8.808594-12.320312 23.441406-3.09375 44.015625-19.6875 50.941406-43.828126 6.019531-20.984374 19.835938-38.359374 38.90625-48.929687 2.878907-1.59375 5.832031-2.980469 8.832031-4.207031 4.066407 2.152344 7.835938 4.882812 11.183594 8.230468 2.347656 2.347657 4.382813 4.914063 6.144532 7.636719-5.621094 1.265625-11.089844 3.328125-16.265626 6.199219zm0 0" fill="#a0452c"/></svg>