<svg height="512pt" viewBox="0 0 512 512" width="512pt" xmlns="http://www.w3.org/2000/svg"><path d="m512 256c0 141.386719-114.613281 256-256 256s-256-114.613281-256-256 114.613281-256 256-256 256 114.613281 256 256zm0 0" fill="#94d7e8"/><path d="m264.769531 462.207031c-25.914062 25.914063-60.671875 37.59375-94.5625 35.042969-26.167969-9.304688-50.378906-22.734375-71.835937-39.527344l185.847656-185.84375c47.1875-47.1875 123.695312-47.1875 170.882812 0zm0 0" fill="#23c77d"/><path d="m120.167969 431.917969c7.808593 7.8125 7.808593 20.476562 0 28.285156-3.078125 3.078125-6.914063 4.925781-10.90625 5.574219-29.363281-20.574219-54.207031-47.15625-72.75-77.964844.976562-2.476562 2.457031-4.800781 4.460937-6.804688 7.808594-7.8125 20.472656-7.8125 28.28125 0zm0 0" fill="#d9a92f"/><path d="m437.792969 206.566406c.234375 6.078125-1.941407 12.230469-6.582031 16.867188-4.636719 4.640625-10.789063 6.816406-16.867188 6.582031.238281 6.074219-1.941406 12.226563-6.578125 16.867187-4.640625 4.636719-10.792969 6.8125-16.867187 6.578126.234374 6.078124-1.941407 12.230468-6.582032 16.867187-4.636718 4.640625-10.789062 6.816406-16.867187 6.582031.238281 6.074219-1.941407 12.226563-6.578125 16.867188-4.640625 4.636718-10.792969 6.816406-16.867188 6.578125.234375 6.078125-1.941406 12.230469-6.582031 16.867187-4.636719 4.640625-10.789063 6.816406-16.867187 6.582032.234374 6.074218-1.941407 12.226562-6.578126 16.867187-4.640624 4.636719-10.792968 6.8125-16.867187 6.578125.234375 6.078125-1.941406 12.230469-6.582031 16.867188-4.636719 4.640624-10.789063 6.816406-16.867188 6.582031.238282 6.074219-1.941406 12.230469-6.578125 16.867187-4.640625 4.636719-10.792969 6.816406-16.867187 6.578125.234375 6.078125-1.941406 12.230469-6.582032 16.867188-4.640624 4.640625-10.789062 6.816406-16.867187 6.582031.238281 6.074219-1.941406 12.226562-6.578125 16.867188-4.640625 4.640624-10.792969 6.816406-16.867188 6.578124.234376 6.078126-1.941406 12.230469-6.582031 16.867188-7.121093 7.121094-17.808593 8.492188-26.308593 4.125-.957032 3.859375-2.914063 7.515625-5.929688 10.53125-8.828125 8.828125-23.144531 8.828125-31.976562 0l-103.910157-103.914062c-8.832031-8.828126-8.832031-23.144532 0-31.972657 3.015625-3.015625 6.671875-4.976562 10.53125-5.933593-4.367187-8.5-3-19.1875 4.121094-26.308594 4.640625-4.636719 10.792969-6.816406 16.867187-6.578125-.234374-6.078125 1.941407-12.230469 6.582032-16.867188 4.636718-4.640625 10.789062-6.816406 16.867187-6.582031-.234375-6.074219 1.941407-12.226562 6.578125-16.867188 4.640625-4.636718 10.792969-6.8125 16.867188-6.578124-.234375-6.078126 1.941406-12.230469 6.582031-16.867188 4.636719-4.640625 10.789063-6.816406 16.867187-6.582031-.238281-6.074219 1.941407-12.230469 6.578126-16.867188 4.640624-4.636719 10.792968-6.816406 16.871093-6.578125-.238281-6.078125 1.9375-12.230468 6.578125-16.867187 4.640625-4.640625 10.792969-6.816407 16.867188-6.582031-.234375-6.078126 1.941406-12.226563 6.578125-16.867188 4.640625-4.640625 10.792969-6.816406 16.867187-6.578125-.234375-6.078125 1.941406-12.230469 6.582032-16.867187 4.636718-4.640626 10.789062-6.816407 16.867187-6.582032-.234375-6.074218 1.941406-12.230468 6.582031-16.867187 4.636719-4.636719 10.789063-6.816407 16.867188-6.578125-.238282-6.078125 1.9375-12.230469 6.578125-16.871094 4.640625-4.636719 10.792969-6.8125 16.867187-6.578125-.234375-6.074219 1.941406-12.230469 6.578125-16.867187 4.640625-4.640626 10.792969-6.816407 16.871094-6.578126-.238281-6.078124 1.941406-12.230468 6.578125-16.867187 7.121094-7.121094 17.808594-8.492187 26.308594-4.125.957031-3.859375 2.917968-7.515625 5.933594-10.53125 8.566406-8.570313 22.285156-8.796875 31.160156-.734375 8.859375-8.335938 22.789062-8.195312 31.453125.46875l.027343.027344c8.863282-8.296875 22.765626-8.144532 31.414063.503906l41.566406 41.566406c8.648438 8.648438 8.800781 22.550782.503907 31.414063l.027343.027343c8.664063 8.664063 8.804688 22.59375.46875 31.457032 8.0625 8.871094 7.835938 22.589844-.734375 31.15625-3.015625 3.015625-6.671875 4.976562-10.53125 5.933594 4.367188 8.5 3 19.1875-4.125 26.308593-4.640625 4.636719-10.792968 6.816407-16.867187 6.578125zm0 0" fill="#f1bd1f"/><path d="m469.578125 105.132812-.023437-.027343c8.296874-8.863281 8.140624-22.765625-.507813-31.414063l-12.574219-12.574218c-8.648437-8.648438-22.550781-8.800782-31.414062-.503907l-.027344-.027343c-6.523438-6.527344-16.039062-8.214844-24.125-5.085938-2.46875.953125-3 4.109375-1.117188 5.972656.011719.011719.027344.027344.039063.039063 1.148437 1.144531 2 2.5 2.582031 3.980469-5.582031.722656-11.988281 4.011718-17.433594 9.453124-5.441406 5.445313-8.730468 11.851563-9.453124 17.4375-1.480469-.585937-2.832032-1.441406-3.980469-2.585937-5.859375-5.859375-4.273438-16.9375 3.535156-24.75 1.667969-1.664063 3.480469-3.046875 5.363281-4.132813 3.082032-1.777343 1.90625-6.582031-1.652344-6.652343-5.914062-.117188-11.855468 2.074219-16.375 6.589843-3.011718 3.015626-4.972656 6.671876-5.929687 10.53125-8.5-4.367187-19.1875-3-26.308594 4.125-4.640625 4.636719-6.816406 10.789063-6.578125 16.863282-6.078125-.234375-12.230468 1.941406-16.867187 6.582031-4.640625 4.640625-6.816407 10.792969-6.582031 16.867187-6.074219-.234374-12.226563 1.941407-16.867188 6.582032-4.636719 4.636718-6.8125 10.789062-6.578125 16.867187-6.078125-.234375-12.230469 1.941407-16.867187 6.578125-4.640626 4.640625-6.816407 10.792969-6.582032 16.871094-6.074218-.238281-12.226562 1.9375-16.867187 6.578125s-6.816407 10.792969-6.578125 16.867187c-6.078125-.234374-12.230469 1.941407-16.867188 6.578126-4.640625 4.640624-6.816406 10.792968-6.582031 16.871093-6.074219-.238281-12.226563 1.9375-16.867187 6.578125-4.636719 4.636719-6.8125 10.789063-6.578126 16.867188-6.078124-.234375-12.230468 1.941406-16.867187 6.578125-4.640625 4.640625-6.816406 10.792969-6.582031 16.871093-6.074219-.238281-12.230469 1.9375-16.867188 6.578126-4.636718 4.640624-6.816406 10.792968-6.578125 16.867187-6.078125-.234375-12.230469 1.941406-16.867187 6.582031-4.640625 4.636719-6.816406 10.789063-6.582032 16.867188-6.074218-.238282-12.226562 1.941406-16.867187 6.578125-4.640625 4.640625-6.816406 10.792969-6.582031 16.867187-6.074219-.234375-12.226563 1.941406-16.863282 6.582032-7.121093 7.121093-8.492187 17.808593-4.125 26.308593-3.859374.957031-7.515624 2.917969-10.53125 5.929688-8.828124 8.828125-8.828124 23.144531 0 31.976562l74.539063 74.535157c8.363281 8.363281 21.863281 9.328124 30.910156 1.714843 3.84375-3.238281 6.277344-7.417969 7.378907-11.859375 8.5 4.367188 19.1875 2.996094 26.308593-4.125 4.640625-4.636718 6.816407-10.789062 6.578125-16.867187 6.078125.238281 12.230469-1.941407 16.867188-6.578125 4.640625-4.640625 6.816406-10.792969 6.582031-16.867188 6.074219.234375 12.226563-1.941406 16.867187-6.582031 4.636719-4.636719 6.8125-10.789063 6.578126-16.867187 6.074218.234374 12.230468-1.941407 16.867187-6.578126 4.640625-4.640624 6.816406-10.792968 6.582031-16.867187 6.074219.234375 12.226563-1.941406 16.867188-6.582031 4.636718-4.636719 6.816406-10.792969 6.578125-16.867188 6.078125.234375 12.230469-1.941406 16.867187-6.578125 4.640625-4.640625 6.816406-10.792969 6.578125-16.867187 6.078125.234375 12.230469-1.941406 16.871094-6.582032 4.636719-4.636718 6.8125-10.792968 6.578125-16.867187 6.074219.234375 12.230469-1.941406 16.867188-6.582031 4.640624-4.636719 6.816406-10.789063 6.578124-16.867188 6.078126.238282 12.230469-1.941406 16.867188-6.578125 4.640625-4.640625 6.816406-10.792969 6.582031-16.867187 6.078125.234375 12.226563-1.941406 16.867188-6.582032 4.640625-4.640624 6.816406-10.789062 6.582031-16.867187 6.074219.238281 12.226562-1.941406 16.867188-6.578125 4.636718-4.640625 6.8125-10.792969 6.578124-16.871094 6.074219.238282 12.226563-1.9375 16.867188-6.578125 7.121094-7.121093 8.488281-17.808593 4.125-26.308593 3.855469-.957032 7.515625-2.917969 10.53125-5.933594 8.566406-8.566406 8.792969-22.285156.734375-31.15625 8.339844-8.863282 8.195313-22.792969-.46875-31.457032zm-65.507813-11.09375c7.8125-7.808593 18.890626-9.394531 24.75-3.535156 1.148438 1.148438 2 2.5 2.582032 3.980469-5.582032.722656-11.988282 4.011719-17.433594 9.453125-5.441406 5.445312-8.730469 11.851562-9.453125 17.433594-1.480469-.585938-2.832031-1.4375-3.980469-2.582032-5.859375-5.859374-4.273437-16.9375 3.535156-24.75zm-20.617187 29.355469c1.148437 1.144531 2 2.496094 2.585937 3.980469-5.585937.722656-11.992187 4.011719-17.433593 9.453125-5.441407 5.441406-8.730469 11.851563-9.453125 17.433594-1.484375-.585938-2.835938-1.4375-3.980469-2.582031-5.859375-5.859376-4.277344-16.941407 3.53125-24.75 7.8125-7.8125 18.894531-9.394532 24.75-3.535157zm-53.03125-24.75c7.8125-7.8125 18.890625-9.394531 24.75-3.535156 1.144531 1.144531 2 2.496094 2.582031 3.980469-5.582031.722656-11.988281 4.011718-17.433594 9.453125-5.441406 5.441406-8.730468 11.851562-9.453124 17.433593-1.480469-.585937-2.835938-1.4375-3.980469-2.582031-5.859375-5.859375-4.273438-16.941406 3.535156-24.75zm12.433594 65.347657c1.148437 1.148437 2 2.5 2.582031 3.984374-5.582031.71875-11.988281 4.007813-17.433594 9.453126-5.441406 5.441406-8.730468 11.847656-9.453125 17.433593-1.484375-.585937-2.832031-1.4375-3.980469-2.585937-5.859374-5.855469-4.273437-16.9375 3.535157-24.75 7.8125-7.808594 18.890625-9.390625 24.75-3.535156zm-53.035157-24.75c7.8125-7.808594 18.894532-9.390626 24.75-3.535157 1.148438 1.148438 2 2.5 2.585938 3.984375-5.585938.71875-11.992188 4.007813-17.433594 9.453125-5.445312 5.441407-8.734375 11.847657-9.453125 17.433594-1.484375-.585937-2.835937-1.4375-3.984375-2.585937-5.855468-5.855469-4.273437-16.9375 3.535156-24.75zm-12.3125 68.886718c7.808594-7.8125 18.890626-9.394531 24.75-3.535156 1.144532 1.144531 1.996094 2.496094 2.582032 3.980469-5.582032.722656-11.992188 4.011719-17.433594 9.453125s-8.730469 11.847656-9.453125 17.433594c-1.484375-.585938-2.835937-1.4375-3.980469-2.582032-5.859375-5.859375-4.277344-16.941406 3.535156-24.75zm15.015626 69.328125c-5.582032.722657-11.988282 4.011719-17.433594 9.453125-5.441406 5.441406-8.730469 11.851563-9.453125 17.433594-1.480469-.585938-2.832031-1.4375-3.980469-2.582031-5.859375-5.859375-4.273438-16.9375 3.535156-24.75 7.8125-7.8125 18.890625-9.394531 24.75-3.535157 1.144532 1.144532 1.996094 2.5 2.582032 3.980469zm-43.300782-97.613281c7.8125-7.8125 18.890625-9.394531 24.75-3.535156 1.144532 1.144531 2 2.5 2.582032 3.980468-5.582032.722657-11.988282 4.011719-17.433594 9.453126-5.441406 5.441406-8.730469 11.851562-9.453125 17.433593-1.484375-.585937-2.832031-1.4375-3.980469-2.582031-5.859375-5.859375-4.277344-16.941406 3.535156-24.75zm-12.316406 68.882812c7.8125-7.808593 18.890625-9.390624 24.75-3.535156 1.148438 1.148438 2 2.5 2.582031 3.984375-5.582031.71875-11.988281 4.007813-17.433593 9.453125-5.441407 5.441406-8.730469 11.847656-9.453126 17.433594-1.484374-.585938-2.832031-1.441406-3.980468-2.585938-5.855469-5.859374-4.273438-16.9375 3.535156-24.75zm-28.285156-28.285156c7.8125-7.808594 18.894531-9.390625 24.75-3.535156 1.148437 1.148438 2 2.5 2.585937 3.984375-5.585937.71875-11.992187 4.007813-17.433593 9.453125-5.445313 5.441406-8.734376 11.847656-9.453126 17.433594-1.484374-.585938-2.835937-1.4375-3.984374-2.585938-5.855469-5.855468-4.273438-16.9375 3.535156-24.75zm12.433594 65.351563c1.148437 1.144531 2 2.496093 2.585937 3.980469-5.585937.722656-11.992187 4.011718-17.433594 9.453124-5.441406 5.441407-8.730469 11.851563-9.453125 17.433594-1.484375-.585937-2.835937-1.4375-3.984375-2.582031-5.855469-5.859375-4.273437-16.9375 3.539063-24.75 7.808594-7.8125 18.890625-9.394531 24.746094-3.535156zm-53.03125-24.75c7.8125-7.8125 18.890624-9.394531 24.75-3.535157 1.144531 1.144532 1.996093 2.5 2.582031 3.980469-5.582031.722657-11.992188 4.011719-17.433594 9.453125s-8.730469 11.851563-9.453125 17.433594c-1.484375-.585938-2.835938-1.4375-3.980469-2.582031-5.859375-5.859375-4.273437-16.9375 3.535157-24.75zm12.433593 65.347656c1.148438 1.148437 2 2.5 2.582031 3.980469-5.582031.722656-11.988281 4.011718-17.433593 9.453125-5.441407 5.445312-8.730469 11.851562-9.453125 17.4375-1.480469-.585938-2.832032-1.441407-3.980469-2.585938-5.859375-5.859375-4.273437-16.9375 3.535156-24.75 7.8125-7.808593 18.890625-9.390625 24.75-3.535156zm-53.03125-24.746094c7.808594-7.8125 18.890625-9.394531 24.746094-3.539062 1.148437 1.148437 2 2.5 2.585937 3.984375-5.585937.722656-11.992187 4.011718-17.433593 9.453125-5.441407 5.441406-8.730469 11.847656-9.453125 17.433593-1.484375-.585937-2.835938-1.4375-3.984375-2.585937-5.855469-5.855469-4.273438-16.9375 3.539062-24.746094zm-40.15625 67.929688c-1.484375-.585938-2.835937-1.4375-3.980469-2.582031-5.859374-5.859376-4.277343-16.9375 3.535157-24.75 7.808593-7.8125 18.890625-9.394532 24.746093-3.535157 1.148438 1.144531 2 2.496094 2.585938 3.980469-5.585938.722656-11.992188 4.011719-17.433594 9.453125-5.441406 5.445313-8.730468 11.851563-9.453125 17.433594zm37.738281 10.851562c-5.441406 5.441407-8.730468 11.847657-9.453124 17.433594-1.484376-.585937-2.835938-1.4375-3.980469-2.582031-5.859375-5.859375-4.277344-16.9375 3.535156-24.75s18.890625-9.394532 24.75-3.535156c1.144531 1.144531 1.996094 2.5 2.582031 3.980468-5.585937.722656-11.992187 4.011719-17.433594 9.453125zm28.285157 28.285157c-5.441407 5.441406-8.730469 11.847656-9.453125 17.433593-1.484375-.585937-2.835938-1.4375-3.984375-2.585937-5.855469-5.855469-4.273438-16.9375 3.535156-24.746094 7.8125-7.8125 18.890625-9.394531 24.75-3.539062 1.148437 1.148437 2 2.5 2.585937 3.984374-5.585937.722657-11.992187 4.011719-17.433593 9.453126zm28.28125 28.285156c-5.441407 5.441406-8.730469 11.847656-9.453125 17.433594-1.480469-.585938-2.832032-1.4375-3.980469-2.585938-5.859375-5.855469-4.273437-16.9375 3.535156-24.746094 7.8125-7.8125 18.890625-9.394531 24.75-3.539062 1.148438 1.148437 2 2.5 2.585938 3.984375-5.585938.71875-11.992188 4.011719-17.4375 9.453125zm12.316406-68.886719c-5.441406 5.445313-8.730469 11.851563-9.453125 17.4375-1.480469-.585937-2.832031-1.441406-3.980469-2.585937-5.859375-5.859376-4.273437-16.9375 3.535157-24.75 7.8125-7.808594 18.890624-9.390626 24.75-3.535157 1.148437 1.148438 2 2.5 2.582031 3.984375-5.582031.71875-11.988281 4.007813-17.433594 9.449219zm28.285156 28.285156c-5.441406 5.441407-8.730469 11.847657-9.453125 17.433594-1.484375-.585937-2.835937-1.4375-3.980468-2.582031-5.859376-5.859375-4.277344-16.9375 3.535156-24.75s18.890625-9.394532 24.75-3.535156c1.144531 1.144531 1.996094 2.5 2.582031 3.980468-5.585937.722656-11.992187 4.011719-17.433594 9.453125zm12.316407-68.882812c-5.441407 5.441406-8.730469 11.847656-9.453126 17.433593-1.484374-.585937-2.835937-1.4375-3.984374-2.585937-5.855469-5.855469-4.273438-16.9375 3.539062-24.746094 7.808594-7.8125 18.890625-9.394531 24.746094-3.535156 1.148437 1.144531 2 2.496094 2.585937 3.980469-5.585937.722656-11.992187 4.011718-17.433593 9.453125zm28.285156 28.285156c-5.441406 5.441406-8.730469 11.847656-9.453125 17.429687-1.484375-.582031-2.835938-1.4375-3.984375-2.582031-5.855469-5.859375-4.273438-16.9375 3.535156-24.75 7.8125-7.808593 18.890625-9.390625 24.75-3.535156 1.148438 1.148437 2 2.5 2.585938 3.984375-5.585938.71875-11.992188 4.007812-17.433594 9.453125zm40.597656-40.601563c-5.441406 5.441407-8.730469 11.851563-9.453125 17.433594-1.484375-.585937-2.835937-1.4375-3.980469-2.582031-5.859375-5.859375-4.277344-16.941406 3.535156-24.75 7.808594-7.8125 18.890626-9.394531 24.75-3.535156 1.144532 1.144531 1.996094 2.496093 2.582032 3.980469-5.582032.722656-11.992188 4.011718-17.433594 9.453124zm12.316406-68.882812c-5.441406 5.441406-8.730468 11.847656-9.453125 17.433594-1.484375-.585938-2.835937-1.4375-3.980469-2.585938-5.859374-5.855468-4.277343-16.9375 3.535157-24.746094 7.808593-7.8125 18.890625-9.394531 24.746093-3.535156 1.148438 1.144532 2 2.496094 2.585938 3.980469-5.585938.71875-11.992188 4.007813-17.433594 9.453125zm28.285156 28.285156c-5.445312 5.441406-8.734374 11.847656-9.453124 17.433594-1.484376-.585938-2.835938-1.4375-3.984376-2.585938-5.855468-5.855468-4.273437-16.9375 3.535157-24.75 7.8125-7.808593 18.890625-9.390624 24.75-3.535156 1.148437 1.148438 2 2.5 2.582031 3.984375-5.582031.71875-11.988281 4.007813-17.429688 9.453125zm12.3125-68.886718c-5.441406 5.441406-8.730468 11.851562-9.449218 17.433593-1.484375-.585937-2.835938-1.4375-3.984375-2.582031-5.859375-5.859375-4.273438-16.9375 3.535156-24.75 7.8125-7.808594 18.890625-9.394531 24.75-3.535156 1.144531 1.148437 2 2.5 2.582031 3.980468-5.582031.722657-11.992187 4.011719-17.433594 9.453126zm28.285157 28.285156c-5.441407 5.441406-8.730469 11.851562-9.453125 17.433594-1.480469-.585938-2.835938-1.4375-3.980469-2.582032-5.859375-5.859375-4.277344-16.941406 3.535156-24.75 7.8125-7.8125 18.890625-9.394531 24.75-3.535156 1.144531 1.144531 2 2.496094 2.582031 3.980469-5.582031.722656-11.992187 4.011719-17.433593 9.453125zm12.316406-68.882813c-5.441406 5.441407-8.730469 11.847657-9.453125 17.433594-1.484375-.585937-2.835938-1.4375-3.984375-2.585937-5.855469-5.855469-4.273437-16.9375 3.539063-24.746094 7.808593-7.8125 18.890624-9.394532 24.746093-3.535156 1.148438 1.144531 2 2.496093 2.585938 3.980468-5.585938.722656-11.992188 4.011719-17.433594 9.453125zm28.285156 28.28125c-5.445312 5.445313-8.734375 11.851563-9.453125 17.433594-1.484375-.585937-2.835937-1.4375-3.984375-2.582031-5.855469-5.859375-4.273437-16.9375 3.535157-24.75 7.8125-7.808594 18.890624-9.394532 24.75-3.535156 1.148437 1.148437 2 2.5 2.585937 3.980468-5.585937.722656-11.992187 4.011719-17.433594 9.453125zm17.785157-60.464843c-5.441407 5.441406-8.730469 11.851562-9.453126 17.433593-1.480468-.585937-2.832031-1.4375-3.980468-2.582031-5.859375-5.859375-4.273438-16.9375 3.535156-24.75s18.890625-9.394531 24.75-3.535156c1.144531 1.144531 1.996094 2.496094 2.582031 3.980468-5.582031.722657-11.992187 4.011719-17.433593 9.453126zm0 0" fill="#f5cf51"/><path d="m54.277344 413.628906c-16.792969-21.457031-30.222656-45.667968-39.527344-71.835937-2.550781-33.890625 9.128906-68.648438 35.042969-94.5625l190.328125-190.332031c47.191406 47.191406 47.191406 123.699218 0 170.886718zm0 0" fill="#23c77d"/><path d="m63.429688 404.476562-9.152344 9.152344c-16.792969-21.457031-30.222656-45.667968-39.527344-71.835937-2.550781-33.890625 9.128906-68.648438 35.042969-94.5625l190.328125-190.332031c.140625.140624.28125.28125.417968.421874 21.167969 21.371094 20.804688 55.945313-.464843 77.214844l-151.488281 151.488282c-25.914063 25.914062-37.59375 60.671874-35.042969 94.5625 2.902343 8.160156 6.207031 16.132812 9.886719 23.890624zm0 0" fill="#03ad6b"/></svg>