<svg height="511pt" viewBox="0 0 511 511.99984" width="511pt" xmlns="http://www.w3.org/2000/svg"><path d="m512.5 256c0 141.042969-113.542969 255.230469-254.582031 255.996094-41.164063.222656-80.089844-9.273438-114.621094-26.324219-1.875-.925781-3.046875-2.851563-3.046875-4.941406 0-16.003907-12.972656-28.980469-28.976562-28.980469h-18.347657c-.894531 0-1.761719-.316406-2.445312-.898438-55.53125-47.359374-90.5781252-118.023437-89.972657-196.867187 1.085938-141.003906 114.984376-253.984375 255.992188-253.984375 141.382812 0 256 114.613281 256 256zm0 0" fill="#4da0b8"/><path d="m506.785156 131.738281c-47.476562 22.664063-95.710937 52.921875-142.410156 90.136719-24.789062 19.757812-49.148438 41.46875-72.730469 65.050781-63.058593 63.058594-112.757812 131.652344-147.316406 199.242188-19.617187-9.578125-37.828125-21.589844-54.238281-35.644531-42.105469-101.300782-21.980469-222.351563 60.410156-304.742188 24.230469-24.234375 51.808594-43.074219 81.246094-56.535156 88.878906-40.648438 194.699218-32.203125 276.542968 25.328125 6.242188 4.382812 5.378907 13.878906-1.503906 17.164062zm0 0" fill="#f7b95f"/><path d="m411.367188 201.753906c-38.484376 26.410156-76.121094 57.550782-111.730469 93.164063-35.609375 35.609375-66.75 73.242187-93.164063 111.726562-4.246094 6.191407-13.402344 5.960938-17.074218-.425781l-62.269532-108.308594c-4.941406-8.597656-17.6875-7.382812-20.964844 1.980469-17.6875 50.5-21.796874 103.800781-12.085937 153.988281-1.335937-1.097656-2.652344-2.210937-3.964844-3.332031-28.695312-69.019531-28.496093-147.207031.59375-216.09375-4.113281-8.246094-4.230469-18.054687-.132812-26.542969 2.398437-4.972656 4.960937-9.878906 7.679687-14.710937-6.5625-3.949219-8.621094-12.765625-4.097656-19.289063 10.277344-14.8125 21.917969-28.8125 34.960938-41.851562 15.859374-15.863282 33.136718-29.667969 51.570312-41.457032 5.914062-3.777343 13.457031-2.382812 17.691406 2.675782 4.683594-2.625 9.433594-5.097656 14.25-7.421875 8.484375-4.097657 18.289063-3.980469 26.53125.128906 73.546875-31.0625 157.695313-29.1875 229.96875 5.621094-53.257812-12.484375-110.554687-9.082031-164.636718 9.886719-9.308594 3.261718-10.414063 16.003906-1.863282 20.917968l108.308594 62.269532c6.390625 3.671874 6.617188 12.824218.429688 17.074218zm0 0" fill="#f49f1f"/><path d="m391.472656 215.898438c-31.550781 23.191406-62.386718 49.570312-91.835937 79.019531-28.949219 28.949219-54.941407 59.234375-77.84375 90.226562-33.199219-48.699219-50.847657-100.027343-50.5625-143.953125.054687-8.28125 8.511719-13.847656 16.152343-10.664062l45.582032 19c.058594.023437.117187.046875.179687.074218 13.558594 5.496094 27.425781-8.371093 21.929688-21.933593-.023438-.058594-.046875-.117188-.070313-.179688l-29.058594-69.710937c-2.703124-6.484375.882813-13.933594 7.675782-15.734375 19.222656-5.097657 40.359375-2.089844 57.925781 9.265625zm-172.835937-30.164063-34.9375-79.351563c-2.429688-5.523437-7.792969-8.824218-13.222657-8.9375-14.652343 10.207032-28.503906 21.757813-41.417968 34.667969-10.402344 10.402344-19.898438 21.425781-28.539063 32.976563 18.835938 7.980468 65.855469 27.820312 98.523438 40.957031 13.121093 5.277344 25.300781-7.351563 19.59375-20.3125zm0 0" fill="#f7b95f"/><path d="m160.5 395c0 8.285156-6.714844 15-15 15s-15-6.714844-15-15 6.714844-15 15-15 15 6.714844 15 15zm15-125c-8.285156 0-15 6.714844-15 15s6.714844 15 15 15 15-6.714844 15-15-6.714844-15-15-15zm-75 50c-8.285156 0-15 6.714844-15 15s6.714844 15 15 15 15-6.714844 15-15-6.714844-15-15-15zm65-160c8.285156 0 15-6.714844 15-15s-6.714844-15-15-15-15 6.714844-15 15 6.714844 15 15 15zm270-80c-8.285156 0-15 6.714844-15 15s6.714844 15 15 15 15-6.714844 15-15-6.714844-15-15-15zm-30 50c-8.285156 0-15 6.714844-15 15s6.714844 15 15 15 15-6.714844 15-15-6.714844-15-15-15zm-160 140c-8.285156 0-15 6.714844-15 15s6.714844 15 15 15 15-6.714844 15-15-6.714844-15-15-15zm0 0" fill="#f49f1f"/></svg>