<svg height="512.00013pt" viewBox="0 0 512.00013 512.00013" width="512.00013pt" xmlns="http://www.w3.org/2000/svg"><path d="m437.019531 437.027344c-92.875 92.875-239.347656 99.453125-339.839843 19.773437-6.089844-7.683593-12.667969-15.109375-19.769532-22.210937-7.101562-7.101563-14.527344-13.679688-22.210937-19.769532-79.679688-100.492187-73.101563-246.964843 19.773437-339.839843 99.976563-99.972657 262.070313-99.972657 362.046875 0 99.972657 99.976562 99.972657 262.070312 0 362.046875zm0 0" fill="#54cc87"/><path d="m454.566406 146.804688-87.957031-87.957032c-7.808594-7.8125-20.472656-7.8125-28.285156 0l-100.640625 100.640625c-15.621094 15.621094-15.621094 40.949219 0 56.570313l15.566406 15.566406-161.160156 161.15625c-7.808594 7.8125-7.808594 20.472656 0 28.285156 7.8125 7.8125 20.476562 7.8125 28.285156 0l161.160156-161.160156 15.820313 15.824219c15.621093 15.621093 40.949219 15.621093 56.570312 0l100.640625-100.640625c7.8125-7.8125 7.8125-20.472656 0-28.285156zm-175.503906 7.070312 66.332031-66.332031c3.90625-3.90625 10.238281-3.90625 14.144531 0l3.738282 3.738281c3.90625 3.90625 3.90625 10.238281 0 14.144531l-66.332032 66.332031c-3.90625 3.90625-10.238281 3.90625-14.140624 0l-3.742188-3.738281c-3.90625-3.90625-3.90625-10.238281 0-14.144531zm35.035156 49.179688-3.738281-3.738282c-3.90625-3.90625-3.90625-10.238281 0-14.144531l66.332031-66.332031c3.90625-3.90625 10.238282-3.90625 14.144532 0l3.738281 3.738281c3.90625 3.90625 3.90625 10.238281 0 14.144531l-66.332031 66.332032c-3.90625 3.90625-10.238282 3.90625-14.144532 0zm111.773438-35.035157-66.332032 66.332031c-3.90625 3.90625-10.238281 3.90625-14.144531 0l-3.738281-3.742187c-3.90625-3.902344-3.90625-10.234375 0-14.140625l66.332031-66.332031c3.90625-3.90625 10.238281-3.90625 14.144531 0l3.738282 3.738281c3.90625 3.90625 3.90625 10.238281 0 14.144531zm0 0" fill="#f0eff4"/><path d="m132.472656 408.96875-11.757812 11.757812c-7.667969 7.667969-20.164063 8.238282-28.101563.847657-8.332031-7.761719-8.503906-20.8125-.523437-28.792969l161.160156-161.15625-15.566406-15.566406c-15.621094-15.621094-15.621094-40.949219 0-56.570313l100.640625-100.640625c7.8125-7.8125 20.476562-7.8125 28.285156 0l3.652344 3.648438-88.960938 89.144531c-.730469.726563-11.414062 11.53125-11.792969 12.125-12 15.679687-10.839843 38.203125 3.503907 52.550781 8.597656 8.59375 8.597656 22.535156 0 31.128906l-137.382813 137.382813c-6.546875 6.546875-7.582031 16.492187-3.15625 24.140625zm0 0" fill="#dcdce1"/><path d="m185.054688 343.988281c7.808593 7.8125 7.808593 20.476563 0 28.285157l-86.007813 86.007812c-8.355469-6.496094-16.398437-13.578125-24.074219-21.253906-7.191406-7.1875-13.847656-14.710938-20-22.496094l86.167969-86.167969c7.808594-7.808593 20.472656-7.808593 28.285156 0zm0 0" fill="#ec3c52"/><path d="m82.847656 444.578125c-2.675781-2.457031-5.28125-4.957031-7.875-7.550781-7.191406-7.1875-13.847656-14.710938-20-22.496094l86.167969-86.167969c7.808594-7.8125 20.472656-7.8125 28.285156 0l15.40625 15.402344c-7.8125-7.808594-20.476562-7.808594-28.285156 0l-73.117187 73.117187c-7.578126 7.578126-7.925782 19.847657-.582032 27.695313zm0 0" fill="#d73247"/><path d="m478.5625 235.417969c-4.457031 4.460937-9.257812 8.410156-14.34375 11.867187-48.609375 33.019532-114.601562 4.160156-125.976562-53.492187-5.722657-28.996094-20.875-58.097657-44.972657-82.199219-4.277343-4.273438-8.707031-8.265625-13.265625-11.972656-20.347656-16.546875-22.25-47.144532-3.8125-65.789063.128906-.132812.257813-.261719.390625-.394531 46.074219-46.074219 128.640625-38.210938 184.417969 17.5625 55.773438 55.777344 63.636719 138.34375 17.5625 184.417969zm0 0" fill="#bb5335"/><path d="m338.238281 193.792969c-3.929687-19.925781-12.3125-39.898438-24.992187-58.265625-.480469-.695313-1.140625-1.550782-1.941406-2.53125-22.300782-27.210938-14.96875-68.15625 15.898437-85.039063 2.265625-1.238281 4.347656-2.199219 6.171875-2.816406 45.164062-15.246094 100.519531-5.203125 146.53125 28.265625 37.992188 53.746094 38.882812 121.785156-1.34375 162.011719-4.460938 4.460937-9.257812 8.410156-14.34375 11.867187-48.613281 33.019532-114.601562 4.160156-125.980469-53.492187zm0 0" fill="#d25e3e"/><path d="m398.648438 45.730469c-3.636719-3.636719-3.636719-9.535157 0-13.171875 3.640624-3.636719 9.535156-3.636719 13.171874 0l65.863282 65.863281c3.640625 3.636719 3.640625 9.535156 0 13.171875-3.636719 3.640625-9.535156 3.640625-13.171875 0zm-90.011719 19.761719c-3.636719-3.640626-9.535157-3.640626-13.171875 0-3.640625 3.636718-3.640625 9.535156 0 13.171874l144.898437 144.898438c3.636719 3.636719 9.535157 3.636719 13.171875 0 3.636719-3.636719 3.636719-9.535156 0-13.171875zm65.863281 127.332031c-3.640625-3.636719-9.535156-3.636719-13.175781 0-3.636719 3.640625-3.636719 9.535156 0 13.175781l30.738281 30.734375c3.636719 3.636719 9.535156 3.636719 13.171875 0 3.640625-3.636719 3.640625-9.535156 0-13.171875zm105.378906-26.34375-136.117187-136.117188c-3.636719-3.636719-9.535157-3.636719-13.171875 0-3.636719 3.640625-3.636719 9.535157 0 13.171875l136.117187 136.117188c3.636719 3.640625 9.535157 3.640625 13.171875 0 3.636719-3.636719 3.636719-9.535156 0-13.171875zm0 0" fill="#a0452c"/></svg>