<svg height="512pt" viewBox="0 0 512 512" width="512pt" xmlns="http://www.w3.org/2000/svg"><path d="m512 256c0 141.386719-114.613281 256-256 256s-256-114.613281-256-256 114.613281-256 256-256 256 114.613281 256 256zm0 0" fill="#f5cf51"/><path d="m370 75c0 8.285156-6.714844 15-15 15h-130c-8.285156 0-15-6.714844-15-15s6.714844-15 15-15h75c5.523438 0 10-4.476562 10-10s-4.476562-10-10-10h-35c-8.285156 0-15-6.714844-15-15s6.714844-15 15-15h62.054688c23.726562 6.84375 46.042968 17.019531 66.398437 30h-53.453125c-5.523438 0-10 4.476562-10 10s4.476562 10 10 10h15c8.285156 0 15 6.714844 15 15zm0 0" fill="#f8df92"/><path d="m404.515625 464.535156c-41.882813 29.882813-93.144531 47.464844-148.515625 47.464844-28.03125 0-55.003906-4.519531-80.242188-12.847656-5.703124-6.160156-9.503906-14.144532-10.417968-23.0625l-36.441406-354.578125c-.300782-2.949219 2.011718-5.511719 4.976562-5.511719h300.917969c2.964843 0 5.277343 2.5625 4.976562 5.511719zm0 0" fill="#3a91a5"/><path d="m452 180h-18.242188l6.007813-58.488281c.304687-2.949219-2.007813-5.511719-4.972656-5.511719h-258.433594l22.011719 214.191406c9.03125 87.855469 87.433594 152.582032 175.257812 143.269532 13.363282-1.421876 24.273438-4.207032 30.886719-8.925782l7.660156-74.535156h39.824219c33.136719 0 60-26.863281 60-60v-90c0-33.136719-26.863281-60-60-60zm28 140c0 16.566406-13.429688 30-30 30h-33.714844l13.359375-130h20.355469c16.570312 0 30 13.433594 30 30zm0 0" fill="#4da0b8"/><path d="m291.007812 509.605469c-11.449218 1.566406-23.128906 2.394531-35.007812 2.394531-61.699219 0-118.296875-21.828125-162.496094-58.183594l-55.503906-131.816406h332zm0 0" fill="#f8df92"/><path d="m272.96875 510.777344c-73.292969-7.113282-136.480469-54.621094-165.058594-122.484375l-27.910156-66.292969h290l-78.992188 187.605469c-4.640624.636719-9.320312 1.144531-14.035156 1.527343-1.339844-.105468-2.671875-.226562-4.003906-.355468zm0 0" fill="#fbf1d1"/><path d="m165.332031 196.667969c0 15.09375-12.234375 27.332031-27.332031 27.332031s-27.332031-12.238281-27.332031-27.332031c0-15.097657 12.238281-27.332031 27.332031-27.332031s27.332031 12.234374 27.332031 27.332031zm0 0" fill="#a0452c"/><path d="m384 310c0 22-18 40-40 40h-280c-22 0-40-18-40-40s18-40 40-40h5.632812c-.414062-2.46875-.632812-4.96875-.632812-7.5 0-42.800781 60.441406-77.5 135-77.5s135 34.699219 135 77.5c0 2.53125-.21875 5.03125-.632812 7.5h5.632812c22 0 40 18 40 40zm0 0" fill="#d25e3e"/><path d="m116 350h-52c-22 0-40-18-40-40s18-40 40-40h5.632812c-.414062-2.46875-.632812-4.96875-.632812-7.5 0-42.800781 60.441406-77.5 135-77.5 8.894531 0 17.585938.5 25.996094 1.441406-44.292969 4.960938-80.847656 22.355469-98.171875 45.597656-.542969.730469-1.097657 1.578126-1.660157 2.519532-10.148437 17.011718-23.464843 31.796875-38.972656 44.121094-9.242187 7.34375-15.191406 18.671874-15.191406 31.320312 0 22 18 40 40 40zm0 0" fill="#bb5335"/><path d="m102.332031 269.332031c0 15.097657-12.238281 27.335938-27.332031 27.335938s-27.332031-12.238281-27.332031-27.335938c0-15.09375 12.234375-27.332031 27.332031-27.332031s27.332031 12.238281 27.332031 27.332031zm90.335938-11.664062c-15.097657 0-27.332031 12.234375-27.332031 27.332031s12.234374 27.332031 27.332031 27.332031c15.09375 0 27.332031-12.234375 27.332031-27.332031s-12.238281-27.332031-27.332031-27.332031zm136.390625-15.667969c-15.09375 0-27.332032 12.238281-27.332032 27.332031 0 15.097657 12.238282 27.335938 27.332032 27.335938s27.332031-12.238281 27.332031-27.335938c0-15.09375-12.234375-27.332031-27.332031-27.332031zm-94.808594-68.96875c-15.09375 0-27.332031 12.238281-27.332031 27.332031 0 15.097657 12.238281 27.332031 27.332031 27.332031 15.097656 0 27.335938-12.234374 27.335938-27.332031 0-15.09375-12.238282-27.332031-27.335938-27.332031zm0 0" fill="#a0452c"/></svg>