<svg height="512pt" viewBox="0 0 512 512.00034" width="512pt" xmlns="http://www.w3.org/2000/svg"><path d="m40.144531 125.96875c-.132812-4.855469 1.238281-9.644531 3.964844-13.664062 45.789063-67.390626 122.882813-111.792969 210.378906-112.30078175 141.59375-.82031225 257.511719 114.39843775 257.511719 255.99609375 0 88.585938-45.003906 166.644531-113.386719 212.605469-1.359375.914062-2.972656 1.394531-4.613281 1.394531-192.175781 0-348.578125-153.132812-353.855469-344.03125zm0 0" fill="#54cc87"/><path d="m447 321c0 54.089844-16.789062 104.246094-45.417969 145.582031-41.335937 28.628907-91.492187 45.417969-145.582031 45.417969-141.386719 0-256-114.613281-256-256 0-54.085938 16.789062-104.246094 45.417969-145.582031.71875-.496094 1.4375-.988281 2.164062-1.480469 29.457031-19.960938 68.601563-14.601562 92.742188 11.542969.363281.394531.738281.785156 1.125 1.167969 15.621093 15.621093 40.949219 15.621093 56.570312 0l56.566407-56.566407c15.621093-15.621093 40.949218-15.621093 56.570312 0 9.785156 9.785157 13.4375 23.382813 10.964844 36.015625 74.789062 44.6875 124.878906 126.441406 124.878906 219.902344zm0 0" fill="#fae8b1"/><path d="m298.113281 495.644531c25.09375-.5625 49.5-4.324219 72.839844-10.871093-34.566406 17.40625-73.609375 27.226562-114.953125 27.226562-141.386719 0-256-114.613281-256-256 0-41.34375 9.820312-80.386719 27.226562-114.953125-6.546874 23.339844-10.308593 47.75-10.871093 72.839844-.355469 15.742187.582031 31.160156 2.671875 46.164062.320312-.03125.644531-.050781.972656-.050781 5.523438 0 10 4.476562 10 10 0 4.667969-3.203125 8.578125-7.53125 9.679688 23.03125 108.214843 108.207031 191.328124 217.585938 211.394531-.027344-.355469-.054688-.710938-.054688-1.074219 0-8.28125 6.714844-15 15-15s15 6.71875 15 15c0 1.703125-.296875 3.328125-.816406 4.851562 9.503906.738282 19.152344 1.015626 28.929687.792969zm51.886719-165.644531c5.523438 0 10-4.476562 10-10s-4.476562-10-10-10-10 4.476562-10 10 4.476562 10 10 10zm-70-240c5.523438 0 10-4.476562 10-10s-4.476562-10-10-10-10 4.476562-10 10 4.476562 10 10 10zm-190 135c8.285156 0 15-6.714844 15-15s-6.714844-15-15-15-15 6.714844-15 15 6.714844 15 15 15zm245 245c8.285156 0 15-6.714844 15-15s-6.714844-15-15-15-15 6.714844-15 15 6.714844 15 15 15zm50-190c-8.285156 0-15 6.714844-15 15s6.714844 15 15 15 15-6.714844 15-15-6.714844-15-15-15zm0 0" fill="#f8df92"/><path d="m489.265625 67.757812-57.375 45.46875c.777344 10.113282-2.695313 20.488282-10.425781 28.222657l-2.832032 2.828125c15.621094 15.621094 15.621094 40.949218 0 56.570312l-281.777343 281.777344c-45.78125-24.121094-83.359375-61.699219-107.476563-107.480469l281.773438-281.777343c15.621094-15.621094 40.949218-15.621094 56.570312 0l2.828125-2.828126c7.378907-7.378906 17.164063-10.878906 26.828125-10.515624l46.804688-57.816407c12.042968-14.878906 34.324218-16.046875 47.855468-2.515625 13.632813 13.632813 12.335938 36.097656-2.773437 48.066406zm0 0" fill="#e06e4e"/><path d="m498.441406 28.8125c-13.003906-6.09375-29.128906-2.964844-38.738281 8.910156l-61.808594 76.351563c-2.347656 2.898437-6.589843 3.378906-9.523437 1.070312-15.53125-10.289062-36.664063-8.59375-50.347656 5.09375l-287.910157 287.910157c-7.714843-10.425782-14.648437-21.457032-20.734375-33.007813l281.773438-281.773437c15.621094-15.621094 40.949218-15.621094 56.570312 0l2.828125-2.828126c7.378907-7.378906 17.160157-10.875 26.824219-10.507812l46.8125-57.824219c12.042969-14.878906 34.320312-16.046875 47.855469-2.515625 2.730469 2.738282 4.855469 5.828125 6.398437 9.121094zm0 0" fill="#d25e3e"/></svg>