<svg height="512pt" viewBox="0 0 512.00213 512" width="512pt" xmlns="http://www.w3.org/2000/svg"><path d="m511.972656 252.097656c2.132813 142.613282-111.480468 258.882813-254.105468 259.898438-49.433594.351562-95.65625-13.3125-134.925782-37.25-5.976562-3.644532-11.171875-8.445313-15.296875-14.101563-15.722656-21.558593-34.730469-40.566406-56.289062-56.285156-5.65625-4.125-10.453125-9.324219-14.097657-15.300781-23.941406-39.269532-37.601562-85.488282-37.2499995-134.925782 1.0195315-142.621093 117.2851565-256.234374 259.8945315-254.101562 138.289062 2.066406 250.003906 113.78125 252.070312 252.066406zm0 0" fill="#fccfc9"/><path d="m406.0625 105.945312c39.683594 39.683594 34.558594 109.148438-11.449219 155.15625-.730469.734376-1.46875 1.457032-2.214843 2.167969-18.179688 17.386719-31.546876 39.070313-38.753907 63.171875-9.527343 31.875-28.03125 63.445313-55.003906 90.421875-51.515625 51.511719-119.796875 72.136719-174.90625 58.359375-35.554687-21.5-65.453125-51.398437-86.953125-86.949218-13.777344-55.113282 6.847656-123.394532 58.359375-174.910157 26.976563-26.972656 58.546875-45.476562 90.421875-55.003906 24.101562-7.207031 45.785156-20.574219 63.171875-38.753906.710937-.742188 1.433594-1.484375 2.167969-2.214844 46.003906-46.007813 115.472656-51.132813 155.160156-11.445313zm0 0" fill="#b34068"/><path d="m119.375 237.597656c26.984375-26.980468 58.566406-45.484375 90.449219-55.011718 24.117187-7.207032 45.796875-20.628907 63.207031-38.808594.691406-.722656 1.394531-1.441406 2.105469-2.152344 41.21875-41.21875 101.265625-49.613281 141.855469-22.378906 27.238281 40.59375 18.839843 100.636718-22.378907 141.855468-.710937.714844-1.425781 1.414063-2.152343 2.105469-18.179688 17.410157-31.601563 39.09375-38.808594 63.210938-9.527344 31.878906-28.03125 63.464843-55.011719 90.445312-1.835937 1.835938-3.691406 3.628907-5.566406 5.386719-118.382813 110.832031-289.914063-60.703125-179.082031-179.085938 1.753906-1.875 3.550781-3.730468 5.382812-5.566406zm0 0" fill="#cc4978"/><path d="m467.4375 89.039062c-11.828125.957032-22.929688 6.089844-31.320312 14.484376l-.648438.644531c-8.128906 8.132812-10.328125 20.34375-5.890625 30.953125 9.867187 23.578125 10.804687 50.910156 3.148437 77.359375-.226562-.109375-.457031-.226563-.695312-.351563-11.539062-6.011718-18.898438-17.859375-19.476562-30.855468-.230469-5.21875-.777344-10.3125-1.800782-15.394532-2.507812-12.488281-17.714844-17.398437-27.023437-8.703125-.109375.101563-.21875.203125-.324219.304688-7.953125 7.472656-20.410156 7.246093-28.125-.464844l-.292969-.292969c-7.703125-7.703125-7.941406-20.144531-.492187-28.097656.214844-.226562.429687-.457031.644531-.6875 8.480469-9.109375 3.996094-23.914062-8.089844-26.894531-6.210937-1.53125-12.445312-2.414063-18.808593-2.8125-12.214844-.769531-23.230469-7.816407-28.636719-18.789063-.027344-.054687-.054688-.109375-.082031-.164062 26.859374-7.777344 54.632812-6.695313 78.460937 3.601562 10.695313 4.621094 23.097656 2.46875 31.335937-5.769531l.191407-.191406c8.390625-8.390625 19.492187-13.523438 31.320312-14.484375l24.285157-1.96875c4.191406-.339844 8.320312 1.179687 11.292968 4.152344 8.640625 8.636718 3.203125 23.433593-8.972656 24.421874zm0 0" fill="#75c24b"/><path d="m299.605469 79.441406c-.027344-.054687-.054688-.109375-.078125-.164062 26.855468-7.773438 54.632812-6.695313 78.460937 3.601562 10.691407 4.621094 23.097657 2.46875 31.335938-5.769531l.1875-.191406c8.394531-8.390625 19.492187-13.523438 31.320312-14.480469l24.289063-1.972656c4.191406-.339844 8.320312 1.179687 11.292968 4.152344 8.636719 8.640624 3.199219 23.433593-8.976562 24.421874-2.867188.230469-5.691406.714844-8.445312 1.421876l-18.160157 1.476562c-11.828125.957031-22.925781 6.089844-31.320312 14.480469l-.1875.191406c-8.238281 8.238281-20.644531 10.390625-31.335938 5.769531-7.390625-3.191406-15.15625-5.496094-23.160156-6.925781-2.019531-2.0625-4.636719-3.636719-7.773437-4.410156-6.210938-1.53125-12.445313-2.414063-18.8125-2.8125-12.210938-.769531-23.230469-7.816407-28.636719-18.789063zm0 0" fill="#66a548"/></svg>