<svg height="512pt" viewBox="0 0 512 512" width="512pt" xmlns="http://www.w3.org/2000/svg"><path d="m512 256c0 141.386719-114.613281 256-256 256s-256-114.613281-256-256 114.613281-256 256-256 256 114.613281 256 256zm0 0" fill="#94d7e8"/><path d="m510.871094 280c-12.101563 130.128906-121.582032 232-254.871094 232s-242.769531-101.871094-254.871094-232zm0 0" fill="#6fb0c4"/><path d="m171 0c5.523438 0 10 4.476562 10 10v75c0 2.761719-2.238281 5-5 5h-16c-2.761719 0-5-2.238281-5-5v-54c0-2.761719-2.238281-5-5-5h-84c-2.761719 0-5-2.238281-5-5v-16c0-2.761719 2.238281-5 5-5zm0 0" fill="#ec3c52"/><path d="m228.9375 430h-123.496094l-57.441406-350h238.378906zm0 0" fill="#f1bd1f"/><path d="m286.378906 80-57.441406 350h-89.875l-57.441406-350zm0 0" fill="#f7c32a"/><path d="m283 110h-230c-2.761719 0-5-2.238281-5-5v-30c0-2.761719 2.238281-5 5-5h230c2.761719 0 5 2.238281 5 5v30c0 2.761719-2.238281 5-5 5zm0 0" fill="#fae8b1"/><path d="m283 110h-198c-2.761719 0-5-2.238281-5-5v-30c0-2.761719 2.238281-5 5-5h198c2.761719 0 5 2.238281 5 5v30c0 2.761719-2.238281 5-5 5zm0 0" fill="#fbf1d1"/><path d="m474.84375 169.703125-23.296875 86.933594c-6.429687 24.003906-31.105469 38.25-55.113281 31.816406-3.921875-1.050781-7.578125-2.597656-10.933594-4.539063-4.136719 20.582032-22.3125 36.085938-44.113281 36.085938-14.402344 0-27.214844-6.773438-35.453125-17.304688-3.875 2.523438-8.203125 4.496094-12.910156 5.757813-24.007813 6.433594-48.683594-7.8125-55.117188-31.816406l-23.292969-86.933594c-6.429687-24.007813 7.816407-48.683594 31.820313-55.113281 23.507812-6.300782 47.644531 7.234375 54.675781 30.339844 7.378906-14.777344 22.636719-24.929688 40.277344-24.929688 18.320312 0 34.074219 10.953125 41.09375 26.664062l5.425781-20.257812c6.433594-24.003906 31.109375-38.25 55.117188-31.816406 24.003906 6.429687 38.25 31.105468 31.820312 55.113281zm0 0" fill="#d58a2d"/><path d="m296.386719 275c0 10.105469 3.332031 19.433594 8.953125 26.941406-17.859375-2.003906-33.519532-14.660156-38.453125-33.070312l-23.292969-86.933594c-5.074219-18.925781 2.714844-38.257812 17.996094-48.75 17.988281 1.40625 34.011718 13.625 39.527344 31.730469-3.023438 6.046875-4.730469 12.863281-4.730469 20.082031zm68.226562-41.65625 17.867188-66.683594c-5.003907-11.195312-14.445313-19.972656-26.09375-24.089844-17.476563 6.179688-30 22.835938-30 42.429688v90c0 19.59375 12.523437 36.25 30 42.429688 14.753906-5.214844 25.976562-17.902344 29.117187-33.515626-17.171875-9.945312-26.269531-30.488281-20.890625-50.570312zm92.230469-112.390625c-18.476562 1.445313-34.886719 14.296875-39.957031 33.21875l-23.292969 86.933594c-5.074219 18.925781 2.714844 38.257812 17.996094 48.75 18.476562-1.445313 34.886718-14.296875 39.957031-33.21875l23.292969-86.933594c5.070312-18.925781-2.714844-38.257813-17.996094-48.75zm0 0" fill="#e2902a"/><path d="m496.90625 224.023438-67.710938 154.023437c-3.191406 7.265625-10.375 11.953125-18.308593 11.953125h-144.011719c-7.933594 0-15.117188-4.6875-18.308594-11.949219l-67.710937-154.027343c-2.902344-6.609376 1.9375-14.023438 9.15625-14.023438h297.738281c7.21875 0 12.058594 7.414062 9.15625 14.023438zm0 0" fill="#d73247"/><path d="m410.886719 390c-71.136719 0-135.550781-42.046875-164.179688-107.171875l-32.015625-72.828125h273.058594c7.21875 0 12.058594 7.414062 9.15625 14.023438l-67.710938 154.023437c-3.191406 7.265625-10.375 11.953125-18.308593 11.953125zm0 0" fill="#ec3c52"/><path d="m265 400h-190c-19.328125 0-35-15.671875-35-35s15.671875-35 35-35h190c19.328125 0 35 15.671875 35 35s-15.671875 35-35 35zm0 0" fill="#bb5335"/><path d="m265 400h-160c-19.328125 0-35-15.671875-35-35s15.671875-35 35-35h160c19.328125 0 35 15.671875 35 35s-15.671875 35-35 35zm0 0" fill="#d25e3e"/><path d="m230 470h-120c-38.660156 0-70-31.339844-70-70 0-5.523438 4.476562-10 10-10h240c5.523438 0 10 4.476562 10 10 0 38.660156-31.339844 70-70 70zm0 0" fill="#f9c77e"/><path d="m230 470h-90c-38.660156 0-70-31.339844-70-70 0-5.523438 4.476562-10 10-10h210c5.523438 0 10 4.476562 10 10 0 38.660156-31.339844 70-70 70zm0 0" fill="#fad39c"/><path d="m191.285156 400.355469-63.75-63.75c-3.902344-3.90625-3.902344-10.238281 0-14.140625l63.75-63.75c3.90625-3.90625 10.238282-3.90625 14.144532 0l63.75 63.75c3.90625 3.902344 3.90625 10.234375 0 14.140625l-63.75 63.75c-3.90625 3.90625-10.238282 3.90625-14.144532 0zm0 0" fill="#f7c32a"/><path d="m300 336v8c0 .945312-.101562 1.871094-.300781 2.773438-2.027344 9.265624-17.132813 11.871093-24.167969 4.335937-4.125-4.421875-9.566406-7.109375-15.53125-7.109375-7.351562 0-13.910156 4.082031-18.183594 10.460938-2.320312 3.453124-6.914062 5.539062-11.816406 5.539062s-9.496094-2.085938-11.816406-5.539062c-4.273438-6.378907-10.832032-10.460938-18.183594-10.460938s-13.910156 4.082031-18.183594 10.460938c-2.320312 3.453124-6.914062 5.539062-11.816406 5.539062s-9.496094-2.085938-11.816406-5.539062c-4.273438-6.378907-10.832032-10.460938-18.183594-10.460938s-13.910156 4.082031-18.183594 10.460938c-2.320312 3.453124-6.914062 5.539062-11.816406 5.539062s-9.496094-2.085938-11.816406-5.539062c-4.273438-6.378907-10.832032-10.460938-18.183594-10.460938-5.964844 0-11.40625 2.6875-15.53125 7.105469-7.035156 7.539062-22.144531 4.933593-24.167969-4.332031-.199219-.902344-.300781-1.828126-.300781-2.773438v-8c0-8.839844 8.953125-16 20-16h220c11.046875 0 20 7.164062 20 16zm0 0" fill="#75c24b"/><path d="m300 316v8c0 .945312-.101562 1.871094-.300781 2.773438-2.027344 9.265624-17.132813 11.871093-24.167969 4.335937-4.125-4.421875-9.566406-7.109375-15.53125-7.109375-7.351562 0-13.910156 4.082031-18.183594 10.460938-2.320312 3.453124-6.914062 5.539062-11.816406 5.539062s-9.496094-2.085938-11.816406-5.539062c-4.273438-6.378907-10.832032-10.460938-18.183594-10.460938s-13.910156 4.082031-18.183594 10.460938c-2.320312 3.453124-6.914062 5.539062-11.816406 5.539062s-9.496094-2.085938-11.816406-5.539062c-4.273438-6.378907-10.832032-10.460938-18.183594-10.460938s-13.910156 4.082031-18.183594 10.460938c-2.320312 3.453124-6.914062 5.539062-11.816406 5.539062s-9.496094-2.085938-11.816406-5.539062c-4.273438-6.378907-10.832032-10.460938-18.183594-10.460938-5.964844 0-11.40625 2.6875-15.53125 7.105469-7.035156 7.539062-22.144531 4.933593-24.167969-4.332031-.199219-.902344-.300781-1.828126-.300781-2.773438v-8c0-8.839844 8.953125-16 20-16h220c11.046875 0 20 7.164062 20 16zm0 0" fill="#b0da3c"/><path d="m110 240h120c38.660156 0 70 31.339844 70 70 0 5.523438-4.476562 10-10 10h-240c-5.523438 0-10-4.476562-10-10 0-38.660156 31.339844-70 70-70zm0 0" fill="#f9c77e"/><path d="m140 240h90c38.660156 0 70 31.339844 70 70 0 5.523438-4.476562 10-10 10h-210c-5.523438 0-10-4.476562-10-10 0-38.660156 31.339844-70 70-70zm0 0" fill="#fad39c"/><path d="m164.109375 270.890625c.566406 1.253906.890625 2.644531.890625 4.109375 0 5.523438-4.476562 10-10 10-1.464844 0-2.855469-.324219-4.109375-.890625-.566406-1.253906-.890625-2.644531-.890625-4.109375 0-5.523438 4.476562-10 10-10 1.464844 0 2.855469.324219 4.109375.890625zm60.890625-35.890625c-1.46875 0-2.855469.324219-4.109375.890625-.566406 1.253906-.890625 2.640625-.890625 4.109375 0 5.523438 4.476562 10 10 10 1.46875 0 2.855469-.324219 4.109375-.890625.566406-1.253906.890625-2.644531.890625-4.109375 0-5.523438-4.476562-10-10-10zm-90 0c-1.46875 0-2.855469.324219-4.109375.890625-.566406 1.253906-.890625 2.640625-.890625 4.109375 0 5.523438 4.476562 10 10 10 1.46875 0 2.855469-.324219 4.109375-.890625.566406-1.253906.890625-2.644531.890625-4.109375 0-5.523438-4.476562-10-10-10zm-30 15c-1.46875 0-2.855469.324219-4.109375.890625-.566406 1.253906-.890625 2.640625-.890625 4.109375 0 5.523438 4.476562 10 10 10 1.46875 0 2.855469-.324219 4.109375-.890625.566406-1.253906.890625-2.644531.890625-4.109375 0-5.523438-4.476562-10-10-10zm135 15c-1.46875 0-2.855469.324219-4.109375.890625-.566406 1.253906-.890625 2.640625-.890625 4.109375 0 5.523438 4.476562 10 10 10 1.46875 0 2.855469-.324219 4.109375-.890625.566406-1.253906.890625-2.644531.890625-4.109375 0-5.523438-4.476562-10-10-10zm-50-10c-1.46875 0-2.855469.324219-4.109375.890625-.566406 1.253906-.890625 2.640625-.890625 4.109375 0 5.523438 4.476562 10 10 10 1.46875 0 2.855469-.324219 4.109375-.890625.566406-1.253906.890625-2.644531.890625-4.109375 0-5.523438-4.476562-10-10-10zm0 0" fill="#fbf1d1"/></svg>