<svg height="512pt" viewBox="0 0 512 512" width="512pt" xmlns="http://www.w3.org/2000/svg"><path d="m512 256c0 141.386719-114.613281 256-256 256s-256-114.613281-256-256 114.613281-256 256-256 256 114.613281 256 256zm0 0" fill="#b7e3ef"/><path d="m132.964844 379.035156c2.285156 31.867188-.710938 64.460938-8.925782 96.382813-17.480468-10.53125-33.980468-23.320313-49.058593-38.398438-15.082031-15.078125-27.867188-31.578125-38.398438-49.058593 31.921875-8.214844 64.515625-11.210938 96.382813-8.925782zm263.230468-143.8125-20.707031 20.707032c-23.429687 23.433593-23.429687 61.421874 0 84.855468l20.707031-20.710937c23.433594-23.429688 23.433594-61.417969 0-84.851563zm0 0" fill="#f45751"/><path d="m435.28125 56.71875c11.042969.058594 19.941406 8.957031 20 20 .425781 79.867188-31.765625 162.507812-95.625 226.367188-65.6875 65.6875-151.242188 97.867187-233.210938 95.511718-7.105468-.203125-12.835937-5.9375-13.042968-13.042968-2.351563-81.96875 29.824218-167.523438 95.511718-233.207032 63.859376-63.863281 146.5-96.054687 226.367188-95.628906zm0 0" fill="#f77b68"/><path d="m197.4375 392.070312c1.046875-.21875 2.089844-.429687 3.132812-.664062-1.042968.234375-2.089843.445312-3.132812.664062zm74.691406-25.996093c.714844-.355469 1.433594-.707031 2.144532-1.066407-.710938.359376-1.429688.710938-2.144532 1.066407zm-6.371094 3.074219c.667969-.3125 1.335938-.636719 2-.953126-.664062.316407-1.332031.640626-2 .953126zm-72.292968 23.75c-1.015625.203124-2.035156.386718-3.050782.582031 1.015626-.191407 2.03125-.378907 3.050782-.582031zm88.628906-31.972657c-.746094.402344-1.492188.808594-2.238281 1.203125.746093-.394531 1.492187-.800781 2.238281-1.203125zm-105.75 34.867188c.84375-.117188 1.691406-.242188 2.535156-.371094-.84375.128906-1.6875.253906-2.535156.371094zm9.878906-1.550781c-.933594.160156-1.863281.316406-2.796875.46875.933594-.152344 1.863281-.308594 2.796875-.46875zm44.992188-11.332032c-.5625.183594-1.117188.378906-1.679688.5625.5625-.183594 1.121094-.378906 1.679688-.5625zm7.238281-2.503906c-.816406.292969-1.636719.585938-2.457031.871094.820312-.285156 1.636718-.574219 2.457031-.871094zm164.164063-129.96875c-.6875 1.042969-1.378907 2.078125-2.078126 3.113281.699219-1.035156 1.390626-2.074219 2.078126-3.113281zm-2.628907 3.917969c-1.519531 2.234375-3.066406 4.457031-4.648437 6.664062 1.582031-2.207031 3.128906-4.429687 4.648437-6.664062zm-4.65625 6.675781c-10.527343 14.695312-22.40625 28.785156-35.675781 42.054688-2.128906 2.128906-4.28125 4.21875-6.453125 6.273437-.335937-.539063-.789063-1.007813-1.375-1.34375-3.839844-2.191406-7.765625-5.175781-11.441406-8.855469-3.675781-3.675781-6.664063-7.601562-8.855469-11.441406-.992188-1.734375-3.125-2.441406-4.976562-1.691406-1.433594.578125-2.734376 1.417968-3.847657 2.527344-5.855469 5.859374-4.273437 16.9375 3.535157 24.75 4.402343 4.398437 9.835937 6.820312 14.792968 7.050781 3.292969-2.832031 6.53125-5.757813 9.742188-8.742188-20.703125 19.257813-43.171875 35.351563-66.746094 48.25-.75-.679687-1.5-1.378906-2.234375-2.113281-3.679687-3.675781-6.664063-7.605469-8.855469-11.441406-.992187-1.734375-3.125-2.441406-4.976562-1.691406-1.429688.578124-2.734375 1.414062-3.847656 2.527343-5.234376 5.238281-4.507813 14.644531 1.285156 22.164063-7.300782 3.402344-14.683594 6.507812-22.132813 9.320312.480469-.179687.960938-.351562 1.441407-.535156-.019532-1.375-.726563-2.691406-1.980469-3.40625-3.839844-2.191406-7.765625-5.179688-11.441407-8.855469-3.679687-3.679687-6.667968-7.605469-8.855468-11.441406-.992188-1.734375-3.125-2.441406-4.976563-1.695313-1.433593.582032-2.734375 1.417969-3.847656 2.53125-5.855469 5.855469-4.273437 16.9375 3.535156 24.746094 2.222657 2.222656 4.710938 3.921875 7.269531 5.105469-7.832031 2.40625-15.714843 4.507813-23.628906 6.277344-.339844-.617188-.84375-1.144531-1.492187-1.515625-3.839844-2.191406-7.765625-5.179688-11.441407-8.855469-3.675781-3.679687-6.664062-7.605469-8.855468-11.441406-.992188-1.734375-3.125-2.441407-4.976563-1.695313-1.429687.578125-2.734375 1.417969-3.847656 2.53125-5.855469 5.855469-4.273437 16.9375 3.539063 24.746094.308593.3125.632812.597656.953124.886719-14.191406 1.90625-28.410156 2.820312-42.539062 2.6875-3.445312-.03125-5.996094-3.226563-5.273438-6.59375 2.496094-11.597657 5.613282-23.222657 9.328126-34.824219.664062.855469 1.378906 1.695312 2.175781 2.488281 7.808593 7.8125 18.890625 9.394531 24.746093 3.539063 1.113282-1.113282 1.953126-2.417969 2.53125-3.847656.746094-1.855469.039063-3.984376-1.695312-4.976563-3.835938-2.191406-7.761719-5.179687-11.441406-8.855469-3.433594-3.433594-6.253906-7.082031-8.398438-10.675781 2.722656-7.007813 5.671875-13.992187 8.835938-20.941406 6.644531 3.378906 13.890625 3.144531 18.25-1.210938 1.113281-1.113281 1.949218-2.417969 2.527344-3.847656.75-1.851563.042968-3.984375-1.691407-4.976563-3.484375-1.988281-7.035156-4.636718-10.410156-7.855468 4.050781-7.871094 8.386719-15.679688 13.007813-23.414063 4.507812.660157 8.773437-.398437 11.71875-3.34375 1.113281-1.113281 1.949218-2.414062 2.527343-3.847656.75-1.851563.042969-3.984375-1.691406-4.976563-1.179687-.671874-2.367187-1.429687-3.554687-2.25 4.589843-7.039062 9.429687-13.996093 14.5-20.867187.609374 4.519531 2.957031 9.304687 6.90625 13.253906 7.8125 7.808594 18.890624 9.390625 24.75 3.535157 1.113281-1.113282 1.949218-2.414063 2.527343-3.847657.75-1.851562.042969-3.984375-1.691406-4.976562-3.839844-2.191407-7.765625-5.175781-11.445313-8.855469-3.675781-3.675781-6.664062-7.601562-8.855468-11.441406-.378906-.664063-.925782-1.175782-1.5625-1.511719 4.09375-5.121094 8.308594-10.1875 12.675781-15.1875 7.703125 6.792969 17.949219 7.9375 23.503906 2.382813 1.109375-1.113282 1.949219-2.414063 2.527344-3.847657.746094-1.851562.039063-3.984375-1.695313-4.976562-3.640624-2.078125-7.363281-4.882813-10.875-8.308594 2.625-2.753906 5.273438-5.496094 7.984376-8.207031 4.785156-4.785156 9.640624-9.433594 14.566406-13.945313-2.300782 6.078125-.046875 14.371094 6.175781 20.597657 7.8125 7.808593 18.894531 9.390624 24.75 3.535156 1.113281-1.113282 1.949219-2.417969 2.527344-3.847656.75-1.851563.042969-3.984376-1.691407-4.976563-3.839843-2.1875-7.765624-5.175781-11.441406-8.855469-3.679687-3.675781-6.664062-7.601562-8.855468-11.4375-.765626-1.339844-2.210938-2.058594-3.683594-1.976562 5.335937-4.671875 10.746094-9.195313 16.21875-13.558594 7.503906 5.734375 16.859375 6.433594 22.078125 1.214844 1.113281-1.113282 1.949219-2.414063 2.527343-3.847656.75-1.851563.042969-3.984376-1.691406-4.972657-2.253906-1.289062-4.535156-2.855469-6.78125-4.667969 6.328125-4.59375 12.730469-8.980468 19.195313-13.171874 1.1875 2.804687 3.011719 5.546874 5.4375 7.972656 7.8125 7.8125 18.894531 9.394531 24.75 3.535156 1.113281-1.109375 1.949219-2.414062 2.527343-3.847656.75-1.851563.042969-3.984375-1.691406-4.972656-3.839844-2.191407-7.765625-5.179688-11.441406-8.855469-1.238281-1.238281-2.386719-2.5-3.460938-3.78125 26.828126-15.757813 54.550782-28.125 82.425782-36.996094 6.425781-2.042969 12.863281 3.226563 12.113281 9.929687-1.433594 12.855469-3.582031 25.714844-6.445313 38.507813-1.242187 5.554687 6.449219 8.320313 9.042969 3.253906 9.9375-19.40625 18.023438-39.445312 24.214844-59.824219.660156 1.96875 1.03125 4.078126 1.042969 6.273438.308594 57.761719-16.453125 116.964844-49.90625 169.476562.011718-.019531.023437-.039062.035156-.058593-2.183594-1.625-4.347656-3.476563-6.433594-5.5625-3.675781-3.679688-6.664062-7.605469-8.855468-11.441407-.988282-1.734374-3.125-2.441406-4.976563-1.695312-1.429687.578125-2.734375 1.417969-3.84375 2.53125-5.859375 5.855469-4.277344 16.9375 3.535156 24.746094 3.152344 3.152344 6.839844 5.269531 10.5 6.316406zm-2.417969-56.824219c7.808594 7.8125 18.890626 9.394531 24.75 3.535157 1.109376-1.109376 1.949219-2.414063 2.527344-3.847657.746094-1.851562.039063-3.984375-1.695312-4.972656-3.835938-2.191406-7.761719-5.179687-11.441406-8.855469-3.675782-3.675781-6.664063-7.605468-8.855469-11.441406-.988281-1.734375-3.121094-2.441406-4.972657-1.691406-1.433593.578125-2.738281 1.414062-3.847656 2.527344-5.859375 5.855468-4.273437 16.9375 3.535156 24.746093zm-35.355468-35.355469c7.808594 7.8125 18.890625 9.394532 24.75 3.535157 1.113281-1.109375 1.949218-2.414063 2.527344-3.847657.75-1.851562.042968-3.984374-1.691407-4.972656-3.839843-2.191406-7.765625-5.179687-11.445312-8.855468-3.675781-3.675782-6.664063-7.605469-8.855469-11.441407-.988281-1.734375-3.121094-2.441406-4.972656-1.691406-1.433594.578125-2.734375 1.414063-3.847656 2.527344-5.859376 5.855469-4.273438 16.9375 3.535156 24.746093zm-150.183594 170.480469c-3.835938-2.191406-7.761719-5.179687-11.441406-8.855469-3.675782-3.675781-6.664063-7.605468-8.855469-11.441406-.988281-1.734375-3.125-2.441406-4.976563-1.691406-1.429687.578125-2.734374 1.414062-3.84375 2.527344-5.859374 5.855468-4.277343 16.9375 3.535157 24.75 7.808593 7.808594 18.890625 9.394531 24.746093 3.535156 1.113282-1.113281 1.953126-2.414062 2.53125-3.847656.746094-1.855469.039063-3.988282-1.695312-4.976563zm15.152344-43.4375c-3.835938-2.191406-7.761719-5.175781-11.441406-8.855469-3.675782-3.675781-6.664063-7.601562-8.855469-11.441406-.988281-1.734375-3.121094-2.441406-4.972657-1.691406-1.433593.578125-2.734374 1.414062-3.847656 2.527344-5.859375 5.855468-4.273437 16.9375 3.535156 24.75 7.8125 7.808594 18.890626 9.390625 24.75 3.535156 1.113282-1.113281 1.949219-2.414062 2.527344-3.847656.746094-1.851563.039063-3.984375-1.695312-4.976563zm35.355468 35.355469c-3.835937-2.191406-7.761718-5.179688-11.441406-8.855469-3.675781-3.675781-6.664062-7.605469-8.855468-11.441406-.988282-1.734375-3.121094-2.441406-4.972657-1.691406-1.433593.578125-2.734375 1.414062-3.847656 2.527343-5.859375 5.855469-4.273437 16.9375 3.535156 24.746094 7.8125 7.8125 18.890625 9.394532 24.75 3.539063 1.113281-1.113281 1.949219-2.417969 2.527344-3.847657.746094-1.851562.039063-3.984374-1.695313-4.976562zm8.082032-50.507812c-3.835938-2.1875-7.765625-5.175782-11.441406-8.855469-3.675782-3.675781-6.664063-7.601563-8.855469-11.441407-.992188-1.730468-3.125-2.4375-4.976563-1.691406-1.429687.578125-2.734375 1.417969-3.847656 2.527344-5.855469 5.859375-4.273438 16.9375 3.539062 24.75 7.808594 7.8125 18.890626 9.394531 24.746094 3.535156 1.113282-1.113281 1.949219-2.414062 2.527344-3.847656.75-1.851562.042969-3.984375-1.691406-4.976562zm14.316406-34.613282c1.113281-1.113281 1.949219-2.414062 2.527344-3.847656.75-1.851562.042968-3.984375-1.691406-4.976562-3.839844-2.1875-7.765626-5.175782-11.441407-8.855469-3.679687-3.675781-6.664062-7.601563-8.855469-11.4375-.992187-1.734375-3.125-2.441407-4.976562-1.695313-1.433594.578125-2.734375 1.417969-3.847656 2.527344-5.855469 5.859375-4.273438 16.9375 3.535156 24.75 7.8125 7.808594 18.894531 9.394531 24.75 3.535156zm21.039062 69.96875c-3.839843-2.1875-7.765624-5.175781-11.441406-8.855468-3.679687-3.675782-6.664062-7.601563-8.855468-11.4375-.992188-1.734376-3.125-2.441407-4.976563-1.695313-1.433594.578125-2.734375 1.417969-3.847656 2.527344-5.855469 5.859375-4.273438 16.9375 3.535156 24.75 7.8125 7.8125 18.894531 9.394531 24.75 3.535156 1.113281-1.109375 1.949219-2.414063 2.527344-3.847656.75-1.851563.042969-3.984375-1.691407-4.976563zm15.152344-43.4375c-3.835937-2.1875-7.761718-5.175781-11.441406-8.851562-3.675781-3.679688-6.664062-7.605469-8.855469-11.445313-.992187-1.730469-3.125-2.4375-4.976562-1.691406-1.429688.578125-2.734375 1.417969-3.847657 2.527344-5.855468 5.859375-4.273437 16.9375 3.539063 24.75 7.808594 7.8125 18.890625 9.394531 24.746094 3.535156 1.113281-1.113281 1.953125-2.414063 2.527343-3.847656.75-1.851563.042969-3.984375-1.691406-4.976563zm8.082032-50.507812c-3.839844-2.1875-7.765626-5.175782-11.441407-8.851563-3.679687-3.679687-6.667969-7.605469-8.855469-11.441406-.992187-1.734375-3.125-2.441406-4.976562-1.695313-1.433594.578126-2.734375 1.417969-3.847656 2.527344-5.859375 5.859375-4.273438 16.941406 3.535156 24.75 7.8125 7.8125 18.890625 9.394532 24.75 3.535156 1.113281-1.109374 1.949219-2.414062 2.527344-3.847656.75-1.851562.042968-3.984375-1.691406-4.976562zm14.316406-34.613282c1.113281-1.109374 1.949218-2.414062 2.527344-3.847656.75-1.851562.042968-3.984375-1.691407-4.972656-3.839843-2.191406-7.765625-5.179688-11.441406-8.855469-3.679687-3.675781-6.667969-7.605469-8.859375-11.441406-.988281-1.734375-3.121094-2.441406-4.972656-1.691406-1.433594.578125-2.734375 1.414062-3.847656 2.527343-5.859376 5.855469-4.273438 16.9375 3.535156 24.75 7.8125 7.808594 18.890625 9.390626 24.75 3.53125zm21.039062 69.972657c-3.839844-2.191407-7.765625-5.179688-11.441406-8.855469-3.679688-3.679688-6.667969-7.605469-8.859375-11.441406-.988281-1.734375-3.121094-2.441406-4.972656-1.695313-1.433594.578125-2.734375 1.417969-3.847657 2.527344-5.859374 5.859375-4.273437 16.9375 3.535157 24.75 7.8125 7.8125 18.890625 9.394531 24.75 3.535156 1.113281-1.109375 1.949219-2.414062 2.527343-3.847656.75-1.851563.042969-3.984375-1.691406-4.972656zm15.152344-43.4375c-3.839844-2.191407-7.765625-5.179688-11.445312-8.855469-3.675782-3.679688-6.664063-7.605469-8.855469-11.441406-.988281-1.734375-3.121094-2.441406-4.972657-1.691406-1.433593.574218-2.734374 1.414062-3.847656 2.527343-5.859375 5.855469-4.277344 16.9375 3.535156 24.746094 7.808594 7.8125 18.890626 9.394531 24.75 3.539063 1.113282-1.113282 1.949219-2.417969 2.527344-3.847657.75-1.855469.042969-3.988281-1.691406-4.976562zm0 0" fill="#f9a29b"/><path d="m145.425781 168.851562 49.5-49.496093c23.429688-23.433594 61.417969-23.433594 84.851563 0l-49.5 49.496093c-23.429688 23.433594-61.417969 23.433594-84.851563 0zm0 0" fill="#f45751"/><path d="m396.191406 92.5625c0 5.523438-4.476562 10-10 10-5.523437 0-10-4.476562-10-10s4.476563-10 10-10c5.523438 0 10 4.476562 10 10zm0 0" fill="#c0293e"/></svg>