<svg height="512pt" viewBox="0 0 512 512" width="512pt" xmlns="http://www.w3.org/2000/svg"><path d="m0 256c0-141.203125 114.316406-255.703125 255.449219-256 142.058593-.296875 256.53125 113.90625 256.550781 255.964844.015625 102.328125-60.015625 190.636718-146.78125 231.625-2.148438 1.019531-4.636719 1.003906-6.816406.050781-31.359375-13.699219-65.992188-21.308594-102.402344-21.308594-36.285156 0-70.808594 7.554688-102.082031 21.171875-2.464844 1.070313-5.269531.976563-7.695313-.175781-86.453125-41.097656-146.222656-129.230469-146.222656-231.328125zm0 0" fill="#b7e3ef"/><path d="m376.429688 283.070312 88.128906-88.132812c3.90625-3.902344 3.90625-10.234375 0-14.140625l-14.140625-14.144531c-7.8125-7.8125-20.476563-7.8125-28.285157 0l-24.441406 24.441406 32.050782-138.628906c1.242187-5.382813-2.109376-10.75-7.488282-11.996094l-19.488281-4.503906c-10.761719-2.488282-21.503906 4.21875-23.992187 14.980468l-14.613282 63.210938c-9.125-2.277344-18.875 2.148438-22.972656 11l-21.1875 45.75v-120.90625c0-5.523438-4.476562-10-10-10h-20c-11.046875 0-20 8.953125-20 20v106.378906l-23.777344-85.382812c-.898437-3.234375-3.292968-5.640625-6.222656-6.707032v-34.289062c0-5.523438-4.476562-10-10-10h-20c-11.046875 0-20 8.953125-20 20v140.992188l-17.527344-11.296876-25.429687-111.910156c-1.222657-5.386718-6.582031-8.757812-11.96875-7.535156l-19.5 4.433594c-10.773438 2.445312-17.519531 13.160156-15.070313 23.933594l11.894532 52.355468-14.546876-9.378906c-4.640624-2.988281-10.832031-1.652344-13.824218 2.988281l-10.835938 16.8125c-5.984375 9.28125-3.308594 21.660157 5.976563 27.644531l3.9375 2.539063c-2.640625.46875-5.089844 1.984375-6.65625 4.417969l-10.835938 16.808594c-5.984375 9.285156-3.308593 21.664062 5.976563 27.648437l71.636718 46.171875 25.96875 114.285156c1.226563 5.386719 6.582032 8.757813 11.96875 7.535156l18.921876-4.300781c.261718 2.140625 1.203124 4.210938 2.84375 5.855469l7.574218 7.570312c-1.554687 4.75.652344 10.019532 5.300782 12.167969l18.148437 8.40625c10.023437 4.640625 21.910156.277344 26.550781-9.746093l16.730469-36.136719.769531-.769531 5.902344 21.1875c1.480469 5.320312 6.996094 8.433593 12.316406 6.949218l19.265625-5.363281c5.144531-1.433594 9.242188-4.761719 11.78125-9.007813l4.882813 3.144532c4.640625 2.992187 10.828125 1.652344 13.820312-2.988282l10.835938-16.808593c3.867187-5.996094 4.101562-13.273438 1.296875-19.292969.785156-1.492188 1.414062-3.09375 1.808593-4.8125zm0 0" fill="#f1bd1f"/><path d="m86.65625 131.84375c3.234375-2.289062 7.660156-2.523438 11.195312-.25l14.546876 9.378906 5.023437 22.105469c.59375 2.621094-2.292969 4.640625-4.550781 3.183594l-17.992188-11.597657c-7.746094-4.992187-10.871094-14.433593-8.222656-22.820312zm233.34375-81.84375c0-4.203125-2.597656-7.796875-6.273438-9.273438-8.484374 2.316407-14.726562 10.054688-14.726562 19.273438v142.640625c0 3.214844 4.371094 4.179687 5.722656 1.261719l15.277344-32.996094zm-232.699219 156.078125 40.558594 26.140625c2.257813 1.457031 5.144531-.5625 4.550781-3.183594l-5.023437-22.105468-37.113281-23.921876c-3.535157-2.277343-7.960938-2.042968-11.195313.246094-2.648437 8.386719.472656 17.828125 8.222656 22.824219zm377.257813-11.140625-95.0625 95.0625h-72.683594l1.84375-3.984375-119.53125-77.046875 18.414062 81.03125h-21.535156l-47.222656-207.808594c-2.042969-8.988281 2.332031-17.921875 10.089844-22.0625 3.910156.628906 7.242187 3.558594 8.171875 7.65625l25.429687 111.910156 46.527344 29.992188v-159.6875c0-9.21875 6.242188-16.957031 14.726562-19.273438 3.675782 1.476563 6.273438 5.070313 6.273438 9.273438v34.3125c2.925781 1.066406 5.324219 3.453125 6.222656 6.683594l42.75 153.511718c.382813 1.375.261719 2.839844-.335937 4.132813l-5.679688 12.273437 24.609375 15.863282 59.933594-129.433594c3.871094-8.363281 12.792969-12.765625 21.464844-11.304688.671875.71875 1.226562 1.523438 1.660156 2.390626l16.402344-70.949219c2.078125-8.980469 9.90625-15.117188 18.691406-15.460938 3.25 2.265625 4.96875 6.351563 4.023438 10.445313l-32.050782 138.628906-20.632812 20.632812c-2.128906 2.132813-5.722656.140626-5.042969-2.796874l14.480469-62.628907-61.105469 131.960938 15.898437 10.25 101.347657-101.351563c6.519531-6.519531 16.40625-7.574218 24.042969-3.214844 1.554687 3.644532.851562 8.019532-2.121094 10.992188zm-195.269532 47.164062-29.289062-105.171874v86.292968zm0 0" fill="#f5cf51"/><path d="m365.925781 487.25c-33.308593 15.863281-70.578125 24.75-109.925781 24.75s-76.617188-8.886719-109.925781-24.75l-82.667969-229.84375c-1.171875-3.257812 1.242188-6.691406 4.707031-6.691406h122.027344c12.050781 0 23.410156 5.480468 31.050781 14.800781 8.253906 10.0625 20.78125 16.484375 34.808594 16.484375s26.554688-6.421875 34.804688-16.484375c7.644531-9.320313 19-14.800781 31.054687-14.800781h122.027344c3.464843 0 5.878906 3.433594 4.707031 6.691406zm0 0" fill="#d73247"/><path d="m290.804688 265.515625c7.644531-9.320313 19-14.800781 31.054687-14.800781h122.027344c3.464843 0 5.878906 3.433594 4.707031 6.691406l-78.734375 218.90625c-14.46875 3.71875-29.472656 5.6875-44.859375 5.6875-110.714844 0-201.867188-101.207031-213.6875-231.285156h78.828125c12.054687 0 23.410156 5.480468 31.054687 14.800781 8.25 10.0625 20.777344 16.484375 34.804688 16.484375s26.554688-6.421875 34.804688-16.484375zm0 0" fill="#ec3c52"/></svg>