<svg height="512pt" viewBox="0 0 512.00113 512" width="512pt" xmlns="http://www.w3.org/2000/svg"><path d="m437.019531 437.019531c-99.972656 99.976563-262.0625 99.976563-362.039062 0-99.972657-99.972656-99.972657-262.0625 0-362.039062 99.972656-99.972657 262.0625-99.972657 362.039062 0 99.976563 99.976562 99.976563 262.066406 0 362.039062zm0 0" fill="#cc4978"/><path d="m469.632812 328.816406c-19.75 73.71875-87.292968 119.667969-150.855468 102.636719-10.945313-2.933594-21.050782-7.550781-30.191406-13.546875-14.878907 11.511719-30.300782 16.40625-44.453126 12.613281-14.152343-3.792969-25.058593-15.742187-32.1875-33.152343-10.917968.625-21.976562-.429688-32.921874-3.359376-63.566407-17.035156-99.082032-90.597656-79.328126-164.3125 19.75-73.71875 87.292969-119.667968 150.855469-102.636718.066407.015625.132813.035156.199219.050781 10.964844 2.960937 22.390625-2.78125 26.300781-13.445313l27.761719-75.769531c.988281-2.699219 3.875-4.199219 6.65625-3.457031 1.421875.382812 2.636719 1.3125 3.371094 2.589844l7.074218 12.253906c1.535157 2.65625 4.933594 3.566406 7.589844 2.035156l10.742188-6.203125c2.246094-1.292969 4.914062-1.648437 7.417968-.976562 2.503907.671875 4.640626 2.3125 5.9375 4.558593l6.199219 10.738282c1.535157 2.65625 4.933594 3.566406 7.589844 2.035156l12.253906-7.078125c1.277344-.734375 2.792969-.933594 4.214844-.554687 2.78125.746093 4.53125 3.488281 4.039063 6.320312l-13.84375 79.5c-1.949219 11.191406 5.078124 21.878906 16.050781 24.792969.066406.019531.132812.039062.199219.054687 63.566406 17.03125 99.082031 90.597656 79.328124 164.3125zm0 0" fill="#f7b95f"/><path d="m469.632812 328.816406c-19.75 73.71875-83.246093 104.574219-146.8125 87.542969-.078124-.019531-.15625-.042969-.238281-.0625-10.953125-2.964844-15.316406-16.082031-8.617187-25.246094 15.476562-21.175781 28.867187-49.367187 37.492187-81.5625 13.140625-49.035156 12.070313-95.554687-.351562-125.617187-3.210938-7.765625-14.714844-5.671875-15.09375 2.722656-1.195313 26.324219-6.738281 60.34375-16.484375 96.714844-20.679688 77.1875-52.460938 135.734375-70.988282 130.769531-18.523437-4.960937-16.773437-71.558594 3.90625-148.742187 9.746094-36.375 21.960938-68.605469 34.085938-92 3.867188-7.460938-5.046875-15.023438-11.710938-9.90625-25.789062 19.824218-49.976562 59.574218-63.117187 108.613281-7.226563 26.980469-10.152344 53.199219-9.253906 76.332031.519531 13.4375-14.707031 21.527344-25.632813 13.691406-26.046875-18.664062-53.691406-50.539062-52.476562-96.097656 2.175781-81.523438 79.273437-136.382812 154.117187-122.832031.078125.015625.160157.03125.238281.042969 12.914063 2.363281 25.394532-4.609376 28.703126-16.296876l21.136718-75.125c.332032-.113281.65625-.257812.972656-.441406l10.738282-6.199218c3.257812-1.878907 7.398437-1.773438 10.644531.550781 1.164063.835937 2.097656 1.957031 2.8125 3.199219l6.101563 10.566406c1.535156 2.65625 4.933593 3.570312 7.589843 2.035156l12.253907-7.074219c1.769531-1.023437 4.003906-1.011719 5.808593.152344 1.914063 1.230469 2.800781 3.574219 2.410157 5.8125l-13.761719 79.027344c-1.957031 11.238281 4.988281 22.113281 16.003906 25.066406l.199219.050781c63.5625 17.03125 99.078125 90.597656 79.324218 164.3125zm0 0" fill="#f9c77e"/><path d="m229.15625 327.171875c10.085938-3.222656 20.789062 3.511719 20.84375 13.515625v.558594c0 61.417968-54.226562 110.949218-120.183594 108.679687-55.050781-1.890625-101.625-40.886719-110.101562-91.992187-.972656-5.859375-1.414063-11.636719-1.378906-17.304688.0625-9.980468 10.773437-16.675781 20.835937-13.460937 28.046875 8.957031 60.453125 14.078125 94.996094 14.078125 34.539062 0 66.941406-5.121094 94.988281-14.074219zm0 0" fill="#fbf1d1"/><path d="m231.769531 399.824219c-20.253906 13.949219-45.515625 21.875-72.785156 20.933593-54.558594-1.875-100.765625-40.195312-109.84375-90.625 25.652344 7.109376 54.503906 11.113282 85.027344 11.113282 34.539062 0 66.941406-5.121094 94.988281-14.074219 10.085938-3.222656 20.789062 3.511719 20.84375 13.515625v.558594c0 21.570312-6.695312 41.667968-18.230469 58.578125zm0 0" fill="#fff5f5"/></svg>