<svg height="512pt" viewBox="0 0 512 512" width="512pt" xmlns="http://www.w3.org/2000/svg"><path d="m512 256c0 141.386719-114.613281 256-256 256s-256-114.613281-256-256 114.613281-256 256-256 256 114.613281 256 256zm0 0" fill="#4da0b8"/><path d="m510.871094 280c-12.101563 130.128906-121.582032 232-254.871094 232s-242.769531-101.871094-254.871094-232zm0 0" fill="#6dcce4"/><path d="m432.730469 53.808594v34.628906c0 2.292969-.101563 4.582031-.308594 6.863281l-20.625 227.886719c-.710937 7.84375-7.289063 13.855469-15.164063 13.855469h-110.53125c-7.878906 0-14.457031-6.011719-15.167968-13.855469l-20.625-227.886719c-.207032-2.28125-.308594-4.570312-.308594-6.863281v-34.628906c0-2.105469 1.703125-3.808594 3.808594-3.808594h175.117187c2.101563 0 3.804688 1.703125 3.804688 3.808594zm0 0" fill="#dcdce1"/><path d="m432.730469 53.808594v34.628906c0 2.292969-.101563 4.582031-.308594 6.863281l-20.625 227.886719c-.710937 7.84375-7.289063 13.855469-15.164063 13.855469h-84.390624c-7.878907 0-14.457032-6.011719-15.167969-13.855469l-18.742188-207.097656c-.808593-8.914063 6.214844-16.601563 15.164063-16.601563h111.824218c4.375 0 7.886719-3.683593 7.597657-8.121093-.261719-4.046876-3.800781-7.105469-7.855469-7.105469h-113.695312c-8.410157 0-15.226563-6.816407-15.226563-15.226563v-15.226562c0-2.105469 1.703125-3.808594 3.804687-3.808594h148.980469c2.101563 0 3.804688 1.703125 3.804688 3.808594zm0 0" fill="#f0eff4"/><path d="m396.246094 122.332031h3.710937c2.238281 0 3.992188 1.921875 3.789063 4.148438l-15.597656 172.339843c-.707032 7.847657-7.285157 13.855469-15.164063 13.855469h-62.949219c-7.878906 0-14.457031-6.007812-15.167968-13.855469l-13.527344-149.496093c-.203125-2.230469 1.554687-4.152344 3.792968-4.152344 19.015626 0 37.835938-3.863281 55.316407-11.355469l.15625-.0625c17.582031-7.535156 36.511719-11.421875 55.640625-11.421875zm0 0" fill="#db5886"/><path d="m403.746094 126.480469-15.597656 172.339843c-.066407.757813-.207032 1.492188-.378907 2.210938-1.394531.132812-2.796875.222656-4.203125.222656-43.539062 0-80.746094-64.738281-95.6875-156.117187 18.082032-.355469 35.933594-4.1875 52.570313-11.320313l.15625-.066406c17.582031-7.535156 36.511719-11.421875 55.640625-11.421875h3.710937c2.238281.003906 3.992188 1.925781 3.789063 4.152344zm0 0" fill="#e27196"/><path d="m201.925781 196c0 12.308594-9.980469 22.285156-22.285156 22.285156-12.308594 0-22.289063-9.976562-22.289063-22.285156s9.980469-22.285156 22.289063-22.285156c12.304687 0 22.285156 9.976562 22.285156 22.285156zm0 0" fill="#f45751"/><path d="m325.722656 231.542969c0 24.640625-19.976562 44.617187-44.617187 44.617187-13.105469 0-24.890625-5.648437-33.054688-14.644531-8.160156 8.996094-19.945312 14.644531-33.050781 14.644531s-24.890625-5.648437-33.050781-14.644531c-8.164063 8.996094-19.949219 14.644531-33.054688 14.644531-24.640625 0-44.617187-19.976562-44.617187-44.617187 0-24.644531 19.976562-44.621094 44.617187-44.621094 13.105469 0 24.890625 5.648437 33.054688 14.644531 8.160156-8.996094 19.945312-14.644531 33.050781-14.644531s24.890625 5.648437 33.050781 14.644531c8.164063-8.996094 19.949219-14.644531 33.054688-14.644531 24.640625 0 44.617187 19.976563 44.617187 44.621094zm0 0" fill="#b0da3c"/><path d="m160.261719 274.691406c-3.628907.953125-7.4375 1.46875-11.367188 1.46875-24.640625 0-44.617187-19.976562-44.617187-44.617187 0-24.644531 19.976562-44.621094 44.617187-44.621094 3.929688 0 7.738281.515625 11.367188 1.472656-19.128907 5.03125-33.238281 22.441407-33.238281 43.148438.003906 20.707031 14.109374 38.113281 33.238281 43.148437zm0 0" fill="#8cd246"/><path d="m157.355469 240.570312c0 12.308594-9.980469 22.285157-22.289063 22.285157-12.304687 0-22.285156-9.976563-22.285156-22.285157 0-12.308593 9.980469-22.285156 22.285156-22.285156 12.308594 0 22.289063 9.976563 22.289063 22.285156zm122.570312-33.425781c-12.308593 0-22.285156 9.976563-22.285156 22.285157 0 12.308593 9.976563 22.285156 22.285156 22.285156 12.308594 0 22.285157-9.976563 22.285157-22.285156 0-12.308594-9.976563-22.285157-22.285157-22.285157zm0 0" fill="#f45751"/><path d="m387.714844 279.570312c0 29.605469-24 53.601563-53.601563 53.601563-15.742187 0-29.898437-6.785156-39.703125-17.59375-9.808594 10.808594-23.964844 17.59375-39.707031 17.59375-15.738281 0-29.894531-6.785156-39.703125-17.59375-9.804688 10.808594-23.960938 17.59375-39.703125 17.59375s-29.898437-6.785156-39.703125-17.59375c-9.808594 10.808594-23.960938 17.59375-39.703125 17.59375-29.605469 0-53.601563-23.996094-53.601563-53.601563 0-29.601562 23.996094-53.601562 53.601563-53.601562 15.742187 0 29.894531 6.789062 39.703125 17.59375 9.804688-10.804688 23.960938-17.59375 39.703125-17.59375s29.898437 6.789062 39.703125 17.59375c9.808594-10.804688 23.964844-17.59375 39.703125-17.59375 15.742187 0 29.898437 6.789062 39.707031 17.59375 9.804688-10.804688 23.960938-17.59375 39.703125-17.59375 29.601563 0 53.601563 24 53.601563 53.601562zm0 0" fill="#b0da3c"/><path d="m111.371094 330.882812c-4.90625 1.476563-10.097656 2.289063-15.484375 2.289063-29.601563 0-53.601563-23.996094-53.601563-53.601563 0-29.601562 24-53.597656 53.601563-53.597656 5.386719 0 10.578125.808594 15.484375 2.289063-22.035156 6.652343-38.085938 27.105469-38.085938 51.308593 0 24.207032 16.050782 44.65625 38.085938 51.3125zm0 0" fill="#8cd246"/><path d="m213.066406 218.285156c0 6.15625-4.988281 11.144532-11.140625 11.144532-6.15625 0-11.144531-4.988282-11.144531-11.144532 0-6.152344 4.988281-11.140625 11.144531-11.140625 6.152344 0 11.140625 4.988281 11.140625 11.140625zm27.859375 27.859375c-6.15625 0-11.144531 4.988281-11.144531 11.140625 0 6.15625 4.988281 11.144532 11.144531 11.144532 6.152344 0 11.140625-4.988282 11.140625-11.144532 0-6.152344-4.988281-11.140625-11.140625-11.140625zm0 0" fill="#8cd246"/><path d="m410 272.855469v13.429687c0 5.523438-4.476562 10-10 10h-3.039062c-20.996094 57.183594-59.15625 102.710938-106.363282 126.566406-9.328125 4.714844-19.644531 7.148438-30.097656 7.148438h-90.996094c-10.457031 0-20.773437-2.433594-30.101562-7.148438-47.207032-23.855468-85.367188-69.382812-106.359375-126.566406h-3.042969c-5.523438 0-10-4.476562-10-10v-13.429687c0-5.519531 4.476562-10 10-10h370c5.523438 0 10 4.480469 10 10zm0 0" fill="#fae8b1"/><path d="m410 272.855469v13.429687c0 5.523438-4.476562 10-10 10h-3.039062c-21.042969 57.304688-59.316407 102.90625-106.664063 126.71875-9.238281 4.648438-19.460937 6.996094-29.796875 6.996094h-55.972656c-10.613282 0-21.066406-2.539062-30.527344-7.351562-33.699219-17.136719-62.761719-45.328126-84.230469-80.917969-8.070312-13.375 1.441407-30.4375 17.0625-30.4375h117.855469c4.105469 0 7.6875-3.164063 7.808594-7.269531.128906-4.246094-3.277344-7.730469-7.496094-7.730469h-156.957031c0-.003907 0-.003907-.003907-.007813h-3.039062c-5.523438 0-10-4.476562-10-10v-13.429687c0-5.519531 4.476562-10 10-10h335c5.523438 0 10 4.480469 10 10zm0 0" fill="#fff5f5"/><path d="m479 361c0 66.273438-53.726562 120-120 120s-120-53.726562-120-120 53.726562-120 120-120 120 53.726562 120 120zm0 0" fill="#ec3c52"/><path d="m449 361c0 49.707031-40.292969 90-90 90s-90-40.292969-90-90 40.292969-90 90-90 90 40.292969 90 90zm0 0" fill="#ab2a3e"/><path d="m373.109375 387.210938c-2.242187-.015626-4.109375 1.679687-4.109375 3.917968v17.195313c0 1.902343 2.519531 2.5625 3.449219.90625 1.695312-3.007813 3.691406-5.820313 5.957031-8.394531 9.078125-10.324219 22.382812-16.835938 37.210938-16.835938 3.910156 0 7.078124 3.167969 7.078124 7.078125 0 27.359375-22.179687 49.539063-49.542968 49.539063-.015625 0-.03125 0-.046875 0-2.238281-.015626-4.105469 1.679687-4.105469 3.917968v5.910156c-3.285156.363282-6.621094.554688-10 .554688-3.382812 0-6.71875-.191406-10-.554688v-5.910156c0-2.238281-1.867188-3.933594-4.109375-3.917968-.015625 0-.03125 0-.046875 0-27.359375 0-49.539062-22.179688-49.539062-49.539063 0-3.910156 3.167968-7.078125 7.078124-7.078125 10.523438 0 20.28125 3.28125 28.308594 8.878906 6.09375 4.253906 11.175782 9.84375 14.839844 16.34375.941406 1.667969 3.464844 1.027344 3.464844-.882812v-17.210938c0-2.238281-1.867188-3.933594-4.105469-3.917968-.015625 0-.03125 0-.046875 0-27.359375 0-49.539062-22.183594-49.539062-49.539063 0-3.910156 3.167968-7.078125 7.074218-7.078125 10.527344 0 20.285156 3.28125 28.308594 8.878906 5.421875 3.78125 10.046875 8.625 13.578125 14.222656 1.371094 2.171876 4.730469 1.1875 4.730469-1.378906v-.007812c0-.542969-.175782-1.066406-.492188-1.5-8.246094-11.328125-12.707031-24.921875-13.375-38.703125-.894531-18.46875 5.011719-37.269531 17.726563-51.375 3.390625-3.765625 8.890625-3.765625 12.285156 0 22.195313 24.628906 23.640625 63.558593 4.351563 90.058593-.316407.4375-.496094.964844-.496094 1.503907 0 2.59375 3.371094 3.535156 4.757812 1.347656 1.386719-2.195313 2.941406-4.273437 4.652344-6.214844 9.078125-10.320312 22.382812-16.832031 37.207031-16.832031 3.910157 0 7.078125 3.167969 7.078125 7.078125 0 27.359375-22.179687 49.539063-49.539062 49.539063-.011719 0-.03125 0-.042969 0zm0 0" fill="#fae8b1"/><path d="m349 450.445312v-5.910156c0-2.238281-1.867188-3.933594-4.109375-3.917968-.015625 0-.03125 0-.046875 0-27.359375 0-49.539062-22.179688-49.539062-49.539063 0-3.910156 3.167968-7.078125 7.078124-7.078125 10.523438 0 20.285157 3.28125 28.308594 8.878906 6.09375 4.253906 11.175782 9.84375 14.839844 16.34375.941406 1.667969 3.46875 1.027344 3.46875-.886718v-17.207032c0-2.238281-1.867188-3.933594-4.109375-3.917968-.015625 0-.03125 0-.046875 0-27.359375 0-49.539062-22.183594-49.539062-49.539063 0-3.910156 3.167968-7.078125 7.078124-7.078125 10.523438 0 20.28125 3.28125 28.308594 8.878906 5.421875 3.78125 10.042969 8.625 13.574219 14.226563 1.371094 2.171875 4.730469 1.1875 4.730469-1.382813v-.007812c0-.539063-.175782-1.0625-.492188-1.5-8.246094-11.328125-12.703125-24.921875-13.371094-38.703125-.898437-18.46875 5.011719-37.269531 17.722657-51.375 1.695312-1.882813 3.917969-2.824219 6.140625-2.824219v193.09375c-3.378906 0-6.710938-.191406-9.996094-.554688zm0 0" fill="#f8df92"/><path d="m291.824219 449.386719-21.210938-21.210938 155.5625-155.5625 21.210938 21.210938zm0 0" fill="#ec3c52"/><path d="m312.347656 471.59375c-43.101562-18.203125-73.347656-60.867188-73.347656-110.59375s30.246094-92.390625 73.347656-110.59375c-32.796875 23.5625-54.476562 64.289062-54.476562 110.59375s21.679687 87.03125 54.476562 110.59375zm0 0" fill="#d73247"/></svg>