<svg height="512pt" viewBox="0 0 512 512" width="512pt" xmlns="http://www.w3.org/2000/svg"><path d="m512 256c0 141.386719-114.613281 256-256 256-44.933594 0-87.152344-11.589844-123.855469-31.921875-13.105469-19.292969-32.480469-33.980469-55.199219-41.140625-47.472656-46.472656-76.945312-111.257812-76.945312-182.9375 0-141.386719 114.613281-256 256-256s256 114.613281 256 256zm0 0" fill="#f9c77e"/><path d="m457.433594 62.617188c-1.605469 1.996093-3.96875 3.378906-6.714844 3.675781-21.265625 2.300781-40.347656 12.734375-53.734375 29.371093-.035156.046876-.074219.09375-.113281.140626-5.90625 7.375-5.035156 18.109374 1.824218 24.605468 28.792969 27.265625 44.230469 54.929688 35.355469 65.941406-10.398437 12.902344-50.199219-1.921874-88.902343-33.109374-38.703126-31.191407-61.652344-66.929688-51.253907-79.832032 8-9.925781 33.410157-3.433594 62.332031 14.292969 8.292969 5.082031 18.980469 3.152344 25.0625-4.4375.039063-.046875.074219-.09375.113282-.140625 16.738281-20.800781 40.589844-33.839844 67.164062-36.71875 5.488282-.59375 10.421875 3.375 11.019532 8.863281.296874 2.75-.546876 5.355469-2.152344 7.347657zm0 0" fill="#00824d"/><path d="m424.058594 331.90625c-7.8125 1.1875-15.554688-.023438-22.765625-3.175781-1.058594 5.980469-2.828125 11.976562-5.371094 17.851562-15.824219 36.570313-55.222656 54.714844-87.996094 40.535157-4.378906-1.894532-8.410156-4.28125-12.085937-7.0625-.695313 2.824218-1.535156 5.644531-2.5625 8.453124-13.691406 37.417969-51.980469 57.804688-85.515625 45.53125-2.492188-.914062-4.878907-1.992187-7.175781-3.203124-1.6875 4.503906-3.816407 8.941406-6.40625 13.242187-13.867188 23.0625-37.273438 36.351563-60.4375 36.894531-21.800782-11.871094-41.679688-26.820312-59.0625-44.261718-5.285157-18.621094-2.761719-40.257813 8.675781-59.273438 5.269531-8.765625 11.921875-16.109375 19.414062-21.890625-3.570312-2.109375-6.949219-4.617187-10.082031-7.535156-26.140625-24.332031-25.320312-67.703125 1.828125-96.867188 7.300781-7.839843 15.765625-13.839843 24.742187-17.972656-1.441406-1.378906-2.828124-2.832031-4.144531-4.375-23.136719-27.207031-17.28125-70.1875 13.074219-96 15.648438-13.304687 34.746094-19.433594 52.753906-18.539063-1.765625-4.023437-2.886718-8.3125-3.25-12.804687-2.222656-27.507813 24.660156-52.128906 60.046875-54.988281 35.390625-2.859375 65.878907 17.121094 68.101563 44.628906.03125.382812.039062.761719.054687 1.144531 15.339844 4.535157 28.554688 14.316407 36.496094 28.660157 8.773437 15.84375 9.425781 34.1875 3.402344 50.941406 18.53125-4.28125 37.890625-.886719 52.953125 11.085937 6.828125 5.429688 12.132812 12.121094 15.902344 19.582031 23.625 2.566407 44.671874 26.011719 49.417968 57.222657 5.425782 35.671875-12.484375 67.988281-40.007812 72.175781zm0 0" fill="#b34068"/><path d="m200.574219 430.828125c-1.6875 4.507813-3.808594 8.949219-6.394531 13.25-.675782 1.121094-1.371094 2.222656-2.089844 3.300781-32.117188 48.054688-104.285156 2.976563-75.542969-47.167968.398437-.695313.804687-1.390626 1.21875-2.078126 9.949219-16.542968 23.246094-29.316406 37.585937-37.417968.042969-.015625.089844-.027344.132813-.042969 5.746094-1.800781 11.671875 2.449219 11.503906 8.46875-.734375 26.121094 11.890625 50.25 33.585938 61.6875zm53.453125-104.664063c-8.375.871094-16.761719.167969-24.699219-2.203124-8.148437 9.382812-15.007813 20.847656-19.785156 33.902343-.296875.8125-.585938 1.628907-.863281 2.441407-18.316407 53.746093 60.988281 84.253906 83.113281 31.964843.523437-1.234375 1.015625-2.488281 1.484375-3.765625 1.027344-2.804687 1.867187-5.625 2.5625-8.453125-12.726563-9.640625-21.074219-24.152343-24-40.410156-1.511719-8.421875-9.300782-14.363281-17.8125-13.476563zm-67.683594 15.984376c.960938-.933594 1.902344-1.898438 2.828125-2.890626 7.960937-8.550781 13.644531-18.320312 17.0625-28.472656-12.449219-11.53125-18.996094-27.675781-19.390625-44.695312-.226562-9.726563-8.464844-17.34375-18.152344-16.417969-.140625.015625-.28125.027344-.414062.039063-15.65625 4.972656-31.253906 14.707031-44.367188 28.792968-.589844.636719-1.171875 1.273438-1.746094 1.917969-37.746093 42.414063 23.484376 101.324219 64.179688 61.726563zm27.296875-204.640626c6.148437-15.351562 17.960937-29.171874 34.308594-38.226562 17.054687-9.441406 35.878906-11.933594 52.695312-8.371094-14.871093-10.019531-36.644531-15.433594-60.40625-13.511718-.769531.0625-1.535156.132812-2.296875.207031-38.0625 3.824219-45.019531 42.222656-24.300781 59.902343zm-4.824219 96.351563c1.0625-.816406 2.109375-1.664063 3.144532-2.542969 7.957031-6.765625 14.21875-14.714844 18.726562-23.246094-5.804688-4.683593-10.761719-10.464843-14.53125-17.269531-7.773438-14.042969-9.164062-30.050781-5.1875-45.171875.601562-2.285156-.527344-4.636718-2.683594-5.601562-.199218-.089844-.398437-.179688-.59375-.269532-.839844-.386718-1.769531-.539062-2.679687-.398437-17.175781 2.625-35.121094 10.6875-50.8125 24.03125-.660157.558594-1.308594 1.128906-1.953125 1.699219-42.425782 37.742187 11.546875 103.367187 56.570312 68.769531zm56.335938-98.164063c-49.046875 28.609376-9.113282 103.609376 41.859375 78.59375 1.203125-.589843 2.398437-1.214843 3.585937-1.871093 33.230469-18.402344 47.71875-56.503907 34.007813-87.085938-21.96875-8.101562-50.835938-5.519531-77.203125 9.082031-.757813.421876-1.507813.847657-2.25 1.28125zm96.933594 171.25c-14.859376 3.46875-30.261719 1.992188-43.5625-4.878906-1.585938 2.929688-3.074219 5.960938-4.433594 9.105469-.34375.792969-.675782 1.589844-1 2.386719-21.730469 53.46875 55.664062 88.445312 81.148437 36.664062.585938-1.191406 1.148438-2.40625 1.683594-3.640625 2.542969-5.878906 4.304687-11.871093 5.363281-17.855469-7.527344-3.292968-14.476562-8.703124-20.3125-15.730468-4.5625-5.5-11.925781-7.675782-18.886718-6.050782zm-86.824219-84.644531c-1.085938.035157-2.164063.046875-3.246094.035157-12.707031-.136719-24.84375 5.4375-33.15625 15.050781-1.3125 1.519531-2.59375 3.082031-3.847656 4.695312-.53125.6875-1.050781 1.375-1.566407 2.066407-34.402343 46.433593 31.914063 99.550781 69.511719 55.660156.851563-.992188 1.683594-2.015625 2.496094-3.0625.597656-.769532 1.167969-1.550782 1.734375-2.335938-16.65625-14.335937-23.523438-36.5-20.140625-58.585937 1.109375-7.234375-4.472656-13.769531-11.785156-13.523438zm189.277343 41.0625c-.128906-1.207031-.289062-2.417969-.472656-3.632812-4.796875-31.53125-26.226562-55.117188-50.148437-57.28125.238281.023437.480469.03125.722656.058593-3.050781-6.035156-7.097656-11.574218-12.152344-16.339843-23.394531.941406-49.0625 14.394531-67.816406 37.992187-.539063.675782-1.070313 1.359375-1.589844 2.042969-26.023437 34.289063 5.40625 73.582031 38.464844 72.007813-3.386719-7.035157-5.871094-14.886719-7.152344-23.316407-5.429687-35.671875 12.484375-67.984375 40.007813-72.171875 1.28125-.195312 2.558594-.304687 3.828125-.371094-11.570313 15.769532-16.988281 40.863282-12.886719 67.835938.121094.773438.246094 1.546875.375 2.316406 8.710938 50.671875 74.382812 41.960938 68.820312-9.140625zm0 0" fill="#cc4978"/><path d="m480.738281 207.050781c-18.851562 5.226563-38.183593 4.703125-55.039062-1.730469-5.535157 27.742188-22.828125 51.105469-46.351563 64.851563-26.230468-17.277344-43.507812-46.878906-43.800781-80.328125-22.433594 7.828125-47.898437 4.289062-70.066406-8.617188-2.109375-31.195312 10.421875-60.617187 35.773437-76.355468 24.601563-15.269532 82.183594-.132813 82.273438-.394532 30.128906-8.355468 61.476562-2.019531 82 19.636719 20.527344 21.660157 25.171875 53.300781 15.210937 82.9375zm0 0" fill="#23c77d"/><path d="m443.285156 163.515625c-15.394531-7.289063-30.15625-17.765625-43.113281-31.292969-3.34375-3.492187-6.46875-7.089844-9.386719-10.773437.675782 6.332031.96875 12.808593.824219 19.402343-.378906 17.753907-3.804687 34.515626-9.625 49.53125-5.730469-16.039062-8.761719-33.886718-8.355469-52.617187.140625-6.589844.703125-13.042969 1.648438-19.324219-4.164063 5.230469-8.746094 10.273438-13.75 15.066406-12.828125 12.285157-27.097656 21.714844-41.832032 28.214844 7.289063-15.394531 17.765626-30.152344 31.292969-43.113281 6.558594-6.28125 13.496094-11.800781 20.675781-16.578125 7.195313 1.359375 11.839844 2.519531 11.863282 2.445312 3.011718-.835937 6.035156-1.515624 9.0625-2.058593 7.894531 5.515625 15.453125 11.9375 22.476562 19.269531 12.289063 12.824219 21.71875 27.09375 28.21875 41.828125zm0 0" fill="#03ad6b"/></svg>