<svg height="512pt" viewBox="0 0 512 512.00011" width="512pt" xmlns="http://www.w3.org/2000/svg"><path d="m56.402344 416.292969c-36.359375-45.214844-57.683594-103.035157-56.3437502-165.878907 2.9609372-138.890624 117.2617182-250.542968 256.1835942-250.414062 141.273437.128906 255.757812 114.695312 255.757812 256 0 60.714844-21.148438 116.480469-56.464844 160.367188-2.390625 2.96875-6.214844 4.375-9.964844 3.6875-62.3125-11.410157-130.179687-17.679688-201.195312-17.679688-65.042969 0-127.441406 5.261719-185.355469 14.914062-.988281.164063-1.988281-.214843-2.617187-.996093zm0 0" fill="#23c77d"/><path d="m237 201.414062c21.964844-26.757812 29.609375-55.867187 16.726562-68.753906-10.40625-10.402344-31.398437-7.410156-53.1875 5.691406-1.683593-38.304687-17.753906-68.351562-37.34375-68.351562-19.589843 0-35.664062 30.046875-37.347656 68.355469-21.785156-13.105469-42.78125-16.097657-53.1875-5.691407-12.882812 12.882813-5.238281 41.992188 16.726563 68.75-6.828125.125-12.605469 2.148438-16.726563 6.265626-14.644531 14.644531-2.773437 50.261718 26.515625 79.550781 21.539063 21.539062 46.492188 33.640625 64.019531 32.722656 17.523438.917969 42.476563-11.183594 64.015626-32.722656 29.289062-29.289063 41.160156-64.90625 26.515624-79.550781-4.117187-4.121094-9.894531-6.140626-16.726562-6.265626zm-75.042969 43.554688c.414063-.007812.828125-.011719 1.238281-.035156.40625.019531.820313.027344 1.234376.035156-.410157.503906-.835938 1.003906-1.234376 1.503906-.402343-.5-.824218-1-1.238281-1.503906zm0 0" fill="#03ad6b"/><path d="m388.136719 286.242188c4.738281 4.917968 7.394531 10.433593 7.394531 16.257812 0 20.710938-33.578125 37.5-75 37.5-22.953125 0-43.484375-5.160156-57.234375-13.28125-3.320313 6.953125-7.304687 12.632812-11.75 16.636719-11.742187 13.039062-37.941406 22.125-68.402344 22.125-41.421875 0-75-16.789063-75-37.5 0-5.824219 2.652344-11.339844 7.394531-16.257813-34.453124-3.386718-56.789062-18.566406-56.789062-36.785156 0-14.71875 13.308594-27.445312 37.980469-33.585938-25.894531-28.277343-35.777344-60.886718-21.925781-74.738281 13.851562-13.851562 46.464843-3.972656 74.742187 21.925781 6.140625-24.675781 18.867187-41.636718 33.582031-41.636718 18.222656 0 33.398438 25.992187 36.789063 60.441406 4.917969-4.738281 10.433593-7.394531 16.257812-7.394531 1.03125 0 2.046875.105469 3.054688.269531 6.875-15.773438 16.984375-25.75 28.269531-25.75 5.824219 0 11.339844 2.65625 16.257812 7.394531 3.390626-34.449219 18.566407-60.441406 36.789063-60.441406 14.714844 0 27.441406 16.960937 33.582031 41.636719 28.277344-25.898438 60.890625-35.78125 74.742188-21.925782 13.851562 13.851563 3.96875 46.460938-21.925782 74.738282 24.671876 6.140625 41.632813 18.867187 41.632813 33.585937 0 18.21875-25.992187 33.394531-60.441406 36.785157zm0 0" fill="#00824d"/><path d="m308.75 360c-35.898438 0-65-29.101562-65-65v-230c0-35.898438 29.101562-65 65-65s65 29.101562 65 65v230c0 35.898438-29.101562 65-65 65zm0 0" fill="#f7c32a"/><path d="m373.75 65v230c0 35.898438-29.101562 65-65 65-7.359375 0-14.421875-1.238281-21.019531-3.492188-9.351563-11.261718-14.980469-25.726562-14.980469-41.507812v-70c0-8.285156 6.714844-15 15-15h51c5.742188 0 10.355469-4.839844 9.980469-10.664062-.347657-5.316407-4.996094-9.335938-10.324219-9.335938h-50.65625c-8.285156 0-15-6.714844-15-15s6.714844-15 15-15h51c5.742188 0 10.355469-4.839844 9.976562-10.664062-.34375-5.316407-4.992187-9.335938-10.320312-9.335938h-50.65625c-8.285156 0-15-6.714844-15-15s6.714844-15 15-15h51c5.742188 0 10.355469-4.839844 9.976562-10.664062-.34375-5.316407-4.992187-9.335938-10.320312-9.335938h-50.65625c-8.285156 0-15-6.714844-15-15s6.714844-15 15-15h51c5.742188 0 10.355469-4.839844 9.976562-10.664062-.34375-5.316407-4.992187-9.335938-10.320312-9.335938h-50.65625c-8.285156 0-15-6.714844-15-15 0-15.78125 5.628906-30.246094 14.980469-41.507812 6.597656-2.253907 13.660156-3.492188 21.019531-3.492188 35.898438 0 65 29.101562 65 65zm0 0" fill="#f7d674"/><path d="m286.460938 224.449219c-4.59375 2.675781-7.355469 7.648437-7.355469 12.960937s2.761719 10.289063 7.355469 12.960938c4.359374 2.535156 7.289062 7.257812 7.289062 12.664062v203.320313c0 8.089843-6.554688 14.644531-14.644531 14.644531h-124.460938c-8.089843 0-14.644531-6.554688-14.644531-14.644531v-203.320313c0-5.40625 2.929688-10.128906 7.289062-12.664062 4.589844-2.671875 7.355469-7.648438 7.355469-12.960938s-2.761719-10.285156-7.355469-12.960937c-4.359374-2.535157-7.289062-7.257813-7.289062-12.664063v-29.285156c0-22.152344 16.394531-40.472656 37.710938-43.492188 3.582031-.507812 6.21875-3.617187 6.21875-7.234374v-29.808594h65.890624v29.808594c0 3.617187 2.636719 6.726562 6.21875 7.234374 21.316407 3.019532 37.710938 21.339844 37.710938 43.492188v29.285156c0 5.40625-2.929688 10.128906-7.289062 12.664063zm0 0" fill="#e1eff4"/><path d="m293.75 182.5v29.285156c0 5.40625-2.929688 10.128906-7.289062 12.664063-4.59375 2.675781-7.355469 7.648437-7.355469 12.960937s2.761719 10.289063 7.355469 12.960938c4.359374 2.535156 7.289062 7.257812 7.289062 12.664062v206.320313c0 8.089843-6.554688 14.644531-14.644531 14.644531h-115.898438c-1.25-2.15625-1.976562-4.652344-1.976562-7.320312v-206.324219c0-5.40625 2.929687-10.128907 7.289062-12.664063 4.59375-2.671875 7.355469-7.644531 7.355469-12.960937 0-5.3125-2.761719-10.285157-7.355469-12.957031-4.359375-2.539063-7.289062-7.261719-7.289062-12.667969v-29.285157c0-22.148437 16.394531-40.472656 37.714843-43.492187 3.578126-.507813 6.214844-3.617187 6.214844-7.234375v-29.808594h44.660156v22.488282c0 3.617187 2.636719 6.726562 6.21875 7.234374 21.316407 3.019532 37.710938 21.339844 37.710938 43.492188zm0 0" fill="#fff5f5"/><path d="m271.34375 194.214844c1.300781 0 2.394531 1.039062 2.394531 2.339844v.027343 25.8125c0 4.765625-3.035156 8.925781-7.546875 11.164063-4.757812 2.355468-7.617187 6.738281-7.617187 11.421875 0 4.6875 2.859375 9.070312 7.617187 11.425781 4.511719 2.234375 7.546875 6.398438 7.546875 11.164062v187.152344c0 7.128906-6.789062 12.90625-15.164062 12.90625h-83.398438c-8.375 0-15.164062-5.777344-15.164062-12.90625v-187.152344c0-4.765624 3.035156-8.929687 7.546875-11.164062 4.757812-2.355469 7.617187-6.738281 7.617187-11.425781 0-4.683594-2.859375-9.066407-7.617187-11.421875-4.511719-2.238282-7.546875-6.398438-7.546875-11.164063v-25.8125c0-.011719 0-.019531 0-.027343 0-1.300782 1.09375-2.339844 2.394531-2.339844zm0 0" fill="#16badb"/><path d="m257.144531 90v23.929688c0 5.519531-4.480469 10-10 10h-60.539062c-5.523438 0-10-4.480469-10-10v-23.929688c0-5.523438 4.476562-10 10-10h60.539062c5.519531 0 10 4.476562 10 10zm0 0" fill="#f45751"/><path d="m199.667969 80.042969v43.84375c-5.125-.433594-9.148438-4.722657-9.148438-9.957031v-23.929688c0-5.238281 4.023438-9.527344 9.148438-9.957031zm10.984375 43.886719h10.066406v-43.929688h-10.066406zm42.097656-42.210938v40.492188c2.652344-1.800782 4.394531-4.835938 4.394531-8.28125v-23.929688c0-3.445312-1.742187-6.480469-4.394531-8.28125zm-21.050781 42.210938h10.070312v-43.929688h-10.070312zm0 0" fill="#f56d59"/><path d="m456 415.789062c-46.914062 58.640626-119.0625 96.210938-200 96.210938s-153.089844-37.570312-200-96.210938v-155.183593c0-5.855469 4.75-10.605469 10.605469-10.605469 2.8125 0 5.511719 1.117188 7.5 3.105469l14.066406 14.066406c1.5625 1.5625 4.09375 1.5625 5.65625 0l11.867187-11.867187c3.398438-3.398438 8.003907-5.304688 12.804688-5.304688s9.40625 1.910156 12.800781 5.304688l11.871094 11.867187c1.5625 1.5625 4.09375 1.5625 5.65625 0l11.867187-11.867187c3.394532-3.398438 8-5.304688 12.804688-5.304688 4.800781 0 9.40625 1.910156 12.800781 5.304688l11.867188 11.867187c1.5625 1.5625 4.097656 1.5625 5.660156 0l11.867187-11.867187c3.394532-3.398438 8-5.304688 12.800782-5.304688 4.804687 0 9.410156 1.910156 12.804687 5.304688l11.867188 11.867187c1.5625 1.5625 4.097656 1.5625 5.65625 0l11.871093-11.867187c3.394532-3.398438 8-5.304688 12.800782-5.304688 4.800781 0 9.410156 1.910156 12.804687 5.304688l11.867188 11.867187c1.5625 1.5625 4.09375 1.5625 5.65625 0l11.867187-11.867187c3.398438-3.398438 8.003906-5.304688 12.804688-5.304688 4.800781 0 9.40625 1.910156 12.800781 5.304688l11.871094 11.867187c1.5625 1.5625 4.09375 1.5625 5.65625 0l11.867187-11.867187c3.394532-3.398438 8-5.304688 12.804688-5.304688 4.800781 0 9.40625 1.910156 12.800781 5.304688l11.867187 11.867187c1.5625 1.5625 4.097657 1.5625 5.660157 0l14.0625-14.066406c1.988281-1.988281 4.6875-3.105469 7.5-3.105469 5.859375 0 10.609375 4.75 10.609375 10.605469v155.183593zm0 0" fill="#f7b95f"/><path d="m136.640625 460.976562c38.5 28.847657 85.390625 47.105469 136.359375 50.445313-5.621094.371094-11.285156.578125-17 .578125-80.9375 0-153.089844-37.570312-200-96.210938v-155.183593c0-5.855469 4.75-10.605469 10.605469-10.605469 2.8125 0 5.511719 1.117188 7.5 3.105469l14.066406 14.066406c.523437.523437 1.160156.855469 1.828125 1.027344v98.667969c0 36.933593 17.085938 71.964843 46.640625 94.109374zm0 0" fill="#f7ad3b"/></svg>