<svg height="512pt" viewBox="0 0 512 512" width="512pt" xmlns="http://www.w3.org/2000/svg"><path d="m512 256c0 141.386719-114.613281 256-256 256s-256-114.613281-256-256 114.613281-256 256-256 256 114.613281 256 256zm0 0" fill="#f5cf51"/><path d="m146.597656 193.082031 173.242188-173.242187c3.242187-3.242188 6.644531-6.226563 10.183594-8.957032 68.800781 20.75 125.382812 69.660157 156.339843 133.34375-4.707031 8.652344-10.710937 16.785157-18.03125 24.105469l-173.242187 173.242188zm0 0" fill="#a0452c"/><path d="m306.8125 329.851562c31.882812-104.007812 14.6875-131.574218-30.105469-176.367187-.058593-.0625-.121093-.121094-.179687-.179687-9.652344-9.621094-9.8125-25.183594-.175782-34.820313l71.066407-71.066406c7.828125-7.828125 16.589843-14.15625 25.921875-18.992188 49.039062 25.335938 88.839844 66.054688 113.015625 115.78125-4.707031 8.65625-10.699219 16.800781-18.019531 24.125zm0 0" fill="#bb5335"/><path d="m295.089844 342.988281c-41.394532 41.394531-108.511719 41.394531-149.90625 0-41.394532-41.394531-41.394532-108.511719 0-149.90625 41.394531-41.398437 108.511718-41.398437 149.90625 0 41.398437 41.394531 41.398437 108.511719 0 149.90625zm0 0" fill="#f47383"/><path d="m304.945312 204.4375c-28.449218-21.390625-65.207031-26.5625-97.691406-15.550781-2.890625.976562-3.667968 4.671875-1.484375 6.800781.996094.96875 1.929688 2.042969 2.789063 3.214844 6.636718 9.070312 6.289062 21.726562-.816406 30.429687-9.519532 11.65625-26.730469 12.300781-37.101563 1.929688-2.210937-2.210938-3.921875-4.738281-5.132813-7.433594-1.234374-2.753906-4.980468-3.214844-6.871093-.859375-9.039063 11.253906-15.441407 23.925781-19.210938 37.191406-.664062 2.324219.894531 4.660156 3.273438 5.09375 3.386719.609375 6.601562 2.386719 8.992187 5.34375 4.394532 5.425782 4.394532 13.371094.003906 18.796875-4.085937 5.046875-10.558593 6.675781-16.195312 4.90625.984375 20.703125 7.984375 41.171875 21.042969 58.542969 41.523437 31.21875 100.753906 27.9375 138.546875-9.859375 37.796875-37.792969 41.074218-97.019531 9.855468-138.546875zm-91.878906 90.464844c-5.855468 5.859375-15.355468 5.859375-21.210937 0-5.859375-5.855469-5.859375-15.351563 0-21.210938 5.855469-5.859375 15.355469-5.859375 21.210937 0 5.859375 5.859375 5.859375 15.355469 0 21.210938zm70.710938 14.144531c-5.859375 5.855469-15.355469 5.855469-21.214844 0-5.855469-5.859375-5.855469-15.355469 0-21.210937 5.859375-5.859376 15.355469-5.859376 21.214844 0 5.859375 5.855468 5.859375 15.351562 0 21.210937zm3.535156-60.105469c-7.808594 7.8125-20.472656 7.8125-28.285156 0-7.808594-7.808594-7.808594-20.472656 0-28.285156 7.8125-7.808594 20.476562-7.808594 28.285156 0 7.808594 7.8125 7.8125 20.476562 0 28.285156zm0 0" fill="#f78d9a"/><path d="m239.246094 304.53125c41.003906 41.003906 41.003906 107.488281 0 148.492188l-17.679688 17.675781-148.492187-148.488281 17.679687-17.679688c41.003906-41.003906 107.488282-41.003906 148.492188 0zm0 0" fill="#d25e3e"/><path d="m99.574219 348.710938-26.5-26.5 17.679687-17.679688c41.003906-41.003906 107.488282-41.003906 148.492188 0 4.523437 4.523438 8.542968 9.355469 12.070312 14.429688-40.929687-28.433594-97.582031-24.410157-134.0625 12.070312zm0 0" fill="#bb5335"/><path d="m252.261719 397.515625c0 58.542969-47.457031 106-106 106s-106-47.457031-106-106 47.457031-106 106-106 106 47.457031 106 106zm0 0" fill="#f78d9a"/><path d="m161.261719 292.578125c-18.484375 2.617187-35.433594 10.007813-49.566407 20.875-2.714843 2.089844-2.113281 6.265625 1.03125 7.632813 9.472657 4.121093 15.894532 13.933593 14.941407 25.125-1.035157 12.136718-10.957031 21.894531-23.109375 22.742187-8.246094.574219-15.710938-2.847656-20.65625-8.527344-2.222656-2.554687-6.367188-1.710937-7.503906 1.480469-3.96875 11.128906-6.136719 23.113281-6.136719 35.609375 0 8.953125 1.113281 17.644531 3.203125 25.949219.722656 2.859375 4.023437 4.246094 6.542968 2.714844 2.609376-1.582032 5.742188-2.394532 9.078126-2.105469 7.125.613281 12.9375 6.371093 13.609374 13.488281.746094 7.949219-4.710937 14.773438-12.09375 16.183594-.007812.003906-.019531.007812-.027343.007812-1.777344.320313-2.6875 2.332032-1.664063 3.816406.097656.144532.195313.28125.292969.421876 16.445313 23.625 42.257813 40.238281 72.058594 44.460937 51.4375-7.285156 91-51.488281 91-104.9375s-39.5625-97.652344-91-104.9375zm-13.5 191.4375c-8.285157 0-15-6.714844-15-15s6.714843-15 15-15c8.285156 0 15 6.714844 15 15s-6.714844 15-15 15zm30-45c-11.046875 0-20-8.953125-20-20s8.953125-20 20-20 20 8.953125 20 20-8.953125 20-20 20zm5-80c-8.285157 0-15-6.714844-15-15s6.714843-15 15-15c8.285156 0 15 6.714844 15 15s-6.714844 15-15 15zm0 0" fill="#f9a6b0"/></svg>