<svg height="511pt" viewBox="0 1 511.99975 511" width="511pt" xmlns="http://www.w3.org/2000/svg"><path d="m0 256.5c0-141.199219 114.3125-255.699219 255.441406-256 141.28125-.300781 255.464844 112.707031 256.550782 253.988281.578124 74.96875-31.085938 142.550781-81.9375 189.726563-1.664063 1.542968-3.941407 2.230468-6.191407 1.910156-53.007812-7.550781-109.390625-11.625-167.863281-11.625-58.050781 0-114.042969 4.015625-166.71875 11.460938-3.027344.429687-6.0625-.550782-8.292969-2.640626-49.839843-46.707031-80.988281-113.125-80.988281-186.820312zm0 0" fill="#ec3c52"/><path d="m360 220.5c0 11.046875-8.953125 20-20 20s-20-8.953125-20-20 8.953125-20 20-20 20 8.953125 20 20zm6.648438-139.167969c-3.480469 0-6.71875 1.011719-9.464844 2.734375-1.921875-7.785156-8.929688-13.566406-17.308594-13.566406s-15.390625 5.78125-17.3125 13.566406c-3.097656-1.945312-6.828125-2.984375-10.824219-2.683594-9.382812.707032-16.484375 8.824219-16.484375 18.230469v39.378907c0 9.390624 7.050782 17.546874 16.410156 18.289062.558594.046875 1.109376.0625 1.65625.058594 4.785157-.058594 8.707032 3.769531 8.707032 8.558594v6.269531c0 9.859375 7.988281 17.847656 17.847656 17.847656s17.847656-7.988281 17.847656-17.847656v-6.265625c0-4.832032 3.996094-8.589844 8.828125-8.5625h.097657c9.859374 0 17.847656-7.992188 17.847656-17.847656v-40.3125c0-9.855469-7.988282-17.847657-17.847656-17.847657zm0 0" fill="#f7c32a"/><path d="m431.054688 328.191406v115.078125c-45.78125 42.929688-107.34375 69.230469-175.054688 69.230469s-129.273438-26.300781-175.054688-69.230469v-115.078125c0-29.261718 20.953126-53.617187 48.671876-58.917968v-13.003907h-8.847657c-8.285156 0-15-6.714843-15-15v-5.769531c0-8.285156 6.714844-15 15-15h270.460938c8.285156 0 15 6.714844 15 15v5.769531c0 8.285157-6.714844 15-15 15h-8.84375v13.007813c27.714843 5.296875 48.667969 29.652344 48.667969 58.914062zm0 0" fill="#99c8d3"/><path d="m431.054688 328.191406v115.078125c-45.78125 42.929688-107.34375 69.230469-175.054688 69.230469-50.949219 0-98.421875-14.886719-138.308594-40.546875v-151.839844c0-22.082031 17.902344-39.988281 39.984375-40h188.476563c5.523437 0 10-4.476562 10-10v-3.84375c0-5.523437-4.476563-10-10-10h-189.613282c-8.285156 0-15-6.71875-15-15v-5.769531c0-8.285156 6.714844-15 15-15h234.691407c8.285156 0 15 6.714844 15 15v5.769531c0 8.285157-6.714844 15-15 15h-8.84375v13.007813c27.714843 5.296875 48.667969 29.652344 48.667969 58.914062zm0 0" fill="#afdbe1"/><path d="m394.496094 44.695312v53.625c0 11.328126-8.421875 21.148438-19.695313 22.242188-3.929687.382812-7.65625-.296875-10.957031-1.761719-.996094-.441406-2.121094.253907-2.121094 1.34375 0 11.847657-9.210937 21.9375-21.050781 22.359375-12.429687.441406-22.644531-9.503906-22.644531-21.835937v-.523438c0-1.089843-1.125-1.785156-2.121094-1.34375-3.300781 1.464844-7.027344 2.144531-10.957031 1.761719-11.273438-1.097656-19.695313-10.914062-19.695313-22.242188v-4.960937h-226.539062c13.59375-16.421875 29.207031-31.105469 46.445312-43.699219h180.09375v-4.964844c0-11.324218 8.421875-21.144531 19.691406-22.242187 3.929688-.382813 7.660157.296875 10.960938 1.761719.996094.441406 2.117188-.253906 2.117188-1.34375 0-11.84375 9.214843-21.9375 21.054687-22.355469 12.429687-.4414062 22.644531 9.5 22.644531 21.832031v.523438c0 1.089844 1.121094 1.789062 2.117188 1.34375 3.304687-1.464844 7.03125-2.144532 10.960937-1.761719 11.273438 1.097656 19.695313 10.917969 19.695313 22.242187zm0 0" fill="#f7ad3b"/><path d="m285.25 79.449219c.140625 7.65625-6.027344 13.910156-13.652344 13.910156h-212.882812c8.0625-9.742187 16.835937-18.867187 26.234375-27.3125h186.195312c7.519531 0 13.96875 5.882813 14.105469 13.402344zm97.921875 13.910156c-7.320313 0-13.253906-5.9375-13.253906-13.257813v-16.785156c0-4.609375-3.804688-8.328125-8.445313-8.191406-4.484375.136719-7.941406 4.046875-7.941406 8.535156v32.828125c0 7.050781-5.511719 12.996094-12.558594 13.238281-.046875 0-.09375.003907-.140625.003907-.601562.019531-1.199219.019531-1.792969.003906-7.148437-.191406-12.820312-6.105469-12.820312-13.257813v-33.160156c0-4.609375-3.804688-8.328125-8.445312-8.191406-4.484376.136719-7.9375 4.046875-7.9375 8.535156v16.441406c0 7.320313-5.9375 13.257813-13.257813 13.257813h-11.324219v4.964844c0 11.324219 8.425782 21.148437 19.699219 22.242187 3.929687.378906 7.652344-.300781 10.957031-1.765625.996094-.441406 2.117188.253907 2.117188 1.34375v.523438c0 12.332031 10.214844 22.277343 22.648437 21.835937 11.839844-.421875 21.050781-10.511718 21.050781-22.359375 0-1.070312 1.125-1.785156 2.101563-1.347656 3.28125 1.457031 6.976563 2.136719 10.875 1.777344 11.316406-1.050781 19.796875-10.890625 19.796875-22.257813v-4.957031zm0 0" fill="#e2902a"/><path d="m394.308594 439.347656v32.605469c-39.886719 25.660156-87.359375 40.546875-138.308594 40.546875s-98.421875-14.886719-138.308594-40.546875v-32.605469c0-22.09375 17.910156-40 40-40h196.617188c22.089844 0 40 17.90625 40 40zm0 0" fill="#f7c32a"/><path d="m394.308594 471.550781v.402344c-39.886719 25.660156-87.359375 40.546875-138.308594 40.546875s-98.421875-14.886719-138.308594-40.546875v-32.605469c0-22.09375 17.910156-40 40-40h2.113282c-3.40625 5.882813-5.367188 12.710938-5.367188 20 0 21.699219 12.734375 41.34375 32.488281 50.324219 32.253907 14.660156 68.082031 22.828125 105.820313 22.828125 36.089844 0 70.425781-7.476562 101.5625-20.949219zm0 0" fill="#f1bd1f"/></svg>