<svg height="512pt" viewBox="0 0 512 512" width="512pt" xmlns="http://www.w3.org/2000/svg"><path d="m512 256c0 141.386719-114.617188 256-256 256-8.507812 0-16.910156-.429688-25.203125-1.242188-2.636719-.261718-4.816406-2.191406-5.3125-4.792968-20.128906-106.023438-105.632813-188.878906-212.996094-205.070313-5.34375-.804687-9.457031-5.105469-10.179687-10.460937-1.519532-11.261719-2.308594-22.753906-2.308594-34.433594 0-141.382812 114.613281-256 256-256 141.039062 0 256 114.960938 256 256zm0 0" fill="#23c77d"/><path d="m490.191406 154.289062c-3.320312 13.222657-11.628906 23.867188-22.40625 30.457032 6.378906 10.902344 8.664063 24.214844 5.339844 37.433594-6.730469 26.78125-33.898438 43.03125-60.679688 36.300781-21.753906-5.46875-36.5625-24.421875-37.746093-45.699219-14.429688-4.628906-25.433594-15.332031-30.890625-28.511719-8.328125 1.035157-17.027344.003907-25.332032-3.449219-20.710937-8.605468-32.570312-29.535156-30.609374-50.753906-23.460938-11.5625-34.207032-39.515625-24.023438-64.007812 10.179688-24.488282 37.574219-36.585938 62.316406-28.117188 13.660156-16.351562 36.855469-22.707031 57.570313-14.097656 25.5 10.597656 37.578125 39.863281 26.976562 65.359375-5.023437 12.089844-14.25 21.140625-25.277343 26.210937 4.453124-.40625 9.015624-.234374 13.59375.609376 11.105468-18.1875 33.117187-27.882813 54.871093-22.414063 26.78125 6.734375 43.03125 33.902344 36.296875 60.679687zm0 0" fill="#019256"/><path d="m337.382812 95.421875c11.714844 11.714844 11.714844 30.710937 0 42.425781l-279.847656 279.847656c-29.355468-35.988281-49.121094-80.101562-55.390625-128.457031l193.816407-193.816406c39.050781-39.050781 102.367187-39.050781 141.421874 0zm0 0" fill="#f9c77e"/><path d="m337.382812 95.421875c11.714844 11.714844 11.714844 30.710937 0 42.425781l-279.847656 279.847656c-17.902344-21.949218-32.242187-46.914062-42.125-74.023437l233.417969-233.421875c19.417969-19.414062 44.835937-29.175781 70.285156-29.28125 6.496094 4.007812 12.636719 8.820312 18.269531 14.453125zm0 0" fill="#fad39c"/><path d="m461.832031 149.160156-170.835937 170.839844-126.148438 126.148438c-14.976562 14.972656-60.59375 16.058593-63.503906 13.847656-21.515625-16.335938-40.363281-35.992188-55.785156-58.214844-1.429688-19.585938 5.320312-39.65625 20.292968-54.628906l126.148438-126.148438 170.839844-170.835937c27.335937-27.335938 71.65625-27.335938 98.992187 0 27.335938 27.335937 27.335938 71.65625 0 98.992187zm0 0" fill="#bb5335"/><path d="m463.441406 147.5c-.527344.5625-1.0625 1.113281-1.609375 1.660156l-170.835937 170.839844-126.148438 126.148438c-.546875.546874-1.101562 1.082031-1.664062 1.609374-44.496094 41.695313-109.527344-23.332031-67.828125-67.832031.527343-.558593 1.0625-1.113281 1.609375-1.660156l296.984375-296.984375c.546875-.550781 1.101562-1.085938 1.664062-1.609375 44.496094-41.699219 109.527344 23.332031 67.828125 67.828125zm0 0" fill="#e06e4e"/><path d="m426.929688 83.175781c0 5.519531-4.476563 10-10 10-27.570313 0-50 22.429688-50 50 0 .726563-.078126 1.453125-.234376 2.152344-.488281 17.980469-7.710937 34.804687-20.464843 47.5625-13.214844 13.214844-30.796875 20.492187-49.507813 20.492187-27.570312 0-50 22.429688-50 50 0 .730469-.082031 1.453126-.234375 2.15625-1.039062 37.699219-32.027343 68.050782-69.972656 68.050782-27.574219 0-50 22.429687-50 50-.003906.730468-.082031 1.453125-.238281 2.15625-.75 27.21875-17.113282 50.601562-40.429688 61.5-5.5-4.894532-10.792968-10.019532-15.851562-15.367188 20.933594-5.972656 36.308594-25.257812 36.308594-48.078125 0-.730469.082031-1.453125.234374-2.15625.488282-17.980469 7.710938-34.804687 20.46875-47.5625 13.214844-13.214843 30.796876-20.492187 49.507813-20.492187 27.570313 0 50-22.429688 50-50 0-.730469.082031-1.453125.234375-2.15625 1.035156-37.699219 32.027344-68.050782 69.972656-68.050782 27.570313 0 50-22.429687 50-50 0-.730468.082032-1.453124.234375-2.15625 1.039063-37.699218 32.027344-68.050781 69.976563-68.050781 5.519531 0 9.996094 4.476563 9.996094 10zm0 0" fill="#f5cf51"/><path d="m100.628906 459.453125 279.179688-279.179687c11.714844-11.714844 30.710937-11.714844 42.425781 0 39.050781 39.054687 39.050781 102.371093 0 141.421874l-189.261719 189.261719c-49.523437-4.414062-94.980468-22.925781-132.34375-51.503906zm0 0" fill="#f9c77e"/><path d="m100.628906 459.453125 279.179688-279.179687c11.714844-11.714844 30.710937-11.714844 42.425781 0 10.070313 10.070312 17.539063 21.757812 22.414063 34.222656-4.324219 16.671875-13.011719 32.445312-26.070313 45.503906l-240.054687 240.054688c-28.4375-9.023438-54.722657-22.878907-77.894532-40.601563zm0 0" fill="#fad39c"/></svg>