<svg height="512pt" viewBox="0 0 512 512" width="512pt" xmlns="http://www.w3.org/2000/svg"><path d="m0 256c0-141.386719 114.613281-256 256-256s256 114.613281 256 256c0 80.410156-37.085938 152.148438-95.070312 199.082031-51.496094-5.058593-105.40625-7.75-160.929688-7.75s-109.433594 2.691407-160.929688 7.75c-57.984374-46.933593-95.070312-118.671875-95.070312-199.082031zm0 0" fill="#6dcce4"/><path d="m422 405.363281v45.507813c-44.695312 38.109375-102.65625 61.128906-166 61.128906s-121.304688-23.019531-166-61.128906v-44.003906c19.46875-21.332032 31.34375-49.710938 31.34375-80.867188v-72c0-31.15625-11.875-59.535156-31.34375-80.867188v-3.132812c0-25.269531 15.625-46.878906 37.738281-55.71875 7.484375-2.992188 12.261719-10.394531 12.261719-18.457031v-25.824219h232v25.824219c0 8.0625 4.777344 15.464843 12.261719 18.457031 22.113281 8.839844 37.738281 30.449219 37.738281 55.71875v4.636719c-18.667969 21.152343-30 48.933593-30 79.363281v72c0 30.429688 11.332031 58.210938 30 79.363281zm0 0" fill="#c0293e"/><path d="m422 405.363281v45.507813c-44.695312 38.109375-102.65625 61.128906-166 61.128906-45.515625 0-88.246094-11.894531-125.28125-32.71875-.472656-3.023438-.71875-6.125-.71875-9.28125v-300c0-25.269531 15.625-46.878906 37.738281-55.71875 7.484375-2.992188 12.261719-10.394531 12.261719-18.457031v-25.824219h192v25.824219c0 8.0625 4.777344 15.464843 12.261719 18.457031 22.113281 8.839844 37.738281 30.449219 37.738281 55.71875v4.636719c-18.667969 21.152343-30 48.933593-30 79.363281v72c0 30.429688 11.332031 58.210938 30 79.363281zm0 0" fill="#d73247"/><path d="m422 410h-332v-240h332zm0 0" fill="#fae8b1"/><path d="m90 170h40v240h-40zm166 25c-52.46875 0-95 42.53125-95 95s42.53125 95 95 95 95-42.53125 95-95-42.53125-95-95-95zm0 0" fill="#f8df92"/><path d="m284.128906 254.054688c-7.667968 8.335937-48.589844 8.335937-56.257812 0-8.574219-9.320313-11.292969-22.171876-7.515625-31.765626 6.539062-3.042968 14.71875-2.207031 22.007812 2.21875 2.484375-7.925781 7.46875-14.105468 13.636719-16.792968 6.167969 2.683594 11.152344 8.867187 13.636719 16.792968 7.289062-4.425781 15.46875-5.261718 22.007812-2.21875 3.777344 9.59375 1.058594 22.445313-7.515625 31.765626zm0 0" fill="#23c77d"/><path d="m350 75.503906v44.496094c0 11.289062-9.351562 20.390625-20.730469 19.988281-10.835937-.386719-19.269531-9.625-19.269531-20.46875v-.128906c0-5.332031-4.429688-9.457031-9.761719-9.394531-.726562.011718-1.464843-.019532-2.210937-.09375-10.316406-1.003906-18.027344-9.992188-18.027344-20.355469v-14.042969c0-.167968.007812-.335937.011719-.503906h69.976562c.003907.167969.011719.335938.011719.503906zm-50.167969 173.84375c-11.332031-7.566406-25.925781-6.066406-37.253906 1.5-2.046875 1.363282-4.347656 1.851563-6.578125 1.480469-2.230469.371094-4.53125-.117187-6.574219-1.480469-11.332031-7.566406-25.921875-9.066406-37.253906-1.5 0 0-26.574219 20.574219-10.023437 67.375 4.929687 13.941406 11.804687 26.535156 20.28125 37.023438 8.367187 10.359375 20.671874 16.253906 33.570312 16.253906s25.203125-5.894531 33.574219-16.253906c8.472656-10.488282 15.351562-23.082032 20.28125-37.023438 16.546875-46.800781-10.023438-67.375-10.023438-67.375zm0 0" fill="#f45751"/><path d="m264.453125 350.015625c-26.351563-15.316406-44.480469-47.320313-44.480469-84.328125 0-7.046875.660156-13.910156 1.910156-20.511719 9.222657-2.128906 19.253907.136719 27.539063 5.671875 2.046875 1.363282 4.347656 1.855469 6.578125 1.480469 2.230469.375 4.53125-.117187 6.574219-1.480469 11.332031-7.5625 25.921875-9.0625 37.253906-1.5 0 0 26.574219 20.574219 10.023437 67.375-4.339843 12.28125-10.195312 23.507813-17.316406 33.175782-8.445312 4.984374-19.203125 5.28125-28.082031.117187zm0 0" fill="#f56d59"/><path d="m382 80h-252c-5.523438 0-10-4.476562-10-10v-30c0-5.523438 4.476562-10 10-10h252c5.523438 0 10 4.476562 10 10v30c0 5.523438-4.476562 10-10 10zm0 0" fill="#f7c32a"/><path d="m382 60h-222c-5.523438 0-10-4.476562-10-10v-10c0-5.523438 4.476562-10 10-10h222c5.523438 0 10 4.476562 10 10v10c0 5.523438-4.476562 10-10 10zm0 0" fill="#f5cf51"/></svg>