<svg height="512pt" viewBox="0 0 512 512" width="512pt" xmlns="http://www.w3.org/2000/svg"><path d="m512 256c0 141.386719-114.613281 256-256 256s-256-114.613281-256-256 114.613281-256 256-256 256 114.613281 256 256zm0 0" fill="#cc4978"/><path d="m438.429688 47.796875v47.898437c0 3.167969-.144532 6.335938-.429688 9.492188l-28.523438 315.183594c-.984374 10.851562-10.082031 19.160156-20.976562 19.160156h-152.871094c-10.898437 0-19.996094-8.308594-20.976562-19.160156l-28.527344-315.183594c-.285156-3.15625-.429688-6.324219-.429688-9.492188v-47.898437c0-2.90625 2.359376-5.265625 5.265626-5.265625h242.203124c2.90625 0 5.265626 2.359375 5.265626 5.265625zm0 0" fill="#99c8d3"/><path d="m438.429688 47.796875v47.898437c0 3.167969-.144532 6.335938-.429688 9.492188l-28.523438 315.183594c-.984374 10.851562-10.082031 19.160156-20.976562 19.160156h-116.71875c-10.894531 0-19.992188-8.308594-20.972656-19.160156l-25.925782-286.429688c-1.113281-12.332031 8.59375-22.960937 20.976563-22.960937h154.660156c6.046875 0 10.90625-5.097657 10.507813-11.230469-.363282-5.597656-5.257813-9.828125-10.867188-9.828125h-157.246094c-11.632812 0-21.0625-9.429687-21.0625-21.0625v-21.0625c0-2.90625 2.359376-5.265625 5.265626-5.265625h206.046874c2.90625 0 5.265626 2.359375 5.265626 5.265625zm0 0" fill="#afdbe1"/><path d="m387.964844 142.570312h5.132812c3.097656 0 5.523438 2.660157 5.246094 5.742188l-21.574219 238.359375c-.980469 10.851563-10.078125 19.164063-20.972656 19.164063h-87.066406c-10.894531 0-19.992188-8.3125-20.972657-19.164063l-18.714843-206.769531c-.277344-3.082032 2.148437-5.738282 5.242187-5.738282 26.304688 0 52.335938-5.34375 76.511719-15.703124l.214844-.09375c24.316406-10.421876 50.496093-15.796876 76.953125-15.796876zm0 0" fill="#f49f1f"/><path d="m398.34375 148.3125-21.574219 238.359375c-.09375 1.046875-.285156 2.0625-.527343 3.054687-1.929688.1875-3.863282.308594-5.8125.308594-60.214844 0-111.675782-89.535156-132.339844-215.917968 25.003906-.492188 49.695312-5.796876 72.707031-15.65625l.214844-.09375c24.316406-10.421876 50.5-15.796876 76.957031-15.796876h5.132812c3.09375 0 5.519532 2.660157 5.242188 5.742188zm0 0" fill="#f7ad3b"/><path d="m277.898438 350.671875c2.886718 0 5.203124 2.886719 4.992187 6.296875-4.773437 77.171875-59.203125 138.03125-125.652344 138.03125-66.453125 0-120.882812-60.859375-125.652343-138.03125-.214844-3.410156 2.101562-6.296875 4.992187-6.296875zm0 0" fill="#f7ad3b"/><path d="m186.550781 490.9375c-9.40625 2.652344-19.222656 4.0625-29.3125 4.0625-66.453125 0-120.882812-60.859375-125.652343-138.03125-.214844-3.410156 2.101562-6.296875 4.988281-6.296875h39.953125c-3.476563 0-6.265625 2.886719-6.011719 6.296875 4.875 65.449219 52.769531 119.160156 116.035156 133.96875zm0 0" fill="#f49f1f"/><path d="m277.898438 350.671875c2.886718 0 5.203124 2.289063 4.992187 4.984375-4.773437 61.132812-59.203125 109.34375-125.652344 109.34375-66.453125 0-120.882812-48.210938-125.652343-109.34375-.214844-2.695312 2.101562-4.984375 4.992187-4.984375zm0 0" fill="#ffd88e"/><path d="m179.945312 350.671875c-.378906 12.214844-10.402343 22-22.707031 22-12.308593 0-22.328125-9.785156-22.710937-22zm-19.929687 38.769531c-.226563-1.804687-1.007813-3.355468-2.113281-4.441406-1.050782 1.035156-1.804688 2.507812-2.066406 4.214844l-7.363282 48.402344c-1.195312 7.855468 2.796875 15.179687 8.769532 17.382812 5.828124-2.15625 9.789062-9.191406 8.828124-16.894531zm61.808594 19.90625-40.128907-31.566406c-1.492187-1.171875-3.1875-1.761719-4.765624-1.78125.019531 1.507812.566406 3.125 1.640624 4.566406l30.449219 40.863282c4.945313 6.632812 13.160157 9.203124 19.007813 6.605468 2.53125-5.710937.148437-13.695312-6.203125-18.6875zm-93.046875-50.871094c-1.460938-.695312-3.339844-.976562-5.367188-.703124l-57.390625 7.753906c-9.316406 1.261718-16.675781 7.367187-17.65625 13.8125 3.980469 4.964844 13.074219 6.628906 21.652344 3.339844l54.214844-20.800782c2.011719-.769531 3.589843-2.003906 4.546875-3.402344zm119.675781 7.050782-57.390625-7.753906c-2.027344-.273438-3.90625.007812-5.367188.703124.960938 1.398438 2.535157 2.632813 4.546876 3.402344l54.21875 20.800782c8.578124 3.289062 17.671874 1.625 21.648437-3.339844-.980469-6.445313-8.339844-12.550782-17.65625-13.8125zm-153.632813 43.316406c-6.746093 5.054688-9.421874 13.375-6.855468 19.253906 5.742187 2.5 13.824218.019532 18.929687-6.441406l32.261719-40.828125c1.199219-1.515625 1.808594-3.234375 1.84375-4.828125-1.519531.035156-3.160156.605469-4.625 1.703125zm0 0" fill="#fdc043"/></svg>