<svg height="512pt" viewBox="0 0 512.00113 512" width="512pt" xmlns="http://www.w3.org/2000/svg"><path d="m437.019531 437.019531c-99.972656 99.976563-262.0625 99.976563-362.039062 0-99.972657-99.972656-99.972657-262.0625 0-362.039062 99.972656-99.972657 262.0625-99.972657 362.039062 0 99.976563 99.976562 99.976563 262.066406 0 362.039062zm0 0" fill="#f8df92"/><path d="m458.234375 74.980469-372.328125 372.328125c-3.714844-3.304688-7.363281-6.726563-10.925781-10.289063-3.5625-3.558593-6.980469-7.210937-10.289063-10.921875l372.328125-372.328125c5.46875-5.46875 14.332031-5.46875 19.800781 0l1.414063 1.414063c5.464844 5.46875 5.464844 14.332031 0 19.796875zm0 0" fill="#1c5564"/><path d="m458.234375 74.980469-372.328125 372.328125c-3.714844-3.304688-7.363281-6.726563-10.925781-10.289063-.28125-.28125-.550781-.574219-.835938-.859375l372.453125-372.453125c4.039063-4.039062 9.902344-5.113281 14.933594-3.257812 1.722656 4.917969.632812 10.601562-3.296875 14.53125zm0 0" fill="#347d91"/><path d="m484.058594 285.578125c-10.101563 10.101563-24.546875 13.207031-37.320313 9.324219-2.402343-.730469-4.988281.554687-5.765625 2.941406-1.765625 5.417969-4.796875 10.511719-9.101562 14.816406-10.292969 10.292969-25.085938 13.316406-38.035156 9.097656-2.40625-.785156-5.027344.484376-5.835938 2.886719-1.78125 5.277344-4.773438 10.234375-8.976562 14.441407-10.292969 10.289062-25.085938 13.316406-38.035157 9.09375-2.40625-.785157-5.027343.488281-5.835937 2.886718-1.78125 5.277344-4.773438 10.238282-8.976563 14.441406-10.292969 10.289063-25.085937 13.316407-38.035156 9.09375-2.40625-.78125-5.027344.488282-5.835937 2.890626-1.78125 5.273437-4.773438 10.234374-8.980469 14.441406-9.542969 9.542968-22.964844 12.84375-35.195313 9.902344-2.003906-.484376-4.082031.414062-5.113281 2.199218-1.597656 2.757813-3.570313 5.355469-5.933594 7.714844-10.289062 10.289062-25.082031 13.316406-38.03125 9.09375-2.40625-.785156-5.027343.488281-5.835937 2.890625-1.78125 5.273437-4.773438 10.234375-8.980469 14.4375-14.589844 14.59375-38.253906 14.59375-52.847656 0l-47.558594-47.558594c-14.59375-14.59375-14.59375-38.253906 0-52.851562 4.207031-4.203125 9.164063-7.195313 14.441406-8.976563 2.398438-.808594 3.671875-3.429687 2.886719-5.835937-4.222656-12.949219-1.195312-27.742188 9.09375-38.035157 2.359375-2.359374 4.957031-4.335937 7.71875-5.929687 1.785156-1.03125 2.679688-3.109375 2.195312-5.113281-2.9375-12.230469.359376-25.652344 9.90625-35.199219 4.203126-4.203125 9.164063-7.195313 14.441407-8.976563 2.398437-.808593 3.671875-3.429687 2.886719-5.835937-4.222657-12.949219-1.195313-27.742187 9.09375-38.035156 4.207031-4.203125 9.164062-7.195313 14.441406-8.976563 2.402344-.808594 3.671875-3.429687 2.886718-5.835937-4.21875-12.949219-1.191406-27.746094 9.097657-38.035157 4.203125-4.203124 9.164062-7.195312 14.441406-8.976562 2.398437-.8125 3.671875-3.429688 2.886719-5.835938-4.222656-12.949218-1.195313-27.746093 9.09375-38.035156 4.308594-4.304687 9.402344-7.335937 14.820312-9.101562 2.386719-.777344 3.671875-3.363282 2.941406-5.765625-3.882812-12.773438-.777343-27.21875 9.324219-37.320313 14.59375-14.59375 38.253907-14.59375 52.847657 0l204.785156 204.785156c14.59375 14.597657 14.59375 38.257813 0 52.851563zm0 0" fill="#bb5335"/><path d="m483.558594 232.230469-171.398438-171.394531c-14.480468-14.484376-38.09375-15.234376-52.847656-1.03125-.398438.382812-.78125.769531-1.15625 1.164062-9.078125 9.523438-8.527344 24.691406.792969 33.980469 8.296875 8.265625 18.265625 18.214843 18.265625 18.214843 4.058594 4.0625 3.898437 10.746094-.488282 14.597657-4 3.515625-10.128906 3.070312-13.898437-.699219l-14.636719-14.636719c-4.527344-4.523437-11.863281-4.53125-16.398437-.011719l-.085938.085938c-.058593.058594-.117187.117188-.175781.175781-8.605469 8.71875-8.335938 22.839844.328125 31.503907l21.070313 21.066406c3.765624 3.769531 4.210937 9.898437.695312 13.898437-3.851562 4.386719-10.535156 4.546875-14.597656.488281l-14.367188-14.371093c-5.320312-5.316407-13.941406-5.328125-19.273437-.019531l-.101563.105468c-.054687.050782-.105468.105469-.160156.15625-7.820312 7.914063-7.5625 20.746094.304688 28.613282l23.457031 23.457031c3.765625 3.765625 4.210937 9.894531.695312 13.898437-3.851562 4.382813-10.535156 4.546875-14.597656.484375l-13.671875-13.671875c-6.144531-6.144531-16.160156-6.328125-22.332031-.210937-.042969.039062-.082031.082031-.121094.121093-.046875.046876-.09375.09375-.140625.140626-7.035156 7.109374-6.789062 18.652343.28125 25.722656l11.699219 11.699218c3.769531 3.765626 4.214843 9.898438.699219 13.898438-3.851563 4.382812-10.535157 4.546875-14.597657.484375-5.535156-5.535156-14.230469-6.390625-20.710937-1.996094-1.429688.96875-2.714844 1.957031-3.65625 2.898438-.039063.039062-.082032.082031-.121094.121093-6.242188 6.296876-6.050781 16.523438.21875 22.792969l14.128906 14.125c3.765625 3.769531 4.210938 9.898438.695313 13.902344-3.851563 4.382813-10.535157 4.542969-14.597657.484375l-5.152343-5.15625c-4.113281-4.113281-10.859375-4.125-14.988281-.027344-.0625.0625-.125.125-.1875.1875-9.039063 9.167969-8.738282 24.011719.363281 33.113282l16.894531 16.894531c3.765625 3.765625 4.214844 9.898437.699219 13.898437-3.851563 4.386719-10.535157 4.546875-14.597657.488282l-11.617187-11.617188c-4.972656-4.972656-13.070313-5.046875-18.03125-.066406-.117187.117187-.230469.234375-.347656.351562-14.300781 14.738282-13.617188 38.425782.902343 52.949219l14.144532 14.140625c14.710937 14.714844 38.800781 15.226562 53.472656.472656 4.140625-4.167968 7.097656-9.0625 8.871094-14.277344.820312-2.410156 3.4375-3.765624 5.859375-2.976562 12.949219 4.226562 27.746093 1.199219 38.039062-9.09375 2.359375-2.359375 4.335938-4.957031 5.929688-7.714844 1.035156-1.785156 3.113281-2.683594 5.117187-2.199218 12.230469 2.941406 25.652344-.359376 35.195313-9.902344 4.183593-4.183594 7.164062-9.113282 8.949219-14.359375.820312-2.40625 3.4375-3.761719 5.855468-2.972657 12.949219 4.226563 27.75 1.199219 38.042969-9.09375 4.183594-4.183593 7.164063-9.109374 8.949219-14.355468.820312-2.410156 3.4375-3.761719 5.855468-2.972656 12.949219 4.226562 27.75 1.199218 38.042969-9.09375 4.183594-4.183594 7.164063-9.113282 8.949219-14.359376.820312-2.40625 3.4375-3.761718 5.855469-2.972656 12.949219 4.226563 27.75 1.199219 38.042969-9.09375 4.320312-4.320312 7.355468-9.433594 9.117187-14.871094.777344-2.394531 3.378906-3.605468 5.785156-2.878906 12.757813 3.863282 27.167969.765625 37.257813-9.308594 14.566406-14.53125 14.082031-38.820312-.46875-53.371093zm-269.984375 156.707031c-3.90625 3.90625-10.238281 3.90625-14.140625 0l-14.144532-14.140625c-3.902343-3.90625-3.902343-10.238281 0-14.144531 3.90625-3.902344 10.238282-3.902344 14.144532 0l14.140625 14.144531c3.90625 3.902344 3.90625 10.234375 0 14.140625zm49.496093-77.78125c-3.902343 3.902344-10.234374 3.902344-14.140624 0l-21.210938-21.214844c-3.90625-3.902344-3.90625-10.234375 0-14.140625 3.902344-3.90625 10.234375-3.90625 14.140625 0l21.210937 21.210938c3.90625 3.90625 3.90625 10.238281 0 14.144531zm49.5-134.351562c3.90625-3.902344 10.238282-3.902344 14.140626 0l28.285156 28.285156c3.90625 3.90625 3.90625 10.238281 0 14.144531-3.90625 3.902344-10.238282 3.902344-14.140625 0l-28.285157-28.285156c-3.90625-3.90625-3.90625-10.238281 0-14.144531zm49.496094 134.351562c-3.90625 3.902344-10.238281 3.902344-14.140625 0l-28.285156-28.285156c-3.90625-3.90625-3.90625-10.238282 0-14.140625 3.90625-3.90625 10.238281-3.90625 14.140625 0l28.285156 28.28125c3.90625 3.90625 3.90625 10.238281 0 14.144531zm84.851563-56.570312c-3.902344 3.90625-10.234375 3.90625-14.140625 0l-35.355469-35.355469c-3.902344-3.902344-3.902344-10.234375 0-14.140625 3.90625-3.90625 10.238281-3.90625 14.144531 0l35.351563 35.355468c3.90625 3.90625 3.90625 10.238282 0 14.140626zm0 0" fill="#e06e4e"/></svg>