<svg height="512pt" viewBox="0 0 512 512" width="512pt" xmlns="http://www.w3.org/2000/svg"><path d="m512 256c0 141.386719-114.613281 256-256 256s-256-114.613281-256-256 114.613281-256 256-256 256 114.613281 256 256zm0 0" fill="#94d7e8"/><path d="m213.503906 99.761719c-3.507812 2.207031-7.632812 3.289062-11.949218 3.328125-5.019532 3.09375-11.25 4.941406-18.023438 4.941406-14.683594 0-26.898438-8.621094-29.484375-20 1.621094-7.132812 7.023437-13.175781 14.445313-16.699219-.195313-4.796875.878906-9.40625 3.3125-13.269531 3.863281-2.433594 8.472656-3.507812 13.269531-3.3125 3.523437-7.421875 9.566406-12.824219 16.699219-14.445312 11.378906 2.585937 20 14.800781 20 29.484374 0 6.773438-1.847657 13.003907-4.941407 18.023438-.039062 4.320312-1.121093 8.441406-3.328125 11.949219zm0 0" fill="#10a04e"/><path d="m435.679688 321.9375c-54.671876 54.675781-155.246094 42.742188-224.640626-26.652344-69.394531-69.390625-81.324218-169.96875-26.652343-224.640625 54.675781-54.671875 155.25-42.742187 224.640625 26.652344 69.394531 69.394531 81.328125 169.96875 26.652344 224.640625zm0 0" fill="#66a548"/><path d="m435.679688 321.9375c-.050782.054688-.101563.105469-.152344.15625-9.4375 9.398438-22.914063 13.632812-36.058594 11.46875-48-7.898438-101.027344-35.726562-146.003906-80.703125-44.972656-44.972656-72.800782-98.003906-80.703125-146.003906-2.160157-13.144531 2.070312-26.621094 11.46875-36.054688l.15625-.15625c54.671875-54.671875 155.25-42.742187 224.640625 26.652344 69.394531 69.394531 81.328125 169.96875 26.652344 224.640625zm0 0" fill="#75c24b"/><path d="m330 350c0 77.320312-67.15625 140-150 140s-150-62.679688-150-140 67.15625-140 150-140 150 62.679688 150 140zm0 0" fill="#75c24b"/><path d="m329.964844 352.496094c-.105469 5.707031-.578125 11.328125-1.398438 16.847656-2.191406 10.390625-6.816406 19.632812-13.242187 26.085938-33.367188 33.511718-81.632813 54.570312-135.324219 54.570312s-101.957031-21.0625-135.324219-54.570312c-6.425781-6.457032-11.050781-15.699219-13.246093-26.089844-.816407-5.519532-1.289063-11.136719-1.398438-16.84375.179688-11.132813 1.355469-22 3.433594-32.496094 14.714844-62.902344 74.726562-110 146.535156-110s131.820312 47.097656 146.535156 110.003906c2.078125 10.492188 3.253906 21.359375 3.429688 32.492188zm0 0" fill="#8cd246"/><path d="m304.613281 350c0 64.234375-55.789062 116.308594-124.613281 116.308594s-124.613281-52.074219-124.613281-116.308594 55.789062-116.308594 124.613281-116.308594 124.613281 52.074219 124.613281 116.308594zm0 0" fill="#c3e171"/><path d="m182.78125 295.207031 10.03125-24.722656c1.242188-3.066406 5.804688-2.160156 5.78125 1.148437l-.195312 26.683594c-.015626 2.691406 3.246093 4.042969 5.136718 2.125l18.734375-19c2.320313-2.355468 6.183594.226563 4.898438 3.273438l-10.390625 24.574218c-1.046875 2.484376 1.453125 4.980469 3.933594 3.933594l24.574218-10.390625c3.046875-1.285156 5.628906 2.578125 3.277344 4.902344l-19.003906 18.730469c-1.917969 1.890625-.566406 5.15625 2.128906 5.136718l26.679688-.195312c3.308593-.023438 4.214843 4.539062 1.152343 5.78125l-24.726562 10.035156c-2.496094 1.011719-2.496094 4.546875 0 5.558594l24.726562 10.03125c3.0625 1.246094 2.15625 5.804688-1.152343 5.78125l-26.679688-.191406c-2.695312-.019532-4.046875 3.246094-2.128906 5.136718l19.003906 18.730469c2.351562 2.320313-.230469 6.1875-3.277344 4.898438l-24.574218-10.386719c-2.480469-1.050781-4.980469 1.449219-3.933594 3.929688l10.390625 24.578124c1.289062 3.046876-2.578125 5.628907-4.898438 3.273438l-18.734375-19.003906c-1.890625-1.917969-5.152344-.566406-5.136718 2.128906l.195312 26.679688c.023438 3.308593-4.535156 4.214843-5.78125 1.152343l-10.03125-24.726562c-1.015625-2.496094-4.546875-2.496094-5.5625 0l-10.03125 24.726562c-1.242188 3.0625-5.804688 2.15625-5.78125-1.152343l.195312-26.679688c.015626-2.695312-3.246093-4.046875-5.136718-2.128906l-18.734375 19.003906c-2.320313 2.355469-6.183594-.226562-4.898438-3.273438l10.390625-24.578124c1.046875-2.480469-1.453125-4.980469-3.933594-3.929688l-24.574218 10.386719c-3.046875 1.289062-5.628906-2.578125-3.277344-4.898438l19.003906-18.730469c1.917969-1.890624.566406-5.15625-2.128906-5.136718l-26.679688.191406c-3.308593.023438-4.214843-4.535156-1.152343-5.78125l24.726562-10.03125c2.496094-1.011719 2.496094-4.546875 0-5.558594l-24.726562-10.035156c-3.0625-1.242188-2.15625-5.804688 1.152343-5.78125l26.679688.195312c2.695312.019532 4.046875-3.246093 2.128906-5.136718l-19.003906-18.730469c-2.351562-2.324219.230469-6.1875 3.277344-4.902344l24.574218 10.390625c2.480469 1.046875 4.980469-1.449218 3.933594-3.933594l-10.390625-24.574218c-1.289062-3.046875 2.578125-5.628906 4.898438-3.273438l18.734375 19c1.890625 1.917969 5.152344.566406 5.136718-2.125l-.195312-26.683594c-.023438-3.308593 4.535156-4.214843 5.78125-1.148437l10.03125 24.722656c1.015625 2.496094 4.546875 2.496094 5.5625 0zm0 0" fill="#66a548"/><path d="m215 350c0 16.570312-15.671875 30-35 30s-35-13.429688-35-30 15.671875-30 35-30 35 13.429688 35 30zm0 0" fill="#d6ea9f"/></svg>