<svg height="512pt" viewBox="0 0 512.00075 512" width="512pt" xmlns="http://www.w3.org/2000/svg"><path d="m437.019531 437.019531c-99.972656 99.976563-262.0625 99.976563-362.039062 0-99.972657-99.972656-99.972657-262.0625 0-362.039062 99.972656-99.972657 262.0625-99.972657 362.039062 0 99.976563 99.976562 99.972657 262.066406 0 362.039062zm0 0" fill="#b7e3ef"/><path d="m464.617188 195.875c-24.121094 24.121094-63.226563 24.121094-87.347657 0-11.90625-11.90625-17.921875-27.464844-18.074219-43.070312-15.605468-.152344-31.164062-6.167969-43.070312-18.074219-24.117188-24.121094-24.117188-63.226563 0-87.347657 19.59375-19.59375 49.078125-23.273437 72.382812-11.035156 24.257813-21.332031 61.242188-20.429687 84.410157 2.738282 23.167969 23.164062 24.070312 60.148437 2.734375 84.410156 12.238281 23.304687 8.558594 52.785156-11.035156 72.378906zm0 0" fill="#019256"/><path d="m412.691406 66.078125c6.101563 7.84375 5.5625 19.183594-1.648437 26.394531-7.808594 7.808594-20.472657 7.808594-28.28125 0-6.910157-6.910156-7.695313-17.613281-2.378907-25.402344-20.976562-3.320312-43.195312 3.09375-59.363281 19.261719-8.648437 8.648438-14.492187 19.035157-17.5625 30.03125-10.199219-22.714843-5.984375-50.324219 12.667969-68.980469 19.59375-19.59375 49.074219-23.269531 72.382812-11.03125 24.257813-21.335937 61.242188-20.433593 84.410157 2.734376 9.40625 9.410156 15.144531 21.09375 17.210937 33.285156-22.246094-18.125-53.175781-20.207032-77.4375-6.292969zm0 0" fill="#00824d"/><path d="m459.597656 246.367188c-5.605468 25.71875-27.375 45.9375-54.976562 48.351562-33.980469 2.976562-63.941406-22.164062-66.914063-56.144531-1.46875-16.773438 3.925781-32.558594 13.835938-44.609375-6.761719-5.789063-12.28125-13.035156-16.050781-21.304688-5.335938-3.34375-10.117188-7.464844-14.175782-12.203125-12.050781 9.914063-27.835937 15.304688-44.609375 13.835938-33.984375-2.972657-59.121093-32.929688-56.148437-66.910157 2.414062-27.605468 22.636718-49.375 48.355468-54.980468 4.871094-31.9375 33.78125-55.019532 66.417969-52.160156 32.640625 2.851562 57.101563 30.605468 56.355469 62.902343 14.628906 6 26.28125 17.398438 32.742188 31.527344 10.824218 6.773437 19.46875 16.832031 24.425781 28.921875 32.296875-.75 60.046875 23.714844 62.902343 56.351562 2.859376 32.636719-20.222656 61.550782-52.160156 66.421876zm0 0" fill="#23c77d"/><path d="m322.253906 80.90625c-.960937 11.003906-10.660156 19.144531-21.667968 18.179688-9.734376-.851563-17.214844-8.546876-18.144532-17.925782-11.199218 6.726563-20.386718 16.578125-26.261718 28.46875 9.589843 2.179688 16.347656 11.144532 15.46875 21.21875-.964844 11.003906-10.664063 19.144532-21.667969 18.179688-.109375-.007813-.207031-.03125-.316407-.042969.890626 6.796875 2.777344 13.3125 5.53125 19.382813-22.414062-10.847657-36.933593-34.707032-34.632812-60.984376 2.414062-27.605468 22.632812-49.375 48.351562-54.980468 4.871094-31.9375 33.78125-55.019532 66.421876-52.160156 13.253906 1.15625 25.160156 6.425781 34.578124 14.433593-28.6875.417969-53.71875 18.699219-63.363281 44.957031 9.71875 2.085938 16.59375 11.113282 15.703125 21.273438zm189.507813 99.039062c-2.855469-32.636718-30.605469-57.101562-62.90625-56.351562-9.984375-24.355469-34.933594-40.488281-62.539063-38.074219-26.277344 2.296875-47.253906 20.742188-54.042968 44.699219 9.421874-6.453125 20.574218-10.652344 32.757812-11.71875 11.363281-.996094 22.316406.84375 32.175781 4.917969-6.890625 5.289062-11.019531 13.867187-10.207031 23.160156 1.265625 14.460937 14.015625 25.160156 28.480469 23.894531 7.753906-.679687 14.421875-4.660156 18.75-10.4375.113281.269532.234375.53125.34375.800782 33.570312-.777344 62.710937 22.9375 68.976562 55.667968 6.253907-10.664062 9.371094-23.304687 8.210938-36.558594zm-73.503907 20.132813c-11.007812.960937-19.144531 10.660156-18.183593 21.664063.964843 11.003906 10.664062 19.144531 21.667969 18.183593 11.003906-.964843 19.144531-10.664062 18.179687-21.667969-.960937-11.003906-10.664063-19.144531-21.664063-18.179687zm0 0" fill="#03ad6b"/><path d="m511.761719 296.277344c-2.855469-32.636719-30.605469-57.101563-62.90625-56.351563-8.421875-20.546875-27.496094-35.238281-49.824219-37.882812-.214844-.429688-.421875-.859375-.644531-1.285157 21.335937-24.261718 20.433593-61.246093-2.734375-84.410156-23.167969-23.167968-60.148438-24.070312-84.410156-2.734375-23.304688-12.238281-52.789063-8.5625-72.378907 11.03125-24.121093 24.121094-24.121093 63.230469 0 87.351563 4.882813 4.882812 10.382813 8.757812 16.246094 11.660156l-25.628906 25.628906-32.527344-32.527344-164.359375 164.363282c11.226562 20.023437 25.351562 38.863281 42.386719 55.898437 19.886719 19.890625 42.238281 35.804688 66.0625 47.78125l140.765625-140.765625c16.566406-16.566406 39.4375-23.058594 60.964844-19.511718-4.105469 9.234374-6.007813 19.601562-5.066407 30.382812 2.976563 33.984375 32.933594 59.121094 66.914063 56.148438 27.605468-2.417969 49.371094-22.636719 54.976562-48.355469 31.9375-4.871094 55.019532-33.78125 52.164063-66.421875zm-226.355469-46.347656c2.964844 8.476562 7.828125 16.433593 14.601562 23.207031 4.800782 4.800781 10.199219 8.628906 15.949219 11.519531-13.273437 1.855469-26.273437 6.128906-38.277343 12.820312l-19.910157-19.910156zm0 0" fill="#6ed1a0"/><path d="m333.78125 169.734375c-7.808594 7.808594-20.472656 7.808594-28.285156 0-6.910156-6.910156-7.691406-17.613281-2.375-25.398437-18.117188-2.871094-37.160156 1.53125-52.429688 13.199218 6.707032-1.839844 14.179688-.140625 19.453125 5.128906 7.808594 7.808594 7.808594 20.472657 0 28.28125-7.8125 7.8125-20.476562 7.8125-28.285156 0-5.140625-5.140624-6.875-12.382812-5.25-18.960937-3.527344 4.890625-6.328125 10.136719-8.414063 15.597656-1.394531 22.457031-9.625 44.5625-24.699218 62.898438-.902344 1.390625-1.960938 2.710937-3.179688 3.929687l-151.710937 151.710938c-8.164063-11.25-15.296875-23.015625-21.40625-35.164063l140.765625-140.765625c27.292968-27.292968 27.292968-71.703125 0-98.996094l28.285156-28.28125c13.34375 13.34375 22.535156 29.292969 27.574219 46.222657 2.914062-8.953125 7.921875-17.375 15.039062-24.492188 19.59375-19.589843 49.074219-23.269531 72.378907-11.03125 24.261718-21.335937 61.246093-20.433593 84.414062 2.734375 9.40625 9.410156 15.144531 21.09375 17.210938 33.285156-22.246094-18.121093-53.175782-20.207031-77.4375-6.292968 6.101562 7.84375 5.5625 19.183594-1.648438 26.394531zm-112.429688 113.84375c-5.664062-5.660156-14.84375-5.660156-20.503906 0l-139.136718 139.132813c4.207031 4.894531 8.632812 9.667968 13.269531 14.308593 2.25 2.25 4.542969 4.433594 6.855469 6.582031l139.515624-139.519531c5.664063-5.660156 5.664063-14.839843 0-20.503906zm14.847657 35.355469-138.367188 138.367187c7.789063 6.140625 15.855469 11.761719 24.148438 16.867188l134.726562-134.730469c5.660157-5.660156 5.664063-14.84375 0-20.503906-5.664062-5.664063-14.84375-5.664063-20.507812 0zm275.5625-22.65625c-2.855469-32.636719-30.605469-57.101563-62.90625-56.351563-9.984375-24.355469-34.933594-40.488281-62.539063-38.074219-9.636718.84375-18.554687 3.867188-26.328125 8.527344-7.835937-5.953125-19.054687-5.375-26.207031 1.78125-7.8125 7.808594-7.8125 20.472656 0 28.28125.136719.140625 9.921875 5.671875 13.257812 5.816406-.90625 2.585938-1.300781 5.398438-1.046874 8.308594.964843 11.003906 10.664062 19.144532 21.667968 18.183594 11.003906-.964844 19.144532-10.664062 18.183594-21.667969-.652344-7.425781-5.285156-13.53125-11.605469-16.433593 19.199219.878906 36.613281 9.746093 48.648438 23.589843-9.078125 2.546875-15.355469 11.25-14.503907 20.984375.960938 11.003906 10.660157 19.144532 21.664063 18.179688 10.160156-.886719 17.859375-9.226563 18.226563-19.160156 27.53125 4.9375 49.886718 26.417968 55.277343 54.597656 6.253907-10.667969 9.371094-23.304688 8.210938-36.5625zm-108.984375 33.628906c-11.003906.964844-19.144532 10.664062-18.179688 21.667969.960938 11.003906 10.664063 19.144531 21.667969 18.179687 11-.960937 19.140625-10.664062 18.179687-21.667968-.960937-11.003907-10.664062-19.144532-21.667968-18.179688zm0 0" fill="#54cc87"/><path d="m307.335938 125.683594c-2.972657 33.980468-32.933594 59.117187-66.914063 56.144531-16.773437-1.46875-31.382813-9.515625-41.53125-21.371094-12.050781 9.914063-27.835937 15.304688-44.609375 13.835938-33.984375-2.972657-59.121094-32.933594-56.148438-66.914063 2.414063-27.601562 22.636719-49.371094 48.355469-54.976562 4.871094-31.9375 33.78125-55.019532 66.417969-52.164063s57.101562 30.605469 56.355469 62.90625c24.355469 9.984375 40.488281 34.933594 38.074219 62.539063zm0 0" fill="#23c77d"/><path d="m199.828125 80.90625c-.964844 11.003906-10.664063 19.144531-21.667969 18.179688-9.734375-.851563-17.214844-8.546876-18.144531-17.925782-11.199219 6.726563-20.386719 16.578125-26.265625 28.46875 9.59375 2.179688 16.351562 11.144532 15.46875 21.21875-.960938 11.003906-10.660156 19.144532-21.664062 18.179688-.109376-.007813-.210938-.03125-.316407-.042969.886719 6.796875 2.777344 13.3125 5.53125 19.382813-22.414062-10.847657-36.933593-34.707032-34.636719-60.984376 2.417969-27.605468 22.636719-49.375 48.355469-54.980468 4.871094-31.9375 33.78125-55.019532 66.417969-52.160156 13.257812 1.15625 25.164062 6.425781 34.582031 14.433593-28.6875.417969-53.722656 18.699219-63.367187 44.957031 9.71875 2.085938 16.597656 11.113282 15.707031 21.273438zm0 0" fill="#03ad6b"/></svg>