<svg height="512pt" viewBox="0 0 512 512" width="512pt" xmlns="http://www.w3.org/2000/svg"><path d="m512 256c0 141.386719-114.613281 256-256 256s-256-114.613281-256-256 114.613281-256 256-256 256 114.613281 256 256zm0 0" fill="#cc4978"/><path d="m432.742188 122.457031c14.773437 23.078125 31.617187 44.765625 50.992187 64.140625l2.332031 2.332032c3.90625 3.90625 3.90625 10.234374 0 14.140624l-2.332031 2.332032c-19.375 19.375-36.21875 41.0625-50.992187 64.140625-27.746094 43.339843-79.269532 72.457031-138.246094 72.457031-58.972656 0-110.496094-29.117188-138.242188-72.457031-14.777344-23.078125-31.617187-44.765625-50.996094-64.140625l-2.328124-2.332032c-3.90625-3.90625-3.90625-10.234374 0-14.140624l2.328124-2.332032c19.378907-19.375 36.21875-41.0625 50.996094-64.140625 27.746094-43.339843 79.265625-72.457031 138.242188-72.457031 58.980468 0 110.5 29.117188 138.246094 72.457031zm0 0" fill="#d9a92f"/><path d="m483.734375 186.597656c-19.375-19.375-36.21875-41.0625-50.992187-64.136718-27.746094-43.34375-79.269532-72.460938-138.246094-72.460938-58.972656 0-110.496094 29.117188-138.242188 72.457031-14.777344 23.078125-31.617187 44.765625-50.996094 64.140625l-2.058593 2.058594c8.707031 7.347656 16.898437 14.953125 24.621093 22.765625 29.226563 29.5625 80.328126 50.636719 140.183594 55.5 1.09375.085937 1.996094-.800781 1.996094-1.902344 0-.003906 0-.011719 0-.019531 0-8.367188 6.851562-15.132812 15.246094-14.996094 7.589844.121094 14.019531 6.117188 14.695312 13.679688.066406.769531.074219 1.527344.027344 2.269531-.070312 1.074219.804688 1.980469 1.878906 1.953125 25.289063-.558594 49.328125-3.992188 71.214844-9.769531 1.324219-.347657 1.820312-1.992188.890625-3-2.542969-2.765625-4.0625-6.480469-3.949219-10.558594.214844-7.746094 6.523438-14.195313 14.265625-14.5625 8.617188-.40625 15.730469 6.460937 15.730469 14.984375 0 .535156-.027344 1.066406-.085938 1.589844-.148437 1.382812 1.234376 2.402344 2.523438 1.890625 23.960938-9.582031 44.097656-22.25 58.734375-37.054688 7.722656-7.8125 15.917969-15.421875 24.625-22.765625zm-303.734375-31.597656c0-8.285156 6.714844-15 15-15s15 6.714844 15 15-6.714844 15-15 15-15-6.714844-15-15zm30 70c-8.285156 0-15-6.714844-15-15s6.714844-15 15-15 15 6.714844 15 15-6.714844 15-15 15zm40-100c-8.285156 0-15-6.714844-15-15s6.714844-15 15-15 15 6.714844 15 15-6.714844 15-15 15zm45 95c-8.285156 0-15-6.714844-15-15s6.714844-15 15-15 15 6.714844 15 15-6.714844 15-15 15zm30-50c-8.285156 0-15-6.714844-15-15s6.714844-15 15-15 15 6.714844 15 15-6.714844 15-15 15zm55-45c-8.285156 0-15-6.714844-15-15s6.714844-15 15-15 15 6.714844 15 15-6.714844 15-15 15zm45 65c-8.285156 0-15-6.714844-15-15s6.714844-15 15-15 15 6.714844 15 15-6.714844 15-15 15zm0 0" fill="#f1bd1f"/><path d="m310 350c0 77.320312-62.679688 140-140 140s-140-62.679688-140-140 62.679688-140 140-140 140 62.679688 140 140zm0 0" fill="#f5cf51"/><path d="m187 488.96875c-5.574219.675781-11.246094 1.03125-17 1.03125-77.320312 0-140-62.679688-140-140s62.679688-140 140-140c5.753906 0 11.425781.355469 17 1.03125-69.300781 8.390625-123 67.402344-123 138.96875s53.699219 130.578125 123 138.96875zm0 0" fill="#f1bd1f"/><path d="m280 350c0 60.75-49.25 110-110 110s-110-49.25-110-110 49.25-110 110-110 110 49.25 110 110zm0 0" fill="#fdf164"/><path d="m190 458.179688c-6.484375 1.191406-13.167969 1.820312-20 1.820312-60.75 0-110-49.25-110-110s49.25-110 110-110c6.832031 0 13.515625.628906 20 1.820312-51.199219 9.40625-90 54.257813-90 108.179688s38.800781 98.773438 90 108.179688zm0 0" fill="#fdee32"/><path d="m192.582031 366.097656 55.203125 61.679688c-.410156.410156-.828125.816406-1.246094 1.21875l-61.667968-55.1875c-5.378906-4.816406-13.945313-1.277344-14.355469 5.933594l-4.554687 80.175781c-.582032-.019531-1.164063-.039063-1.746094-.066407l-4.550782-80.078124c-.410156-7.214844-8.984374-10.753907-14.363281-5.925782l-56.324219 50.542969c-.628906-.683594-1.25-1.375-1.863281-2.074219l50.507813-56.285156c4.816406-5.367188 1.308594-13.921875-5.890625-14.359375l-71.699219-4.378906c.019531-.65625.046875-1.308594.074219-1.960938l71.90625-4.390625c7.144531-.4375 10.675781-8.894531 5.960937-14.28125l-46.75-53.421875c.257813-.265625.515625-.535156.78125-.800781l53.429688 46.761719c5.390625 4.714843 13.847656 1.183593 14.28125-5.964844l4.464844-73.082031c.601562-.03125 1.210937-.050782 1.816406-.070313l4.46875 73.199219c.4375 7.140625 8.875 10.671875 14.269531 5.972656l57.679687-52.050781c.632813.554687 1.257813 1.117187 1.878907 1.683594l-52.082031 57.714843c-4.710938 5.402344-1.148438 13.863282 6.007812 14.269532l81.679688 4.644531c.023437.53125.046874 1.0625.0625 1.597656l-81.445313 4.628907c-7.207031.40625-10.75 8.972656-5.933594 14.355468zm0 0" fill="#fbf1d1"/></svg>