<svg height="512pt" viewBox="0 0 512 512" width="512pt" xmlns="http://www.w3.org/2000/svg"><path d="m512 256c0 141.386719-114.613281 256-256 256-50.066406 0-96.769531-14.386719-136.21875-39.230469-20.472656-32.503906-48.046875-60.078125-80.550781-80.550781-24.84375-39.449219-39.230469-86.152344-39.230469-136.21875 0-141.386719 114.613281-256 256-256s256 114.613281 256 256zm0 0" fill="#cc4978"/><path d="m492.121094 216.246094c11.8125 16.058594 16.710937 33.738281 12.394531 50.757812-5.222656 20.585938-22.960937 36.421875-47.636719 45.578125.792969 6.328125.460938 12.683594-1.128906 18.945313-7.515625 29.625-40.960938 49.414062-83.691406 53.609375-4.703125 15.359375-16.523438 27.921875-32.984375 36.863281-15.160157 8.230469-34.257813 13.390625-55.402344 14.796875-4.671875 4.425781-12 6.738281-17.671875 10.703125-16.898438 20.324219-51.136719 28.304688-89.5 27.25-22.5 1.710938-40.332031 4.4375-57.089844-2.214844-32.222656-20.367187-59.578125-47.722656-79.945312-79.941406-6.648438-16.761719-.84375-36.757812.871094-59.261719-1.054688-38.363281 5.003906-67.097656 25.332031-84 3.964843-5.671875 5.109375-16.332031 9.535156-21.003906 1.40625-21.144531 6.566406-40.242187 14.796875-55.402344 8.941406-16.460937 21.503906-28.28125 36.863281-32.984375 4.195313-42.730468 23.984375-76.175781 53.609375-83.691406 6.261719-1.589844 12.617188-1.921875 18.945313-1.128906 9.15625-24.675782 24.992187-42.414063 45.578125-47.636719 17.019531-4.316406 34.699218.582031 50.757812 12.394531 29.179688-20.273437 60.042969-26.164062 82.324219-12.417968 21.355469 13.175781 37.664063 42.902343 33.921875 76.207031 4.679688 3.4375 1.367188 6.269531 5.128906 11.203125 4.933594 3.761718 5.769532 1.617187 9.207032 6.296875 33.300781-3.742188 65.027343 11.398437 78.203124 32.753906 13.746094 22.28125 7.855469 53.144531-12.417968 82.324219zm0 0" fill="#d6ea9f"/><path d="m66.5625 428.140625c-10.019531-11.019531-19.105469-22.902344-27.097656-35.546875-6.652344-16.761719-.84375-36.757812.867187-59.257812-1.054687-38.363282 5.007813-67.101563 25.332031-84 3.96875-5.675782 5.113282-16.332032 9.535157-21.007813 1.40625-21.144531 6.566406-40.238281 14.800781-55.402344 8.9375-16.460937 21.503906-28.28125 36.863281-32.980469 4.195313-42.734374 23.980469-76.179687 53.605469-83.695312 6.265625-1.589844 12.617188-1.921875 18.945312-1.128906 9.15625-24.675782 24.996094-42.414063 45.578126-47.636719 17.019531-4.316406 34.703124.585937 50.761718 12.394531 29.179688-20.273437 60.042969-26.164062 82.324219-12.417968 19.644531 12.121093 35.003906 38.242187 34.429687 68.273437-4.972656-19.792969-16.894531-36.09375-31.113281-44.867187-19.554687-12.066407-45.890625-8.621094-71.707031 6.601562-5.109375 3.015625-11.464844 3.203125-16.621094.269531-13.410156-7.636719-27.660156-10.351562-41.457031-6.847656-17.222656 4.367187-31.035156 17.71875-40.253906 36.621094-2.636719 5.40625-7.855469 9.140625-13.863281 9.539062-2.949219.195313-5.890626.652344-8.8125 1.394531-26.722657 6.78125-45.238282 35.195313-51.101563 72.402344-.832031 5.269532-4.039063 9.894532-8.816406 12.265625-11.535157 5.730469-15.078125 40.902344-22.261719 54.136719-8.03125 14.785156-19.109375 8.390625-20.480469 29.011719-4.316406 4.558593-5.429687 14.953125-9.296875 20.484375-19.824218 16.484375-25.734375 44.507812-24.707031 81.917968-1.671875 21.945313-7.332031 41.449219-.847656 57.792969 4.746093 7.511719 9.894531 14.742188 15.394531 21.683594zm0 0" fill="#c3e171"/><path d="m442.183594 250.175781c2.230468 5.976563 3.371094 12.234375 3.269531 18.695313-.488281 30.558594-28.472656 57.523437-69.085937 71.449218-2.109376 32.613282-35.476563 60.785157-81.695313 72.808594-.554687 3.007813-1.402344 5.96875-2.515625 8.871094-12.648438 33.035156-60.03125 58.265625-116.164062 59.160156-19.941407.316406-38.671876-2.480468-55.066407-7.675781-33.382812-20.78125-61.628906-49.023437-82.40625-82.410156-5.195312-16.394531-7.992187-35.125-7.675781-55.0625.890625-56.136719 26.121094-103.519531 59.15625-116.167969 2.902344-1.109375 5.863281-1.957031 8.871094-2.515625 12.023437-46.214844 40.195312-79.585937 72.808594-81.691406 13.925781-40.617188 40.890624-68.601563 71.449218-69.085938 6.460938-.105469 12.71875 1.039063 18.695313 3.265625 14.597656-21.898437 34.097656-35.511718 55.328125-35.847656 17.851562-.285156 34.175781 8.855469 47.1875 24.515625 33.09375-13.035156 64.523437-11.667969 83.050781 6.859375 18.511719 18.511719 19.890625 49.902344 6.886719 82.96875 15.191406 12.902344 24.039062 28.980469 23.757812 46.535156-.339844 21.230469-13.949218 40.730469-35.851562 55.328125zm0 0" fill="#03ad6b"/><path d="m442.183594 250.175781c2.230468 5.976563 3.371094 12.234375 3.269531 18.695313-.488281 30.558594-28.472656 57.519531-69.085937 71.449218-2.109376 32.613282-35.476563 60.785157-81.695313 72.804688-.554687 3.011719-1.402344 5.972656-2.515625 8.875-12.648438 33.03125-60.03125 58.265625-116.164062 59.15625-19.976563.320312-38.71875-2.5-55.128907-7.714844-11.460937-7.136718-22.316406-15.144531-32.472656-23.941406-3.386719-2.9375-3.617187-8.109375-.457031-11.289062l16.210937-16.210938c2.746094-2.746094 7.085938-2.984375 10.167969-.617188 17.019531 13.058594 38.277344 19.699219 59.921875 18.46875 5.402344-.308593 9.882813-4.652343 9.851563-10.058593-.039063-5.789063-4.921876-10.285157-10.621094-9.933594-15.183594.945313-30.128906-3.105469-42.660156-11.304687-4.109376-2.691407-4.769532-8.445313-1.292969-11.921876l29.121093-29.121093c2.746094-2.746094 7.085938-2.980469 10.164063-.617188 17.019531 13.058594 38.277344 19.703125 59.925781 18.46875 5.398438-.304687 9.882813-4.648437 9.847656-10.058593-.035156-5.789063-4.917968-10.285157-10.621093-9.929688-15.179688.945312-30.125-3.109375-42.65625-11.308594-4.113281-2.6875-4.769531-8.445312-1.296875-11.917968l31.203125-31.203126c2.746093-2.746093 7.085937-2.980468 10.167969-.617187 17.019531 13.058594 38.277343 19.699219 59.921874 18.46875 5.402344-.308594 9.882813-4.652344 9.851563-10.058594-.039063-5.789062-4.921875-10.285156-10.621094-9.929687-15.183593.941406-30.128906-3.109375-42.660156-11.308594-4.109375-2.691406-4.769531-8.445312-1.292969-11.921875l28.976563-28.976563c4.0625-4.0625 3.898437-10.746093-.484375-14.597656-4.003906-3.515625-10.132813-3.066406-13.898438.699219l-28.734375 28.734375c-3.453125 3.449219-9.203125 2.851562-11.878906-1.230469-8.1875-12.476562-12.253906-27.355469-11.367187-42.484375.308593-5.238281-3.378907-10.046875-8.578126-10.761718-5.832031-.804688-11.007812 3.515624-11.367187 9.28125-1.355469 21.824218 5.292969 43.273437 18.460937 60.421874 2.359376 3.070313 2.101563 7.398438-.636718 10.136719l-31.203125 31.203125c-3.453125 3.453125-9.203125 2.851563-11.878907-1.226562-8.183593-12.480469-12.253906-27.359375-11.363281-42.488282.308594-5.238281-3.378906-10.042968-8.578125-10.761718-5.832031-.800782-11.011718 3.519531-11.371094 9.285156-1.355468 21.820312 5.296876 43.273438 18.464844 60.417969 2.355469 3.070312 2.097656 7.402343-.640625 10.136719l-29.121093 29.121093c-3.449219 3.453125-9.203126 2.855469-11.878907-1.226562-8.183593-12.476563-12.253906-27.359375-11.363281-42.484375.308594-5.242188-3.378906-10.046875-8.578125-10.761719-5.832031-.804687-11.011719 3.515625-11.367187 9.28125-1.359376 21.820313 5.292968 43.273437 18.460937 60.421875 2.355469 3.066406 2.101563 7.398438-.636719 10.136719l-16.148437 16.148437-.066407.0625c-3.195312 3.175782-8.394531 2.917969-11.328124-.503906-.09375-.109375-.1875-.214844-.28125-.324219-10.292969-11.929687-15.339844-27.535156-13.839844-43.222656.390625-4.117187 1.015625-8.25 1.882812-12.378906 6.0625-28.863281 18.386719-61.636719 39.777344-96.871094 19.953125-32.871094 47.796875-67.886719 85.800781-103.871094 80.0625-75.800781 183.941407-106.398437 271.652344-101.488281 18.449219 18.523438 19.8125 49.875 6.824219 82.902344 15.191406 12.902344 24.035156 28.980468 23.757812 46.539062-.339844 21.230469-13.949218 40.730469-35.851562 55.328125zm0 0" fill="#54cc87"/></svg>