<svg height="512pt" viewBox="0 0 512 512.00043" width="512pt" xmlns="http://www.w3.org/2000/svg"><path d="m427.566406 436.332031h-343.75c-6.222656 0-12.164062-2.609375-16.375-7.195312-41.875-45.574219-67.441406-106.367188-67.441406-173.136719 0-141.226562 114.355469-255.742188 255.523438-256 140.867187-.257812 256.125 114.480469 256.476562 255.347656.167969 66.828125-25.28125 127.703125-67.066406 173.382813-4.453125 4.867187-10.769532 7.601562-17.367188 7.601562zm0 0" fill="#f7ad3b"/><path d="m271.992188 100h-172c-5.523438 0-10-4.476562-10-10v-40c0-5.523438 4.476562-10 10-10h172c5.523437 0 10 4.476562 10 10v40c0 5.523438-4.476563 10-10 10zm0 0" fill="#3a91a5"/><path d="m109.742188 40h15v22.5c0 4.140625-3.355469 7.5-7.5 7.5-4.140626 0-7.5-3.359375-7.5-7.5zm34.375 22.5c0 4.140625 3.359374 7.5 7.5 7.5 4.144531 0 7.5-3.359375 7.5-7.5v-22.5h-15zm34.375 0c0 4.140625 3.359374 7.5 7.5 7.5 4.144531 0 7.5-3.359375 7.5-7.5v-22.5h-15zm34.375 0c0 4.140625 3.359374 7.5 7.5 7.5 4.144531 0 7.5-3.359375 7.5-7.5v-22.5h-15zm34.375-22.5v22.5c0 4.140625 3.359374 7.5 7.5 7.5 4.144531 0 7.5-3.359375 7.5-7.5v-22.5zm0 0" fill="#2b697a"/><path d="m305.992188 180v40h-240v-40l24-100h192zm0 0" fill="#99c8d3"/><path d="m100 180v40h-34.007812v-40l24-100h34.007812zm0 0" fill="#89b2c4"/><path d="m271.046875 511.546875c-4.980469.289063-9.992187.453125-15.046875.453125-75.386719 0-143.15625-32.589844-190.007812-84.445312v-247.554688h240v292c0 17.761719-9.007813 36.179688-25.644532 38.839844-2.164062.347656-8.789062.675781-9.300781.707031zm0 0" fill="#3a91a5"/><path d="m268.75 511.109375c1.351562.109375 2.703125.210937 4.054688.300781.003906.117188 0-.09375.003906.027344-5.558594.359375-11.160156.5625-16.808594.5625-75.386719 0-143.15625-32.589844-190.007812-84.445312v-247.554688h34.007812v146.378906c0 95.957032 73.117188 176.863282 168.75 184.730469zm0 0" fill="#347d91"/><path d="m215.992188 115v25c0 8.285156-13.429688 15-30 15-16.566407 0-30-6.714844-30-15v-25zm0 0" fill="#2b697a"/><path d="m215.992188 115c0 8.285156-13.429688 15-30 15-16.566407 0-30-6.714844-30-15s13.433593-15 30-15c16.570312 0 30 6.714844 30 15zm0 0" fill="#3a91a5"/><path d="m143.898438 379.421875c-19.105469-19.101563-22.558594-48.835937-8.34375-71.8125l46.984374-75.9375c1.164063-1.882813 3.902344-1.882813 5.070313 0l46.984375 75.9375c14.214844 22.976563 10.757812 52.710937-8.34375 71.8125-11.019531 11.019531-25.351562 16.699219-39.785156 17.039063-15.363282.367187-30.84375-5.3125-42.566406-17.039063zm0 0" fill="#fbf1d1"/><path d="m234.59375 307.609375c9.980469 16.132813 11.238281 35.59375 4.496094 52.367187-7.675782 3.28125-15.851563 5.027344-24.0625 5.222657-17.183594.40625-34.5-5.945313-47.613282-19.0625-16.710937-16.707031-22.71875-40.683594-16.945312-62.632813l32.070312-51.832031c1.164063-1.882813 3.90625-1.882813 5.070313 0zm0 0" fill="#fff5f5"/><path d="m153.128906 315.609375c0-5.566406 4.511719-10.074219 10.078125-10.074219 5.566407 0 10.078125 4.511719 10.078125 10.074219 0 5.566406-4.515625 10.078125-10.078125 10.078125-5.566406 0-10.078125-4.511719-10.078125-10.078125zm53.8125 33.660156c-5.566406 0-10.078125 4.511719-10.078125 10.078125s4.515625 10.074219 10.078125 10.074219c5.566406 0 10.078125-4.511719 10.078125-10.074219 0-5.566406-4.511719-10.078125-10.078125-10.078125zm8.457032-40.148437-1.96875-1.96875c-2.925782-2.929688-7.675782-2.929688-10.605469 0l-48.074219 48.078125c-2.929688 2.929687-2.929688 7.675781 0 10.605469l1.964844 1.96875c2.929687 2.929687 7.679687 2.929687 10.609375 0l48.074219-48.078126c2.929687-2.925781 2.929687-7.675781 0-10.605468zm0 0" fill="#347d91"/><path d="m360.75 489.636719c-24.9375 11.195312-51.992188 18.523437-80.402344 21.203125-7.765625-2.746094-13.339844-10.132813-13.339844-18.839844v-257c0-2.761719 2.238282-5 5-5h169c2.761719 0 5 2.238281 5 5v192.554688c-9.792968 10.835937-20.503906 20.820312-32.003906 29.851562-.492187.386719-1.101562.59375-1.726562.59375h-19.894532c-17.46875 0-31.632812 14.164062-31.632812 31.636719zm0 0" fill="#99c8d3"/><path d="m360.75 489.628906c-18.316406 8.226563-37.769531 14.371094-58.066406 18.113282-4.675782-3.664063-7.6875-9.34375-7.6875-15.742188v-257c0-2.761719 2.238281-5 5-5h141.011718c2.761719 0 5 2.238281 5 5v192.554688c-9.796874 10.84375-20.519531 20.839843-32.027343 29.875-.472657.371093-1.054688.570312-1.652344.570312h-19.949219c-17.46875 0-31.628906 14.160156-31.628906 31.628906zm0 0" fill="#afdbe1"/><path d="m415.007812 272v184.628906c-16.773437 13.3125-35.253906 24.558594-55.058593 33.371094h-44.953125c-11.046875 0-20-8.953125-20-20v-168c0-1.105469.894531-2 2-2 17.753906 0 35.265625-4.132812 51.148437-12.074219l11.699219-5.851562c15.882812-7.941407 33.394531-12.074219 51.148438-12.074219h2.015624c1.101563 0 2 .894531 2 2zm0 0" fill="#fbf1d1"/><path d="m415.007812 272v184.628906c-7.902343 6.273438-16.1875 12.078125-24.808593 17.398438-42.636719-25.65625-80.496094-91.15625-94.617188-172.316406-.054687-.316407-.101562-.625-.15625-.941407.367188-.464843.929688-.769531 1.566407-.769531 17.757812 0 35.269531-4.132812 51.148437-12.074219l11.703125-5.851562c15.882812-7.941407 33.394531-12.074219 51.148438-12.074219h2.015624c1.101563 0 2 .894531 2 2zm0 0" fill="#fff5f5"/></svg>