<svg height="512pt" viewBox="0 0 512 512" width="512pt" xmlns="http://www.w3.org/2000/svg"><path d="m512 256c0 141.386719-114.613281 256-256 256s-256-114.613281-256-256 114.613281-256 256-256 256 114.613281 256 256zm0 0" fill="#f5cf51"/><path d="m199.089844 221.121094c-.984375.980468-1.972656 1.953125-2.964844 2.914062-93.554688 90.460938-210.621094-26.605468-120.160156-120.160156.960937-.992188 1.933594-1.980469 2.914062-2.964844 55.015625-55.011718 126.695313-74.964844 170.980469-50.769531 24.195313 44.285156 4.242187 115.964844-50.769531 170.980469zm0 0" fill="#d58a2d"/><path d="m199.089844 221.121094c-.984375.980468-1.972656 1.953125-2.964844 2.910156-16.253906 15.71875-33.21875 25.167969-49.679688 29.566406-5.996093-1.679687-11.710937-4.035156-17.050781-6.976562-6.914062-3.808594-6.222656-13.917969 1.121094-16.8125 14.847656-5.847656 32.71875-16.453125 50.398437-30.613282 36.683594-29.378906 58.636719-62.914062 49.035157-74.902343-.300781-.375-.628907-.726563-.980469-1.050781-11.328125 17.417968-32.695312 39.898437-59.644531 61.480468-20.183594 16.167969-40.160157 29.152344-57.101563 37.703125-4.28125 2.160157-9.507812.769531-12.082031-3.277343-.195313-.304688-.386719-.617188-.582031-.925782-2.59375-4.207031-1.347656-9.75 2.746094-12.519531 11.410156-7.707031 28.625-22.492187 46.761718-40.628906 29.289063-29.289063 49.867188-56.195313 45.960938-60.101563s-30.8125 16.671875-60.101563 45.960938c-12.128906 12.128906-22.761719 23.84375-30.777343 33.691406-5.402344 6.628906-16.15625 3.046875-16.492188-5.496094-.003906-.089844-.007812-.175781-.011719-.265625-.066406-1.808593.375-3.605469 1.308594-5.15625 7.734375-12.855469 17.410156-26.746093 28.613281-40.738281 21.585938-26.949219 44.066406-48.316406 61.484375-59.644531-.324219-.355469-.675781-.683594-1.050781-.980469-2.09375-1.679688-4.84375-2.390625-8.113281-2.230469-2.675781.128907-3.808594-3.347656-1.503907-4.722656 19.828126-11.84375 40.214844-19.695313 59.628907-23.230469 7.808593 1.671875 15.144531 4.316406 21.847656 7.980469 24.195313 44.285156 4.242187 115.964844-50.769531 170.980469zm0 0" fill="#e2902a"/><path d="m106.726562 321.5c.75-.75 1.507813-1.488281 2.269532-2.214844 72.027344-68.574218 202.871094 62.269532 134.296875 134.292969-.726563.765625-1.46875 1.523437-2.21875 2.273437-42.03125 42.03125-105.945313 48.132813-151.886719 17.539063-30.59375-45.945313-24.496094-109.855469 17.539062-151.890625zm0 0" fill="#bb5335"/><path d="m164.101562 308.714844c1.109376-1.113282 2.226563-2.203125 3.351563-3.285156 1.410156-1.351563 2.832031-2.648438 4.261719-3.898438 63.335937 12.472656 122.550781 98.507812 71.578125 152.046875-.726563.765625-1.46875 1.523437-2.21875 2.273437-36.164063 36.164063-88.53125 45.726563-131.710938 28.203126-15.128906-56.207032 4.023438-124.625 54.738281-175.339844zm0 0" fill="#d25e3e"/><path d="m221.152344 390.21875c-17.488282 8.601562-36.582032 9.859375-52.039063 3.242188-6.617187-15.457032-5.355469-34.550782 3.242188-52.035157-20.324219-5.761719-36.335938-19.027343-43.023438-35.730469.019531-.042968.039063-.085937.058594-.132812 66.152344-28.953125 156.578125 61.472656 127.625 127.625-.046875.019531-.089844.039062-.132813.058594-16.707031-6.6875-29.96875-22.703125-35.730468-43.027344zm0 0" fill="#e5846a"/><path d="m468.664062 278.660156c13.417969 1.492188 24.574219 10.390625 29.109376 23.21875 4.539062 12.832032 1.460937 26.765625-8.03125 36.367188l-.421876.421875c-46.785156 46.789062-129.261718 40.445312-183.847656-14.140625-54.585937-54.585938-60.929687-137.0625-14.140625-183.847656l.421875-.421876c9.601563-9.492187 23.539063-12.570312 36.367188-8.03125 12.828125 4.535157 21.726562 15.691407 23.222656 29.109376 3.179688 28.558593 17.027344 56.378906 38.984375 78.335937 21.957031 21.960937 49.777344 35.804687 78.335937 38.988281zm0 0" fill="#fae8b1"/><path d="m498.78125 322.199219c-47.445312 24.46875-112.40625 12.519531-157.953125-33.027344s-57.496094-110.507813-33.027344-157.953125c6.554688-1.640625 13.585938-1.375 20.320313 1.007812 12.828125 4.539063 21.726562 15.691407 23.21875 29.109376 3.183594 28.558593 17.027344 56.378906 38.984375 78.339843 21.960937 21.957031 49.78125 35.800781 78.339843 38.984375 13.417969 1.492188 24.570313 10.390625 29.109376 23.21875 2.382812 6.734375 2.648437 13.765625 1.007812 20.320313zm-461.125-45.015625c-4.109375 8.089844-1.605469 19.605468 6.738281 27.949218 8.34375 8.347657 19.863281 10.851563 27.949219 6.738282 4.113281-8.089844 1.605469-19.605469-6.738281-27.949219-8.34375-8.347656-19.863281-10.851563-27.949219-6.738281zm382.234375-107.292969c8.34375-8.34375 10.847656-19.863281 6.738281-27.949219-8.089844-4.113281-19.605468-1.605468-27.949218 6.738282s-10.851563 19.859374-6.738282 27.949218c8.085938 4.109375 19.605469 1.605469 27.949219-6.738281zm0 0" fill="#fbf1d1"/><path d="m359.890625 449.890625c-8.34375 8.34375-19.863281 10.847656-27.949219 6.738281-4.113281-8.089844-1.605468-19.605468 6.738282-27.949218 8.34375-8.347657 19.859374-10.851563 27.949218-6.738282 4.109375 8.085938 1.605469 19.605469-6.738281 27.949219zm-11.832031-351.832031c4.113281-8.085938 1.609375-19.605469-6.734375-27.949219s-19.863281-10.847656-27.953125-6.734375c-4.109375 8.085938-1.605469 19.605469 6.738281 27.949219s19.863281 10.847656 27.949219 6.734375zm-146.117188 155.3125c-4.113281 8.089844-1.609375 19.605468 6.734375 27.949218 8.34375 8.347657 19.863281 10.851563 27.953125 6.738282 4.109375-8.085938 1.605469-19.605469-6.738281-27.949219s-19.863281-10.847656-27.949219-6.738281zm0 0" fill="#a0452c"/></svg>