<svg height="512pt" viewBox="0 0 512.00113 512" width="512pt" xmlns="http://www.w3.org/2000/svg"><path d="m437.019531 437.019531c-99.972656 99.976563-262.0625 99.976563-362.039062 0-99.972657-99.972656-99.972657-262.0625 0-362.039062 99.972656-99.972657 262.0625-99.972657 362.039062 0 99.976563 99.976562 99.976563 262.066406 0 362.039062zm0 0" fill="#cc4978"/><path d="m279.105469 346.902344c-7.875 19.847656-7.542969 41.589844.9375 61.226562 12.71875 29.445313 13.21875 62.066406 1.402343 91.84375-1.527343 3.847656-3.238281 7.585938-5.117187 11.207032-16.011719 1.269531-32.113281 1.035156-48.089844-.699219 6.800781-7.238281 12.253907-15.753907 16.027344-25.257813 7.871094-19.847656 7.539063-41.59375-.945313-61.230468-12.714843-29.445313-13.214843-62.0625-1.398437-91.84375 11.816406-29.777344 34.539063-53.183594 63.984375-65.902344l15.859375 36.722656c-19.636719 8.480469-34.785156 24.082031-42.660156 43.933594zm-40.332031-112.753906-5.539063 2.25c.558594-.894532 1.109375-1.796876 1.644531-2.707032l-34.472656-20.289062c-10.847656 18.433594-28.210938 31.53125-48.882812 36.886718-20.667969 5.351563-42.207032 2.324219-60.640626-8.527343-27.179687-15.996094-58.863281-20.640625-89.402343-13.15625-1.5000002 14.027343-1.84375 28.152343-1.035157 42.226562 3.082032-1.21875 6.25-2.277343 9.507813-3.121093 20.667969-5.351563 42.207031-2.324219 60.640625 8.523437 14.113281 8.308594 29.441406 13.550781 45.195312 15.628906-16.617187 14.039063-29.132812 32.40625-36.203124 53.585938-4.3125 12.921875-11.660157 24.273437-21.359376 33.28125-5.53125 5.136719-4.074218 35.328125 4.945313 45.636719 25.71875-14.632813 44.898437-37.933594 54.355469-66.25 6.773437-20.289063 21.027344-36.714844 40.128906-46.253907 14.445312-7.214843 30.371094-9.835937 46.050781-7.761719-.699219 2.136719-1.476562 4.257813-2.359375 6.351563-8.300781 19.675781-23.785156 34.949219-43.597656 43.003906-29.714844 12.082031-52.933594 34.996094-65.386719 64.511719-1.238281 2.9375-2.355469 5.90625-3.351562 8.902344-3.742188 11.246094.113281 23.636718 9.449219 30.9375 8.109374 6.339844 16.515624 12.121094 25.160156 17.355468-1.890625-14.003906-.03125-28.300781 5.597656-41.648437 8.300781-19.671875 23.78125-34.945313 43.597656-43.003906 29.714844-12.082031 52.933594-34.992188 65.386719-64.511719 12.445313-29.519531 12.652344-62.140625.570313-91.851562zm0 0" fill="#993457"/><path d="m193.253906 504.21875c-13.152344-3.3125-26.09375-7.675781-38.6875-13.105469 1.324219-8.054687 3.476563-16.035156 6.476563-23.828125 11.503906-29.902344 33.980469-53.542968 63.292969-66.566406 19.546874-8.683594 34.535156-24.445312 42.199218-44.375 4.308594-11.195312 5.992188-22.957031 5.113282-34.585938-.109376-1.4375-.761719-2.785156-1.785157-3.808593-3.0625-3.0625-8.234375-2.085938-9.988281 1.875-5.300781 11.957031-11.820312 23.667969-19.488281 34.894531-24.566407 35.960938-57.984375 62.742188-94.101563 75.40625-16.460937 5.769531-32.074218 15.9375-45.539062 29.445312-8.957032-6.847656-17.574219-14.355468-25.765625-22.550781-1.480469-1.476562-2.933594-2.972656-4.371094-4.480469 21.433594-23.238281 46.964844-40.632812 74.007813-50.117187 24.085937-8.445313 46.367187-26.296875 62.738281-50.265625 11.082031-16.222656 18.554687-33.949219 21.953125-51.625.320312-1.660156-.234375-3.371094-1.429688-4.566406-1.933594-1.933594-5.039062-2.023438-7.078125-.203125-19.710937 17.613281-41.953125 30.730469-65.128906 38.101562-24.320313 7.738281-47.117187 24.929688-64.183594 48.410157-14.644531 20.148437-23.5625 42.882812-25.710937 65.058593-12.34375-13.683593-22.933594-28.382812-31.804688-43.800781 6.382813-15.453125 14.816406-30.542969 25.160156-44.777344 25.605469-35.226562 59.792969-61.015625 96.265626-72.621094 9.535156-3.035156 18.824218-7.53125 27.628906-13.292968 6.765625-4.421875 7.808594-13.917969 2.09375-19.632813-2.226563-2.222656-5.195313-3.535156-8.339844-3.707031-8.433594-.457031-16.972656.429688-25.355469 2.71875-20.597656 5.621094-37.789062 18.945312-48.398437 37.519531-15.910156 27.847657-41.691406 47.828125-72.597656 56.261719-6.503907 1.777344-13.070313 2.988281-19.648438 3.65625-3.878906-12.960938-6.703125-26.171875-8.488281-39.496094 5.886719-.265625 11.785156-1.160156 17.605469-2.75 20.601562-5.621094 37.789062-18.945312 48.398437-37.515625 15.910156-27.851562 41.695313-47.835937 72.601563-56.269531 17.203124-4.691406 34.855468-5.496094 51.925781-2.542969 7.972656 1.378907 16.117187-1.15625 21.835937-6.875l.472656-.472656c4.175782-4.175781 6.65625-9.710937 7.183594-15.59375 2.9375-32.734375 18.125-66.285156 45-93.160156 54.671875-54.671875 136.984375-61.003907 183.847656-14.140625 46.863282 46.863281 40.53125 129.171875-14.144531 183.847656-25.632812 25.632812-57.339843 40.636719-88.621093 44.511719-9.207032 1.144531-17.765626 5.308593-24.324219 11.867187-7.625 7.621094-11.980469 17.90625-12.171875 28.683594-.246094 13.835938-2.917969 27.664062-8.03125 40.957031-11.503906 29.902344-33.980469 53.542969-63.292969 66.566407-19.546875 8.683593-34.535156 24.445312-42.203125 44.371093-2.824219 7.347657-4.523438 14.9375-5.121094 22.574219zm0 0" fill="#afdbe1"/><path d="m320.835938 71.007812c.597656.4375 1.167968.914063 1.699218 1.445313 8.117188 8.117187 4.9375 24.460937-7.105468 36.503906-12.039063 12.039063-28.382813 15.21875-36.5 7.101563-.253907-.253906-.5-.519532-.734376-.789063-3.945312 5.828125-7.480468 11.816407-10.617187 17.914063 6.292969-2.9375 12.71875-2.792969 16.503906.992187 5.484375 5.484375 3.335938 16.527344-4.800781 24.664063-7.796875 7.792968-18.246094 10.074218-23.933594 5.425781-2.5625 9.171875-4.265625 18.417969-5.089844 27.609375-.582031 6.5-3.324218 12.613281-7.941406 17.230469l-.523437.519531c-6.320313 6.324219-15.320313 9.125-24.128907 7.601562-18.871093-3.261718-34.578124-10.253906-53.589843-5.066406-12.421875 3.390625-24.644531 9.429688-36.378907 16.9375.320313 2.910156-.632812 5.933594-2.863281 8.164063-3.113281 3.113281-7.765625 3.738281-11.503906 1.886719-4.050781 3.066406-8.027344 6.261718-11.910156 9.53125 2.878906 3.910156 2.558593 9.4375-.980469 12.976562-3.824219 3.824219-9.964844 3.894531-13.886719.230469-2.488281 2.320312-4.925781 4.636719-7.304687 6.941406.265625.21875.523437.445313.773437.695313 4.34375 4.34375 4.34375 11.386718 0 15.730468s-11.390625 4.347656-15.734375 0c-.386718-.386718-.730468-.804687-1.050781-1.234375-2.144531 1.820313-4.242187 3.484375-6.296875 5.003907.371094.28125.734375.578124 1.074219.917968 3.902343 3.902344 3.902343 10.234375 0 14.140625-3.90625 3.90625-10.238281 3.90625-14.144531 0-1.574219-1.574219-2.5-3.539062-2.804688-5.585937-4.699219 2.09375-9.03125 3.355468-12.964844 3.972656 2.78125 2.9375 2.738282 7.574219-.140625 10.453125-2.929687 2.929687-7.675781 2.929687-10.605469 0-2.875-2.875-2.921874-7.496094-.15625-10.4375-8.949218-1.582031-14.207031-7.140625-14.902343-12.328125 5.886719-.261719 11.785156-1.160156 17.605469-2.746094 20.597656-5.621094 37.785156-18.945312 48.394531-37.519531 15.914062-27.851563 41.695312-47.832031 72.605469-56.265625 17.199218-4.695312 34.851562-5.496094 51.925781-2.542969 7.96875 1.375 16.113281-1.160156 21.832031-6.878906l.472656-.472656c4.175782-4.175781 6.65625-9.710938 7.1875-15.589844 2.933594-32.738281 18.121094-66.289063 44.996094-93.164063 43.402344-43.398437 104.21875-56.332031 150.894531-36.378906-32.851562-.539062-67.445312 10.433594-97.371093 32.410156zm-170.902344 339.144532c3.90625 3.902344 10.238281 3.902344 14.144531 0 2.101563-2.105469 3.0625-4.914063 2.898437-7.667969 4.582032-2.222656 9.066407-4.773437 13.433594-7.636719 3.929688 3.398438 9.871094 3.242188 13.601563-.488281 3.09375-3.097656 3.726562-7.714844 1.914062-11.441406 3.476563-3.105469 6.847657-6.398438 10.070313-9.902344 3.925781 3.140625 9.664062 2.894531 13.304687-.742187 3.902344-3.90625 3.902344-10.238282 0-14.144532-.257812-.253906-.527343-.492187-.800781-.714844.34375-.488281.695312-.964843 1.035156-1.457031 1.496094-2.195312 2.925782-4.414062 4.292969-6.65625 3.109375.554688 6.433594-.367187 8.835937-2.769531 3.894532-3.894531 3.902344-10.203125.027344-14.109375 4.273438-9.597656 7.402344-19.433594 9.289063-29.253906.328125-1.699219-.238281-3.449219-1.460938-4.675781-1.976562-1.976563-5.152343-2.066407-7.234375-.203126-4.21875 3.769532-8.554687 7.324219-12.984375 10.675782-3.523437 7.949218-7.847656 15.730468-12.945312 23.191406-16.371094 23.96875-38.652344 41.820312-62.742188 50.265625-27.039062 9.480469-52.570312 26.878906-74.003906 50.117187 1.4375 1.507813 2.890625 3 4.371094 4.480469 4.390625 4.390625 8.90625 8.578125 13.53125 12.582031 1.78125-1.71875 3.59375-3.386718 5.421875-5.03125 3.925781 3.394532 9.867187 3.238282 13.597656-.492187 3.238281-3.238281 3.78125-8.144531 1.644531-11.953125 3.777344-2.785156 7.617188-5.421875 11.523438-7.886719.460937 1.527344 1.292969 2.964844 2.5 4.171875 3.90625 3.902344 10.238281 3.902344 14.140625 0 3.757812-3.757812 3.890625-9.753906.417968-13.683594 3.847657-1.875 7.742188-3.582031 11.671876-5.136718.164062.191406.324218.382812.503906.5625zm130.105468-29.4375c.003907-.007813.007813-.015625.011719-.023438 4.40625-11.449218 6.125-23.476562 5.226563-35.367187-.113282-1.472657-.777344-2.851563-1.824219-3.894531-3.132813-3.132813-8.417969-2.136719-10.214844 1.917968-1.015625 2.289063-2.515625 4.160156-4.332031 5.769532-.679688 2.429687-1.453125 4.84375-2.371094 7.230468-7.667968 19.929688-22.652344 35.6875-42.203125 44.371094-29.308593 13.027344-51.789062 36.667969-63.292969 66.566406-2.996093 7.796875-5.148437 15.773438-6.472656 23.832032 5.394532 2.324218 10.863282 4.441406 16.375 6.378906.394532-1.125.804688-2.246094 1.234375-3.363282 1.566407-4.078124 3.34375-8.035156 5.300781-11.875 3.84375 2.320313 8.910157 1.832032 12.226563-1.484374 3.90625-3.90625 3.90625-10.234376 0-14.140626-.535156-.539062-1.121094-.992187-1.734375-1.382812 2.519531-3.417969 5.214844-6.699219 8.074219-9.828125 3.710937 1.753906 8.273437 1.109375 11.34375-1.960937 2.914062-2.910157 3.648437-7.171876 2.21875-10.769532 3.460937-2.78125 7.082031-5.390625 10.859375-7.796875 3.929687 3.304688 9.800781 3.113281 13.496094-.582031 2.246093-2.242188 3.191406-5.285156 2.859374-8.210938.027344-.011718.050782-.023437.078126-.035156 5.089843-2.261718 9.871093-4.996094 14.308593-8.148437 3.855469 2.359375 8.953125 1.882812 12.289063-1.449219 3.085937-3.089844 3.722656-7.695312 1.925781-11.417969 1.867187-2.144531 3.625-4.390625 5.261719-6.730469 3.859375 2.414063 9.007812 1.949219 12.363281-1.40625 3.90625-3.902343 3.90625-10.234374 0-14.140624-.894531-.894532-1.917969-1.574219-3.007813-2.058594zm-203.152343-12.761719c3.902343-3.90625 3.902343-10.238281 0-14.144531-.398438-.394532-.824219-.738282-1.265625-1.054688 2.550781-3.136718 5.171875-6.183594 7.851562-9.144531.21875.269531.453125.53125.707032.785156 3.902343 3.902344 10.234374 3.902344 14.140624 0 3.90625-3.90625 3.90625-10.238281 0-14.144531-.269531-.269531-.554687-.519531-.847656-.753906 3.109375-2.859375 6.28125-5.613282 9.515625-8.25.328125.472656.695313.925781 1.113281 1.34375 3.90625 3.90625 10.238282 3.90625 14.140626 0 3.601562-3.601563 3.875-9.257813.835937-13.179688 4.132813-2.734375 8.335937-5.285156 12.597656-7.648437.488281 1.144531 1.191407 2.21875 2.125 3.148437 3.902344 3.90625 10.234375 3.90625 14.140625 0 3.199219-3.199218 3.773438-8.023437 1.730469-11.8125 2.742187-1.132812 5.503906-2.1875 8.277344-3.160156.0625.0625.113281.132812.175781.195312 3.90625 3.90625 10.238281 3.90625 14.140625 0 1.855469-1.855468 2.820313-4.261718 2.914063-6.691406 5.28125-2.445312 10.460937-5.3125 15.480468-8.59375 6.917969-4.523437 7.980469-14.234375 2.136719-20.078125-2.273437-2.273437-5.3125-3.613281-8.523437-3.789062-.96875-.054688-1.9375-.082031-2.910157-.101563-.683593.726563-1.457031 1.386719-2.332031 1.957032-8.804688 5.761718-18.097656 10.261718-27.632812 13.292968-36.46875 11.605469-70.660157 37.394532-96.261719 72.621094-10.347657 14.230469-18.78125 29.324219-25.160157 44.777344 3.503907 6.09375 7.289063 12.074218 11.335938 17.925781.570312-1.253906 1.167969-2.5 1.765625-3.746094 3.929687 3.351563 9.832031 3.179688 13.546875-.535156 3.90625-3.90625 3.90625-10.238281 0-14.144531-1.25-1.25-2.75-2.09375-4.339844-2.542969 2.339844-3.949219 4.816406-7.847656 7.425782-11.695313 3.921874 3.035157 9.574218 2.761719 13.175781-.835937zm227.546875-236.878906c-5.242188 5.238281-6.625 12.351562-3.089844 15.882812 3.53125 3.53125 10.640625 2.148438 15.882812-3.089843 5.238282-5.242188 6.621094-12.351563 3.089844-15.882813-3.535156-3.535156-10.644531-2.148437-15.882812 3.089844zm0 0" fill="#99c8d3"/><path d="m446.492188 110.796875c8.996093-3.441406 18.984374 11.109375 20.828124 25.304687 4.121094 31.761719-31.683593 68.46875-41.203124 64.925782-12.347657-4.601563 2.425781-83.367188 20.375-90.230469zm0 0" fill="#e1eff4"/></svg>