<svg height="512pt" viewBox="0 0 512 512" width="512pt" xmlns="http://www.w3.org/2000/svg"><path d="m0 256c0-141.386719 114.613281-256 256-256s256 114.613281 256 256c0 100.214844-57.59375 186.96875-141.480469 229-34.460937-17.265625-73.351562-27-114.519531-27s-80.058594 9.734375-114.519531 27c-83.886719-42.03125-141.480469-128.785156-141.480469-229zm0 0" fill="#23c77d"/><path d="m292 10v85.398438c0 5.523437-4.476562 10-10 10h-52c-5.523438 0-10-4.476563-10-10v-85.398438c0-5.523438 4.476562-10 10-10h52c5.523438 0 10 4.476562 10 10zm0 0" fill="#d9a92f"/><path d="m292 10v85.398438c0 5.523437-4.476562 10-10 10h-32c-5.523438 0-10-4.476563-10-10v-85.398438c0-5.523438 4.476562-10 10-10h32c5.523438 0 10 4.476562 10 10zm0 0" fill="#f1bd1f"/><path d="m410 276.667969v-152.105469c0-31.75-26.863281-57.492188-60-57.492188h-30.691406c1.703125-2.816406 2.691406-6.085937 2.691406-9.578124 0-10.585938-8.953125-19.164063-20-19.164063h-112c-5.429688 0-9.957031 4.152344-10 9.351563-.0625 7.828124 3.140625 14.9375 8.378906 20.152343 11.050782 11 17.621094 25.425781 17.621094 40.691407v61.953124c0 14.933594-9.226562 28.335938-23.390625 34.570313-60.570313 26.664063-102.628906 85.304687-102.609375 153.359375.015625 49.21875 21.832031 93.378906 56.730469 124.148438 35.617187 18.792968 76.195312 29.445312 119.269531 29.445312 42.855469 0 83.242188-10.546875 118.730469-29.160156 35.191406-30.835938 57.269531-75.1875 57.269531-124.480469 0-29.640625-7.984375-57.492187-22-81.691406zm-104-106.652344v-64.617187h42c11.046875 0 20 8.582031 20 19.164062v103.722656c-11.765625-9.308594-24.808594-17.183594-38.847656-23.339844-14.195313-6.222656-23.152344-19.972656-23.152344-34.929687zm0 0" fill="#f0eff4"/><path d="m220.351562 61.144531c11.25 12.078125 17.9375 27.917969 17.9375 44.679688v68.027343c0 16.402344-9.390624 31.117188-23.8125 37.960938-61.671874 29.277344-94.496093 93.664062-94.476562 168.390625.011719 38.910156 1.535156 74.9375 21.242188 104.679687-1.511719-.761718-3.015626-1.535156-4.507813-2.324218-34.902344-30.769532-56.722656-74.929688-56.734375-124.152344-.019531-68.054688 42.039062-126.691406 102.609375-153.355469 14.164063-6.234375 23.390625-19.636719 23.390625-34.574219v-61.949218c0-15.269532-6.566406-29.691406-17.621094-40.691406-5.238281-5.21875-8.441406-12.324219-8.378906-20.152344.042969-5.203125 4.570312-9.355469 10-9.355469h21.859375c-.015625.230469-.039063.457031-.039063.691406-.066406 8.589844 3.195313 16.394531 8.53125 22.125zm0 0" fill="#dcdce1"/><path d="m127.910156 297.035156h256.183594c1.929688 0 3.707031 1.058594 4.515625 2.734375 8.589844 17.824219 13.390625 37.667969 13.390625 58.589844 0 77.582031-65.910156 140.414063-147.007812 139.890625-79.316407-.511719-144.171876-62.425781-144.984376-138.421875-.230468-21.429687 4.574219-41.757813 13.34375-59.976563.824219-1.710937 2.59375-2.816406 4.558594-2.816406zm0 0" fill="#f5cf51"/><path d="m388.609375 299.773438c8.589844 17.820312 13.390625 37.664062 13.390625 58.585937 0 .984375-.011719 1.964844-.03125 2.941406-2.289062 106.304688-146.46875 146.035157-209.203125 58.332031-20.3125-28.394531-32.363281-62.59375-32.757813-99.355468-.082031-7.875.378907-15.628906 1.320313-23.242188h222.761719c1.933594 0 3.710937 1.058594 4.519531 2.738282zm0 0" fill="#f7d674"/><path d="m279.410156 447.199219c0 35.789062-22.792968 64.800781-50.914062 64.800781-5.648438 0-11.082032-1.175781-16.15625-3.339844-6.613282-2.816406-14.074219-3.058594-20.703125-.28125-20.410157 8.550782-48.167969 1.75-68.570313-18.652344-25.304687-25.304687-29.703125-61.9375-9.820312-81.820312 17.765625-17.765625 48.890625-16.132812 73.371094 2.457031 9.191406-16.890625 24.515624-27.964843 41.878906-27.964843 28.121094 0 50.914062 29.011718 50.914062 64.800781zm0 0" fill="#d9a92f"/><path d="m177.582031 447.199219c0 12.460937 2.769531 24.09375 7.558594 33.972656 1.878906 3.875-1.578125 8.175781-5.746094 7.082031-15.617187-4.101562-32.179687-13.652344-46.507812-27.980468-5.4375-5.4375-10.183594-11.199219-14.207031-17.105469-2.734376-4.019531-.480469-9.65625 4.308593-10.484375 4.472657-.777344 8.714844-3.203125 11.746094-7.289063 4.351563-5.859375 4.78125-13.589843 1.21875-19.960937-1.839844-3.296875-4.402344-5.644532-7.273437-7.214844 17.410156-6.21875 39.550781-1.828125 57.941406 12.136719-5.691406 10.460937-9.039063 23.152343-9.039063 36.84375zm68.675781-60.738281c.925782 3.160156 1.074219 6.652343.027344 10.308593-2.058594 7.183594-8.371094 12.527344-15.804687 13.300781-4.714844.488282-9.113281-.792968-12.617188-3.261718-3.972656-2.800782-9.550781-.410156-10.457031 4.367187-1.335938 7.019531-2.050781 14.449219-2.050781 22.140625 0 36.382813 15.980469 66.984375 37.683593 75.988282 21.03125-7.96875 36.371094-32.75 36.371094-62.105469 0-27.835938-13.792968-51.566407-33.152344-60.738281zm0 0" fill="#f1bd1f"/></svg>