<svg height="512pt" viewBox="0 0 512 512" width="512pt" xmlns="http://www.w3.org/2000/svg"><path d="m512 256c0 141.386719-114.613281 256-256 256-59.84375 0-114.886719-20.539062-158.476562-54.945312-12.476563-15.804688-26.773438-30.101563-42.578126-42.578126-34.40625-43.589843-54.945312-98.632812-54.945312-158.476562 0-141.386719 114.613281-256 256-256s256 114.613281 256 256zm0 0" fill="#6dcce4"/><path d="m114.59375 423.867188-26.460938-26.460938 119.070313-119.070312 26.460937 26.460937zm0 0" fill="#ab2a3e"/><path d="m177.183594 354.15625c7.8125 7.8125 7.8125 20.476562 0 28.285156l-76.8125 76.8125c-17.886719-13.714844-33.910156-29.738281-47.625-47.625l76.8125-76.816406c7.808594-7.808594 20.472656-7.808594 28.285156 0zm0 0" fill="#f7b95f"/><path d="m177.183594 354.15625c7.8125 7.8125 7.8125 20.476562 0 28.285156l-76.8125 76.8125c-10.746094-8.242187-20.828125-17.304687-30.136719-27.117187l81.8125-81.808594c4.253906-4.257813 9.949219-6.175781 15.515625-5.792969zm0 0" fill="#fad39c"/><path d="m458.570312 311.410156c-71.242187 71.242188-186.742187 71.242188-257.980468 0-71.242188-71.238281-71.242188-186.738281 0-257.980468 71.238281-71.238282 186.738281-71.238282 257.980468 0 71.238282 71.242187 71.238282 186.742187 0 257.980468zm-356.492187 50.882813 47.628906 47.628906 14.140625-14.140625-47.625-47.628906zm0 0" fill="#ec3c52"/><path d="m200.589844 53.429688c58.085937-58.085938 145.601562-68.804688 214.554687-32.164063-61.027343-7.515625-128.820312 15.222656-180.160156 66.5625-51.339844 51.335937-74.078125 119.132813-66.558594 180.15625-36.640625-68.953125-25.925781-156.464844 32.164063-214.554687zm0 0" fill="#d73247"/><path d="m433.527344 78.472656c57.410156 57.410156 57.410156 150.488282 0 207.898438s-150.488282 57.40625-207.898438 0c-57.410156-57.410156-57.40625-150.488282 0-207.898438 57.410156-57.410156 150.488282-57.410156 207.898438 0zm0 0" fill="#ab2a3e"/><path d="m353.964844 275.824219c-1.988282 20.230469-20.183594 35.140625-40.351563 32.601562-27-3.402343-53.109375-15.464843-73.839843-36.199219-50.445313-50.445312-49.585938-132.765624 2.582031-182.125 49.964843-47.277343 129.269531-45.855468 177.605469 3.089844.804687.816406 1.597656 1.640625 2.378906 2.472656 34.496094 36.839844 21.8125 96.699219-24.023438 117.824219-8.035156 3.703125-15.558594 8.863281-22.183594 15.488281-13.101562 13.101563-20.488281 29.746094-22.167968 46.847657zm0 0" fill="#fff5f5"/><path d="m247.683594 279.503906c-2.710938-2.292968-5.355469-4.71875-7.910156-7.277344-50.445313-50.445312-49.585938-132.765624 2.582031-182.125 33.339843-31.546874 79.738281-41.402343 121.289062-29.933593-36.035156-1.734375-72.664062 10.574219-100.71875 37.121093-51.597656 48.816407-56.667969 127.511719-15.242187 182.214844zm0 0" fill="#fbf1d1"/><path d="m380 145c0 24.851562-20.148438 45-45 45s-45-20.148438-45-45 20.148438-45 45-45 45 20.148438 45 45zm0 0" fill="#f5cf51"/><path d="m311.574219 183.425781c-12.9375-7.902343-21.574219-22.15625-21.574219-38.425781 0-24.851562 20.148438-45 45-45 16.269531 0 30.523438 8.636719 38.425781 21.574219-6.824219-4.167969-14.84375-6.574219-23.425781-6.574219-24.851562 0-45 20.148438-45 45 0 8.582031 2.40625 16.601562 6.574219 23.425781zm0 0" fill="#f7c32a"/><path d="m327.332031 111.332031c1.359375-3.308593 11.65625-2.679687 18.667969.332031 13.617188 5.851563 19.101562 22.527344 16 25.335938-4.851562 4.390625-37.386719-19.054688-34.667969-25.667969zm0 0" fill="#f8df92"/></svg>