<svg height="512pt" viewBox="0 0 512.00012 512" width="512pt" xmlns="http://www.w3.org/2000/svg"><path d="m512 256c0 141.386719-114.613281 256-256 256-58.726562 0-112.824219-19.789062-156.019531-53.042969-2.5-1.925781-3.980469-4.894531-3.980469-8.050781v-6.519531c0-18.992188-15.394531-34.386719-34.386719-34.386719-6.484375 0-12.574219-3.171875-16.265625-8.507812-29.105468-42.054688-45.945312-93.242188-45.332031-148.398438 1.582031-142.558594 118.207031-255.652344 260.75-253.0507812 139.1875 2.5429692 251.234375 116.1640622 251.234375 255.9570312zm0 0" fill="#ec3c52"/><path d="m140.039062 148.40625c-.753906-3.015625-1.269531-6.117188-1.519531-9.289062-3.003906-38.078126 32.738281-72.019532 80.074219-76.359376 7.664062 30.316407 48.214844 39.140626 81.488281 51.585938 10.394531 3.890625 26.59375 24.265625 3.515625 34.0625zm0 0" fill="#f79085"/><path d="m303.597656 148.40625h-118.925781c-.753906-3.019531-1.269531-6.117188-1.519531-9.289062-2.082032-26.394532 14.460937-50.792969 40.570312-64.730469 13.875 21.242187 47.792969 29.273437 76.359375 39.960937 10.394531 3.886719 26.59375 24.261719 3.515625 34.058594zm0 0" fill="#f9a29b"/><path d="m227.152344 136.253906c6.203125-9.332031 16.804687-15.484375 28.847656-15.484375s22.644531 6.152344 28.847656 15.484375c6.199219-9.332031 16.800782-15.484375 28.84375-15.484375 12.042969 0 22.644532 6.152344 28.847656 15.484375 6.199219-9.332031 16.800782-15.484375 28.84375-15.484375 19.117188 0 34.617188 15.5 34.617188 34.617188 0 19.117187-15.496094 34.613281-34.613281 34.613281-12.042969 0-22.648438-6.152344-28.847657-15.484375-6.199218 9.332031-16.804687 15.484375-28.847656 15.484375-12.042968 0-22.644531-6.152344-28.84375-15.484375-6.203125 9.332031-16.804687 15.484375-28.847656 15.484375s-22.644531-6.152344-28.847656-15.484375c-6.199219 9.332031-16.800782 15.484375-28.84375 15.484375-12.042969 0-22.644532-6.152344-28.847656-15.484375-6.199219 9.332031-16.804688 15.484375-28.847657 15.484375-19.113281 0-34.613281-15.496094-34.613281-34.613281 0-19.121094 15.5-34.617188 34.613281-34.617188 12.042969 0 22.648438 6.152344 28.847657 15.484375 6.203124-9.332031 16.804687-15.484375 28.847656-15.484375 12.042968 0 22.644531 6.152344 28.84375 15.484375zm0 0" fill="#fae8b1"/><path d="m371.386719 120.769531c13.890625 0 25.867187 8.191407 31.378906 20-5.511719 11.8125-17.488281 20-31.378906 20-8.746094 0-16.730469-3.242187-22.820313-8.589843-3.457031-3.035157-8.601562-3.035157-12.054687 0-6.089844 5.347656-14.074219 8.589843-22.820313 8.589843-8.742187 0-16.726562-3.242187-22.820312-8.589843-3.453125-3.035157-8.597656-3.035157-12.050782 0-6.09375 5.347656-14.078124 8.589843-22.820312 8.589843-8.746094 0-16.730469-3.242187-22.820312-8.589843-3.453126-3.035157-8.597657-3.035157-12.054688 0-6.089844 5.347656-14.074219 8.589843-22.820312 8.589843-8.742188 0-16.726563-3.242187-22.820313-8.589843-3.453125-3.035157-8.597656-3.035157-12.050781 0-6.09375 5.347656-14.078125 8.589843-22.820313 8.589843-13.894531 0-25.867187-8.1875-31.378906-20 5.511719-11.808593 17.484375-20 31.378906-20 12.042969 0 22.644531 6.152344 28.847657 15.484375 6.199218-9.332031 16.800781-15.484375 28.84375-15.484375 12.042968 0 22.644531 6.152344 28.847656 15.484375 6.199218-9.332031 16.800781-15.484375 28.84375-15.484375 12.042968 0 22.644531 6.152344 28.847656 15.484375 6.199219-9.332031 16.800781-15.484375 28.84375-15.484375s22.648438 6.152344 28.847656 15.484375c6.203125-9.332031 16.808594-15.484375 28.851563-15.484375zm0 0" fill="#fff5f5"/><path d="m432.179688 234.777344c10.625 5.894531 17.820312 17.21875 17.820312 30.230468 0 13.011719-7.195312 24.335938-17.820312 30.226563 10.625 5.894531 17.820312 17.222656 17.820312 30.230469 0 14.21875-8.59375 26.425781-20.863281 31.726562 12.269531 5.300782 20.863281 17.507813 20.863281 31.726563 0 19.082031-15.46875 34.550781-34.546875 34.550781h-310.90625c-19.078125 0-34.546875-15.46875-34.546875-34.550781 0-14.21875 8.59375-26.425781 20.863281-31.726563-12.269531-5.300781-20.863281-17.507812-20.863281-31.726562 0-13.007813 7.195312-24.335938 17.820312-30.226563-10.625-5.894531-17.820312-17.21875-17.820312-30.230469 0-13.011718 7.195312-24.335937 17.820312-30.230468-10.625-5.890625-17.820312-17.21875-17.820312-30.230469 0-19.078125 15.46875-34.546875 34.546875-34.546875h310.90625c19.078125 0 34.546875 15.46875 34.546875 34.546875 0 13.011719-7.195312 24.339844-17.820312 30.230469zm0 0" fill="#f49f1f"/><path d="m432.179688 295.238281c10.625 5.890625 17.820312 17.21875 17.820312 30.226563 0 14.21875-8.59375 26.425781-20.863281 31.726562 12.289062 5.308594 20.886719 17.542969 20.863281 31.785156-.03125 19.179688-16.109375 34.488282-35.289062 34.488282h-249.480469c-18.753907 0-34.609375-14.664063-35.210938-33.410156-.019531-.53125-.023437-1.054688-.015625-1.578126.164063-13.101562 11.191406-23.476562 24.292969-23.476562h235.703125c5.742188 0 10.355469-4.839844 9.976562-10.664062-.34375-5.316407-4.992187-9.335938-10.320312-9.335938h-239.902344c-10.738281 0-19.6875-8.578125-19.753906-19.316406 0-.074219 0-.144532 0-.21875 0-.085938 0-.175782 0-.261719.097656-12.617187 10.570312-22.703125 23.1875-22.703125h236.8125c5.742188 0 10.355469-4.839844 9.976562-10.664062-.34375-5.316407-4.992187-9.335938-10.320312-9.335938h-241.953125c-9.621094 0-17.648437-7.679688-17.703125-17.300781 0-.0625 0-.128907 0-.191407 0-.097656 0-.195312 0-.292968.117188-13.734375 11.507812-24.714844 25.242188-24.714844h234.757812c5.742188 0 10.355469-4.839844 9.976562-10.664062-.34375-5.316407-4.992187-9.335938-10.320312-9.335938h-244.078125c-8.539063 0-15.570313-6.875-15.578125-15.414062 0-.164063 0-.332032.003906-.496094.25-19.023438 16.253906-34.089844 35.277344-34.089844h249.46875c19.144531 0 35.175781 15.269531 35.25 34.414062.050781 13.066407-7.160156 24.449219-17.820312 30.363282 10.625 5.894531 17.820312 17.21875 17.820312 30.230468 0 13.011719-7.195312 24.335938-17.820312 30.230469zm0 0" fill="#f7b95f"/><path d="m359.988281 165c.003907.167969.011719.335938.011719.503906v44.496094c0 11.289062-9.351562 20.390625-20.730469 19.988281-10.835937-.386719-19.269531-9.621093-19.269531-20.46875v-.128906c0-5.332031-4.429688-9.457031-9.761719-9.390625-.726562.007812-1.464843-.023438-2.210937-.097656-10.316406-1.003906-18.027344-9.988282-18.027344-20.355469v-14.042969c0-.167968.007812-.335937.011719-.503906zm0 0" fill="#fae8b1"/><path d="m490 404.464844c0 30.375-24.625 55-55 55h-334.355469c-21.96875-16.796875-41.144531-37.066406-56.691406-60h441.046875c2.761719 0 5 2.242187 5 5zm0 0" fill="#dcdce1"/><path d="m490 404.464844c0 1.585937-.082031 3.152344-.214844 4.703125-9.972656 13.976562-26.308594 23.097656-44.785156 23.097656h-290c-22.472656 0-41.785156-13.484375-50.320312-32.796875h380.320312c2.761719-.003906 5 2.238281 5 4.996094zm0 0" fill="#f0eff4"/></svg>