<svg height="512pt" viewBox="0 0 512 512" width="512pt" xmlns="http://www.w3.org/2000/svg"><path d="m512 256c0 141.386719-114.613281 256-256 256s-256-114.613281-256-256 114.613281-256 256-256 256 114.613281 256 256zm0 0" fill="#fccfc9"/><path d="m422 170v280.871094c-44.695312 38.109375-102.65625 61.128906-166 61.128906s-121.304688-23.019531-166-61.128906v-280.871094c0-25.269531 15.625-46.878906 37.738281-55.71875 7.484375-2.992188 12.261719-10.394531 12.261719-18.457031v-25.824219h232v25.824219c0 8.0625 4.777344 15.464843 12.261719 18.457031 22.113281 8.839844 37.738281 30.449219 37.738281 55.71875zm0 0" fill="#f1bd1f"/><path d="m422 170v280.871094c-44.695312 38.109375-102.65625 61.128906-166 61.128906-45.515625 0-88.246094-11.894531-125.28125-32.71875-.472656-3.023438-.71875-6.125-.71875-9.28125v-300c0-25.269531 15.625-46.878906 37.738281-55.71875 7.484375-2.992188 12.261719-10.394531 12.261719-18.457031v-25.824219h192v25.824219c0 8.0625 4.777344 15.464843 12.261719 18.457031 22.113281 8.839844 37.738281 30.449219 37.738281 55.71875zm0 0" fill="#f7c32a"/><path d="m422 410h-332v-240h332zm0 0" fill="#e2902a"/><path d="m280 89.546875v-14.042969c0-.167968.007812-.335937.011719-.503906h69.976562c.003907.167969.011719.335938.011719.503906v44.496094c0 11.289062-9.351562 20.390625-20.730469 19.988281-10.835937-.386719-19.269531-9.625-19.269531-20.46875v-.128906c0-5.332031-4.429688-9.457031-9.761719-9.394531-.726562.011718-1.464843-.019532-2.210937-.09375-10.316406-1.003906-18.027344-9.992188-18.027344-20.355469zm-190 320.453125h40v-240h-40zm166-215c-52.46875 0-95 42.53125-95 95s42.53125 95 95 95 95-42.53125 95-95-42.53125-95-95-95zm0 0" fill="#d58a2d"/><path d="m269.714844 333.925781c-19.769532 19.769531-50.042969 21.550781-67.617188 3.976563-17.574218-17.574219-15.792968-47.847656 3.976563-67.617188 7.324219-7.324218 16.089843-12.175781 25.117187-14.488281 7.886719-2.023437 14.054688-8.195313 16.078125-16.082031 2.316407-9.027344 7.167969-17.792969 14.488281-25.113282 19.769532-19.773437 50.046876-21.550781 67.617188-3.980468 17.574219 17.574218 15.792969 47.847656-3.976562 67.617187-7.324219 7.324219-16.089844 12.175781-25.113282 14.492188-7.886718 2.019531-14.058594 8.191406-16.082031 16.078125-2.3125 9.027344-7.164063 17.792968-14.488281 25.117187zm0 0" fill="#f8df92"/><path d="m337.71875 222.785156c-11.90625-5.3125-26.191406-4.9375-39.066406.914063 1.164062 4.1875-.792969 9.957031-5.335938 14.5-5.585937 5.585937-13.03125 7.273437-17.097656 4.035156-3.867188 5.402344-6.621094 11.28125-8.25 17.292969 4.550781-2.179688 9.199219-2.121094 11.910156.59375 3.90625 3.902344 2.324219 11.816406-3.535156 17.675781s-13.773438 7.441406-17.679688 3.535156c-1.710937-1.710937-2.367187-4.195312-2.070312-6.9375-1.535156.8125-3.171875 1.464844-4.898438 1.90625-6.25 1.605469-12.378906 4.425781-17.984374 8.441407 3.234374 4.066406 1.546874 11.511718-4.035157 17.097656-4.542969 4.542968-10.316406 6.5-14.5 5.335937-5.855469 12.875-6.230469 27.160157-.914062 39.066407 17.339843 7.742187 39.71875 3.414062 55.453125-12.316407 7.324218-7.324219 12.175781-16.089843 14.488281-25.117187 2.023437-7.886719 8.195313-14.058594 16.082031-16.078125 9.027344-2.316407 17.789063-7.167969 25.113282-14.492188 15.734374-15.730469 20.0625-38.109375 12.320312-55.453125zm-79.757812 107.335938c-5.859376 5.859375-13.773438 7.441406-17.679688 3.539062-3.902344-3.90625-2.320312-11.820312 3.535156-17.679687 5.859375-5.859375 13.773438-7.441407 17.679688-3.535157s2.320312 11.820313-3.535156 17.675782zm63.636718-63.636719c-5.855468 5.855469-13.769531 7.441406-17.675781 3.535156s-2.324219-11.820312 3.535156-17.679687c5.859375-5.855469 13.773438-7.4375 17.679688-3.535156 3.902343 3.90625 2.320312 11.820312-3.539063 17.679687zm0 0" fill="#fbf1d1"/><path d="m382 80h-252c-5.523438 0-10-4.476562-10-10v-30c0-5.523438 4.476562-10 10-10h252c5.523438 0 10 4.476562 10 10v30c0 5.523438-4.476562 10-10 10zm0 0" fill="#d73247"/><path d="m382 60h-222c-5.523438 0-10-4.476562-10-10v-10c0-5.523438 4.476562-10 10-10h222c5.523438 0 10 4.476562 10 10v10c0 5.523438-4.476562 10-10 10zm0 0" fill="#ec3c52"/></svg>