<svg height="512pt" viewBox="0 0 512 512" width="512pt" xmlns="http://www.w3.org/2000/svg"><path d="m512 256c0 141.386719-114.613281 256-256 256s-256-114.613281-256-256 114.613281-256 256-256 256 114.613281 256 256zm0 0" fill="#f9c77e"/><path d="m237.46875 270.773438c-3.570312 2.1875-6.574219 5.191406-8.917969 8.660156-.089843.128906-.175781.257812-.265625.386718-3.105468 4.589844-4.78125 9.953126-5.085937 15.492188-.503907 9.300781-3.183594 18.621094-8.253907 27.195312-8.488281 14.363282-22.035156 23.882813-37.035156 27.648438-4.054687 1.019531-7.707031 3.242188-10.558594 6.292969-.035156.039062-.070312.074219-.101562.109375-2.941406 3.148437-4.988281 7.066406-5.648438 11.324218-.757812 4.867188-2.429687 9.675782-5.089843 14.175782-5.238281 8.863281-13.363281 14.960937-22.46875 17.808594-12.316407 3.851562-23.800781 9.964843-34.070313 17.773437-.128906.097656-.261718.195313-.390625.296875-7.132812 5.410156-17.222656-.550781-15.917969-9.410156.023438-.164063.046876-.324219.070313-.488282 1.886719-12.761718 1.707031-25.769531-.855469-38.417968-1.894531-9.351563-.472656-19.40625 4.765625-28.269532 2.660157-4.5 6.066407-8.285156 9.96875-11.292968 3.410157-2.632813 5.859375-6.3125 7.195313-10.410156.015625-.046876.03125-.09375.046875-.136719 1.296875-3.976563 1.484375-8.246094.421875-12.289063-3.933594-14.953125-2.121094-31.414062 6.367187-45.777344 5.070313-8.574218 11.941407-15.417968 19.847657-20.34375 4.703124-2.933593 8.59375-6.992187 11.117187-11.925781.074219-.140625.144531-.277343.214844-.417969 1.910156-3.726562 3.089843-7.804687 3.285156-11.988281.445313-9.449219 3.132813-18.925781 8.28125-27.636719 5.488281-9.289062 13.101563-16.546874 21.847656-21.542968 2.214844-1.265625 4.132813-2.984375 5.550781-5.105469.09375-.136719.183594-.277344.277344-.414063 1.6875-2.515624 2.613282-5.472656 2.644532-8.5.101562-10.179687 2.796874-20.46875 8.351562-29.863281 7.441406-12.59375 18.765625-21.457031 31.550781-25.992187 6.371094-2.261719 12.054688-6.101563 16.628907-11.078125.054687-.0625.109374-.121094.164062-.183594 4.660156-5.066406 8.074219-11.210937 9.636719-17.917969.898437-3.871094 2.394531-7.667968 4.523437-11.269531 5.238282-8.863281 13.363282-14.957031 22.46875-17.804687 12.316406-3.851563 23.800782-9.96875 34.070313-17.773438.128906-.101562.261719-.199219.390625-.296875 7.136718-5.414063 17.222656.546875 15.917968 9.410156-.023437.160157-.046874.320313-.070312.484375-1.886719 12.761719-1.707031 25.773438.855469 38.417969 1.898437 9.351563.472656 19.410156-4.765625 28.273437-2.128906 3.597657-4.734375 6.742188-7.691406 9.394532-5.121094 4.601562-8.859376 10.554687-11.054688 17.082031-.023438.078125-.050781.15625-.078125.230469-2.15625 6.410156-2.78125 13.238281-1.6875 19.910156 2.191406 13.386719-.117187 27.585938-7.558594 40.175781-5.550781 9.394531-13.269531 16.714844-22.136719 21.714844-2.636718 1.488281-4.78125 3.722656-6.171874 6.414063-.074219.148437-.152344.292968-.230469.441406-1.171875 2.265625-1.757813 4.773437-1.796875 7.324218-.15625 10.070313-2.84375 20.238282-8.335938 29.527344-5.148437 8.710938-12.160156 15.636719-20.222656 20.582032zm0 0" fill="#03ad6b"/><path d="m183.65625 206.433594c40.765625-68.96875 90.839844-126.285156 143.929688-168.648438-.980469 10.660156-.515626 21.414063 1.613281 31.917969 1.894531 9.351563.472656 19.410156-4.765625 28.273437-2.128906 3.597657-4.734375 6.742188-7.691406 9.394532-5.125 4.601562-8.859376 10.554687-11.054688 17.082031-.027344.078125-.050781.15625-.078125.234375-2.15625 6.40625-2.78125 13.234375-1.691406 19.90625 2.191406 13.386719-.113281 27.585938-7.554688 40.175781-5.554687 9.394531-13.269531 16.714844-22.140625 21.714844-2.636718 1.488281-4.777344 3.722656-6.167968 6.414063-.078126.148437-.152344.296874-.230469.445312-1.171875 2.261719-1.757813 4.773438-1.796875 7.324219-.15625 10.070312-2.847656 20.234375-8.335938 29.527343-5.148437 8.707032-12.160156 15.632813-20.222656 20.578126-3.570312 2.1875-6.574219 5.1875-8.917969 8.660156-.089843.128906-.175781.257812-.265625.386718-3.105468 4.589844-4.78125 9.953126-5.085937 15.488282-.503907 9.304687-3.183594 18.625-8.253907 27.195312-8.488281 14.367188-22.035156 23.886719-37.035156 27.652344-4.054687 1.019531-7.707031 3.238281-10.558594 6.292969-.035156.035156-.066406.074219-.101562.109375-2.941406 3.144531-4.984375 7.0625-5.648438 11.324218-.753906 4.867188-2.425781 9.671876-5.085937 14.175782-5.242187 8.859375-13.363281 14.957031-22.472656 17.804687-10.230469 3.199219-19.875 7.980469-28.738281 13.976563 11.511718-66.9375 37.585937-138.441406 78.351562-207.40625zm0 0" fill="#23c77d"/><path d="m275.339844 391.253906c-4.167969.421875-8.175782 1.824219-11.792969 3.929688-.136719.082031-.269531.160156-.40625.238281-4.789063 2.789063-8.628906 6.894531-11.300781 11.75-4.492188 8.160156-10.949219 15.394531-19.234375 20.921875-13.882813 9.257812-30.21875 11.957031-45.367188 8.84375-4.09375-.839844-8.347656-.421875-12.246093 1.089844-.046876.019531-.089844.035156-.136719.054687-4.015625 1.558594-7.558594 4.199219-10.003907 7.75-2.792968 4.058594-6.382812 7.664063-10.734374 10.566407-8.5625 5.710937-18.527344 7.679687-27.96875 6.296874-12.765626-1.875-25.765626-1.347656-38.410157 1.230469-.160156.035157-.320312.066407-.480469.097657-8.773437 1.78125-15.277343-7.964844-10.261718-15.382813.09375-.136719.183594-.273437.277344-.40625 7.238281-10.679687 12.71875-22.480469 15.894531-34.984375 2.347656-9.25 7.996093-17.695312 16.5625-23.40625 4.347656-2.902344 9.058593-4.832031 13.875-5.851562 4.21875-.890626 8.019531-3.144532 11.003906-6.253907.03125-.035156.066406-.070312.101563-.105469 2.894531-3.015624 4.914062-6.785156 5.710937-10.886718 2.945313-15.183594 11.714844-29.226563 25.597656-38.484375 8.285157-5.527344 17.445313-8.710938 26.707031-9.722657 5.507813-.597656 10.777344-2.566406 15.191407-5.917968.125-.09375.246093-.1875.371093-.28125 3.339844-2.53125 6.171876-5.695313 8.164063-9.378906 4.5-8.320313 11.03125-15.695313 19.449219-21.308594 8.980468-5.988282 18.984375-9.226563 29.03125-9.929688 2.542968-.175781 5.019531-.898437 7.214844-2.191406.144531-.085938.289062-.171875.429687-.253906 2.613281-1.535156 4.730469-3.796875 6.070313-6.511719 4.507812-9.125 11.402343-17.230469 20.480468-23.285156 12.167969-8.113281 26.21875-11.1875 39.707032-9.726563 6.71875.726563 13.507812-.269531 19.785156-2.769531.078125-.03125.152344-.058594.230468-.089844 6.398438-2.546875 12.140626-6.601562 16.457032-11.96875 2.488281-3.09375 5.484375-5.867187 8.960937-8.1875 8.566407-5.714843 18.53125-7.683593 27.972657-6.296875 12.765624 1.871094 25.765624 1.347656 38.40625-1.230468.160156-.035157.324218-.066407.484374-.101563 8.773438-1.78125 15.273438 7.96875 10.257813 15.386719-.089844.132812-.179687.269531-.273437.40625-7.238282 10.679687-12.71875 22.480468-15.894532 34.984375-2.351562 9.25-7.996094 17.691406-16.5625 23.402343-3.480468 2.324219-7.191406 4.023438-11.003906 5.132813-6.609375 1.921875-12.5625 5.664063-17.371094 10.59375-.054687.054687-.113281.117187-.171875.171875-4.71875 4.839844-8.25 10.71875-10.160156 17.207031-3.832031 13.007813-12.070313 24.800781-24.234375 32.917969-9.082031 6.054688-19.207031 9.304688-29.367188 9.960938-3.023437.195312-5.921874 1.28125-8.34375 3.097656-.132812.101562-.265624.203125-.398437.300781-2.039063 1.53125-3.65625 3.542969-4.796875 5.820313-4.511719 9.007812-11.34375 17-20.324219 22.988281-8.417969 5.617187-17.738281 8.816406-27.148437 9.773437zm0 0" fill="#00824d"/><path d="m254.769531 309.9375c66.648438-44.453125 136.628907-74.371094 202.84375-89.503906-5.507812 9.175781-9.753906 19.066406-12.394531 29.453125-2.347656 9.25-7.996094 17.695312-16.558594 23.40625-3.480468 2.320312-7.191406 4.019531-11.003906 5.128906-6.613281 1.925781-12.5625 5.664063-17.371094 10.59375-.058594.058594-.113281.117187-.171875.175781-4.722656 4.839844-8.25 10.71875-10.160156 17.207032-3.835937 13.011718-12.070313 24.800781-24.238281 32.917968-9.078125 6.054688-19.207032 9.304688-29.367188 9.960938-3.023437.195312-5.921875 1.28125-8.339844 3.101562-.136718.097656-.269531.199219-.402343.300782-2.039063 1.53125-3.65625 3.539062-4.796875 5.816406-4.507813 9.007812-11.34375 17-20.320313 22.988281-8.417969 5.613281-17.738281 8.8125-27.148437 9.769531-4.164063.421875-8.175782 1.824219-11.792969 3.933594-.136719.078125-.269531.15625-.40625.234375-4.789063 2.789063-8.628906 6.894531-11.300781 11.75-4.492188 8.160156-10.949219 15.394531-19.238282 20.921875-13.878906 9.257812-30.214843 11.960938-45.363281 8.84375-4.09375-.839844-8.351562-.421875-12.246093 1.089844-.046876.019531-.089844.035156-.136719.050781-4.015625 1.5625-7.558594 4.203125-10.003907 7.753906-2.792968 4.058594-6.382812 7.664063-10.734374 10.566407-8.5625 5.710937-18.527344 7.679687-27.96875 6.292968-10.605469-1.554687-21.371094-1.433594-31.957032.125 39.414063-55.3125 93.925782-108.425781 160.578125-152.878906zm0 0" fill="#019256"/><path d="m365.699219 267.203125c10.726562 16.082031 6.386719 37.8125-9.695313 48.539063-16.082031 10.726562-37.816406 6.382812-48.539062-9.695313-10.726563-16.082031-6.386719-37.816406 9.695312-48.539063 16.082032-10.726562 37.8125-6.386718 48.539063 9.695313zm-115.09375 34.691406c-16.082031 10.726563-20.421875 32.457031-9.699219 48.539063 10.726562 16.082031 32.457031 20.425781 48.539062 9.699218 16.082032-10.726562 20.421876-32.457031 9.699219-48.539062-10.726562-16.082031-32.457031-20.421875-48.539062-9.699219zm-66.554688 44.390625c-16.082031 10.726563-20.421875 32.457032-9.699219 48.539063 10.726563 16.078125 32.457032 20.421875 48.539063 9.695312 16.082031-10.726562 20.421875-32.457031 9.699219-48.539062-10.726563-16.078125-32.457032-20.421875-48.539063-9.695313zm248.203125-123.472656c-9.191406-13.78125-27.820312-17.503906-41.601562-8.308594-13.785156 9.191406-17.507813 27.816406-8.3125 41.601563 9.191406 13.785156 27.820312 17.507812 41.601562 8.3125 13.785156-9.191407 17.507813-27.820313 8.3125-41.605469zm-316.144531 174.796875c-13.78125 9.191406-17.503906 27.820313-8.308594 41.601563 9.191407 13.785156 27.816407 17.507812 41.601563 8.3125 13.785156-9.191407 17.507812-27.820313 8.3125-41.601563-9.191406-13.785156-27.820313-17.507813-41.605469-8.3125zm0 0" fill="#8cd246"/><path d="m368.367188 271.964844c6.363281 13.753906 3.085937 30.15625-8.074219 40.40625-10.863281 4.667968-23.84375 1.085937-30.640625-9.105469-7.664063-11.484375-4.558594-27.007813 6.925781-34.667969 10.191406-6.796875 23.550781-5.117187 31.789063 3.367188zm-98.34375 41.019531c-11.488282 7.660156-14.589844 23.183594-6.925782 34.671875 6.792969 10.1875 19.773438 13.773438 30.640625 9.105469 11.160157-10.253907 14.4375-26.65625 8.074219-40.410157-8.238281-8.484374-21.597656-10.164062-31.789062-3.367187zm-66.554688 44.390625c-11.488281 7.660156-14.589844 23.183594-6.929688 34.671875 6.796876 10.1875 19.777344 13.773437 30.644532 9.105469 11.160156-10.253906 14.4375-26.65625 8.074218-40.410156-8.238281-8.484376-21.601562-10.164063-31.789062-3.367188zm231.070312-130.480469c-7.058593-7.269531-18.511718-8.710937-27.246093-2.886719-9.84375 6.566407-12.503907 19.871094-5.9375 29.71875 5.824219 8.734376 16.953125 11.804688 26.265625 7.804688 9.566406-8.789062 12.375-22.847656 6.917968-34.636719zm-301.785156 180.21875c-9.847656 6.566407-12.503906 19.871094-5.9375 29.71875 5.824219 8.734375 16.953125 11.804688 26.261719 7.804688 9.566406-8.789063 12.375-22.847657 6.921875-34.636719-7.058594-7.269531-18.511719-8.710938-27.246094-2.886719zm0 0" fill="#c3e171"/></svg>