<svg height="512pt" viewBox="0 0 512 512" width="512pt" xmlns="http://www.w3.org/2000/svg"><path d="m414.285156 447.082031v7.117188c0 1.898437-.871094 3.703125-2.375 4.859375-43.175781 33.199218-97.238281 52.941406-155.910156 52.941406-58.726562 0-112.828125-19.785156-156.023438-53.042969-3.277343-2.527343-5.191406-6.441406-5.191406-10.578125v-4.300781c0-20.242187-16.410156-36.652344-36.652344-36.652344-5.480468 0-10.59375-2.726562-13.6875-7.253906-28.039062-41.0625-44.445312-90.699219-44.445312-144.171875 0-141.386719 114.613281-256 256-256s256 114.613281 256 256c0 53.5-16.425781 103.160156-44.488281 144.234375-3.066407 4.488281-8.132813 7.191406-13.570313 7.191406-21.902344 0-39.65625 17.753907-39.65625 39.65625zm0 0" fill="#5ac7e1"/><path d="m414.285156 447.214844v5.9375c0 2.558594-1.171875 4.992187-3.207031 6.542968-43.035156 32.816407-96.78125 52.304688-155.078125 52.304688-58.765625 0-112.898438-19.8125-156.105469-53.109375-3.226562-2.484375-5.105469-6.335937-5.105469-10.40625v-3.824219c0-20.5625-16.671874-37.234375-37.234374-37.234375-5.121094 0-9.882813-2.554687-12.777344-6.773437-28.242188-41.15625-44.777344-90.96875-44.777344-144.652344 0-8.777344.445312-17.449219 1.304688-26h509.390624c.859376 8.550781 1.304688 17.222656 1.304688 26 0 53.546875-16.453125 103.246094-44.5625 144.339844-3.023438 4.421875-8.011719 7.085937-13.363281 7.085937-21.976563 0-39.789063 17.8125-39.789063 39.789063zm0 0" fill="#4da0b8"/><path d="m160 423.464844h-83.191406v-280h83.191406zm0 0" fill="#a0452c"/><path d="m456.808594 403.328125c0 11.121094-9.015625 20.136719-20.136719 20.136719h-299.863281v-280h320zm0 0" fill="#bb5335"/><path d="m131.695312 130.464844c-.753906-3.019532-1.269531-6.117188-1.519531-9.289063-2.914062-36.949219 30.652344-70.003906 75.894531-75.894531 2.308594-.300781 4.523438 1.050781 5.316407 3.234375 9.914062 27.363281 48.476562 35.964844 80.351562 47.886719 10.394531 3.890625 26.59375 24.261718 3.519531 34.0625zm0 0" fill="#fbc1b9"/><path d="m458.921875 234.199219c13.675781 27.160156 12.882813 59.351562-2.113281 85.800781h-380v-90h380zm0 0" fill="#e27196"/><path d="m458.921875 234.199219-2.113281-4.199219h-319.644532v7.894531c1.453126-.570312 3.035157-.894531 4.691407-.894531 7.101562 0 12.859375 5.757812 12.859375 12.855469 0 7.101562-5.757813 12.859375-12.859375 12.859375-1.65625 0-3.238281-.324219-4.691407-.898438v58.183594h319.644532c14.996094-26.449219 15.789062-58.640625 2.113281-85.800781zm-282.777344 75.65625c-7.101562 0-12.859375-5.753907-12.859375-12.855469s5.757813-12.855469 12.859375-12.855469c7.097657 0 12.855469 5.753907 12.855469 12.855469s-5.757812 12.855469-12.855469 12.855469zm76.710938-27.140625c-7.097657 0-12.855469-5.757813-12.855469-12.859375 0-7.097657 5.757812-12.855469 12.855469-12.855469 7.101562 0 12.859375 5.757812 12.859375 12.855469 0 7.101562-5.757813 12.859375-12.859375 12.859375zm44.289062 10c-7.101562 0-12.859375-5.757813-12.859375-12.859375 0-7.097657 5.757813-12.855469 12.859375-12.855469 7.097657 0 12.855469 5.757812 12.855469 12.855469 0 7.101562-5.757812 12.859375-12.855469 12.859375zm95.710938 17.140625c-7.097657 0-12.855469-5.753907-12.855469-12.855469s5.757812-12.855469 12.855469-12.855469c7.101562 0 12.859375 5.753907 12.859375 12.855469s-5.757813 12.855469-12.859375 12.855469zm34.289062-27.140625c-7.101562 0-12.859375-5.757813-12.859375-12.859375 0-7.097657 5.757813-12.855469 12.859375-12.855469 7.097657 0 12.855469 5.757812 12.855469 12.855469 0 7.101562-5.757812 12.859375-12.855469 12.859375zm0 0" fill="#ec9fb8"/><path d="m295.257812 130.464844h-120.585937c-.753906-3.371094-1.269531-6.832032-1.519531-10.375-2.027344-28.675782 13.582031-55.234375 38.46875-70.984375 10.257812 26.890625 48.472656 35.460937 80.117187 47.296875 10.394531 3.890625 26.59375 24.265625 3.519531 34.0625zm-184.449218 17.617187c0-19.117187-15.5-34.613281-34.617188-34.613281-19.117187 0-34.613281 15.496094-34.613281 34.613281 0 12.042969 6.152344 22.644531 15.484375 28.847657-9.332031 6.199218-15.484375 16.800781-15.484375 28.84375 0 12.042968 6.152344 22.644531 15.484375 28.847656-9.332031 6.199218-15.484375 16.800781-15.484375 28.84375 0 12.042968 6.152344 22.644531 15.484375 28.847656-9.332031 6.199219-15.484375 16.800781-15.484375 28.84375s6.152344 22.648438 15.484375 28.847656c-9.332031 6.199219-15.484375 16.804688-15.484375 28.847656 0 19.117188 15.496094 34.613282 34.613281 34.613282 19.121094 0 34.617188-15.496094 34.617188-34.613282 0-12.042968-6.152344-22.648437-15.484375-28.847656 9.332031-6.199218 15.484375-16.804687 15.484375-28.847656s-6.152344-22.644531-15.484375-28.84375c9.332031-6.203125 15.484375-16.804688 15.484375-28.847656 0-12.042969-6.152344-22.644532-15.484375-28.84375 9.332031-6.203125 15.484375-16.804688 15.484375-28.847656 0-12.042969-6.152344-22.644532-15.484375-28.84375 9.332031-6.203126 15.484375-16.804688 15.484375-28.847657zm0 0" fill="#fccfc9"/><path d="m470.808594 143.464844c0 11.046875-8.953125 20-20 20h-30.808594v26.535156c0 11.289062-9.351562 20.390625-20.730469 19.988281-10.835937-.386719-19.269531-9.625-19.269531-20.46875v-.128906c0-5.332031-4.429688-9.457031-9.761719-9.390625-.726562.007812-1.464843-.023438-2.210937-.097656-8.988282-.875-15.992188-7.808594-17.648438-16.4375h-243.1875c-2.71875 5.460937-6.820312 10.109375-11.867187 13.460937 9.332031 6.203125 15.484375 16.804688 15.484375 28.847657 0 12.042968-6.152344 22.644531-15.484375 28.84375 9.332031 6.203124 15.484375 16.804687 15.484375 28.847656 0 12.042968-6.152344 22.644531-15.484375 28.847656 9.332031 6.199219 15.484375 16.800781 15.484375 28.84375s-6.152344 22.644531-15.484375 28.847656c9.332031 6.199219 15.484375 16.800782 15.484375 28.84375 0 13.894532-8.191406 25.871094-20 31.378906-11.8125-5.507812-20-17.484374-20-31.378906 0-8.53125 3.085937-16.335937 8.203125-22.371094 3.191406-3.761718 3.191406-9.1875 0-12.949218-5.117188-6.035156-8.203125-13.839844-8.203125-22.371094s3.085937-16.339844 8.203125-22.371094c3.191406-3.765625 3.191406-9.1875 0-12.949218-5.117188-6.035157-8.203125-13.84375-8.203125-22.371094 0-8.53125 3.085937-16.339844 8.203125-22.371094 3.191406-3.765625 3.191406-9.191406 0-12.953125-5.117188-6.03125-8.203125-13.839844-8.203125-22.371094s3.085937-16.335937 8.203125-22.371093c3.191406-3.761719 3.191406-9.1875 0-12.949219-5.117188-6.035157-8.203125-13.839844-8.203125-22.371094 0-13.894531 8.1875-25.867187 20-31.378906 3.621094 1.6875 6.894531 3.988281 9.703125 6.761719h350.296875c11.046875.003906 20 8.960937 20 20.003906zm0 0" fill="#fff5f5"/><path d="m468.046875 399.464844c-15.546875 22.933594-34.722656 43.199218-56.691406 60h-310.710938c-21.96875-16.800782-41.144531-37.066406-56.691406-60zm0 0" fill="#f9c77e"/><path d="m77.808594 399.464844h390.238281c-9.945313 14.675781-21.390625 28.253906-34.089844 40.535156h-303.085937c-25.367188 0-46.710938-17.179688-53.0625-40.535156zm0 0" fill="#f8df92"/></svg>