<svg height="512pt" viewBox="0 0 512 512" width="512pt" xmlns="http://www.w3.org/2000/svg"><path d="m512 256c0 126.382812-91.582031 231.375-212 252.234375-14.296875 2.476563-298.585938-283.3125-295.878906-298.234375 21.667968-119.433594 126.199218-210 251.878906-210 141.386719 0 256 114.613281 256 256zm0 0" fill="#23c77d"/><path d="m446.476562 78.050781-23.890624 76.414063c4.519531 3.667968 7.414062 9.261718 7.414062 15.535156 0 10.539062-8.15625 19.152344-18.5 19.925781l-23.414062 74.894531c-7.539063 8.128907-11.011719 19.21875-9.453126 30.195313l.003907.023437-15.578125 49.832032c4.246094 3.667968 6.945312 9.078125 6.945312 15.128906 0 6.542969-3.15625 12.335938-8.015625 15.984375 5.027344 6.6875 8.011719 15 8.011719 24.015625 0 20.960938-16.121094 38.140625-36.640625 39.847656l-9.054687 28.96875c-1.105469 3.535156-4.078126 6.175782-7.71875 6.855469-77.015626 14.40625-157.886719-6.914063-215.617188-64.640625-57.726562-57.730469-79.046875-138.597656-64.640625-215.613281.683594-3.644531 3.320313-6.613281 6.859375-7.722657l390.761719-122.171874c7.699219-2.410157 14.9375 4.828124 12.527343 12.527343zm0 0" fill="#fae8b1"/><path d="m280 295c0 8.285156-6.714844 15-15 15s-15-6.714844-15-15 6.714844-15 15-15 15 6.714844 15 15zm166.414062-223.097656c-1.636718-4.839844-6.921874-8.113282-12.464843-6.378906l-390.761719 122.171874c-3.539062 1.105469-6.175781 4.078126-6.859375 7.71875-14.40625 77.019532 6.914063 157.890626 64.640625 215.617188 31.695312 31.691406 70.371094 52.386719 111.546875 62.246094-9.84375-5.839844-19.394531-12.421875-28.566406-19.769532-67.511719-54.054687-99.386719-136.71875-93.191407-219.488281.292969-3.914062 2.722657-7.351562 6.320313-8.925781l74.101563-32.496094c3.214843 10.089844 12.664062 17.402344 23.820312 17.402344 13.808594 0 25-11.191406 25-25 0-4.503906-1.195312-8.722656-3.28125-12.371094zm-131.414062 118.097656c-13.808594 0-25 11.191406-25 25s11.191406 25 25 25 25-11.191406 25-25-11.191406-25-25-25zm90-90c-8.285156 0-15 6.714844-15 15s6.714844 15 15 15 15-6.714844 15-15-6.714844-15-15-15zm-80 300c-8.285156 0-15 6.714844-15 15s6.714844 15 15 15 15-6.714844 15-15-6.714844-15-15-15zm0 0" fill="#f8df92"/><path d="m329.679688 480.097656c2.097656 11.808594-5.835938 23.089844-17.539063 25.710938-18.066406 4.046875-36.851563 6.191406-56.140625 6.191406-141.382812 0-256-114.613281-256-256 0-19.289062 2.144531-38.074219 6.191406-56.140625 2.621094-11.703125 13.902344-19.636719 25.710938-17.542969.402344.074219.800781.152344 1.203125.242188 14.511719 3.238281 24.496093 17.464844 22.304687 31.777344-1.6875 11.015624-2.40625 22.109374-2.21875 33.179687.113282 6.539063 2.785156 12.851563 7.703125 17.167969 6.765625 5.933594 12.3125 14.363281 15.417969 24.433594 3.546875 11.507812 3.25 23.035156-.097656 32.515624-2.292969 6.488282-1.933594 13.613282 1.257812 19.710938.042969.085938.089844.171875.132813.253906 4.039062 7.691406 11.882812 12.585938 20.5625 12.972656 13.65625.605469 28.421875 7.089844 40.296875 18.964844 11.871094 11.875 18.359375 26.640625 18.964844 40.296875.386718 8.679688 5.28125 16.519531 12.96875 20.558594.085937.046875.171874.089844.257812.136719 6.097656 3.1875 13.222656 3.550781 19.707031 1.257812 9.480469-3.347656 21.011719-3.648437 32.519531-.101562 10.070313 3.105468 18.496094 8.652344 24.433594 15.421875 4.316406 4.914062 10.628906 7.585937 17.167969 7.699219 11.070313.191406 22.167969-.527344 33.179687-2.214844 14.3125-2.191406 28.542969 7.789062 31.777344 22.304687.089844.402344.167969.800781.238282 1.203125zm0 0" fill="#f49f1f"/><path d="m305.496094 495.003906c-11.503906 2.574219-16.246094-15.109375-28.28125-14.144531-8.042969.648437-55.699219 8.496094-63.640625 7.070313-127.390625-22.871094-184.925781-112.222657-184.925781-246.195313 0-1.183594.007812-2.371094.023437-3.550781.148437-11.570313 4.738281-22.636719 12.921875-30.820313 5.488281-5.488281 14.964844-.894531 13.84375 6.789063-.007812.0625-.019531.125-.027344.1875-1.6875 11.011718-2.40625 22.105468-2.21875 33.175781.113282 6.539063 2.785156 12.851563 7.703125 17.167969 6.765625 5.9375 12.316407 14.367187 15.417969 24.433594 3.546875 11.507812 3.25 23.039062-.097656 32.519531-2.292969 6.484375-1.933594 13.609375 1.257812 19.707031.046875.085938.089844.171875.136719.257812 4.035156 7.6875 11.878906 12.582032 20.558594 12.96875 13.65625.605469 28.421875 7.09375 40.296875 18.964844 11.875 11.875 18.359375 26.640625 18.964844 40.296875.386718 8.679688 5.28125 16.523438 12.96875 20.558594.085937.046875.171874.089844.257812.136719 6.097656 3.191406 13.222656 3.550781 19.707031 1.257812 9.480469-3.347656 21.011719-3.644531 32.519531-.097656 10.070313 3.101562 18.496094 8.652344 24.433594 15.417969 4.316406 4.917969 10.628906 7.585937 17.167969 7.703125 11.070313.191406 22.167969-.53125 33.179687-2.214844 1.582032-.246094 3.164063-.328125 4.726563-.285156 2.4375.8125 5.011719 1.261718 7.621094 1.328125 9.394531 3.046875 17.148437 11.023437 19.429687 21.261719.089844.398437.167969.800781.242188 1.199218 2.09375 11.808594-12.480469 12.285156-24.1875 14.90625zm0 0" fill="#f7b95f"/><path d="m220 275c0 30.375-24.625 55-55 55s-55-24.625-55-55 24.625-55 55-55 55 24.625 55 55zm0 0" fill="#f78d9a"/><path d="m190 245c0 8.285156-6.714844 15-15 15s-15-6.714844-15-15 6.714844-15 15-15 15 6.714844 15 15zm-55 20c-5.523438 0-10 4.476562-10 10s4.476562 10 10 10 10-4.476562 10-10-4.476562-10-10-10zm45 5c-11.046875 0-20 8.953125-20 20s8.953125 20 20 20 20-8.953125 20-20-8.953125-20-20-20zm0 0" fill="#f47383"/><path d="m320 344.949219v.050781c0 35.898438-29.101562 65-65 65s-65-29.101562-65-65c0-.015625 0-.03125 0-.050781.003906-2.746094 2.28125-4.949219 5.03125-4.949219h119.9375c2.75 0 5.027344 2.203125 5.03125 4.949219zm48.570312-205.875c-.011718-.011719-.023437-.023438-.035156-.035157-25.382812-25.386718-66.539062-25.386718-91.921875 0-25.386719 25.382813-25.386719 66.539063 0 91.921876.011719.011718.023438.023437.035157.035156 1.945312 1.941406 5.113281 1.886718 7.054687-.054688l84.8125-84.8125c1.941406-1.941406 1.996094-5.109375.054687-7.054687zm0 0" fill="#f45751"/><path d="m296.695312 361.921875c-6.683593 16.464844-22.828124 28.078125-41.695312 28.078125s-35.011719-11.613281-41.695312-28.078125c-1.34375-3.304687 1.054687-6.921875 4.621093-6.921875h74.148438c3.566406 0 5.964843 3.617188 4.621093 6.921875zm43.398438-218.371094c-16.371094-6.914062-36-3.710937-49.339844 9.628907-13.339844 13.339843-16.542968 32.96875-9.628906 49.339843 1.390625 3.285157 5.644531 4.144531 8.164062 1.625l52.429688-52.429687c2.519531-2.523438 1.660156-6.777344-1.625-8.164063zm0 0" fill="#d73247"/><path d="m244.539062 363.851562c1.109376 1.925782-1.109374 5.292969-4.960937 7.515626-3.851563 2.226562-7.878906 2.464843-8.988281.539062-1.113282-1.925781 1.109375-5.289062 4.960937-7.515625 3.851563-2.222656 7.875-2.464844 8.988281-.539063zm10.460938 6.042969c-2.222656 0-4.027344 3.601563-4.027344 8.050781 0 4.449219 1.804688 8.054688 4.027344 8.054688s4.027344-3.605469 4.027344-8.054688c0-4.449218-1.804688-8.050781-4.027344-8.050781zm19.449219-5.503906c-3.851563-2.222656-7.875-2.464844-8.988281-.539063-1.109376 1.925782 1.109374 5.292969 4.960937 7.515626 3.851563 2.226562 7.878906 2.464843 8.988281.539062 1.113282-1.925781-1.109375-5.289062-4.960937-7.515625zm46.359375-215.675781c-2.148438-.578125-4.820313 2.4375-5.972656 6.734375-1.152344 4.296875-.34375 8.246093 1.804687 8.820312 2.148437.578125 4.824219-2.4375 5.972656-6.734375 1.152344-4.296875.347657-8.246094-1.804687-8.820312zm-27.226563 7.292968c-1.570312 1.574219-.296875 5.398438 2.847657 8.542969 3.144531 3.144531 6.96875 4.421875 8.542968 2.847657 1.574219-1.574219.296875-5.394532-2.847656-8.542969-3.144531-3.144531-6.96875-4.417969-8.542969-2.847657zm-.558593 21.253907c-4.292969 1.152343-7.3125 3.828125-6.734376 5.976562.574219 2.144531 4.523438 2.953125 8.820313 1.804688 4.296875-1.152344 7.3125-3.828125 6.738281-5.976563-.578125-2.148437-4.527344-2.957031-8.824218-1.804687zm0 0" fill="#f9a29b"/><path d="m388.082031 264.820312-9.445312 30.21875c-10.5625 9.445313-26.792969 9.101563-36.9375-1.042968l-.894531-.898438-11.949219 11.953125c-6.601563 6.601563-17.304688 6.601563-23.902344 0-6.601563-6.601562-6.601563-17.304687 0-23.902343l11.949219-11.953126-.894532-.894531c-10.507812-10.503906-10.507812-27.539062 0-38.042969l1.792969-1.792968c10.503907-10.503906 27.539063-10.503906 38.042969 0l25.695312 25.695312c3.097657 3.097656 5.273438 6.765625 6.542969 10.660156zm0 0" fill="#e5846a"/><path d="m360.722656 289.113281c-6.601562 6.601563-17.300781 6.601563-23.902344 0l-15.933593-15.933593c-6.601563-6.601563-6.601563-17.300782 0-23.902344 6.597656-6.597656 17.300781-6.597656 23.898437 0l15.9375 15.9375c6.597656 6.597656 6.597656 17.300781 0 23.898437zm0 0" fill="#e06e4e"/></svg>