<svg height="512pt" viewBox="0 0 512.00113 512" width="512pt" xmlns="http://www.w3.org/2000/svg"><path d="m437.019531 437.019531c-99.972656 99.976563-262.0625 99.976563-362.039062 0-99.972657-99.972656-99.972657-262.0625 0-362.039062 99.972656-99.972657 262.0625-99.972657 362.039062 0 99.976563 99.976562 99.976563 262.066406 0 362.039062zm0 0" fill="#347d91"/><path d="m203.675781 82.054688 226.273438 226.273437-97.355469 97.351563c-22.472656 22.476562-56.121094 29.515624-85.71875 17.933593l-81.402344-31.855469c-7.398437-2.894531-15.8125-1.132812-21.429687 4.484376l-54.371094 54.375c-5.027344-4.308594-9.929687-8.835938-14.691406-13.597657-4.757813-4.757812-9.289063-9.660156-13.59375-14.6875l54.375-54.375c5.617187-5.617187 7.378906-14.03125 4.480469-21.429687l-31.851563-81.398438c-11.582031-29.601562-4.542969-63.246094 17.929687-85.722656zm0 0" fill="#fad39c"/><path d="m115.761719 367.957031c5.617187-5.617187 7.375-14.03125 4.480469-21.429687l-31.851563-81.398438c-11.582031-29.601562-4.542969-63.246094 17.929687-85.722656l97.355469-97.355469 14.304688 14.308594-83.042969 83.046875c-22.476562 22.476562-29.515625 56.121094-17.933594 85.722656l31.855469 81.398438c2.894531 7.398437 1.132813 15.8125-4.484375 21.429687l-69.226562 69.226563c-.054688-.054688-.113282-.105469-.167969-.164063-4.757813-4.757812-9.289063-9.660156-13.59375-14.6875zm0 0" fill="#f9c77e"/><path d="m512 186.003906c0 102.722656-83.273438 186-186 186-102.722656 0-186-83.277344-186-186 0-102.726562 83.277344-185.99999975 186-185.99999975 102.726562 0 186 83.27343775 186 185.99999975zm0 0" fill="#f7ad3b"/><path d="m415.890625 348.867188c-26.648437 14.734374-57.285156 23.136718-89.890625 23.136718-102.722656 0-186-83.277344-186-186 0-32.605468 8.398438-63.246094 23.136719-89.890625-4.644531 17.179688-7.136719 35.242188-7.136719 53.890625 0 113.769532 92.230469 206 206 206 18.648438 0 36.710938-2.496094 53.890625-7.136718zm0 0" fill="#f49f1f"/><path d="m341 190 148.082031 85.496094c-2.414062 4.394531-5.003906 8.675781-7.757812 12.84375l-147.824219-85.347656v168.847656c-2.488281.097656-4.984375.160156-7.5.160156-2.511719 0-5.011719-.0625-7.5-.160156v-168.847656l-147.824219 85.347656c-2.75-4.167969-5.34375-8.449219-7.757812-12.84375l148.082031-85.496094-151.304688-87.355469c2.25-4.480469 4.664063-8.863281 7.257813-13.128906l151.546875 87.496094v-176.847657c2.488281-.0976558 4.988281-.164062 7.5-.164062 2.515625 0 5.011719.0664062 7.5.164062v176.847657l151.550781-87.496094c2.589844 4.265625 5.007813 8.648437 7.257813 13.128906zm0 0" fill="#e2902a"/><path d="m365.648438 335.03125c-.3125 1.222656-1.230469 2.207031-2.453126 2.507812-11.921874 2.914063-24.375 4.464844-37.195312 4.464844-11.464844 0-22.636719-1.246094-33.398438-3.59375-1.566406-.34375-2.605468-1.773437-2.601562-3.378906 0-.011719 0-.019531 0-.027344 0-8.285156-6.714844-15-15-15-4.847656 0-9.148438 2.300782-11.886719 5.871094-.964843 1.253906-2.644531 1.742188-4.078125 1.0625-14.0625-6.695312-26.964844-15.441406-38.328125-25.839844-.84375-.773437-1.253906-1.941406-1.019531-3.0625.804688-3.863281.136719-8.257812-2.9375-12.714844-.167969-.242187-.375-.476562-.597656-.667968-4.5-3.890625-8.785156-4.96875-12.636719-4.574219-1.144531.117187-2.269531-.40625-2.953125-1.332031-6.527344-8.816406-12.148438-18.34375-16.726562-28.445313-.613282-1.355469-.222657-2.949219.910156-3.917969 3.210937-2.746093 5.253906-6.820312 5.253906-11.378906 0-8.285156-6.714844-15-15-15-.425781 0-.84375.027344-1.257812.0625-2.445313-10.96875-3.742188-22.363281-3.742188-34.0625 0-1.605468.027344-3.207031.078125-4.796875.039063-1.207031.707031-2.328125 1.777344-2.878906 4.832031-2.488281 8.144531-7.515625 8.144531-13.324219 0-4.4375-1.929688-8.417968-4.988281-11.160156-.886719-.792969-1.246094-2.03125-.976563-3.1875 5.84375-25.234375 17.808594-48.125 34.25-67.019531 1.058594-1.214844 2.835938-1.449219 4.230469-.640625 4.902344 2.839844 11.554687 2.984375 17.976563-1.648438.289062-.207031.550781-.464844.757812-.75 4.363281-5.949218 4.585938-12.078125 2.375-16.855468-.683594-1.476563-.308594-3.234376 1.007812-4.191407 14.355469-10.390625 30.550782-18.390625 48.003907-23.429687 1.058593-.308594 2.191406-.042969 3.054687.644531 2.558594 2.027344 5.792969 3.238281 9.308594 3.238281 5.558594 0 10.40625-3.027344 12.996094-7.515625.550781-.953125 1.496094-1.613281 2.589844-1.722656 5.070312-.5 10.210937-.761719 15.414062-.761719 13.0625 0 25.746094 1.613282 37.871094 4.636719 1.089844.269531 1.953125 1.085937 2.332031 2.140625 2.777344 7.707031 10.132813 13.222656 18.796875 13.222656 3.492188 0 6.769531-.902344 9.625-2.476562.976562-.542969 2.15625-.574219 3.148438-.0625.527343.273437 1.050781.546875 1.574218.824218.714844.378907 1.273438 1.007813 1.546875 1.773438 2.078125 5.792969 7.601563 9.941406 14.105469 9.941406.480469 0 .953125-.027344 1.417969-.074218.824219-.085938 1.65625.140624 2.320312.632812 28.941407 21.429688 50.203125 52.628906 58.910157 88.730469.320312 1.316406-.210938 2.699219-1.316407 3.484375-3.828125 2.714844-6.332031 7.175781-6.332031 12.226562 0 6.46875 4.101562 11.980469 9.84375 14.085938 1.257812.460937 2.066406 1.6875 2.101562 3.027344.035157 1.292968.054688 2.585937.054688 3.886718 0 7.820313-.582031 15.5-1.691406 23.011719-.167969 1.117187-.910156 2.042969-1.921875 2.539063-4.960938 2.445312-8.382813 7.542968-8.382813 13.449218 0 3.324219 1.089844 6.386719 2.921875 8.871094.671875.914062.902344 2.082031.53125 3.152344-5.257812 15.207031-12.804687 29.339844-22.222656 42-.757813 1.015625-2.039063 1.53125-3.277344 1.277344-4.167969-.851563-8.949219.011718-13.796875 3.851562-.257812.203125-.492187.449219-.683594.71875-3.539062 4.996094-4.125 10.050781-2.871093 14.324219.359375 1.226562-.023438 2.558593-.980469 3.410156-9.117188 8.109375-19.191406 15.164063-30.035156 20.972656-1.105469.59375-2.441406.484375-3.484375-.214843-3.175781-2.125-6.996094-3.363282-11.105469-3.363282-9.324219 0-17.140625 6.390625-19.351562 15.027344zm0 0" fill="#fdf164"/><path d="m466.265625 117.679688c-2.199219-4.511719-4.613281-8.894532-7.222656-13.148438l-125.542969 72.480469v-146.8125c-2.484375-.121094-4.984375-.199219-7.5-.199219s-5.015625.066406-7.5.1875v20.242188c-1.125-.269532-2.292969-.429688-3.5-.429688-8.28125 0-15 6.71875-15 15 0 8.285156 6.71875 15 15 15 1.207031 0 2.375-.15625 3.5-.425781v97.4375l-99.53125-57.464844c10.4375-30.515625 27.851562-57.515625 50.21875-78.859375-12.363281 4.835938-23.960938 11.195312-34.554688 18.863281-1.316406.953125-1.691406 2.714844-1.007812 4.191407 2.210938 4.777343 1.988281 10.90625-2.375 16.855468-.207031.285156-.46875.542969-.757812.75-6.421876 4.632813-13.074219 4.484375-17.976563 1.648438-1.394531-.8125-3.171875-.578125-4.230469.640625-16.441406 18.894531-28.40625 41.785156-34.25 67.019531-.269531 1.15625.089844 2.394531.976563 3.1875 3.058593 2.742188 4.988281 6.726562 4.988281 11.15625 0 5.8125-3.308594 10.839844-8.144531 13.328125-1.070313.550781-1.734375 1.671875-1.773438 2.875-.050781 1.59375-.082031 3.191406-.082031 4.796875 0 11.703125 1.300781 23.097656 3.742188 34.066406.414062-.035156.832031-.066406 1.257812-.066406 8.285156 0 15 6.71875 15 15 0 4.5625-2.042969 8.636719-5.253906 11.382812-1.132813.96875-1.523438 2.5625-.910156 3.917969 2.0625 4.550781 4.34375 8.976563 6.816406 13.277344.054687.09375.105468.183594.160156.273437.574219 1 1.160156 1.988282 1.757812 2.972657.0625.097656.121094.195312.179688.292969.605469.992187 1.222656 1.980468 1.851562 2.957031.042969.070312.085938.136719.128907.207031.648437 1.003906 1.304687 2 1.972656 2.988281.007813.011719.015625.023438.019531.03125 1.246094 1.839844 2.519532 3.660157 3.839844 5.445313.683594.925781 1.808594 1.449218 2.953125 1.332031 3.851563-.398437 8.140625.683594 12.636719 4.570313.222656.191406.429687.425781.601562.671874 3.074219 4.453126 3.738282 8.851563 2.933594 12.710938-.234375 1.125.175781 2.289062 1.019531 3.0625 11.363281 10.402344 24.265625 19.144531 38.332031 25.839844 1.429688.683594 3.109376.195312 4.074219-1.0625.089844-.113282.191407-.21875.285157-.332032-18.019532-18.730468-32.425782-41.308593-42.03125-66.46875l59.75-34.496093c1.660156 3.222656 5.011718 5.425781 8.882812 5.425781 5.523438 0 10-4.476562 10-10 0-1.992188-.589844-3.847656-1.59375-5.40625l20.09375-11.601562v138.820312c2.488281.117188 4.984375.1875 7.5.1875s5.015625-.074219 7.5-.195312v-11.878907c.496094.050781.996094.074219 1.5.074219 8.285156 0 15-6.714844 15-15 0-8.28125-6.714844-15-15-15-.503906 0-1.003906.027344-1.5.078125v-97.085937l121.773438 70.304687c2.796874-4.132813 5.398437-8.414063 7.796874-12.816406l-122.070312-70.480469zm-249.808594 126.90625c-5.492187-18.5-8.457031-38.175782-8.457031-58.585938 0-13.753906 1.359375-27.171875 3.917969-40.125 1.820312 2.496094 4.757812 4.125 8.082031 4.125 4.488281 0 8.285156-2.953125 9.550781-7.023438l81.449219 47.023438zm218.542969-54.585938c8.285156 0 15 6.71875 15 15 0 8.285156-6.714844 15-15 15-8.28125 0-15-6.714844-15-15 0-8.28125 6.71875-15 15-15zm-85-50c0-5.519531 4.476562-10 10-10s10 4.480469 10 10c0 5.523438-4.476562 10-10 10s-10-4.476562-10-10zm70-40c0-5.519531 4.476562-10 10-10s10 4.480469 10 10c0 5.523438-4.476562 10-10 10s-10-4.476562-10-10zm0 0" fill="#fdee32"/><path d="m429.042969 56.835938-54.632813 54.632812c-1.253906 1.253906-3.292968 1.289062-4.546875.039062-.007812-.007812-.015625-.015624-.023437-.023437-16.351563-16.351563-16.351563-42.863281 0-59.21875 16.351562-16.351563 42.867187-16.351563 59.21875 0 .007812.011719.015625.015625.023437.023437 1.25 1.253907 1.214844 3.292969-.039062 4.546876zm-88.097657 173.003906c-.007812.007812-.015624.019531-.023437.023437-1.25 1.253907-1.214844 3.292969.035156 4.546875l54.636719 54.636719c1.25 1.25 3.292969 1.285156 4.546875.035156.007813-.007812.011719-.015625.019531-.023437 16.355469-16.351563 16.355469-42.863282 0-59.21875-16.351562-16.351563-42.863281-16.351563-59.214844 0zm-70.4375-54.933594h-77.265624c-1.769532 0-3.242188 1.417969-3.242188 3.1875v.035156c0 23.125 18.75 41.871094 41.875 41.871094s41.875-18.746094 41.875-41.871094c0-.011718 0-.019531 0-.035156-.003906-1.769531-1.472656-3.1875-3.242188-3.1875zm0 0" fill="#f45751"/><path d="m411.78125 60.433594-33.773438 33.773437c-1.625 1.625-4.367187 1.070313-5.261718-1.046875-4.453125-10.546875-2.390625-23.191406 6.203125-31.785156s21.238281-10.65625 31.785156-6.203125c2.117187.894531 2.671875 3.636719 1.046875 5.261719zm-52.511719 172.3125c-2.117187.894531-2.671875 3.636718-1.046875 5.261718l33.773438 33.773438c1.625 1.625 4.363281 1.070312 5.257812-1.046875 4.457032-10.546875 2.390625-23.191406-6.203125-31.785156s-21.238281-10.65625-31.78125-6.203125zm-103.511719-48.175782h-47.765624c-2.296876 0-3.84375 2.332032-2.980469 4.457032 4.308593 10.609375 14.710937 18.089844 26.863281 18.089844s22.554688-7.480469 26.859375-18.089844c.867187-2.125-.679687-4.457032-2.976563-4.457032zm0 0" fill="#d73247"/><path d="m275 130c-13.804688 0-25-11.191406-25-25 0-13.804688 11.195312-25 25-25 13.808594 0 25 11.195312 25 25 0 13.808594-11.191406 25-25 25zm20 130c-13.804688 0-25 11.195312-25 25 0 13.808594 11.195312 25 25 25 13.808594 0 25-11.191406 25-25 0-13.804688-11.191406-25-25-25zm140-140c-13.804688 0-25 11.195312-25 25 0 13.808594 11.195312 25 25 25 13.808594 0 25-11.191406 25-25 0-13.804688-11.191406-25-25-25zm0 0" fill="#f78d9a"/><path d="m270 95c0 2.761719-2.238281 5-5 5s-5-2.238281-5-5c0-2.757812 2.238281-5 5-5s5 2.242188 5 5zm25 10c0-5.519531-4.476562-10-10-10s-10 4.480469-10 10c0 5.523438 4.476562 10 10 10s10-4.476562 10-10zm10 165c-2.761719 0-5 2.242188-5 5 0 2.761719 2.238281 5 5 5s5-2.238281 5-5c0-2.757812-2.238281-5-5-5zm-10 15c-5.523438 0-10 4.480469-10 10 0 5.523438 4.476562 10 10 10s10-4.476562 10-10c0-5.519531-4.476562-10-10-10zm150-155c-2.761719 0-5 2.242188-5 5 0 2.761719 2.238281 5 5 5s5-2.238281 5-5c0-2.757812-2.238281-5-5-5zm-10 15c-5.523438 0-10 4.480469-10 10 0 5.523438 4.476562 10 10 10s10-4.476562 10-10c0-5.519531-4.476562-10-10-10zm0 0" fill="#f47383"/><path d="m390 180c0 5.523438-8.953125 10-20 10s-20-4.476562-20-10c0-5.519531 8.953125-10 20-10s20 4.480469 20 10zm-87.070312-47.070312c-7.808594 7.8125-10.976563 17.308593-7.070313 21.214843s13.402344.738281 21.210937-7.070312c7.8125-7.8125 10.976563-17.308594 7.074219-21.214844-3.90625-3.90625-13.40625-.738281-21.214843 7.070313zm44.183593 155.816406c-7.808593 7.808594-10.972656 17.308594-7.070312 21.210937 3.90625 3.90625 13.402343.742188 21.214843-7.070312 7.808594-7.808594 10.976563-17.308594 7.070313-21.210938-3.90625-3.90625-13.402344-.742187-21.214844 7.070313zm-112.925781-44.558594c-11.046875 0-20 4.476562-20 10s8.953125 10 20 10c11.042969 0 20-4.476562 20-10s-8.957031-10-20-10zm225.769531-44.140625c-3.902343-3.90625-13.402343-.742187-21.210937 7.070313-7.8125 7.808593-10.976563 17.308593-7.070313 21.210937 3.902344 3.90625 13.402344.742187 21.210938-7.070313 7.808593-7.808593 10.976562-17.308593 7.070312-21.210937zm-230-98.371094c-3.902343-3.90625-13.402343-.742187-21.210937 7.070313-7.8125 7.808594-10.976563 17.308594-7.070313 21.210937 3.902344 3.90625 13.402344.742188 21.210938-7.070312 7.808593-7.808594 10.976562-17.308594 7.070312-21.210938zm0 0" fill="#23c77d"/></svg>