<svg height="512pt" viewBox="0 0 512.0016 512" width="512pt" xmlns="http://www.w3.org/2000/svg"><path d="m97 75.675781c0-13.441406 6.78125-25.949219 17.992188-33.359375 40.4375-26.742187 88.902343-42.316406 141.007812-42.316406 141.386719 0 256 114.617188 256 256 0 8.78125-.449219 17.453125-1.316406 26.003906-.484375 4.761719-4.542969 8.359375-9.328125 8.359375h-189.667969c-118.570312 0-214.6875-96.121093-214.6875-214.6875zm0 0" fill="#347d91"/><path d="m434.667969 429.695312v1.84375c0 5.011719-2.058594 9.820313-5.75 13.207032-45.550781 41.757812-106.25 67.253906-172.917969 67.253906-52.074219 0-100.515625-15.550781-140.9375-42.261719-68.382812-45.191406-77.992188-141.824219-20.03125-199.785156l199.761719-199.761719c1.953125-1.953125 5.117187-1.953125 7.070312 0l209.074219 209.074219c-4.027344 44.703125-19.554688 86.085937-43.585938 121.1875-1.660156 2.417969-4.390624 3.882813-7.324218 3.882813-14.003906-.003907-25.359375 11.351562-25.359375 25.359374zm0 0" fill="#ec3c52"/><path d="m362 256c0 119.292969-96.707031 216-216 216-10.464844 0-20.753906-.757812-30.820312-2.195312-69.386719-45.796876-115.179688-124.445313-115.179688-213.804688 0-89.355469 45.792969-168.007812 115.179688-213.800781 10.066406-1.4375 20.355468-2.199219 30.820312-2.199219 119.292969 0 216 96.707031 216 216zm0 0" fill="#b7e3ef"/><path d="m146 100c-33.484375 0-64.496094 10.5625-89.90625 28.519531 15.703125-33.433593 37.386719-62.964843 63.511719-86.902343-1.480469.179687-2.957031.371093-4.425781.582031-46.964844 30.996093-83.113282 77.046875-101.578126 131.28125-.003906.007812-.007812.011719-.011718.019531-.035156.101562-.066406.210938-.101563.316406-8.742187 25.796875-13.488281 53.433594-13.488281 82.183594s4.746094 56.390625 13.488281 82.1875c.035157.101562.066407.214844.101563.316406.003906.007813.007812.011719.011718.019532 18.464844 54.230468 54.613282 100.28125 101.578126 131.277343 1.46875.210938 2.945312.402344 4.425781.582031-26.125-23.9375-47.808594-53.46875-63.511719-86.902343 25.410156 17.960937 56.421875 28.519531 89.90625 28.519531 86.15625 0 156-69.84375 156-156s-69.84375-156-156-156zm0 292c-42.761719 0-80.902344-19.738281-105.835938-50.597656-7.894531-26.921875-12.164062-55.613282-12.164062-85.402344 0-29.785156 4.269531-58.480469 12.164062-85.402344 24.933594-30.855468 63.074219-50.597656 105.835938-50.597656 75.109375 0 136 60.890625 136 136 0 75.113281-60.890625 136-136 136zm0 0" fill="#94d7e8"/><path d="m501.519531 212.414062c-6.03125 10.117188-14.15625 18.445313-23.652343 24.144532-6.09375 3.652344-9.929688 10.128906-9.929688 17.234375v145.835937c-11.476562 16.898438-24.917969 32.355469-40 46.039063v-191.875c0-7.105469-3.839844-13.582031-9.929688-17.234375-9.5-5.699219-17.625-14.027344-23.652343-24.144532-8.699219-14.597656-11.953125-31.804687-9.878907-48.671874l7.847657-78.773438c.351562-2.835938 2.757812-4.96875 5.617187-4.96875 2.855469 0 5.261719 2.125 5.613282 4.957031l8.148437 80.15625c.707031 5.628907 5.492187 9.855469 11.164063 9.855469h.140624c5.671876 0 10.457032-4.226562 11.160157-9.855469l8.148437-80.15625c.355469-2.832031 2.761719-4.957031 5.617188-4.957031h.007812c2.855469 0 5.261719 2.125 5.617188 4.957031l8.148437 80.15625c.703125 5.628907 5.488281 9.855469 11.160157 9.855469 5.664062 0 10.445312-4.214844 11.160156-9.832031l8.285156-80.191407c.359375-2.828124 2.761719-4.945312 5.613281-4.945312h.007813c2.859375 0 5.265625 2.132812 5.617187 4.96875l7.847657 78.773438c2.070312 16.867187-1.183594 34.070312-9.878907 48.671874zm0 0" fill="#f0eff4"/><path d="m454.0625 418.191406c-8.023438 9.789063-16.757812 18.976563-26.125 27.476563v-191.875c0-7.105469-3.839844-13.582031-9.929688-17.234375-9.5-5.699219-17.625-14.027344-23.652343-24.144532-8.699219-14.597656-11.953125-31.804687-9.878907-48.671874l7.847657-78.773438c.351562-2.835938 2.757812-4.96875 5.617187-4.96875 2.855469 0 5.261719 2.125 5.613282 4.957031l7.527343 74.015625-.476562 4.769532c-2.074219 16.863281 1.179687 34.070312 9.878906 48.667968 6.027344 10.121094 14.152344 18.449219 23.652344 24.144532 6.089843 3.65625 9.929687 10.132812 9.929687 17.238281v164.398437zm0 0" fill="#dcdce1"/></svg>