<svg height="512pt" viewBox="0 0 512 512.00042" width="512pt" xmlns="http://www.w3.org/2000/svg"><path d="m0 256c0-141.226562 114.359375-255.742188 255.527344-256 140.269531-.253906 255.289062 113.539062 256.464844 253.804688.597656 71.5625-28.175782 136.398437-74.984376 183.203124-1.902343 1.90625-4.476562 2.992188-7.171874 2.992188h-326.097657c-17.46875 0-34.125-7.671875-45.25-21.144531-36.53125-44.253907-58.488281-100.988281-58.488281-162.855469zm0 0" fill="#f7c32a"/><path d="m322.429688 59.519531 7.878906-7.882812c1.046875-1.046875 2.46875-1.636719 3.953125-1.636719 3.085937 0 5.589843 2.503906 5.589843 5.589844v44.410156c0 11.046875-8.957031 20-20 20h-250c-11.046874 0-20-8.953125-20-20v-44.410156c0-3.085938 2.5-5.589844 5.589844-5.589844 1.480469 0 2.902344.589844 3.949219 1.636719l7.882813 7.878906c1.953124 1.953125 5.117187 1.953125 7.070312 0l4.128906-4.128906c3.449219-3.449219 8.128906-5.386719 13.007813-5.386719 4.878906 0 9.558593 1.9375 13.007812 5.386719l4.132813 4.128906c1.949218 1.953125 5.117187 1.953125 7.070312 0l4.128906-4.128906c3.449219-3.449219 8.128907-5.386719 13.007813-5.386719s9.558594 1.9375 13.007813 5.386719l4.128906 4.128906c1.953125 1.953125 5.121094 1.953125 7.074218 0l4.128907-4.128906c3.449219-3.449219 8.128906-5.386719 13.007812-5.386719 4.878907 0 9.558594 1.9375 13.007813 5.386719l4.128906 4.128906c1.953125 1.953125 5.117188 1.953125 7.070312 0l4.128907-4.128906c3.453125-3.449219 8.132812-5.386719 13.011719-5.386719 4.878906 0 9.558593 1.9375 13.007812 5.386719l4.128906 4.128906c1.953125 1.953125 5.117188 1.953125 7.070313 0l4.128906-4.128906c3.449219-3.449219 8.128906-5.386719 13.011719-5.386719 4.878906 0 9.558594 1.9375 13.007812 5.386719l4.128906 4.128906c1.953126 1.953125 5.117188 1.953125 7.070313 0l4.128906-4.128906c3.449219-3.449219 8.128907-5.386719 13.007813-5.386719s9.558594 1.9375 13.011718 5.386719l4.128907 4.128906c1.953125 1.953125 5.121093 1.953125 7.074219.003906zm0 0" fill="#a0452c"/><path d="m339.851562 85.589844v374.410156c0 17.21875-7.261718 32.730469-18.878906 43.671875-20.75 5.429687-42.519531 8.328125-64.972656 8.328125-84.5625 0-159.535156-41.007812-206.148438-104.210938v-322.199218c0-3.085938 2.503907-5.589844 5.589844-5.589844 1.480469 0 2.902344.589844 3.953125 1.636719l7.878907 7.878906c1.953124 1.953125 5.117187 1.953125 7.070312 0l4.128906-4.128906c3.449219-3.449219 8.128906-5.386719 13.007813-5.386719 4.878906 0 9.5625 1.9375 13.011719 5.386719l4.128906 4.128906c1.953125 1.953125 5.117187 1.953125 7.070312 0l4.128906-4.128906c3.449219-3.449219 8.128907-5.386719 13.007813-5.386719s9.558594 1.9375 13.011719 5.386719l4.128906 4.128906c1.953125 1.953125 5.117188 1.953125 7.070312 0l4.128907-4.128906c3.449219-3.449219 8.128906-5.386719 13.007812-5.386719 4.878907 0 9.558594 1.9375 13.007813 5.386719l4.128906 4.128906c1.953125 1.953125 5.121094 1.953125 7.074219 0l4.128906-4.128906c3.449219-3.449219 8.128906-5.386719 13.007813-5.386719 4.878906 0 9.558593 1.9375 13.007812 5.386719l4.128906 4.128906c1.953125 1.953125 5.117188 1.953125 7.070313 0l4.128906-4.128906c3.453125-3.449219 8.132813-5.386719 13.011719-5.386719s9.558594 1.9375 13.007812 5.386719l4.128906 4.128906c1.953126 1.953125 5.117188 1.953125 7.070313 0l4.128906-4.128906c3.453125-3.449219 8.132813-5.386719 13.011719-5.386719s9.558594 1.9375 13.007812 5.386719l4.128907 4.128906c1.953125 1.953125 5.117187 1.953125 7.070312 0l7.878907-7.878906c1.050781-1.046875 2.472656-1.636719 3.953124-1.636719 3.089844 0 5.59375 2.503906 5.59375 5.589844zm0 0" fill="#e06e4e"/><path d="m271.027344 511.558594c-4.972656.289062-9.980469.441406-15.027344.441406-84.5625 0-159.535156-41.007812-206.148438-104.210938v-322c0-2.40625 1.429688-4.664062 3.699219-5.460937 2.105469-.742187 4.351563-.183594 5.84375 1.308594l7.878907 7.882812c1.953124 1.953125 5.117187 1.953125 7.070312 0l4.128906-4.128906c.570313-.570313 1.1875-1.085937 1.820313-1.570313-.1875.558594-.292969 1.148438-.292969 1.769532v300.996094c0 14.554687 5.210938 28.6875 14.886719 39.558593 43.761719 49.15625 106.175781 81.335938 176.140625 85.414063zm-71.027344-231.558594c38.660156 0 70-31.339844 70-70s-31.339844-70-70-70-70 31.339844-70 70 31.339844 70 70 70zm0 0" fill="#d25e3e"/><path d="m204.125 225c-2.277344 2.277344-5.972656 2.277344-8.25 0-7.410156-7.414062-11.378906-16.964844-11.898438-26.667969-.601562-11.171875 3.363282-22.546875 11.898438-31.082031 2.277344-2.277344 5.972656-2.277344 8.25 0 15.945312 15.949219 15.945312 41.800781 0 57.75zm-27.457031-9.890625c-6.613281-4.613281-14.660157-7.316406-23.335938-7.316406-3.222656 0-5.832031 2.609375-5.832031 5.832031 0 22.550781 18.28125 40.832031 40.832031 40.832031 3.222657 0 5.835938-2.613281 5.835938-5.832031 0-13.875-6.921875-26.136719-17.5-33.515625zm70-7.316406c-12.222657 0-23.1875 5.367187-30.671875 13.875-6.324219 7.191406-10.160156 16.625-10.160156 26.957031 0 3.222656 2.609374 5.832031 5.832031 5.832031 22.550781 0 40.832031-18.28125 40.832031-40.832031 0-3.222656-2.613281-5.832031-5.832031-5.832031zm0 0" fill="#f8df92"/><path d="m487.316406 130.003906-91.816406 159.03125c17.746094 21.484375 19.972656 55.410156 3.289062 84.304688-20.710937 35.871094-62.703124 50.402344-93.792968 32.453125s-39.5-61.582031-18.792969-97.453125c16.683594-28.894532 47.175781-43.929688 74.65625-39.304688l91.816406-159.03125c5.523438-9.566406 17.753907-12.84375 27.320313-7.320312 9.566406 5.523437 12.84375 17.753906 7.320312 27.320312zm0 0" fill="#f0eff4"/><path d="m301.828125 403.808594c-28.464844-19.015625-35.609375-60.851563-15.621094-95.46875 16.683594-28.894532 47.171875-43.929688 74.652344-39.304688l91.816406-159.03125c5.523438-9.566406 17.753907-12.84375 27.320313-7.320312 5.226562 3.015625 8.558594 8.039062 9.621094 13.53125-8.140626-1.574219-16.730469 2.039062-21.109376 9.621094l-88.539062 153.355468c-1.929688 3.339844-5.597656 5.207032-9.445312 4.96875-25.765626-1.605468-53.042969 13.261719-68.484376 40.011719-15.519531 26.878906-14.6875 58.113281-.210937 79.636719zm0 0" fill="#dcdce1"/><path d="m460.851562 320v20c0 5.523438-4.476562 10-10 10v22c0 23.117188-4.914062 45.082031-13.738281 64.925781-46.335937 46.378907-110.375 75.074219-181.113281 75.074219-13.761719 0-27.265625-1.097656-40.441406-3.191406-10.984375-3.179688-21.25-8.691406-29.984375-16.332032-33.539063-29.324218-54.722657-72.425781-54.722657-120.476562v-22c-5.523437 0-10-4.476562-10-10v-20c0-5.523438 4.476563-10 10-10h320c5.523438 0 10 4.476562 10 10zm0 0" fill="#99c8d3"/><path d="m460.851562 320v20c0 5.523438-4.476562 10-10 10v22c0 23.117188-4.914062 45.082031-13.738281 64.925781-22.09375 22.113281-48.21875 40.195313-77.167969 53.074219h-128.644531c-4.121093-3.578125-7.949219-7.070312-11.300781-10-33.535156-29.324219-51.148438-59.949219-51.148438-108 0-3.867188 3.132813-7 7-7h241.183594c4.109375 0 7.6875-3.164062 7.8125-7.269531.125-4.246094-3.277344-7.730469-7.496094-7.730469h-262.5c-5.523437 0-10-4.476562-10-10v-20c0-5.523438 4.476563-10 10-10h296c5.523438 0 10 4.476562 10 10zm0 0" fill="#afdbe1"/><path d="m224.851562 395c0 8.285156-6.714843 15-15 15-8.285156 0-15-6.714844-15-15s6.714844-15 15-15c8.285157 0 15 6.714844 15 15zm145-15c-8.285156 0-15 6.714844-15 15s6.714844 15 15 15c8.285157 0 15-6.714844 15-15s-6.714843-15-15-15zm0 0" fill="#f7b95f"/><path d="m419.441406 411.285156c-10.550781 31.199219-30.460937 58.085938-56.402344 77.3125-9.5 4.378906-19.3125 8.195313-29.402343 11.402344h-94.632813c-1.730468 0-3.441406-.4375-4.941406-1.300781-33.449219-19.269531-59.25-50.289063-71.804688-87.414063-2.203124-6.519531 2.574219-13.285156 9.449219-13.285156h.882813c2.515625-4.753906 7.503906-8 13.261718-8 3.835938 0 7.332032 1.441406 9.984376 3.8125 2.910156 2.605469 6.589843 4.1875 10.496093 4.1875h1.035157c3.90625 0 7.585937-1.582031 10.496093-4.1875 2.652344-2.371094 6.148438-3.8125 9.984375-3.8125 3.835938 0 7.335938 1.441406 9.984375 3.8125 2.914063 2.605469 6.59375 4.1875 10.5 4.1875h1.03125c3.910157 0 7.589844-1.582031 10.5-4.1875 2.652344-2.371094 6.148438-3.8125 9.984375-3.8125 3.835938 0 7.335938 1.441406 9.984375 3.8125 2.914063 2.605469 6.59375 4.1875 10.5 4.1875h1.03125c3.90625 0 7.589844-1.582031 10.5-4.1875 2.652344-2.371094 6.148438-3.8125 9.984375-3.8125 3.835938 0 7.332032 1.441406 9.984375 3.8125 2.910157 2.605469 6.589844 4.1875 10.5 4.1875h1.03125c3.90625 0 7.585938-1.582031 10.5-4.1875 2.648438-2.371094 6.148438-3.8125 9.984375-3.8125 3.835938 0 7.332032 1.441406 9.984375 3.8125 2.910157 2.605469 6.589844 4.1875 10.496094 4.1875h1.035156c3.90625 0 7.585938-1.582031 10.496094-4.1875 2.652344-2.371094 6.148437-3.8125 9.984375-3.8125 5.757812 0 10.746094 3.246094 13.261719 8h.882812c6.882813 0 11.65625 6.765625 9.453125 13.285156zm0 0" fill="#fae8b1"/><path d="m409.992188 398h-.878907c-2.515625-4.753906-7.507812-8-13.261719-8-3.835937 0-7.335937 1.441406-9.984374 3.8125-2.914063 2.605469-6.59375 4.1875-10.5 4.1875h-1.03125c-3.910157 0-7.589844-1.582031-10.5-4.1875-2.652344-2.371094-6.148438-3.8125-9.984376-3.8125-3.835937 0-7.335937 1.441406-9.984374 3.8125-2.910157 2.605469-6.59375 4.1875-10.5 4.1875h-1.03125c-3.90625 0-7.585938-1.582031-10.5-4.1875-2.652344-2.371094-6.148438-3.8125-9.984376-3.8125-3.835937 0-7.332031 1.441406-9.984374 3.8125-2.910157 2.605469-6.589844 4.1875-10.496094 4.1875h-1.035156c-3.90625 0-7.585938-1.582031-10.5-4.1875-2.648438-2.371094-6.148438-3.8125-9.984376-3.8125-3.835937 0-7.332031 1.441406-9.980468 3.8125-2.914063 2.605469-6.59375 4.1875-10.5 4.1875h-1.035156c-3.90625 0-7.585938-1.582031-10.496094-4.1875-2.652344-2.371094-6.148438-3.8125-9.984375-3.8125-3.835938 0-7.335938 1.441406-9.984375 3.8125-2.914063 2.605469-6.59375 4.1875-10.5 4.1875h-1.03125c-3.910156 0-7.589844-1.582031-10.5-4.1875-2.652344-2.371094-6.148438-3.8125-9.984375-3.8125-5.109375 0-9.609375 2.558594-12.320313 6.460938 12.769532 22.5 38.875 41.734374 73.195313 54.886718 3.839843 1.472656 8.109375.421875 11.007812-2.5l.046875-.046875c4.613282-4.617187 11.484375-5.578125 17.058594-2.917969 1 2.09375 1.488281 4.375 1.460938 6.648438-.054688 4.773438 3.234374 8.933594 7.898437 9.964844 21.839844 4.839844 45.679687 7.503906 70.652344 7.503906 10.355469 0 20.515625-.464844 30.425781-1.34375 15.160156-16.378906 26.945312-35.933594 34.226562-57.558594 2.167969-6.441406-2.71875-13.097656-9.515624-13.097656zm-175.5625 32.003906c-6.191407-2.074218-10.113282-7.796875-10.214844-13.972656 3.804687-4.863281 10.386718-7.0625 16.574218-4.988281 6.191407 2.074219 10.113282 7.796875 10.214844 13.972656-3.804687 4.863281-10.382812 7.066406-16.574218 4.988281zm88.945312-1.480468c-4.617188 4.617187-11.488281 5.578124-17.0625 2.921874-2.65625-5.574218-1.695312-12.445312 2.921875-17.0625 4.613281-4.617187 11.484375-5.578124 17.058594-2.917968 2.660156 5.574218 1.699219 12.445312-2.917969 17.058594zm50.011719 30.015624c-5.574219 2.65625-12.445313 1.695313-17.058594-2.921874-4.617187-4.613282-5.578125-11.484376-2.917969-17.058594 5.570313-2.660156 12.441406-1.699219 17.058594 2.917968 4.617188 4.617188 5.578125 11.488282 2.917969 17.0625zm0 0" fill="#fff5f5"/><path d="m324.851562 465c0 8.285156-6.714843 15-15 15-8.285156 0-15-6.714844-15-15s6.714844-15 15-15c8.285157 0 15 6.714844 15 15zm0 0" fill="#f7b95f"/></svg>