<svg height="512pt" viewBox="0 0 512 512" width="512pt" xmlns="http://www.w3.org/2000/svg"><path d="m512 256c0 141.386719-114.613281 256-256 256-49.710938 0-96.101562-14.183594-135.375-38.703125-20.699219-33.152344-48.769531-61.222656-81.921875-81.921875-24.519531-39.273438-38.703125-85.664062-38.703125-135.375 0-141.386719 114.613281-256 256-256s256 114.613281 256 256zm0 0" fill="#5fce94"/><path d="m465.136719 118.125c-26.03125 7.402344-50.070313 20.539062-69.207031 39.679688l-25.839844 25.839843-41.734375-41.730469 25.84375-25.84375c19.136719-19.136718 32.273437-43.175781 39.675781-69.207031 1.605469-5.636719 4.917969-10.890625 9.941406-14.941406 10.835938-8.738281 26.617188-8.578125 37.296875.34375 8.765625 7.324219 12.113281 18.378906 10.0625 28.558594 10.179688-2.050781 21.234375 1.300781 28.558594 10.066406 8.925781 10.675781 9.082031 26.457031.347656 37.292969-4.054687 5.023437-9.308593 8.335937-14.945312 9.941406zm0 0" fill="#f8df92"/><path d="m395.929688 157.800781-25.839844 25.84375-20.476563-20.472656 27.457031-27.460937c20.332032-20.332032 34.292969-45.871094 42.160157-73.53125 1.703125-5.988282 5.222656-11.570313 10.5625-15.875 5.132812-4.140626 11.3125-6.394532 17.59375-6.789063 3.972656 6.453125 5.242187 14.097656 3.789062 21.308594 10.179688-2.050781 21.234375 1.300781 28.558594 10.066406.332031.394531.648437.796875.953125 1.207031-.070312 1.648438-.25 3.292969-.578125 4.917969 1.097656-.222656 2.207031-.367187 3.320313-.472656 5.035156 10.097656 3.945312 22.59375-3.347657 31.640625-4.054687 5.027344-9.308593 8.339844-14.945312 9.941406-26.03125 7.402344-50.070313 20.539062-69.207031 39.675781zm0 0" fill="#fae8b1"/><path d="m364.410156 150.144531c30.878906 32.089844 33.101563 81.242188 5.011719 110.652344-1.054687 1.101563-2.136719 2.164063-3.242187 3.183594-14.824219 13.640625-23.699219 32.730469-23.734376 53.761719-.070312 41.597656-16.609374 84.046874-49.316406 116.75-47.527344 47.527343-115.628906 60.921874-171.800781 39.242187-33.695313-20.882813-62.179687-49.367187-83.066406-83.066406-21.675781-56.167969-8.28125-124.269531 39.246093-171.796875 32.199219-32.199219 73.847657-48.730469 114.828126-49.300782 21.886718-.304687 41.875-9.125 56.277343-24.390624.46875-.492188.941407-.980469 1.425781-1.464844 30.203126-30.199219 81.773438-27.449219 114.371094 6.429687zm0 0" fill="#bb5335"/><path d="m364.410156 150.144531c-2.371094-2.464843-4.84375-4.757812-7.398437-6.890625-16.761719 1.441406-32.710938 8.277344-45.082031 20.644532-.480469.484374-.957032.972656-1.421876 1.46875-.0625.0625-.125.128906-.1875.195312-4.074218 4.28125-5.828124 10.21875-4.722656 16.023438 1.277344 6.691406 1.671875 15.257812-3.105468 19.53125-7.234376 6.46875-18.367188 6.625-25.773438.351562-2.980469-2.527344-5.003906-5.707031-6.074219-9.121094-.742187-2.367187-3.148437-3.820312-5.605469-3.460937-3.539062.523437-7.148437.816406-10.8125.867187-24.769531.34375-49.78125 6.523438-72.800781 18.464844-2.929687 1.519531-3.707031 5.28125-1.671875 7.882812.035156.046876.074219.09375.113282.144532 5.433593 7.070312 5.328124 17.160156-.238282 24.128906-7.460937 9.34375-21.125 9.90625-29.335937 1.695312-.871094-.871093-1.644531-1.804687-2.316407-2.785156-1.84375-2.691406-5.632812-3.148437-7.953124-.855468-.210938.207031-.417969.417968-.625.625-19.597657 19.597656-33.390626 42.695312-41.316407 67.011718-1.070312 3.277344 1.28125 6.589844 4.722657 6.796875 5.375.320313 10.640624 2.839844 14.339843 7.558594 5.625 7.171875 5.472657 17.523437-.328125 24.550781-5.171875 6.261719-13.175781 8.421875-20.3125 6.503906-3.261718-.875-6.433594 1.679688-6.425781 5.054688.109375 38.457031 14.292969 76.132812 42.8125 104.652344.085937.085937.171875.171875.257813.257812 16.289062 16.207032 39.230468 23.96875 62.042968 21.214844 35.347656-4.269531 70.15625-20.386719 97.9375-48.164062 32.703125-32.707032 49.242188-75.152344 49.316406-116.75.035157-21.03125 8.910157-40.121094 23.730469-53.761719 1.109375-1.019531 2.191407-2.082031 3.246094-3.1875 28.089844-29.40625 25.867187-78.558594-5.011719-110.648438zm-165.429687 168.4375c7.683593-7.683593 20.140625-7.683593 27.824219 0 7.683593 7.683594 7.683593 20.140625 0 27.824219-7.683594 7.683594-20.140626 7.683594-27.824219 0-7.679688-7.683594-7.679688-20.140625 0-27.824219zm34.777343 118.246094c-7.683593 7.683594-20.136718 7.683594-27.820312 0s-7.683594-20.140625 0-27.824219 20.136719-7.683594 27.820312 0c7.683594 7.683594 7.683594 20.140625 0 27.824219zm69.558594-139.113281c-7.683594 7.683594-20.140625 7.683594-27.824218 0-7.683594-7.683594-7.683594-20.136719 0-27.820313 7.683593-7.683593 20.140624-7.683593 27.824218 0 7.679688 7.683594 7.679688 20.136719 0 27.820313zm0 0" fill="#d25e3e"/></svg>