<svg height="512pt" viewBox="0 0 512 512" width="512pt" xmlns="http://www.w3.org/2000/svg"><path d="m23.515625 345.4375c-4.050781.71875-8.054687-1.574219-9.402344-5.460938-9.136719-26.304687-14.113281-54.558593-14.113281-83.976562 0-141.382812 114.613281-256 256-256 141.117188 0 255.992188 114.867188 256 255.988281 0 29.417969-4.972656 57.667969-14.105469 83.976563-1.355469 3.894531-5.355469 6.191406-9.414062 5.472656-71.550781-12.691406-150.085938-19.703125-232.480469-19.703125-82.398438 0-160.933594 7.011719-232.484375 19.703125zm0 0" fill="#b7e3ef"/><path d="m262.210938.078125c2.863281.070313 5.714843.195313 8.554687.355469 1.84375 2.457031 3.550781 5.195312 5.113281 8.199218 16.144532 31.070313 4.996094 69.453126-24.128906 88.890626l-13.546875 9.042968c-29.125 19.4375-68.847656 15.003906-91.347656-11.828125-3.269531-3.902343-5.875-7.882812-7.734375-11.886719 10.21875-9.367187 27.148437-15.714843 47.890625-18.355468-5.476563-20.179688-6.070313-38.25-1.3125-51.273438 13.851562.601563 30.308593 8.085938 46.84375 20.882813 8.832031-15.40625 19.078125-27.226563 29.667969-34.027344zm0 0" fill="#54cc87"/><path d="m271.433594 116.382812c-4.898438-3.035156-9.644532-6.289062-14.238282-9.734374-1.621093 7.757812-3.757812 15.378906-6.445312 22.792968-1.511719-7.816406-2.53125-15.707031-3.074219-23.601562-20.867187-1.59375-41.269531-6.617188-59.980469-15.199219 17.507813-1.90625 35.171876-1.421875 52.289063 1.453125-14.136719-13.46875-26.054687-29.003906-34.898437-46.082031 15.894531 9.84375 30.285156 21.90625 42.472656 35.703125.992187-16.734375 4.242187-33.195313 9.878906-48.761719 4.054688 20.96875 4.636719 42.449219 1.601562 63.203125.0625.082031.117188.171875.179688.257812 8.257812 2.347657 16.320312 5.28125 24.085938 8.839844-5.832032.636719-11.683594.996094-17.527344 1.105469 2 3.277344 3.894531 6.621094 5.65625 10.023437zm0 0" fill="#23c77d"/><path d="m366 26.023438c0 7.484374-5.5625 13.863281-12.992188 14.734374-34.953124 4.097657-64.277343 24.507813-78.242187 52.433594 15.480469 5.53125 26.234375 17.691406 26.234375 31.808594 0 19.328125-20.148438 35-45 35s-45-15.671875-45-35c0-18.71875 18.894531-34.003906 42.660156-34.953125 15.160156-39.285156 51.359375-71.800781 95.121094-78.699219 9.035156-1.421875 17.21875 5.527344 17.21875 14.675782zm0 0" fill="#03ad6b"/><path d="m499.628906 334.777344c-33.226562 102.835937-129.734375 177.222656-243.628906 177.222656s-210.402344-74.386719-243.628906-177.222656c-1.550782-9.863282-2.371094-19.933594-2.371094-30.171875 0-45.449219 15.78125-87.632813 42.765625-122.519531 38.535156-49.820313 100.671875-73.742188 162.277344-64.605469 13.320312 1.972656 27.003906 3.003906 40.957031 3.003906s27.636719-1.03125 40.957031-3.003906c61.605469-9.136719 123.742188 14.785156 162.277344 64.605469 26.984375 34.886718 42.765625 77.070312 42.765625 122.519531 0 10.238281-.820312 20.308593-2.371094 30.171875zm0 0" fill="#e2902a"/><path d="m404.035156 304.605469c0 90.882812-37.984375 168.730469-91.90625 201.207031-7.007812 1.566406-14.121094 2.84375-21.328125 3.824219 40.597657-29.828125 69.695313-110.355469 69.695313-205.03125 0-45.449219-6.707032-87.632813-18.167969-122.519531-11.671875-35.523438-28.441406-57.847657-46.59375-64.4375.40625-.058594.816406-.109376 1.222656-.167969 3.066407-.457031 6.132813-.804688 9.199219-1.097657 28.042969 4.402344 54.296875 27.371094 72.144531 65.703126 16.238281 34.886718 25.734375 77.070312 25.734375 122.519531zm-252.53125 0c0-45.449219 6.703125-87.632813 18.167969-122.519531 11.671875-35.523438 28.441406-57.847657 46.589844-64.4375-.40625-.058594-.816407-.109376-1.21875-.167969-3.066407-.457031-6.136719-.804688-9.199219-1.097657-28.046875 4.402344-54.300781 27.371094-72.144531 65.703126-16.238281 34.886718-25.734375 77.070312-25.734375 122.519531 0 90.882812 37.980468 168.730469 91.90625 201.207031 7.003906 1.566406 14.121094 2.84375 21.328125 3.824219-40.597657-29.828125-69.695313-110.355469-69.695313-205.03125zm0 0" fill="#d58a2d"/><path d="m501.976562 302.453125c0 .140625-.003906.277344-.003906.414063-.292968 27.480468-11.945312 53.644531-31.953125 72.484374-6.277343 5.910157-13.046875 11.539063-20.261719 16.859376-41.449218 21.960937-95.507812 35.007812-150.351562 35.007812-133.324219 0-241.40625-77.03125-241.40625-172.050781 0-35.964844 15.488281-69.351563 41.964844-96.960938 17.457031-18.199219 39.851562-32.019531 64.847656-40.925781 16.453125-2.308594 33.359375-2.304688 50.230469.199219 13.320312 1.972656 27.003906 3.003906 40.957031 3.003906 13.957031 0 27.640625-1.03125 40.960938-3.003906 61.601562-9.136719 123.738281 14.785156 162.273437 64.605469 26.558594 34.335937 42.253906 75.742187 42.742187 120.367187zm0 0" fill="#f7ad3b"/><path d="m404.035156 304.605469c0 41.21875-7.8125 79.761719-21.382812 112.601562-12.78125 3.132813-26 5.570313-39.46875 7.257813 10.9375-34.363282 17.3125-75.5625 17.3125-119.863282 0-45.445312-6.707032-87.632812-18.167969-122.515624-11.671875-35.523438-28.441406-57.847657-46.59375-64.4375.40625-.058594.816406-.109376 1.222656-.167969 1.585938-.238281 3.175781-.4375 4.765625-.628907 1.472656-.171874 2.941406-.328124 4.414063-.46875h.019531c28.042969 4.398438 54.296875 27.367188 72.144531 65.703126 16.238281 34.886718 25.734375 77.070312 25.734375 122.519531zm-198.191406-188.222657c-28.046875 4.402344-54.300781 27.371094-72.144531 65.707032-16.238281 34.882812-25.734375 77.066406-25.734375 122.515625 0 21.019531 2.039062 41.339843 5.828125 60.566406 13.78125 11.800781 29.742187 22.257813 47.433593 31.078125-6.234374-27.851562-9.722656-58.898438-9.722656-91.644531 0-45.449219 6.707032-87.632813 18.167969-122.519531 11.671875-35.523438 28.441406-57.847657 46.589844-64.4375-.40625-.058594-.8125-.109376-1.21875-.167969-3.066407-.457031-6.132813-.804688-9.199219-1.097657zm50.15625 4.101563c-4.882812 0-9.730469-.132813-14.542969-.382813-3.683593 10.035157-5.957031 30.03125-5.957031 69.898438 0 80.082031 9.179688 210 20.5 210s20.5-129.917969 20.5-210c0-39.867188-2.273438-59.863281-5.957031-69.898438-4.8125.25-9.660157.382813-14.542969.382813zm0 0" fill="#f49f1f"/></svg>