<svg height="511pt" viewBox="0 0 511 511.99974" width="511pt" xmlns="http://www.w3.org/2000/svg"><path d="m480.871094 142.335938c3.128906 0 5.964844 1.816406 7.300781 4.644531 15.59375 33.078125 24.328125 70.027343 24.328125 109.019531 0 67.195312-25.902344 128.328125-68.246094 174h-375.507812c-41.804688-45.089844-67.582032-105.246094-68.234375-171.425781-1.367188-138.523438 108.535156-253.667969 246.980469-258.417969 58.707031-2.015625 113.167968 15.753906 157.269531 47.140625 5.089843 3.625 8.113281 9.484375 8.113281 15.734375 0 6.523438 5.289062 11.8125 11.8125 11.8125h8.8125c2.480469 0 4.871094.980469 6.601562 2.761719 9.105469 9.371093 17.496094 19.4375 25.089844 30.113281 2.855469 4.007812 4.347656 8.828125 4.347656 13.746094v9.542968c.003907 6.257813 5.074219 11.328126 11.332032 11.328126zm0 0" fill="#ec3c52"/><path d="m431.125 140.402344c0 3.824218-3.097656 6.917968-6.917969 6.917968h-3.082031l-353.335938-13.085937c-3.71875-.136719-6.664062-3.191406-6.664062-6.910156 0-3.722657 2.945312-6.777344 6.664062-6.914063l353.335938-13.085937h3.082031c3.824219 0 6.917969 3.09375 6.917969 6.917969zm0 0" fill="#fae8b1"/><path d="m431.125 130.402344v10c0 3.824218-3.097656 6.917968-6.917969 6.917968h-3.082031l-353.335938-13.085937c-3.71875-.136719-6.664062-3.191406-6.664062-6.910156 0-1.964844.828125-3.738281 2.148438-5 1.183593 1.125 2.761718 1.847656 4.515624 1.910156l353.335938 13.089844h3.082031c3.820313-.003907 6.917969-3.097657 6.917969-6.921875zm0 0" fill="#f8df92"/><path d="m442.5 415c0 13.808594-11.195312 25-25 25h-322c-13.808594 0-25-11.191406-25-25 0-12.246094 8.804688-22.425781 20.425781-24.574219 1.875-10.136719 9.863281-18.125 20-20 1.875-10.136719 9.863281-18.125 20-20 1.875-10.136719 9.863281-18.125 20-20 1.875-10.136719 9.863281-18.125 20-20 1.875-10.136719 9.863281-18.125 20-20 1.875-10.136719 9.863281-18.125 20-20 2.148438-11.621093 12.328125-20.425781 24.574219-20.425781h42c12.242188 0 22.425781 8.804688 24.574219 20.425781 10.136719 1.875 18.125 9.863281 20 20 10.136719 1.875 18.125 9.863281 20 20 10.136719 1.875 18.125 9.863281 20 20 10.136719 1.875 18.125 9.863281 20 20 10.136719 1.875 18.125 9.863281 20 20 10.136719 1.875 18.125 9.863281 20 20 11.621093 2.148438 20.425781 12.328125 20.425781 24.574219zm0 0" fill="#f1bd1f"/><path d="m422.074219 390.425781c-1.875-10.136719-9.863281-18.125-20-20-1.875-10.136719-9.863281-18.125-20-20-1.875-10.136719-9.863281-18.125-20-20-1.875-10.136719-9.863281-18.125-20-20-1.875-10.136719-9.863281-18.125-20-20-1.875-10.136719-9.863281-18.125-20-20-2.152344-11.621093-12.332031-20.425781-24.574219-20.425781h-14c-10.714844 0-19.839844 6.746094-23.390625 16.222656-.6875 1.824219.628906 3.777344 2.574219 3.777344 4.109375 0 7.691406 3.164062 7.8125 7.269531.128906 4.246094-3.277344 7.730469-7.496094 7.730469h-17.457031c-3.195313 0-6.019531 2.226562-6.609375 5.367188l-.007813.058593c-10.136719 1.875-18.125 9.863281-20 20-10.136719 1.875-18.125 9.863281-20 20-10.136719 1.875-18.125 9.863281-20 20-8.683593 1.605469-15.78125 7.699219-18.816406 15.789063-.6875 1.828125.621094 3.785156 2.574219 3.785156 3.851562 0 7.3125 2.765625 7.761718 6.589844.535157 4.550781-3.003906 8.410156-7.445312 8.410156h-17.605469c-3.164062 0-5.878906 2.257812-6.460937 5.371094l-.011719.054687c-11.625 2.152344-20.429687 12.339844-20.421875 24.585938.003906 13.746093 11.84375 24.988281 25.59375 24.988281h292.8125c13.75 0 25.585938-11.242188 25.59375-24.988281.003906-12.25-8.800781-22.4375-20.425781-24.585938zm-229.074219 9.574219h-15c-4.140625 0-7.5-3.359375-7.5-7.5s3.359375-7.5 7.5-7.5h15c4.140625 0 7.5 3.359375 7.5 7.5s-3.359375 7.5-7.5 7.5zm40-30h-15c-4.140625 0-7.5-3.359375-7.5-7.5s3.359375-7.5 7.5-7.5h15c4.140625 0 7.5 3.359375 7.5 7.5s-3.359375 7.5-7.5 7.5zm40-40h-25c-4.140625 0-7.5-3.359375-7.5-7.5s3.359375-7.5 7.5-7.5h25c4.140625 0 7.5 3.359375 7.5 7.5s-3.359375 7.5-7.5 7.5zm7.5 12.5c0-4.140625 3.359375-7.5 7.5-7.5h25c4.140625 0 7.5 3.359375 7.5 7.5s-3.359375 7.5-7.5 7.5h-25c-4.140625 0-7.5-3.359375-7.5-7.5zm62.5 47.5h-25c-4.140625 0-7.5-3.359375-7.5-7.5s3.359375-7.5 7.5-7.5h25c4.140625 0 7.5 3.359375 7.5 7.5s-3.359375 7.5-7.5 7.5zm-260.304688-210.125 4.875-4.875h-9.570312c-4.140625 0-7.5-3.359375-7.5-7.5s3.359375-7.5 7.5-7.5h.144531c-2.332031-2.605469-4.210937-5.621094-5.523437-8.921875-2.945313 2.3125-7.214844 2.113281-9.925782-.597656-2.929687-2.929688-2.929687-7.675781 0-10.605469l9.335938-9.335938c.878906-2.652343 2.117188-5.144531 3.664062-7.414062l-3-3c-2.929687-2.929688-2.929687-7.675781 0-10.605469 2.929688-2.929687 7.679688-2.929687 10.605469 0l3.539063 3.535157 13.535156-13.535157c2.929688-2.929687 7.675781-2.929687 10.605469 0 2.929687 2.929688 2.929687 7.679688 0 10.605469l-1.308594 1.308594c1.5.480468 2.945313 1.082031 4.332031 1.78125l3.695313-3.695313c2.925781-2.929687 7.675781-2.929687 10.605469 0 2.929687 2.929688 2.929687 7.679688 0 10.605469l-3 3c3.277343 4.808594 5.195312 10.617188 5.195312 16.875 0 2.875-.414062 5.652344-1.167969 8.285156 2.855469-1.601562 6.539063-1.199218 8.96875 1.234375 2.929688 2.929688 2.929688 7.675781 0 10.605469l-3.539062 3.542969c2.800781 2.9375 2.765625 7.585937-.121094 10.472656s-7.535156 2.921875-10.472656.121094l-3.542969 3.542969c-2.929688 2.925781-7.679688 2.925781-10.609375 0-.714844-.71875-1.25-1.542969-1.617187-2.421876l-15.097657 15.097657c-2.929687 2.929687-7.675781 2.929687-10.605469 0-2.929687-2.929688-2.929687-7.675781 0-10.605469zm16.992188 28.859375-4.289062 25.753906c-.679688 4.085938-4.542969 6.847657-8.628907 6.164063-4.085937-.679688-6.847656-4.542969-6.167969-8.628906l4.289063-25.753907c.679687-4.085937 4.542969-6.847656 8.628906-6.167969 4.089844.679688 6.847657 4.546876 6.167969 8.632813zm44.234375 14.40625 15.179687 21.242187c2.40625 3.371094 1.628907 8.054688-1.742187 10.464844-3.371094 2.40625-8.054687 1.628906-10.464844-1.742187l-15.175781-21.246094c-2.410156-3.367187-1.628906-8.054687 1.742188-10.460937 3.367187-2.410157 8.054687-1.628907 10.460937 1.742187zm0 0" fill="#f7d674"/><path d="m469.5 420v10c0 5.523438-4.476562 10-10 10h-25.054688c-46.0625 44.5625-108.792968 72-177.945312 72s-131.882812-27.4375-177.949219-72h-25.050781c-5.523438 0-10-4.476562-10-10v-10c0-5.523438 4.476562-10 10-10h406c5.523438 0 10 4.476562 10 10zm0 0" fill="#16badb"/><path d="m469.5 420v10c0 5.523438-4.476562 10-10 10h-25.058594c-39.1875 37.90625-90.4375 63.40625-147.441406 70.179688-40.816406-4.851563-78.6875-19.296876-111.292969-41.027344-4.105469-2.738282-2.136719-9.152344 2.796875-9.152344h181.652344c5.328125 0 9.976562-4.019531 10.320312-9.335938.378907-5.824218-4.234374-10.664062-9.976562-10.664062h-260c-5.523438 0-10-4.476562-10-10v-10c0-5.523438 4.476562-10 10-10h359c5.523438 0 10 4.476562 10 10zm0 0" fill="#6dcce4"/><path d="m301.820312 298.679688c12.261719 12.261718 16.316407 28.554687 10.257813 38.542968-9.992187 6.0625-26.28125 2.003906-38.542969-10.257812-12.261718-12.261719-16.320312-28.550782-10.257812-38.542969 9.988281-6.058594 26.277344-2.003906 38.542968 10.257813zm0 0" fill="#03ad6b"/><path d="m345.820312 326.964844c-12.265624 12.261718-28.554687 16.320312-38.542968 10.257812-6.0625-9.988281-2.003906-26.28125 10.257812-38.542968 12.261719-12.261719 28.550782-16.316407 38.542969-10.257813 6.058594 9.992187 2.003906 26.28125-10.257813 38.542969zm0 0" fill="#23c77d"/><path d="m333.671875 310.828125-13.917969 23.15625c-2.121094 3.527344-6.285156 5.207031-10.078125 4.246094-3.792969.960937-7.957031-.71875-10.074219-4.246094l-13.921874-23.15625 23.160156 13.917969c.292968.175781.570312.367187.835937.570312.269531-.203125.542969-.394531.835938-.570312zm0 0" fill="#00824d"/><path d="m404.085938 46.808594c4.058593 2.871094 8.023437 5.855468 11.902343 8.949218l5.527344 20.632813c.988281 3.6875-1.199219 7.480469-4.890625 8.472656l-2.980469.796875-344.683593 78.808594c-3.628907.828125-7.261719-1.359375-8.222657-4.953125-.964843-3.59375 1.089844-7.308594 4.644531-8.402344l337.910157-104.089843zm0 0" fill="#fbf1d1"/><path d="m418.925781 66.730469 2.589844 9.65625c.988281 3.691406-1.203125 7.484375-4.894531 8.472656l-2.976563.800781-344.683593 78.808594c-3.628907.828125-7.261719-1.359375-8.222657-4.953125-.511719-1.898437-.171875-3.824219.777344-5.386719 1.433594.785156 3.144531 1.074219 4.855469.683594l344.6875-78.8125 2.976562-.796875c3.691406-.988281 5.878906-4.785156 4.890625-8.472656zm0 0" fill="#fae8b1"/><path d="m200.5 322.5c0 4.140625-3.359375 7.5-7.5 7.5h-15c-4.140625 0-7.5-3.359375-7.5-7.5s3.359375-7.5 7.5-7.5h15c4.140625 0 7.5 3.359375 7.5 7.5zm82.5 42.5h-15c-4.140625 0-7.5 3.359375-7.5 7.5s3.359375 7.5 7.5 7.5h15c4.140625 0 7.5-3.359375 7.5-7.5s-3.359375-7.5-7.5-7.5zm20-100h-15c-4.140625 0-7.5 3.359375-7.5 7.5s3.359375 7.5 7.5 7.5h15c4.140625 0 7.5-3.359375 7.5-7.5s-3.359375-7.5-7.5-7.5zm110 105h-15c-4.140625 0-7.5 3.359375-7.5 7.5s3.359375 7.5 7.5 7.5h15c4.140625 0 7.5-3.359375 7.5-7.5s-3.359375-7.5-7.5-7.5zm-323.414062-267.933594c-3-2.855468-7.75-2.738281-10.605469.261719s-2.738281 7.746094.261719 10.605469l8.585937 8.171875c3 2.855469 7.746094 2.738281 10.601563-.261719 2.859374-3 2.742187-7.746094-.257813-10.601562zm21.59375 61.339844c-4.085938-.679688-7.949219 2.082031-8.628907 6.167969l-1.949219 11.691406c-.679687 4.085937 2.082032 7.949219 6.167969 8.632813 4.085938.679687 7.949219-2.082032 8.628907-6.167969l1.945312-11.695313c.683594-4.082031-2.078125-7.949218-6.164062-8.628906zm0 100c-4.085938-.679688-7.949219 2.082031-8.628907 6.167969l-1.949219 11.691406c-.679687 4.085937 2.082032 7.949219 6.167969 8.632813 4.085938.679687 7.949219-2.082032 8.628907-6.167969l1.945312-11.695313c.683594-4.082031-2.078125-7.949218-6.164062-8.628906zm0 0" fill="#f49f1f"/><path d="m488.332031 147.320312h-67.207031v-40h43.792969c8.957031 12.539063 16.804687 25.921876 23.414062 40zm-84.246093-100.511718-.792969.214844 10.351562 38.636718 27.1875-7.285156c-11.210937-11.636719-23.511719-22.214844-36.746093-31.566406zm0 0" fill="#f49f1f"/><path d="m483.367188 137.320312h-62.242188v-30h43.792969c6.808593 9.535157 12.976562 19.558594 18.449219 30zm-79.28125-90.511718-.792969.214844 7.765625 28.976562 21.5625-5.777344c-8.925782-8.464844-18.460938-16.292968-28.535156-23.414062zm0 0" fill="#f1bd1f"/></svg>