<svg height="512pt" viewBox="0 0 512 512" width="512pt" xmlns="http://www.w3.org/2000/svg"><path d="m0 256c0-141.382812 114.613281-256 256-256 141.511719 0 256.660156 115.714844 255.996094 257.226562-.445313 95.234376-52.902344 178.171876-130.417969 221.890626-3.097656 1.75-6.652344 2.5-10.195313 2.167968-37.253906-3.476562-75.847656-5.304687-115.382812-5.304687s-78.125 1.828125-115.382812 5.304687c-3.554688.332032-7.117188-.429687-10.226563-2.183594-77.832031-43.914062-130.390625-127.363281-130.390625-223.101562zm0 0" fill="#f9c77e"/><path d="m498.898438 337.042969c-20.222657 60.621093-62.5 111.15625-117.320313 142.074219-3.097656 1.75-6.652344 2.5-10.195313 2.167968-37.253906-3.476562-75.847656-5.304687-115.382812-5.304687s-78.125 1.828125-115.378906 5.304687c-3.554688.332032-7.121094-.429687-10.230469-2.183594-54.804687-30.917968-97.074219-81.445312-117.292969-142.058593zm0 0" fill="#f7b95f"/><path d="m167.777344 315.203125c-17.636719 17.636719-41.242188 24.488281-60.550782 19.53125-1.351562.707031-2.730468 1.351563-4.136718 1.914063-1.410156-.5625-2.789063-1.207032-4.140625-1.914063-19.308594 4.957031-42.914063-1.894531-60.550781-19.53125-19.726563-19.726563-25.976563-46.925781-17.285157-67.21875 15.03125-6.4375 33.847657-4.671875 50.613281 4.6875 5.714844-16.765625 17.171876-29.847656 31.363282-35.527344 14.1875 5.679688 25.644531 18.761719 31.359375 35.527344 16.765625-9.359375 35.582031-11.125 50.613281-4.6875 8.691406 20.292969 2.445312 47.492187-17.285156 67.21875zm0 0" fill="#03ad6b"/><path d="m291.925781 226.644531c-17.640625 17.636719-41.242187 24.488281-60.554687 19.53125-1.351563.707031-2.726563 1.351563-4.136719 1.914063-1.410156-.5625-2.789063-1.207032-4.140625-1.914063-19.308594 4.957031-42.914062-1.894531-60.550781-19.53125-19.726563-19.730469-25.976563-46.925781-17.285157-67.21875 15.035157-6.4375 33.851563-4.671875 50.613282 4.6875 5.714844-16.765625 17.175781-29.847656 31.363281-35.527343 14.1875 5.679687 25.648437 18.761718 31.359375 35.527343 16.765625-9.359375 35.582031-11.125 50.617188-4.6875 8.6875 20.296875 2.441406 47.488281-17.285157 67.21875zm0 0" fill="#75c24b"/><path d="m192.773438 236.160156c0 35.898438-29.101563 65-65 65-35.898438 0-65-29.101562-65-65 0-35.898437 29.101562-65 65-65 35.898437 0 65 29.101563 65 65zm202.128906-87.207031c-25.382813-25.382813-66.539063-25.382813-91.925782 0-25.382812 25.386719-25.382812 66.539063 0 91.925781 25.386719 25.382813 66.542969 25.382813 91.925782 0 25.382812-25.386718 25.382812-66.539062 0-91.925781zm0 0" fill="#f45751"/><path d="m141.917969 287.011719c14.339843 0 27.585937-4.652344 38.335937-12.515625-11.824218 16.160156-30.921875 26.664062-52.480468 26.664062-35.898438 0-65-29.101562-65-65 0-21.558594 10.503906-40.65625 26.664062-52.480468-7.863281 10.746093-12.515625 23.992187-12.515625 38.332031-.003906 35.898437 29.097656 65 64.996094 65zm181.066406-138.058594c10.140625-10.136719 22.796875-16.214844 35.960937-18.253906-19.789062-3.066407-40.722656 3.011719-55.96875 18.253906-25.382812 25.386719-25.382812 66.539063 0 91.925781 15.246094 15.242188 36.179688 21.320313 55.96875 18.253906-13.164062-2.039062-25.820312-8.117187-35.960937-18.253906-25.382813-25.386718-25.382813-66.539062 0-91.925781zm0 0" fill="#ec3c52"/><path d="m146.914062 269.445312c2.523438 2.523438 1.660157 6.777344-1.625 8.164063-16.371093 6.914063-35.996093 3.710937-49.335937-9.628906-13.339844-13.339844-16.546875-32.96875-9.628906-49.339844 1.386719-3.285156 5.640625-4.144531 8.160156-1.625zm-36.660156-74.734374c-3.285156 1.386718-4.148437 5.644531-1.625 8.164062l52.429688 52.429688c2.519531 2.519531 6.777344 1.660156 8.164062-1.625 6.914063-16.371094 3.710938-36-9.628906-49.339844s-32.96875-16.542969-49.339844-9.628906zm256.203125-41.242188c-16.367187-6.917969-35.996093-3.710938-49.335937 9.628906s-16.546875 32.964844-9.628906 49.335938c1.386718 3.285156 5.640624 4.148437 8.160156 1.625l52.429687-52.429688c2.523438-2.519531 1.660157-6.773437-1.625-8.160156zm23.929688 23.929688c-1.386719-3.285157-5.640625-4.148438-8.160157-1.625l-52.429687 52.429687c-2.523437 2.519531-1.660156 6.773437 1.625 8.160156 16.367187 6.917969 35.996094 3.710938 49.335937-9.628906 13.339844-13.339844 16.546876-32.964844 9.628907-49.335937zm0 0" fill="#d73247"/><path d="m98.222656 243.898438c-4.296875-1.152344-7.3125-3.824219-6.738281-5.972657.578125-2.148437 4.527344-2.957031 8.824219-1.804687 4.292968 1.148437 7.3125 3.824218 6.734375 5.972656-.574219 2.148438-4.523438 2.957031-8.820313 1.804688zm3.40625 12.710937c-3.144531 3.144531-4.421875 6.96875-2.847656 8.542969 1.574219 1.574218 5.398438.296875 8.542969-2.847656 3.144531-3.144532 4.417969-6.96875 2.847656-8.542969-1.574219-1.570313-5.398437-.296875-8.542969 2.847656zm20.210938.28125c-2.148438.574219-2.957032 4.523437-1.804688 8.820313 1.148438 4.296874 3.824219 7.3125 5.972656 6.734374 2.148438-.574218 2.957032-4.523437 1.804688-8.820312s-3.824219-7.3125-5.972656-6.734375zm6.011718-55.332031c-2.148437.574218-2.957031 4.523437-1.804687 8.820312s3.824219 7.3125 5.972656 6.738282c2.148438-.578126 2.957031-4.527344 1.804688-8.824219-1.148438-4.292969-3.824219-7.3125-5.972657-6.734375zm27.226563 7.296875c-1.570313-1.574219-5.394531-.300781-8.542969 2.84375-3.144531 3.148437-4.417968 6.972656-2.84375 8.542969 1.570313 1.574218 5.394532.296874 8.539063-2.847657 3.148437-3.144531 4.421875-6.96875 2.847656-8.539062zm.558594 21.25c-4.296875-1.148438-8.246094-.339844-8.820313 1.804687-.578125 2.148438 2.441406 4.824219 6.734375 5.976563 4.296875 1.148437 8.246094.34375 8.824219-1.804688.574219-2.148437-2.441406-4.824219-6.738281-5.976562zm193.34375-62.65625c-1.152344 4.296875-3.824219 7.3125-5.972657 6.738281-2.148437-.578125-2.957031-4.527344-1.804687-8.824219 1.148437-4.292969 3.824219-7.3125 5.972656-6.734375 2.148438.574219 2.957031 4.523438 1.804688 8.820313zm-29.03125-1.523438c-1.574219 1.570313-.300781 5.394531 2.847656 8.542969 3.144531 3.144531 6.96875 4.417969 8.539063 2.84375 1.574218-1.570312.300781-5.394531-2.847657-8.539062-3.144531-3.144532-6.96875-4.421876-8.539062-2.847657zm-.558594 21.253907c-4.296875 1.148437-7.3125 3.824218-6.738281 5.972656.578125 2.148437 4.527344 2.957031 8.820312 1.804687 4.296875-1.152343 7.3125-3.824219 6.738282-5.972656-.574219-2.148437-4.523438-2.957031-8.820313-1.804687zm64.152344 7.816406c-.578125-2.148438-4.527344-2.957032-8.820313-1.804688-4.296875 1.152344-7.316406 3.824219-6.738281 5.972656.574219 2.148438 4.523437 2.957032 8.820313 1.804688 4.296874-1.152344 7.3125-3.824219 6.738281-5.972656zm-18.6875 15.835937c-1.570313 1.574219-.296875 5.398438 2.847656 8.542969s6.972656 4.421875 8.542969 2.847656c1.574218-1.574218.296875-5.398437-2.847656-8.542968-3.144532-3.144532-6.96875-4.417969-8.542969-2.847657zm-11.667969 3.128907c-2.148438-.574219-4.824219 2.441406-5.972656 6.734374-1.152344 4.296876-.34375 8.246094 1.804687 8.824219 2.148438.574219 4.824219-2.441406 5.972657-6.738281 1.152343-4.296875.34375-8.246094-1.804688-8.820312zm0 0" fill="#f9a29b"/><path d="m291.347656 301.402344c3.148438 7.230468 4.902344 15.207031 4.902344 23.597656 0 32.675781-26.488281 59.167969-59.164062 59.167969-21.722657 0-40.695313-11.710938-50.984376-29.152344-10.292968 17.441406-29.265624 29.152344-50.984374 29.152344-32.679688 0-59.167969-26.492188-59.167969-59.167969 0-29.6875 21.863281-54.261719 50.367187-58.511719 3.257813-29.597656 28.335938-52.621093 58.800782-52.621093 10.441406 0 20.25 2.714843 28.765624 7.464843 9.660157-19.546875 29.789063-32.992187 53.066407-32.992187 32.675781 0 59.164062 26.488281 59.164062 59.164062.003907 23.976563-14.265625 44.605469-34.765625 53.898438zm0 0" fill="#b0da3c"/><path d="m411.488281 350c-24.945312 0-46.480469-11.847656-56.628906-29.003906-1.457031-.457032-2.886719-.976563-4.28125-1.574219-.597656-1.394531-1.117187-2.824219-1.574219-4.28125-17.15625-10.148437-29.003906-31.683594-29.003906-56.628906 0-27.898438 14.8125-51.542969 35.308594-59.75 15.183594 6.078125 27.238281 20.628906 32.472656 39.105469 15.898438-7.816407 33.25-8.964844 47.300781-2.949219 6.015625 14.050781 4.867188 31.402343-2.949219 47.300781 18.472657 5.234375 33.027344 17.289062 39.105469 32.472656-8.203125 20.496094-31.851562 35.308594-59.75 35.308594zm0 0" fill="#03ad6b"/><path d="m319.691406 330.800781c-17.636718 17.636719-41.242187 24.488281-60.550781 19.535157-1.355469.703124-2.730469 1.347656-4.140625 1.910156-1.40625-.5625-2.785156-1.207032-4.140625-1.910156-19.308594 4.953124-42.914063-1.898438-60.550781-19.535157-19.726563-19.726562-25.972656-46.921875-17.285156-67.21875 15.035156-6.4375 33.851562-4.671875 50.617187 4.6875 5.710937-16.765625 17.171875-29.847656 31.359375-35.527343 14.1875 5.679687 25.648438 18.761718 31.359375 35.527343 16.765625-9.359375 35.582031-11.125 50.617187-4.6875 8.6875 20.296875 2.441407 47.492188-17.285156 67.21875zm0 0" fill="#75c24b"/><path d="m375.929688 261.777344c25.382812 25.382812 25.382812 66.539062 0 91.921875-25.386719 25.386719-66.542969 25.386719-91.925782 0-25.382812-25.382813-25.382812-66.539063 0-91.921875 25.382813-25.382813 66.539063-25.382813 91.925782 0zm0 0" fill="#f45751"/><path d="m340.773438 371.820312c-20.027344 3.359376-41.320313-2.667968-56.769532-18.121093-25.382812-25.382813-25.382812-66.539063 0-91.921875 15.449219-15.453125 36.742188-21.480469 56.769532-18.121094-12.875 2.160156-25.222657 8.1875-35.15625 18.121094-25.386719 25.382812-25.386719 66.539062 0 91.921875 9.933593 9.933593 22.28125 15.960937 35.15625 18.121093zm0 0" fill="#ec3c52"/><path d="m349.109375 341.023438c2.519531 2.523437 1.660156 6.777343-1.625 8.164062-16.371094 6.914062-36 3.710938-49.339844-9.628906-13.339843-13.339844-16.542969-32.96875-9.628906-49.339844 1.390625-3.285156 5.644531-4.144531 8.164063-1.625zm12.675781-65.105469c-13.339844-13.339844-32.964844-16.542969-49.335937-9.628907-3.285157 1.386719-4.148438 5.644532-1.625 8.164063l52.429687 52.429687c2.519532 2.519532 6.773438 1.65625 8.160156-1.625 6.914063-16.371093 3.710938-36-9.628906-49.339843zm0 0" fill="#d73247"/><path d="m300.414062 315.476562c-4.292968-1.152343-7.3125-3.824218-6.734374-5.972656.574218-2.148437 4.523437-2.957031 8.820312-1.804687 4.296875 1.148437 7.3125 3.824219 6.738281 5.972656-.578125 2.148437-4.527343 2.957031-8.824219 1.804687zm3.40625 12.710938c-3.144531 3.144531-4.417968 6.96875-2.84375 8.542969 1.570313 1.574219 5.394532.296875 8.539063-2.847657 3.144531-3.144531 4.421875-6.96875 2.847656-8.542968-1.570312-1.570313-5.394531-.296875-8.542969 2.847656zm20.210938.28125c-2.144531.574219-2.953125 4.523438-1.804688 8.820312 1.152344 4.296876 3.828126 7.3125 5.976563 6.738282 2.148437-.578125 2.953125-4.527344 1.804687-8.824219-1.152343-4.296875-3.828124-7.3125-5.976562-6.734375zm6.015625-55.332031c-2.148437.574219-2.957031 4.523437-1.804687 8.820312 1.148437 4.296875 3.824218 7.3125 5.972656 6.738281 2.148437-.578124 2.957031-4.523437 1.804687-8.824218-1.152343-4.296875-3.824219-7.308594-5.972656-6.734375zm27.226563 7.296875c-1.574219-1.574219-5.398438-.300782-8.542969 2.84375-3.144531 3.148437-4.417969 6.96875-2.847657 8.542968 1.574219 1.574219 5.398438.296876 8.542969-2.847656 3.144531-3.144531 4.421875-6.96875 2.847657-8.539062zm.558593 21.25c-4.296875-1.148438-8.246093-.339844-8.820312 1.804687-.574219 2.148438 2.441406 4.824219 6.734375 5.976563 4.296875 1.148437 8.246094.34375 8.824218-1.804688.574219-2.148437-2.441406-4.824218-6.738281-5.976562zm0 0" fill="#f9a29b"/><path d="m510 325c0 13.808594-11.191406 25-25 25h-49.113281l-52.097657 127.867188c-37.605468 21.707031-81.246093 34.132812-127.789062 34.132812s-90.183594-12.425781-127.789062-34.132812l-52.097657-127.867188h-51.113281c-13.808594 0-25-11.191406-25-25 0-2.761719 2.238281-5 5-5h500c2.761719 0 5 2.238281 5 5zm0 0" fill="#dcdce1"/><path d="m511 325c0 13.808594-11.191406 25-25 25h-50.113281l-52.097657 127.867188c-37.605468 21.707031-81.246093 34.132812-127.789062 34.132812-31.90625 0-62.441406-5.855469-90.613281-16.519531l-39.902344-97.933594c-5.359375-13.152344 4.320313-27.546875 18.523437-27.546875h245.992188c5.742188 0 10.355469-4.839844 9.976562-10.664062-.34375-5.316407-4.992187-9.335938-10.320312-9.335938h-324.65625c-13.808594 0-25-11.191406-25-25 0-2.761719 2.238281-5 5-5h461c2.761719 0 5 2.238281 5 5zm0 0" fill="#f0eff4"/><path d="m440 280c0 5.523438-4.476562 10-10 10s-10-4.476562-10-10 4.476562-10 10-10 10 4.476562 10 10zm-260-60c-5.523438 0-10 4.476562-10 10s4.476562 10 10 10 10-4.476562 10-10-4.476562-10-10-10zm40 40c-5.523438 0-10 4.476562-10 10s4.476562 10 10 10 10-4.476562 10-10-4.476562-10-10-10zm70-230c0-5.523438-4.476562-10-10-10s-10 4.476562-10 10 4.476562 10 10 10 10-4.476562 10-10zm-70 40c0-5.523438-4.476562-10-10-10s-10 4.476562-10 10 4.476562 10 10 10 10-4.476562 10-10zm70 20c-5.523438 0-10 4.476562-10 10s4.476562 10 10 10 10-4.476562 10-10-4.476562-10-10-10zm0 0" fill="#a0452c"/><path d="m120 150c0 5.523438-4.476562 10-10 10s-10-4.476562-10-10 4.476562-10 10-10 10 4.476562 10 10zm330 50c-5.523438 0-10 4.476562-10 10s4.476562 10 10 10 10-4.476562 10-10-4.476562-10-10-10zm0 0" fill="#f7b95f"/></svg>