<svg height="512pt" viewBox="0 0 512 512.00032" width="512pt" xmlns="http://www.w3.org/2000/svg"><path d="m512 255.910156c.046875 139.804688-113.132812 254.425782-252.925781 256.070313-23.660157.28125-46.582031-2.664063-68.375-8.394531-2.1875-.574219-3.699219-2.574219-3.699219-4.835938 0-10.355469-8.394531-18.75-18.75-18.75h-29.910156c-4.246094 0-8.417969-1.125-12.074219-3.28125-37.628906-22.160156-69.097656-53.660156-91.203125-91.328125-.699219-1.191406-1.0625-2.550781-1.0625-3.933594v-34.722656c0-10.347656-8.386719-18.734375-18.734375-18.734375-2.980469 0-5.582031-2.011719-6.359375-4.890625-5.867188-21.632813-8.9765625-44.398437-8.90625-67.902344.429688-140.785156 115.605469-255.417969 256.390625-255.207031 141.175781.210938 255.5625 114.699219 255.609375 255.910156zm0 0" fill="#d73247"/><path d="m458.3125 312c-17.128906 28.40625-38.6875 56.144531-64.433594 81.890625-62.269531 62.273437-136.195312 100.121094-203.015625 109.738281-23.679687-6.214844-46.019531-15.730468-66.496093-28.035156.640624-1.128906 1.398437-2.226562 2.296874-3.269531 57.308594-66.660157 95.195313-126.402344 101.589844-160.324219 2.066406-10.96875.847656-19.242188-4.078125-24.171875-4.929687-4.929687-13.207031-6.148437-24.175781-4.078125-33.921875 6.394531-93.660156 44.277344-160.320312 101.585938-1.046876.902343-2.144532 1.660156-3.273438 2.300781-12.304688-20.480469-21.820312-42.816407-28.03125-66.5 9.617188-66.820313 47.464844-140.746094 109.734375-203.015625 25.746094-25.746094 53.484375-47.304688 81.890625-64.433594 98.703125-59.523438 205.457031-65.410156 264.589844-6.277344 59.136718 59.132813 53.246094 165.886719-6.277344 264.589844zm0 0" fill="#d9cac5"/><path d="m477.34375 62.234375c-67.300781-49.722656-179.167969-33.34375-277.34375 37.226563-18.738281 13.46875-36.980469 28.902343-54.3125 46.238281-73.0625 73.058593-112.503906 162.167969-112.167969 237.015625-10.914062-19.121094-19.429687-39.78125-25.144531-61.578125 9.617188-66.816407 47.464844-140.746094 109.734375-203.015625 25.746094-25.746094 53.484375-47.304688 81.890625-64.433594 98.703125-59.523438 205.457031-65.410156 264.589844-6.277344 4.65625 4.652344 8.902344 9.605469 12.753906 14.824219zm0 0" fill="#c4b9b9"/><path d="m143.296875 274.121094c-28.683594 15.339844-62.382813 38.582031-98.582031 67.921875-3.429688 2.78125-8.492188.066406-8.125-4.332031 5.410156-65.167969 42.890625-138.535157 102.730468-198.375 51.605469-51.605469 112.929688-86.742188 172.671876-98.933594 55.25-11.277344 101.910156-1.253906 131.386718 28.222656 29.472656 29.472656 39.496094 76.132812 28.21875 131.382812-12.191406 59.742188-47.328125 121.066407-98.929687 172.671876-59.851563 59.847656-133.226563 97.332031-198.378907 102.734374-4.398437.367188-7.113281-4.695312-4.335937-8.125 29.34375-36.203124 52.589844-69.902343 67.925781-98.585937 10.214844-19.105469 16.828125-35.949219 19.652344-50.058594 5.496094-27.472656-3.570312-43.460937-12.144531-52.03125-8.570313-8.574219-24.558594-17.640625-52.03125-12.144531-14.109375 2.824219-30.953125 9.433594-50.058594 19.652344zm0 0" fill="#f78d9a"/><path d="m243.523438 357.613281c27.128906 21.167969 56.019531 39.195313 85.5625 52.976563-6.148438 4.632812-12.371094 9.042968-18.648438 13.226562-26.003906-12.992187-51.6875-29.195312-76.367188-48.195312 1.3125-2.332032 2.59375-4.648438 3.808594-6.917969 2.027344-3.789063 3.90625-7.484375 5.644532-11.089844zm-190.15625-89.699219c8.667968 15.238282 18.414062 30.300782 29.15625 45.046876 5.550781-4.027344 11.011718-7.875 16.371093-11.539063-13.359375-18.328125-25.277343-37.347656-35.402343-56.746094-3.734376 7.734375-7.117188 15.492188-10.125 23.238281zm145.671874 161.5625c14.75 10.746094 29.8125 20.492188 45.050782 29.15625 7.746094-3.003906 15.503906-6.390624 23.238281-10.121093-19.398437-10.128907-38.421875-22.046875-56.75-35.40625-3.660156 5.359375-7.511719 10.820312-11.539063 16.371093zm-110.851562-227.910156c12.992188 26 29.195312 51.683594 48.195312 76.363282 2.332032-1.3125 4.644532-2.59375 6.914063-3.808594 3.789063-2.027344 7.484375-3.90625 11.089844-5.648438-21.167969-27.125-39.195313-56.019531-52.976563-85.558594-4.628906 6.148438-9.042968 12.371094-13.222656 18.652344zm140.359375 54.40625c-34.574219-37.25-63.449219-79.300781-83.09375-122.636718-2.054687 1.976562-4.105469 3.96875-6.132813 5.996093-3.023437 3.023438-5.972656 6.09375-8.882812 9.183594 17.160156 36.078125 40.546875 71.667969 69.066406 104.945313 11.957032-1.550782 21.503906-.214844 29.042969 2.511718zm-34.609375-162.632812c-5.519531 3.871094-10.980469 7.917968-16.378906 12.136718 22.527344 46.472657 55.347656 92.0625 96.125 132.839844 40.78125 40.78125 86.371094 73.601563 132.839844 96.125 4.21875-5.394531 8.265624-10.859375 12.136718-16.378906-93.578125-44.304688-180.414062-131.140625-224.722656-224.722656zm64.601562 219.15625c33.277344 28.519531 68.867188 51.90625 104.949219 69.066406 3.089844-2.910156 6.15625-5.859375 9.179688-8.882812 2.027343-2.027344 4.019531-4.078126 5.996093-6.132813-43.335937-19.644531-85.382812-48.519531-122.636718-83.09375 2.726562 7.539063 4.0625 17.085937 2.511718 29.042969zm217.558594-156.121094c-.0625-9.324219-.855468-18.269531-2.367187-26.769531-33.890625-26.273438-65.058594-57.441407-91.335938-91.335938-8.5-1.511719-17.441406-2.304687-26.769531-2.367187 16.25 22.566406 34.824219 44.414062 55.441406 65.03125 20.617188 20.617187 42.464844 39.191406 65.03125 55.441406zm-169.011718-114.914062c-6.707032 1.507812-13.425782 3.308593-20.152344 5.378906 20.804687 34.929687 47.257812 68.808594 78.339844 99.886718 31.078124 31.082032 64.957031 57.535157 99.886718 78.339844 2.070313-6.722656 3.875-13.445312 5.378906-20.152344-64.855468-39.78125-123.667968-98.597656-163.453124-163.453124zm-59.972657 20.871093c-5.984375 2.8125-11.941406 5.828125-17.859375 9.050781 22.207032 42.402344 52.875 83.789063 90.222656 121.140626 37.351563 37.351562 78.738282 68.019531 121.140626 90.222656 3.226562-5.917969 6.242187-11.875 9.054687-17.855469-82.957031-43.554687-159.007813-119.605469-202.558594-202.558594zm0 0" fill="#ef586b"/><path d="m326.707031 241.863281c-24.660156 24.65625-52.824219 38.84375-72.089843 38.117188-2.585938-5.695313-5.941407-10.082031-9.230469-13.367188-3.285157-3.289062-7.667969-6.644531-13.367188-9.230469-.726562-19.261718 13.460938-47.429687 38.117188-72.085937 33.195312-33.195313 72.765625-47.441406 88.386719-31.820313 15.621093 15.621094 1.375 55.191407-31.816407 88.386719zm0 0" fill="#e4dad5"/><path d="m326.707031 241.863281c-24.660156 24.65625-52.824219 38.84375-72.089843 38.117188-2.585938-5.695313-5.941407-10.082031-9.230469-13.367188-.996094-.996093-2.105469-2-3.3125-2.984375 4.707031-10.316406 11.570312-21.59375 20.257812-33.09375 2.152344-2.855468 6.644531-1.621094 7.117188 1.921875.367187 2.769531 1.410156 5.128907 3.1875 6.90625 7.8125 7.808594 26.804687 1.476563 42.425781-14.144531s21.953125-34.613281 14.144531-42.425781c-1.453125-1.453125-3.292969-2.414063-5.425781-2.917969-3.355469-.792969-4.171875-5.199219-1.328125-7.148438 13.066406-8.960937 25.597656-15.40625 36.464844-18.816406 14.957031 15.902344.6875 55.054688-32.210938 87.953125zm0 0" fill="#f0e6e1"/></svg>