<svg height="512pt" viewBox="0 0 512 512" width="512pt" xmlns="http://www.w3.org/2000/svg"><path d="m512 256c0 141.386719-114.613281 256-256 256-28.359375 0-55.640625-4.621094-81.136719-13.136719-25.417969-76.117187-85.609375-136.308593-161.726562-161.726562-8.515625-25.496094-13.136719-52.777344-13.136719-81.136719 0-141.386719 114.613281-256 256-256s256 114.613281 256 256zm0 0" fill="#54cc87"/><path d="m450.484375 133.640625-36.785156 36.785156c3.515625 16.128907 1.75 33.179688-5.332031 48.371094l.398437.402344c13.28125 13.277343 13.28125 34.804687 0 48.082031-8.449219 8.453125-20.242187 11.515625-31.125 9.207031l-194.425781 194.425781c2.074218 9.777344-.203125 20.285157-6.816406 28.449219-77.351563-25.285156-138.472657-86.410156-163.761719-163.761719 8.167969-6.613281 18.671875-8.886718 28.449219-6.816406l194.425781-194.425781c-2.308594-10.882813.753906-22.675781 9.207031-31.125 13.277344-13.28125 34.804688-13.28125 48.082031 0l.402344.398437c15.191406-7.082031 32.242187-8.847656 48.371094-5.332031l36.785156-36.785156zm0 0" fill="#f1bd1f"/><path d="m408.386719 218.820312c12.582031 12.585938 13.8125 32.875 2.269531 46.417969-8.523438 9.992188-21.296875 13.734375-33.015625 11.25l-194.425781 194.425781c2.074218 9.777344-.203125 20.285157-6.816406 28.449219-62.699219-20.496093-114.75-64.535156-145.683594-121.683593 1.660156-4.148438 4.167968-8.039063 7.527344-11.402344 8.453124-8.453125 20.246093-11.515625 31.128906-9.207032l194.425781-194.425781c-2.308594-10.882812.753906-22.675781 9.207031-31.125 13.277344-13.277343 34.804688-13.28125 48.082032-.003906l46.667968 46.671875c4.0625 4.058594 10.746094 3.898438 14.597656-.488281 3.515626-4 3.070313-10.128907-.699218-13.894531l-30.527344-30.53125c-3.148438-3.148438-.84375-8.488282 3.613281-8.425782 5.074219.074219 10.140625.652344 15.121094 1.738282l36.785156-36.789063 43.839844 43.84375-36.785156 36.785156c3.515625 16.128907 1.75 33.179688-5.332031 48.371094zm0 0" fill="#f7c32a"/><path d="m446.949219 144.246094-79.195313-79.195313c-3.90625-3.90625-3.90625-10.238281 0-14.144531l21.214844-21.210938c3.902344-3.90625 10.234375-3.90625 14.140625 0l79.195313 79.195313c3.90625 3.90625 3.90625 10.238281 0 14.140625l-21.210938 21.214844c-3.90625 3.90625-10.238281 3.90625-14.144531 0zm0 0" fill="#d73247"/><path d="m446.949219 144.246094-51.769531-51.769532c-3.90625-3.90625-3.90625-10.238281 0-14.140624l21.214843-21.214844c3.902344-3.90625 10.234375-3.90625 14.140625 0l51.769532 51.769531c3.90625 3.90625 3.90625 10.238281 0 14.140625l-21.210938 21.214844c-3.90625 3.90625-10.238281 3.90625-14.144531 0zm0 0" fill="#ec3c52"/><path d="m275.765625 378.363281-51.90625 51.90625-142.128906-142.128906 51.269531-51.269531c14.746094 6.515625 32.601562 3.742187 44.683594-8.339844 12.082031-12.082031 14.851562-29.9375 8.339844-44.683594l49.488281-49.488281c-.292969-1.382813 143.511719 142.421875 142.128906 142.128906l-50.125 50.125c-14.300781-5.351562-31.035156-2.285156-42.535156 9.214844s-14.566407 28.234375-9.214844 42.535156zm0 0" fill="#ec3c52"/><path d="m264.199219 162.378906-154.117188 154.113282-28.351562-28.351563 51.269531-51.269531c14.746094 6.515625 32.601562 3.742187 44.683594-8.339844 12.082031-12.082031 14.851562-29.9375 8.339844-44.683594l49.488281-49.488281c-.085938-.398437 11.785156 11.25 28.6875 28.019531zm0 0" fill="#d73247"/><path d="m273.214844 380.914062-24.941406-24.941406c-25.65625 7.828125-54.679688 1.605469-74.972657-18.6875-20.292969-20.292968-26.515625-49.316406-18.6875-74.972656l-23.527343-23.527344 56.851562-56.851562 20.402344 20.402344c27.839844-13.199219 62.132812-8.292969 85.167968 14.742187 23.035157 23.035156 27.941407 57.324219 14.742188 85.167969l21.816406 21.816406zm0 0" fill="#fbf1d1"/><path d="m283.609375 313.242188-14.140625 14.144531c-23.394531 23.394531-61.460938 23.394531-84.855469 0s-23.394531-61.460938 0-84.855469l14.144531-14.140625c23.390626-23.394531 61.457032-23.394531 84.851563 0s23.394531 61.460937 0 84.851563zm0 0" fill="#fae8b1"/><path d="m273.003906 260.210938c-5.859375 5.859374-15.355468 5.859374-21.214844 0-5.859374-5.859376-5.859374-15.355469 0-21.214844 5.859376-5.855469 15.355469-5.855469 21.214844 0 5.855469 5.859375 5.855469 15.355468 0 21.214844zm-63.640625-14.140626c-2.34375-2.34375-6.140625-2.34375-8.484375 0l-5.65625 5.65625c-2.34375 2.34375-2.34375 6.140626 0 8.484376l55.152344 55.152343c2.34375 2.34375 6.140625 2.34375 8.484375 0l5.65625-5.65625c2.34375-2.34375 2.34375-6.140625 0-8.484375zm-7.070312 35.355469c-2.34375-2.34375-6.144531-2.34375-8.484375 0l-5.660156 5.65625c-2.339844 2.34375-2.339844 6.140625 0 8.484375l26.871093 26.871094c2.34375 2.339844 6.140625 2.339844 8.484375 0l5.65625-5.660156c2.34375-2.339844 2.34375-6.140625 0-8.484375zm0 0" fill="#f7d674"/></svg>