<svg height="512pt" viewBox="0 0 512 512" width="512pt" xmlns="http://www.w3.org/2000/svg"><path d="m512 256c0 141.386719-114.613281 256-256 256s-256-114.613281-256-256 114.613281-256 256-256 256 114.613281 256 256zm0 0" fill="#94d7e8"/><path d="m497.140625 100.078125c-12.277344 7.449219-28.644531 5.507813-38.789063-5.820313-.320312 24.214844-14.148437 47.878907-39.105468 58.527344-46.921875 20.027344-95.640625 52.949219-139.699219 97.011719-44.058594 44.058594-76.984375 92.777344-97.007813 139.699219-10.242187 24-32.519531 37.699218-55.75 39 10.167969 9.230468 12.671876 23.5 7.476563 35.199218-1.019531 2.292969-3.464844 3.59375-5.9375 3.164063-6.335937-1.09375-12.773437-1.476563-19.179687-1.160156-11.152344-7.824219-21.644532-16.515625-31.394532-25.972657 1.808594-4.480468 4.714844-8.621093 8.726563-12.007812 2.777343-2.34375 5.894531-4.101562 9.175781-5.292969-6.4375-3.0625-12.519531-7.28125-17.964844-12.726562-14.433594-14.4375-21.308594-34.875-18.1875-55.046875 10.085938-65.230469 51.113282-141.726563 117.144532-207.757813 66.027343-66.027343 142.523437-107.054687 207.753906-117.140625 20.175781-3.121094 40.613281 3.753906 55.046875 18.1875 5.238281 5.238282 9.34375 11.074219 12.375 17.242188 1.171875-4.042969 3.167969-7.890625 6.023437-11.234375 9.199219-10.777344 23.878906-13.5 35.855469-8.179688 2.292969 1.015625 3.589844 3.460938 3.164063 5.933594-2.382813 13.773437-1.429688 28 2.847656 41.402344.847656 2.648437-.199219 5.535156-2.574219 6.972656zm0 0" fill="#e06e4e"/><path d="m427.003906 46.886719c-16.429687 2.539062-33.523437 6.902343-50.980468 13-4.882813 1.707031-7.484376 6.84375-6.371094 11.898437.273437 1.238282.390625 2.53125.332031 3.863282-.324219 7.667968-6.621094 13.988281-14.285156 14.335937-4.238281.191406-8.109375-3.488281-10.941407-7.277344-3.324218-4.445312-9.390624-5.785156-14.34375-3.285156-40.703124 20.570313-81.96875 49.792969-120.257812 86.726563-3.1875 3.078124-3.984375 7.914062-1.902344 11.828124 1.304688 2.453126 1.949219 5.308594 1.691406 8.335938-.605468 7.082031-6.292968 12.878906-13.363281 13.601562-2.84375.292969-5.542969-.210937-7.902343-1.316406-4.023438-1.882812-8.820313-.863281-11.738282 2.488282-55.964844 64.265624-90.824218 134.832031-100.304687 196.164062-.542969 3.503906-.800781 7.015625-.792969 10.507812-13.164062-14.292968-19.324219-33.820312-16.339844-53.109374 10.085938-65.226563 51.117188-141.726563 117.144532-207.753907 66.027343-66.023437 142.523437-107.054687 207.753906-117.140625 19.289062-2.984375 38.816406 3.175782 53.109375 16.335938-3.492188-.003906-7.003907.253906-10.507813.796875zm-72.003906 73.113281c-8.285156 0-15 6.714844-15 15s6.714844 15 15 15 15-6.714844 15-15-6.714844-15-15-15zm-220 230c-8.285156 0-15 6.714844-15 15s6.714844 15 15 15 15-6.714844 15-15-6.714844-15-15-15zm50-90c-8.285156 0-15 6.714844-15 15s6.714844 15 15 15 15-6.714844 15-15-6.714844-15-15-15zm120-60c-8.285156 0-15 6.714844-15 15 0 6.925781 4.703125 12.742188 11.082031 14.464844 6.21875-5.539063 12.503907-10.859375 18.84375-15.96875-.753906-7.578125-7.148437-13.496094-14.925781-13.496094zm0 0" fill="#d25e3e"/></svg>