<svg height="512pt" viewBox="0 0 512 512" width="512pt" xmlns="http://www.w3.org/2000/svg"><path d="m512 256c0 141.386719-114.613281 256-256 256s-256-114.613281-256-256 114.613281-256 256-256 256 114.613281 256 256zm0 0" fill="#347d91"/><path d="m247.984375 357.355469-42.425781 42.425781c-5.417969 5.414062-13.164063 7.066406-20.007813 4.972656-13.90625 26.105469-34.5 58.152344-50.203125 77.070313-6.40625-3.425781-12.644531-7.121094-18.707031-11.0625 4.339844-15.886719 12.015625-36.628907 20.523437-56.414063 2.09375-4.867187-3.804687-9.230468-7.832031-5.785156-16.382812 14.015625-33.609375 27.257812-46.914062 35.578125-5.046875-4.65625-9.902344-9.511719-14.558594-14.558594 8.324219-13.304687 21.5625-30.53125 35.582031-46.914062 3.441406-4.023438-.921875-9.921875-5.785156-7.828125-19.789062 8.503906-40.527344 16.179687-56.417969 20.519531-3.941406-6.0625-7.632812-12.300781-11.0625-18.707031 18.921875-15.703125 50.964844-36.296875 77.070313-50.203125-2.09375-6.84375-.441406-14.59375 4.976562-20.007813l42.425782-42.425781c7.808593-7.8125 20.472656-7.8125 28.28125 0l65.054687 65.054687c7.8125 7.808594 7.8125 20.472657 0 28.285157zm0 0" fill="#5ac7e1"/><path d="m247.984375 329.070312c7.808594 7.808594 7.808594 20.472657 0 28.285157l-42.425781 42.425781c-7.8125 7.808594-20.472656 7.808594-28.285156 0-3.507813-3.507812-29.503907-15.363281-39.597657-25.457031-12.914062-12.914063-19.414062-33.683594-19.8125-34.324219-2.398437-3.859375-1.921875-8.992188 1.425781-12.34375l49.5-49.5c7.808594-7.808594 20.472657-7.808594 28.28125 0zm36.230469-272.128906-.449219.183594c-26.613281 10.96875-36.921875 44.53125-19.140625 62.3125l63.617188 63.613281 134.347656-134.351562c-54.871094-19.421875-118.382813-16.484375-178.375 8.242187zm179.082031-7.53125-134.347656 134.347656 63.613281 63.617188c17.78125 17.78125 51.34375 7.472656 62.3125-19.140625l.183594-.449219c24.726562-59.992187 27.664062-123.503906 8.238281-178.375zm0 0" fill="#94d7e8"/><path d="m262.125 371.496094c-7.808594 7.8125-20.472656 7.808594-28.28125 0l-93.339844-93.339844c-7.8125-7.808594-7.8125-20.472656 0-28.28125.789063-.789062 1.625-1.496094 2.503906-2.125 11.289063-8.089844 21.40625-17.746094 28.859376-29.464844 7.785156-12.230468 19.351562-26.199218 35.8125-42.65625 79.410156-79.410156 212.003906-156.230468 260.398437-131.707031 24.523437 48.394531-52.296875 180.988281-131.707031 260.398437-16.457032 16.460938-30.425782 28.027344-42.65625 35.8125-11.71875 7.453126-21.375 17.574219-29.464844 28.859376-.628906.878906-1.335938 1.714843-2.125 2.503906zm0 0" fill="#b7e3ef"/><path d="m336.371094 304.320312c-18.101563 18.105469-33.183594 30.277344-46.261719 38.019532-1.125-.503906-2.246094-1.027344-3.363281-1.578125-27.082032-13.375-46.625-36.546875-55.230469-65.503907-9.023437-30.363281-3.039063-60.429687 71.214844-123.039062 47.617187-40.148438 107.078125-79.996094 162.699219-109.496094.90625.371094 1.792968.765625 2.648437 1.199219 24.523437 48.394531-52.296875 180.988281-131.707031 260.398437zm0 0" fill="#e1eff4"/></svg>