<svg height="512pt" viewBox="0 0 512 512.00058" width="512pt" xmlns="http://www.w3.org/2000/svg"><path d="m512 256c0 141.074219-113.589844 255.273438-254.660156 255.996094-50.425782.257812-97.480469-14.066406-137.210938-38.996094-1.066406-.667969-1.964844-1.566406-2.65625-2.613281-19.851562-30.03125-45.851562-55.632813-76.21875-75.003907-26.109375-40.140624-41.2773435-88.050781-41.253906-139.507812.0703125-143.328125 116.632812-258.011719 259.945312-255.84375 139.566407 2.105469 252.054688 115.902344 252.054688 255.96875zm0 0" fill="#2b697a"/><path d="m474.753906 232.871094c-14.996094 13.992187-48.488281 18.035156-84.160156 8.476562-30.554688-8.183594-54.71875-24.214844-64.792969-40.972656-2.765625-1.625-5.242187-3.433594-7.390625-5.417969-.007812-.003906-.015625-.003906-.019531-.003906 0-.007813-.003906-.011719-.003906-.015625-.03125-.03125-.070313-.0625-.101563-.09375.015625-.050781.035156-.105469.050782-.15625-.09375-.421875-.175782-.851562-.253907-1.28125-.308593.101562-.617187.21875-.925781.3125-1.820312-1.953125-3.488281-4.195312-5.007812-6.671875-16.460938-10.359375-32.101563-34.246094-40.15625-64.300781-9.558594-35.671875-5.515626-69.160156 8.480468-84.15625 12.652344 3.859375 25.5625 16.460937 35.699219 34.484375 12.175781-27.910157 30.09375-47.898438 47.578125-53.234375 12.453125 13.347656 17.980469 39.570312 14.59375 69.785156 24.351562-17.835938 49.644531-26.050781 67.335938-21.960938 4 17.304688-3.78125 41.886719-20.820313 65.742188 29.164063-2.816406 54.324219 2.734375 67.304687 14.847656-5.378906 17.609375-25.625 35.660156-53.855468 47.835938 19.066406 10.292968 32.441406 23.675781 36.445312 36.78125zm0 0" fill="#8cd246"/><path d="m297.277344 173.730469c-10.558594-12.445313-19.730469-30.246094-25.285156-50.984375-9.558594-35.671875-5.515626-69.160156 8.480468-84.15625 12.652344 3.863281 25.558594 16.464844 35.699219 34.488281 12.171875-27.910156 30.09375-47.898437 47.574219-53.238281 12.457031 13.347656 17.984375 39.574218 14.597656 69.789062 24.347656-17.839844 49.640625-26.054687 67.332031-21.960937 2.644531 11.429687.140625 26.039062-6.769531 41.515625-29.074219-5.859375-56.300781-2.996094-77.445312 9.453125-4.238282-11.496094-10.097657-20.679688-17.21875-26.554688-21.085938 9.578125-39.941407 41.34375-46.964844 81.648438zm0 0" fill="#75c24b"/><path d="m436.074219 271.878906s13.316406 104.667969-127.324219 171.828125c-41.902344 20.011719-85.121094 32.699219-127.222656 37.171875-20.425782 2.167969-40.5625-.171875-59.164063-6.496094-33.4375-20.507812-61.800781-48.476562-82.773437-81.589843-6.800782-19.105469-9.367188-39.890625-7.128906-60.980469 4.472656-42.101562 17.160156-85.320312 37.171874-127.222656 67.160157-140.636719 171.828126-127.324219 171.828126-127.324219 41.945312 8.371094 71.011718 44.089844 79.378906 86.035156 1.507812 7.566407 5.523437 13.769531 11.304687 17.894531 4.125 5.78125 10.328125 9.796876 17.894531 11.308594 41.945313 8.367188 77.667969 37.429688 86.035157 79.375zm0 0" fill="#f45751"/><path d="m436.074219 271.878906c-6.285157-31.507812-28.011719-55.746094-56.214844-69.402344-14.269531-6.910156-27.421875-15.921874-38.632813-27.132812l-3.851562-3.851562c-10.902344-10.898438-19.644531-23.703126-26.3125-37.601563-13.25-27.621094-36.625-49.089844-67.03125-56.054687-23.953125 14.210937-46.808594 31.804687-67.761719 52.761718-2.230469 2.230469-4.417969 4.488282-6.574219 6.761719 1.574219.585937 3.011719 1.457031 4.21875 2.664063 5.855469 5.859374 4.273438 16.941406-3.535156 24.75-7.8125 7.8125-18.894531 9.394531-24.75 3.535156-.402344-.398438-.761718-.832032-1.09375-1.277344-10.183594 13.476562-19.179687 27.464844-26.988281 41.792969 7.304687-5.011719 16.035156-5.417969 21.007813-.445313 5.859374 5.859375 4.277343 16.9375-3.535157 24.75-7.808593 7.808594-18.890625 9.394532-24.75 3.535156-1.792969-1.792968-2.882812-4.082031-3.3125-6.613281-6.488281 14.28125-11.832031 28.8125-16.019531 43.441407 4.707031-.832032 9.199219.179687 12.261719 3.242187 5.859375 5.855469 4.277343 16.9375-3.535157 24.746094-4.917968 4.917969-11.128906 7.363281-16.519531 7.039062-3.203125 20.109375-4.226562 40.171875-3.03125 59.804688 3.171875-1.953125 6.714844-2.691407 10.113281-1.777344 8.003907 2.144531 12.171876 12.53125 9.3125 23.199219-2.238281 8.351562-8.121093 14.378906-14.410156 15.582031.804688 3.773437 1.691406 7.519531 2.671875 11.230469 10.933594 41.300781 50.453125 68.683594 92.960938 64.402344.253906-.027344.511719-.054688.765625-.082032 42.101562-4.46875 85.320312-17.160156 127.222656-37.167968 140.640625-67.164063 127.324219-171.832032 127.324219-171.832032zm-322.265625 43.746094c7.8125-7.8125 18.890625-9.394531 24.75-3.539062 5.855468 5.859374 4.273437 16.9375-3.539063 24.75-7.808593 7.8125-18.890625 9.394531-24.746093 3.535156-5.859376-5.855469-4.277344-16.9375 3.535156-24.746094zm17.550781 127.152344c-10.667969 2.859375-21.054687-1.3125-23.199219-9.3125-2.144531-8.003906 4.765625-16.808594 15.4375-19.664063 10.667969-2.859375 21.054688 1.308594 23.199219 9.3125 2.144531 8-4.765625 16.804688-15.4375 19.664063zm39.015625-70.585938c-7.808594 7.8125-18.890625 9.394532-24.746094 3.535156-5.859375-5.855468-4.277344-16.9375 3.535156-24.75 7.808594-7.808593 18.890626-9.390624 24.75-3.535156 5.855469 5.859375 4.273438 16.941406-3.539062 24.75zm0-103.710937c-7.808594 7.8125-18.890625 9.394531-24.746094 3.539062-5.859375-5.859375-4.277344-16.9375 3.535156-24.75 7.808594-7.8125 18.890626-9.394531 24.75-3.535156 5.855469 5.855469 4.273438 16.9375-3.539062 24.746094zm186.207031-21.210938c7.808594-7.8125 18.890625-9.394531 24.75-3.535156 5.855469 5.855469 4.273438 16.9375-3.535156 24.75-7.8125 7.808594-18.890625 9.394531-24.75 3.535156s-4.277344-16.941406 3.535156-24.75zm-35.355469-35.355469c7.8125-7.8125 18.890626-9.394531 24.75-3.535156 5.855469 5.855469 4.273438 16.9375-3.535156 24.75-7.8125 7.808594-18.890625 9.390625-24.75 3.535156-5.859375-5.859374-4.277344-16.941406 3.535156-24.75zm-35.355468-35.355468c7.808594-7.8125 18.890625-9.394532 24.75-3.535156 5.855468 5.855468 4.273437 16.9375-3.535156 24.746093-7.8125 7.8125-18.894532 9.394531-24.75 3.535157-5.859376-5.855469-4.277344-16.933594 3.535156-24.746094zm-35.355469-35.355469c7.8125-7.8125 18.890625-9.394531 24.75-3.535156 5.855469 5.855469 4.273437 16.9375-3.539063 24.75-7.808593 7.808593-18.890624 9.390625-24.746093 3.53125-5.859375-5.855469-4.273438-16.933594 3.535156-24.746094zm-35.355469-35.355469c7.8125-7.808594 18.890625-9.390625 24.75-3.535156 5.855469 5.859375 4.273438 16.9375-3.535156 24.75-7.8125 7.8125-18.890625 9.394531-24.75 3.535156s-4.277344-16.941406 3.535156-24.75zm-9.429687 301.699219c-7.808594 7.8125-18.890625 9.394531-24.746094 3.535156-5.859375-5.855469-4.277344-16.9375 3.535156-24.746093 7.808594-7.8125 18.890625-9.394532 24.746094-3.539063 5.859375 5.859375 4.277344 16.9375-3.535156 24.75zm0-103.707031c-7.808594 7.808594-18.890625 9.390625-24.746094 3.535156-5.859375-5.859375-4.277344-16.9375 3.535156-24.75 7.808594-7.8125 18.890625-9.394531 24.746094-3.535156 5.859375 5.855468 4.277344 16.9375-3.535156 24.75zm0-103.710938c-7.808594 7.808594-18.890625 9.394532-24.746094 3.535156-5.859375-5.859374-4.277344-16.9375 3.535156-24.75 7.808594-7.808593 18.890625-9.394531 24.746094-3.535156 5.859375 5.859375 4.277344 16.9375-3.535156 24.75zm35.355469 242.773438c-7.808594 7.8125-18.890626 9.394531-24.746094 3.535156-5.859375-5.855469-4.277344-16.9375 3.535156-24.75 7.808594-7.808594 18.890625-9.390625 24.746094-3.535156 5.859375 5.859375 4.277344 16.941406-3.535156 24.75zm0-103.710938c-7.808594 7.8125-18.890626 9.394532-24.746094 3.539063-5.859375-5.859375-4.277344-16.9375 3.535156-24.75 7.808594-7.8125 18.890625-9.394531 24.746094-3.535157 5.859375 5.855469 4.277344 16.9375-3.535156 24.746094zm0-103.707031c-7.808594 7.8125-18.890626 9.394531-24.746094 3.535156-5.859375-5.855469-4.277344-16.9375 3.535156-24.75 7.808594-7.808593 18.890625-9.390625 24.746094-3.535156 5.859375 5.859375 4.277344 16.9375-3.535156 24.75zm35.355468 139.0625c-7.808594 7.8125-18.890625 9.394531-24.75 3.539063-5.855468-5.859376-4.273437-16.941407 3.539063-24.75 7.808593-7.8125 18.890625-9.394532 24.746093-3.535157 5.859376 5.855469 4.277344 16.9375-3.535156 24.746094zm0-103.707031c-7.808594 7.808594-18.890625 9.394531-24.75 3.535156-5.855468-5.859375-4.273437-16.9375 3.539063-24.75 7.808593-7.808594 18.890625-9.394531 24.746093-3.535156 5.859376 5.859375 4.277344 16.9375-3.535156 24.75zm35.355469 139.0625c-7.808594 7.8125-18.890625 9.394531-24.746094 3.539062-5.859375-5.859375-4.277343-16.9375 3.535157-24.75 7.808593-7.8125 18.890624-9.394531 24.75-3.535156 5.855468 5.855469 4.273437 16.9375-3.539063 24.746094zm0-103.707032c-7.808594 7.8125-18.890625 9.394532-24.746094 3.535157-5.859375-5.855469-4.277343-16.9375 3.535157-24.75 7.808593-7.808594 18.890624-9.390625 24.75-3.535157 5.855468 5.859376 4.273437 16.9375-3.539063 24.75zm35.355469 35.355469c-7.808594 7.808594-18.890625 9.390625-24.746094 3.535157-5.859375-5.859376-4.277344-16.9375 3.535156-24.75 7.808594-7.8125 18.890625-9.394532 24.746094-3.535157 5.859375 5.855469 4.277344 16.9375-3.535156 24.75zm35.355468 35.355469c-7.808593 7.808594-18.890624 9.394531-24.75 3.535156-5.855468-5.859375-4.273437-16.9375 3.535157-24.75 7.8125-7.808594 18.890625-9.394531 24.75-3.535156s4.277343 16.9375-3.535157 24.75zm30.640626-73.066406c-7.808594 7.808594-18.890626 9.390625-24.746094 3.535156-5.859375-5.859375-4.277344-16.9375 3.535156-24.75 7.808594-7.8125 18.890625-9.394531 24.746094-3.535156 5.859375 5.855468 4.277344 16.9375-3.535156 24.75zm0 0" fill="#f79085"/></svg>