<svg height="512pt" viewBox="0 0 512.00169 512" width="512pt" xmlns="http://www.w3.org/2000/svg"><path d="m511.972656 252.0625c2.140625 141.894531-110.351562 257.894531-252.246094 259.910156-55.316406.789063-106.664062-15.988281-148.863281-45.082031-.75-.519531-1.195312-1.375-1.195312-2.285156 0-14.050781-11.390625-25.4375-25.4375-25.4375h-5.917969c-.726562 0-1.425781-.285157-1.941406-.796875-1.707032-1.675782-3.386719-3.367188-5.046875-5.089844-.636719-.664062-.992188-1.554688-.992188-2.476562v-6.363282c0-12.921875-10.472656-23.394531-23.394531-23.394531-1.183594 0-2.292969-.582031-2.957031-1.5625-27.855469-41.078125-44.101563-90.667969-43.980469-144.066406.320312-142.214844 117.738281-257.53125 259.9375-255.386719 138.257812 2.082031 249.949219 113.769531 252.035156 252.03125zm0 0" fill="#347d91"/><path d="m88.941406 355.480469c-3.253906-2.601563-3.777344-7.351563-1.171875-10.605469l2.097657-2.625 252.070312-291.945312c2.652344-3.074219 7.261719-3.496094 10.429688-.960938 3.167968 2.539062 3.761718 7.128906 1.34375 10.386719l-229.78125 309.792969-2.101563 2.625c-2.605469 3.253906-7.355469 3.777343-10.609375 1.171874zm0 0" fill="#f7b95f"/><path d="m97.457031 362.300781-8.515625-6.820312c-3.253906-2.605469-3.777344-7.355469-1.171875-10.605469l2.097657-2.625 252.070312-291.945312c2.652344-3.074219 7.261719-3.496094 10.429688-.960938 1.671874 1.339844 2.621093 3.253906 2.792968 5.238281-1.765625.238281-3.453125 1.089844-4.707031 2.539063l-252.070313 291.945312-2.097656 2.625c-2.609375 3.253906-2.082031 8.003906 1.171875 10.609375zm0 0" fill="#f7ad3b"/><path d="m487.457031 148.664062c0 65.503907-53.101562 118.609376-118.605469 118.609376-65.507812 0-118.609374-53.105469-118.609374-118.609376 0-65.503906 53.101562-118.609374 118.609374-118.609374 65.503907 0 118.605469 53.105468 118.605469 118.609374zm0 0" fill="#fff5f5"/><path d="m389.082031 265.519531c-6.578125 1.128907-13.332031 1.753907-20.230469 1.753907-64.699218 0-117.292968-51.804688-118.578124-116.195313l-13.082032-13.082031c-4.34375-4.34375-4.34375-11.386719 0-15.726563 4.34375-4.34375 11.382813-4.34375 15.726563 0l.226562.230469c4.914063-21.824219 15.84375-41.367188 30.957031-56.800781-3.394531-1.902344-5.6875-5.53125-5.6875-9.695313 0-6.144531 4.976563-11.121094 11.117188-11.121094h21.871094c17.019531-9.441406 36.605468-14.828124 57.449218-14.828124 6.902344 0 13.652344.625 20.230469 1.753906-14.785156 2.542968-28.632812 7.824218-41.007812 15.296875 2.707031 2.027343 4.46875 5.25 4.46875 8.894531 0 6.140625-4.976563 11.121094-11.121094 11.121094h-18.203125c-14.402344 15.191406-24.828125 34.195312-29.601562 55.34375l26.015624 26.011718c4.34375 4.34375 4.34375 11.382813 0 15.726563-4.339843 4.34375-11.382812 4.34375-15.722656 0l-13.171875-13.171875c.289063 14.871094 3.320313 29.066406 8.601563 42.109375h27.257812c6.140625 0 11.121094 4.980469 11.121094 11.121094s-4.980469 11.121093-11.121094 11.121093h-15.347656c17.742188 26.003907 45.558594 44.585938 77.832031 50.136719zm-69.898437-176.160156c-6.140625 0-11.121094 4.980469-11.121094 11.121094s4.980469 11.117187 11.121094 11.117187h37.066406c6.140625 0 11.117188-4.976562 11.117188-11.117187s-4.976563-11.121094-11.117188-11.121094zm118.609375 29.652344h37.0625c6.140625 0 11.121093-4.976563 11.121093-11.121094 0-6.140625-4.980468-11.117187-11.121093-11.117187h-37.0625c-6.140625 0-11.121094 4.976562-11.121094 11.117187 0 6.144531 4.980469 11.121094 11.121094 11.121094zm48.898437 44.292969-26.210937-26.210938c-4.34375-4.339844-11.382813-4.339844-15.726563 0-4.339844 4.34375-4.339844 11.382812 0 15.726562l26.210938 26.207032c4.34375 4.34375 11.382812 4.34375 15.726562 0 4.339844-4.339844 4.339844-11.382813 0-15.722656zm-41.488281 15.011718h-37.0625c-6.140625 0-11.121094 4.976563-11.121094 11.121094 0 6.140625 4.980469 11.117188 11.121094 11.117188h37.0625c6.140625 0 11.121094-4.976563 11.121094-11.117188 0-6.144531-4.980469-11.121094-11.121094-11.121094zm-21.789063-129.277344c4.34375-4.34375 4.34375-11.382812 0-15.726562-4.339843-4.339844-11.382812-4.339844-15.722656 0l-26.210937 26.210938c-4.34375 4.339843-4.34375 11.382812 0 15.722656 4.34375 4.34375 11.382812 4.34375 15.726562 0zm0 0" fill="#fae8b1"/><path d="m428.15625 148.664062c0 32.753907-26.550781 59.304688-59.304688 59.304688-32.753906 0-59.304687-26.550781-59.304687-59.304688 0-32.753906 26.550781-59.304687 59.304687-59.304687 32.753907 0 59.304688 26.550781 59.304688 59.304687zm0 0" fill="#75c24b"/><path d="m382.9375 91.058594c-9.449219 2.300781-18.007812 6.867187-25.074219 13.089844-3.40625 3-3.8125 8.070312-1.023437 11.648437 2.375 3.046875 3.601562 7.035156 3.019531 11.3125-.863281 6.3125-5.808594 11.46875-12.070313 12.632813-.640624.117187-1.273437.195312-1.898437.230468-4.484375.269532-8.140625 3.753906-8.171875 8.246094-.003906.148438-.003906.296875-.003906.445312 0 1.761719.078125 3.507813.230468 5.230469.488282 5.574219 6.226563 9.320313 11.410157 7.207031 1.910156-.777343 4.019531-1.171874 6.234375-1.089843 7.675781.292969 14.023437 6.566406 14.394531 14.242187.347656 7.191406-4.371094 13.339844-10.894531 15.183594-1.300782.367188-2.070313 3.015625-.734375 4.167969 6.972656 6.003906 15.351562 10.417969 24.582031 12.664062 25.949219-6.324219 45.21875-29.707031 45.21875-57.605469 0-27.898437-19.269531-51.285156-45.21875-57.605468zm12.0625 68.941406c-8.28125 0-15-6.714844-15-15s6.71875-15 15-15c8.285156 0 15 6.714844 15 15s-6.714844 15-15 15zm0 0" fill="#b0da3c"/><path d="m134.433594 404.796875c-2.46875-3.359375-1.746094-8.082031 1.609375-10.550781l2.710937-1.992188 319.039063-216.757812c3.359375-2.28125 7.917969-1.496094 10.324219 1.773437 2.402343 3.273438 1.789062 7.859375-1.390626 10.382813l-302.132812 239.761718-2.710938 1.992188c-3.355468 2.46875-8.082031 1.746094-10.546874-1.613281zm0 0" fill="#f7b95f"/><path d="m140.894531 413.585938-6.460937-8.789063c-2.46875-3.359375-1.746094-8.082031 1.609375-10.550781l2.710937-1.992188 319.039063-216.757812c3.359375-2.28125 7.917969-1.496094 10.324219 1.773437 1.269531 1.726563 1.6875 3.820313 1.339843 5.78125-1.765625-.226562-3.617187.160157-5.203125 1.238281l-319.039062 216.757813-2.710938 1.988281c-3.355468 2.46875-4.078125 7.191406-1.609375 10.550782zm0 0" fill="#f7ad3b"/><path d="m123.929688 369.523438-51.75 64.625c-10.355469-10.683594-19.796876-22.261719-28.179688-34.617188l45.871094-57.28125zm14.824218 22.730468-62.542968 45.964844c10.675781 10.535156 22.277343 20.136719 34.664062 28.679688l53.71875-39.480469zm0 0" fill="#f45751"/><path d="m123.929688 369.523438-51.75 64.625c-7.730469-7.976563-14.957032-16.445313-21.605469-25.375l47.808593-59.707032zm21.285156 31.523437-60.953125 44.792969c8.382812 7.589844 17.277343 14.621094 26.613281 21.054687l53.71875-39.480469zm0 0" fill="#f56d59"/></svg>