<svg height="512pt" viewBox="0 0 512 512" width="512pt" xmlns="http://www.w3.org/2000/svg"><path d="m512 256c0 141.386719-114.613281 256-256 256s-256-114.613281-256-256 114.613281-256 256-256 256 114.613281 256 256zm0 0" fill="#6dcce4"/><path d="m471 140v70c0 33.136719-26.863281 60-60 60h-110c-7.597656 0-14.855469-1.425781-21.542969-4 .996094 4.339844 1.542969 8.851562 1.542969 13.496094v70c0 33.140625-26.863281 60-60 60h-110c-33.136719 0-60-26.859375-60-60v-70c0-33.136719 26.863281-60 60-60h110c7.597656 0 14.855469 1.425781 21.542969 4-.996094-4.339844-1.542969-8.851563-1.542969-13.496094v-70c0-33.136719 26.863281-60 60-60h110c33.136719 0 60 26.863281 60 60zm0 0" fill="#fbdfba"/><path d="m411 80h-70c-33.136719 0-60 26.863281-60 60v70c0 .589844.027344 1.167969.042969 1.753906h31.050781c4.917969 0 8.90625 3.984375 8.90625 8.90625v.9375c0 4.917969-3.988281 8.90625-8.90625 8.90625h-27.496094c8.378906 23.039063 30.464844 39.496094 56.402344 39.496094h70c33.136719 0 60-26.863281 60-60v-70c0-33.136719-26.863281-60-60-60zm-48.90625 120.503906h-22.1875c-4.917969 0-8.90625-3.988281-8.90625-8.90625v-.9375c0-4.921875 3.988281-8.90625 8.90625-8.90625h22.1875c4.917969 0 8.90625 3.984375 8.90625 8.90625v.9375c0 4.917969-3.988281 8.90625-8.90625 8.90625zm48.90625 31.09375c0 4.917969-3.988281 8.90625-8.90625 8.90625h-22.1875c-4.917969 0-8.90625-3.988281-8.90625-8.90625v-.9375c0-4.921875 3.988281-8.90625 8.90625-8.90625h22.1875c4.917969 0 8.90625 3.984375 8.90625 8.90625zm40-31.25c0 4.917969-3.988281 8.90625-8.90625 8.90625h-32.1875c-4.917969 0-8.90625-3.988281-8.90625-8.90625v-.9375c0-4.921875 3.988281-8.90625 8.90625-8.90625h32.1875c4.917969 0 8.90625 3.984375 8.90625 8.90625zm-230 19.148438h-70c-33.136719 0-60 26.863281-60 60v70c0 .589844.027344 1.167968.042969 1.753906h31.050781c4.917969 0 8.90625 3.988281 8.90625 8.90625v.9375c0 4.917969-3.988281 8.90625-8.90625 8.90625h-27.496094c8.378906 23.039062 30.46875 39.496094 56.402344 39.496094h70c33.136719 0 60-26.859375 60-60v-70c0-33.136719-26.863281-60-60-60zm-48.90625 120.503906h-22.1875c-4.917969 0-8.90625-3.988281-8.90625-8.90625v-.9375c0-4.917969 3.988281-8.90625 8.90625-8.90625h22.1875c4.917969 0 8.90625 3.988281 8.90625 8.90625v.9375c0 4.917969-3.988281 8.90625-8.90625 8.90625zm48.90625 31.09375c0 4.917969-3.988281 8.90625-8.90625 8.90625h-22.1875c-4.917969 0-8.90625-3.988281-8.90625-8.90625v-.9375c0-4.917969 3.988281-8.90625 8.90625-8.90625h22.1875c4.917969 0 8.90625 3.988281 8.90625 8.90625zm40-31.25c0 4.917969-3.988281 8.90625-8.90625 8.90625h-32.1875c-4.917969 0-8.90625-3.988281-8.90625-8.90625v-.9375c0-4.917969 3.988281-8.90625 8.90625-8.90625h32.1875c4.917969 0 8.90625 3.988281 8.90625 8.90625zm0 0" fill="#fff5f5"/><path d="m481 90v20c0 33.136719-26.863281 60-60 60h-110c-18.933594 0-35.808594-8.777344-46.804688-22.476562-5.5 6.703124-13.847656 10.976562-23.195312 10.976562h-15c-2.761719 0-5-2.238281-5-5v-28.5c0-10.4375 5.332031-19.625 13.417969-25-8.085938-5.375-13.417969-14.5625-13.417969-25v-28.5c0-2.761719 2.238281-5 5-5h15c9.347656 0 17.695312 4.277344 23.195312 10.976562 10.996094-13.699218 27.871094-22.476562 46.804688-22.476562h110c33.136719 0 60 26.863281 60 60zm-250 79.496094h-110c-18.933594 0-35.808594 8.777344-46.804688 22.476562-5.5-6.699218-13.847656-10.976562-23.195312-10.976562h-15c-2.761719 0-5 2.238281-5 5v28.5c0 10.4375 5.332031 19.625 13.417969 25-8.085938 5.375-13.417969 14.5625-13.417969 25v28.5c0 2.761718 2.238281 5 5 5h15c9.347656 0 17.695312-4.273438 23.195312-10.976563 10.996094 13.699219 27.871094 22.476563 46.804688 22.476563h110c33.136719 0 60-26.859375 60-60v-20c0-33.136719-26.863281-60-60-60zm0 0" fill="#f56d59"/><path d="m251 70.503906v-20c0-2.414062.160156-4.789062.4375-7.128906 5.023438 1.867188 9.417969 5.03125 12.757812 9.101562 10.996094-13.699218 27.871094-22.476562 46.804688-22.476562h110c29.816406 0 54.539062 21.753906 59.199219 50.253906-4.65625 28.496094-29.382813 50.25-59.199219 50.25h-110c-33.136719 0-60-26.863281-60-60zm-130 199.496094h110c29.816406 0 54.539062-21.753906 59.199219-50.25-4.65625-28.5-29.382813-50.253906-59.199219-50.253906h-110c-18.933594 0-35.808594 8.777344-46.804688 22.476562-3.339843-4.066406-7.734374-7.234375-12.757812-9.101562-.277344 2.339844-.4375 4.714844-.4375 7.128906v20c0 33.136719 26.863281 60 60 60zm0 0" fill="#f79085"/><path d="m317.890625 170h-6.890625c-3.96875 0-7.835938-.40625-11.589844-1.140625-24.535156-42.4375-24.535156-95.28125 0-137.71875 3.753906-.734375 7.621094-1.140625 11.589844-1.140625h6.890625c-29.195313 41.894531-29.195313 98.105469 0 140zm128.925781-134.171875c-21.085937 40.019531-21.085937 88.324219 0 128.34375 4.574219-2.183594 8.828125-4.933594 12.675782-8.152344-17.988282-35.042969-17.988282-76.996093 0-112.035156-3.847657-3.222656-8.101563-5.972656-12.675782-8.15625zm-78.925781-5.828125h-17.820313c-25.425781 43.007812-25.425781 96.992188 0 140h17.820313c-29.195313-41.894531-29.195313-98.105469 0-140zm50 0h-17.820313c-25.425781 43.007812-25.425781 96.992188 0 140h17.820313c-29.195313-41.894531-29.195313-98.105469 0-140zm-290 139.496094h-6.890625c-3.96875 0-7.835938.40625-11.589844 1.144531-24.535156 42.4375-24.535156 95.277344 0 137.714844 3.753906.734375 7.621094 1.140625 11.589844 1.140625h6.890625c-29.195313-41.894532-29.195313-98.101563 0-140zm128.925781 5.828125c-21.085937 40.019531-21.085937 88.328125 0 128.34375 4.574219-2.183594 8.828125-4.933594 12.675782-8.152344-17.988282-35.039063-17.988282-76.996094 0-112.035156-3.847657-3.21875-8.101563-5.96875-12.675782-8.15625zm-78.925781-5.828125h-17.820313c-25.425781 43.007812-25.425781 96.992187 0 140h17.820313c-29.195313-41.894532-29.195313-98.101563 0-140zm50 0h-17.820313c-25.425781 43.007812-25.425781 96.992187 0 140h17.820313c-29.195313-41.894532-29.195313-98.101563 0-140zm0 0" fill="#f45751"/><path d="m448.335938 123.910156c-4.457032 2.285156-9.234376 4.035156-14.25 5.152344-6.707032-31.246094-2.464844-64.394531 12.730468-93.234375 4.574219 2.1875 8.824219 4.941406 12.671875 8.160156-12.734375 24.8125-16.453125 53.085938-11.152343 79.921875zm-137.335938-93.910156c-3.96875 0-7.835938.40625-11.589844 1.140625-16.332031 28.25-21.796875 61.105469-16.386718 92.441406 5.117187 2.699219 10.667968 4.683594 16.523437 5.816407-8.246094-33.589844-2.132813-70.015626 18.34375-99.398438zm89.070312 0c-18.078124 30.582031-23.296874 66.714844-15.664062 100.503906h15.421875c-8.65625-33.894531-2.640625-70.796875 18.0625-100.503906zm-50 0c-18.078124 30.582031-23.296874 66.714844-15.664062 100.503906h15.421875c-8.65625-33.894531-2.640625-70.796875 18.0625-100.503906zm-93.253906 145.324219c-15.195312 28.84375-19.4375 61.988281-12.730468 93.234375 5.015624-1.117188 9.792968-2.863282 14.25-5.152344-5.300782-26.835938-1.582032-55.109375 11.152343-79.917969-3.847656-3.222656-8.097656-5.976562-12.671875-8.164062zm-135.816406-5.828125c-3.96875 0-7.835938.40625-11.589844 1.144531-16.332031 28.246094-21.796875 61.105469-16.386718 92.4375 5.117187 2.703125 10.667968 4.683594 16.523437 5.816406-8.246094-33.589843-2.132813-70.015625 18.34375-99.398437zm89.070312 0c-18.078124 30.582031-23.296874 66.714844-15.664062 100.503906h15.421875c-8.65625-33.894531-2.640625-70.796875 18.0625-100.503906zm-50 0c-18.078124 30.582031-23.296874 66.714844-15.664062 100.503906h15.421875c-8.65625-33.894531-2.640625-70.796875 18.0625-100.503906zm0 0" fill="#f56d59"/><path d="m357.335938 397.21875c.992187 1.394531 1.597656 3.214844 1.597656 5.210938v30.109374c0 4.398438-2.921875 7.964844-6.527344 7.964844h-2.90625l-333.355469-15.0625c-3.507812-.160156-6.285156-3.675781-6.285156-7.957031 0-2.234375.761719-4.253906 1.984375-5.703125-.714844-1.171875-1.179688-2.589844-1.273438-4.148438-.265624-4.269531 2.289063-8.03125 5.777344-8.511718l331.476563-45.625 2.898437-.265625c3.59375-.332031 6.730469 2.957031 7 7.339843l1.859375 30.027344c.160157 2.617188-.738281 5.027344-2.246093 6.621094zm0 0" fill="#f7b95f"/><path d="m358.933594 421.03125v11.507812c0 4.398438-2.921875 7.964844-6.527344 7.964844h-2.910156l-333.351563-15.0625c-3.507812-.160156-6.285156-3.675781-6.285156-7.957031 0-2.234375.761719-4.25 1.984375-5.699219-.714844-1.171875-1.179688-2.59375-1.273438-4.152344-.140624-2.253906.511719-4.359374 1.664063-5.921874 1.191406 1.191406 2.726563 1.882812 4.382813 1.804687l333.335937-15.585937 2.898437-.269532c3.59375-.332031 6.289063-4.152344 6.019532-8.539062l.707031 11.480468c.273437 4.382813-2.421875 8.207032-6.015625 8.539063l-2.898438.265625-322.394531 15.074219 321.230469 14.511719h2.90625c3.605469 0 6.527344-3.5625 6.527344-7.960938zm0 0" fill="#f49f1f"/><path d="m475.425781 387.917969-71.105469 6.546875h67.03125c-10.824218 16.796875-23.5625 32.246094-37.898437 46.039062h-83.957031l1.34375-41.113281-.175782.015625-2.839843-45.90625 150.171875-13.828125c-5.859375 16.960937-13.453125 33.113281-22.570313 48.246094zm0 0" fill="#c0293e"/><path d="m404.320312 394.464844h67.03125c-7.90625 12.269531-16.835937 23.816406-26.660156 34.527344h-94.816406l.964844-29.601563zm-56.496093-40.96875 2.128906 34.433594 132.351563-12.1875c6.113281-11.527344 11.375-23.578126 15.691406-36.070313zm0 0" fill="#ec3c52"/></svg>