<svg height="512pt" viewBox="0 0 512 512.00055" width="512pt" xmlns="http://www.w3.org/2000/svg"><path d="m512 256c0 141.148438-115.386719 256.289062-256.539062 256-34.488282-.070312-67.367188-6.976562-97.375-19.414062-2.589844-1.070313-4.734376-3.011719-5.964844-5.527344-25.996094-53.050782-69.796875-95.78125-123.621094-120.40625-2.871094-1.3125-5.132812-3.652344-6.417969-6.535156-14.023437-31.445313-21.898437-66.230469-22.07812475-102.84375-.69140625-141.40625 114.54296875-257.2500005 255.94921875-257.273438s256.046875 114.601562 256.046875 256zm0 0" fill="#347d91"/><path d="m161.601562 494.027344c-33.328124-13.230469-63.214843-33.265625-87.960937-58.378906-47.589844-97.324219-28.320313-221.320313 56.183594-305.824219 84.507812-84.503907 208.5-103.773438 305.824219-56.183594 25.117187 24.746094 45.148437 54.628906 58.378906 87.960937zm0 0" fill="#f7ad3b"/><path d="m100 265c0 24.851562-20.148438 45-45 45s-45-20.148438-45-45 20.148438-45 45-45 45 20.148438 45 45zm165-225c-24.851562 0-45 20.148438-45 45s20.148438 45 45 45 45-20.148438 45-45-20.148438-45-45-45zm0 0" fill="#e27196"/><path d="m512 115c0 19.328125-15.667969 35-35 35-6.605469 0-12.785156-1.832031-18.058594-5.015625-6.984375 3.210937-14.75 5.015625-22.941406 5.015625-30.375 0-55-24.625-55-55s24.625-55 55-55c26.007812 0 47.78125 18.054688 53.511719 42.3125 13.148437 5.035156 22.488281 17.765625 22.488281 32.6875zm-402.21875 285.28125c6.40625-8.402344 10.21875-18.894531 10.21875-30.28125 0-19.234375-10.867188-35.921875-26.792969-44.285156 4.269531-5.800782 6.792969-12.960938 6.792969-20.714844 0-19.328125-15.667969-35-35-35-19.328125 0-35 15.671875-35 35 0 9.683594 3.933594 18.449219 10.292969 24.785156-9.34375 6.914063-16.183594 17.007813-18.941407 28.675782 16.273438 39.164062 48.773438 81.289062 86.242188 106.132812 12.863281-5.171875 12.40625-24.878906 12.40625-39.59375 0-9.648438-3.90625-18.386719-10.21875-24.71875zm135.21875-320.28125c-11.292969 0-21.328125 5.351562-27.726562 13.652344-8.179688-8.414063-19.609376-13.652344-32.273438-13.652344-24.851562 0-45 20.148438-45 45 0 6.015625 1.191406 11.753906 3.332031 17-13.589843 4.804688-23.332031 17.761719-23.332031 33 0 19.328125 15.671875 35 35 35 19.332031 0 35-15.671875 35-35 0-1.777344-.132812-3.527344-.390625-5.234375 16-1.625 29.511719-11.636719 36.09375-25.566406 5.535156 3.660156 12.164063 5.800781 19.296875 5.800781 19.332031 0 35-15.671875 35-35s-15.667969-35-35-35zm0 0" fill="#54cc87"/><path d="m451.960938 147.617188c-5.054688 1.535156-10.40625 2.382812-15.960938 2.382812-30.375 0-55-24.625-55-55s24.625-55 55-55c5.566406 0 10.9375.832031 16 2.371094-22.570312 6.855468-39 27.820312-39 52.628906 0 24.796875 16.410156 45.75 38.960938 52.617188zm-396.921876 194.789062c.0625-.097656.128907-.195312.195313-.292969 5.070313-7.539062 6.457031-16.96875 3.453125-25.546875-1.265625-3.621094-1.957031-7.511718-1.957031-11.566406 0-14.59375 8.9375-27.097656 21.636719-32.351562-4.828126-1.996094-10.195313-2.949219-15.828126-2.5625-17.375 1.195312-31.402343 15.324218-32.46875 32.707031-.648437 10.554687 3.386719 20.179687 10.222657 26.992187-9.34375 6.914063-16.183594 17.007813-18.941407 28.679688 16.273438 39.160156 48.773438 81.285156 86.242188 106.132812 5.296875-2.132812 8.332031-6.730468 10.074219-12.425781-26.742188-22.1875-49.746094-52.34375-64.269531-81.972656-4.363282-8.898438-3.835938-19.53125 1.640624-27.792969zm127.125-262.316406c-22.375 1.394531-40.550781 19.453125-42.058593 41.820312-.480469 7.144532.722656 13.953125 3.226562 20.089844-14.351562 5.074219-24.414062 19.242188-23.238281 35.585938 1.226562 17.09375 15 30.960937 32.085938 32.304687 6.40625.503906 12.484374-.726563 17.820312-3.261719-11.824219-5.617187-20-17.667968-20-31.628906 0-11.765625 5.808594-22.171875 14.710938-28.515625 4.574218-3.257813 6.726562-8.863281 5.84375-14.410156-.363282-2.304688-.554688-4.667969-.554688-7.074219 0-19.589844 12.519531-36.242188 29.988281-42.425781-5.527343-1.957031-11.539062-2.878907-17.824219-2.484375zm0 0" fill="#23c77d"/><path d="m179.84375 245.34375c2.574219 38.574219-26.613281 71.929688-65.1875 74.5-38.574219 2.574219-71.929688-26.613281-74.5-65.1875-2.574219-38.574219 26.613281-71.929688 65.1875-74.5 38.574219-2.574219 71.929688 26.613281 74.5 65.1875zm210-159.996094c-2.574219-38.574218-35.929688-67.761718-74.503906-65.191406-38.574219 2.574219-67.757813 35.929688-65.1875 74.5 2.570312 38.574219 35.925781 67.761719 74.5 65.191406 38.574218-2.570312 67.761718-35.925781 65.191406-74.5zm0 0" fill="#ec3c52"/><path d="m329.921875 159.277344c-1.738281.246094-3.488281.453125-5.269531.570312-38.574219 2.570313-71.929688-26.613281-74.5-65.191406-2.570313-38.570312 26.613281-71.929688 65.1875-74.5 5.019531-.335938 9.949218-.121094 14.734375.570312-35.925781 5.113282-62.375 37.136719-59.921875 73.929688 2.238281 33.558594 27.773437 59.996094 59.769531 64.621094zm-209.84375 21.449218c-4.789063-.691406-9.714844-.90625-14.734375-.570312-38.574219 2.570312-67.757812 35.925781-65.1875 74.5s35.925781 67.757812 74.5 65.1875c1.777344-.117188 3.53125-.324219 5.269531-.570312-32-4.621094-57.535156-31.0625-59.769531-64.617188-2.453125-36.796875 23.996094-68.820312 59.921875-73.929688zm0 0" fill="#d73247"/><path d="m164.878906 246.339844c2.019532 30.308594-20.910156 56.515625-51.21875 58.539062-30.308594 2.019532-56.519531-20.910156-58.539062-51.222656-2.019532-30.304688 20.910156-56.515625 51.21875-58.535156 30.308594-2.019532 56.519531 20.910156 58.539062 51.21875zm209.996094-159.996094c-2.019531-30.308594-28.226562-53.238281-58.535156-51.21875s-53.242188 28.226562-51.21875 58.535156c2.019531 30.308594 28.226562 53.242188 58.535156 51.222656 30.308594-2.023437 53.238281-28.230468 51.21875-58.539062zm0 0" fill="#f77b68"/><path d="m119.136719 276.21875c2.339843 3.269531 2.121093 7.722656-.527344 10.75-3.152344 3.605469-8.628906 3.96875-12.234375.816406-3.027344-2.648437-3.835938-7.03125-1.949219-10.585937l6.226563-11.75c.15625-.289063.5625-.316407.753906-.050781zm-9.789063-41.667969 6.230469-11.75c1.882813-3.554687 1.078125-7.9375-1.953125-10.585937-3.601562-3.152344-9.082031-2.789063-12.234375.816406-2.648437 3.027344-2.867187 7.480469-.527344 10.75l7.734375 10.820312c.191406.265626.597656.238282.75-.050781zm27.925782 20.644531-13.234376 1.289063c-.328124.03125-.507812.398437-.332031.675781l7.058594 11.269532c2.136719 3.40625 6.335937 4.898437 10.144531 3.601562 4.535156-1.542969 6.957032-6.46875 5.414063-11.003906-1.300781-3.804688-5.046875-6.222656-9.050781-5.832032zm-54.546876-10.390624 13.234376-1.289063c.328124-.03125.507812-.398437.332031-.675781l-7.058594-11.269532c-2.136719-3.40625-6.335937-4.898437-10.144531-3.601562-4.535156 1.542969-6.957032 6.46875-5.410156 11.003906 1.296874 3.804688 5.042968 6.222656 9.046874 5.832032zm61.808594-10.558594c.929688-4.695313-2.125-9.257813-6.824218-10.1875-3.945313-.78125-7.910157 1.257812-9.574219 4.917968l-5.5 12.105469c-.136719.300781.089843.640625.417969.628907l13.289062-.480469c4.019531-.144531 7.410156-3.035157 8.191406-6.984375zm-47.589844 24.042968-13.285156.480469c-4.023437.144531-7.414062 3.039063-8.195312 6.984375-.929688 4.695313 2.125 9.257813 6.824218 10.1875 3.949219.78125 7.914063-1.257812 9.578126-4.917968l5.5-12.105469c.136718-.300781-.09375-.640625-.421876-.628907zm224.457032-152.886718c-.191406-.265625-.597656-.242188-.753906.050781l-6.226563 11.746094c-1.886719 3.554687-1.078125 7.941406 1.949219 10.589843 3.605468 3.152344 9.082031 2.785157 12.234375-.816406 2.648437-3.027344 2.867187-7.480468.527343-10.753906zm-2.054688-30.851563 6.226563-11.746093c1.886719-3.554688 1.078125-7.9375-1.949219-10.585938-3.605469-3.15625-9.082031-2.789062-12.234375.8125-2.648437 3.03125-2.871094 7.480469-.527344 10.753906l7.730469 10.816406c.191406.269532.597656.242188.753906-.050781zm36.972656 26.480469c-1.296874-3.808594-5.046874-6.222656-9.050781-5.835938l-13.230469 1.289063c-.328124.03125-.507812.398437-.335937.675781l7.0625 11.269532c2.132813 3.410156 6.335937 4.902343 10.144531 3.605468 4.53125-1.542968 6.953125-6.472656 5.410156-11.003906zm-63.597656-16.222656 13.234375-1.289063c.328125-.03125.507813-.398437.335938-.675781l-7.0625-11.269531c-2.136719-3.410157-6.335938-4.898438-10.144531-3.601563-4.53125 1.542969-6.953126 6.46875-5.410157 11.003906 1.296875 3.804688 5.042969 6.222657 9.046875 5.832032zm61.8125-10.558594c.925782-4.699219-2.128906-9.257812-6.824218-10.1875-3.949219-.78125-7.914063 1.253906-9.578126 4.917969l-5.5 12.105469c-.136718.300781.089844.640624.417969.628906l13.289063-.480469c4.019531-.144531 7.414062-3.039063 8.195312-6.984375zm-47.59375 24.042969-13.285156.480469c-4.019531.144531-7.414062 3.035156-8.195312 6.980468-.925782 4.699219 2.128906 9.261719 6.824218 10.1875 3.949219.78125 7.914063-1.253906 9.578125-4.917968l5.5-12.105469c.136719-.300781-.089843-.636719-.421875-.625zm0 0" fill="#f9a29b"/><path d="m508.800781 146.828125-347.199219 347.199219c-20.195312-8.015625-39.125-18.542969-56.417968-31.171875-30.707032-69.09375-28.683594-150.351563 5.480468-221.101563 13.308594-27.566406 31.480469-53.539062 54.515626-76.574218 95.691406-95.691407 242.03125-107.753907 342.929687-33.777344 4.90625 3.601562 5.210937 10.90625.691406 15.425781zm0 0" fill="#f7d674"/><path d="m250 150c0 11.046875-8.953125 20-20 20-8.207031 0-15.25-4.945312-18.332031-12.015625-2.527344 2.347656-5.027344 4.738281-7.488281 7.195313-22.703126 22.703124-40.691407 48.253906-53.945313 75.375 11.292969 2.40625 19.765625 12.433593 19.765625 24.445312 0 13.808594-11.191406 25-25 25-4.503906 0-8.730469-1.199219-12.378906-3.285156-19.742188 70.152344-10.585938 145.519531 27.957031 206.894531-19.8125-7.964844-38.398437-18.339844-55.398437-30.753906-42.667969-96.015625-22.160157-215.511719 60-297.675781 59.382812-59.382813 138.265624-86.546876 213.691406-80.945313-47.875 3.546875-95.550782 20.097656-137.289063 49.476563 5.085938 3.628906 8.417969 9.5625 8.417969 16.289062zm140-20c-11.046875 0-20 8.953125-20 20s8.953125 20 20 20 20-8.953125 20-20-8.953125-20-20-20zm-70 100c-11.046875 0-20 8.953125-20 20s8.953125 20 20 20 20-8.953125 20-20-8.953125-20-20-20zm-150 150c-11.046875 0-20 8.953125-20 20s8.953125 20 20 20 20-8.953125 20-20-8.953125-20-20-20zm0 0" fill="#f7c32a"/></svg>