<svg height="512pt" viewBox="0 0 512 512" width="512pt" xmlns="http://www.w3.org/2000/svg"><path d="m3.640625 299.234375c-2.390625-14.039063-3.63671875-28.472656-3.640625-43.195313-.0234375-142.226562 114.683594-256.53125 256.910156-256.039062 140.964844.492188 255.089844 114.917969 255.089844 256 0 14.734375-1.246094 29.179688-3.640625 43.238281-1.464844 8.617188-8.972656 14.898438-17.710937 14.898438h-469.292969c-8.742188 0-16.25-6.28125-17.714844-14.902344zm0 0" fill="#f7ad3b"/><path d="m310 50c0 5.523438 4.476562 10 10 10h15c8.285156 0 15 6.714844 15 15s-6.714844 15-15 15h-130c-8.285156 0-15-6.714844-15-15s6.714844-15 15-15h75c5.523438 0 10-4.476562 10-10s-4.476562-10-10-10h-35c-8.285156 0-15-6.714844-15-15s6.714844-15 15-15h82.054688c23.726562 6.839844 46.042968 17.019531 66.398437 30h-73.453125c-5.523438 0-10 4.476562-10 10zm0 0" fill="#f7d674"/><path d="m508.632812 297.519531c-19.84375 121.636719-125.386718 214.480469-252.632812 214.480469s-232.789062-92.84375-252.632812-214.480469zm0 0" fill="#ab2a3e"/><path d="m3.367188 297.519531h476.632812l-228.269531 214.425781c-14.679688-.238281-29.0625-1.714843-43.042969-4.328124l-200.886719-188.707032c-1.777343-7.019531-3.25-14.15625-4.433593-21.390625zm0 0" fill="#ec3c52"/><path d="m439.78125 106.5c6.277344 0 11.429688 5.058594 11.433594 11.335938v.113281c0 101.1875-82.027344 183.214843-183.214844 183.214843s-183.214844-82.027343-183.214844-183.214843c0-.035157 0-.074219 0-.113281.003906-6.277344 5.15625-11.335938 11.433594-11.335938zm0 0" fill="#afdbe1"/><path d="m457 121.164062h-5.820312c.019531-1.070312.035156-2.136718.035156-3.210937 0-.039063 0-.078125 0-.117187-.003906-6.273438-5.15625-11.335938-11.433594-11.335938h-317.195312c20.730468 81.351562 101.535156 142.023438 198.054687 142.023438 30.890625 0 60.15625-6.238282 86.371094-17.359376h49.988281c30.375 0 55-24.621093 55-55 0-30.375-24.625-55-55-55zm0 80h-25.738281c7.925781-15.515624 13.703125-32.3125 16.941406-50h8.796875c13.808594 0 25 11.195313 25 25 0 13.808594-11.191406 25-25 25zm0 0" fill="#e1eff4"/><path d="m345.402344 259.902344c-28.3125 28.3125-65.925782 37.679687-88.992188 23.6875-13.992187-23.066406-4.628906-60.679688 23.6875-88.992188 28.3125-28.3125 65.921875-37.679687 88.988282-23.683594 13.996093 23.066407 4.628906 60.675782-23.683594 88.988282zm0 0" fill="#54cc87"/><path d="m263.882812 254.78125 53.476563-32.140625-32.140625 53.476563c-5.921875 9.847656-18.769531 13.488281-28.625 7.582031-.0625-.039063-.121094-.074219-.183594-.109375l-.105468-.179688c-5.910157-9.863281-2.273438-22.707031 7.578124-28.628906zm0 0" fill="#03ad6b"/><path d="m389 331.164062h-242c-30.375 0-55-24.625-55-55 0-2.761718 2.238281-5 5-5h342c2.761719 0 5 2.238282 5 5 0 30.375-24.625 55-55 55zm0 0" fill="#afdbe1"/><path d="m444 276.164062c0 3.554688-.351562 7.023438-.992188 10.390626-9.652343 8.367187-22.234374 13.445312-36.007812 13.445312h-242c-20.902344 0-39.082031-11.664062-48.386719-28.835938h322.386719c2.761719 0 5 2.238282 5 5zm0 0" fill="#e1eff4"/><path d="m340 435.625v6.746094c0 6.097656-5.730469 10.574218-11.648438 9.09375l-21.632812-5.410156c-27.707031-6.925782-56.160156-10.425782-84.71875-10.425782h-63.996094c-28.5625 0-57.015625 3.5-84.722656 10.425782l-21.632812 5.410156c-5.917969 1.480468-11.648438-2.996094-11.648438-9.097656v-6.742188c0-20.925781 8.578125-39.84375 22.402344-53.449219l8.664062-27.234375c7.382813-23.21875 28.945313-38.988281 53.308594-38.988281 3.84375 0 7.613281.394531 11.273438 1.144531 12.613281-16.71875 32.554687-27.097656 54.351562-27.097656s41.738281 10.378906 54.347656 27.097656c3.660156-.75 7.433594-1.144531 11.277344-1.144531 24.363281 0 45.925781 15.769531 53.308594 38.988281l8.660156 27.234375c13.828125 13.605469 22.40625 32.523438 22.40625 53.449219zm0 0" fill="#f49f1f"/><path d="m339.460938 426.757812c-1.554688 4.390626-6.269532 7.167969-11.109376 5.957032l-4.257812-1.066406c-7.183594-1.792969-12.21875-8.246094-12.21875-15.648438v-11.128906c0-5.175782-4.199219-9.375-9.375-9.375-5.179688 0-9.375 4.199218-9.375 9.375v.046875c0 9.917969-8.855469 17.417969-18.660156 15.929687-.140625-.019531-.28125-.042968-.421875-.0625-13.253907-1.996094-23.105469-13.292968-23.105469-26.695312v-54.839844c0-5.179688-4.199219-9.375-9.375-9.375-5.179688 0-9.375 4.195312-9.375 9.375v36.125c0 22.964844-18.617188 41.578125-41.582031 41.578125-.40625 0-.808594 0-1.214844 0-22.964844 0-41.578125-18.613281-41.578125-41.578125v-36.125c0-5.179688-4.199219-9.375-9.375-9.375-5.179688 0-9.375 4.195312-9.375 9.375v54.839844c0 13.402344-9.851562 24.699218-23.109375 26.695312-.140625.019532-.277344.042969-.421875.0625-9.804688 1.492188-18.660156-6.011718-18.660156-15.929687v-.046875c0-5.175782-4.195313-9.375-9.375-9.375-5.175782 0-9.375 4.199218-9.375 9.375v6.738281c0 9.980469-6.792969 18.683594-16.472656 21.101563-4.84375 1.210937-9.554688-1.566407-11.109376-5.957032 2.050782-17.371094 10.023438-32.925781 21.863282-44.578125l8.660156-27.234375c7.382812-23.222656 28.945312-38.988281 53.308594-38.988281 3.84375 0 7.617187.394531 11.277344 1.144531 12.613281-16.71875 32.554687-27.097656 54.351562-27.097656s41.738281 10.378906 54.347656 27.097656c3.660156-.75 7.433594-1.144531 11.277344-1.144531 24.363281 0 45.925781 15.769531 53.308594 38.988281l8.660156 27.234375c11.84375 11.652344 19.816406 27.207031 21.867188 44.582031zm0 0" fill="#f7b95f"/></svg>