<svg height="512pt" viewBox="0 0 512 512" width="512pt" xmlns="http://www.w3.org/2000/svg"><path d="m512 256c0 141.386719-114.613281 256-256 256s-256-114.613281-256-256 114.613281-256 256-256 256 114.613281 256 256zm0 0" fill="#f7c32a"/><path d="m470 216.546875c0 90.273437-87.304688 163.453125-195 163.453125s-195-73.179688-195-163.453125c0-33.664063 12.144531-64.941406 32.960938-90.9375 30.253906-37.777344 79.660156-54.894531 128.179687-47.742187 10.996094 1.621093 22.308594 2.46875 33.859375 2.46875s22.863281-.847657 33.859375-2.46875c48.519531-7.152344 97.925781 9.964843 128.179687 47.742187 20.816407 25.992187 32.960938 57.273437 32.960938 90.9375zm0 0" fill="#c0293e"/><path d="m309.839844 377.347656c-98.953125-14.652344-174.125-86.75-174.125-173.5625 0-36.320312 13.15625-70.0625 35.707031-98.109375 1.335937-1.65625 2.703125-3.28125 4.105469-4.863281 15.554687-17.570312 40.542968-26.574219 65.226562-23 .128906.015625.257813.035156.386719.054688 10.996094 1.621093 22.308594 2.46875 33.859375 2.46875s22.863281-.847657 33.859375-2.46875c48.519531-7.152344 97.925781 9.964843 128.179687 47.742187 20.816407 25.992187 32.960938 57.273437 32.960938 90.9375 0 80.296875-69.097656 147.023437-160.160156 160.800781zm0 0" fill="#d73247"/><path d="m326.878906 60.929688c-2.554687 23.285156-23.007812 40.5-46.433594 40.5h-10.894531c-23.421875 0-43.875-17.214844-46.429687-40.5-.375-3.382813-.34375-6.566407.109375-9.484376 9.164062-1.417968 20.9375 1.335938 33.460937 7.566407 4.449219-13.257813 10.828125-23.535157 18.308594-29.011719 7.484375 5.476562 13.859375 15.753906 18.308594 29.011719 12.519531-6.230469 24.296875-8.984375 33.460937-7.566407.453125 2.917969.480469 6.097657.109375 9.484376zm0 0" fill="#03ad6b"/><path d="m394.589844 125.855469c19.667968 24.511719 21.566406 52.472656 7.617187 58.214843-11.144531 4.585938-31.242187-8.972656-47.410156-26.378906-16.601563-17.867187-29.058594-39.789062-23.421875-50.285156 7.292969-13.589844 41.144531-9.0625 63.214844 18.449219zm0 0" fill="#ec3c52"/><path d="m314.933594 320c3.691406 0 6.652344 3.691406 6.382812 8.050781-6.101562 98.664063-75.6875 176.476563-160.648437 176.476563-84.960938 0-154.550781-77.808594-160.652344-176.476563-.269531-4.359375 2.691406-8.050781 6.382813-8.050781zm0 0" fill="#f45751"/><path d="m189.257812 501.523438c-9.28125 1.964843-18.832031 3.003906-28.59375 3.003906-84.957031 0-154.546874-77.808594-160.648437-176.476563-.269531-4.359375 2.691406-8.050781 6.382813-8.050781h33.585937c10.996094 92.484375 71.785156 166.054688 149.273437 181.523438zm0 0" fill="#ec3c52"/><path d="m321.316406 326.375c-6.101562 78.160156-75.6875 139.796875-160.648437 139.796875-84.960938 0-154.550781-61.636719-160.6484378-139.796875-.2734372-3.449219 2.6874998-6.375 6.3789068-6.375h93.460937c-27.898437 0-44.480469 31.550781-28.28125 54.261719 22.316406 31.28125 53.972656 50.8125 89.085937 50.8125 35.117188 0 66.773438-19.53125 89.089844-50.8125 16.199219-22.710938-.382812-54.261719-28.28125-54.261719h93.460938c3.691406 0 6.652344 2.925781 6.382812 6.375zm0 0" fill="#f77b68"/><path d="m170.679688 378.769531c0 9.160157-4.285157 16.8125-10.015626 18.710938-5.726562-1.898438-10.011718-9.550781-10.011718-18.710938 0-9.164062 4.285156-16.816406 10.011718-18.714843 5.730469 1.898437 10.015626 9.550781 10.015626 18.714843zm45.988281-27.171875c-6.480469-6.480468-14.921875-8.859375-20.3125-6.152344-2.707031 5.394532-.332031 13.835938 6.148437 20.316407 6.480469 6.476562 14.921875 8.855469 20.316406 6.148437 2.703126-5.390625.328126-13.835937-6.152343-20.3125zm-112.003907 0c-6.480468 6.476563-8.855468 14.921875-6.152343 20.3125 5.394531 2.707032 13.835937.328125 20.316406-6.148437 6.476563-6.480469 8.855469-14.921875 6.148437-20.316407-5.390624-2.707031-13.832031-.328124-20.3125 6.152344zm0 0" fill="#f9a29b"/></svg>