<svg height="512pt" viewBox="0 0 512 512" width="512pt" xmlns="http://www.w3.org/2000/svg"><path d="m36.046875 387.03125c-22.882813-38.335938-36.046875-83.140625-36.046875-131.03125 0-141.386719 114.613281-256 256-256s256 114.613281 256 256c0 47.890625-13.164062 92.695312-36.046875 131.03125zm0 0" fill="#db5886"/><path d="m485.257812 370c-41.933593 84.167969-128.835937 142-229.257812 142s-187.324219-57.832031-229.257812-142zm0 0" fill="#ec9fb8"/><path d="m246.390625 88.570312c.789063-13.414062 6.980469-24.535156 15.335937-28.570312 8.359376 4.035156 14.550782 15.15625 15.339844 28.570312 5.507813-2.625 11.125-3.289062 15.566406-1.742187 2.484376 7.128906-.730468 17.292969-8.617187 25.183594-5.574219 5.570312-12.277344 8.800781-18.246094 9.34375-.503906.046875-8.617187-.027344-9.660156-.203125-1.945313-.324219-3.945313-.917969-5.945313-1.769532-3.710937-1.585937-7.414062-4.066406-10.722656-7.371093-7.890625-7.890625-11.101562-18.054688-8.617187-25.183594 4.441406-1.546875 10.054687-.882813 15.566406 1.742187zm0 0" fill="#8cd246"/><path d="m347.527344 151.183594c0 29.039062-23.542969 52.578125-52.578125 52.578125-15.441407 0-29.328125-6.65625-38.949219-17.257813-9.617188 10.601563-23.507812 17.257813-38.949219 17.257813-29.039062 0-52.578125-23.539063-52.578125-52.578125 0-29.039063 23.542969-52.582032 52.578125-52.582032 15.441407 0 29.328125 6.660157 38.949219 17.257813 9.617188-10.597656 23.507812-17.257813 38.949219-17.257813 29.035156 0 52.578125 23.542969 52.578125 52.582032zm0 0" fill="#c3e171"/><path d="m230.023438 202.132812c-4.152344 1.050782-8.492188 1.628907-12.972657 1.628907-29.039062 0-52.578125-23.539063-52.578125-52.578125 0-29.039063 23.542969-52.582032 52.578125-52.582032 4.480469 0 8.820313.578126 12.972657 1.632813-22.738282 5.796875-39.550782 26.40625-39.550782 50.949219 0 24.539062 16.8125 45.152344 39.550782 50.949218zm0 0" fill="#b0da3c"/><path d="m240.59375 147.5c0 14.503906-11.757812 26.261719-26.261719 26.261719-14.503906 0-26.261719-11.757813-26.261719-26.261719s11.757813-26.261719 26.261719-26.261719c14.503907 0 26.261719 11.757813 26.261719 26.261719zm0 0" fill="#23c77d"/><path d="m406.472656 196.902344c0 33.492187-27.148437 60.640625-60.636718 60.640625-17.808594 0-33.824219-7.679688-44.917969-19.902344-11.09375 12.222656-27.109375 19.902344-44.917969 19.902344s-33.824219-7.679688-44.917969-19.902344c-11.09375 12.222656-27.109375 19.902344-44.917969 19.902344-33.492187 0-60.640624-27.148438-60.640624-60.640625 0-33.492188 27.148437-60.636719 60.640624-60.636719 17.808594 0 33.824219 7.675781 44.917969 19.902344 11.09375-12.226563 27.109375-19.902344 44.917969-19.902344s33.824219 7.675781 44.917969 19.902344c11.09375-12.226563 27.109375-19.902344 44.917969-19.902344 33.488281 0 60.636718 27.148437 60.636718 60.636719zm0 0" fill="#c3e171"/><path d="m179.585938 256.039062c-4.320313.976563-8.808594 1.503907-13.421876 1.503907-33.488281 0-60.640624-27.148438-60.640624-60.640625 0-33.492188 27.152343-60.636719 60.640624-60.636719 4.613282 0 9.101563.523437 13.421876 1.5-27.046876 6.097656-47.253907 30.25-47.253907 59.136719 0 28.886718 20.207031 53.039062 47.253907 59.136718zm0 0" fill="#b0da3c"/><path d="m162.332031 186.503906c7.222657 12.507813 7.835938 26.289063 2.339844 34.367188-9.746094.722656-21.375-6.699219-28.597656-19.207032-7.222657-12.507812-7.835938-26.292968-2.339844-34.371093 9.746094-.71875 21.375 6.703125 28.597656 19.210937zm201.359375-23.179687c-9.667968-3.371094-23.449218.988281-34.148437 11.6875-.230469.230469-.441407.46875-.664063.703125-1.835937-7.417969-5.890625-13.253906-10.984375-15.714844-7 3.378906-12.0625 13.117188-12.0625 24.605469 0 10.683593 4.375 19.851562 10.613281 23.804687.472657.296875 2.722657 1.160156 3.355469 1.308594 9.511719 2.214844 22.203125-2.242188 32.203125-12.242188 10.699219-10.703124 15.058594-24.484374 11.6875-34.152343zm0 0" fill="#03ad6b"/><path d="m459.523438 253.5c0 34.882812-28.28125 63.160156-63.164063 63.160156-18.550781 0-35.230469-7.996094-46.785156-20.730468-11.554688 12.734374-28.238281 20.730468-46.789063 20.730468-18.550781 0-35.230468-7.996094-46.785156-20.730468-11.554688 12.734374-28.238281 20.730468-46.789062 20.730468-18.550782 0-35.230469-7.996094-46.785157-20.730468-11.554687 12.734374-28.238281 20.730468-46.789062 20.730468-34.882813 0-63.160157-28.277344-63.160157-63.160156s28.277344-63.160156 63.160157-63.160156c18.550781 0 35.230469 7.996094 46.789062 20.730468 11.554688-12.734374 28.234375-20.730468 46.785157-20.730468 18.550781 0 35.230468 7.996094 46.789062 20.730468 11.554688-12.734374 28.234375-20.730468 46.785156-20.730468 18.550782 0 35.230469 7.996094 46.789063 20.730468 11.554687-12.734374 28.234375-20.730468 46.785156-20.730468 34.882813 0 63.164063 28.277344 63.164063 63.160156zm0 0" fill="#c3e171"/><path d="m132.332031 314.429688c-5.316406 1.457031-10.914062 2.230468-16.691406 2.230468-34.882813 0-63.164063-28.277344-63.164063-63.160156s28.28125-63.160156 63.164063-63.160156c5.777344 0 11.375.773437 16.691406 2.230468-26.804687 7.304688-46.519531 31.808594-46.519531 60.929688s19.714844 53.625 46.519531 60.929688zm0 0" fill="#b0da3c"/><path d="m253.722656 181.28125c0 7.253906-5.878906 13.132812-13.128906 13.132812s-13.128906-5.878906-13.128906-13.132812c0-7.25 5.878906-13.128906 13.128906-13.128906s13.128906 5.878906 13.128906 13.128906zm32.828125 32.828125c-7.253906 0-13.128906 5.878906-13.128906 13.128906 0 7.253907 5.878906 13.128907 13.128906 13.128907s13.128907-5.875 13.128907-13.128907c0-7.25-5.878907-13.128906-13.128907-13.128906zm0 0" fill="#75c24b"/><path d="m485.78125 243.804688v19.390624c0 5.523438-4.476562 10-10 10h-5.367188c-24.738281 67.382813-69.703124 121.03125-125.328124 149.144532-10.996094 5.554687-23.152344 8.421875-35.472657 8.421875h-107.226562c-12.320313 0-24.476563-2.867188-35.472657-8.421875-55.625-28.113282-100.589843-81.761719-125.328124-149.144532h-5.367188c-5.523438 0-10-4.476562-10-10v-19.390624c0-5.523438 4.476562-10 10-10h439.5625c5.523438 0 10 4.476562 10 10zm0 0" fill="#f8df92"/><path d="m485.78125 243.804688v19.390624c0 5.523438-4.476562 10-10 10h-5.367188c-24.738281 67.382813-69.703124 121.03125-125.328124 149.144532-10.996094 5.554687-23.152344 8.421875-35.472657 8.421875h-73.007812c-12.320313 0-24.476563-2.867188-35.472657-8.421875-41.03125-20.738282-76.257812-55.375-101.847656-99.167969-7.8125-13.367187 1.742188-30.171875 17.226563-30.171875h303.488281c5.742188 0 10.355469-4.84375 9.976562-10.667969-.34375-5.3125-4.992187-9.332031-10.320312-9.332031h-349.65625c-.375 0-.742188.023438-1.105469.0625-4.789062-.742188-8.460937-4.871094-8.460937-9.867188v-19.390624c0-5.523438 4.476562-10 10-10h405.347656c5.523438 0 10 4.476562 10 10zm0 0" fill="#fae8b1"/><path d="m121.78125 373.695312c29.714844 29.714844 39.546875 69.191407 24.859375 93.402344-24.210937 14.6875-63.691406 4.855469-93.40625-24.859375-29.714844-29.714843-39.546875-69.191406-24.859375-93.402343 24.210938-14.691407 63.6875-4.859376 93.40625 24.859374zm0 0" fill="#23c77d"/><path d="m228.410156 442.238281c-29.714844 29.71875-69.191406 39.546875-93.402344 24.859375-14.6875-24.210937-4.859374-63.6875 24.859376-93.402344 29.714843-29.71875 69.191406-39.550781 93.402343-24.859374 14.691407 24.210937 4.859375 63.6875-24.859375 93.402343zm0 0" fill="#54cc87"/><path d="m198.976562 403.128906-33.734374 56.125c-5.136719 8.542969-15.230469 12.628906-24.417969 10.296875-9.191407 2.332031-19.285157-1.753906-24.421875-10.296875l-33.730469-56.125 56.125 33.734375c.707031.425781 1.382813.886719 2.027344 1.378907.644531-.492188 1.316406-.953126 2.027343-1.378907zm0 0" fill="#03ad6b"/></svg>