<svg height="512pt" viewBox="0 0 512 512.00011" width="512pt" xmlns="http://www.w3.org/2000/svg"><path d="m512 256c0 141.402344-113.835938 255.585938-255.238281 256-32.570313.09375-63.734375-5.894531-92.414063-16.894531-1.300781-.5-2.324218-1.53125-2.847656-2.828125-25.976562-64.394532-77.382812-115.800782-141.777344-141.777344-1.296875-.523438-2.328125-1.546875-2.828125-2.847656-11-28.679688-16.988281-59.84375-16.894531-92.414063.414062-141.402343 114.597656-255.238281 256-255.238281 141.382812 0 256 114.613281 256 256zm0 0" fill="#f5cf51"/><path d="m444.847656 215.644531-28.285156 28.285157c-5.222656 5.222656-12.609375 6.953124-19.269531 5.191406-7.019531-1.855469-14.488281.28125-19.621094 5.414062-5.132813 5.128906-7.269531 12.601563-5.414063 19.617188 1.761719 6.660156.03125 14.050781-5.191406 19.273437l-201.953125 201.953125c-68.269531-25.9375-122.558593-80.226562-148.492187-148.492187l201.953125-201.953125c5.222656-5.222656 12.609375-6.953125 19.269531-5.191406 7.015625 1.855468 14.488281-.28125 19.621094-5.414063 5.132812-5.132813 7.269531-12.601563 5.414062-19.617187-1.761718-6.660157-.03125-14.050782 5.191406-19.273438l28.285157-28.285156c21.390625-21.390625 54.921875-23.253906 78.425781-5.582032 3.949219 2.96875 9.496094 2.507813 12.992188-.980468l14.609374-14.613282c24.773438 17.296876 46.339844 38.867188 63.640626 63.640626l-14.609376 14.609374c-3.496093 3.496094-3.953124 9.042969-.984374 12.992188 17.671874 23.503906 15.808593 57.03125-5.582032 78.425781zm0 0" fill="#e1eff4"/><path d="m444.847656 215.644531-28.285156 28.285157c-5.222656 5.222656-12.609375 6.953124-19.269531 5.191406-7.019531-1.855469-14.488281.28125-19.621094 5.414062-5.132813 5.132813-7.269531 12.601563-5.414063 19.617188 1.761719 6.660156.03125 14.050781-5.191406 19.273437l-201.953125 201.953125c-58.550781-22.246094-106.820312-65.347656-135.738281-120.238281l202.632812-202.628906c5.222657-5.222657 12.613282-6.953125 19.269532-5.191407 7.019531 1.851563 14.488281-.285156 19.621094-5.414062 5.132812-5.132812 7.269531-12.605469 5.414062-19.621094-1.761719-6.65625-.03125-14.050781 5.191406-19.269531l28.285156-28.285156c21.390626-21.394531 54.921876-23.253907 78.425782-5.582031 3.949218 2.964843 9.5 2.507812 12.992187-.984376l24.132813-24.132812c15.296875 13.507812 28.96875 28.808594 40.683594 45.585938l-14.613282 14.609374c-3.492187 3.496094-3.949218 9.042969-.980468 12.992188 17.671874 23.503906 15.808593 57.03125-5.582032 78.425781zm0 0" fill="#fff5f5"/><path d="m411.90625 205.332031c1.257812 1.257813 1.289062 3.304688.035156 4.5625-.007812.007813-.011718.011719-.019531.019531l-24.933594 24.933594c-4.601562 4.601563-11.554687 5.691406-18.070312 3.492188-6.871094-2.316406-13.867188-.84375-18.390625 3.679687-4.523438 4.519531-5.996094 11.519531-3.675782 18.386719 2.199219 6.519531 1.109376 13.46875-3.492187 18.070312l-180.753906 180.753907c-6.886719 6.886719-19.023438 5.910156-27.109375-2.179688l-40.277344-40.273437-40.273438-40.273438c-8.085937-8.089844-9.0625-20.226562-2.179687-27.109375l180.753906-180.753906c4.605469-4.605469 11.554688-5.691406 18.074219-3.492187 6.867188 2.316406 13.863281.84375 18.386719-3.679688 4.523437-4.523438 5.996093-11.519531 3.675781-18.386719-2.199219-6.519531-1.109375-13.46875 3.492188-18.070312l24.933593-24.933594c.007813-.007813.015625-.015625.023438-.023437 1.253906-1.253907 3.300781-1.21875 4.558593.035156zm0 0" fill="#94d7e8"/><path d="m458.988281 116.648438-63.640625-63.636719c-3.902344-3.90625-3.902344-10.238281 0-14.144531l28.285156-28.28125c3.90625-3.90625 10.238282-3.90625 14.140626 0l63.640624 63.636718c3.90625 3.90625 3.90625 10.238282 0 14.144532l-28.28125 28.28125c-3.90625 3.90625-10.238281 3.90625-14.144531 0zm-197.988281 282.84375 106.066406-106.066407-148.492187-148.492187-106.066407 106.066406zm0 0" fill="#b34068"/><path d="m452.976562 25.785156-42.425781 42.425782-1.765625-1.765626c-3.90625-3.90625-3.90625-10.238281 0-14.144531l28.28125-28.28125c3.90625-3.90625 10.238282-3.90625 14.144532 0zm-42.425781 42.429688 10.609375 10.605468zm-171.71875 96.976562 128.234375 128.234375-106.066406 106.066407-129.164062-129.164063s104.746093-103.035156 106.996093-105.136719zm-23.792969 68.128906c-17.574218 17.574219-17.574218 46.066407 0 63.640626 17.570313 17.574218 46.0625 17.574218 63.636719 0 17.574219-17.574219 17.574219-46.066407 0-63.640626-17.574219-17.570312-46.066406-17.570312-63.636719 0zm247.371094-114.433593c-.609375-.238281-1.203125-.542969-1.765625-.902344.5625.363281 1.15625.664063 1.765625.902344zm41.234375-41.238281-41.234375 41.238281c3.589844 1.402343 7.824219.664062 10.722656-2.238281l28.28125-28.28125c2.898438-2.898438 3.636719-7.128907 2.230469-10.71875zm-.039062-.105469c.015625.035156.027343.070312.039062.105469l.007813-.003907c-.015625-.035156-.03125-.066406-.046875-.101562zm-52.394531 31.328125-30.050782-30.050782 42.425782-42.425781 30.050781 30.050781zm-9.871094-9.871094 42.425781-42.425781-10.605469-10.605469-42.425781 42.425781zm0 0" fill="#cc4978"/><path d="m191.164062 287.605469c0-15.417969 10.601563-28.808594 25.609376-32.34375l49.605468-11.6875c1.230469-.289063 2.335938.816406 2.046875 2.046875l-11.6875 49.605468c-3.53125 15.007813-16.925781 25.613282-32.34375 25.613282-8.890625 0-16.96875-3.492188-22.929687-9.179688-6.347656-6.054687-10.300782-14.59375-10.300782-24.054687zm0 0" fill="#e1eff4"/><path d="m256.738281 295.226562c-2.480469 10.535157-9.824219 18.894532-19.316406 22.945313-4.421875-1.773437-8.425781-4.367187-11.816406-7.601563-7.097657-6.769531-11.523438-16.324218-11.523438-26.910156 0-13.480468 7.253907-25.582031 18.4375-32.109375l33.859375-7.976562c1.230469-.289063 2.335938.816406 2.046875 2.046875zm0 0" fill="#fff5f5"/></svg>