<svg height="512pt" viewBox="0 0 512 512" width="512pt" xmlns="http://www.w3.org/2000/svg"><path d="m512 256c0 141.386719-114.613281 256-256 256s-256-114.613281-256-256 114.613281-256 256-256 256 114.613281 256 256zm0 0" fill="#f5cf51"/><path d="m202 120h-32c-5.523438 0-10-4.476562-10-10v-100c0-5.523438 4.476562-10 10-10h32c5.523438 0 10 4.476562 10 10v100c0 5.523438-4.476562 10-10 10zm0 0" fill="#d58a2d"/><path d="m282 210v300.695312c-8.550781.859376-17.222656 1.304688-26 1.304688-63.34375 0-121.304688-23.019531-166-61.128906v-240.871094c0-37.277344 25.496094-68.597656 60-77.480469v-88.390625c-5.820312-2.0625-10-7.601562-10-14.128906 0-8.285156 6.714844-15 15-15h62c8.285156 0 15 6.714844 15 15 0 6.527344-4.179688 12.066406-10 14.128906v88.390625c34.503906 8.882813 60 40.203125 60 77.480469zm0 0" fill="#03ad6b"/><path d="m118 471.625c-9.808594-6.292969-19.167969-13.222656-28-20.753906v-240.871094c0-37.277344 25.496094-68.597656 60-77.480469v-88.390625c-5.898438-2.089844-10.113281-7.75-9.996094-14.390625.140625-8.253906 7.175782-14.738281 15.429688-14.738281h27.566406c-8.285156 0-15 6.714844-15 15 0 6.527344 4.179688 12.066406 10 14.128906v92.203125c0 8-4.800781 15.164063-12.125 18.378907-28.1875 12.375-47.875 40.53125-47.875 73.289062zm0 0" fill="#019256"/><path d="m282 430h-192v-210h192zm0 0" fill="#ec3c52"/><path d="m118.398438 430h-28.398438v-210h28.398438zm0 0" fill="#d73247"/><path d="m363.359375 459.714844c-6.683594 1.859375-11.285156 7.984375-11.285156 14.925781v18.703125c-12.480469 5.054688-25.441407 9.164062-38.808594 12.21875v-30.921875c0-6.941406-4.601563-13.066406-11.285156-14.925781-58.195313-16.203125-95.75-77.277344-78.957031-139.183594l25.269531-93.148438c1.183593-4.359374 5.136719-7.382812 9.652343-7.382812h149.449219c4.515625 0 8.46875 3.023438 9.652344 7.382812l25.265625 93.148438c16.796875 61.90625-20.757812 122.980469-78.953125 139.183594zm0 0" fill="#dcdce1"/><path d="m370.539062 457.453125c-79.109374-23.367187-129.796874-106.984375-106.808593-191.730469l12.402343-45.722656h131.261719c4.515625 0 8.46875 3.023438 9.652344 7.382812l25.269531 93.148438c16.089844 59.320312-17.722656 117.875-71.777344 136.921875zm-28.167968 4.875c-5.355469 0-9.699219 4.34375-9.699219 9.703125v28.28125c6.585937-2.0625 13.054687-4.398438 19.402344-6.96875v-21.3125c0-5.359375-4.34375-9.703125-9.703125-9.703125zm0 0" fill="#f0eff4"/><path d="m423.59375 324.214844c7.746094 28.550781 1.878906 58.402344-16.09375 81.898437-18.101562 23.664063-45.632812 37.164063-75.457031 36.972657-28.804688-.1875-56.15625-13.699219-73.808594-36.460938-18.28125-23.574219-24.285156-53.652344-16.488281-82.410156l13.746094-50.671875c.59375-2.179688 2.570312-3.691407 4.828124-3.691407h144.703126c2.257812 0 4.234374 1.511719 4.824218 3.691407zm0 0" fill="#b34068"/><path d="m423.59375 324.214844c7.746094 28.550781 1.878906 58.402344-16.09375 81.898437-3.074219 4.019531-6.421875 7.734375-10.003906 11.148438-1.167969.03125-2.335938.050781-3.511719.050781-66.4375 0-120.296875-50.382812-120.296875-112.535156 0-12.191406 2.082031-23.929688 5.914062-34.925782h125.421876c2.257812 0 4.234374 1.511719 4.824218 3.691407zm0 0" fill="#cc4978"/></svg>