<svg height="512pt" viewBox="0 0 512 512" width="512pt" xmlns="http://www.w3.org/2000/svg"><path d="m512 256c0 141.386719-114.613281 256-256 256s-256-114.613281-256-256 114.613281-256 256-256 256 114.613281 256 256zm0 0" fill="#54cc87"/><path d="m389.835938 289.6875c-13.261719 36.429688-49.605469 56.648438-81.179688 45.15625-31.570312-11.492188-46.417969-50.339844-33.160156-86.769531 10.683594-29.347657 36.34375-48.160157 62.425781-48.363281l63.417969-174.242188c1.964844-5.398438 7.933594-8.179688 13.332031-6.214844l15.632813 5.6875c5.398437 1.964844 8.179687 7.933594 6.214843 13.332032l-63.417969 174.242187c19.847657 16.921875 27.414063 47.828125 16.734376 77.171875zm0 0" fill="#a0452c"/><path d="m389.835938 289.6875c-13.261719 36.429688-49.605469 56.648438-81.179688 45.15625-3.980469-1.449219-7.691406-3.332031-11.117188-5.589844-11.792968-17.523437-14.953124-42.027344-6.398437-65.535156 9.226563-25.351562 29.632813-42.839844 51.828125-47.265625 6.835938-1.359375 12.457031-6.195313 14.84375-12.742187l63.671875-174.515626c.925781-2.542968 2.746094-4.492187 4.96875-5.652343l3.851563 1.402343c5.394531 1.964844 8.179687 7.933594 6.214843 13.328126l-63.417969 174.242187c19.847657 16.921875 27.414063 47.828125 16.734376 77.171875zm0 0" fill="#bb5335"/><path d="m310 215c0 8.285156-6.714844 15-15 15s-15-6.714844-15-15 6.714844-15 15-15 15 6.714844 15 15zm0 0" fill="#2b697a"/><path d="m474.15625 390c-45.054688 73.191406-125.902344 122-218.15625 122s-173.101562-48.808594-218.15625-122zm0 0" fill="#03ad6b"/><path d="m207.0625 165.753906c41.792969 40.1875 121.945312 68.546875 215.792969 72.585938 12.097656.519531 21.992187 16.066406 22.085937 35.28125v.367187c0 66.269531-84.59375 119.992188-188.941406 119.992188s-188.941406-53.722657-188.941406-119.992188c0-52.0625 52.210937-96.375 125.191406-112.984375 5.132812-1.167968 10.378906.484375 14.8125 4.75zm0 0" fill="#fbf1d1"/><path d="m444.941406 273.617188v.371093c0 61.425781-72.683594 112.066407-166.414062 119.140625-93.726563-7.074218-166.410156-57.714844-166.410156-119.140625 0-45.375 39.660156-84.859375 98.164062-105.253906 42.605469 38.601563 121.066406 65.664063 212.574219 69.605469 12.097656.519531 21.992187 16.066406 22.085937 35.277344zm0 0" fill="#fff5f5"/><path d="m150 220c-5.523438 0-10-4.476562-10-10s4.476562-10 10-10 10 4.476562 10 10-4.476562 10-10 10zm70 20c-5.523438 0-10 4.476562-10 10s4.476562 10 10 10 10-4.476562 10-10-4.476562-10-10-10zm-60 20c-5.523438 0-10 4.476562-10 10s4.476562 10 10 10 10-4.476562 10-10-4.476562-10-10-10zm130-30c-5.523438 0-10 4.476562-10 10s4.476562 10 10 10 10-4.476562 10-10-4.476562-10-10-10zm-180 10c-5.523438 0-10 4.476562-10 10s4.476562 10 10 10 10-4.476562 10-10-4.476562-10-10-10zm0 0" fill="#f7d674"/><path d="m210 215c0 8.285156-6.714844 15-15 15s-15-6.714844-15-15 6.714844-15 15-15 15 6.714844 15 15zm155 35c-8.285156 0-15 6.714844-15 15s6.714844 15 15 15 15-6.714844 15-15-6.714844-15-15-15zm0 0" fill="#2b697a"/><path d="m100.632812 402.980469c-22.324218-32.234375-38.929687-71.441407-47.707031-114.84375-1.347656-6.679688 3.78125-12.917969 10.59375-12.917969h384.960938c6.8125 0 11.945312 6.238281 10.59375 12.917969-8.777344 43.40625-25.382813 82.609375-47.707031 114.84375-24.203126 34.941406-64.007813 55.78125-106.511719 55.78125h-97.710938c-42.503906 0-82.308593-20.839844-106.511719-55.78125zm0 0" fill="#e2902a"/><path d="m304.855469 458.761719h-60.703125c-42.503906 0-82.3125-20.839844-106.511719-55.78125-24.519531-35.402344-42.140625-79.214844-50.066406-127.761719h360.90625c6.8125 0 11.945312 6.238281 10.59375 12.917969-8.777344 43.40625-25.382813 82.609375-47.707031 114.84375-24.203126 34.941406-64.007813 55.78125-106.511719 55.78125zm0 0" fill="#f7ad3b"/><path d="m380 445c0 13.808594-11.191406 25-25 25-5.625 0-10.816406-1.859375-14.996094-4.996094.003906 3.765625-.839844 7.585938-2.636718 11.183594-6.175782 12.347656-21.191407 17.351562-33.542969 11.179688-12.347657-6.175782-17.351563-21.191407-11.179688-33.542969 6.175781-12.347657 21.195313-17.355469 33.542969-11.179688 1.363281.683594 2.632812 1.476563 3.8125 2.363281 0-.003906 0-.003906 0-.007812 0-13.808594 11.195312-25 25-25 13.808594 0 25 11.191406 25 25zm0 0" fill="#1c5564"/><path d="m380 445c0 4.332031-1.101562 8.40625-3.042969 11.957031-3.550781 1.941407-7.625 3.042969-11.957031 3.042969-13.320312 0-24.199219-10.417969-24.953125-23.546875-.03125-.574219.441406-1.058594 1.019531-1.058594.328125 0 .628906.167969.824219.4375 2.015625 2.808594 5.449219 4.53125 9.261719 4.101563 4.660156-.519532 8.40625-4.375 8.808594-9.046875.453124-5.25-3.15625-9.742188-8.03125-10.695313 1.007812-.125 2.03125-.191406 3.070312-.191406 13.808594 0 25 11.191406 25 25zm-53.8125-2.355469c-.929688-.464843-1.875-.863281-2.832031-1.203125 3.933593 3.035156 5.152343 8.667969 2.398437 13.160156-2.449218 4-7.523437 5.769532-11.925781 4.152344-3.597656-1.320312-5.898437-4.398437-6.449219-7.8125-.054687-.324218-.246094-.609375-.542968-.757812-.515626-.257813-1.152344-.039063-1.382813.488281-5.195313 12.082031-.125 26.265625 11.789063 32.222656 3.875 1.9375 8.011718 2.773438 12.054687 2.628907 3.324219-2.3125 6.132813-5.460938 8.066406-9.335938 6.175781-12.351562 1.171875-27.367188-11.175781-33.542969zm0 0" fill="#2b697a"/><path d="m240.605469 485.605469c-3.902344 3.90625-11.820313 2.324219-17.675781-3.535157-3.753907-3.753906-5.742188-8.347656-5.664063-12.195312-.742187.074219-1.492187.125-2.265625.125-8.285156 0-15-4.476562-15-10s6.714844-10 15-10 15 4.476562 15 10c0 1.046875-.242188 2.050781-.6875 3 2.65625.886719 5.375 2.546875 7.757812 4.929688 5.859376 5.855468 7.441407 13.769531 3.535157 17.675781zm-90.425781-35.425781c-5.859376 5.859374-7.441407 13.773437-3.535157 17.679687s11.820313 2.320313 17.675781-3.535156c5.859376-5.859375 7.441407-13.773438 3.539063-17.679688-3.90625-3.90625-11.820313-2.324219-17.679687 3.535157zm0 0" fill="#f7d674"/></svg>