<svg id="Capa_1" enable-background="new 0 0 512 512" height="512" viewBox="0 0 512 512" width="512" xmlns="http://www.w3.org/2000/svg"><g><path d="m512 256c0 14.91-1.28 29.53-3.73 43.74-1.22 7.12-2.74 14.14-4.55 21.04-10.62 40.77-31.05 77.58-58.61 107.77-46.66 51.1-113.74 83.22-188.32 83.45h-.79c-74.9 0-142.29-32.17-189.11-83.45-14.46-15.84-26.96-33.5-37.1-52.61-9.2-17.3-16.46-35.78-21.52-55.16-1.8-6.9-3.32-13.92-4.54-21.04-1.46-8.42-2.5-16.99-3.1-25.68-.42-5.96-.63-11.99-.63-18.06 0-46.22 12.25-89.57 33.68-127 44.12-77.07 127.16-129 222.32-129s178.2 51.93 222.32 129c12.98 22.67 22.59 47.52 28.15 73.86 3.46 16.36 5.35 33.28 5.52 50.62.01.84.01 1.68.01 2.52z" fill="#4e689b"/><g><path d="m512 256c0 3.76-.08 7.49-.25 11.21-.03.78-.07 1.56-.11 2.34-.3 5.9-.81 11.75-1.52 17.54-1.38 11.48-3.53 22.73-6.39 33.69-1.95 7.48-4.23 14.82-6.82 22.01-2.43 6.74-5.13 13.35-8.1 19.81-3.72 8.12-7.87 16.01-12.39 23.65-3.37 5.7-6.96 11.25-10.76 16.65-.61.87-1.22 1.73-1.84 2.59-.93 1.28-1.86 2.56-2.81 3.82-.41.56-.82 1.1-1.24 1.65-4.62 6.09-9.52 11.95-14.67 17.59-46.81 51.28-114.2 83.45-189.1 83.45s-142.29-32.17-189.1-83.45c-4.5-4.92-8.81-10.03-12.92-15.3-.26-.34-.52-.67-.78-1.01-.57-.74-1.14-1.49-1.7-2.24-1.13-1.49-2.23-2.99-3.32-4.51-.93-1.29-1.85-2.59-2.76-3.9-3.25-4.68-6.35-9.48-9.28-14.39-1.89-3.17-3.72-6.38-5.48-9.63-2.12-3.92-4.14-7.91-6.04-11.96-.36-.73-.7-1.46-1.04-2.19-1.78-3.83-3.46-7.72-5.04-11.66-.4-.95-.78-1.9-1.15-2.86-1.81-4.66-3.49-9.39-5.04-14.18-.75-2.33-1.47-4.68-2.16-7.05-.68-2.28-1.32-4.58-1.92-6.89-.49-1.87-.95-3.75-1.39-5.64-1.31-5.54-2.44-11.14-3.39-16.81-.44-2.65-.84-5.31-1.2-7.99-1.51-11.23-2.29-22.69-2.29-34.34 0-46.22 12.25-89.57 33.68-127 21.55 37.64 52.37 69.28 89.37 91.79 2.14 1.32 4.31 2.59 6.5 3.84 2.14 1.23 4.31 2.42 6.5 3.57 35.78 19.03 76.61 29.8 119.95 29.8 12.32 0 24.43-.87 36.28-2.56 2.5-.35 4.99-.74 7.47-1.16 2.44-.42 4.86-.87 7.28-1.36 73.31-14.84 135.27-61 171.29-123.92 19.22 33.57 31.06 71.91 33.29 112.81.18 3.25.3 6.53.35 9.81.01.87.02 1.73.02 2.6.02.59.02 1.18.02 1.78z" fill="#374c81"/></g><g><g><path d="m445.11 428.55c-18.71 20.5-40.71 37.94-65.17 51.49-36.72 20.37-78.98 31.96-123.94 31.96s-87.22-11.59-123.94-31.96c-24.46-13.55-46.46-30.99-65.17-51.49z" fill="#7e7f92"/><path d="m445.11 428.55c-46.66 51.1-113.74 83.22-188.32 83.45v-83.45z" fill="#6e6f83"/></g><g><path d="m30.66 377.57c-2.5-4.63-4.86-9.35-7.08-14.15-1.78-3.83-3.46-7.72-5.04-11.66l-.02-74.51h12.12z" fill="#ffeb98"/><path d="m30.66 377.57c-2.12-3.92-4.14-7.91-6.04-11.96l-.03-88.36h6.05z" fill="#ffc300"/><path d="m57.55 412.24h-4.35c-1.71-2.22-3.39-4.47-5.02-6.75-.93-1.29-1.85-2.59-2.76-3.9l-.03-141.06h12.13z" fill="#ffeb98"/><path d="m57.55 412.24h-4.35c-.57-.74-1.14-1.49-1.7-2.24l-.03-149.47h6.05z" fill="#ffc300"/><path d="m72.285 259.56h12.13v152.68h-12.13z" fill="#ffeb98"/><path d="m78.365 259.56h6.05v152.68h-6.05z" fill="#ffc300"/><path d="m99.165 259.56h12.12v152.68h-12.12z" fill="#ffeb98"/><path d="m105.245 259.56h6.04v152.68h-6.04z" fill="#ffc300"/><path d="m123.485 259.56h12.13v152.68h-12.13z" fill="#6e6f83"/><path d="m129.565 259.56h6.05v152.68h-6.05z" fill="#58586b"/><path d="m159.88 412.24h-12.13l-.03-247.78 6.08-7.64 6.05-7.6z" fill="#ffeb98"/><path d="m159.88 412.24h-6.05l-.03-255.42 6.05-7.6z" fill="#ffc300"/><path d="m171.995 137.9h12.12v274.34h-12.12z" fill="#ffeb98"/><path d="m178.075 137.9h6.04v274.34h-6.04z" fill="#ffc300"/><path d="m196.245 132.64h12.13v279.6h-12.13z" fill="#ffeb98"/><path d="m202.325 132.64h6.05v279.6h-6.05z" fill="#ffc300"/><path d="m220.495 129h12.13v283.24h-12.13z" fill="#ffeb98"/><path d="m226.575 129h6.05v283.24h-6.05z" fill="#ffc300"/><path d="m257.237 413.251h-12.13l-.03-274.34h12.12z" fill="#ffeb98"/><path d="m256.9 412.24h-6.05l-.03-274.34h6.04z" fill="#ffc300"/><path d="m281.15 412.24h-12.13l-.03-257.03 12.13-.01v.01z" fill="#ffeb98"/><path d="m275.085 155.21h6.05v257.03h-6.05z" fill="#ffc300"/><path d="m305.4 412.24h-12.12l-.04-152.68 12.13-11.72v5.87z" fill="#ffeb98"/><path d="m305.4 412.24h-6.04l-.04-152.68 6.05-5.85z" fill="#ffc300"/><path d="m215.06 122.5c-50.74 0-92.01 41.28-92.01 92.01v39.06c-2.08-.33-4.19-.51-6.32-.51h-56c-13.64 0-26.46 5.31-36.1 14.95l-22.34 22.33c.36 2.68.76 5.34 1.2 7.99 1.27 7.61 2.87 15.09 4.78 22.45.6 2.31 1.24 4.61 1.92 6.89 13.42 12.81 31.34 20.05 50.03 20.05h35.67c22.14 0 40.16-18.01 40.16-40.16v-33.51l26.42 23.49c1.86 1.65 3.86 3.12 5.96 4.38 6.21 3.75 13.36 5.76 20.72 5.76h43.75c34.83 0 64.38-23.09 74.13-54.76 2.22-7.21 3.42-14.86 3.42-22.79v-12.23c0-52.61-42.79-95.4-95.39-95.4zm-92.01 185.06c0 14.98-12.19 27.16-27.16 27.16h-35.67c-16.94 0-33.11-7.25-44.38-19.89l-9.63-10.02 27.61-27.61c7.19-7.18 16.74-11.14 26.91-11.14h56c2.14 0 4.25.25 6.32.75zm109.85-12.88h-43.75c-6.6 0-12.95-2.39-17.91-6.74-.05-.04-.09-.08-.14-.12l-27.69-24.62c-1.95-1.73-4.06-3.27-6.31-4.59-.35-.2-.7-.4-1.05-.59v-43.51c0-43.57 35.44-79.01 79.01-79.01 45.43 0 82.39 36.96 82.39 82.4v12.23c0 8.98-1.84 17.53-5.17 25.31-9.86 23.05-32.76 39.24-59.38 39.24z" fill="#fff"/><path d="m136.05 274.05v33.51c0 22.15-18.02 40.16-40.16 40.16h-35.67c-18.69 0-36.61-7.24-50.03-20.05-.68-2.28-1.32-4.58-1.92-6.89-.49-1.87-.95-3.75-1.39-5.64 16.23 16.27 26.61 25.43 53.95 25.43h35.68c18.59 0 33.66-15.07 33.66-33.66v-37.76z" fill="#dff7fd"/><g><path d="m181.01 239.28.09-.46c.37 0 .32.16-.09.46z" fill="#fff"/><path d="m215.06 129c-47.23 0-85.51 38.28-85.51 85.51v41.49c-3.13-1.97-6.5-2.43-6.5-2.43-2.08-.33-4.19-.51-6.32-.51h-56c-13.64 0-26.46 5.31-36.1 14.95l-22.34 22.33c.36 2.68.76 5.34 1.2 7.99l25.74-25.73c8.69-8.7 20.1-13.04 31.5-13.04h56.01c4.43 0 8.78.88 12.81 2.54 3.47 1.43 6.7 3.43 9.55 5.96l27.69 24.62c6.16 5.48 14.12 8.5 22.36 8.5h43.75c30.77 0 56.97-19.55 66.85-46.9 2.73-7.54 4.21-15.67 4.21-24.15v-12.23c0-49.1-39.8-88.9-88.9-88.9zm17.84 165.68h-43.75c-6.66 0-13.07-2.43-18.05-6.86l-27.69-24.62c-2.25-2-4.72-3.74-7.36-5.18v-43.51c0-43.57 35.44-79.01 79.01-79.01 45.43 0 82.39 36.96 82.39 82.4v12.23c0 8.98-1.84 17.53-5.17 25.31-9.86 23.05-32.76 39.24-59.38 39.24z" fill="#dff7fd"/></g></g><g><path d="m465.66 402.9c-.61.87-1.22 1.73-1.84 2.59-1.33 1.84-2.68 3.67-4.05 5.47h-5.44l-56.81-133.61-56.79 133.61h-14.78l71.57-168.35z" fill="#ffc300"/><path d="m461.01 409.31c-.41.56-.82 1.1-1.24 1.65h-5.44l-56.81-133.61-56.79 133.61h-7.39l64.18-150.99z" fill="#ff9f00"/><g><path d="m501.245 269.551h-85.218l60.259 60.253-10.841 10.834-60.252-60.253v85.212h-15.325v-85.212l-60.253 60.253-10.84-10.834 60.259-60.253h-85.212v-15.324h85.212l-60.259-60.26 10.84-10.834 60.253 60.253v-85.212h15.325v85.212l60.252-60.253 10.841 10.834-60.259 60.26h85.218z" fill="#ffc300"/><path d="m498.284 261.882c0 2.583-.097 5.14-.285 7.671h-81.975l52.426 52.413 5.535 5.541c-3.334 3.884-6.952 7.502-10.836 10.836l-5.541-5.541-52.413-52.419v81.975c-2.531.188-5.088.285-7.664.285v-201.515c2.576 0 5.133.097 7.664.285v81.975l52.419-52.426 5.534-5.535c3.884 3.334 7.502 6.952 10.836 10.836l-5.535 5.541-52.426 52.419h81.975c.189 2.533.286 5.083.286 7.659z" fill="#ff9f00"/><path d="m397.53 153.361c-59.844 0-108.528 48.684-108.528 108.522 0 59.844 48.684 108.528 108.528 108.528 59.837 0 108.521-48.684 108.521-108.528.001-59.838-48.683-108.522-108.521-108.522zm0 201.514c-51.273 0-92.993-41.719-92.993-92.993 0-51.273 41.719-92.986 92.993-92.986 51.273 0 92.986 41.713 92.986 92.986.001 51.274-41.712 92.993-92.986 92.993z" fill="#ffeb98"/><path d="m497.999 254.225c-1.657-22.06-10.422-42.14-24.015-57.96-3.334-3.884-6.952-7.502-10.836-10.836-15.814-13.594-35.893-22.352-57.953-24.015-2.531-.188-5.088-.285-7.664-.285-55.649 0-100.76 45.111-100.76 100.754 0 55.649 45.111 100.76 100.76 100.76 2.576 0 5.133-.097 7.664-.285 22.06-1.664 42.14-10.422 57.953-24.015 3.884-3.334 7.502-6.952 10.836-10.836 13.587-15.814 22.351-35.893 24.015-57.954.188-2.531.285-5.088.285-7.671 0-2.576-.097-5.126-.285-7.657zm-29.549 67.741c-3.314 3.903-6.939 7.528-10.842 10.836-14.39 12.215-32.521 20.131-52.413 21.756-2.531.214-5.082.317-7.664.317-51.273 0-92.993-41.719-92.993-92.993 0-51.273 41.719-92.986 92.993-92.986 2.583 0 5.133.104 7.664.317 19.892 1.625 38.029 9.541 52.419 21.75 3.903 3.314 7.528 6.939 10.836 10.842 12.208 14.39 20.125 32.527 21.75 52.419.214 2.525.317 5.081.317 7.658 0 2.583-.104 5.14-.317 7.671-1.626 19.892-9.542 38.023-21.75 52.413z" fill="#ffc300"/></g><path d="m417.978 261.883c0 11.294-9.158 20.453-20.453 20.453-11.289 0-20.448-9.158-20.448-20.453 0-11.289 9.158-20.448 20.448-20.448 11.294 0 20.453 9.159 20.453 20.448z" fill="#ffeb98"/><path d="m417.978 261.883c0 11.294-9.158 20.453-20.453 20.453v-40.9c11.294-.001 20.453 9.158 20.453 20.447z" fill="#ffc300"/><path d="m407.756 261.883c0 5.652-4.579 10.232-10.232 10.232-5.647 0-10.226-4.579-10.226-10.232 0-5.647 4.579-10.226 10.226-10.226 5.653 0 10.232 4.579 10.232 10.226z" fill="#54545e"/><path d="m407.756 261.883c0 5.652-4.579 10.232-10.232 10.232v-20.458c5.653 0 10.232 4.579 10.232 10.226z" fill="#454556"/><g><g><path d="m284.905 251.615v17.934h-8.282v-17.934h4.141z" fill="#65b2fe"/><path d="m280.764 251.615h4.141v17.934h-4.141z" fill="#159de4"/></g><g><path d="m316.713 251.615v17.934h-8.282v-17.934h4.141z" fill="#65b2fe"/><path d="m312.572 251.615h4.141v17.934h-4.141z" fill="#159de4"/></g><path d="m284.082 267.213h25.376v14.417h-25.376z" fill="#65b2fe"/><path d="m296.772 267.213h12.686v14.417h-12.686z" fill="#159de4"/><g fill="#fff"><path d="m318.284 254.225h-43.028c-.816 0-1.462-.712-1.363-1.524.754-6.407 6.2-11.377 12.806-11.377h20.137c6.606 0 12.057 4.97 12.81 11.377.1.811-.546 1.524-1.362 1.524z"/><path d="m319.738 268.584v5.778c0 7.124-5.774 12.897-12.897 12.897h-20.141c-7.124 0-12.897-5.774-12.897-12.897v-5.778c0-.758.613-1.371 1.371-1.371h11.862c.969 0 1.756.787 1.756 1.756v8.138c0 1.309 1.06 2.369 2.369 2.369h11.22c1.309 0 2.369-1.06 2.369-2.369v-8.138c0-.969.787-1.756 1.756-1.756h11.862c.757 0 1.37.613 1.37 1.371z"/></g><g fill="#dff7fd"><path d="m319.738 268.584v5.778c0 7.124-5.774 12.897-12.897 12.897h-10.068v-7.782h5.608c1.309 0 2.369-1.06 2.369-2.369v-8.138c0-.969.787-1.756 1.756-1.756h11.862c.757-.001 1.37.612 1.37 1.37z"/><path d="m318.284 254.225h-21.512v-12.901h10.064c6.606 0 12.057 4.97 12.81 11.377.1.811-.546 1.524-1.362 1.524z"/></g></g><g><g><path d="m486.132 251.615v17.934h-8.282v-17.934h4.141z" fill="#65b2fe"/><path d="m481.991 251.615h4.141v17.934h-4.141z" fill="#159de4"/></g><g><path d="m512 256c0 3.76-.08 7.49-.25 11.21-.03.78-.07 1.56-.11 2.34h-1.98v-17.93h2.3c.01.87.02 1.73.02 2.6.02.59.02 1.18.02 1.78z" fill="#65b2fe"/></g><path d="m485.309 267.213h25.376v14.417h-25.376z" fill="#65b2fe"/><path d="m497.999 267.213h12.686v14.417h-12.686z" fill="#159de4"/><g fill="#fff"><path d="m511.98 254.22h-35.5c-.81 0-1.46-.71-1.36-1.52.75-6.41 6.2-11.38 12.81-11.38h20.13c1.23 0 2.42.17 3.55.49.23 4.11.36 8.25.37 12.41z"/><path d="m511.76 267.21c-.29 6.69-.84 13.33-1.64 19.88-.67.11-1.35.17-2.05.17h-20.14c-7.13 0-12.9-5.77-12.9-12.9v-5.78c0-.75.61-1.37 1.37-1.37h11.86c.97 0 1.76.79 1.76 1.76v8.14c0 1.31 1.06 2.37 2.37 2.37h11.22c1.31 0 2.37-1.06 2.37-2.37v-8.14c0-.97.78-1.76 1.75-1.76z"/></g><g fill="#dff7fd"><path d="m511.75 267.21c-.28 6.7-.83 13.33-1.63 19.88-.67.11-1.35.17-2.05.17h-10.07v-7.78h5.61c1.31 0 2.37-1.06 2.37-2.37v-8.14c0-.97.78-1.76 1.75-1.76z"/><path d="m511.98 254.22h-13.98v-12.9h10.06c1.23 0 2.42.17 3.55.49.23 4.11.36 8.25.37 12.41z"/></g></g><g><g><path d="m464.418 327.195v17.933h-8.281v-17.933h4.14z" fill="#65b2fe"/><path d="m460.277 327.195h4.141v17.933h-4.141z" fill="#159de4"/></g><g><path d="m496.227 327.195v17.933h-8.282v-17.933h4.141z" fill="#65b2fe"/><path d="m492.086 327.195h4.141v17.933h-4.141z" fill="#159de4"/></g><path d="m463.596 342.792h25.376v14.417h-25.376z" fill="#65b2fe"/><path d="m476.286 342.792h12.686v14.417h-12.686z" fill="#159de4"/><g fill="#fff"><path d="m497.798 329.804h-43.028c-.816 0-1.462-.712-1.363-1.524.754-6.407 6.2-11.377 12.806-11.377h20.137c6.606 0 12.056 4.97 12.81 11.377.1.812-.546 1.524-1.362 1.524z"/><path d="m488.81 362.6c-.79.16-1.62.24-2.46.24h-20.14c-7.12 0-12.89-5.78-12.89-12.9v-5.78c0-.75.61-1.37 1.37-1.37h11.86c.97 0 1.75.79 1.75 1.76v8.14c0 1.31 1.07 2.37 2.37 2.37h11.22c1.31 0 2.37-1.06 2.37-2.37v-8.14c0-.97.79-1.76 1.76-1.76h10.89z"/></g><g fill="#dff7fd"><path d="m496.91 342.79c-2.43 6.74-5.13 13.35-8.1 19.81-.79.16-1.62.24-2.46.24h-10.06v-7.78h5.6c1.31 0 2.37-1.06 2.37-2.37v-8.14c0-.97.79-1.76 1.76-1.76z"/><path d="m497.798 329.804h-21.512v-12.901h10.064c6.606 0 12.056 4.97 12.81 11.377.1.812-.546 1.524-1.362 1.524z"/></g></g><g><g><path d="m385.662 352.266v17.933h-8.282v-17.933h4.141z" fill="#65b2fe"/><path d="m381.521 352.266h4.141v17.934h-4.141z" fill="#159de4"/></g><g><path d="m417.47 352.266v17.933h-8.282v-17.933h4.141z" fill="#65b2fe"/><path d="m413.329 352.266h4.141v17.934h-4.141z" fill="#159de4"/></g><path d="m384.839 367.863h25.376v14.417h-25.376z" fill="#65b2fe"/><path d="m397.529 367.863h12.686v14.417h-12.686z" fill="#159de4"/><g fill="#fff"><path d="m419.041 354.875h-43.028c-.816 0-1.462-.712-1.363-1.524.754-6.407 6.2-11.377 12.806-11.377h20.137c6.606 0 12.056 4.97 12.81 11.377.1.812-.546 1.524-1.362 1.524z"/><path d="m420.495 369.234v5.778c0 7.124-5.774 12.897-12.897 12.897h-20.141c-7.124 0-12.897-5.773-12.897-12.897v-5.778c0-.758.613-1.371 1.371-1.371h11.862c.969 0 1.756.787 1.756 1.756v8.138c0 1.309 1.06 2.369 2.369 2.369h11.22c1.309 0 2.369-1.06 2.369-2.369v-8.138c0-.969.787-1.756 1.756-1.756h11.862c.757 0 1.37.613 1.37 1.371z"/></g><g fill="#dff7fd"><path d="m420.495 369.234v5.778c0 7.124-5.774 12.897-12.897 12.897h-10.068v-7.782h5.608c1.309 0 2.369-1.06 2.369-2.369v-8.138c0-.969.787-1.756 1.756-1.756h11.862c.757-.001 1.37.612 1.37 1.37z"/><path d="m419.041 354.875h-21.512v-12.901h10.064c6.606 0 12.056 4.97 12.81 11.377.1.812-.546 1.524-1.362 1.524z"/></g></g><g><g><path d="m306.907 327.195v17.933h-8.282v-17.933h4.142z" fill="#65b2fe"/><path d="m302.767 327.195h4.141v17.933h-4.141z" fill="#159de4"/></g><g><path d="m338.716 327.195v17.933h-8.282v-17.933h4.141z" fill="#65b2fe"/><path d="m334.575 327.195h4.141v17.933h-4.141z" fill="#159de4"/></g><path d="m306.085 342.792h25.376v14.417h-25.376z" fill="#65b2fe"/><path d="m318.775 342.792h12.686v14.417h-12.686z" fill="#159de4"/><g fill="#fff"><path d="m340.287 329.804h-43.028c-.816 0-1.462-.712-1.363-1.524.754-6.407 6.2-11.377 12.806-11.377h20.137c6.606 0 12.056 4.97 12.81 11.377.1.812-.546 1.524-1.362 1.524z"/><path d="m341.741 344.163v5.778c0 7.124-5.774 12.897-12.897 12.897h-20.141c-7.124 0-12.897-5.773-12.897-12.897v-5.778c0-.758.613-1.371 1.371-1.371h11.862c.969 0 1.756.787 1.756 1.756v8.138c0 1.309 1.06 2.369 2.369 2.369h11.22c1.309 0 2.369-1.06 2.369-2.369v-8.138c0-.969.787-1.756 1.756-1.756h11.862c.757 0 1.37.613 1.37 1.371z"/></g><g fill="#dff7fd"><path d="m341.741 344.163v5.778c0 7.124-5.774 12.897-12.897 12.897h-10.068v-7.782h5.608c1.309 0 2.369-1.06 2.369-2.369v-8.138c0-.969.787-1.756 1.756-1.756h11.862c.757-.001 1.37.612 1.37 1.37z"/><path d="m340.287 329.804h-21.512v-12.901h10.064c6.606 0 12.056 4.97 12.81 11.377.1.812-.546 1.524-1.362 1.524z"/></g></g><g><g><path d="m317.748 180.667v17.933h-8.282v-17.933h4.141z" fill="#65b2fe"/><path d="m313.607 180.667h4.141v17.934h-4.141z" fill="#159de4"/></g><g><path d="m349.556 180.667v17.933h-8.281v-17.933h4.14z" fill="#65b2fe"/><path d="m345.415 180.667h4.141v17.934h-4.141z" fill="#159de4"/></g><path d="m316.925 196.264h25.376v14.417h-25.376z" fill="#65b2fe"/><path d="m329.615 196.264h12.686v14.417h-12.686z" fill="#159de4"/><g fill="#fff"><path d="m351.127 183.276h-43.028c-.816 0-1.462-.712-1.363-1.524.754-6.407 6.2-11.377 12.806-11.377h20.137c6.606 0 12.057 4.97 12.81 11.377.1.812-.546 1.524-1.362 1.524z"/><path d="m352.581 197.635v5.778c0 7.124-5.774 12.897-12.897 12.897h-20.141c-7.124 0-12.897-5.773-12.897-12.897v-5.778c0-.758.613-1.371 1.371-1.371h11.862c.969 0 1.756.787 1.756 1.756v8.138c0 1.309 1.06 2.369 2.369 2.369h11.22c1.309 0 2.369-1.06 2.369-2.369v-8.138c0-.969.787-1.756 1.756-1.756h11.862c.757 0 1.37.614 1.37 1.371z"/></g><g fill="#dff7fd"><path d="m352.581 197.635v5.778c0 7.124-5.774 12.897-12.897 12.897h-10.068v-7.782h5.608c1.309 0 2.369-1.06 2.369-2.369v-8.138c0-.969.787-1.756 1.756-1.756h11.862c.757-.001 1.37.613 1.37 1.37z"/><path d="m351.127 183.276h-21.512v-12.901h10.064c6.606 0 12.057 4.97 12.81 11.377.1.812-.546 1.524-1.362 1.524z"/></g></g><g><g><path d="m385.662 153.647v17.933h-8.282v-17.933h4.141z" fill="#65b2fe"/><path d="m381.521 153.647h4.141v17.934h-4.141z" fill="#159de4"/></g><g><path d="m417.47 153.647v17.933h-8.282v-17.933h4.141z" fill="#65b2fe"/><path d="m413.329 153.647h4.141v17.934h-4.141z" fill="#159de4"/></g><path d="m384.839 169.244h25.376v14.417h-25.376z" fill="#65b2fe"/><path d="m397.529 169.244h12.686v14.417h-12.686z" fill="#159de4"/><g fill="#fff"><path d="m419.041 156.256h-43.028c-.816 0-1.462-.712-1.363-1.524.754-6.407 6.2-11.377 12.806-11.377h20.137c6.606 0 12.056 4.97 12.81 11.377.1.812-.546 1.524-1.362 1.524z"/><path d="m420.495 170.615v5.778c0 7.124-5.774 12.897-12.897 12.897h-20.141c-7.124 0-12.897-5.773-12.897-12.897v-5.778c0-.758.613-1.371 1.371-1.371h11.862c.969 0 1.756.787 1.756 1.756v8.138c0 1.309 1.06 2.369 2.369 2.369h11.22c1.309 0 2.369-1.06 2.369-2.369v-8.138c0-.969.787-1.756 1.756-1.756h11.862c.757 0 1.37.613 1.37 1.371z"/></g><g fill="#dff7fd"><path d="m420.495 170.615v5.778c0 7.124-5.774 12.897-12.897 12.897h-10.068v-7.782h5.608c1.309 0 2.369-1.06 2.369-2.369v-8.139c0-.969.787-1.756 1.756-1.756h11.862c.757 0 1.37.613 1.37 1.371z"/><path d="m419.041 156.256h-21.512v-12.901h10.064c6.606 0 12.056 4.97 12.81 11.377.1.812-.546 1.524-1.362 1.524z"/></g></g><g><g><path d="m453.578 180.667v17.933h-8.282v-17.933h4.141z" fill="#65b2fe"/><path d="m449.437 180.667h4.141v17.934h-4.141z" fill="#159de4"/></g><g><path d="m485.386 180.667v17.933h-8.282v-17.933h4.141z" fill="#65b2fe"/><path d="m481.245 180.667h4.141v17.934h-4.141z" fill="#159de4"/></g><path d="m452.755 196.264h25.376v14.417h-25.376z" fill="#65b2fe"/><path d="m465.445 196.264h12.686v14.417h-12.686z" fill="#159de4"/><g fill="#fff"><path d="m486.957 183.276h-43.028c-.816 0-1.462-.712-1.363-1.524.754-6.407 6.2-11.377 12.806-11.377h20.137c6.606 0 12.057 4.97 12.81 11.377.1.812-.546 1.524-1.362 1.524z"/><path d="m488.411 197.635v5.778c0 7.124-5.774 12.897-12.897 12.897h-20.141c-7.124 0-12.897-5.773-12.897-12.897v-5.778c0-.758.613-1.371 1.371-1.371h11.862c.969 0 1.756.787 1.756 1.756v8.138c0 1.309 1.06 2.369 2.369 2.369h11.22c1.309 0 2.369-1.06 2.369-2.369v-8.138c0-.969.787-1.756 1.756-1.756h11.862c.757 0 1.37.614 1.37 1.371z"/></g><g fill="#dff7fd"><path d="m488.411 197.635v5.778c0 7.124-5.774 12.897-12.897 12.897h-10.068v-7.782h5.608c1.309 0 2.369-1.06 2.369-2.369v-8.138c0-.969.787-1.756 1.756-1.756h11.862c.757-.001 1.37.613 1.37 1.37z"/><path d="m486.957 183.276h-21.512v-12.901h10.064c6.606 0 12.057 4.97 12.81 11.377.1.812-.546 1.524-1.362 1.524z"/></g></g></g><path d="m257.24 334.72v78.53h-203.26c-6.46-8.29-12.42-16.99-17.84-26.05-9.8-16.39-17.82-33.97-23.79-52.48z" fill="#ffc300"/><path d="m133.81 334.72h123.43v78.53h-123.43z" fill="#ff9f00"/><path d="m231.09 389.96v23.29h-21.22v-23.29c0-5.86 4.75-10.61 10.61-10.61 5.86 0 10.61 4.75 10.61 10.61z" fill="#454556"/><path d="m463.82 405.49c-5.79 8.05-12.04 15.75-18.72 23.06h-378.2c-4.5-4.92-8.81-10.03-12.92-15.3-1.98-2.55-3.92-5.13-5.8-7.76z" fill="#54545e"/><path d="m463.82 405.49c-5.79 8.05-12.04 15.75-18.72 23.06h-188.31v-23.06z" fill="#454556"/><path d="m257.24 348.86v14.53h-93.26l-30.17.01-110.23.02c-2.21-4.76-4.27-9.61-6.19-14.52l116.42-.03 30.17-.01z" fill="#7e7f92"/><path d="m257.24 348.861v14.524h-93.26l-30.17.012v-14.524l30.17-.012z" fill="#6e6f83"/><path d="m61.65 245.144h-8.2v-13.653c0-2.264 1.836-4.1 4.1-4.1 2.264 0 4.1 1.836 4.1 4.1z" fill="#fff"/><path d="m88.53 231.49v13.65h-8.2v-13.65c0-2.26 1.84-4.1 4.1-4.1 1.13 0 2.15.46 2.9 1.2.74.75 1.2 1.77 1.2 2.9z" fill="#fff"/><path d="m88.53 231.49v13.65h-4.05l-.05-17.75c1.13 0 2.15.46 2.9 1.2.74.75 1.2 1.77 1.2 2.9z" fill="#dff7fd"/><path d="m61.65 231.49v13.65h-4.05l-.05-17.75c1.13 0 2.15.46 2.9 1.2.74.75 1.2 1.77 1.2 2.9z" fill="#dff7fd"/><path d="m115.4 245.144h-8.2v-13.653c0-2.264 1.836-4.1 4.1-4.1 2.264 0 4.1 1.836 4.1 4.1z" fill="#fff"/><path d="m115.4 231.49v13.65h-4.05l-.05-17.75c1.13 0 2.15.46 2.9 1.2.74.75 1.2 1.77 1.2 2.9z" fill="#fff"/><path d="m118.22 241.43c-1.84 6.7-7.98 11.63-15.27 11.63h-39.99c-7.29 0-13.43-4.93-15.27-11.63-.58-2.12 1.05-4.2 3.24-4.2h64.05c2.2 0 3.82 2.08 3.24 4.2z" fill="#ff6378"/><path d="m118.22 241.43c-1.84 6.7-7.98 11.63-15.27 11.63h-29.15c-3.33 0-6.14-4.93-6.99-11.63-.26-2.12.49-4.2 1.49-4.2h46.68c2.2 0 3.82 2.08 3.24 4.2z" fill="#fe3345"/><path d="m118.22 241.43c-1.84 6.7-7.98 11.63-15.27 11.63h-18.45l-.04-15.83h30.52c2.2 0 3.82 2.08 3.24 4.2z" fill="#de1263"/><path d="m89.86 253.06c0 2.97-2.39 5.39-5.35 5.43h-.08c-3 0-5.43-2.43-5.43-5.43s2.43-5.43 5.43-5.43h.05c2.98.03 5.38 2.45 5.38 5.43z" fill="#6e6f83"/><path d="m89.86 253.06c0 2.97-2.39 5.39-5.35 5.43l-.03-10.86c2.98.03 5.38 2.45 5.38 5.43z" fill="#58586b"/><path d="m116.738 253.06c0 2.998-2.43 5.428-5.428 5.428s-5.428-2.43-5.428-5.428 2.43-5.428 5.428-5.428 5.428 2.43 5.428 5.428z" fill="#6e6f83"/><path d="m86.75 253.06c0 1.26-1 2.28-2.25 2.32h-.07c-1.28 0-2.32-1.04-2.32-2.32s1.04-2.32 2.32-2.32h.06c1.25.03 2.26 1.06 2.26 2.32z" fill="#58586b"/><path d="m113.632 253.06c0 1.282-1.039 2.322-2.322 2.322-1.282 0-2.322-1.039-2.322-2.322 0-1.282 1.039-2.322 2.322-2.322 1.282 0 2.322 1.04 2.322 2.322z" fill="#58586b"/><path d="m86.75 253.06c0 1.26-1 2.28-2.25 2.32l-.01-4.64c1.25.03 2.26 1.06 2.26 2.32z" fill="#454556"/><g><path d="m63.596 253.06c0 2.97-2.39 5.39-5.35 5.43h-.08c-3 0-5.43-2.43-5.43-5.43s2.43-5.43 5.43-5.43h.05c2.98.03 5.38 2.45 5.38 5.43z" fill="#6e6f83"/><path d="m63.596 253.06c0 2.97-2.39 5.39-5.35 5.43l-.03-10.86c2.98.03 5.38 2.45 5.38 5.43z" fill="#58586b"/><path d="m60.486 253.06c0 1.26-1 2.28-2.25 2.32h-.07c-1.28 0-2.32-1.04-2.32-2.32s1.04-2.32 2.32-2.32h.06c1.25.03 2.26 1.06 2.26 2.32z" fill="#58586b"/><path d="m60.486 253.06c0 1.26-1 2.28-2.25 2.32l-.01-4.64c1.25.03 2.26 1.06 2.26 2.32z" fill="#454556"/></g><path d="m116.738 253.06c0 2.97-2.39 5.39-5.35 5.43l-.03-10.86c2.98.03 5.38 2.45 5.38 5.43z" fill="#58586b"/><path d="m113.628 253.06c0 1.26-1 2.28-2.25 2.32l-.01-4.64c1.25.03 2.26 1.06 2.26 2.32z" fill="#454556"/></g><g><g><path d="m102.867 148.344h-1.524c-6.753 0-12.227-5.474-12.227-12.227v-1.524h-8.716v1.524c0 6.753-5.474 12.227-12.227 12.227h-1.525v8.716h1.525c6.753 0 12.227 5.474 12.227 12.227v1.525h8.716v-1.525c0-6.753 5.474-12.227 12.227-12.227h1.524z" fill="#fff"/></g></g><g><g><path d="m242.249 50.631h-.946c-4.189 0-7.585-3.396-7.585-7.584v-.946h-5.407v.946c0 4.189-3.396 7.584-7.585 7.584h-.946v5.406h.946c4.189 0 7.585 3.396 7.585 7.585v.946h5.407v-.946c0-4.189 3.396-7.585 7.585-7.585h.946z" fill="#fff"/></g></g><g><g><path d="m406 102.343h-1.524c-6.753 0-12.227-5.474-12.227-12.227v-1.524h-8.716v1.524c0 6.753-5.474 12.227-12.227 12.227h-1.525v8.716h1.525c6.753 0 12.227 5.474 12.227 12.227v1.525h8.716v-1.525c0-6.753 5.474-12.227 12.227-12.227h1.524z" fill="#fff"/></g></g></g></svg>