<svg id="Capa_1" enable-background="new 0 0 512 512" height="512" viewBox="0 0 512 512" width="512" xmlns="http://www.w3.org/2000/svg"><g><g><path d="m512 256c0 31.73-5.77 62.1-16.33 90.14l-32.06 22.18c-124.91 86.45-290.31 86.45-415.22 0l-32.05-22.18h-.01c-10.56-28.04-16.33-58.41-16.33-90.14 0-141.38 114.62-256 256-256s256 114.62 256 256z" fill="#92eaff"/><path d="m512 256c0 31.73-5.77 62.1-16.33 90.14l-.01.01-32.05 22.17c-124.91 86.45-290.31 86.45-415.22 0l-32.05-22.18h-.01c-10.56-28.04-16.33-58.42-16.33-90.14 0-46.22 12.25-89.57 33.68-127 44.12 77.07 127.16 129 222.32 129s178.2-51.93 222.32-129c21.43 37.43 33.68 80.78 33.68 127z" fill="#63dbfa"/></g><g><path d="m512 256c0 16.85-1.63 33.31-4.73 49.24-2.75 14.08-6.66 27.75-11.6 40.9l-32.06 22.18c-124.91 86.45-290.31 86.45-415.22 0l-9.67-6.692c-15.884-10.992-27.32-27.394-31.775-46.19-.025-.106-.05-.212-.075-.318-2.06-8.66-3.67-17.49-4.81-26.47-.61-4.82-1.09-9.69-1.43-14.59-.15-2.1-.27-4.21-.36-6.33 15.09-5.11 32-5.31 48-3.29 21.63 2.73 42.72 9.09 64.43 11.06 36.93 3.35 74.11-6.13 111.08-3.11 10.84.88 21.55 2.83 32.22 5.16 27.95 6.11 55.54 14.84 84.01 13.89 39.27-1.3 75.23-20.75 111.65-35.47 18.96-7.66 39.51-14.04 59.84-15.99.28 4.47.44 8.97.49 13.5.01.84.01 1.68.01 2.52z" fill="#d1f6ff"/><path d="m512 256c0 16.85-1.63 33.31-4.73 49.24-2.75 14.08-6.66 27.75-11.6 40.9l-32.06 22.18c-62.45 43.22-135.03 64.84-207.61 64.84v-155.61c27.95 6.11 55.54 14.84 84.01 13.89 39.27-1.3 75.23-20.75 111.65-35.47 18.96-7.66 39.51-14.04 59.84-15.99.28 4.47.44 8.97.49 13.5.01.84.01 1.68.01 2.52z" fill="#c5f2f9"/><path d="m507.27 305.24c-2.75 14.08-6.66 27.75-11.6 40.9l-32.06 22.18c-124.91 86.45-290.31 86.45-415.22 0l-9.67-6.692c-15.884-10.992-27.32-27.394-31.775-46.19-.025-.106-.05-.212-.075-.318 5.76.02 11.53.21 17.18.5 22.54 1.15 44.52 3.85 67.15 4.68 38.5 1.42 77.24-2.6 115.77-1.32 16.53.55 32.8 2.07 49.03 3.64 23.9 2.32 47.7 4.77 72.12 4.44 40.93-.56 78.4-8.79 116.37-15.03 19.89-3.26 41.46-5.99 62.78-6.79z" fill="#fff"/><path d="m507.27 305.24c-2.75 14.08-6.66 27.75-11.6 40.9l-32.06 22.18c-62.45 43.22-135.03 64.84-207.61 64.84v-110.54c23.9 2.32 47.7 4.77 72.12 4.44 40.93-.56 78.4-8.79 116.37-15.03 19.89-3.26 41.46-5.99 62.78-6.79z" fill="#dff7fd"/><path d="m495.67 346.14c-11.36 30.21-28.28 57.71-49.5 81.24-.35.39-.71.78-1.06 1.17-5.73 6.27-11.76 12.26-18.08 17.93h-1.57c-4.95 0-8.97 4.02-8.97 8.97-2.41 1.94-4.85 3.84-7.33 5.69-42.52 31.8-95.24 50.68-152.37 50.86h-.79c-74.9 0-142.29-32.17-189.11-83.45-14.46-15.84-26.96-33.5-37.1-52.61-3.26-6.13-6.28-12.42-9.04-18.84-1.56-3.61-3.03-7.26-4.41-10.96z" fill="#ffc0a4"/><path d="m495.67 346.14c-11.55 30.71-28.84 58.62-50.56 82.41-5.73 6.27-11.76 12.26-18.08 17.93h-1.57c-4.95 0-8.97 4.02-8.97 8.97-2.41 1.94-4.85 3.84-7.33 5.69-42.52 31.8-95.24 50.68-152.37 50.86h-.79v-165.86z" fill="#ffa87a"/><g><path d="m446.17 427.38c-.35.39-.71.78-1.06 1.17-10.92 11.96-22.96 22.88-35.95 32.59-42.52 31.8-95.24 50.68-152.37 50.86h-.79c-74.9 0-142.29-32.17-189.11-83.45-14.46-15.84-26.96-33.5-37.1-52.61-3.26-6.13-6.28-12.42-9.04-18.84-9.24-21.45-15.63-44.43-18.69-68.45 10.92-2.04 23.16.23 33.08 5.58 16.76 9.03 28.74 24.66 41.22 39.05s27 28.56 45.56 32.82c23.3 5.34 50.41-5.53 70.25 7.8 14.86 9.98 20.54 30.91 36.8 38.41 8.57 3.95 17.69 3.21 27.03 1.22 13.49-2.88 27.45-8.37 40.91-6.11 13.66 2.29 24.7 12.25 37.64 17.2 23.1 8.84 46.3.49 69.55-2.36 15.98-1.96 29.21-1.09 42.07 5.12z" fill="#7e7f92"/></g><path d="m446.17 427.38c-.35.39-.71.78-1.06 1.17-5.73 6.27-11.76 12.26-18.08 17.93h-1.57c-4.95 0-8.97 4.02-8.97 8.97-2.41 1.94-4.85 3.84-7.33 5.69-42.52 31.8-95.24 50.68-152.37 50.86h-.79v-98.47c13.49-2.88 27.45-8.37 40.91-6.11 13.66 2.29 24.7 12.25 37.64 17.2 23.1 8.84 46.3.49 69.55-2.36 15.98-1.96 29.21-1.09 42.07 5.12z" fill="#6e6f83"/><path d="m409.16 461.14c-42.52 31.8-95.24 50.68-152.37 50.86h-.79c-74.9 0-142.29-32.17-189.11-83.45-14.46-15.84-26.96-33.5-37.1-52.61-3.26-6.13-6.28-12.42-9.04-18.84 10.5 3.49 20.24 9.19 28.19 16.93 11.35 11.06 19.49 25.89 33.42 33.43 28.22 15.26 67.14-5.87 93.77 12 12.49 8.37 19.23 23.78 32.38 31.06 14.35 7.95 30.83 3.93 47.49.03 14.3-3.34 28.73-6.6 42.08-2.13 14.29 4.78 25.1 17.9 39.91 20.67 14.53 2.72 28.69-5.18 43.16-8.22 9.21-1.93 18.83-1.79 28.01.27z" fill="#6e6f83"/><path d="m242.346 82.397c0 19.652-15.934 35.586-35.586 35.586-19.66 0-35.586-15.934-35.586-35.586 0-19.66 15.926-35.594 35.586-35.594 19.652 0 35.586 15.934 35.586 35.594z" fill="#fff9bb"/><path d="m242.346 82.397c0 19.652-15.934 35.586-35.586 35.586v-71.18c19.652 0 35.586 15.934 35.586 35.594z" fill="#ffeb98"/><g><path d="m57.114 205.904c0-.074-.006-.147-.006-.221 0-13.533 10.971-24.505 24.505-24.505 3.215 0 6.283.626 9.096 1.751 5.434-9.735 15.831-16.322 27.772-16.322 15.506 0 28.412 11.105 31.217 25.794.836-.12 1.69-.185 2.559-.185 8.431 0 15.494 5.836 17.382 13.688z" fill="#fff"/><path d="m81.023 205.904c0-.043-.003-.084-.003-.127 0-7.782 6.309-14.091 14.091-14.091 1.849 0 3.613.36 5.23 1.007 3.125-5.598 9.103-9.385 15.969-9.385 8.916 0 16.338 6.385 17.951 14.832.481-.069.972-.107 1.472-.107 4.848 0 8.91 3.356 9.995 7.871z" fill="#dff7fd"/></g><g><path d="m423.664 104.636c0-.08.006-.159.006-.239 0-14.641-11.869-26.51-26.509-26.51-3.478 0-6.797.677-9.84 1.895-5.879-10.531-17.126-17.657-30.044-17.657-16.775 0-30.737 12.013-33.771 27.904-.905-.13-1.828-.201-2.769-.201-9.12 0-16.762 6.314-18.804 14.807h121.731z" fill="#fff"/><path d="m397.798 104.636c0-.046.003-.091.003-.137 0-8.419-6.825-15.243-15.243-15.243-2 0-3.908.389-5.658 1.089-3.38-6.056-9.848-10.153-17.276-10.153-9.646 0-17.674 6.908-19.419 16.046-.52-.074-1.051-.115-1.592-.115-5.244 0-9.638 3.63-10.813 8.515h69.998z" fill="#dff7fd"/></g><g><path d="m460.426 213.357c0-.056.004-.111.004-.167 0-10.223-8.288-18.511-18.511-18.511-2.429 0-4.746.473-6.871 1.323-4.105-7.354-11.959-12.33-20.979-12.33-11.714 0-21.463 8.389-23.582 19.485-.632-.091-1.277-.14-1.933-.14-6.369 0-11.704 4.409-13.131 10.34z" fill="#fff"/><path d="m442.364 213.357c0-.032.002-.064.002-.096 0-5.879-4.766-10.644-10.644-10.644-1.397 0-2.729.272-3.951.761-2.36-4.229-6.877-7.09-12.064-7.09-6.736 0-12.342 4.824-13.56 11.204-.363-.052-.734-.081-1.112-.081-3.662 0-6.73 2.535-7.551 5.946z" fill="#dff7fd"/></g><path d="m427.03 446.48c-3.43 3.09-6.95 6.08-10.54 8.97-15.01-8.25-28.85-19.12-41.21-32.48-28.23-30.49-48.17-72.77-57.67-122.25-.67-3.53 1.64-6.93 5.16-7.61 3.53-.68 6.94 1.63 7.61 5.16 9.04 47.09 27.86 87.16 54.44 115.87 12.73 13.76 26.83 24.55 42.21 32.34z" fill="#a44e3e"/><g><g><path d="m323.998 299.494c-11.18-15.543-30.352-24.563-50.649-21.821-20.297 2.743-36.388 16.528-43.042 34.48z" fill="#43af3e"/><path d="m323.998 299.494c3.085-18.896-4.093-38.831-20.385-51.244s-37.417-14.043-54.817-6.054z" fill="#00a23e"/></g><g><path d="m323.998 299.494c6.654-17.952 22.745-31.738 43.042-34.48s39.47 6.278 50.649 21.821z" fill="#00a23e"/><path d="m323.998 299.494c-7.989-17.399-6.359-38.525 6.054-54.816 12.413-16.292 32.349-23.47 51.244-20.385z" fill="#008839"/><path d="m323.998 299.494c10.772-4.946 23.851-3.937 33.938 3.748 10.086 7.685 14.53 20.027 12.62 31.726z" fill="#008839"/><path d="m323.998 299.494c-11.698-1.91-24.041 2.534-31.726 12.62s-8.694 23.165-3.748 33.938z" fill="#00a23e"/></g></g><g><path d="m445.58 428.04c-14.9-14.28-27.33-31.43-36.97-51.17-20.18-41.3-27.82-92.45-22.1-147.93.37-3.57 3.55-6.16 7.13-5.79 3.57.36 6.17 3.56 5.8 7.13-5.47 53.05 1.74 101.77 20.85 140.89 8.96 18.34 20.22 34.07 33.69 47.13z" fill="#a44e3e"/><g><g><path d="m392.974 229.611c-6.907-20.087-24.391-35.801-46.831-39.377s-43.943 5.924-56.752 22.869z" fill="#43af3e"/><path d="m392.974 229.611c9.32-19.088 8.068-42.562-5.271-60.959s-35.261-26.883-56.3-23.959z" fill="#00a23e"/></g><g><path d="m392.974 229.611c12.809-16.945 34.311-26.445 56.752-22.869 22.44 3.576 39.924 19.29 46.831 39.377z" fill="#00a23e"/><path d="m392.974 229.611c-2.924-21.039 5.562-42.961 23.959-56.3s41.871-14.59 60.959-5.271z" fill="#008839"/><path d="m392.974 229.611c13.026-1.81 26.598 3.444 34.856 14.833s9.033 25.923 3.263 37.74z" fill="#008839"/><path d="m392.974 229.611c-11.818-5.77-26.351-4.995-37.74 3.263-11.39 8.258-16.644 21.83-14.833 34.856z" fill="#00a23e"/></g></g></g><path d="m409.16 461.14c-42.52 31.8-95.24 50.68-152.37 50.86h-.79v-61.45c14.3-3.34 28.73-6.6 42.08-2.13 14.29 4.78 25.1 17.9 39.91 20.67 14.53 2.72 28.69-5.18 43.16-8.22 9.21-1.93 18.83-1.79 28.01.27z" fill="#605f74"/></g></g></svg>