<svg id="Capa_1" enable-background="new 0 0 512 512" height="512" viewBox="0 0 512 512" width="512" xmlns="http://www.w3.org/2000/svg"><g><g><path d="m512 256c0 14.17-1.15 28.07-3.37 41.62v.01c-1.72 10.54-4.09 20.87-7.06 30.94 0 .01-.01.02-.01.02-.01.02-.02.05-.03.07-143.36 107.39-341.8 101.93-479.04-13.19l-17.171-14.398c-1.025-.859-1.716-2.055-1.932-3.375-2.227-13.567-3.387-27.501-3.387-41.697 0-128.13 94.14-234.27 217.01-253.05.1-.01.2-.02.29-.04 12.62-1.92 25.55-2.91 38.7-2.91 66.86 0 127.74 25.64 173.34 67.62 35.87 33.02 62.29 76.16 74.72 124.88 5.18 20.31 7.94 41.58 7.94 63.5z" fill="#fde05d"/><g><path d="m512 256c0 22.38-2.87 44.09-8.27 64.78-.03.1-.05.19-.08.29-.32 1.22-.65 2.44-.99 3.66-.36 1.31-.74 2.61-1.12 3.92-143.36 107.4-341.81 101.94-479.05-13.18l-17.18-14.404c-1.014-.85-1.705-2.03-1.917-3.336-.001-.007-.002-.014-.003-.02-2.23-13.58-3.39-27.51-3.39-41.71 0-46.22 12.25-89.57 33.68-127 44.12 77.07 127.16 129 222.32 129s178.2-51.93 222.32-129c21.43 37.43 33.68 80.78 33.68 127z" fill="#ffc300"/></g><g><g><path d="m501.54 328.65c-5.15 17.44-12.11 34.1-20.67 49.77l-30.64 18.2c-121.17 71.98-270.49 77.88-396.97 15.7-6.19-8.01-11.91-16.4-17.12-25.12-10.87-18.17-19.55-37.81-25.67-58.55z" fill="#de1263"/><path d="m501.54 328.65c-5.15 17.44-12.11 34.09-20.66 49.76-.01 0-.01.01-.01.01l-30.64 18.2c-59.92 35.6-126.71 55.03-194.23 58.06v-126.03h189.751l14.629 4 17.788-4z" fill="#de1263"/><path d="m342.7 387.04-20.62 12.69c-8.33 5.12-17.91 7.83-27.68 7.83h-18.87c-6.75 0-13.38 1.29-19.53 3.75-.8.31-1.59.65-2.37 1.01l-55.87 10.74c-30.01 5.77-60.85 5.7-90.84-.19l-53.66-10.55c-6.19-8.01-11.91-16.4-17.12-25.12-3.68-6.15-7.11-12.47-10.27-18.95-.05-.1-.09-.19-.14-.29h311.57c10.39 0 14.25 13.63 5.4 19.08z" fill="#ff6c7e"/><path d="m342.7 387.04-20.62 12.69c-8.33 5.12-17.91 7.83-27.68 7.83h-18.87c-6.75 0-13.38 1.29-19.53 3.75v-43.35h81.3c10.39 0 14.25 13.63 5.4 19.08z" fill="#fe3345"/><path d="m313.69 367.96-9.07 5.58c-8.33 5.12-17.91 7.83-27.68 7.83h-18.87c-.69 0-1.38.01-2.07.04-13.26.52-25.86 6.02-35.28 15.43-4.95 4.95-10.78 8.83-17.13 11.46s-13.21 4.02-20.21 4.02h-130.12c-6.19-8.01-11.91-16.4-17.12-25.12-3.68-6.15-7.11-12.47-10.27-18.95-.05-.1-.09-.19-.14-.29z" fill="#fe3345"/><path d="m313.69 367.96-9.07 5.58c-8.33 5.12-17.91 7.83-27.68 7.83h-18.87c-.69 0-1.38.01-2.07.04v-13.45z" fill="#de1263"/></g><g><path d="m298.92 228.63v117.04h-263.35v-117.04l61.56-61.56v-32.55h-6.48l-3.56-3.56 10.04-10.03v-.01l17.61-17.61 27.65 27.65-3.56 3.56h-6.48v32.55h105.01z" fill="#4e689b"/><path d="m298.92 228.63v117.04h-141.55v-178.6h79.99z" fill="#374c81"/><path d="m298.92 228.63h-263.35l61.56-61.56h140.23z" fill="#374c81"/><path d="m298.92 228.63h-123.12l61.56-61.56z" fill="#2c416b"/><path d="m213.37 274.748h104.951v85.558h-104.951z" fill="#2c416b"/><path d="m329.252 279.321h-126.814l30.439-30.438h65.936z" fill="#1a3863"/><path d="m142.393 130.962-3.56 3.56h-48.181l-3.559-3.56 10.039-10.03v-.01l17.611-17.61 17.609 17.61z" fill="#374c81"/></g><g fill="#ffc300"><path d="m109.318 144.01h12.12v12.12h-12.12z"/><path d="m63.638 245.963c-4.483 0-8.118 3.634-8.118 8.118v8.118 8.118h16.236v-8.118-8.118c0-4.484-3.635-8.118-8.118-8.118z"/><path d="m90.494 245.963c-4.483 0-8.118 3.634-8.118 8.118v8.118 8.118h16.236v-8.118-8.118c0-4.484-3.634-8.118-8.118-8.118z"/><path d="m117.351 245.963c-4.483 0-8.118 3.634-8.118 8.118v8.118 8.118h16.236v-8.118-8.118c0-4.484-3.635-8.118-8.118-8.118z"/><path d="m144.207 245.963c-4.483 0-8.118 3.634-8.118 8.118v8.118 8.118h16.236v-8.118-8.118c0-4.484-3.634-8.118-8.118-8.118z"/><path d="m171.064 245.963c-4.483 0-8.118 3.634-8.118 8.118v8.118 8.118h16.236v-8.118-8.118c0-4.484-3.635-8.118-8.118-8.118z"/><path d="m250.972 287.016c-4.143 0-7.501 3.358-7.501 7.501v7.501 7.502h15.003v-7.502-7.501c-.001-4.142-3.359-7.501-7.502-7.501z"/><path d="m275.789 287.016c-4.143 0-7.501 3.358-7.501 7.501v7.501 7.502h15.003v-7.502-7.501c0-4.142-3.359-7.501-7.502-7.501z"/><path d="m300.607 287.016c-4.143 0-7.501 3.358-7.501 7.501v7.501 7.502h15.003v-7.502-7.501c0-4.142-3.359-7.501-7.502-7.501z"/></g><path d="m337.3 368.25h-311.43c-6.18-12.65-11.35-25.88-15.4-39.6-.78-2.6-1.51-5.23-2.2-7.87-1.97-7.56-3.6-15.25-4.88-23.07h197.44c7.01 0 13.87 1.39 20.22 4.02s12.18 6.49 17.13 11.45c9.91 9.9 23.34 15.47 37.35 15.47h18.87c9.77 0 19.35 2.71 27.68 7.83l20.62 12.69c8.85 5.45 4.99 19.08-5.4 19.08z" fill="#6e6f83"/><path d="m337.3 368.25h-179.93v-70.54h43.46c7.01 0 13.87 1.39 20.22 4.02s12.18 6.49 17.13 11.45c9.91 9.9 23.34 15.47 37.35 15.47h18.87c9.77 0 19.35 2.71 27.68 7.83l20.62 12.69c8.85 5.45 4.99 19.08-5.4 19.08z" fill="#605f74"/><path d="m313.69 368.25h-287.82c-.05-.1-.09-.19-.14-.29-6.12-12.56-11.24-25.69-15.26-39.31-.47-1.58-.93-3.16-1.36-4.76h174.27c7 0 13.86 1.39 20.21 4.02s12.18 6.51 17.13 11.46c9.91 9.9 23.34 15.47 37.35 15.47h18.87c9.77 0 19.35 2.71 27.68 7.83z" fill="#605f74"/><path d="m298.92 228.63h-141.55v-61.56h79.99z" fill="#2c416b"/><path d="m177.12 167.07v61.56h-141.55l61.56-61.56z" fill="#2c416b"/><path d="m313.69 368.25h-156.32v-44.36h26.01c7 0 13.86 1.39 20.21 4.02s12.18 6.51 17.13 11.46c9.91 9.9 23.34 15.47 37.35 15.47h18.87c9.77 0 19.35 2.71 27.68 7.83z" fill="#58586b"/></g></g><path d="m480.89 378.41c-9.91 18.16-21.94 34.98-35.78 50.14-46.66 51.1-113.74 83.22-188.32 83.45h-.79c-74.9 0-142.29-32.17-189.11-83.45-4.76-5.22-9.31-10.63-13.63-16.23h287.75c9.58 0 19.08-2.47 27.17-7.61 2.29-1.46 4.67-2.65 7.04-3.53 11.88-4.41 24.29-3.26 36.45-3.62 2.94-.09 6.02-.31 8.57-2 2.54-1.68 4.34-5.21 3.4-8.36-1.67-5.54-9.77-5.51-11.44-10.89-1.21-3.91 2.11-7.9 5.63-9.16 3.5-1.25 7.34-.9 10.87-1.97 3.51-1.06 6.88-4.46 6.01-8.27-1.02-4.44-7.13-6.63-6.94-11.02.12-2.91 3.16-4.65 5.93-5 2.76-.34 5.76.27 8.26-.86 2.68-1.21 3.31-8.19 3.47-11.38h32.95c.27 1.63-.46 3.29-1.96 4.31-1.74 1.2-4.05 1.47-6.25 1.83-2.84.45-5.92 1.19-6.63 4.31-.63 2.74.64 6.25 3.24 8.09 1.58 1.11 3.41 1.59 5.15 2.34 1.75.75 3.57 1.93 4.36 3.75 1.05 2.43-.29 5.04-2.32 6.09-2.06 1.05-4.6.92-7.04.78-4.82-.26-9.26 1.04-9.11 7.18.07 2.8 1.5 5.74 3.7 7.61 2.94 2.47 6.72 2.85 10.18 2.8 3.04-.03 6.14-.28 9.18.67z" fill="#ffeb98"/><path d="m480.89 378.41c-9.91 18.16-21.94 34.98-35.78 50.14-46.66 51.1-113.74 83.22-188.32 83.45h-.79v-99.68h85.01c9.58 0 19.08-2.47 27.17-7.61 2.29-1.46 4.67-2.65 7.04-3.53 11.88-4.41 24.29-3.26 36.45-3.62 2.94-.09 6.02-.31 8.57-2 2.54-1.68 4.34-5.21 3.4-8.36-1.67-5.54-9.77-5.51-11.44-10.89-1.21-3.91 2.11-7.9 5.63-9.16 3.5-1.25 7.34-.9 10.87-1.97 3.51-1.06 6.88-4.46 6.01-8.27-1.02-4.44-7.13-6.63-6.94-11.02.12-2.91 3.16-4.65 5.93-5 2.76-.34 5.76.27 8.26-.86 2.68-1.21 3.31-8.19 3.47-11.38h32.95c.27 1.63-.46 3.29-1.96 4.31-1.74 1.2-4.05 1.47-6.25 1.83-2.84.45-5.92 1.19-6.63 4.31-.63 2.74.64 6.25 3.24 8.09 1.58 1.11 3.41 1.59 5.15 2.34 1.75.75 3.57 1.93 4.36 3.75 1.05 2.43-.29 5.04-2.32 6.09-2.06 1.05-4.6.92-7.04.78-4.82-.26-9.26 1.04-9.11 7.18.07 2.8 1.5 5.74 3.7 7.61 2.94 2.47 6.72 2.85 10.18 2.8 3.04-.03 6.14-.28 9.18.67z" fill="#f9e073"/><path d="m454.53 417.61c-4.33 5.31-8.86 10.44-13.6 15.39-17.37 18.15-37.38 33.75-59.42 46.17h-88.07c-7.73 0-11.37-9.55-5.6-14.69l11.47-10.23c6.96-6.21 15.97-9.63 25.29-9.63 5.05 0 9.98-1.01 14.55-2.9 4.56-1.89 8.77-4.68 12.33-8.24l4.73-4.74c7.13-7.12 16.79-11.13 26.87-11.13z" fill="#605f74"/><path d="m440.93 433c-17.37 18.15-37.38 33.75-59.42 46.17h-83.79l10.68-9.53c6.96-6.21 15.97-9.64 25.3-9.64 5.04 0 9.97-1.01 14.54-2.9 4.56-1.89 8.77-4.67 12.33-8.24l4.73-4.72c7.13-7.13 16.79-11.14 26.87-11.14z" fill="#58586b"/><path d="m253.63 412.32c-5.7 2.59-10.93 6.2-15.45 10.71-4.95 4.96-10.78 8.82-17.13 11.45s-13.21 4.02-20.22 4.02h-124.35c-8.32-8.18-16.08-16.93-23.22-26.18z" fill="#f9e073"/><g><path d="m147.339 76.055c0-.078-.006-.154-.006-.232 0-14.204 11.514-25.718 25.718-25.718 3.374 0 6.594.657 9.546 1.838 5.703-10.217 16.615-17.13 29.147-17.13 16.274 0 29.819 11.655 32.763 27.071.878-.126 1.774-.194 2.686-.194 8.848 0 16.262 6.125 18.243 14.365z" fill="#fff"/><path d="m172.432 76.055c0-.045-.003-.089-.003-.133 0-8.167 6.621-14.788 14.789-14.788 1.94 0 3.792.377 5.489 1.057 3.279-5.875 9.554-9.85 16.76-9.85 9.358 0 17.147 6.702 18.84 15.567.505-.072 1.02-.112 1.544-.112 5.088 0 9.351 3.522 10.49 8.26h-67.909z" fill="#dff7fd"/></g><g><path d="m273.76 188.052c0-.066-.005-.13-.005-.195 0-11.973 9.706-21.68 21.68-21.68 2.845 0 5.558.553 8.047 1.549 4.807-8.613 14.006-14.44 24.57-14.44 13.719 0 25.137 9.825 27.619 22.82.74-.106 1.495-.164 2.264-.164 7.459 0 13.708 5.163 15.378 12.11z" fill="#fff"/><path d="m294.913 188.052c0-.038-.003-.075-.003-.112 0-6.885 5.581-12.466 12.466-12.466 1.636 0 3.196.318 4.627.891 2.764-4.952 8.054-8.303 14.129-8.303 7.889 0 14.454 5.649 15.881 13.122.425-.061.86-.094 1.302-.094 4.289 0 7.883 2.969 8.843 6.963h-57.245z" fill="#dff7fd"/></g><g><path d="m450.115 114.087c.001-.079.006-.156.006-.234 0-14.344-11.628-25.973-25.973-25.973-3.408 0-6.659.663-9.641 1.856-5.759-10.318-16.78-17.299-29.435-17.299-16.435 0-30.115 11.77-33.088 27.339-.886-.127-1.791-.196-2.713-.196-8.936 0-16.422 6.186-18.424 14.507z" fill="#fff"/><path d="m424.773 114.087c0-.045.003-.089.003-.135 0-8.248-6.687-14.935-14.935-14.935-1.96 0-3.829.381-5.544 1.067-3.312-5.933-9.649-9.948-16.926-9.948-9.451 0-17.316 6.768-19.026 15.721-.51-.073-1.03-.113-1.56-.113-5.138 0-9.443 3.557-10.594 8.342h68.582z" fill="#dff7fd"/></g><path d="m298.92 228.63h-141.55v-61.56h79.99z" fill="#1a3863"/><path d="m499.49 256.11c0 23.24-18.83 42.08-42.07 42.08s-42.08-18.84-42.08-42.08c0-23.23 18.84-42.07 42.08-42.07s42.07 18.84 42.07 42.07z" fill="#ff9f00"/><path d="m499.49 256.11c0 23.24-18.83 42.08-42.07 42.08v-84.15c23.24 0 42.07 18.84 42.07 42.07z" fill="#ec781b"/><g><path d="m256.717 117.729c.096.144-.073.316-.224.229-7.554-4.318-17.331-3.249-23.778 3.189-2.658 2.668-4.398 5.892-5.23 9.297-.018.072-.081.123-.156.123h-6.617c-.075 0-.139-.051-.156-.123-.823-3.405-2.573-6.629-5.231-9.297-6.437-6.437-16.222-7.507-23.768-3.189-.151.086-.321-.085-.224-.229.709-1.061 1.532-2.063 2.462-3.002 7.72-7.72 20.24-7.72 27.96 0 .795.795 1.512 1.643 2.142 2.528.064.09.192.09.257 0 .628-.884 1.337-1.732 2.142-2.527 7.71-7.72 20.23-7.72 27.95 0 .937.937 1.761 1.94 2.471 3.001z" fill="#605f74"/><path d="m256.717 117.729c.096.144-.073.316-.224.229-7.554-4.318-17.331-3.249-23.778 3.189-2.658 2.668-4.398 5.892-5.23 9.297-.018.072-.081.123-.156.123h-3.139c-.091 0-.165-.074-.165-.164v-12.912c0-.035.01-.069.03-.097.653-.934 1.393-1.829 2.24-2.666 7.71-7.72 20.23-7.72 27.95 0 .938.937 1.762 1.94 2.472 3.001z" fill="#58586b"/></g><g><path d="m396.733 240.616c.097.144-.073.316-.224.229-7.554-4.318-17.331-3.249-23.778 3.189-2.658 2.668-4.398 5.893-5.23 9.297-.018.072-.082.123-.156.123h-6.617c-.075 0-.138-.051-.156-.123-.823-3.405-2.573-6.629-5.231-9.297-6.437-6.437-16.222-7.507-23.768-3.189-.151.086-.321-.085-.224-.229.709-1.061 1.532-2.063 2.462-3.001 7.72-7.72 20.24-7.72 27.96 0 .795.795 1.512 1.643 2.142 2.528.064.09.192.09.257-.001.628-.884 1.337-1.732 2.141-2.527 7.71-7.72 20.23-7.72 27.95 0 .938.937 1.762 1.94 2.472 3.001z" fill="#605f74"/><path d="m396.733 240.616c.097.144-.073.316-.224.229-7.554-4.318-17.331-3.249-23.778 3.189-2.658 2.668-4.398 5.893-5.23 9.297-.018.072-.082.123-.156.123h-3.139c-.091 0-.164-.074-.164-.164v-12.912c0-.035.01-.069.03-.097.652-.934 1.393-1.829 2.24-2.666 7.71-7.72 20.23-7.72 27.95 0 .937.937 1.761 1.94 2.471 3.001z" fill="#58586b"/></g><g><path d="m465.624 145.658c.097.144-.073.316-.224.229-7.554-4.318-17.331-3.249-23.778 3.189-2.658 2.668-4.398 5.892-5.23 9.297-.018.072-.081.123-.156.123h-6.617c-.075 0-.138-.051-.156-.123-.823-3.405-2.573-6.629-5.231-9.297-6.437-6.437-16.223-7.507-23.768-3.189-.151.086-.321-.085-.224-.229.709-1.061 1.532-2.063 2.462-3.001 7.72-7.72 20.24-7.72 27.96 0 .795.795 1.512 1.643 2.142 2.527.065.09.193.09.257 0 .628-.884 1.337-1.732 2.142-2.527 7.71-7.72 20.23-7.72 27.95 0 .937.937 1.761 1.94 2.471 3.001z" fill="#605f74"/><path d="m465.624 145.658c.097.144-.073.316-.224.229-7.554-4.318-17.331-3.249-23.778 3.189-2.658 2.668-4.398 5.892-5.23 9.297-.018.072-.081.123-.156.123h-3.139c-.091 0-.165-.074-.165-.164v-12.912c0-.035.011-.069.031-.097.652-.934 1.393-1.829 2.24-2.666 7.71-7.72 20.23-7.72 27.95 0 .937.937 1.761 1.94 2.471 3.001z" fill="#58586b"/></g></g></svg>