<svg id="Capa_1" enable-background="new 0 0 512 512" height="512" viewBox="0 0 512 512" width="512" xmlns="http://www.w3.org/2000/svg"><g><path d="m507.57 291.35 1.69 2.24c-.31 2.06-.64 4.11-.99 6.15-1.22 7.12-2.74 14.14-4.55 21.04-.91 3.48-1.89 6.94-2.94 10.36l-9.59 4.25c-11.12 4.92-12.39 20.2-2.23 26.89-11.14 24.39-26 46.72-43.85 66.27-119.97 53.16-256.77 53.37-376.9.58l-1.32-.58c-14.46-15.84-26.96-33.5-37.1-52.61-2.38-4.48-4.63-9.03-6.74-13.66 10.89-6.58 9.5-22.8-2.35-27.43l-9.48-3.71-.01.01c-1.05-3.43-2.03-6.88-2.94-10.37-1.8-6.9-3.32-13.92-4.54-21.04-.35-2.04-.68-4.09-.99-6.15 4.45-4.29 4.01-11.55-.93-15.27l-.9-.68c-.11-1.19-.2-2.38-.28-3.58-.42-5.96-.63-11.99-.63-18.06 0-46.22 12.25-89.57 33.68-127 44.12-77.07 127.16-129 222.32-129s178.2 51.93 222.32 129c12.98 22.67 22.59 47.52 28.15 73.86 3.46 16.36 5.35 33.28 5.52 50.62.01.84.01 1.68.01 2.52 0 7.29-.31 14.51-.91 21.64-5.29 2.39-7 9.07-3.52 13.71z" fill="#92eaff"/><g><path d="m507.57 291.35 1.69 2.24c-1.36 9.24-3.21 18.31-5.53 27.19-.91 3.48-1.89 6.94-2.94 10.36v.01l-.01-.01-9.59 4.25c-11.12 4.92-12.39 20.19-2.24 26.88-3.76 8.24-7.94 16.24-12.53 23.98-8.98 15.18-19.49 29.35-31.31 42.3l-.01.01c-119.97 53.15-256.76 53.36-376.89.57l-1.31-.58h-.01c-11.58-12.68-21.89-26.53-30.75-41.35-4.8-8.03-9.18-16.35-13.09-24.92 10.89-6.58 9.5-22.8-2.35-27.43l-9.48-3.71c-1.06-3.42-2.04-6.88-2.95-10.36-2.31-8.88-4.16-17.96-5.52-27.2 4.44-4.29 4-11.54-.94-15.26l-.9-.68c-.6-7.13-.91-14.35-.91-21.64 0-46.22 12.25-89.57 33.68-127 44.12 77.07 127.16 129 222.32 129s178.2-51.93 222.32-129c21.43 37.43 33.68 80.78 33.68 127 0 7.29-.31 14.51-.91 21.64-5.29 2.39-7 9.07-3.52 13.71z" fill="#63dbfa"/></g><g><g><path d="m445.11 428.55c-18.71 20.5-40.71 37.94-65.17 51.49-36.72 20.37-78.98 31.96-123.94 31.96s-87.22-11.59-123.94-31.96c-24.46-13.55-46.46-30.99-65.17-51.49z" fill="#65b2fe"/><path d="m445.11 428.55c-46.66 51.1-113.74 83.22-188.32 83.45v-83.45z" fill="#159de4"/></g><path d="m500.79 331.14c-1.07 3.49-2.21 6.95-3.43 10.38l-120.7 10.38h-241.32l-120.69-10.38c-1.23-3.43-2.37-6.89-3.43-10.38z" fill="#fff"/><path d="m500.78 331.14c-1.07 3.49-2.21 6.95-3.42 10.38h-.01l-120.69 10.38h-120.66v-20.76z" fill="#dff7fd"/><path d="m497.36 341.52c-1.24 3.5-2.55 6.96-3.94 10.38-1.41 3.5-2.9 6.96-4.46 10.38h-43.9c-10.02 0-18.15 8.13-18.15 18.15v48.12h-20.67v-48.12c0-10.02-8.12-18.15-18.14-18.15h-102.83c-10.02 0-18.14 8.13-18.14 18.15v48.12h-20.68v-48.12c0-10.02-8.12-18.15-18.14-18.15h-104.41c-10.02 0-18.14 8.13-18.14 18.15v48.12h-20.67v-48.12c0-10.02-8.13-18.15-18.15-18.15h-43.89c-3.1-6.77-5.91-13.69-8.4-20.76h70.44v-69.85l20.67-8v77.85h139.41l4.29-207.79h13.08l4.29 207.79h139.41v-77.87l20.67 8v69.87z" fill="#7e7f92"/><path d="m497.36 341.52c-1.24 3.5-2.55 6.96-3.94 10.38-1.41 3.5-2.9 6.96-4.46 10.38h-43.9c-10.02 0-18.15 8.13-18.15 18.15v48.12h-20.67v-48.12c0-10.02-8.12-18.15-18.14-18.15h-102.83c-10.02 0-18.14 8.13-18.14 18.15v48.12h-11.13v-294.82h6.54l4.29 207.79h139.41v-77.87l20.67 8v69.87z" fill="#6e6f83"/><path d="m426.91 271.65v69.87h-20.67v-77.87z" fill="#de1263"/><path d="m266.83 341.52h-21.66l4.29-207.79h13.08z" fill="#fe3345"/><path d="m266.83 341.52h-10.83v-207.79h6.54z" fill="#de1263"/><path d="m85.09 271.67 20.67-8v77.85h-20.67z" fill="#fe3345"/><path d="m123.9 362.28c-10.02 0-18.14 8.13-18.14 18.15v48.12h-20.67v-48.12c0-10.02-8.13-18.15-18.15-18.15z" fill="#6e6f83"/><path d="m285.27 362.28c-10.02 0-18.14 8.13-18.14 18.15v48.12h-20.67v-48.12c0-10.02-8.13-18.15-18.15-18.15z" fill="#6e6f83"/><path d="m285.27 362.28c-10.02 0-18.14 8.13-18.14 18.15v48.12h-11.13v-66.27z" fill="#605f74"/><path d="m445.06 362.28c-10.02 0-18.14 8.13-18.14 18.15v48.12h-20.67v-48.12c0-10.02-8.13-18.15-18.15-18.15z" fill="#605f74"/><path d="m511.09 277.64c-.44 5.37-1.06 10.69-1.83 15.95-46.03-1.66-90.91-11.44-133.63-29.14-44.65-18.49-84.86-44.77-119.63-78.17-34.77 33.4-74.98 59.68-119.63 78.17-42.72 17.7-87.6 27.48-133.63 29.14-.78-5.26-1.39-10.58-1.83-15.95 44.55-1.46 88-10.85 129.33-27.97 45.14-18.7 85.55-45.7 120.1-80.25l5.66-5.65 5.66 5.65c34.55 34.55 74.96 61.55 120.1 80.25 41.33 17.12 84.78 26.51 129.33 27.97z" fill="#fff"/><path d="m79.677 416.035h31.793v12.515h-31.793z" fill="#58586b"/><path d="m240.89 416.04h31.8v12.51h-31.8z" fill="#605f74"/><path d="m256 416.04h16.69v12.51h-16.69z" fill="#58586b"/><path d="m400.752 416.035h31.793v12.515h-31.793z" fill="#58586b"/><path d="m511.09 277.64c-.44 5.37-1.06 10.69-1.83 15.95-46.03-1.66-90.91-11.44-133.63-29.14-44.65-18.49-84.86-44.77-119.63-78.17v-22.51l5.66 5.65c34.55 34.55 74.96 61.55 120.1 80.25 41.33 17.12 84.78 26.51 129.33 27.97z" fill="#dff7fd"/><path d="m151.218 117.733c0 18.344-14.874 33.218-33.218 33.218-18.352 0-33.218-14.874-33.218-33.218 0-18.352 14.867-33.225 33.218-33.225 18.344-.001 33.218 14.873 33.218 33.225z" fill="#fff9bb"/><path d="m151.218 117.733c0 18.344-14.874 33.218-33.218 33.218v-66.444c18.344 0 33.218 14.874 33.218 33.226z" fill="#ffeb98"/><g><path d="m161.042 211.76c0-.065.005-.129.005-.195 0-11.925-9.667-21.592-21.592-21.592-2.833 0-5.536.551-8.014 1.543-4.788-8.577-13.949-14.381-24.47-14.381-13.663 0-25.035 9.785-27.506 22.727-.737-.106-1.489-.163-2.255-.163-7.429 0-13.652 5.142-15.316 12.06h99.148z" fill="#fff"/><path d="m139.975 211.76c0-.037.003-.074.003-.112 0-6.857-5.559-12.415-12.416-12.415-1.629 0-3.183.317-4.608.887-2.753-4.932-8.021-8.27-14.071-8.27-7.856 0-14.396 5.626-15.817 13.069-.424-.061-.856-.094-1.297-.094-4.271 0-7.85 2.957-8.807 6.935z" fill="#dff7fd"/></g><g><path d="m305.572 71.812c0-.065.005-.129.005-.195 0-11.925-9.667-21.592-21.592-21.592-2.833 0-5.536.551-8.014 1.543-4.788-8.577-13.949-14.381-24.47-14.381-13.663 0-25.035 9.785-27.506 22.727-.737-.106-1.489-.163-2.255-.163-7.428 0-13.652 5.142-15.316 12.06h99.148z" fill="#fff"/><path d="m284.505 71.812c0-.038.003-.074.003-.112 0-6.857-5.559-12.416-12.416-12.416-1.629 0-3.183.317-4.608.887-2.753-4.932-8.021-8.27-14.071-8.27-7.856 0-14.395 5.626-15.817 13.069-.424-.061-.856-.094-1.297-.094-4.272 0-7.85 2.957-8.807 6.935h57.013z" fill="#dff7fd"/></g><g><path d="m332.154 189.643c-.001-.098-.007-.193-.007-.291 0-17.822 14.447-32.269 32.269-32.269 4.234 0 8.273.824 11.978 2.306 7.156-12.819 20.847-21.493 36.571-21.493 20.419 0 37.415 14.623 41.108 33.966 1.101-.158 2.226-.244 3.37-.244 11.102 0 20.403 7.685 22.89 18.024h-148.179z" fill="#fff"/><path d="m363.639 189.643c0-.056-.004-.111-.004-.167 0-10.248 8.307-18.555 18.555-18.555 2.435 0 4.758.474 6.888 1.326 4.115-7.371 11.988-12.359 21.029-12.359 11.741 0 21.514 8.409 23.638 19.531.633-.091 1.28-.14 1.938-.14 6.384 0 11.732 4.419 13.162 10.365h-85.206z" fill="#dff7fd"/></g></g></g></svg>