<svg id="Capa_1" enable-background="new 0 0 512 512" height="512" viewBox="0 0 512 512" width="512" xmlns="http://www.w3.org/2000/svg"><g><path d="m512 256c0 5.92-.2 11.78-.61 17.59-143.47 128.64-366.06 108-483.44-44.81l-21.87-28.47c5.63-25.39 15.04-49.37 27.6-71.31 44.12-77.07 127.16-129 222.32-129s178.2 51.93 222.32 129c12.98 22.67 22.59 47.52 28.15 73.86 3.46 16.36 5.35 33.28 5.52 50.62.01.84.01 1.68.01 2.52z" fill="#92eaff"/><g><path d="m512 256c0 5.92-.2 11.79-.6 17.61l-.01-.02c-143.47 128.64-366.06 108-483.44-44.81l-21.87-28.47c5.63-25.39 15.04-49.37 27.6-71.31 44.12 77.07 127.16 129 222.32 129s178.2-51.93 222.32-129c21.43 37.43 33.68 80.78 33.68 127z" fill="#63dbfa"/></g><g><path d="m511.39 273.59v.01c-.59 8.84-1.64 17.57-3.12 26.14-1.22 7.12-2.74 14.14-4.55 21.04-1.41 5.41-2.99 10.75-4.75 16.01l-45.02 31.12c-123.5 85.36-288.54 78.87-404.95-15.94l-41.37-33.69c-1.52-6.1-2.83-12.28-3.9-18.54-1.46-8.42-2.5-16.99-3.1-25.68-.42-5.96-.63-11.99-.63-18.06 0-19.13 2.1-37.76 6.08-55.69 3.26.55 6.38 1.84 9.02 3.83 8.83 6.65 12.25 20.02 22.76 23.47 9.11 2.98 18.62-3.21 28.2-3.52 9.17-.29 17.77 4.96 23.93 11.76 6.15 6.81 10.34 15.11 14.9 23.07 11.19 19.51 25.42 37.84 44.34 50 18.93 12.16 43.1 17.47 64.43 10.33 16.72-5.6 30.01-17.96 42.34-30.75 1.65-1.7 3.27-3.41 4.89-5.12 22.76-24.02 45.52-48.04 68.28-72.05 16.04-16.93 35.43-44.71 61.69-27.47 13.2 8.66 20.02 24.18 24.77 39.22 4.75 15.05 8.33 30.93 17.64 43.67 9.3 12.75 26.48 21.51 41.06 15.47 8.95-3.72 16.08-12.51 25.77-12.67 4.27-.08 8.01 1.5 11.29 4.04z" fill="#50ba4a"/><path d="m511.39 273.6c-.59 8.84-1.64 17.57-3.12 26.14-1.22 7.12-2.74 14.14-4.55 21.04-1.41 5.41-2.99 10.75-4.75 16.01l-45.02 31.12c-59.68 41.25-129.05 61.05-197.95 59.8v-139.21c1.65-1.7 3.27-3.41 4.89-5.12 22.76-24.02 45.52-48.04 68.28-72.05 16.04-16.93 35.43-44.71 61.69-27.47 13.2 8.66 20.02 24.18 24.77 39.22 4.75 15.05 8.33 30.93 17.64 43.67 9.3 12.75 26.48 21.51 41.06 15.47 8.95-3.72 16.08-12.51 25.77-12.67 4.27-.08 8.01 1.5 11.29 4.05z" fill="#43af3e"/><path d="m498.97 336.79c-4.81 14.53-10.91 28.49-18.14 41.73-143.11 81.17-320.6 70.45-452.89-27.36l-13.38-9.89c-2.38-6.7-4.48-13.54-6.29-20.49-.22-.83-.43-1.67-.64-2.5 2.78-1.63 5.96-2.6 9.07-2.61 5.65-.01 9.63 5.21 15.24.44 5.76-4.9 2.08-13.04 7.35-17.61 3.12-2.71 9-2.72 11.77.27 3.31 3.58 4.3 7.22 9.52 8.97 4.52 1.52 9.72.83 13.68-1.82 3.44-2.3 5.83-5.85 8.97-8.54s7.78-4.48 11.37-2.43c5.5 3.14 4.67 12.72 10.46 15.28 3.08 1.36 6.71-.04 9.4-2.07 5.33-4.01 9.14-8.52 16.45-8.23 6.06.25 8.11 6.32 11.97 9.99 16.51 15.69 27.2-24.64 45.42-15.55 7.08 3.52 8.51 13.71 15.35 17.68 8.06 4.68 17.95-1.85 24.33-8.65 6.38-6.79 13.77-14.95 23.03-13.83 1.79.22 3.44.77 4.99 1.56 5.1 2.57 9.05 7.73 12.88 12.25 5.01 5.89 12.47 11.66 19.76 9.11 8.88-3.11 10.78-16.33 19.63-19.51 10.29-3.71 17.82 7.97 25.19 12.84 14.85 9.8 19.88-.7 30.43-11.79 4.59-4.82 9.37-9.78 15.51-12.36s14.06-2.16 18.52 2.79c7.38 8.19 2.12 23.94 11.2 30.19 10.38 7.14 25.97-7.45 36.41-.4 7.79 5.26 5.03 18.32 12.18 23.19 6.94 4.72 17.65-1.99 24.93-3.6 5.54-1.23 11.51-.04 16.33 2.95z" fill="#43af3e"/><path d="m498.97 336.79c-4.81 14.53-10.91 28.49-18.14 41.73-69.84 39.61-147.86 57.34-224.83 53.74v-141.13c5.1 2.57 9.05 7.73 12.88 12.25 5.01 5.89 12.47 11.66 19.76 9.11 8.88-3.11 10.78-16.33 19.63-19.51 10.29-3.71 17.82 7.97 25.19 12.84 14.85 9.8 19.88-.7 30.43-11.79 4.59-4.82 9.37-9.78 15.51-12.36s14.06-2.16 18.52 2.79c7.38 8.19 2.12 23.94 11.2 30.19 10.38 7.14 25.97-7.45 36.41-.4 7.79 5.26 5.03 18.32 12.18 23.19 6.94 4.72 17.65-1.99 24.93-3.6 5.54-1.23 11.51-.04 16.33 2.95z" fill="#008839"/><path d="m480.83 378.52c-43.44 79.53-127.84 133.48-224.83 133.48-1.68 0-3.36-.02-5.03-.05l-.1-.3c-1.81-5.54-9.59-5.66-11.58-.19-104.06-6.7-191.2-75.59-224.63-169.88-.01-.03-.02-.06-.03-.09-.02-.08-.05-.15-.07-.22 2.95 1.67 5.99 2.91 9.35 2.67 7.32-.53 11.97-7.73 17.52-12.53 13.74-11.91 35.54-9.18 50.85.63 15.31 9.82 26.03 25.15 37.74 39.06 11.72 13.91 25.9 27.32 43.76 30.72 43.05 8.22 73.49-36.88 95.99-65.58 11.51-14.68 30.53-27.59 47.82-20.59 15.26 6.17 21.51 24.84 35.27 33.88 11.83 7.78 27.25 7.18 41.15 4.53 13.91-2.65 27.77-7.08 41.89-6.02 18.6 1.41 28.76 15.69 41.49 27.31 1.15 1.05 2.3 2.1 3.44 3.17z" fill="#7e7f92"/><g><g><g><path d="m114.57 197.28h141.47v240.163h-141.47z" fill="#fffce4"/><path d="m185.3 197.28h70.74v240.163h-70.74z" fill="#f3e6d0"/><path d="m114.57 197.28h141.47v63.71h-141.47z" fill="#b15848"/><path d="m185.3 197.28h70.74v63.71h-70.74z" fill="#a44e3e"/><path d="m114.575 251.139h141.461v9.85h-141.461z" fill="#ed784a"/><path d="m185.294 251.139h70.742v9.85h-70.742z" fill="#d85e39"/></g><g><path d="m170.041 283.279v11.773h-10.835v-11.773c0-2.993 2.425-5.418 5.418-5.418 1.496 0 2.85.607 3.832 1.585.978.983 1.585 2.336 1.585 3.833z" fill="#6e6f83"/><path d="m170.041 283.279v11.773h-5.418v-17.191c1.496 0 2.85.607 3.832 1.585.979.983 1.586 2.336 1.586 3.833z" fill="#605f74"/><path d="m157.265 293.181h14.722v4.8h-14.722z" fill="#7e7f92"/><path d="m164.624 293.181h7.363v4.8h-7.363z" fill="#6e6f83"/></g><g><path d="m190.712 283.279v11.773h-10.835v-11.773c0-2.993 2.425-5.418 5.418-5.418 1.496 0 2.85.607 3.832 1.585.978.983 1.585 2.336 1.585 3.833z" fill="#6e6f83"/><path d="m190.712 283.279v11.773h-5.418v-17.191c1.496 0 2.85.607 3.832 1.585.979.983 1.586 2.336 1.586 3.833z" fill="#605f74"/><path d="m177.936 293.181h14.722v4.8h-14.722z" fill="#7e7f92"/><path d="m185.294 293.181h7.363v4.8h-7.363z" fill="#6e6f83"/></g><g><path d="m211.383 283.279v11.773h-10.835v-11.773c0-2.993 2.425-5.418 5.418-5.418 1.496 0 2.85.607 3.832 1.585.977.983 1.585 2.336 1.585 3.833z" fill="#6e6f83"/><path d="m211.383 283.279v11.773h-5.418v-17.191c1.496 0 2.85.607 3.832 1.585.978.983 1.586 2.336 1.586 3.833z" fill="#605f74"/><path d="m198.607 293.181h14.722v4.8h-14.722z" fill="#7e7f92"/><path d="m205.965 293.181h7.363v4.8h-7.363z" fill="#6e6f83"/></g><g><path d="m232.054 283.279v11.773h-10.835v-11.773c0-2.993 2.425-5.418 5.418-5.418 1.496 0 2.85.607 3.832 1.585.977.983 1.585 2.336 1.585 3.833z" fill="#6e6f83"/><path d="m232.054 283.279v11.773h-5.418v-17.191c1.496 0 2.85.607 3.832 1.585.978.983 1.586 2.336 1.586 3.833z" fill="#605f74"/><path d="m219.278 293.181h14.722v4.8h-14.722z" fill="#7e7f92"/><path d="m226.636 293.181h7.363v4.8h-7.363z" fill="#6e6f83"/></g></g><g><g><path d="m286.59 261.84h141.47v175.603h-141.47z" fill="#fffce4"/><path d="m357.32 261.84h70.74v175.603h-70.74z" fill="#f3e6d0"/><path d="m286.59 261.84h141.46v63.71h-141.46z" fill="#b15848"/><path d="m357.32 261.84h70.73v63.71h-70.73z" fill="#a44e3e"/><path d="m286.592 315.7h141.461v9.85h-141.461z" fill="#ed784a"/><path d="m357.311 315.7h70.742v9.85h-70.742z" fill="#d85e39"/></g><g><path d="m342.057 347.839v11.774h-10.835v-11.774c0-2.993 2.425-5.418 5.418-5.418 1.496 0 2.849.607 3.832 1.585.978.984 1.585 2.337 1.585 3.833z" fill="#6e6f83"/><path d="m342.057 347.839v11.774h-5.418v-17.191c1.496 0 2.849.607 3.832 1.585.979.983 1.586 2.336 1.586 3.832z" fill="#605f74"/><path d="m329.281 357.741h14.722v4.8h-14.722z" fill="#7e7f92"/><path d="m336.64 357.741h7.363v4.8h-7.363z" fill="#6e6f83"/></g><g><path d="m362.728 347.839v11.774h-10.835v-11.774c0-2.993 2.425-5.418 5.418-5.418 1.496 0 2.85.607 3.832 1.585.978.984 1.585 2.337 1.585 3.833z" fill="#6e6f83"/><path d="m362.728 347.839v11.774h-5.418v-17.191c1.496 0 2.85.607 3.832 1.585.979.983 1.586 2.336 1.586 3.832z" fill="#605f74"/><path d="m349.952 357.741h14.722v4.8h-14.722z" fill="#7e7f92"/><path d="m357.311 357.741h7.363v4.8h-7.363z" fill="#6e6f83"/></g><g><path d="m383.399 347.839v11.774h-10.835v-11.774c0-2.993 2.425-5.418 5.418-5.418 1.496 0 2.849.607 3.832 1.585.978.984 1.585 2.337 1.585 3.833z" fill="#6e6f83"/><path d="m383.399 347.839v11.774h-5.418v-17.191c1.496 0 2.849.607 3.832 1.585.979.983 1.586 2.336 1.586 3.832z" fill="#605f74"/><path d="m370.623 357.741h14.722v4.8h-14.722z" fill="#7e7f92"/><path d="m377.982 357.741h7.363v4.8h-7.363z" fill="#6e6f83"/></g><g><path d="m404.07 347.839v11.774h-10.835v-11.774c0-2.993 2.425-5.418 5.418-5.418 1.496 0 2.85.607 3.832 1.585.978.984 1.585 2.337 1.585 3.833z" fill="#6e6f83"/><path d="m404.07 347.839v11.774h-5.418v-17.191c1.496 0 2.85.607 3.832 1.585.979.983 1.586 2.336 1.586 3.832z" fill="#605f74"/><path d="m391.294 357.741h14.722v4.8h-14.722z" fill="#7e7f92"/><path d="m398.652 357.741h7.363v4.8h-7.363z" fill="#6e6f83"/></g></g><g><path d="m84.02 155.69h61.11v281.753h-61.11z" fill="#fffce4"/><path d="m114.57 155.69h30.56v281.753h-30.56z" fill="#f3e6d0"/><g><path d="m110.3 61.94h9v93.74h-9z" fill="#fff"/><path d="m114.571 61.94h4.729v93.74h-4.729z" fill="#dff7fd"/><path d="m152.21 155.69h-75.29l29.34-47.65h16.61z" fill="#b15848"/><path d="m152.21 155.69h-56.47l14.67-47.65h12.46z" fill="#a44e3e"/><path d="m152.221 155.685h-37.65v-47.65h8.31z" fill="#913d31"/></g><g><path d="m119.989 170.432v11.774h-10.835v-11.774c0-2.993 2.425-5.418 5.418-5.418 1.496 0 2.85.607 3.832 1.585.978.984 1.585 2.337 1.585 3.833z" fill="#6e6f83"/><path d="m119.989 170.432v11.774h-5.418v-17.191c1.496 0 2.85.607 3.832 1.585.979.983 1.586 2.336 1.586 3.832z" fill="#605f74"/><path d="m107.213 180.334h14.722v4.8h-14.722z" fill="#7e7f92"/><path d="m114.572 180.334h7.363v4.8h-7.363z" fill="#6e6f83"/></g><g><g><path d="m137.413 170.432v11.774h-10.835v-11.774c0-2.993 2.425-5.418 5.418-5.418 1.496 0 2.85.607 3.832 1.585.978.984 1.585 2.337 1.585 3.833z" fill="#6e6f83"/><path d="m137.413 170.432v11.774h-5.418v-17.191c1.496 0 2.85.607 3.832 1.585.979.983 1.586 2.336 1.586 3.832z" fill="#605f74"/><path d="m124.637 180.334h14.722v4.8h-14.722z" fill="#7e7f92"/><path d="m131.996 180.334h7.363v4.8h-7.363z" fill="#6e6f83"/></g><g><path d="m102.565 170.432v11.774h-10.835v-11.774c0-2.993 2.425-5.418 5.418-5.418 1.496 0 2.85.607 3.832 1.585.978.984 1.585 2.337 1.585 3.833z" fill="#6e6f83"/><path d="m102.565 170.432v11.774h-5.418v-17.191c1.496 0 2.85.607 3.832 1.585.979.983 1.586 2.336 1.586 3.832z" fill="#605f74"/><path d="m89.789 180.334h14.722v4.8h-14.722z" fill="#7e7f92"/><path d="m97.148 180.334h7.363v4.8h-7.363z" fill="#6e6f83"/></g></g><g><path d="m119.989 203.899v11.774h-10.835v-11.774c0-2.993 2.425-5.418 5.418-5.418 1.496 0 2.85.607 3.832 1.585.978.984 1.585 2.337 1.585 3.833z" fill="#6e6f83"/><path d="m119.989 203.899v11.774h-5.418v-17.191c1.496 0 2.85.607 3.832 1.585.979.983 1.586 2.336 1.586 3.832z" fill="#605f74"/><path d="m107.213 213.801h14.722v4.8h-14.722z" fill="#7e7f92"/><path d="m114.572 213.801h7.363v4.8h-7.363z" fill="#6e6f83"/></g><path d="m84.02 229.13h61.11v9.85h-61.11z" fill="#f3e6d0"/><path d="m114.57 229.13h30.56v9.85h-30.56z" fill="#ebd8c8"/><path d="m84.02 260.99h61.11v9.85h-61.11z" fill="#f3e6d0"/><path d="m114.57 260.99h30.56v9.85h-30.56z" fill="#ebd8c8"/></g><g><path d="m256.04 155.69h61.11v281.753h-61.11z" fill="#fffce4"/><path d="m286.59 155.69h30.56v281.753h-30.56z" fill="#f3e6d0"/><g><path d="m282.31 61.94h9v93.74h-9z" fill="#fff"/><path d="m286.58 61.94h4.73v93.74h-4.73z" fill="#dff7fd"/><path d="m324.228 155.685h-75.29l29.34-47.65h16.61z" fill="#b15848"/><path d="m324.228 155.685h-56.47l14.67-47.65h12.46z" fill="#a44e3e"/><path d="m324.238 155.685h-37.65v-47.65h8.31z" fill="#913d31"/></g><g><path d="m292.006 170.432v11.774h-10.835v-11.774c0-2.993 2.425-5.418 5.418-5.418 1.496 0 2.849.607 3.832 1.585.977.984 1.585 2.337 1.585 3.833z" fill="#6e6f83"/><path d="m292.006 170.432v11.774h-5.418v-17.191c1.496 0 2.849.607 3.832 1.585.978.983 1.586 2.336 1.586 3.832z" fill="#605f74"/><path d="m279.23 180.334h14.722v4.8h-14.722z" fill="#7e7f92"/><path d="m286.588 180.334h7.363v4.8h-7.363z" fill="#6e6f83"/></g><g><g><path d="m309.43 170.432v11.774h-10.835v-11.774c0-2.993 2.425-5.418 5.418-5.418 1.496 0 2.85.607 3.832 1.585.977.984 1.585 2.337 1.585 3.833z" fill="#6e6f83"/><path d="m309.43 170.432v11.774h-5.418v-17.191c1.496 0 2.85.607 3.832 1.585.978.983 1.586 2.336 1.586 3.832z" fill="#605f74"/><path d="m296.654 180.334h14.722v4.8h-14.722z" fill="#7e7f92"/><path d="m304.012 180.334h7.363v4.8h-7.363z" fill="#6e6f83"/></g><g><path d="m274.582 170.432v11.774h-10.835v-11.774c0-2.993 2.425-5.418 5.418-5.418 1.496 0 2.85.607 3.832 1.585.977.984 1.585 2.337 1.585 3.833z" fill="#6e6f83"/><path d="m274.582 170.432v11.774h-5.418v-17.191c1.496 0 2.85.607 3.832 1.585.978.983 1.586 2.336 1.586 3.832z" fill="#605f74"/><path d="m261.806 180.334h14.722v4.8h-14.722z" fill="#7e7f92"/><path d="m269.164 180.334h7.363v4.8h-7.363z" fill="#6e6f83"/></g></g><g><path d="m292.006 203.899v11.774h-10.835v-11.774c0-2.993 2.425-5.418 5.418-5.418 1.496 0 2.849.607 3.832 1.585.977.984 1.585 2.337 1.585 3.833z" fill="#6e6f83"/><path d="m292.006 203.899v11.774h-5.418v-17.191c1.496 0 2.849.607 3.832 1.585.978.983 1.586 2.336 1.586 3.832z" fill="#605f74"/><path d="m279.23 213.801h14.722v4.8h-14.722z" fill="#7e7f92"/><path d="m286.588 213.801h7.363v4.8h-7.363z" fill="#6e6f83"/></g><path d="m256.037 229.13h61.11v9.85h-61.11z" fill="#f3e6d0"/><path d="m286.587 229.13h30.56v9.85h-30.56z" fill="#ebd8c8"/><path d="m256.037 260.99h61.11v9.85h-61.11z" fill="#f3e6d0"/><path d="m286.587 260.99h30.56v9.85h-30.56z" fill="#ebd8c8"/></g></g><path d="m434.14 439.84c-.04.04-.08.08-.11.12-46.08 44.59-108.85 72.04-178.03 72.04-1.68 0-3.36-.02-5.03-.05l-.1-.3c-1.81-5.54-9.59-5.66-11.58-.19v.01c-82.72-5.34-154.74-49.95-197.6-115.39-.01-.01-.01-.03-.03-.04-.05-.09-.1-.18-.15-.26 4.34-5.06 8.46-10.3 12.36-15.7 8.92-12.37 29.55-49.01 48.71-38.8 6.45 3.44 12.12 9.31 19.42 9.55 13.96.46 16.33-15.25 25.74-21.72 10.88-7.47 35.51-2.12 48.27-1.92 10.07.16 20.83.12 29.24-5.42 5.85-3.85 9.9-9.99 15.73-13.87 6.06-4.03 10.81-3.44 15.02-.74 10.23 6.52 17.22 25.37 31.77 20.1 4.72-1.71 7.83-6.29 12.26-8.65 7.68-4.1 17.66-.38 23.39 6.17 15.16 17.33 17.36 44.28 30.34 63.53 3.08 4.56 6.88 9.23 12.24 10.47 10.47 2.43 16.21-8.79 26.93-5.65 9.03 2.64 15.54 10.9 20.8 18.23 6.8 9.49 13.61 18.99 20.41 28.48z" fill="#6e6f83"/><path d="m434.14 439.84c-8.93 8.66-18.5 16.67-28.61 23.96-41.87 30.19-93.23 48.03-148.74 48.2h-.79v-204.84c10.23 6.52 17.22 25.37 31.77 20.1 4.72-1.71 7.83-6.29 12.26-8.65 7.68-4.1 17.66-.38 23.39 6.17 15.16 17.33 17.36 44.28 30.34 63.53 3.08 4.56 6.88 9.23 12.24 10.47 10.47 2.43 16.21-8.79 26.93-5.65 9.03 2.64 15.54 10.9 20.8 18.23 6.8 9.49 13.61 18.99 20.41 28.48z" fill="#605f74"/><g><path d="m305.44 429.093h-9.062l.485-14.725.597-18.089h6.898l.597 18.089z" fill="#ec771b"/><path d="m305.44 429.093h-4.358v-32.814h3.276l.597 18.089z" fill="#c55732"/><path d="m301.082 396.279v18.089h-4.219l.597-18.089z" fill="#c55732"/><path d="m304.955 414.368h-3.873v-18.089h3.276z" fill="#a44e3e"/><g><path d="m315.157 402.036c-3.898 3.72-8.986 5.581-14.075 5.581-5.088 0-10.177-1.86-14.075-5.581-6.218-5.934-7.462-14.818-3.731-21.932 3.902-7.44 7.976-14.794 11.292-22.496l6.514-15.133 6.503 15.103c3.322 7.714 7.402 15.079 11.307 22.532 3.727 7.113 2.483 15.994-3.735 21.926z" fill="#b6e337"/><path d="m315.157 402.036c-3.898 3.72-8.986 5.581-14.075 5.581-2.414 0-4.828-1.86-6.678-5.581-2.99-6.015-3.556-15.061-1.696-22.222 2.586-9.959 4.878-20.217 7.001-30.611l1.374-6.729 6.503 15.103c3.322 7.714 7.402 15.079 11.307 22.532 3.726 7.114 2.482 15.995-3.736 21.927z" fill="#6cdc2d"/><path d="m315.157 402.036c-3.898 3.72-8.986 5.581-14.075 5.581v-65.142l6.503 15.103c3.322 7.714 7.402 15.079 11.307 22.532 3.727 7.113 2.483 15.994-3.735 21.926z" fill="#50ba4a"/></g></g><g><path d="m132.92 439.424h-8.241l.441-13.389.543-16.449h6.273l.543 16.449z" fill="#ec771b"/><path d="m132.92 439.424h-3.963v-29.838h2.979l.543 16.449z" fill="#c55732"/><path d="m128.957 409.586v16.449h-3.837l.543-16.449z" fill="#c55732"/><path d="m132.479 426.035h-3.522v-16.449h2.979z" fill="#a44e3e"/><g><path d="m141.756 414.821c-3.544 3.383-8.172 5.075-12.799 5.075s-9.254-1.692-12.799-5.075c-5.654-5.396-6.785-13.475-3.393-19.944 3.548-6.766 7.253-13.453 10.268-20.457l5.924-13.761 5.913 13.733c3.02 7.015 6.731 13.713 10.282 20.49 3.39 6.468 2.258 14.544-3.396 19.939z" fill="#b6e337"/><path d="m141.756 414.821c-3.544 3.383-8.172 5.075-12.799 5.075-2.195 0-4.39-1.692-6.073-5.075-2.719-5.469-3.234-13.695-1.543-20.208 2.352-9.056 4.435-18.385 6.366-27.836l1.249-6.119 5.913 13.733c3.02 7.015 6.731 13.713 10.282 20.49 3.391 6.469 2.259 14.545-3.395 19.94z" fill="#6cdc2d"/><path d="m141.756 414.821c-3.544 3.383-8.172 5.075-12.799 5.075v-59.237l5.913 13.733c3.02 7.015 6.731 13.713 10.282 20.49 3.39 6.468 2.258 14.544-3.396 19.939z" fill="#50ba4a"/></g></g><path d="m405.53 463.8c-.12.08-.23.17-.35.26-42.01 30.17-93.52 47.94-149.18 47.94-1.68 0-3.36-.02-5.03-.05l-.1-.3c-1.81-5.54-9.59-5.66-11.58-.19-55.68-3.58-106.51-24.98-146.87-58.54 12.44-11.94 26.72-21.06 43.56-21.43 12.88-.28 26.62 4.68 38.16-1.05 16.75-8.32 21.89-35.98 40.58-36.04 18.42-.06 24.41 27.15 41.28 34.15.41.17.82.33 1.24.47 17.7 6.1 38.05-12.9 54.65-4.25 10.1 5.26 13.19 18.22 21.17 26.34 15.39 15.65 41.34 8.44 63.14 10.95 3.19.37 6.3.95 9.33 1.74z" fill="#605f74"/><path d="m405.53 463.8c-41.87 30.19-93.23 48.03-148.74 48.2h-.79v-83.45c.41.17.82.33 1.24.47 17.7 6.1 38.05-12.9 54.65-4.25 10.1 5.26 13.19 18.22 21.17 26.34 15.39 15.65 41.34 8.44 63.14 10.95 3.19.37 6.3.95 9.33 1.74z" fill="#58586b"/><g><path d="m246.131 71.069c0-.065.005-.129.005-.195 0-11.925-9.667-21.592-21.592-21.592-2.833 0-5.536.551-8.014 1.543-4.788-8.578-13.949-14.381-24.47-14.381-13.663 0-25.035 9.785-27.506 22.727-.737-.106-1.489-.163-2.255-.163-7.428 0-13.652 5.142-15.316 12.06h99.148z" fill="#fff"/><path d="m225.064 71.069c0-.037.003-.074.003-.112 0-6.857-5.559-12.416-12.415-12.416-1.629 0-3.183.317-4.609.887-2.753-4.932-8.021-8.27-14.071-8.27-7.856 0-14.396 5.626-15.817 13.069-.424-.061-.856-.094-1.297-.094-4.271 0-7.85 2.957-8.807 6.935h57.013z" fill="#dff7fd"/></g><g><path d="m447.094 128.649c0-.065.005-.129.005-.194 0-11.925-9.667-21.592-21.592-21.592-2.833 0-5.536.551-8.014 1.543-4.788-8.578-13.949-14.381-24.47-14.381-13.663 0-25.035 9.785-27.506 22.727-.737-.106-1.489-.163-2.255-.163-7.428 0-13.652 5.142-15.316 12.06z" fill="#fff"/><path d="m426.027 128.649c0-.037.003-.074.003-.112 0-6.857-5.559-12.416-12.415-12.416-1.629 0-3.183.317-4.609.887-2.753-4.932-8.021-8.27-14.071-8.27-7.856 0-14.396 5.626-15.817 13.069-.424-.061-.856-.094-1.297-.094-4.272 0-7.85 2.957-8.807 6.935h57.013z" fill="#dff7fd"/></g><g><path d="m250.97 511.95c-3.92-.07-7.81-.24-11.68-.49l.55-16.67.78-23.63h9.01l.78 23.63z" fill="#ec771b"/><path d="m250.97 511.95c-1.88-.03-3.75-.09-5.62-.17v-40.62h4.28l.78 23.63z" fill="#c55732"/><path d="m245.35 471.159v23.627h-5.512l.78-23.627z" fill="#c55732"/><path d="m250.408 494.786h-5.058v-23.627h4.279z" fill="#a44e3e"/><g><path d="m263.734 478.678c-5.091 4.859-11.738 7.289-18.384 7.289s-13.292-2.43-18.385-7.289c-8.122-7.751-9.746-19.355-4.873-28.647 5.096-9.718 10.419-19.323 14.749-29.384l8.508-19.767 8.494 19.727c4.339 10.076 9.668 19.697 14.769 29.431 4.869 9.291 3.243 20.892-4.878 28.64z" fill="#b6e337"/><path d="m263.734 478.678c-5.091 4.859-11.738 7.289-18.384 7.289-3.153 0-6.306-2.43-8.723-7.289-3.906-7.856-4.645-19.672-2.216-29.026 3.378-13.009 6.371-26.407 9.144-39.983l1.794-8.789 8.494 19.727c4.339 10.076 9.668 19.697 14.769 29.431 4.869 9.291 3.243 20.892-4.878 28.64z" fill="#6cdc2d"/><path d="m263.734 478.678c-5.091 4.859-11.738 7.289-18.384 7.289v-85.087l8.494 19.727c4.339 10.076 9.668 19.697 14.769 29.431 4.868 9.291 3.242 20.892-4.879 28.64z" fill="#50ba4a"/></g></g></g></g></svg>