<svg id="Capa_1" enable-background="new 0 0 512 512" height="512" viewBox="0 0 512 512" width="512" xmlns="http://www.w3.org/2000/svg"><g><path d="m512 256c0 14.91-1.28 29.53-3.73 43.74-.46 2.71-.97 5.41-1.53 8.09-.89 4.36-1.9 8.68-3.02 12.95-10.29 39.5-29.79 75.28-56.06 104.93l-14.65 6.3c-118.12 50.77-252.34 48.48-368.66-6.29h-.01c-13.38-15.1-25.01-31.8-34.55-49.78-9.2-17.3-16.46-35.78-21.52-55.16-1.8-6.9-3.32-13.92-4.54-21.04-.48-2.76-.91-5.54-1.29-8.33-.8-5.72-1.41-11.51-1.81-17.35-.42-5.96-.63-11.99-.63-18.06 0-46.22 12.25-89.57 33.68-127 44.12-77.07 127.16-129 222.32-129s178.2 51.93 222.32 129c12.98 22.67 22.59 47.52 28.15 73.86 3.46 16.36 5.35 33.28 5.52 50.62.01.84.01 1.68.01 2.52z" fill="#4e689b"/><g><path d="m512 256c0 22.38-2.87 44.09-8.27 64.78-6.07 23.28-15.34 45.27-27.31 65.47-8.33 14.08-17.98 27.29-28.76 39.46l-14.65 6.3c-118.11 50.77-252.33 48.48-368.65-6.28-10.56-11.9-20.01-24.8-28.22-38.53-12.24-20.46-21.7-42.77-27.87-66.42-5.39-20.69-8.27-42.4-8.27-64.78 0-46.22 12.25-89.57 33.68-127 44.12 77.07 127.16 129 222.32 129s178.2-51.93 222.32-129c21.43 37.43 33.68 80.78 33.68 127z" fill="#374c81"/></g><g><path d="m506.74 307.83c-.89 4.36-1.9 8.68-3.02 12.95-10.29 39.5-29.79 75.28-56.06 104.93l-14.65 6.3c-118.12 50.77-252.35 48.48-368.67-6.29-13.38-15.1-25.01-31.8-34.55-49.78-9.2-17.3-16.46-35.78-21.52-55.16-1.8-6.9-3.32-13.92-4.54-21.04-.48-2.76-.91-5.54-1.29-8.33h33.69v-57.43h62.46v28.72h36.92v-139.7l55.28 55.28v48.16h141.37v40.36h48.43v-80.94h67.07v56.32h30.53v65.65z" fill="#9596a5"/><path d="m506.74 307.83c-.89 4.36-1.9 8.68-3.02 12.95-10.29 39.5-29.79 75.28-56.06 104.93l-14.65 6.3c-56.56 24.31-116.81 36.46-177.01 36.5v-242.07h76.16v40.36h48.43v-80.94h67.07v56.32h30.53v65.65z" fill="#7e7f92"/><g><g><path d="m156.021 323.67v33.381h-82.045v-33.381l41.022-48.946z" fill="#ebd8c8"/><path d="m156.021 323.67v33.381h-41.023v-82.327z" fill="#e0c8b6"/><path d="m165.66 340.64v154.95c-16.66-6.27-32.49-14.25-47.28-23.69-1.14-.72-2.26-1.46-3.38-2.2-17.7-11.7-33.86-25.54-48.11-41.15-.86-.94-1.7-1.88-2.55-2.83v-85.08z" fill="#fff"/><path d="m165.66 340.64v154.95c-17.93-6.75-34.91-15.48-50.66-25.89v-129.06z" fill="#dff7fd"/><path d="m73.976 357.049h82.046v16.409h-82.046z" fill="#ff9f00"/><path d="m73.978 389.866h82.041v16.411h-82.041z" fill="#ffc300"/><path d="m114.998 389.866h41.021v16.411h-41.021z" fill="#ff9f00"/><g><path d="m73.978 357.051h49.226v16.405h-49.226z" fill="#605f74"/><path d="m139.612 357.049h16.409v16.409h-16.409z" fill="#58586b"/></g><g><path d="m139.612 389.867h16.409v16.409h-16.409z" fill="#58586b"/></g><path d="m114.998 357.051h8.205v16.405h-8.205z" fill="#58586b"/><path d="m156.02 422.68v16.41h-78.94c-1.04-1.02-2.08-2.04-3.1-3.08v-13.33z" fill="#ffc300"/><path d="m115.002 422.681h41.017v16.411h-41.017z" fill="#ff9f00"/><g><path d="m139.612 422.681h16.409v16.409h-16.409z" fill="#58586b"/></g><path d="m106.79 422.68v16.41h-29.71c-1.04-1.02-2.08-2.04-3.1-3.08v-13.33z" fill="#605f74"/><path d="m156.02 455.49v16.41h-37.62c-1.14-.72-2.27-1.46-3.4-2.2-6.71-4.44-13.2-9.18-19.45-14.21z" fill="#ffc300"/><path d="m156.02 455.49v16.41h-37.64c-1.14-.72-2.26-1.46-3.38-2.2v-14.21z" fill="#ff9f00"/><path d="m139.612 455.491h-16.409v16.409h16.409 16.409v-16.409z" fill="#58586b"/><path d="m156.02 488.3v3.43c-2.59-1.1-5.16-2.24-7.71-3.43z" fill="#ffc300"/><g><path d="m106.8 455.49v8.55c-3.83-2.75-7.58-5.6-11.25-8.55z" fill="#58586b"/></g></g><g><path d="m206.23 242.18v269.82h-27.8v-11.97c-4.31-1.37-8.57-2.85-12.77-4.44-3.25-1.22-6.46-2.51-9.64-3.86-2.59-1.1-5.16-2.24-7.71-3.43-3.56-1.65-7.07-3.38-10.53-5.19v-188.06c0-16.64 10.38-31.52 26-37.26z" fill="#fff"/><path d="m206.23 257.13v250.03c-9.46-1.86-18.74-4.25-27.8-7.13v-204.98c0-16.64 10.38-31.52 26.01-37.26z" fill="#dff7fd"/><path d="m153.819 307.825h52.415v16.403h-52.415z" fill="#ffc300"/><path d="m153.819 340.64h52.415v16.412h-52.415z" fill="#ffc300"/><path d="m153.819 373.455h52.415v16.411h-52.415z" fill="#ffc300"/><path d="m186.636 373.458h16.409v16.409h-16.409z" fill="#605f74"/><path d="m153.819 406.278h52.415v16.412h-52.415z" fill="#ffc300"/><path d="m186.636 406.276h16.409v16.409h-16.409z" fill="#605f74"/><path d="m170.227 406.276h16.409v16.409h-16.409z" fill="#605f74"/><path d="m153.819 439.092h52.415v16.411h-52.415z" fill="#ffc300"/><path d="m186.636 439.095h16.409v16.409h-16.409z" fill="#605f74"/><path d="m153.819 471.915h52.415v16.403h-52.415z" fill="#ffc300"/><g fill="#605f74"><path d="m186.636 471.913h16.409v16.409h-16.409z"/><path d="m153.818 471.913h16.409v16.409h-16.409z"/><path d="m153.818 307.822h16.409v16.409h-16.409z"/><path d="m170.227 307.822h16.409v16.409h-16.409z"/><path d="m170.227 340.64h16.409v16.409h-16.409z"/><path d="m153.818 373.458h16.409v16.409h-16.409z"/></g></g><g><path d="m242.56 135.74h9.39v74.01h-9.39z" fill="#fff"/><path d="m247.26 135.74h4.69v74.01h-4.69z" fill="#dff7fd"/><path d="m206.233 193.062h82.046v33.38h-82.046z" fill="#ebd8c8"/><path d="m247.256 193.062h41.023v33.38h-41.023z" fill="#e0c8b6"/><path d="m297.91 209.75v298.83c-13.39 2.21-27.12 3.37-41.12 3.42h-.79c-17.03 0-33.67-1.66-49.77-4.84-3.23-.64-6.44-1.33-9.63-2.09v-295.32z" fill="#f3e6d0"/><path d="m297.91 209.75v298.83c-13.39 2.21-27.12 3.37-41.12 3.42h-.79c-2.93 0-5.84-.05-8.74-.15v-302.1z" fill="#ebd8c8"/><path d="m206.235 225.777h82.041v16.405h-82.041z" fill="#ffc300"/><path d="m247.256 225.777h41.021v16.405h-41.021z" fill="#ff9f00"/><path d="m206.233 258.594h82.046v16.409h-82.046z" fill="#ffc300"/><path d="m206.235 291.414h82.041v16.405h-82.041z" fill="#ffc300"/><path d="m247.256 291.414h41.021v16.405h-41.021z" fill="#ff9f00"/><path d="m206.235 324.229h82.041v16.41h-82.041z" fill="#ffc300"/><path d="m247.256 324.229h41.021v16.41h-41.021z" fill="#ff9f00"/><path d="m206.233 357.049h82.046v16.409h-82.046z" fill="#ff9f00"/><path d="m206.235 389.866h82.041v16.411h-82.041z" fill="#ffc300"/><path d="m247.256 389.866h41.021v16.411h-41.021z" fill="#ff9f00"/><path d="m222.64 225.777h32.821v16.405h-32.821z" fill="#605f74"/><g><path d="m206.233 258.594h16.409v16.409h-16.409z" fill="#605f74"/><path d="m239.05 258.593h16.41v16.411h-16.41z" fill="#605f74"/><path d="m271.869 258.594h16.409v16.409h-16.409z" fill="#58586b"/></g><g><path d="m239.05 291.414h16.41v16.405h-16.41z" fill="#605f74"/><path d="m271.869 291.413h16.409v16.409h-16.409z" fill="#58586b"/></g><g><path d="m206.233 324.231h16.409v16.409h-16.409z" fill="#605f74"/><path d="m271.869 324.231h16.409v16.409h-16.409z" fill="#58586b"/></g><g><path d="m206.235 357.051h49.226v16.405h-49.226z" fill="#605f74"/><path d="m271.869 357.049h16.409v16.409h-16.409z" fill="#58586b"/></g><g><path d="m271.869 389.867h16.409v16.409h-16.409z" fill="#58586b"/></g><g fill="#58586b"><path d="m247.256 225.777h8.205v16.405h-8.205z"/><path d="m247.256 258.593h8.205v16.411h-8.205z"/><path d="m247.256 291.414h8.205v16.405h-8.205z"/><path d="m247.256 357.051h8.205v16.405h-8.205z"/></g><path d="m206.235 422.681h82.041v16.411h-82.041z" fill="#ffc300"/><path d="m247.259 422.681h41.016v16.411h-41.016z" fill="#ff9f00"/><g><path d="m271.869 422.681h16.409v16.409h-16.409z" fill="#58586b"/></g><path d="m222.642 422.681h-16.409v16.409h16.409 16.409v-16.409z" fill="#605f74"/><path d="m206.235 455.488h82.041v16.412h-82.041z" fill="#ffc300"/><path d="m247.259 455.488h41.016v16.412h-41.016z" fill="#ff9f00"/><path d="m271.869 455.491h-16.409v16.409h16.409 16.41v-16.409z" fill="#58586b"/><path d="m206.235 488.303h82.041v16.403h-82.041z" fill="#ffc300"/><path d="m247.259 488.303h41.016v16.403h-41.016z" fill="#ff9f00"/><g><path d="m271.869 488.3h16.409v16.409h-16.409z" fill="#58586b"/></g><g><path d="m222.643 455.491h16.409v16.409h-16.409z" fill="#58586b"/></g></g><g><path d="m355.979 258.034h82.046v33.38h-82.046z" fill="#ebd8c8"/><path d="m397.002 258.034h41.023v33.38h-41.023z" fill="#e0c8b6"/><path d="m447.66 274.72v150.99c-.84.95-1.69 1.9-2.55 2.84-13.65 14.95-29.05 28.27-45.88 39.65-11.24 7.6-23.12 14.34-35.54 20.1-4.95 2.31-10 4.45-15.12 6.44-.74.29-1.48.57-2.23.85v-220.87z" fill="#f3e6d0"/><path d="m355.981 291.414h82.041v16.405h-82.041z" fill="#ffc300"/><path d="m397.002 291.414h41.021v16.405h-41.021z" fill="#ff9f00"/><path d="m355.981 324.229h82.041v16.41h-82.041z" fill="#ffc300"/><path d="m397.002 324.229h41.021v16.41h-41.021z" fill="#ff9f00"/><path d="m355.979 357.049h82.046v16.409h-82.046z" fill="#ff9f00"/><path d="m355.981 389.866h82.041v16.411h-82.041z" fill="#ffc300"/><path d="m397.002 389.866h41.021v16.411h-41.021z" fill="#ff9f00"/><g><path d="m388.796 291.414h16.411v16.405h-16.411z" fill="#605f74"/><path d="m421.615 291.413h16.409v16.409h-16.409z" fill="#58586b"/></g><g><path d="m355.979 324.231h16.409v16.409h-16.409z" fill="#605f74"/><path d="m421.615 324.231h16.409v16.409h-16.409z" fill="#58586b"/></g><g><path d="m355.981 357.051h49.226v16.405h-49.226z" fill="#605f74"/><path d="m421.615 357.049h16.409v16.409h-16.409z" fill="#58586b"/></g><g><path d="m421.615 389.867h16.409v16.409h-16.409z" fill="#58586b"/></g><path d="m397.002 291.414h8.205v16.405h-8.205z" fill="#58586b"/><path d="m397.002 357.051h8.205v16.405h-8.205z" fill="#58586b"/><path d="m438.02 422.68v13.33c-1.03 1.04-2.06 2.06-3.1 3.08h-78.94v-16.41z" fill="#ffc300"/><path d="m438.02 422.68v13.33c-1.03 1.04-2.06 2.06-3.1 3.08h-37.91v-16.41z" fill="#ff9f00"/><g><path d="m438.02 422.68v13.33c-1.03 1.04-2.06 2.06-3.1 3.08h-13.3v-16.41z" fill="#58586b"/></g><path d="m372.388 422.681h-16.409v16.409h16.409 16.409v-16.409z" fill="#605f74"/><path d="m416.43 455.49c-3.66 2.95-7.4 5.8-11.22 8.53-1.97 1.43-3.97 2.82-5.98 4.18-.74.5-1.48 1-2.22 1.48-1.13.75-2.27 1.49-3.42 2.22h-37.61v-16.41z" fill="#ffc300"/><path d="m416.43 455.49c-3.66 2.95-7.4 5.8-11.22 8.53-1.97 1.43-3.97 2.82-5.98 4.18-.74.5-1.48 1-2.22 1.48v-14.19z" fill="#ff9f00"/><path d="m416.43 455.49c-3.66 2.95-7.4 5.8-11.22 8.53v-8.53z" fill="#58586b"/><g><path d="m372.389 455.491h16.409v16.409h-16.409z" fill="#58586b"/></g></g><g><g><path d="m389.596 291.271v65.919h-82.049v-33.377l41.025-16.267z" fill="#dff7fd"/><path d="m389.596 291.271v65.919h-41.024v-49.644z" fill="#c5f2f9"/></g><path d="m399.23 340.64v127.56c-29.88 20.22-64.26 34.28-101.32 40.38v-167.94z" fill="#fff"/><path d="m399.23 340.64v127.56c-15.73 10.64-32.7 19.58-50.66 26.54v-154.1z" fill="#dff7fd"/><path d="m307.547 357.049h82.046v16.409h-82.046z" fill="#ff9f00"/><path d="m307.549 389.866h82.041v16.411h-82.041z" fill="#ffc300"/><path d="m348.57 389.866h41.021v16.411h-41.021z" fill="#ff9f00"/><g><path d="m307.549 357.051h49.226v16.405h-49.226z" fill="#605f74"/><path d="m373.183 357.049h16.409v16.409h-16.409z" fill="#58586b"/></g><g><path d="m373.183 389.867h16.409v16.409h-16.409z" fill="#58586b"/></g><path d="m348.57 357.051h8.205v16.405h-8.205z" fill="#58586b"/><path d="m307.549 422.681h82.041v16.411h-82.041z" fill="#ffc300"/><path d="m348.573 422.681h41.016v16.411h-41.016z" fill="#ff9f00"/><g><path d="m373.183 422.681h16.409v16.409h-16.409z" fill="#58586b"/></g><path d="m323.956 422.681h-16.409v16.409h16.409 16.409v-16.409z" fill="#605f74"/><path d="m307.549 455.488h82.041v16.412h-82.041z" fill="#ffc300"/><path d="m348.573 455.488h41.016v16.412h-41.016z" fill="#ff9f00"/><path d="m373.183 455.491h-16.409v16.409h16.409 16.409v-16.409z" fill="#58586b"/><path d="m363.69 488.3c-4.95 2.31-10 4.45-15.12 6.44-10.26 3.99-20.85 7.33-31.72 9.97h-9.3v-16.41z" fill="#ffc300"/><path d="m363.69 488.3c-4.95 2.31-10 4.45-15.12 6.44v-6.44z" fill="#ff9f00"/><g><path d="m323.957 455.491h16.409v16.409h-16.409z" fill="#58586b"/></g></g></g></g><g><g><path d="m227.135 59.577h-1.524c-6.753 0-12.227-5.474-12.227-12.227v-1.524h-8.716v1.524c0 6.753-5.474 12.227-12.227 12.227h-1.525v8.716h1.525c6.753 0 12.227 5.474 12.227 12.227v1.525h8.716v-1.525c0-6.753 5.474-12.227 12.227-12.227h1.524z" fill="#fff"/></g></g><g><g><path d="m343.376 145.307h-1.524c-6.753 0-12.227-5.474-12.227-12.227v-1.524h-8.716v1.524c0 6.753-5.474 12.227-12.227 12.227h-1.525v8.716h1.525c6.753 0 12.227 5.474 12.227 12.227v1.525h8.716v-1.525c0-6.753 5.474-12.227 12.227-12.227h1.524z" fill="#fff"/></g></g><g><g><path d="m428.608 93.08h-1.223c-5.419 0-9.813-4.393-9.813-9.813v-1.223h-6.995v1.223c0 5.419-4.393 9.813-9.813 9.813h-1.224v6.995h1.224c5.419 0 9.813 4.393 9.813 9.813v1.224h6.995v-1.224c0-5.419 4.393-9.813 9.813-9.813h1.223z" fill="#fff"/></g></g><g><g><path d="m93.304 162.383h-1.41c-6.245 0-11.308-5.063-11.308-11.308v-1.41h-8.061v1.41c0 6.245-5.063 11.308-11.308 11.308h-1.41v8.061h1.41c6.245 0 11.308 5.063 11.308 11.308v1.41h8.061v-1.41c0-6.245 5.063-11.308 11.308-11.308h1.41z" fill="#fff"/></g></g></g></svg>