<svg height="512pt" viewBox="0 0 512.00011 512" width="512pt" xmlns="http://www.w3.org/2000/svg"><path d="m512 256c0 103.953125-61.960938 193.429688-150.964844 233.523438h-45.1875v15.425781c-19.199218 4.597656-39.238281 7.050781-59.847656 7.050781-24.167969 0-47.554688-3.363281-69.71875-9.625-2.722656-.769531-4.613281-3.242188-4.613281-6.070312 0-7.980469-6.46875-14.445313-14.445313-14.445313h-27.085937c-3.179688 0-6.300781-.828125-9.074219-2.382813-77.851562-43.617187-130.589844-126.722656-131.05859375-222.195312-.69531225-141.535156 114.46093775-257.28125 255.99609375-257.28125 141.386719 0 256 114.617188 256 256zm0 0" fill="#f7ad3b"/><path d="m466.464844 321.734375-189.398438 189.398437c-6.949218.566407-13.972656.867188-21.066406.867188-24.550781 0-48.285156-3.46875-70.761719-9.921875-2.125-.609375-3.570312-2.570313-3.570312-4.777344 0-8.527343-6.914063-15.441406-15.445313-15.441406h-26.625c-2.746094 0-5.460937-.671875-7.863281-2.007813-78.570313-43.707031-131.734375-127.566406-131.734375-223.851562 0-61.421875 21.640625-117.78125 57.695312-161.894531l36.410157-36.410157c21.773437-17.796874 46.527343-32.082031 73.40625-41.984374l298.953125 298.953124c1.953125 1.949219 1.953125 5.117188 0 7.070313zm0 0" fill="#ec3c52"/><path d="m415.984375 269.726562c7.953125 20.0625 6.527344 42.78125-4.4375 61.367188-.074219.121094-.144531.242188-.214844.363281-8.304687 13.9375-19.492187 25.402344-32.574219 33.25-8.390624 5.03125-13.675781 13.953125-13.675781 23.734375v99.203125c-17.378906 8.199219-35.828125 14.496094-55.082031 18.628907v-83.191407h.070312v-131.027343h-.070312v-255.449219c0-2.777344 1.90625-5.222657 4.617188-5.8125 16.460937-3.59375 32.417968 5.351562 38.320312 20.324219zm0 0" fill="#dcdce1"/><path d="m245.613281 169.144531c2.855469 23.222657-1.625 46.917969-13.601562 67.023438-8.300781 13.933593-19.492188 25.398437-32.574219 33.246093-8.386719 5.035157-13.671875 13.953126-13.671875 23.738282v209.089844c-19.402344-5.523438-37.859375-13.292969-55.085937-22.980469v-186.109375c0-9.785156-5.28125-18.703125-13.671876-23.738282-13.082031-7.847656-24.273437-19.3125-32.574218-33.246093-11.976563-20.105469-16.457032-43.800781-13.601563-67.023438l8-97.925781c6.277344-6.019531 12.859375-11.71875 19.722657-17.082031l9.773437 116.894531c.96875 7.753906 7.558594 13.570312 15.371094 13.570312h.191406c7.8125 0 14.402344-5.816406 15.371094-13.570312l11.222656-134.207031c.488281-3.898438 3.800781-6.824219 7.730469-6.824219h.015625c3.929687 0 7.242187 2.925781 7.730469 6.824219l11.222656 134.207031c.96875 7.753906 7.558594 13.570312 15.371094 13.570312 7.800781 0 14.382812-5.800781 15.367187-13.539062l11.40625-134.253906c.496094-3.890625 3.808594-6.808594 7.730469-6.808594h.015625c3.933593 0 7.25 2.933594 7.734375 6.839844zm106.960938 233.976563c-6.90625 0-12.507813 5.601562-12.507813 12.507812v7.453125h-.066406v74.800781c8.578125-2.980468 16.949219-6.402343 25.082031-10.238281v-72.015625c0-6.90625-5.597656-12.507812-12.507812-12.507812zm63.410156-133.394532-63.046875-218.605468c-2.597656-6.585938-7.136719-12.003906-12.808594-15.703125-.078125.386719-.128906.78125-.128906 1.1875v255.449219h.070312v29.839843c0 22.769531 18.457032 41.230469 41.226563 41.230469 11.992187-7.773438 22.273437-18.640625 30.035156-31.664062.070313-.121094.144531-.242188.214844-.363282 10.964844-18.589844 12.390625-41.308594 4.4375-61.371094zm0 0" fill="#f0eff4"/><path d="m208.550781 263.121094c-2.917969 2.296875-5.960937 4.402344-9.113281 6.292968-8.378906 5.027344-13.660156 13.933594-13.671875 23.707032-13.855469 0-25.085937 11.230468-25.085937 25.085937v175.441407c-10.351563-4.15625-20.367188-8.96875-30-14.386719v-186.050781c0-9.800782-5.269532-18.753907-13.671876-23.796876-13.082031-7.847656-24.273437-19.3125-32.574218-33.246093-11.976563-20.105469-16.457032-43.800781-13.601563-67.027344l10.808594-132.300781c.480469-3.90625 3.796875-6.839844 7.734375-6.839844 3.929688 0 7.246094 2.925781 7.730469 6.824219l6.941406 82.992187-3.214844 39.328125c-2.855469 23.222657 1.625 46.917969 13.601563 67.023438 1.246094 2.089843 2.925781 4.351562 4.890625 6.695312 16.214843 19.34375 40.355469 30.257813 65.59375 30.257813zm0 0" fill="#dcdce1"/></svg>