<svg id="Capa_1" enable-background="new 0 0 512 512" height="512" viewBox="0 0 512 512" width="512" xmlns="http://www.w3.org/2000/svg"><g><g><path d="m511.9 249.01-71.76 73.75c-103.38 106.24-271.67 113.42-383.72 16.37l-53.83-46.63c-.88-6.08-1.53-12.23-1.96-18.44-.42-5.96-.63-11.99-.63-18.06 0-46.22 12.25-89.57 33.68-127 44.12-77.07 127.16-129 222.32-129s178.2 51.93 222.32 129c12.98 22.67 22.59 47.52 28.15 73.86 3.16 14.95 5.01 30.37 5.43 46.15z" fill="#92eaff"/><g><path d="m511.9 249.01-71.76 73.75c-103.38 106.24-271.67 113.42-383.72 16.37l-53.83-46.63c-1.71-11.92-2.59-24.11-2.59-36.5 0-46.22 12.25-89.57 33.68-127 44.12 77.07 127.16 129 222.32 129s178.2-51.93 222.32-129c20.35 35.54 32.42 76.41 33.58 120.01z" fill="#63dbfa"/></g><g><path d="m512 256c0 22.38-2.87 44.09-8.27 64.78-3.6 13.8-8.32 27.15-14.08 39.94-154.13 31.91-313.17 31.91-467.3 0-5.76-12.79-10.48-26.14-14.08-39.94-2.4-9.23-4.31-18.67-5.68-28.28 7-2.23 14.62-.38 21.88.97 7.47 1.4 15.89 2.03 22-2.49 9.33-6.9 10.4-23.66 21.79-25.84 7-1.34 13.35 4.16 17.85 9.68s9.06 11.93 16.02 13.46c13.63 3.01 26.7-14.6 39.57-9.21 10.91 4.58 11.4 22.14 22.42 26.43 13.32 5.17 25.74-14.13 39.81-11.67 19.05 3.34 22.62 48.4 47.73 36.1 1.56-.77 2.99-1.7 4.34-2.77 4.25-3.32 7.64-7.84 11.26-11.93 4.77-5.39 10.93-10.53 18.12-10.44 10.48.14 18.89 11.27 29.29 10.01 15.2-1.84 17.64-26.8 32.56-30.19 15.42-3.5 28.14 19.44 43.3 14.97 8.47-2.49 12.13-12.18 14.81-20.59 2.69-8.41 6.95-18.04 15.61-19.75 14.53-2.85 23.54 18.9 38.33 19.55 11.15.49 18.51-10.81 26.78-18.31 7.11-6.44 16.31-10.36 25.84-11.47.07 2.32.1 4.65.1 6.99z" fill="#50ba4a"/><path d="m512 256c0 22.38-2.87 44.09-8.27 64.78-3.6 13.8-8.32 27.15-14.08 39.94-77.07 15.96-155.36 23.93-233.65 23.93v-57.49c4.25-3.32 7.64-7.84 11.26-11.93 4.77-5.39 10.93-10.53 18.12-10.44 10.48.14 18.89 11.27 29.29 10.01 15.2-1.84 17.64-26.8 32.56-30.19 15.42-3.5 28.14 19.44 43.3 14.97 8.47-2.49 12.13-12.18 14.81-20.59 2.69-8.41 6.95-18.04 15.61-19.75 14.53-2.85 23.54 18.9 38.33 19.55 11.15.49 18.51-10.81 26.78-18.31 7.11-6.44 16.31-10.36 25.84-11.47.07 2.32.1 4.65.1 6.99z" fill="#00a23e"/><g><g><path d="m84.989 360.713h-7.592c-1.818 0-3.267-1.52-3.18-3.336l.841-17.531 1.61-33.405h9.049l1.609 33.405.842 17.531c.088 1.816-1.361 3.336-3.179 3.336z" fill="#ec771b"/><path d="m85.717 306.438 2.451 50.939c.087 1.816-1.362 3.336-3.18 3.336h-3.795v-54.276h4.524z" fill="#c55732"/><path d="m87.327 339.847h-12.267l1.609-33.405h9.049z" fill="#c55732"/><path d="m87.327 339.847h-6.133v-33.405h4.524z" fill="#b15848"/></g><path d="m88.092 330.373h-13.796c-15.969 0-26.181-17.278-18.197-31.111l.167-.306c9.665-16.396 16.832-33.488 22.18-50.859.418-1.365 1.578-2.033 2.748-2.033 1.161 0 2.321.669 2.739 2.024 5.357 17.38 12.524 34.472 22.189 50.868l.167.306c7.985 13.833-2.228 31.111-18.197 31.111z" fill="#43af3e"/><path d="m88.092 330.373h-10.287c-7.845 0-12.868-17.278-8.941-31.111.028-.102.056-.204.084-.306 4.744-16.396 8.272-33.488 10.9-50.859.204-1.365.771-2.033 1.346-2.033 1.161 0 2.321.669 2.739 2.024 5.357 17.38 12.524 34.472 22.189 50.868l.167.306c7.985 13.833-2.228 31.111-18.197 31.111z" fill="#00a23e"/><path d="m88.093 330.37h-6.899v-84.31c1.159 0 2.318.675 2.735 2.026 5.357 17.378 12.527 34.474 22.195 50.872.056.101.113.203.169.304 7.979 13.832-2.23 31.108-18.2 31.108z" fill="#008839"/><g><path d="m106.199 310.205c-2.659 13.494-13.907 20.219-25.125 20.158h-.015c-11.141-.046-22.251-6.77-24.895-20.158-1.253-6.312-.352-13.159 3.286-19.485l.229-.413c8.421-14.305 15.481-28.976 21.38-43.907.046-.122.092-.229.138-.336 5.914 15.038 13.005 29.832 21.503 44.243l.229.413c3.637 6.326 4.523 13.173 3.27 19.485z" fill="#43af3e"/><path d="m93.036 310.207c-1.261 13.495-6.596 20.218-11.911 20.163-5.279-.056-10.538-6.779-11.789-20.163-.593-6.32-.171-13.168 1.554-19.488l.109-.417c3.991-14.302 7.33-28.978 10.126-43.906.02-.111.043-.223.063-.334 2.806 15.039 6.165 29.834 10.186 44.24l.109.417c1.725 6.32 2.146 13.168 1.553 19.488z" fill="#00a23e"/><path d="m106.199 310.205c-2.659 13.494-13.907 20.219-25.125 20.158l.122-84.299c5.914 15.038 13.005 29.832 21.503 44.243l.229.413c3.638 6.326 4.524 13.173 3.271 19.485z" fill="#008839"/></g></g><g><g><path d="m408.813 360.713h-7.592c-1.818 0-3.267-1.52-3.18-3.336l.841-17.531 1.609-33.405h9.049l1.609 33.405.841 17.531c.09 1.816-1.359 3.336-3.177 3.336z" fill="#ec771b"/><path d="m409.54 306.438 2.452 50.939c.087 1.816-1.361 3.336-3.18 3.336h-3.795v-54.276h4.523z" fill="#c55732"/><path d="m411.151 339.847h-12.268l1.609-33.405h9.049z" fill="#c55732"/><path d="m411.151 339.847h-6.134v-33.405h4.524z" fill="#b15848"/></g><path d="m411.916 330.373h-13.796c-15.969 0-26.181-17.278-18.197-31.111l.167-.306c9.665-16.396 16.832-33.488 22.18-50.859.418-1.365 1.578-2.033 2.748-2.033 1.161 0 2.321.669 2.739 2.024 5.357 17.38 12.524 34.472 22.189 50.868l.167.306c7.984 13.833-2.229 31.111-18.197 31.111z" fill="#43af3e"/><path d="m411.916 330.373h-10.287c-7.845 0-12.868-17.278-8.941-31.111.028-.102.056-.204.084-.306 4.744-16.396 8.272-33.488 10.9-50.859.204-1.365.771-2.033 1.346-2.033 1.161 0 2.321.669 2.739 2.024 5.357 17.38 12.524 34.472 22.189 50.868l.167.306c7.984 13.833-2.229 31.111-18.197 31.111z" fill="#00a23e"/><path d="m411.916 330.37h-6.899v-84.31c1.159 0 2.318.675 2.735 2.026 5.357 17.378 12.527 34.474 22.195 50.872.056.101.113.203.169.304 7.979 13.832-2.229 31.108-18.2 31.108z" fill="#008839"/></g><g><g><path d="m468.738 360.713h-7.592c-1.818 0-3.267-1.52-3.18-3.336l.841-17.531 1.609-33.405h9.049l1.61 33.405.841 17.531c.088 1.816-1.36 3.336-3.178 3.336z" fill="#ec771b"/><path d="m469.465 306.438 2.452 50.939c.087 1.816-1.361 3.336-3.18 3.336h-3.795v-54.276h4.523z" fill="#c55732"/><path d="m471.076 339.847h-12.268l1.609-33.405h9.049z" fill="#c55732"/><path d="m471.076 339.847h-6.134v-33.405h4.524z" fill="#b15848"/></g><path d="m471.84 330.373h-13.796c-15.969 0-26.181-17.278-18.197-31.111l.167-.306c9.665-16.396 16.832-33.488 22.18-50.859.418-1.365 1.578-2.033 2.748-2.033 1.161 0 2.321.669 2.739 2.024 5.357 17.38 12.524 34.472 22.189 50.868l.167.306c7.985 13.833-2.228 31.111-18.197 31.111z" fill="#43af3e"/><path d="m471.84 330.373h-10.287c-7.845 0-12.868-17.278-8.941-31.111.028-.102.056-.204.084-.306 4.744-16.396 8.272-33.488 10.9-50.859.204-1.365.771-2.033 1.346-2.033 1.161 0 2.321.669 2.739 2.024 5.357 17.38 12.524 34.472 22.189 50.868l.167.306c7.985 13.833-2.228 31.111-18.197 31.111z" fill="#00a23e"/><path d="m471.841 330.37h-6.899v-84.31c1.159 0 2.318.675 2.735 2.026 5.357 17.378 12.527 34.474 22.195 50.872.056.101.112.203.169.304 7.979 13.832-2.229 31.108-18.2 31.108z" fill="#008839"/></g><path d="m489.65 360.72c-3.93 8.78-8.36 17.31-13.23 25.53-19.69 33.27-46.71 61.7-78.83 83.05-91.25 27.52-189.4 20.83-276.08-18.81l-59.17-27.07c-9.34-10.78-17.77-22.34-25.21-34.59h.01v-6.55c0-4.67-3.79-8.46-8.46-8.46h-.01c-2.23-4.29-4.34-8.66-6.32-13.1z" fill="#b6e337"/><path d="m489.65 360.72c-3.93 8.78-8.36 17.31-13.23 25.53-19.69 33.27-46.72 61.7-78.83 83.05h-.01c-46.22 13.94-94.21 19.1-141.58 15.64v-124.22z" fill="#6cdc2d"/><g><path d="m469.203 378.462c-2.993 2.732-6.916 4.224-10.97 4.224h-15.385c-4.01 0-7.902-1.449-10.878-4.145-5.585-5.057-9.098-12.366-9.098-20.499 0-15.276 12.388-27.669 27.669-27.669.436 0 .873.009 1.313.031 14.29.659 25.84 12.348 26.338 26.652.297 8.482-3.229 16.144-8.989 21.406z" fill="#ffa87a"/><path d="m469.203 378.462c-2.993 2.732-6.916 4.224-10.97 4.224h-7.693v-52.313c.436 0 .873.009 1.313.031 14.29.659 25.84 12.348 26.338 26.652.298 8.482-3.228 16.144-8.988 21.406z" fill="#f99568"/><ellipse cx="450.541" cy="358.041" fill="#ffc0a4" rx="17.497" ry="17.497" transform="matrix(.16 -.987 .987 .16 24.954 745.413)"/><path d="m468.038 358.041c0 9.665-7.832 17.497-17.497 17.497v-34.995c9.665.001 17.497 7.833 17.497 17.498z" fill="#ffa87a"/><path d="m458.526 358.041c0 4.411-3.574 7.985-7.985 7.985-4.407 0-7.981-3.574-7.981-7.985 0-4.407 3.574-7.985 7.981-7.985 4.411 0 7.985 3.578 7.985 7.985z" fill="#ffa87a"/><path d="m458.526 358.041c0 4.411-3.574 7.985-7.985 7.985v-15.97c4.411 0 7.985 3.578 7.985 7.985z" fill="#f99568"/></g><g><g><g><path d="m338.226 251.596v109.121h-164.472v-109.121l9.393-16.393 12.015-20.964 6.191-10.819 17.839-10.164 36.798-20.964 36.798 20.964 17.839 10.164 6.191 10.819 12.016 20.964z" fill="#fe3345"/><g fill="#de1263"><path d="m338.241 251.595-27.61-48.171-54.633-31.135v188.425h82.243z"/><path d="m316.818 214.239h-121.656l6.191-10.819 17.839-10.164h73.596l17.839 10.164z"/><path d="m338.226 251.596v4.571h-164.472v-4.571l9.393-16.393h145.687z"/><path d="m173.754 277.131h164.472v20.983h-164.472z"/><path d="m173.754 319.078h164.472v20.964h-164.472z"/></g><path d="m316.818 214.239h-60.828v-20.983h36.798l17.839 10.164z" fill="#ce0557"/><path d="m338.226 251.596v4.571h-82.236v-20.964h72.844z" fill="#ce0557"/><path d="m255.99 277.131h82.236v20.983h-82.236z" fill="#ce0557"/><path d="m255.99 319.078h82.236v20.964h-82.236z" fill="#ce0557"/></g><g><path d="m281.266 312.447v48.273h-50.529v-48.273c0-7.02 5.689-12.709 12.69-12.709h25.149c7.001 0 12.69 5.689 12.69 12.709z" fill="#384c81"/><path d="m281.266 312.447v48.273h-25.265v-60.982h12.575c7.001 0 12.69 5.689 12.69 12.709z" fill="#1a3863"/></g><path d="m230.737 211.754h50.529v35.004h-50.529z" fill="#384c81"/><path d="m256.002 211.754h25.264v35.004h-25.264z" fill="#1a3863"/><path d="m224.909 206.77h11.656v44.973h-11.656z" fill="#fff"/><path d="m275.438 206.77h11.656v44.973h-11.656z" fill="#dff7fd"/><path d="m360.46 251.6h-22.23l-5.56-9.7-22.02-38.48-54.64-31.13-.02.02-54.62 31.11-22.04 38.48-5.56 9.7h-22.23l11.05-19.29 22.04-38.48 2.62-4.57 4.58-2.6 54.63-31.13 9.53-5.42.02-.02 9.55 5.44 54.63 31.13 4.57 2.6 2.63 4.57 22.02 38.48z" fill="#384c81"/><path d="m158.888 340.044h71.849v20.669h-71.849z" fill="#a44e3e"/><path d="m281.266 340.044h71.849v20.669h-71.849z" fill="#913d31"/></g><g fill="#384c81"><path d="m222.228 301.587v18.855h-38.088v-18.855c0-1.022.828-1.85 1.85-1.85h34.388c1.022.001 1.85.829 1.85 1.85z"/><path d="m327.859 301.587v18.855h-38.088v-18.855c0-1.022.828-1.85 1.85-1.85h34.388c1.022.001 1.85.829 1.85 1.85z"/></g></g><g><path d="m394.796 426.979c-5.181 4.728-11.97 7.311-18.986 7.311h-26.629c-6.94 0-13.677-2.507-18.827-7.175-9.667-8.753-15.746-21.403-15.746-35.48 0-26.44 21.441-47.888 47.888-47.888.755 0 1.51.015 2.273.053 24.733 1.14 44.724 21.373 45.585 46.128.512 14.681-5.59 27.943-15.558 37.051z" fill="#ffa87a"/><path d="m394.796 426.979c-5.181 4.728-11.97 7.311-18.986 7.311h-13.314v-90.542c.755 0 1.51.015 2.273.053 24.733 1.14 44.724 21.373 45.585 46.128.512 14.68-5.59 27.942-15.558 37.05z" fill="#f99568"/><ellipse cx="362.495" cy="391.635" fill="#ffc0a4" rx="30.284" ry="30.284" transform="matrix(.16 -.987 .987 .16 -82.148 686.716)"/><path d="m392.779 391.635c0 16.728-13.556 30.284-30.284 30.284v-60.568c16.728 0 30.284 13.556 30.284 30.284z" fill="#ffa87a"/><path d="m376.315 391.635c0 7.635-6.185 13.82-13.82 13.82-7.628 0-13.813-6.185-13.813-13.82 0-7.628 6.185-13.82 13.813-13.82 7.635-.001 13.82 6.192 13.82 13.82z" fill="#ffa87a"/><path d="m376.315 391.635c0 7.635-6.185 13.82-13.82 13.82v-27.641c7.635 0 13.82 6.193 13.82 13.821z" fill="#f99568"/></g><g><path d="m141.639 381.799c-4.624 4.22-10.684 6.525-16.947 6.525h-23.768c-6.195 0-12.208-2.238-16.805-6.404-8.628-7.813-14.055-19.104-14.055-31.669 0-23.6 19.137-42.744 42.744-42.744.674 0 1.348.013 2.029.047 22.076 1.018 39.92 19.077 40.688 41.173.458 13.105-4.988 24.942-13.886 33.072z" fill="#ffa87a"/><path d="m141.639 381.799c-4.624 4.22-10.684 6.525-16.947 6.525h-11.884v-80.817c.674 0 1.348.013 2.029.047 22.076 1.018 39.92 19.077 40.688 41.173.458 13.105-4.988 24.942-13.886 33.072z" fill="#f99568"/><ellipse cx="112.808" cy="350.251" fill="#ffc0a4" rx="27.031" ry="27.031" transform="matrix(.123 -.992 .992 .123 -248.658 419.127)"/><path d="m139.839 350.251c0 14.931-12.1 27.031-27.031 27.031v-54.062c14.931 0 27.031 12.1 27.031 27.031z" fill="#ffa87a"/><path d="m125.144 350.251c0 6.815-5.521 12.336-12.336 12.336-6.808 0-12.329-5.521-12.329-12.336 0-6.808 5.521-12.336 12.329-12.336 6.815.001 12.336 5.528 12.336 12.336z" fill="#ffa87a"/><path d="m125.144 350.251c0 6.815-5.521 12.336-12.336 12.336v-24.672c6.815.001 12.336 5.528 12.336 12.336z" fill="#f99568"/></g><path d="m136.27 373.79v83.08c-2.84-1.15-5.68-2.35-8.5-3.59-2.09-.91-4.18-1.84-6.26-2.79l-2.24-1.02v-75.68z" fill="#a44e3e"/><path d="m136.27 373.79v83.08c-2.84-1.15-5.68-2.35-8.5-3.59v-79.49z" fill="#913d31"/><path d="m93.52 371.63v66.05l-8.5-3.88-8.5-3.89v-58.28z" fill="#a44e3e"/><path d="m93.52 371.63v66.05l-8.5-3.88v-62.17z" fill="#913d31"/><path d="m179.01 382.37v89.15c-2.84-.78-5.67-1.61-8.5-2.47-2.84-.86-5.67-1.76-8.5-2.7v-83.98z" fill="#a44e3e"/><path d="m179.01 382.37v89.15c-2.84-.78-5.67-1.61-8.5-2.47v-86.68z" fill="#913d31"/><path d="m221.76 395.16v85.77c-2.84-.45-5.67-.94-8.5-1.47-2.84-.52-5.68-1.08-8.5-1.67v-82.63z" fill="#a44e3e"/><path d="m221.76 395.16v85.77c-2.84-.45-5.67-.94-8.5-1.47v-84.3z" fill="#913d31"/><path d="m458.06 413.17c-2.81 3.62-5.72 7.15-8.73 10.61l-.01.01c-3.1 3.58-6.29 7.06-9.59 10.46-19.75 3.36-39.76 5.04-59.78 5.05-22.59 0-45.17-2.15-67.42-6.47-16.65-3.22-34.11-7.8-56.53-14.81-.33-.11-.67-.21-1.01-.32-9.37-2.95-18.84-6.07-28-9.09-21-6.93-42.73-14.1-64.38-19.48-49.18-12.19-91.27-12.28-125.47-.3-.35-.54-.67-1.09-1-1.63-1.15-1.92-2.28-3.86-3.37-5.82-1.41-2.49-2.77-5.01-4.09-7.56 37.91-14.12 84.21-14.53 138.02-1.19 22.28 5.53 44.31 12.8 65.62 19.83 7.76 2.56 15.75 5.2 23.68 7.72 1.37.44 2.73.87 4.09 1.3 22.26 6.99 39.43 11.51 55.67 14.66 47.07 9.13 95.74 8.07 142.3-2.97z" fill="#b15848"/><g><path d="m264.5 409.1v76.37c-2.84-.13-5.67-.31-8.5-.53-2.83-.19-5.67-.43-8.5-.7v-75.14z" fill="#913d31"/><path d="m264.5 409.1v76.37c-2.84-.13-5.67-.31-8.5-.53v-75.84z" fill="#77281f"/><path d="m307.24 421.15v64.18c-2.83.16-5.67.3-8.5.4s-5.67.18-8.5.22v-64.8z" fill="#913d31"/><path d="m307.24 421.15v64.18c-2.83.16-5.67.3-8.5.4v-64.58z" fill="#77281f"/><path d="m349.99 428.64v51.83c-2.83.48-5.66.93-8.5 1.35-2.83.41-5.66.8-8.5 1.15v-54.33z" fill="#913d31"/><path d="m349.99 428.64v51.83c-2.83.48-5.66.93-8.5 1.35v-53.18z" fill="#77281f"/></g><path d="m392.73 430.74v39.99c-2.83.81-5.66 1.59-8.5 2.34-2.83.75-5.66 1.46-8.5 2.13v-44.46z" fill="#913d31"/><path d="m392.73 430.74v39.99c-2.83.81-5.66 1.59-8.5 2.34v-42.33z" fill="#77281f"/><path d="m449.32 423.79c-3.1 3.58-6.29 7.06-9.59 10.46-19.75 3.36-39.76 5.04-59.78 5.05-22.59 0-45.17-2.15-67.42-6.47-16.9-3.27-34.64-7.94-57.54-15.13-9.37-2.95-18.84-6.07-28-9.09-21-6.93-42.73-14.1-64.38-19.48-49.18-12.19-91.27-12.28-125.47-.3-.35-.54-.67-1.09-1-1.63-1.15-1.92-2.28-3.86-3.37-5.82 41.32-14.96 88.64-11.23 131.89-.5 31.44 7.81 61.98 18.99 92.88 28.71 18.65 5.86 37.43 11.18 56.6 14.89 44.52 8.64 90.74 8.34 135.18-.69z" fill="#a44e3e"/><path d="m458.06 413.17c-2.81 3.62-5.72 7.15-8.73 10.61-3.1 3.58-6.3 7.07-9.6 10.47-19.75 3.36-39.76 5.04-59.78 5.05-22.59 0-45.17-2.15-67.42-6.47-16.65-3.22-34.11-7.8-56.53-14.81v-17.84c1.37.44 2.73.87 4.09 1.3 22.26 6.99 39.43 11.51 55.67 14.66 47.07 9.13 95.74 8.07 142.3-2.97z" fill="#a44e3e"/><path d="m449.33 423.78c-3.1 3.58-6.3 7.07-9.6 10.47-19.75 3.36-39.76 5.04-59.78 5.05-22.59 0-45.17-2.15-67.42-6.47-16.65-3.22-34.11-7.8-56.53-14.81v-8.92c.51.17 1.03.33 1.54.49 18.65 5.86 37.43 11.18 56.6 14.89 44.52 8.64 90.75 8.33 135.19-.7z" fill="#913d31"/><path d="m397.59 469.3c-40.35 26.84-88.75 42.54-140.8 42.7h-.79c-74.9 0-142.29-32.17-189.11-83.45-1.54-1.69-3.06-3.4-4.55-5.13 35.03-10 74.03-6.44 109.92 2.46 28.35 7.04 55.88 17.12 83.74 25.88 16.81 5.28 33.74 10.08 51.03 13.43 29.77 5.78 60.39 7.12 90.56 4.11z" fill="#43af3e"/><g fill="#00a23e"><path d="m397.59 469.3c-40.35 26.84-88.75 42.54-140.8 42.7h-.79v-60.24c16.81 5.28 33.74 10.08 51.03 13.43 29.77 5.78 60.39 7.12 90.56 4.11z"/><circle cx="181.475" cy="447.347" r="5.849"/><circle cx="126.323" cy="438.537" r="5.849"/><circle cx="245.373" cy="463.905" r="5.849"/></g><path d="m292.622 476.723c0 3.23-2.619 5.849-5.849 5.849s-5.849-2.618-5.849-5.849c0-3.23 2.618-5.849 5.849-5.849 3.23 0 5.849 2.619 5.849 5.849z" fill="#008839"/><path d="m161.4 469.754c0 3.23-2.618 5.849-5.849 5.849-3.23 0-5.849-2.618-5.849-5.849 0-3.23 2.618-5.849 5.849-5.849s5.849 2.619 5.849 5.849z" fill="#00a23e"/><circle cx="220.108" cy="482.572" fill="#00a23e" r="5.849"/><circle cx="332.99" cy="488.42" fill="#008839" r="5.849"/><g><path d="m160.394 141.749c0-.063.005-.124.005-.187 0-11.447-9.28-20.727-20.727-20.727-2.719 0-5.314.529-7.693 1.481-4.596-8.234-13.391-13.805-23.49-13.805-13.116 0-24.032 9.393-26.405 21.817-.707-.101-1.43-.157-2.165-.157-7.131 0-13.105 4.936-14.702 11.577h95.177z" fill="#fff"/><path d="m140.171 141.749c0-.036.003-.071.003-.107 0-6.582-5.336-11.918-11.918-11.918-1.564 0-3.056.304-4.424.852-2.643-4.735-7.7-7.938-13.507-7.938-7.542 0-13.819 5.401-15.183 12.545-.407-.058-.822-.09-1.245-.09-4.101 0-7.536 2.839-8.454 6.657h54.728z" fill="#dff7fd"/></g><g><path d="m311.431 68.581c0-.078.006-.154.006-.232 0-14.204-11.514-25.718-25.718-25.718-3.374 0-6.594.657-9.546 1.838-5.703-10.217-16.615-17.13-29.147-17.13-16.274 0-29.819 11.655-32.763 27.071-.878-.126-1.774-.194-2.686-.194-8.848 0-16.261 6.125-18.243 14.365z" fill="#fff"/><path d="m286.337 68.581c0-.045.003-.089.003-.133 0-8.168-6.621-14.788-14.788-14.788-1.94 0-3.792.377-5.489 1.057-3.279-5.875-9.554-9.85-16.76-9.85-9.358 0-17.147 6.702-18.84 15.567-.505-.072-1.02-.112-1.544-.112-5.088 0-9.351 3.522-10.49 8.26h67.908z" fill="#dff7fd"/></g><g><path d="m317.858 153.454c-.001-.078-.006-.154-.006-.232 0-14.204 11.515-25.718 25.718-25.718 3.374 0 6.594.656 9.546 1.838 5.703-10.217 16.615-17.13 29.147-17.13 16.274 0 29.82 11.655 32.763 27.071.878-.126 1.774-.194 2.686-.194 8.848 0 16.262 6.125 18.243 14.365z" fill="#fff"/><path d="m342.951 153.454c0-.045-.003-.089-.003-.133 0-8.167 6.621-14.788 14.789-14.788 1.94 0 3.792.378 5.489 1.057 3.279-5.875 9.554-9.85 16.76-9.85 9.358 0 17.147 6.702 18.84 15.567.505-.072 1.02-.112 1.545-.112 5.088 0 9.351 3.522 10.49 8.26h-67.91z" fill="#dff7fd"/></g></g></g><path d="m360.46 251.6h-22.23l-5.56-9.7-22.02-38.48-54.64-31.13-.01.01v-22.2l.01-.01 9.55 5.44 54.63 31.13 4.57 2.6 2.63 4.57 22.02 38.48z" fill="#1a3863"/></g></svg>