<svg id="Capa_1" enable-background="new 0 0 512 512" height="512" viewBox="0 0 512 512" width="512" xmlns="http://www.w3.org/2000/svg"><path d="m504.5 0c-68.104 0-134.174 13.34-196.376 39.649-60.077 25.41-114.029 61.785-160.359 108.115s-82.705 100.283-108.116 160.36c-26.309 62.202-39.649 128.272-39.649 196.376 0 4.142 3.357 7.5 7.5 7.5h300c4.143 0 7.5-3.358 7.5-7.5 0-104.491 85.01-189.5 189.5-189.5 4.143 0 7.5-3.358 7.5-7.5v-300c0-4.142-3.357-7.5-7.5-7.5zm-7.5 195.095v45.017c-139.898 3.916-252.972 116.99-256.887 256.888h-45.017c3.937-164.714 137.19-297.967 301.904-301.905zm-316.905 301.905h-45.013c3.96-197.8 164.118-357.959 361.918-361.918v45.013c-172.985 3.944-312.961 143.92-316.905 316.905zm316.905-481.943v45.011c-83.505 1.396-164.379 26.088-234.348 71.633-70.187 45.687-125.944 109.838-161.244 185.518-1.751 3.754-.127 8.216 3.627 9.967 1.025.479 2.104.705 3.165.705 2.824 0 5.529-1.604 6.802-4.332 69.369-148.719 218.729-245.605 381.998-248.49v45.011c-206.071 3.963-372.957 170.849-376.92 376.92h-44.995c.862-50.351 10.387-99.535 28.388-146.305 1.487-3.866-.44-8.206-4.307-9.693-3.867-1.488-8.205.44-9.693 4.306-18.664 48.495-28.54 99.491-29.404 151.692h-45.012c3.984-263.973 217.97-477.959 481.943-481.943zm-196.864 481.943h-45.013c3.906-131.626 110.251-237.971 241.877-241.878v45.013c-106.809 3.872-192.992 90.056-196.864 196.865z"/></svg>