<svg id="Capa_1" enable-background="new 0 0 512.003 512.003" height="512" viewBox="0 0 512.003 512.003" width="512" xmlns="http://www.w3.org/2000/svg"><g><g><path d="m512.001 254.312v2.52c-.03 9.2-.55 18.28-1.52 27.23l-.75.67c-144.54 129.44-363.23 129.7-508.07.59-.46-4-.82-8.03-1.09-12.09-.4-5.96-.59-11.99-.57-18.06.15-46.22 12.54-89.53 34.09-126.89 44.37-76.93 127.58-128.59 222.74-128.28 95.16.31 178.03 52.51 221.9 129.72 12.91 22.71 22.44 47.6 27.91 73.95 3.41 16.37 5.24 33.3 5.36 50.64z" fill="#fff9bb"/><g><path d="m512.001 256.832c-.03 9.2-.55 18.28-1.52 27.23l-.75.67c-144.54 129.44-363.22 129.7-508.06.6v-.01c-.06-.42-.1-.85-.14-1.27-1.04-9.48-1.56-19.12-1.53-28.88.15-46.22 12.54-89.53 34.09-126.89 26.3 46.29 66.62 83.59 115.2 106.1.98.46 1.96.91 2.95 1.35 31.68 14.2 66.79 22.15 103.75 22.27 36.91.12 72.02-7.58 103.77-21.54 1.55-.68 3.08-1.37 4.61-2.08 48.05-22.28 88.04-59.02 114.36-104.66 21.31 37.5 33.42 80.89 33.27 127.11z" fill="#fff297"/></g><g><g><path d="m457.633 150.223c0-.056.004-.111.004-.168 0-10.271-8.326-18.597-18.597-18.597-2.44 0-4.768.475-6.903 1.329-4.124-7.388-12.014-12.387-21.076-12.387-11.768 0-21.562 8.427-23.691 19.575-.634-.091-1.283-.141-1.942-.141-6.398 0-11.758 4.429-13.191 10.387h85.396z" fill="#ffeb98"/><path d="m439.488 150.223c0-.032.002-.064.002-.096 0-5.906-4.788-10.693-10.694-10.693-1.403 0-2.742.273-3.969.764-2.371-4.248-6.909-7.123-12.119-7.123-6.767 0-12.399 4.846-13.623 11.256-.365-.052-.737-.081-1.117-.081-3.679 0-6.761 2.547-7.585 5.973z" fill="#f9e073"/></g><path d="m482.592 375.242c-10.35 19.62-23.16 37.74-38.04 53.92-55.1 24.2-113.69 37.25-172.56 39.15-69.5 2.28-139.39-10.99-204.34-39.78l-1.32-.59c-14.4-15.88-26.84-33.57-36.91-52.7z" fill="#7e7f92"/><path d="m482.592 375.242c-10.35 19.62-23.16 37.74-38.04 53.92-55.1 24.2-113.69 37.25-172.56 39.15v-93.07z" fill="#6e6f83"/><g><path d="m445.111 428.552c-43.46 47.6-104.65 78.74-173.12 82.96-5.29.32-10.62.49-15.99.49-74.9 0-142.29-32.17-189.11-83.45z" fill="#6cdc2d"/></g><path d="m213.631 161.742h116.72v213.5h-116.72z" fill="#fff"/><path d="m330.352 161.742v178.581l-31.535 34.919h-26.826v-213.5z" fill="#dff7fd"/><g><g><path d="m231.193 188.616h34.17v34.17h-34.17z" fill="#4e679c"/><path d="m248.283 188.616h17.08v34.17h-17.08z" fill="#374c81"/></g><g><path d="m278.621 188.616h34.17v34.17h-34.17z" fill="#4e679c"/><path d="m295.711 188.616h17.08v34.17h-17.08z" fill="#374c81"/></g></g><g><g><path d="m231.193 238.917h34.17v34.17h-34.17z" fill="#4e679c"/><path d="m248.283 238.917h17.08v34.17h-17.08z" fill="#374c81"/></g><g><path d="m278.621 238.917h34.17v34.17h-34.17z" fill="#4e679c"/><path d="m295.711 238.917h17.08v34.17h-17.08z" fill="#374c81"/></g></g><path d="m330.352 161.746h90.848v213.496h-90.848z" fill="#92eaff"/><g><path d="m343.12 188.616h26.259v34.17h-26.259z" fill="#4e679c"/><path d="m356.253 188.616h13.125v34.17h-13.125z" fill="#374c81"/></g><g><path d="m382.174 188.616h26.259v34.17h-26.259z" fill="#4e679c"/><path d="m395.307 188.616h13.125v34.17h-13.125z" fill="#374c81"/></g><g><path d="m510.481 284.066c-.05.42-.1.84-.15 1.26h-150.57v-50.94h90.85z" fill="#a63917"/><path d="m510.332 285.322c-3.67 32.17-13.29 62.51-27.74 89.92l-122.829-3v-86.92z" fill="#92eaff"/><path d="m421.153 285.322h-122.782l61.391-50.935z" fill="#ec781b"/><g><path d="m298.371 285.322h122.78v85.92h-122.78z" fill="#fff"/><path d="m359.762 285.322h61.391v89.921h-61.391z" fill="#d1f6ff"/></g><path d="m421.153 285.322h-61.391v-50.935z" fill="#c55732"/><path d="m384.711 316.672v58.57h-49.89v-58.57c0-4.42 3.57-7.99 7.98-7.99h33.92c4.41 0 7.99 3.57 7.99 7.99z" fill="#4e679c"/><path d="m384.711 316.672v58.57h-24.95v-66.56h16.96c4.41 0 7.99 3.57 7.99 7.99z" fill="#374c81"/><path d="m449.621 308.682h34.17v34.17h-34.17z" fill="#4e679c"/><path d="m466.711 308.682h17.08v34.17h-17.08z" fill="#374c81"/><path d="m298.371 355.752h36.45v19.49h-36.45z" fill="#92c6eb"/><path d="m491.832 355.752c-2.81 6.65-5.89 13.15-9.24 19.49h-97.88v-19.49z" fill="#92c6eb"/><path d="m491.832 355.752c-2.81 6.65-5.89 13.15-9.24 19.49h-61.44v-19.49z" fill="#75addd"/></g><g><path d="m152.241 234.386v50.94h-150.57c-.06-.42-.1-.85-.14-1.27l59.86-49.67z" fill="#ec781b"/><path d="m213.631 285.326v84.916l-184.21 5c-.01-.01-.01-.02-.02-.03-14.45-27.41-24.08-57.746-27.74-89.886z" fill="#fff"/><path d="m90.85 285.326h122.782l-61.391-50.939z" fill="#a63917"/><path d="m90.851 285.326h122.78v85.916h-122.78z" fill="#92eaff"/><path d="m90.85 285.326h61.391v85.917h-61.391z" fill="#d1f6ff"/><path d="m90.85 285.326h61.391v-50.939z" fill="#c55732"/><path d="m127.291 316.672v58.57h49.89v-58.57c0-4.42-3.57-7.99-7.98-7.99h-33.92c-4.409 0-7.99 3.57-7.99 7.99z" fill="#374c81"/><path d="m127.291 316.672v58.57h24.95v-66.56h-16.96c-4.409 0-7.99 3.57-7.99 7.99z" fill="#4e679c"/><path d="m28.212 308.682h34.17v34.17h-34.17z" fill="#4e679c"/><path d="m28.212 308.682h17.08v34.17h-17.08z" fill="#374c81"/><path d="m177.181 355.752h36.45v19.49h-36.45z" fill="#92c6eb"/><path d="m127.291 355.752v19.49h-97.87c-.01-.01-.01-.02-.02-.03-3.34-6.34-6.42-12.83-9.23-19.46z" fill="#92c6eb"/><path d="m90.851 355.752v19.49h-61.43c-.01-.01-.01-.02-.02-.03-3.34-6.34-6.42-12.83-9.23-19.46z" fill="#75addd"/></g><path d="m362.84 110.806h-90.849v50.94h90.849 58.36z" fill="#a63917"/><path d="m330.351 161.746h-116.72l58.36-50.94z" fill="#ec781b"/><path d="m330.351 161.746h-58.36v-50.94z" fill="#c55732"/><g><path d="m65.487 164.045c-.001-.08-.006-.158-.006-.238 0-14.617 11.849-26.466 26.466-26.466 3.472 0 6.785.676 9.824 1.892 5.869-10.514 17.098-17.628 29.994-17.628 16.747 0 30.686 11.993 33.715 27.858.903-.13 1.825-.2 2.764-.2 9.105 0 16.734 6.303 18.773 14.783h-121.53z" fill="#ffeb98"/><path d="m91.31 164.045c0-.046-.003-.091-.003-.137 0-8.405 6.813-15.218 15.218-15.218 1.997 0 3.902.388 5.649 1.088 3.375-6.046 9.832-10.137 17.247-10.137 9.63 0 17.645 6.896 19.387 16.019.519-.074 1.049-.115 1.589-.115 5.236 0 9.622 3.625 10.795 8.501h-69.882z" fill="#f9e073"/></g><g><path d="m210.381 64.325c0-.057-.004-.113-.004-.17 0-10.422 8.449-18.871 18.871-18.871 2.476 0 4.838.482 7.005 1.349 4.185-7.497 12.191-12.569 21.387-12.569 11.941 0 21.88 8.552 24.04 19.863.644-.092 1.302-.143 1.971-.143 6.492 0 11.932 4.494 13.386 10.541z" fill="#ffeb98"/><path d="m228.793 64.325c0-.033-.002-.065-.002-.098 0-5.993 4.858-10.851 10.851-10.851 1.424 0 2.782.277 4.028.776 2.406-4.311 7.01-7.228 12.298-7.228 6.866 0 12.582 4.917 13.824 11.422.37-.053.748-.082 1.133-.082 3.733 0 6.861 2.584 7.697 6.061z" fill="#f9e073"/></g></g></g><path d="m445.111 428.552c-43.46 47.6-104.65 78.74-173.12 82.96v-82.96z" fill="#5dbf1d"/></g></svg>