<svg width="16" height="16" viewBox="0 0 16 16" fill="none" xmlns="http://www.w3.org/2000/svg">
<path d="M9.414 8L15.207 2.207C15.597 1.817 15.597 1.184 15.207 0.792997C14.817 0.401997 14.184 0.402997 13.793 0.792997L8 6.586L2.207 0.792997C1.817 0.402997 1.184 0.402997 0.792997 0.792997C0.401997 1.183 0.402997 1.816 0.792997 2.207L6.586 8L0.792997 13.793C0.402997 14.183 0.402997 14.816 0.792997 15.207C0.987997 15.402 1.243 15.5 1.5 15.5C1.757 15.5 2.012 15.402 2.207 15.207L8 9.414L13.793 15.207C13.988 15.402 14.243 15.5 14.5 15.5C14.757 15.5 15.012 15.402 15.207 15.207C15.597 14.817 15.597 14.184 15.207 13.793L9.414 8Z" fill="#657786"/>
</svg>