<svg width="20" height="19" viewBox="0 0 20 19" fill="none" xmlns="http://www.w3.org/2000/svg">
<path d="M17.25 0.0180664H2.75C1.233 0.0180664 0 1.25207 0 2.77007V15.2651C0 16.7831 1.233 18.0181 2.75 18.0181H17.25C18.767 18.0181 20 16.7831 20 15.2651V2.77007C20 1.25207 18.767 0.0180664 17.25 0.0180664ZM2.75 1.51807H17.25C17.94 1.51807 18.5 2.07807 18.5 2.76807V3.48207L10.45 8.84907C10.177 9.02907 9.824 9.03107 9.55 8.84707L1.5 3.48207V2.76807C1.5 2.07807 2.06 1.51807 2.75 1.51807ZM17.25 16.5161H2.75C2.06 16.5161 1.5 15.9561 1.5 15.2661V5.24007L8.74 10.0701C9.123 10.3261 9.562 10.4541 10 10.4541C10.44 10.4541 10.877 10.3261 11.26 10.0711L18.5 5.24107V15.2631C18.5 15.9531 17.94 16.5131 17.25 16.5131V16.5161Z" fill="#222222"/>
</svg>
