<svg focusable="false" width="34" height="34" viewBox="0 0 40 40" xmlns="http://www.w3.org/2000/svg" class=" NMm5M"><path d="M25.19,24.72c-0.4-1.24,0.06-2.6,1.12-3.36l5.43-3.86l-6.65,0 c-1.31,0-2.46-0.84-2.86-2.09L20,8.47l-2.22,6.95c-0.4,1.24-1.55,2.09-2.86,2.09l-6.65,0l5.43,3.86c1.06,0.76,1.52,2.11,1.12,3.36 l-2.13,6.67l5.51-4.14c1.07-0.8,2.53-0.8,3.6,0l5.51,4.14L25.19,24.72z M30.02,34.67c-0.33,0.44-0.96,0.53-1.4,0.2l-8.02-6.02 c-0.36-0.27-0.84-0.27-1.2,0l-8.02,6.02c-0.26,0.19-0.6,0.25-0.9,0.15c-0.53-0.17-0.82-0.73-0.65-1.26l3.08-9.65 c0.13-0.41-0.02-0.87-0.37-1.12l-7.98-5.68c-0.26-0.19-0.42-0.49-0.42-0.82c0-0.55,0.45-1,1-1l9.78,0c0.44,0,0.82-0.28,0.95-0.7 l3.18-9.93c0.1-0.31,0.34-0.55,0.65-0.65c0.53-0.17,1.09,0.12,1.26,0.65l3.18,9.93c0.13,0.41,0.52,0.7,0.95,0.7l9.79,0 c0.32,0,0.63,0.16,0.82,0.42C36,16.37,35.9,17,35.45,17.32L27.46,23c-0.35,0.25-0.51,0.7-0.37,1.12l3.08,9.65 C30.27,34.07,30.22,34.41,30.02,34.67z" fill="#80868b"></path></svg>