<svg xmlns="http://www.w3.org/2000/svg" viewBox="0 0 3142.54 1864.92"><defs><style>.cls-1{isolation:isolate;}.cls-2{fill:#e4f0ff;}.cls-28,.cls-3,.cls-33,.cls-36,.cls-40,.cls-41,.cls-44,.cls-6{opacity:0.5;}.cls-34,.cls-4,.cls-40{fill:#fff;}.cls-5,.cls-6{fill:#fee4cb;}.cls-13,.cls-15,.cls-30,.cls-32,.cls-39,.cls-43,.cls-44,.cls-6{mix-blend-mode:multiply;}.cls-7{fill:#e8b891;}.cls-8{fill:#ffc0bb;}.cls-9{fill:#333;}.cls-10{fill:#70c0fd;}.cls-11,.cls-30{fill:#f99893;}.cls-12{fill:#09083c;}.cls-13{fill:#e87b50;}.cls-13,.cls-30,.cls-34,.cls-47{opacity:0.3;}.cls-14,.cls-33{fill:#feb546;}.cls-15{fill:#e5ded8;opacity:0.4;}.cls-16{fill:#49270d;}.cls-17,.cls-41{fill:#ff5b7e;}.cls-18{fill:#0a9;}.cls-19,.cls-44{fill:#f4a640;}.cls-20{fill:#f9b5b2;}.cls-21{fill:#202121;}.cls-22{fill:#02ccc0;}.cls-23{fill:#4188e4;}.cls-24{fill:#ea426e;}.cls-25{fill:#f76390;}.cls-26{fill:#e5426e;}.cls-27,.cls-28{fill:#4c2816;}.cls-28{mix-blend-mode:screen;}.cls-29{fill:#f484a2;}.cls-31{fill:#183658;}.cls-32{fill:#e0a689;opacity:0.2;}.cls-35{fill:#c0efff;opacity:0.8;}.cls-36,.cls-42,.cls-43{fill:#57ace5;}.cls-37{fill:#e03268;}.cls-38,.cls-39{fill:#07085b;}.cls-39{opacity:0.7;}.cls-40{mix-blend-mode:soft-light;}.cls-45{fill:#88c7ff;}.cls-46{fill:#b0d6ff;}.cls-47{fill:#c9eafd;}</style></defs><title>資產 1</title><g class="cls-1"><g id="圖層_2" data-name="圖層 2"><g id="Layer_1" data-name="Layer 1"><path class="cls-2" d="M3090.51,1510c-54.07-190.74,51.21-391.66-56.75-572.4-34.28-57.4-87.85-107.93-132.87-161.59-68-81-116.83-170.07-143.45-261.45C2740,454.75,2732,393.88,2707.39,335.09,2639.18,172,2435.42,37.73,2211.13,8c-180.76-23.92-367.79,6.7-515.62,76-664,311.36-1009.9,164.08-1241.7,271.5C308.53,422.9,237,548.1,193.83,673.27s-60.43,345-123.14,486.56c-208.23,470.11,96.68,637.39,232.63,686.58,4.86,1.76,25.37,4.2,30.37,5.74l345.21-3c68.92-9.59,227.45,1.91,283.43,3.47,219.84,6.13,402-5.49,593.66-3.47,477.54,5,924.73,6.84,1374.57,4.11,65.83-.4,104-17.27,152.85-47.27,52.1-32,65.23-88.86,56.76-141.13S3105.21,1561.85,3090.51,1510Z"/><g class="cls-3"><polygon class="cls-4" points="1591.37 572.88 1928.5 572.88 2083.35 251.46 1746.22 251.46 1591.37 572.88"/><polygon class="cls-4" points="2134.75 251.46 1979.9 572.88 2317.03 572.88 2471.88 251.46 2134.75 251.46"/><polygon class="cls-4" points="1421.01 926.52 1758.14 926.52 1912.98 605.09 1575.86 605.09 1421.01 926.52"/><polygon class="cls-4" points="1809.54 926.52 2146.67 926.52 2301.52 605.09 1964.39 605.09 1809.54 926.52"/></g><polygon class="cls-4" points="2018.49 1355.76 2048.38 1845.94 2033.43 1845.94 1986.11 1361.07 2018.49 1355.76"/><polygon class="cls-4" points="1704.6 1355.76 1674.71 1845.94 1689.65 1845.94 1736.97 1361.07 1704.6 1355.76"/><path class="cls-5" d="M2148.91,853s-238.89-7.7-254.35-6.5-29.76,55.29-29.76,55.29-69.78,281.69-68.39,289.44-65.1,189.27-65.1,189.27,57.35-1.66,59.89,0S2013,1360,2016.06,1357.79s14.21-43.72,14.72-45.93S2048,1148,2048,1148l8.63-89.1s33-76.45,33.5-76.69,31-67.2,33-70.52,33.5-40.4,34.51-43.72S2148.91,853,2148.91,853Z"/><path class="cls-6" d="M2148.91,853s-82.36-2.65-153.49-4.6c27.65,17.7,43.15,67.21,31.64,155.28-9.78,74.84-20.64,156.06-64,253.47-22.31,50.17-118.36,22.07-197.09,27-17,47.9-34.7,96.33-34.7,96.33s57.35-1.66,59.89,0S2013,1360,2016.06,1357.79s14.21-43.72,14.72-45.93S2048,1148,2048,1148l8.63-89.1s33-76.45,33.5-76.69,31-67.2,33-70.52,33.5-40.4,34.51-43.72S2148.91,853,2148.91,853Z"/><path class="cls-7" d="M1687.67,1390.4h0c-.51-8.89,5.65-16.55,13.8-17.15,25.53-1.88,80.73-6.18,137.51-12,108.84-11.23,148.19-20.43,162.27-25.24a15.48,15.48,0,0,0,9.84-11.34c3.82-16.55,6.06-50.91,7.93-79.65,7.11-109.06,18.83-288.91,121.81-387.65,6.43-6.16,16.32-5.06,21.54,2.33h0a17.18,17.18,0,0,1-1.92,22c-93.82,89.64-104.6,254.94-111.81,365.65-4.12,63.11-6.65,94.09-19.32,108.5-6.11,7-17.48,19.89-183,37.19-58.71,6.14-116.49,10.64-142.89,12.59C1695.26,1406.14,1688.18,1399.35,1687.67,1390.4Zm320.89-57.71Z"/><path class="cls-8" d="M2159.07,934.85a2,2,0,0,1-3.19,1.42c-9.64-7.54-40.13-31.06-42.6-29-2.94,2.4,23.79,24.09,22.62,27.42s-26.71-18.48-29.44-15.4,21.23,22.18,20.53,23.88-25.6-14.15-28.29-13.3,21.84,21,21.58,23.3-21.81-6-22.73-4.2-1.83,2.8,41.35,35.34l17.55,12.08,19.64,2.12,11.14-21s-19.26-67-22-67.83S2161,910.58,2159.07,934.85Z"/><polygon class="cls-4" points="2750.95 1369.83 2784.31 1846.68 2767.63 1846.68 2714.8 1374.99 2750.95 1369.83"/><polygon class="cls-4" points="2400.51 1369.83 2367.14 1846.68 2383.82 1846.68 2436.65 1374.99 2400.51 1369.83"/><path class="cls-5" d="M2896.55,853.94s-266.7-7.9-284-6.67S2579.37,904,2579.37,904s-77.91,289-76.35,297-72.68,194.2-72.68,194.2,64-1.7,66.87,0,247.63-21,251-23.28,15.87-44.86,16.43-47.13,19.27-168.08,19.27-168.08l9.63-91.42s36.83-78.44,37.4-78.68,34.57-69,36.83-72.36,37.4-41.45,38.53-44.86S2896.55,853.94,2896.55,853.94Z"/><path class="cls-6" d="M2896.55,853.94s-91.95-2.72-171.36-4.72c30.87,18.16,48.17,69,35.33,159.32-10.91,76.79-23,160.13-71.4,260.07-24.91,51.47-132.14,22.64-220,27.73-18.94,49.15-38.74,98.84-38.74,98.84s64-1.7,66.87,0,247.63-21,251-23.28,15.87-44.86,16.43-47.13,19.27-168.08,19.27-168.08l9.63-91.42s36.83-78.44,37.4-78.68,34.57-69,36.83-72.36,37.4-41.45,38.53-44.86S2896.55,853.94,2896.55,853.94Z"/><path class="cls-7" d="M2381.61,1405.37h0a16.58,16.58,0,0,1,15.4-17.6c28.5-1.93,90.13-6.34,153.52-12.36,121.51-11.53,165.44-21,181.16-25.9a16.39,16.39,0,0,0,11-11.64c4.26-17,6.76-52.23,8.86-81.72,7.94-111.91,21-296.44,136-397.75a16.55,16.55,0,0,1,24,2.39h0a16.57,16.57,0,0,1-2.15,22.53c-104.75,92-116.78,261.59-124.83,375.18-4.59,64.75-7.43,96.54-21.57,111.33-6.82,7.13-19.52,20.41-204.26,38.16-65.54,6.29-130.06,10.92-159.52,12.92A16.56,16.56,0,0,1,2381.61,1405.37Zm358.25-59.21Z"/><path class="cls-9" d="M2394.94,742.75c13.42-52.33,34.79-73.08,71.93-92.61,28.45-15,62.06-19.78,96.54-8.61,70.3,22.77,88.44,99.83,95.54,139.67,24.21,135.83,137.8,251.37,96.47,344.32s-235.37,83-235.37,83l-89-64.13s-7.9-156.15-7.92-168.89-33.73-11.83-33.73-75.66C2389.41,849,2379.15,804.3,2394.94,742.75Z"/><path class="cls-10" d="M2453.07,904.2s-150.43,170.64-156.78,171.4-107.17-117.34-107.17-117.34-36.13,30.08-42.41,40.5c0,0,106.17,169.78,133.83,180s212.91-153.37,212.91-153.37Z"/><path class="cls-8" d="M2547.26,836.27v60.24a8.62,8.62,0,0,1-4.93,7.82c-9.19,4.31-29.74,11.39-48.93.11a8.54,8.54,0,0,1-4.12-7.38V842.65Z"/><path class="cls-11" d="M2547.26,868.53V836.27l-58,6.38V870C2500.16,873.32,2520.41,876.62,2547.26,868.53Z"/><path class="cls-8" d="M2451.19,826a75.78,75.78,0,0,1-4.95-13.1,144.17,144.17,0,0,1-5.3-36.23c-.07-2.39-.27-4.77-.52-7.15A77.62,77.62,0,1,1,2595,766.69c5-2.36,10.51-2.61,15.15-.14,8.91,4.75,11.32,17.64,5.4,28.79s-17.94,16.35-26.85,11.6a14.81,14.81,0,0,1-3.32-2.44c-6.47,37.72-39.55,64.9-76.76,61.71a69.57,69.57,0,0,1-45.78-22.92,34.41,34.41,0,0,1-2.45-2.64A67.43,67.43,0,0,1,2451.19,826Z"/><ellipse class="cls-9" cx="2527.41" cy="778.71" rx="6.25" ry="6.23" transform="translate(1535.88 3230.45) rotate(-85.11)"/><ellipse class="cls-9" cx="2473.77" cy="777.64" rx="6.25" ry="6.23" transform="translate(1487.87 3176.03) rotate(-85.1)"/><path class="cls-9" d="M2514.75,765.19a58.68,58.68,0,0,1,9.12-2.18,30.71,30.71,0,0,1,8.72-.09,28.5,28.5,0,0,1,8.34,2.41l1,.43c.35.15.66.37,1,.53l2.05,1.08c1.38.75,2.65,1.68,4.18,2.42a27.57,27.57,0,0,0-2.76-4.14,22.65,22.65,0,0,0-3.73-3.41,20.25,20.25,0,0,0-9.55-3.83,21.16,21.16,0,0,0-10.21,1.15A19.65,19.65,0,0,0,2514.75,765.19Z"/><path class="cls-9" d="M2489.65,764.32a19.64,19.64,0,0,0-7.81-6.18,21.15,21.15,0,0,0-10.1-1.85,20.25,20.25,0,0,0-9.79,3.16,22.67,22.67,0,0,0-4,3.14,27.53,27.53,0,0,0-3,3.94c1.58-.64,2.91-1.48,4.33-2.13l2.12-.93c.36-.14.68-.34,1-.46l1.07-.35a28.5,28.5,0,0,1,8.48-1.83,30.75,30.75,0,0,1,8.69.69A58.6,58.6,0,0,1,2489.65,764.32Z"/><path class="cls-11" d="M2501.38,770.74a89.56,89.56,0,0,0-6.93,9.8,84.63,84.63,0,0,0-5.67,10.64,31.9,31.9,0,0,0-1.94,5.9,11.54,11.54,0,0,0-.17,1.67c0,.29,0,.62.05.92a4.14,4.14,0,0,0,.31,1c.09.18.2.36.31.53l.27.31c.18.2.36.42.55.6.39.36.78.73,1.19,1a28.75,28.75,0,0,0,5.17,3.27,38.75,38.75,0,0,0,5.56,2.3,65.58,65.58,0,0,1-9.46-7c-.35-.32-.65-.68-1-1l-.42-.53-.21-.26a.39.39,0,0,0,0-.13,4.62,4.62,0,0,1,.13-2.26,32.52,32.52,0,0,1,1.91-5.39c1.53-3.6,3.33-7.12,5.08-10.68S2499.69,774.38,2501.38,770.74Z"/><polygon class="cls-8" points="2350.47 1704.48 2354.05 1793.81 2311.14 1794.1 2307.04 1709.75 2350.47 1704.48"/><path class="cls-4" d="M2241,1845.11l123.33.83a4.74,4.74,0,0,0,4.84-4.75l0-3.56a4.92,4.92,0,0,0-4.92-4.81l-123.33-.83a4.74,4.74,0,0,0-4.84,4.75l0,3.56A4.92,4.92,0,0,0,2241,1845.11Z"/><path class="cls-12" d="M2362.69,1793l4.73,36.52c.58,4.5-2,8.57-5.33,8.55l-117.28-.79a8.71,8.71,0,0,1-7.7-5.42c-1.67-3.6-2-9,3.14-16.25,10.37-14.47,44.84-17.78,61.61-30.08l54.63.37C2359.54,1785.88,2362.17,1788.89,2362.69,1793Z"/><path class="cls-4" d="M2310.34,1806.74h0a2.41,2.41,0,0,0,.64-3c-2.35-5-9.65-17.23-24.27-14.83-.84.14-1.41,1.24-1.25,2.37v0c.15,1.1.92,1.83,1.74,1.69,13.11-2.1,19.32,8.66,21.22,12.87A1.35,1.35,0,0,0,2310.34,1806.74Z"/><path class="cls-4" d="M2298.2,1811.35h0a2.41,2.41,0,0,0,.64-3c-2.35-5-9.65-17.23-24.27-14.83-.84.14-1.41,1.24-1.25,2.37v0c.15,1.1.92,1.83,1.74,1.69,13.11-2.1,19.32,8.66,21.22,12.87A1.35,1.35,0,0,0,2298.2,1811.35Z"/><path class="cls-4" d="M2286.91,1815.66h0a2.41,2.41,0,0,0,.64-3c-2.35-5-9.65-17.23-24.27-14.83-.84.14-1.41,1.24-1.25,2.37v0c.15,1.1.92,1.83,1.74,1.69,13.11-2.1,19.32,8.66,21.22,12.87A1.35,1.35,0,0,0,2286.91,1815.66Z"/><path class="cls-13" d="M2330.8,1837.81c9-29.41,24.88-32.56,33.59-31.82l3,23.49c.58,4.5-2,8.57-5.33,8.55Z"/><path class="cls-14" d="M1484.26,1063.11v71.18a10.64,10.64,0,0,0,10.64,10.64h41.62a10.64,10.64,0,0,0,10.64-10.64v-.87a32.62,32.62,0,0,0,0-65v-5.28a10.64,10.64,0,0,0-10.64-10.64H1494.9A10.64,10.64,0,0,0,1484.26,1063.11Zm62.9,62.62v-49.63a25,25,0,0,1,0,49.63Z"/><path class="cls-15" d="M1544.62,1056.23a10.59,10.59,0,0,1,2.54,6.88v71.18a10.64,10.64,0,0,1-10.64,10.64H1494.9a10.64,10.64,0,0,1-10.1-7.32C1523.84,1135.29,1539.75,1079.11,1544.62,1056.23Z"/><ellipse class="cls-16" cx="1515.24" cy="1061.39" rx="25.86" ry="5.16"/><path class="cls-17" d="M1660.63,729.08c-29,65.33-43.5,142.5-44.12,160.76-.86,25,12.13,75.65,28.72,95.11,37.6,44.11,101.51,24.73,150.4,57.42,15.79,10.56,29.86,24.12,48,30.39,16.88,5.83,35.39,4.69,53.34,4.31a581.64,581.64,0,0,1,107.11,7.64c18.21,3,37.38,6.83,54.77.89,27.93-9.52,40.89-41.54,38-69.54s-17.55-53.44-29.5-79.19c-5.15-11.11-9.91-23.44-6.45-35.12,2.5-8.45,9-15.23,14.05-22.56,23.6-33.93,15.15-84.38-18.37-109.71-17-12.85-38.29-19.14-58.23-27.34S1942.9,714,1921.75,673c-27.71-53.71-60.14-86.55-114-83.81C1699.61,594.64,1675.29,696.06,1660.63,729.08Z"/><polygon class="cls-8" points="1493.92 1716 1503.46 1769.04 1541.91 1753.63 1534.38 1706.42 1493.92 1716"/><path class="cls-18" d="M1742.91,1062.3c2.09-19.85,3.93-38.06,3.93-40.46,0-5.53-11.36-139.46-11.36-139.46s-36.47,80.81-44.56,171.56C1701.26,1059.61,1718.14,1065.37,1742.91,1062.3Z"/><path class="cls-19" d="M1735.41,1116.12l1.62.91s.15-1.37.41-3.76Q1736.42,1114.72,1735.41,1116.12Z"/><path class="cls-20" d="M1693.55,1051.17,1687,1117s24.36,3.32,35,6.64,40.77-61.37,40.77-61.37-32.15-15-33.67-15S1693.55,1051.17,1693.55,1051.17Z"/><polygon class="cls-8" points="1677.71 1698.89 1687.26 1751.94 1725.71 1736.52 1718.18 1689.32 1677.71 1698.89"/><path class="cls-21" d="M1737,1194.88s-278.82,33.94-293.71,137.25,44,407.73,44,407.73,46.7-3.37,64.29-15.17c0,0-17.6-339.43,8.12-361.57s166.48-75.27,169.19-81.17S1737,1194.88,1737,1194.88Z"/><path class="cls-9" d="M1737,1194.88S1551.6,1305.56,1551.6,1370.5s71.74,307,124.52,360.09c0,0,32.48-5.9,60.91-22.14l-63.62-312.87S1956.3,1354.26,1973.9,1282l-69.56-79.69Z"/><path class="cls-22" d="M1716.81,1161.3s6.54-250.15,18.68-278.92,55.09-34.31,55.09-34.31,112-18.1,141.07,11.83c2.18,2.24,52.8,75.34,44.7,422.05,0,0-96.16-57.56-259.54-87.07Z"/><path class="cls-8" d="M1853.72,935.88l.07-.25Z"/><path class="cls-8" d="M1855.2,930.4l.09-.33Z"/><path class="cls-8" d="M1856.63,925l.05-.2Z"/><path class="cls-8" d="M1859.2,915.28l0-.16Z"/><path class="cls-8" d="M1862.42,902.91l.1-.39Z"/><path class="cls-8" d="M1901.19,1104.78c-52.4-2.29-89.25-41.2-89.25-41.2h0c-1.72,3-3.3,5-4.68,5.86-16.24,10-221.66,57.84-242,55.9s-39.41,20.11-43.48,37.08h344.32S1902.3,1102.63,1901.19,1104.78Z"/><path class="cls-8" d="M1861.45,906.69l.07-.27Z"/><path class="cls-8" d="M1860.32,911l.14-.55Z"/><path class="cls-18" d="M1877.52,872.63a67,67,0,0,0-15.12,28.85c-8.78,34.24-39.27,134.23-54.65,160.82,0,0,41.07,45,93.46,47.26,18.29-35.3,36.7-85.65,40.57-134.55C1948.63,888.46,1911.53,835.7,1877.52,872.63Z"/><path class="cls-4" d="M1646.4,1845l116.47-58.72a3.88,3.88,0,0,0,1.67-5l-3-7a3.31,3.31,0,0,0-4.55-1.82l-116.47,58.72a3.88,3.88,0,0,0-1.67,5l3,7A3.31,3.31,0,0,0,1646.4,1845Z"/><path class="cls-22" d="M1736.72,1731.78l20.35,36.36c2.51,4.48,2,10-1.15,11.54l-108.12,54.51c-2.81,1.42-6.42.86-9.45-2.09s-5.83-8.56-4.24-18.65c3.13-19.82,32.33-39.24,42.87-59.72a3.75,3.75,0,0,1,1.63-1.67l49.3-24.85C1730.72,1725.79,1734.45,1727.73,1736.72,1731.78Z"/><path class="cls-4" d="M1694.65,1771h0a3.09,3.09,0,0,0-.71-3.44c-4.35-4.19-16.42-13.66-28.81-4.22-.72.54-.75,2-.11,3.1l0,0c.62,1.09,1.64,1.5,2.34,1,11.12-8.41,21.55,0,25.14,3.58C1693.28,1771.84,1694.19,1771.82,1694.65,1771Z"/><path class="cls-4" d="M1685.52,1781.65h0a3.09,3.09,0,0,0-.71-3.44c-4.35-4.19-16.42-13.66-28.81-4.22-.72.55-.75,2-.11,3.1l0,0c.62,1.09,1.64,1.5,2.34,1,11.12-8.41,21.55,0,25.14,3.58C1684.14,1782.44,1685.06,1782.43,1685.52,1781.65Z"/><path class="cls-4" d="M1677,1791.53h0a3.09,3.09,0,0,0-.71-3.44c-4.35-4.19-16.42-13.66-28.81-4.22-.71.54-.75,2-.11,3.1l0,0c.62,1.09,1.64,1.5,2.34,1,11.12-8.41,21.55,0,25.14,3.58C1675.66,1792.32,1676.57,1792.31,1677,1791.53Z"/><path class="cls-13" d="M1726.44,1788.36c-2.18-26.8,6.86-37.66,14.41-42.07a3.55,3.55,0,0,1,4.87,1.57l11.35,20.28c2.51,4.48,2,10-1.15,11.54l-24.18,12.19C1729.39,1793.06,1726.67,1791.24,1726.44,1788.36Z"/><path class="cls-4" d="M1443.46,1847.71l123.7-37.18a3.79,3.79,0,0,0,2.39-4.59l-1.89-7.46a3.4,3.4,0,0,0-4.21-2.61L1439.75,1833a3.79,3.79,0,0,0-2.39,4.59l1.89,7.47A3.4,3.4,0,0,0,1443.46,1847.71Z"/><path class="cls-22" d="M1549.53,1752.1l14.63,39.49c1.8,4.87.44,10.19-2.86,11.19l-114.83,34.52c-3,.9-6.46-.3-9-3.74s-4.47-9.48-1.39-19.15c6.06-19,37.77-33,51.24-51.29a3.6,3.6,0,0,1,1.86-1.36l52.36-15.74C1544.51,1745.12,1547.9,1747.7,1549.53,1752.1Z"/><path class="cls-4" d="M1502.14,1783.34h0a3.11,3.11,0,0,0-.19-3.52c-3.67-4.91-14.16-16.4-27.79-9.29-.79.41-1,1.81-.58,3v0c.45,1.19,1.4,1.77,2.16,1.37,12.23-6.32,21.25,3.88,24.26,8C1500.67,1783.87,1501.57,1784,1502.14,1783.34Z"/><path class="cls-4" d="M1491.54,1792.18h0a3.11,3.11,0,0,0-.19-3.52c-3.67-4.91-14.16-16.4-27.79-9.29-.79.41-1,1.81-.58,3l0,0c.45,1.19,1.4,1.77,2.16,1.37,12.23-6.32,21.25,3.88,24.26,8C1490.07,1792.71,1491,1792.86,1491.54,1792.18Z"/><path class="cls-4" d="M1481.69,1800.41h0a3.12,3.12,0,0,0-.19-3.52c-3.67-4.91-14.15-16.4-27.79-9.29-.79.41-1,1.81-.58,3l0,0c.45,1.19,1.4,1.77,2.16,1.37,12.23-6.31,21.25,3.88,24.26,8C1480.22,1800.94,1481.12,1801.09,1481.69,1800.41Z"/><path class="cls-13" d="M1530.91,1806.08c1.86-26.83,12.41-35.93,20.52-38.93a3.63,3.63,0,0,1,4.57,2.42l8.16,22c1.8,4.87.44,10.19-2.86,11.19l-25.68,7.72C1533.12,1811.25,1530.71,1809,1530.91,1806.08Z"/><rect class="cls-8" x="1792.84" y="811.25" width="50.44" height="44.27"/><path class="cls-11" d="M1843.2,826.37V796.18h-50.36v25.69C1803.69,827.69,1819.74,831,1843.2,826.37Z"/><path class="cls-8" d="M1913.86,712.69c-4.82-2.38-10.42-2-15.49.61a79.4,79.4,0,0,0-82.31-82.36c-46.81,0-84,37-82.31,82.36-5.07-2.57-10.67-3-15.49-.61-9.25,4.56-12.13,17.64-6.42,29.21s17.83,17.24,27.09,12.68a15.14,15.14,0,0,0,3.47-2.38c5.3,37.71,36.76,66,73.67,65.45,36.91.53,68.37-27.74,73.67-65.45a15.14,15.14,0,0,0,3.47,2.38c9.25,4.56,21.38-1.11,27.09-12.68S1923.12,717.25,1913.86,712.69Z"/><path class="cls-17" d="M1819.34,611.56s85.34-4.78,89.86,99.71c0,0-6.2-.45-10.82,2,0,0-66-6.47-90.62-67.14Z"/><path class="cls-17" d="M1719.25,712.2a18.3,18.3,0,0,1,14.51,1.1c82.31-9,85.58-80.36,85.58-80.36C1731.32,594.62,1719.25,712.2,1719.25,712.2Z"/><ellipse class="cls-9" cx="1794.85" cy="736.53" rx="6.96" ry="6.95" transform="translate(-43.6 116.8) rotate(-3.68)"/><ellipse class="cls-9" cx="1851.26" cy="737.73" rx="6.96" ry="6.95" transform="translate(-43.56 120.43) rotate(-3.68)"/><path class="cls-17" d="M1809.29,721.79a65.37,65.37,0,0,0-10.12-2.65,34.4,34.4,0,0,0-9.74-.31,31.84,31.84,0,0,0-9.37,2.49l-1.18.45c-.39.16-.74.39-1.13.57l-2.31,1.15c-1.55.8-3,1.81-4.72,2.6a30.65,30.65,0,0,1,3.17-4.54,25.28,25.28,0,0,1,4.24-3.7,22.66,22.66,0,0,1,10.74-4,23.71,23.71,0,0,1,11.36,1.52A22,22,0,0,1,1809.29,721.79Z"/><path class="cls-17" d="M1833.84,722.55a21.94,21.94,0,0,1,8.86-6.69A23.71,23.71,0,0,1,1854,714a22.68,22.68,0,0,1,10.85,3.74,25.3,25.3,0,0,1,4.34,3.59,30.82,30.82,0,0,1,3.3,4.45c-1.74-.75-3.21-1.72-4.79-2.47l-2.35-1.09c-.39-.16-.75-.39-1.15-.54l-1.19-.42a31.87,31.87,0,0,0-9.43-2.24,34.37,34.37,0,0,0-9.72.57A65.32,65.32,0,0,0,1833.84,722.55Z"/><path class="cls-11" d="M1823.74,724.93a41.2,41.2,0,0,0-1.1,11.52,31.72,31.72,0,0,0,.76,5.89,15,15,0,0,0,2.6,5.84l.63.67.56.57a5.87,5.87,0,0,1,.74.78,4.36,4.36,0,0,1,.91,1.78,5.19,5.19,0,0,1-.92,4.09c-1.8,2.73-5.25,4.46-8.92,5.56,3.79.39,8.16-.49,11.17-3.79a7.89,7.89,0,0,0,2.08-6.5,6.15,6.15,0,0,0-.53-1.77,7,7,0,0,0-.91-1.57,9.12,9.12,0,0,0-1.19-1.3,5.32,5.32,0,0,1-.42-.46l-.35-.37a14.26,14.26,0,0,1-2.1-4.43,48.08,48.08,0,0,1-1.27-5.3C1824.82,732.49,1824.32,728.75,1823.74,724.93Z"/><polygon class="cls-8" points="2148.56 1704.48 2152.13 1789.94 2109.22 1790.23 2105.13 1709.75 2148.56 1704.48"/><path class="cls-4" d="M2039.13,1845.11l123.33.83a4.74,4.74,0,0,0,4.84-4.75l0-3.56a4.92,4.92,0,0,0-4.92-4.81L2039,1832a4.74,4.74,0,0,0-4.84,4.75l0,3.56A4.92,4.92,0,0,0,2039.13,1845.11Z"/><path class="cls-12" d="M2160.78,1793l4.73,36.52c.58,4.5-2,8.57-5.33,8.55l-117.28-.79a8.71,8.71,0,0,1-7.7-5.42c-1.67-3.6-2-9,3.14-16.25,10.37-14.47,44.84-17.78,61.61-30.08l54.63.37C2157.63,1785.88,2160.25,1788.89,2160.78,1793Z"/><path class="cls-4" d="M2108.42,1806.74h0a2.41,2.41,0,0,0,.64-3c-2.35-5-9.65-17.23-24.27-14.83-.84.14-1.41,1.24-1.25,2.37v0c.15,1.1.92,1.83,1.74,1.69,13.11-2.1,19.32,8.66,21.22,12.87A1.35,1.35,0,0,0,2108.42,1806.74Z"/><path class="cls-4" d="M2096.29,1811.35h0a2.41,2.41,0,0,0,.64-3c-2.35-5-9.65-17.23-24.27-14.83-.84.14-1.41,1.24-1.25,2.37v0c.15,1.1.92,1.83,1.74,1.69,13.11-2.1,19.32,8.66,21.22,12.87A1.35,1.35,0,0,0,2096.29,1811.35Z"/><path class="cls-4" d="M2085,1815.66h0a2.41,2.41,0,0,0,.64-3c-2.35-5-9.65-17.23-24.27-14.83-.85.14-1.41,1.24-1.25,2.37v0c.15,1.1.92,1.83,1.74,1.69,13.11-2.1,19.32,8.66,21.22,12.87A1.35,1.35,0,0,0,2085,1815.66Z"/><path class="cls-13" d="M2128.88,1837.81c9-29.41,24.88-32.56,33.59-31.82l3,23.49c.58,4.5-2,8.57-5.33,8.55Z"/><path class="cls-12" d="M2326,1238.15s-213.45.77-246.39,43.68-58,332.72,0,459.47c0,0,75.1,2.64,92.23-7.92,0,0-5.27-213.89-2.63-270.67s42.16-64.7,47.43-70S2326,1238.15,2326,1238.15Z"/><path class="cls-12" d="M2350.15,1549.12c-1.92-17.85-4.42-41-7.13-67.26h0c-4.83-51.52-10.92-82.41-4.46-81.78,51.42,5,191.29-20,273.9-36.14,50.27-9.82,79-64.67,56.69-110.85a54.57,54.57,0,0,0-10.24-14.94c-38.57-38.53-118.21-26.16-118.12-31.55-450.65,37.62-351.35,115-309.09,382.12h0l.71,3.43h0c18.33,88.33,35.63,161,35.63,161s65.88,2.64,104.09-6.6C2372.19,1747,2360.27,1642.66,2350.15,1549.12Z"/><path class="cls-23" d="M2628.17,895.23c-14.68-13.88-49.47-17-81.63-16.6l.72.31c-28.22,31.42-58,3.68-58,3.68h0c-5.75.69-9.12,1.19-9.12,1.19s-21.36,10.15-44.42,38.79c-.33.4-25.08,26.88-27.52,58.34-1.74,22.41,27,55.15,27,68S2422,1154.56,2422,1154.56l5-.62c0,.27,0,.5,0,.62,0,1.17-10.25,2.8-23.35,4.41-.58,16.59-.87,26.91-.87,26.91v32.38c171.43,28.46,274.1,76.49,274.1,76.49C2685.35,960.41,2630.46,897.39,2628.17,895.23Z"/><path class="cls-10" d="M2578.35,893.85a63,63,0,0,0-15.86,27.82c-10.24,36.72-44.42,155.87-58.83,164-13.55,7.64-162.44,17.09-229.56,28.43,4,16.81,14.78,41.31,19.19,61.23h272.15s72.28-89,80.34-182.74C2653,909.12,2614,858.24,2578.35,893.85Z"/><polygon class="cls-4" points="673.29 1365.19 639.48 1848.52 656.38 1848.52 709.93 1370.42 673.29 1365.19"/><polygon class="cls-4" points="1028.49 1365.19 1062.31 1848.52 1045.4 1848.52 991.86 1370.42 1028.49 1365.19"/><path class="cls-5" d="M525.71,842.3s270.32-8,287.82-6.76S847.2,893,847.2,893s79,293,77.39,301,73.67,196.84,73.67,196.84-64.9-1.73-67.77,0-251-21.3-254.44-23.6-16.08-45.47-16.66-47.77-19.53-170.37-19.53-170.37l-9.76-92.66s-37.33-79.5-37.91-79.75-35-69.89-37.33-73.35-37.91-42-39.06-45.47S525.71,842.3,525.71,842.3Z"/><path class="cls-6" d="M525.71,842.3s93.2-2.76,173.69-4.79c-31.28,18.41-48.82,69.9-35.81,161.49C674.66,1076.83,687,1161.3,736,1262.6c25.24,52.17,133.94,23,223,28.11,19.19,49.81,39.27,100.18,39.27,100.18s-64.9-1.73-67.77,0-251-21.3-254.44-23.6-16.08-45.47-16.66-47.77-19.53-170.37-19.53-170.37l-9.76-92.66s-37.33-79.5-37.91-79.75-35-69.89-37.33-73.35-37.91-42-39.06-45.47S525.71,842.3,525.71,842.3Z"/><path class="cls-7" d="M1029.77,1417c-29.87-2-95.26-6.71-161.69-13.09-187.26-18-200.13-31.45-207-38.68-14.34-15-17.21-47.21-21.87-112.84C631,1137.21,618.82,965.29,512.65,872.07a16.8,16.8,0,0,1-2.17-22.84h0a16.77,16.77,0,0,1,24.37-2.43C651.38,949.5,664.65,1136.53,672.69,1250c2.12,29.89,4.65,65.62,9,82.83a16.61,16.61,0,0,0,11.14,11.79c15.94,5,60.46,14.56,183.63,26.25,64.25,6.09,126.72,10.57,155.61,12.53a16.8,16.8,0,0,1,15.61,17.84h0A16.79,16.79,0,0,1,1029.77,1417ZM684.53,1341.2Z"/><polygon class="cls-8" points="1264.8 1700.79 1275.04 1783.15 1330.16 1787.44 1329.3 1711.05 1264.8 1700.79"/><path class="cls-4" d="M1413.91,1847.73l-150.57,1a5.79,5.79,0,0,1-5.91-5.8l0-4.34a6,6,0,0,1,6-5.88l150.57-1a5.79,5.79,0,0,1,5.91,5.8l0,4.34A6,6,0,0,1,1413.91,1847.73Z"/><path class="cls-24" d="M1265.38,1784.06l-5.77,44.58c-.71,5.5,2.38,10.46,6.5,10.44l143.19-1c3.72,0,7.42-2.32,9.41-6.61s2.5-11-3.83-19.83c-12.66-17.66-54.75-21.71-75.22-36.72l-66.7.45C1269.23,1775.42,1266,1779.09,1265.38,1784.06Z"/><path class="cls-4" d="M1329.3,1800.88h0a2.94,2.94,0,0,1-.78-3.62c2.86-6.12,11.78-21,29.64-18.11,1,.17,1.72,1.51,1.53,2.9v0c-.18,1.34-1.12,2.23-2.12,2.07-16-2.57-23.59,10.58-25.91,15.71A1.65,1.65,0,0,1,1329.3,1800.88Z"/><path class="cls-4" d="M1344.12,1806.51h0a2.94,2.94,0,0,1-.78-3.62c2.86-6.12,11.78-21,29.64-18.11,1,.17,1.72,1.51,1.53,2.9v0c-.18,1.34-1.12,2.23-2.12,2.07-16-2.57-23.59,10.58-25.91,15.71A1.65,1.65,0,0,1,1344.12,1806.51Z"/><path class="cls-4" d="M1357.91,1811.77h0a2.94,2.94,0,0,1-.78-3.62c2.86-6.12,11.78-21,29.64-18.11,1,.17,1.72,1.51,1.53,2.9v0c-.18,1.34-1.12,2.23-2.12,2.07-16-2.57-23.59,10.58-25.91,15.71A1.65,1.65,0,0,1,1357.91,1811.77Z"/><path class="cls-13" d="M1304.32,1838.82c-11-35.91-30.38-39.76-41-38.85l-3.71,28.67c-.71,5.5,2.38,10.46,6.5,10.44Z"/><polygon class="cls-20" points="1010.42 1023.18 1019.52 1118.14 983.34 1125.04 963.42 1087.41 966.68 1037.56 994.83 1017.96 1010.42 1023.18"/><path class="cls-19" d="M973.69,873.52s36.73,95.77,36.73,149.65c0,0-19.25,12.65-47,9.2S959,919.57,958,916.69,973.69,873.52,973.69,873.52Z"/><polygon class="cls-8" points="1180.19 1702.54 1204.56 1782.02 1260.65 1782.41 1250.88 1724.39 1180.19 1702.54"/><path class="cls-4" d="M1341.22,1849.2l-150.57,1a5.79,5.79,0,0,1-5.91-5.8l0-4.34a6,6,0,0,1,6-5.88l150.57-1a5.79,5.79,0,0,1,5.91,5.8l0,4.34A6,6,0,0,1,1341.22,1849.2Z"/><path class="cls-25" d="M1192.69,1785.53l-5.77,44.58c-.71,5.5,2.38,10.46,6.5,10.44l143.19-1c3.72,0,7.42-2.32,9.41-6.61s2.5-11-3.83-19.83c-12.66-17.66-54.75-21.71-75.22-36.72l-66.7.45C1196.54,1776.89,1193.33,1780.56,1192.69,1785.53Z"/><path class="cls-4" d="M1256.61,1802.35h0a2.94,2.94,0,0,1-.78-3.62c2.86-6.12,11.78-21,29.64-18.11,1,.17,1.72,1.51,1.53,2.9v0c-.18,1.34-1.12,2.23-2.12,2.07-16-2.57-23.59,10.58-25.91,15.71A1.65,1.65,0,0,1,1256.61,1802.35Z"/><path class="cls-4" d="M1271.44,1808h0a2.94,2.94,0,0,1-.78-3.62c2.87-6.12,11.78-21,29.64-18.11,1,.17,1.72,1.51,1.53,2.9v0c-.18,1.34-1.12,2.23-2.12,2.07-16-2.57-23.59,10.58-25.91,15.71A1.65,1.65,0,0,1,1271.44,1808Z"/><path class="cls-4" d="M1285.22,1813.24h0a2.94,2.94,0,0,1-.78-3.62c2.86-6.12,11.78-21,29.64-18.11,1,.17,1.72,1.51,1.53,2.9v0c-.18,1.34-1.12,2.23-2.12,2.07-16-2.57-23.59,10.58-25.91,15.71A1.65,1.65,0,0,1,1285.22,1813.24Z"/><path class="cls-13" d="M1231.64,1840.29c-11-35.91-30.38-39.76-41-38.85l-3.71,28.67c-.71,5.5,2.38,10.46,6.5,10.44Z"/><path class="cls-12" d="M701.14,1289.08c7.66-71.37,92.19-72.52,92.19-72.52l45.48-4,1.1-9.66s313.57-37.32,356.44,104.9,75.4,423.7,75.4,423.7-41.39,25.19-97.57,0c0,0-79.46-302.22-109.22-331.85s-243.59-34.51-243.59-34.51S693.48,1360.45,701.14,1289.08Z"/><path class="cls-14" d="M994.83,1163.61s-7.4-260.15-21.13-290.08-62.34-35.68-62.34-35.68S784.64,819,751.72,850.14c-2.46,2.33-59.74,78.35-50.58,438.93,0,0,108.81-59.86,293.69-90.55Z"/><path class="cls-12" d="M1047.86,1210.07s234.24-7.41,287.46,43,17.52,429.5,8.65,464.26c0,0-48.57,23.15-87,11.29s-23.65-177.78-23.65-177.78,4.44-158.52-1.48-180.74-87.23-38.52-87.23-38.52-125.66-87.41-118.27-87.41S1047.86,1210.07,1047.86,1210.07Z"/><path class="cls-8" d="M808.83,1092.26l67.42,101.89,89.62-17.71L1118,1062.73l-26.68-39.55s-142.53,85.61-154.66,88-45.19-75-45.19-75Z"/><path class="cls-19" d="M751,919.45c7.37,40.41,26.71,134,54.67,177.22,0,0,67.62-4.95,105.7-51.19,0,0-52-128.59-65.63-154.95-10.92-21.18-63.56-84.15-89.59-21.68A89.72,89.72,0,0,0,751,919.45Z"/><path class="cls-17" d="M2253.4,1132.45l7.84-1.85a26.7,26.7,0,0,0,10.89-5.52l1.78-1.48a22.64,22.64,0,0,0,7.58-14.14l.44-3a13.87,13.87,0,0,0-1.48-8.63h0a9.83,9.83,0,0,0-7.54-5.35l-8.9-.86Zm4.41-7,7.23-27.77,6.06.58a6.7,6.7,0,0,1,5.13,3.65h0a9.45,9.45,0,0,1,1,5.87l-.3,2a15.41,15.41,0,0,1-5.16,9.63l-1.21,1a18.2,18.2,0,0,1-7.42,3.76Z"/><path class="cls-17" d="M2184.36,1084.82l.43-.06,40.07,1.17,40.5-1.18.08,0s.12.07.12.31c0,4.19-1.82,44.92-18.69,62.11a148.16,148.16,0,0,1-22,1.54c-10.46.23-23.62-3.53-23.62-3.53-16.81-17.13-17.1-55.66-17.08-60.08A.33.33,0,0,1,2184.36,1084.82Z"/><path class="cls-26" d="M2184.16,1085.15a.33.33,0,0,1,.2-.33l.43-.06,40.07,1.17,2.44-.07c-8.56,5.32-16.52,13.14-16.93,24-.66,17.54,9.55,34.67,24.51,38.25a63.48,63.48,0,0,1-10,.71c-10.46.23-23.62-3.53-23.62-3.53C2184.44,1128.11,2184.14,1089.57,2184.16,1085.15Z"/><path class="cls-17" d="M2184.16,1085.15c0,6,18.28,10.89,40.73,10.89s40.66-4.87,40.66-10.88-18.2-10.88-40.66-10.88S2184.16,1079.14,2184.16,1085.15Z"/><path class="cls-27" d="M2260.55,1090.29l-12.58,3.39-10,1.49-13.54.34-13.25-.68-8.55-1.08-7.53-1.76-5.32-2.24s-1.37-1.26-2.38-2.13c5.81-4.12,20.71-7,38.13-7,17.67,0,32.7,3,38.31,7.23Z"/><path class="cls-28" d="M2192.35,1086.32a.71.71,0,0,1,.46-.47,120.68,120.68,0,0,1,31.19-4.06h.16a120.69,120.69,0,0,1,31.19,4.06.71.71,0,0,1,.46.47c.16.43.09,1.17-1.41,2a22.71,22.71,0,0,1-12.55.71,72.69,72.69,0,0,0-35.54,0,22.71,22.71,0,0,1-12.55-.71C2192.26,1087.49,2192.19,1086.75,2192.35,1086.32Z"/><path class="cls-4" d="M2258.87,1085.48a37.47,37.47,0,0,0-4.21-1.46c-1.42-.41-2.85-.78-4.29-1.1s-2.88-.6-4.33-.85c-.72-.13-1.45-.24-2.18-.35s-1.45-.21-2.18-.3c-2.91-.38-5.83-.63-8.75-.79s-5.85-.24-8.78-.24a128.32,128.32,0,0,0-17.53,1.19c-2.91.42-5.8,1-8.67,1.66-1.43.36-2.86.76-4.27,1.22a33.46,33.46,0,0,0-4.17,1.62c.34-.16.69-.3,1-.44l1-.39c.7-.25,1.41-.48,2.11-.7,1.42-.43,2.84-.81,4.28-1.14,2.87-.67,5.76-1.17,8.67-1.57s5.82-.67,8.74-.85,5.84-.26,8.76-.26a143.06,143.06,0,0,1,17.51,1c.73.08,1.45.18,2.18.28s1.45.21,2.17.33q2.17.35,4.33.8c1.44.3,2.88.64,4.3,1,.71.2,1.42.4,2.13.63S2258.18,1085.2,2258.87,1085.48Z"/><path class="cls-29" d="M2184.16,1085.15c0,6,18.28,10.89,40.73,10.89s40.66-4.87,40.66-10.88-18.2-10.88-40.66-10.88S2184.16,1079.14,2184.16,1085.15Zm1.7,0c0-5.57,17.52-10.08,39-10.08s39,4.51,39,10.08-17.45,10.08-39,10.08S2185.86,1090.72,2185.86,1085.16Z"/><path class="cls-8" d="M2277.29,1118.53h0c-11.62,1.79-19.92,2.71-23.3,2.41-21.31-1.87-41.37,19.4-45.63,35.77h79.16Z"/><path class="cls-30" d="M2520.36,819.74a19.81,19.81,0,0,0-16.19,3.34s-8.95-4.77-15.33.84c0,0,4,12.56,18,10.7S2520.36,819.74,2520.36,819.74Z"/><path class="cls-11" d="M2527.41,814.64a42.61,42.61,0,0,1-4.75,3.88,42.13,42.13,0,0,1-5.15,3.23,36.53,36.53,0,0,1-11.33,3.91,31.11,31.11,0,0,1-11.92-.48,43.84,43.84,0,0,1-11.23-4.66,37.27,37.27,0,0,0,5.16,3.41,34.16,34.16,0,0,0,5.76,2.4,29.12,29.12,0,0,0,6.17,1.13,30.87,30.87,0,0,0,6.29-.28,32.25,32.25,0,0,0,11.68-4.41A35.35,35.35,0,0,0,2527.41,814.64Z"/><rect class="cls-31" x="858.99" y="1178.72" width="34.59" height="667.96"/><rect class="cls-31" x="1185.39" y="1178.72" width="34.59" height="667.96"/><rect class="cls-31" x="2172.63" y="1178.72" width="34.59" height="667.96"/><rect class="cls-31" x="2499.03" y="1178.72" width="34.59" height="667.96"/><rect class="cls-4" x="766.37" y="1144.02" width="1864.65" height="42.59" rx="8" ry="8"/><rect class="cls-32" x="2160.53" y="1144.02" width="470.49" height="42.59" rx="8" ry="8"/><path class="cls-9" d="M2475.59,682.44s81.39,75.13,119.85,83.68c0,0,5.12-58.25,4.63-60.25s-48.75-47.86-51.74-47.36-90.54,13-90.54,13l-24,59.33Z"/><path class="cls-9" d="M2423.92,698.42l12.29,63.28s50.94-21.83,73.72-48.21-42.35-26.65-42.35-26.65Z"/><path class="cls-14" d="M1167.29,1042.64l7.78-.64a1.51,1.51,0,0,0,1.38-1.63L1165.36,906.6l-10.8.89,11.09,133.76A1.51,1.51,0,0,0,1167.29,1042.64Z"/><ellipse class="cls-19" cx="1159.96" cy="907.05" rx="5.42" ry="1.19" transform="translate(-70.94 98.89) rotate(-4.74)"/><path class="cls-33" d="M1166.08,985.24c2,0,3.86-.14,5.72-.29l4.35,52.51a4.36,4.36,0,0,1-4,4.71l-2.1.17a4.36,4.36,0,0,1-4.71-4L1160.94,985Q1163.45,985.18,1166.08,985.24Z"/><path class="cls-34" d="M1169.81,985.09l4.2,50.62a1.71,1.71,0,0,1-1.56,1.85h0a1.71,1.71,0,0,1-1.85-1.56l-4.21-50.76Q1168.13,985.19,1169.81,985.09Z"/><path class="cls-35" d="M1126.74,976.38a91.81,91.81,0,0,0,78.69,0s11.15,5.24,0,16.39c-7.93,7.93-28.26,8.76-39.34,8.58-11.09.18-31.41-.65-39.34-8.58C1115.58,981.62,1126.74,976.38,1126.74,976.38Z"/><path class="cls-35" d="M1126.74,992.78c7.93,7.93,28.26,8.76,39.34,8.58,11.09.18,31.41-.65,39.34-8.58l.06-.06-11.17,81.45s-5.42,8.27-28.22,8.84c-22.81-.57-28.22-8.84-28.22-8.84l-11.17-81.45Z"/><g class="cls-3"><path class="cls-4" d="M1145.09,992a40.92,40.92,0,0,1-19.69-7.14,2.43,2.43,0,0,1-.39-3.62h0a2.43,2.43,0,0,1,3.19-.34,36.5,36.5,0,0,0,17.33,6.28,2.43,2.43,0,0,1,2.21,2.49h0A2.43,2.43,0,0,1,1145.09,992Z"/></g><path class="cls-35" d="M1166.08,938.11c35.92.43,39.34,38.27,39.34,38.27a91.81,91.81,0,0,1-78.69,0S1130.16,938.54,1166.08,938.11Z"/><g class="cls-3"><path class="cls-4" d="M1196.6,974h0a3.42,3.42,0,0,0,2.9-4.1c-2-9.33-6.19-15.1-9.6-18.39a27.53,27.53,0,0,0-4.72-3.68,3.41,3.41,0,0,0-5,1.87h0a3.41,3.41,0,0,0,1.46,4,20.82,20.82,0,0,1,3.8,3,28.26,28.26,0,0,1,7.4,14.64A3.41,3.41,0,0,0,1196.6,974Z"/></g><path class="cls-36" d="M1205.43,976.38a96.86,96.86,0,0,1-9.59,3.26c-1.62.48-3.25.9-4.88,1.3l-2.46.58L1186,982c-.82.18-1.65.32-2.48.47l-1.24.22-.62.11-.62.09-2.49.36-.62.09-.63.07-1.25.14-1.25.14-.62.07-.63,0-2.51.19c-.84.08-1.67.1-2.5.13l-2.5.1-2.5-.1c-.83,0-1.66-.05-2.5-.14l-2.51-.19-.63,0-.62-.07-1.25-.14-1.25-.14-.62-.07-.62-.09-2.49-.37-.62-.09-.62-.11-1.24-.22c-.83-.15-1.66-.28-2.48-.46l-2.47-.51-2.46-.58c-1.63-.4-3.26-.83-4.88-1.3a97.08,97.08,0,0,1-9.59-3.25,66.72,66.72,0,0,0,9.29,4.15,93.59,93.59,0,0,0,19.82,4.86l1.27.17.63.08.64.06,2.55.23c.85.09,1.71.11,2.56.15l2.57.11,2.57-.11c.86,0,1.72-.06,2.56-.15l2.55-.23.64-.06.64-.08,1.27-.17a93.74,93.74,0,0,0,19.82-4.86A67,67,0,0,0,1205.43,976.38Z"/><path class="cls-36" d="M1205.43,992.63a96.86,96.86,0,0,1-9.59,3.26c-1.62.48-3.25.9-4.88,1.3l-2.46.57-2.47.51c-.82.18-1.65.32-2.48.47l-1.24.22-.62.11-.62.09-2.49.37-.62.09-.63.07-1.25.14-1.25.14-.62.07-.63,0-2.51.19c-.84.08-1.67.1-2.5.13l-2.5.1-2.5-.1c-.83,0-1.66-.05-2.5-.14l-2.51-.19-.63,0-.62-.07-1.25-.14-1.25-.14-.62-.07-.62-.09-2.49-.37-.62-.09-.62-.11-1.24-.22c-.83-.15-1.66-.28-2.48-.47l-2.47-.51-2.46-.58c-1.63-.4-3.26-.83-4.88-1.3a96.82,96.82,0,0,1-9.59-3.25,67,67,0,0,0,9.29,4.15,93.51,93.51,0,0,0,19.82,4.86l1.27.17.63.08.64.06,2.55.23c.85.09,1.71.11,2.56.15l2.57.11,2.57-.11c.86,0,1.72-.06,2.56-.15l2.55-.23.64-.06.64-.08,1.27-.17a93.57,93.57,0,0,0,19.82-4.86A66.86,66.86,0,0,0,1205.43,992.63Z"/><path class="cls-17" d="M1168.23,1016.29H1198l-6.56,54.15s-5,8.62-26,9.22c-21-.59-26-9.22-26-9.22l-6.56-54.15Z"/><ellipse class="cls-37" cx="1165.48" cy="1016.29" rx="32.55" ry="2.9"/><circle class="cls-38" cx="1156.91" cy="1072.02" r="5.98" transform="translate(-241.94 1800.63) rotate(-70.33)"/><path class="cls-39" d="M1154.2,1066.69a6,6,0,0,0,7.84,8.39,6,6,0,1,1-7.84-8.39Z"/><ellipse class="cls-40" cx="1159.46" cy="1069.8" rx="1.58" ry="2.57" transform="translate(-416.16 1148.87) rotate(-45.57)"/><circle class="cls-38" cx="1168.87" cy="1072.67" r="5.98"/><path class="cls-39" d="M1164.52,1068.57a6,6,0,0,0,5.86,7.13,6,6,0,0,0,4.34-1.87,6,6,0,1,1-10.21-5.26Z"/><ellipse class="cls-40" cx="1170.52" cy="1069.73" rx="1.58" ry="2.57" transform="translate(-291.11 1684.61) rotate(-65.24)"/><circle class="cls-38" cx="1147.15" cy="1068.57" r="5.98"/><path class="cls-39" d="M1142.8,1064.47a6,6,0,0,0,10.21,5.26,6,6,0,1,1-10.21-5.26Z"/><ellipse class="cls-40" cx="1148.8" cy="1065.63" rx="1.58" ry="2.57" transform="translate(-300.03 1662.44) rotate(-65.24)"/><circle class="cls-38" cx="1163.68" cy="1063.83" r="5.98"/><path class="cls-39" d="M1159.34,1059.73a6,6,0,0,0,10.21,5.26,6,6,0,1,1-10.21-5.26Z"/><ellipse class="cls-40" cx="1165.34" cy="1060.88" rx="1.58" ry="2.57" transform="translate(-286.08 1674.77) rotate(-65.24)"/><circle class="cls-38" cx="1181" cy="1069.8" r="5.98"/><path class="cls-39" d="M1176.65,1065.7a6,6,0,0,0,5.86,7.13,6,6,0,0,0,4.35-1.88,6,6,0,1,1-10.21-5.26Z"/><ellipse class="cls-40" cx="1182.65" cy="1066.86" rx="1.58" ry="2.57" transform="translate(-281.42 1694.03) rotate(-65.24)"/><circle class="cls-38" cx="1173.74" cy="1062.75" r="5.98"/><path class="cls-39" d="M1169.4,1058.65a6,6,0,0,0,10.21,5.26,6,6,0,1,1-10.21-5.26Z"/><ellipse class="cls-40" cx="1175.4" cy="1059.81" rx="1.58" ry="2.57" transform="translate(-279.26 1683.27) rotate(-65.24)"/><circle class="cls-38" cx="1153.12" cy="1058.65" r="5.98"/><path class="cls-39" d="M1148.78,1054.55a6,6,0,0,0,5.86,7.13,6,6,0,0,0,4.35-1.88,6,6,0,1,1-10.21-5.26Z"/><ellipse class="cls-40" cx="1154.78" cy="1055.71" rx="1.58" ry="2.57" transform="translate(-287.52 1662.18) rotate(-65.24)"/><circle class="cls-38" cx="1163.68" cy="1051.88" r="5.98"/><path class="cls-39" d="M1159.34,1047.78a6,6,0,0,0,10.21,5.26,6,6,0,1,1-10.21-5.26Z"/><ellipse class="cls-40" cx="1165.34" cy="1048.93" rx="1.58" ry="2.57" transform="translate(-275.22 1667.85) rotate(-65.24)"/><circle class="cls-38" cx="1186.71" cy="1059.56" r="5.98"/><path class="cls-39" d="M1182.37,1055.46a6,6,0,0,0,10.21,5.26,6,6,0,1,1-10.21-5.26Z"/><ellipse class="cls-40" cx="1188.37" cy="1056.62" rx="1.58" ry="2.57" transform="translate(-268.85 1693.15) rotate(-65.24)"/><circle class="cls-38" cx="1177.74" cy="1051.54" r="5.98"/><path class="cls-39" d="M1173.39,1047.44a6,6,0,0,0,5.86,7.13,6,6,0,0,0,4.35-1.88,6,6,0,1,1-10.21-5.26Z"/><ellipse class="cls-40" cx="1179.39" cy="1048.59" rx="1.58" ry="2.57" transform="translate(-266.76 1680.38) rotate(-65.24)"/><circle class="cls-38" cx="1143.38" cy="1051.88" r="5.98"/><path class="cls-39" d="M1139,1047.78a6,6,0,0,0,10.21,5.26,6,6,0,1,1-10.21-5.26Z"/><ellipse class="cls-40" cx="1145.04" cy="1048.93" rx="1.58" ry="2.57" transform="translate(-287.02 1649.41) rotate(-65.24)"/><circle class="cls-38" cx="1153.47" cy="1045.56" r="5.98"/><path class="cls-39" d="M1149.12,1041.46a6,6,0,0,0,10.21,5.26,6,6,0,1,1-10.21-5.26Z"/><ellipse class="cls-40" cx="1155.13" cy="1042.62" rx="1.58" ry="2.57" transform="translate(-275.43 1654.88) rotate(-65.24)"/><path class="cls-41" d="M1165.48,1019.19c18,0,32.55-1.3,32.55-2.9l-6.56,54.15s-5,8.62-26,9.22c-21-.59-26-9.22-26-9.22l-6.56-54.15C1132.94,1017.9,1147.51,1019.19,1165.48,1019.19Z"/><g class="cls-3"><path class="cls-4" d="M1189.48,1061.59l4.71-53.83a4.88,4.88,0,0,0-4.43-5.28h0a4.88,4.88,0,0,0-5.28,4.43l-4.71,53.83a4.85,4.85,0,0,0,4.4,5.28h0A4.88,4.88,0,0,0,1189.48,1061.59Z"/></g><path class="cls-33" d="M1166.08,985.24c2,0,3.86-.14,5.72-.29l4.35,52.51a4.36,4.36,0,0,1-4,4.71l-2.1.17a4.36,4.36,0,0,1-4.71-4L1160.94,985Q1163.45,985.18,1166.08,985.24Z"/><path class="cls-34" d="M1167.19,950.41l6.81,85.3a1.71,1.71,0,0,1-1.56,1.85h0a1.71,1.71,0,0,1-1.85-1.56l-6.82-85.44Q1165.51,950.51,1167.19,950.41Z"/><path class="cls-37" d="M1176.17,1014.77l-1.83.36s-5.47,3.42-11.14.36l.36,3.71,11.42-.13Z"/><ellipse class="cls-42" cx="1164.87" cy="946.18" rx="11.93" ry="4.32"/><path class="cls-43" d="M1164.87,943.71c-5.71,0-10.48,1.45-11.65,3.4a1.78,1.78,0,0,1-.28-.93c0-2.39,5.34-4.32,11.93-4.32s11.93,1.94,11.93,4.32a1.79,1.79,0,0,1-.28.93C1175.35,945.16,1170.58,943.71,1164.87,943.71Z"/><path class="cls-14" d="M1164.87,950.5a28.41,28.41,0,0,1-6.81-.77l-3.5-42.26,10.8-.89h0l3.62,43.66A31.34,31.34,0,0,1,1164.87,950.5Z"/><path class="cls-34" d="M1164.87,950.5l-1.26.48-3.1-37.35a1.71,1.71,0,0,1,1.56-1.85h0a1.71,1.71,0,0,1,1.85,1.56l3.07,37.08C1166.3,950.47,1165.59,950.5,1164.87,950.5Z"/><ellipse class="cls-19" cx="1159.96" cy="907.03" rx="5.42" ry="1.19" transform="translate(-70.97 98.93) rotate(-4.74)"/><path class="cls-44" d="M1159.86,905.84c3-.25,5.44.09,5.5.74a.47.47,0,0,1-.21.37,13.3,13.3,0,0,0-5-.3c-2.42.2-4.44.72-5.09,1.26-.31-.12-.48-.27-.5-.44C1154.51,906.82,1156.88,906.09,1159.86,905.84Z"/><path class="cls-8" d="M1190.44,1022.55c-.74-3.43-43-4.15-56.43-4.3a2.1,2.1,0,0,1-1.18-.37L1130,1017l-2.51-18.31c-10.24,6.72-26.81,18.11-36.79,25.06,0,0-9.54,7.44-9,11.47.57,4.55,15.58,7.24,15.57,11.83a88.42,88.42,0,0,1-1.19,13.76,63.1,63.1,0,0,1-2.32,8.65l22,1.57c59.32,1.69,59.24.19,59.66-2s-23.73-9.82-22.39-12,36.19-2.62,34.46-5.19-33.94-6-33.38-8,34.19-1.9,34-6.4-37.08-3.31-35.81-7S1191.32,1026.62,1190.44,1022.55Z"/><polygon class="cls-8" points="836.01 774.1 835.38 841.93 897.18 841.93 892.94 775.73 836.01 774.1"/><path class="cls-11" d="M895.22,811.29l-2.28-35.57L836,774.1l-.26,28.27C847.82,812.72,864.68,824.5,895.22,811.29Z"/><path class="cls-9" d="M781.61,662s-26.41-16.13-55.34,1.74-27.13,75-15.1,88.31.41,32.2,24.18,49.32,60.92,22.51,81.36,1,3.51-67.55,3.51-67.55Z"/><ellipse class="cls-11" cx="955.7" cy="711.12" rx="19.34" ry="15.47" transform="translate(-56.4 1339.38) rotate(-68.48)"/><path class="cls-8" d="M939.13,763.33a80.45,80.45,0,0,0,6.05-13.6c4.59-12.78,6.82-26.31,7.83-38.1.22-2.53.58-5,1-7.55a82.61,82.61,0,1,0-164.14-12.4c-5.2-2.81-11-3.41-16.1-1.07-9.75,4.49-13.11,18-7.49,30.21s18.07,18.43,27.82,13.94a15.79,15.79,0,0,0,3.67-2.38c4.59,40.4,38.08,71.24,77.82,70.12a74.12,74.12,0,0,0,50-21.52,36.55,36.55,0,0,0,2.76-2.65A71.61,71.61,0,0,0,939.13,763.33Z"/><path class="cls-11" d="M891.22,697.15c.51,4.71.89,9.31,1.48,13.81s1.46,9.07,3.46,12.05l.39.47a6.3,6.3,0,0,0,.48.59,11.3,11.3,0,0,1,1.38,1.68A9.34,9.34,0,0,1,900,730a9.76,9.76,0,0,1-3,7.89c-3.94,3.86-9.37,4.6-14,3.83,4.55-1.16,8.84-3.07,11.19-6.27,1.08-1.58,1.74-3.31,1.35-4.86a5.23,5.23,0,0,0-1-2.18,7.09,7.09,0,0,0-.84-1l-.65-.74-.73-.87a18.43,18.43,0,0,1-2.79-7.37,38.6,38.6,0,0,1-.51-7.27A49.44,49.44,0,0,1,891.22,697.15Z"/><circle class="cls-9" cx="857.15" cy="705.64" r="7.21" transform="translate(-19.42 24.27) rotate(-1.6)"/><circle class="cls-9" cx="919.17" cy="707.97" r="7.21" transform="matrix(1, -0.03, 0.03, 1, -19.46, 26.01)"/><path class="cls-9" d="M872.17,688.52a74.27,74.27,0,0,0-10.7-1.74,36.57,36.57,0,0,0-10,.53,33.84,33.84,0,0,0-9.42,3.27c-1.62.64-3,1.73-4.62,2.56s-3,2.07-4.73,3a30.34,30.34,0,0,1,2.83-5,24.61,24.61,0,0,1,4.06-4.24,23.28,23.28,0,0,1,10.82-5.12,24.31,24.31,0,0,1,11.93.69A22.17,22.17,0,0,1,872.17,688.52Z"/><path class="cls-9" d="M904.11,689.71a22.18,22.18,0,0,1,10.1-5.64,24.32,24.32,0,0,1,12-.14,23.28,23.28,0,0,1,10.58,5.61A24.61,24.61,0,0,1,940.6,694a30.27,30.27,0,0,1,2.6,5.16c-1.71-1-3.08-2.21-4.59-3.21s-2.91-2.05-4.5-2.77a33.82,33.82,0,0,0-9.26-3.7,36.57,36.57,0,0,0-10-1A74.28,74.28,0,0,0,904.11,689.71Z"/><path class="cls-30" d="M870.76,756.35a17.79,17.79,0,0,1,14.68,2s7.73-4.78,13.77-.14c0,0-2.88,11.45-15.52,10.61S870.76,756.35,870.76,756.35Z"/><path class="cls-11" d="M864.16,752.2a43.77,43.77,0,0,0,9.27,5.76,32.81,32.81,0,0,0,10.36,2.83,28,28,0,0,0,10.63-1.12,39.33,39.33,0,0,0,9.77-4.81,33.36,33.36,0,0,1-4.42,3.35,30.62,30.62,0,0,1-5,2.48,26.14,26.14,0,0,1-5.46,1.37,27.77,27.77,0,0,1-5.64.12,29,29,0,0,1-10.7-3.26A31.67,31.67,0,0,1,864.16,752.2Z"/><path class="cls-9" d="M955.07,618.24c-12.43-24.4-35.53-37.67-55.35-44.83a106.11,106.11,0,0,0-75.44,1c-67.8,27.32-51.81,100.82-48.15,114.55,3.25-.85,7.77-.89,13.35,1.84a31.17,31.17,0,0,1,5.81,3.63c13.22-4.39,16.58-26.17,23.16-36.82,8.93-14.45,45.7-2.11,61.06-12.64s17.7-21.06,17.7-21.06c60.71,7.46,58.26,74.06,58.26,74.06,2.6-.65,8.33-10.41,8.33-10.41S977.92,663.11,955.07,618.24Z"/><path class="cls-8" d="M835.38,841.93s31.7,18.79,61.8,0l-16.08-4.42Z"/><path class="cls-8" d="M1792.8,854.69s22.75,12.65,50.44,0c0,0-35-4-36.85-4S1792.8,854.69,1792.8,854.69Z"/><path class="cls-4" d="M1842.19,771.21c-1.71,7.12-10,12.59-20,12.73s-18.45-5.12-20.36-12.19Z"/><rect class="cls-38" x="320.89" y="1846.41" width="2681.52" height="18.51"/><path class="cls-45" d="M383.91,1490.23c-2-17.73-4.4-35.86-12.65-51.68-10-19.24-27.64-33.12-43-48.41a268.47,268.47,0,0,1-64.16-102.06c-10.27-29.61-15.39-61.16-29.54-89.13-8.64-17.08-20.43-32.34-30.24-48.77-18.66-31.23-30.48-67-50.76-96.76-5.54-8.12-18.37-3.88-17.94,6a140.94,140.94,0,0,0,33.3,85c7.75,9,16.73,17.15,22.64,27.47,10.72,18.74,9.74,41.59,11,63.14a276.83,276.83,0,0,0,33.23,116c20.64,37.82,50.43,71.51,61.47,113.16,8.27,31.21,5.81,66.23,23.44,93.28,1.91,2.93,4.1,5.88,4.57,9.34a20.37,20.37,0,0,1-.35,5.87l-1.18,7.54c-4,25.55-8.16,58.05,13.84,77.17,15.25,13.25,34.87,13.55,45.82-4.05s10-43.66,9.23-63.61C391.22,1556.55,387.66,1523.25,383.91,1490.23Z"/><path class="cls-46" d="M423.53,1469.68c-8.56-29.57-21.84-57.74-28.5-87.8-6.46-29.15-6.51-59.3-6.53-89.16q0-49.08-.07-98.16c0-20.37,0-40.85-3.41-60.94-7.26-43.23-29.77-83.2-33.58-126.86-1.65-18.88.27-38-1.81-56.81-1.19-10.76-4-21.75-8.95-31.3a14,14,0,0,0-25.07.7c-10.94,23.64-17.87,49.2-13.45,74.53,2.65,15.2,9.25,29.37,14.17,44,21.93,65.09,10.29,137.15,27.25,203.71,5.12,20.09,12.87,39.79,13.77,60.51,2.16,49.58-34.95,94.86-31.54,144.37,2.79,40.59,32,74.18,44.31,113,6.87,21.71,8.34,44.89,15.7,66.45,5.72,16.75,19,37.08,39.68,32,19.61-4.83,13.69-20.8,12.81-36.06C435.34,1570.2,438.13,1520.11,423.53,1469.68Z"/><path class="cls-45" d="M468.43,1496.78c-.86-15.37-3.46-30.82-1.31-46.06,1.82-12.87,7-25,10.62-37.47,6.87-23.37,8.57-47.89,10.24-72.19L497,1208.55c4.7-68.66,9.43-137.52,22.29-205.13,3.57-18.77,7.58-39.11-.87-56.25-1.78-3.61-5.29-7.44-9.13-6.24-2.74.86-4.08,3.87-5.08,6.56-28.12,76.26-38.75,158.37-70.14,233.35-7.52,18-16.26,35.63-20.16,54.71-4.67,22.91-2.11,46.57-1.5,69.95.87,33.52-2.41,67.3-11.68,99.52-4.85,16.86-11.35,33.34-14,50.68-3.32,21.62-.53,43.65,1.54,65.43a1003,1003,0,0,1,4,126c-.76,24.71,20.14,24.07,34,8.88,9.68-10.62,9.6-22.28,12.91-35.49C450.15,1577.15,471.07,1543.83,468.43,1496.78Z"/><path class="cls-46" d="M337.81,1563.79c-18.49-29.64-55.31-46.49-67.13-79.37-3-8.37-4.18-17.36-7.85-25.46-8.16-18-26.71-28.14-44.94-36.41a3.86,3.86,0,0,0-5.45,3.46h0a13.13,13.13,0,0,0,5.71,11.1,73.83,73.83,0,0,1,29.48,40.12c5.63,19.27,3.19,40.39,10.19,59.2,5.88,15.79,18,28.7,23.66,44.57,5.2,14.5,4.65,30.35,7.09,45.56s9.21,31.35,23.21,37.78C362.41,1687.63,349.76,1582.94,337.81,1563.79Z"/><path class="cls-45" d="M548.43,1554c-.79,14.33,1.41,29.35-4.21,42.56-3.6,8.45-10.06,15.28-15.37,22.77-18.64,26.31-25.4,63.59-54,78.4-1.89,1-4,1.85-6.09,1.46-2.94-.55-4.86-3.37-6-6.11-7-16.33.86-34.72,5.52-51.87.82-3,1.5-6.34.07-9.1-1.58-3-5.17-4.35-7.62-6.73-4.89-4.75-4.43-12.61-3.46-19.36A438,438,0,0,1,467.39,1556c2.48-9.34,5.35-18.76,10.74-26.78,5.93-8.83,14.55-15.41,22.62-22.34A267.55,267.55,0,0,0,579,1391.56c3.31-9.62,6.26-19.78,13.1-27.32s19-11.41,27.35-5.57c5.93,4.16-18.34,43.12-21.17,47.79-8.08,13.35-8.19,25-12.76,39.79C574.35,1482.58,550.57,1515.09,548.43,1554Z"/><path class="cls-46" d="M520.2,1570.58c5.3-13.67,10.64-27.52,12.39-42.08,1.94-16.18-.63-32.73,2.14-48.79,3.56-20.65,15.63-38.81,21.6-58.89,4.31-14.5,5.37-29.74,8-44.65,7.41-42.63,27.49-84.29,21.73-127.17-1.25-9.33-5.47-20.2-14.75-21.79-8.4-1.44-16,6.22-18.23,14.46s-.55,16.92,0,25.42a104.78,104.78,0,0,1-18.84,67.3C521,1353,501.9,1367,490,1386.54c-14.56,23.92-16.54,53.11-24,80.11-14.78,53.69-51.84,100.53-58.6,155.8-2.69,22,2.48,48.73,22.83,57.52C489.11,1705.38,506.87,1605,520.2,1570.58Z"/><path class="cls-4" d="M417.35,1611h-135a14.29,14.29,0,0,0-13.91,17.6l49.22,207.11a14.3,14.3,0,0,0,13.91,11H493.74a14.29,14.29,0,0,0,13.91-11l49.22-207.11A14.29,14.29,0,0,0,543,1611Z"/><path class="cls-47" d="M294.06,1611H282.34a14.29,14.29,0,0,0-13.91,17.6l49.22,207.11a14.3,14.3,0,0,0,13.91,11H493.74a14.29,14.29,0,0,0,13.91-11l1.82-7.67C417.31,1776.45,327.42,1704.63,294.06,1611Z"/><path class="cls-4" d="M2430,72.43V204.64c-8.9,1.39-16,13.19-16.5,27.79-28.26,12.37-49.38,53.73-50,103.11l133.6,1.59c.59-49.38-19.53-91.23-47.49-104.27a43.68,43.68,0,0,0-1.89-12.49,34.66,34.66,0,0,0-7.68-12.6,15.33,15.33,0,0,0-2.51-1.72v-130Q2433.79,74.23,2430,72.43Z"/><path class="cls-4" d="M1340.43,219.59v237.5c-7.81,2.87-13.78,13.86-14.23,27.19-28.26,12.37-49.38,53.73-50,103.11l133.6,1.59c.59-49.38-19.53-91.23-47.49-104.27a43.67,43.67,0,0,0-1.89-12.49,34.65,34.65,0,0,0-7.68-12.6,14.12,14.12,0,0,0-4.79-2.71V217.37Z"/><path class="cls-4" d="M1745.41,263.38a43.67,43.67,0,0,0-1.89-12.49,34.66,34.66,0,0,0-7.68-12.6,13.61,13.61,0,0,0-6-3V68.94q-3.79,1.57-7.56,3.16V236.25c-7.23,3.49-12.64,14-13.06,26.7-28.26,12.37-49.38,53.73-50,103.11l133.6,1.59C1793.49,318.28,1773.37,276.42,1745.41,263.38Z"/><path class="cls-4" d="M2209,545.13c.59-49.38-19.53-91.23-47.49-104.27a43.64,43.64,0,0,0-1.89-12.49,34.65,34.65,0,0,0-7.68-12.6,13.62,13.62,0,0,0-6-3V1.78q-3.78-.23-7.55-.43V413.73c-7.23,3.49-12.64,14-13.06,26.7-28.27,12.37-49.38,53.73-50,103.11Z"/></g></g></g></svg>