<svg height="512pt" viewBox="0 -11 512.00115 512" width="512pt" xmlns="http://www.w3.org/2000/svg"><path d="m501.152344 245.152344c0 135.394531-109.757813 245.152344-245.152344 245.152344s-245.152344-109.757813-245.152344-245.152344c0-135.394532 109.757813-245.152344 245.152344-245.152344s245.152344 109.757812 245.152344 245.152344zm0 0" fill="#fdd33a"/><path d="m134.074219 379.714844h20.699219v29.683594h-20.699219zm0 0" fill="#1b0d59"/><path d="m356.914062 379.714844h20.695313v29.683594h-20.695313zm0 0" fill="#1b0d59"/><path d="m178.203125 440.011719c0-18.65625-15.125-33.78125-33.78125-33.78125-18.652344 0-33.777344 15.125-33.777344 33.78125 0 .929687.046875 1.847656.121094 2.757812 14.910156 10.964844 31.101563 20.28125 48.3125 27.683594 11.316406-5.457031 19.125-17.039063 19.125-30.441406zm0 0" fill="#6843af"/><path d="m449.113281 326.769531-324.359375 1.171875c-7.078125.027344-13.222656-4.882812-14.757812-11.792968l-49.480469-222.304688c-2.085937-9.390625 5.035156-18.304688 14.652344-18.339844l421.707031-1.523437c9.617188-.035157 16.804688 8.832031 14.785156 18.234375l-47.871094 222.65625c-1.488281 6.921875-7.597656 11.875-14.675781 11.898437zm0 0" fill="#ef3a50"/><path d="m129.523438 94.386719c-2.089844-9.667969 5.03125-18.847657 14.648437-18.882813l355.316406-1.285156c-.847656-.144531-1.714843-.242188-2.613281-.238281l-421.707031 1.523437c-9.617188.035156-16.738281 8.949219-14.652344 18.339844l49.480469 222.304688c1.535156 6.914062 7.679687 11.820312 14.757812 11.792968l55.96875-.199218c-.765625-1.355469-1.355468-2.839844-1.699218-4.433594zm0 0" fill="#ce2844"/><path d="m476.496094 326.3125c-7.308594-7.277344-17-11.28125-27.3125-11.28125-.046875 0-.09375 0-.140625 0l-35.554688.128906-286.425781 1.035156c-.015625 0-.035156 0-.050781 0-6.910157 0-13.011719-4.886718-14.515625-11.632812l-60.105469-269.382812c-3.824219-17.136719-19.3125-29.542969-36.863281-29.542969-.042969 0-.089844 0-.132813.003906l-3.695312-.003906c-6.484375.023437-11.7226565 5.296875-11.699219 11.78125.0234375 6.472656 5.273438 11.699219 11.738281 11.699219h.042969 3.695312.050782c6.640625 0 12.5 4.691406 13.949218 11.175781l60.101563 269.382812c3.882813 17.402344 19.613281 30 37.433594 29.996094h.136719l276.070312-.996094 45.90625-.167969h.058594c4.050781 0 7.863281 1.578126 10.738281 4.4375 2.886719 2.878907 4.472656 6.703126 4.472656 10.78125 0 8.386719-6.824219 15.210938-15.214843 15.210938h-334.878907c-6.484375 0-11.742187 5.257812-11.742187 11.742188 0 6.484374 5.257812 11.738281 11.742187 11.738281h334.878907c.921874 0 1.832031-.042969 2.734374-.105469 12.902344-17.160156 23.597657-36.066406 31.679688-56.300781-1.824219-3.535157-4.199219-6.808594-7.097656-9.699219zm0 0" fill="#50309e"/><path d="m367.261719 406.234375c-18.65625 0-33.78125 15.121094-33.78125 33.777344 0 13.402343 7.808593 24.984375 19.125 30.441406 17.210937-7.402344 33.402343-16.71875 48.3125-27.683594.074219-.910156.121093-1.828125.121093-2.757812 0-18.65625-15.121093-33.777344-33.777343-33.777344zm0 0" fill="#6843af"/><path d="m154.773438 407.855469c-.789063-.253907-1.585938-.476563-2.398438-.671875-.074219-.019532-.148438-.035156-.226562-.054688-.785157-.183594-1.585938-.34375-2.394532-.472656-.011718-.003906-.023437-.003906-.035156-.007812-.785156-.125-1.582031-.214844-2.382812-.28125-.167969-.015626-.332032-.027344-.5-.039063-.796876-.058594-1.601563-.097656-2.414063-.097656-5.828125 0-11.3125 1.480469-16.097656 4.078125-.960938.519531-1.886719 1.085937-2.785157 1.691406-.449218.304688-.890624.617188-1.324218.941406-.867188.648438-1.703125 1.339844-2.503906 2.066406-.398438.363282-.789063.734376-1.171876 1.117188-1.527343 1.527344-2.910156 3.203125-4.125 5-.605468.898438-1.171874 1.828125-1.691406 2.785156-2.601562 4.785156-4.078125 10.269532-4.078125 16.101563 0 .480469.019531.957031.039063 1.433593.019531.441407.046875.882813.082031 1.320313v.003906c8.65625 6.359375 17.753906 12.152344 27.21875 17.351563-4.171875-5.617188-6.640625-12.574219-6.640625-20.109375-.003906-15.042969 9.835938-27.785157 23.429688-32.15625zm0 0" fill="#50309e"/><path d="m354.179688 440.011719c0-15.042969 9.835937-27.785157 23.429687-32.15625-.785156-.253907-1.585937-.476563-2.398437-.671875-.074219-.019532-.148438-.035156-.222657-.054688-.789062-.183594-1.585937-.34375-2.394531-.472656-.015625-.003906-.027344-.003906-.039062-.007812-.785157-.125-1.582032-.214844-2.382813-.28125-.164063-.015626-.332031-.027344-.496094-.039063-.800781-.058594-1.601562-.097656-2.414062-.097656-5.53125 0-10.746094 1.339843-15.355469 3.695312-.425781.21875-.847656.445313-1.261719.679688-.589843.335937-1.167969.6875-1.734375 1.054687-.632812.410156-1.253906.832032-1.859375 1.285156-.664062.496094-1.304687 1.023438-1.933593 1.570313-1.003907.875-1.964844 1.800781-2.859376 2.785156-.726562.800781-1.417968 1.632813-2.066406 2.5-1.296875 1.734375-2.429687 3.597657-3.378906 5.566407-2.132812 4.429687-3.332031 9.398437-3.332031 14.644531 0 .746093.035156 1.484375.082031 2.21875.011719.199219.03125.394531.046875.59375.050781.621093.117187 1.238281.199219 1.851562.015625.117188.027344.234375.046875.351563.105469.710937.238281 1.414062.386719 2.109375.039062.175781.082031.347656.121093.523437.128907.5625.273438 1.121094.433594 1.675782.042969.15625.085937.316406.132813.472656.203124.671875.425781 1.335937.667968 1.992187.050782.132813.105469.261719.15625.394531.210938.539063.433594 1.074219.671875 1.605469.074219.164063.148438.332031.226563.496094.292968.632813.601562 1.257813.9375 1.867187.03125.054688.0625.109376.09375.164063.308594.558594.636718 1.105469.976562 1.644531.097656.160156.199219.316406.300782.472656.34375.527344.699218 1.042969 1.070312 1.550782.042969.054687.082031.113281.121094.171875.414062.554687.847656 1.089843 1.292968 1.617187.117188.136719.234376.269532.351563.402344.375.433594.761719.855469 1.160156 1.269531.097657.097657.1875.199219.285157.296875.480468.488282.980468.960938 1.492187 1.421875.117187.101563.234375.199219.347656.300781.429688.371094.867188.734376 1.3125 1.085938.132813.105469.261719.210938.398438.3125.546875.421875 1.109375.824219 1.683593 1.210938.082032.054687.167969.105468.253907.160156.503906.332031 1.019531.652344 1.542969.957031.15625.09375.316406.183594.472656.273437.609375.339844 1.226562.671876 1.855468.972657 0 0 0 .003906.003907.003906 4.171875-1.796875 8.289062-3.710937 12.339843-5.726563-6.621093-6.164062-10.765624-14.953124-10.765624-24.714843zm0 0" fill="#50309e"/><g fill="#ce2844"><path d="m418.417969 117.167969h-264.683594c-4.976563 0-9.007813-4.03125-9.007813-9.003907 0-4.972656 4.03125-9.003906 9.007813-9.003906h264.683594c4.972656 0 9.007812 4.03125 9.007812 9.003906 0 4.972657-4.035156 9.003907-9.007812 9.003907zm0 0"/><path d="m404.714844 172.640625h-237.277344c-4.976562 0-9.007812-4.03125-9.007812-9.007813 0-4.972656 4.03125-9.003906 9.007812-9.003906h237.277344c4.972656 0 9.003906 4.03125 9.003906 9.003906 0 4.972657-4.03125 9.007813-9.003906 9.007813zm0 0"/><path d="m391.011719 228.109375h-209.871094c-4.976563 0-9.007813-4.03125-9.007813-9.007813 0-4.972656 4.03125-9.003906 9.007813-9.003906h209.871094c4.972656 0 9.003906 4.03125 9.003906 9.003906 0 4.972657-4.03125 9.007813-9.003906 9.007813zm0 0"/><path d="m377.308594 283.578125h-182.464844c-4.972656 0-9.007812-4.03125-9.007812-9.007813 0-4.972656 4.035156-9.003906 9.007812-9.003906h182.464844c4.972656 0 9.007812 4.03125 9.007812 9.003906 0 4.976563-4.035156 9.007813-9.007812 9.007813zm0 0"/></g><path d="m163.476562 440.011719c0 10.523437-8.53125 19.050781-19.054687 19.050781-10.519531 0-19.050781-8.527344-19.050781-19.050781 0-10.523438 8.53125-19.054688 19.050781-19.054688 10.523437 0 19.054687 8.53125 19.054687 19.054688zm0 0" fill="#1b0d59"/><path d="m386.3125 440.011719c0 10.523437-8.527344 19.050781-19.050781 19.050781-10.523438 0-19.054688-8.527344-19.054688-19.050781 0-10.523438 8.53125-19.054688 19.054688-19.054688 10.523437 0 19.050781 8.53125 19.050781 19.054688zm0 0" fill="#1b0d59"/></svg>