<svg height="512pt" viewBox="-6 0 512 512" width="512pt" xmlns="http://www.w3.org/2000/svg"><path d="m500.75 259.617188c1.085938 138.523437-109.359375 251.011718-247.878906 252.371093-16.890625.164063-33.398438-1.355469-49.367188-4.386719-5.511718-1.042968-7.894531-7.546874-4.359375-11.902343 46.464844-57.289063 75.761719-140.921875 75.761719-234.078125 0-93.046875-29.226562-176.589844-75.597656-233.871094-3.605469-4.457031-1.058594-11.121094 4.578125-12.183594 15.066406-2.832031 30.605469-4.324218 46.492187-4.324218 137.613282 0 249.296875 111.015624 250.371094 248.375zm0 0" fill="#e43950"/><path d="m435.460938 276.074219-231.59375 231.59375c-19.628907-3.6875-38.441407-9.671875-56.164063-17.652344-7.222656-3.253906-7.988281-13.222656-1.320313-17.5 69.394532-44.507813 115.382813-122.328125 115.382813-210.894531 0-88.535156-45.957031-166.332032-115.3125-210.847656-6.699219-4.300782-5.929687-14.316407 1.328125-17.582032 17.699219-7.964844 36.488281-13.9375 56.085938-17.617187l231.59375 231.59375c7.984374 7.980469 7.984374 20.925781 0 28.90625zm0 0" fill="#fd6c55"/><path d="m295.34375 261.621094c0 101.679687-60.609375 189.199218-147.671875 228.40625-87.0625-39.207032-147.671875-126.726563-147.671875-228.40625 0-101.679688 60.609375-189.199219 147.671875-228.40625 87.0625 39.207031 147.671875 126.726562 147.671875 228.40625zm0 0" fill="#fde5bd"/><path d="m295.34375 261.621094c0 100.84375-59.621094 187.75-145.53125 227.421875-65.78125-49.660157-108.933594-132.992188-108.933594-227.421875 0-94.429688 43.152344-177.761719 108.933594-227.421875 85.910156 39.671875 145.53125 126.578125 145.53125 227.421875zm0 0" fill="#fff5f5"/><path d="m469.078125 30.660156v132.851563c0 28.222656-22.878906 51.097656-51.097656 51.097656v143.074219h-51.097657v-143.074219c-28.222656 0-51.097656-22.875-51.097656-51.097656v-132.851563c0-16.199218 12.5625-29.464844 28.472656-30.582031 1.183594-.0859375 2.183594.863281 2.183594 2.046875v146.058594c0 8.710937 7.269532 15.726562 16.070313 15.3125 8.246093-.390625 14.589843-7.492188 14.589843-15.746094v-132.421875c0-8.464844 6.863282-15.328125 15.328126-15.328125 8.46875 0 15.332031 6.863281 15.332031 15.328125v132.855469c0 8.710937 7.265625 15.726562 16.070312 15.3125 8.242188-.390625 14.585938-7.492188 14.585938-15.746094v-145.625c0-1.183594 1.003906-2.1328125 2.183593-2.046875 15.914063 1.117187 28.476563 14.382813 28.476563 30.582031zm0 0" fill="#fdd78d"/><path d="m387.320312 183.953125c-18.128906 0-33.496093-11.808594-38.84375-28.152344 2.773438 4.835938 8.105469 8.015625 14.148438 7.6875 8.199219-.441406 14.476562-7.527343 14.476562-15.738281v-132.421875c0-8.710937 7.265626-15.722656 16.070313-15.3125 8.246094.390625 14.589844 7.492187 14.589844 15.746094v132.421875c0 8.710937 7.265625 15.726562 16.070312 15.3125 8.242188-.390625 14.585938-7.492188 14.585938-15.746094v-145.625c0-1.183594 1.003906-2.1328125 2.183593-2.046875 15.914063 1.117187 28.476563 14.382813 28.476563 30.582031v132.851563.21875c-.046875 11.226562-9.355469 20.222656-20.582031 20.222656zm0 0" fill="#ffe899"/><path d="m213.589844 261.621094c0 86.585937-65.277344 157.917968-149.296875 167.511718-8.347657-9.261718-16.011719-19.15625-22.914063-29.59375 1.1875.03125 2.394532.046876 3.589844.046876 76.191406 0 137.960938-61.769532 137.960938-137.964844 0-76.195313-61.769532-137.964844-137.960938-137.964844-1.195312 0-2.402344.015625-3.589844.046875 6.902344-10.4375 14.574219-20.335937 22.917969-29.601563 84.019531 9.59375 149.292969 80.933594 149.292969 167.519532zm0 0" fill="#f9d19a"/><path d="m385.515625 472.816406c-14.546875 9.335938-30.195313 16.988282-46.59375 23.191406-.277344-2.53125-.332031-5.257812-.109375-7.894531l13.773438-165.300781c1.726562-20.722656 19.050781-36.664062 39.84375-36.664062 8.382812 0 16.195312 2.589843 22.65625 7.039062-9.570313 6.589844-16.164063 17.253906-17.195313 29.625zm0 0" fill="#f4aa39"/><path d="m377.039062 477.996094 12.957032-155.1875c1.167968-14.007813 9.464844-25.820313 21.140625-32.011719 11.675781 6.191406 19.972656 18.003906 21.140625 32.011719l8.453125 101.816406c-18.050781 21.109375-37.25 38.328125-63.691407 53.371094zm0 0" fill="#fdbf43"/><path d="m397.03125 306.585938h-40.367188c-5.644531 0-10.222656-4.574219-10.222656-10.21875 0-5.644532 4.578125-10.21875 10.222656-10.21875h40.367188c5.644531 0 10.21875 4.574218 10.21875 10.21875 0 5.644531-4.574219 10.21875-10.21875 10.21875zm0 0" fill="#f1ca50"/><path d="m428.199219 306.585938h-41.898438c-5.644531 0-10.222656-4.574219-10.222656-10.21875 0-5.644532 4.578125-10.21875 10.222656-10.21875h41.898438c5.644531 0 10.21875 4.574218 10.21875 10.21875 0 5.644531-4.574219 10.21875-10.21875 10.21875zm0 0" fill="#fdf385"/></svg>