<svg id="Layer_1" enable-background="new 0 0 512 512" height="512" viewBox="0 0 512 512" width="512" xmlns="http://www.w3.org/2000/svg"><g><path d="m60.895 415.183h390.21c31.303-41.15 49.897-92.493 49.897-148.185 0-135.311-109.691-245.002-245.002-245.002s-245.002 109.691-245.002 245.002c0 55.692 18.595 107.035 49.897 148.185z" fill="#ffdd40"/><path d="m60.895 79.25v335.933c9.373 12.322 19.901 23.715 31.397 34.051l89.857 51.412c9.387 2.965 19.013 5.386 28.851 7.214h89.999c9.838-1.827 19.464-4.249 28.851-7.214l89.858-51.412c11.496-10.336 22.023-21.729 31.397-34.051v-335.933z" fill="#e9efff"/><path d="m60.895 415.183c9.373 12.322 19.901 23.715 31.397 34.051l89.857 51.412c9.387 2.965 19.013 5.386 28.851 7.214h10.04v-81.11c-11.985-22.5 8.485-36 8.485-36v-15c-24.5-6.167-19.978-27.166-19.978-27.166v-29.203c-13.479-24.619 12.478-37.281 12.478-37.281l25.52-80.804-27.035-44.022c-24.015 4.274-25.568-18.586-25.568-18.586-65.083-5.561-59.041-57.439-59.041-57.439-.665-.665-1.246-1.332-1.783-2h-73.223z" fill="#d3dcfb"/><path d="m175.25 51.47c0 16.447-13.333 29.78-29.78 29.78h305.634v-29.78z" fill="#d3dcfb"/><path d="m60.895 51.47v29.78h86.575c16.447 0 29.78-13.333 29.78-29.78z" fill="#4fabf7"/><path d="m135.901 53.404c-.643-.643-1.172-1.289-1.618-1.934h-73.388v29.78h75.006c-13.395-13.395 0-27.846 0-27.846z" fill="#1886ea"/><path d="m434.062 0h-356.124c-9.412 0-17.043 7.63-17.043 17.043v36.207h390.209v-36.207c.001-9.413-7.63-17.043-17.042-17.043z" fill="#3c58a0"/><path d="m77.938 0c-9.412 0-17.043 7.63-17.043 17.043v36.207h74.862c-7.648-7.856.144-16.123.144-16.123v-21.004c-8.126-8.126 0-16.123 0-16.123z" fill="#2a428c"/><circle cx="105.054" cy="26.625" fill="#ff4155" r="10.502"/><circle cx="135.901" cy="26.625" fill="#ffdd40" r="10.502"/><circle cx="166.748" cy="26.625" fill="#4ce088" r="10.502"/><g><path d="m356.679 34.125h-148.906c-4.142 0-7.5-3.357-7.5-7.5s3.358-7.5 7.5-7.5h148.907c4.142 0 7.5 3.357 7.5 7.5-.001 4.143-3.359 7.5-7.501 7.5z" fill="#1c2e7a"/></g><g><path d="m410.727 34.125h-19.119c-4.142 0-7.5-3.357-7.5-7.5s3.358-7.5 7.5-7.5h19.119c4.142 0 7.5 3.357 7.5 7.5s-3.358 7.5-7.5 7.5z" fill="#1c2e7a"/></g><path d="m256 283.484c34.789 0 65.237-23.717 65.239-23.719 13.864-15.487 22.297-35.937 22.297-58.359 0-48.345-39.192-87.537-87.537-87.537s-87.537 39.192-87.537 87.537c0 22.422 8.434 42.871 22.298 58.359.003.002 30.451 23.719 65.24 23.719z" fill="#4fabf7"/><path d="m168.463 201.407c0 22.422 8.434 42.871 22.298 58.359.001.001 13.5 10.504 32.781 17.532l24.003-76.001-27.035-44.022c-24.015 4.274-25.568-18.585-25.568-18.585-16.331 15.901-26.479 38.122-26.479 62.717z" fill="#1886ea"/><path d="m373.039 348.583h-38.937c-8.064 0-14.601-6.537-14.601-14.601 0-8.064 6.537-14.601 14.601-14.601h38.937c8.064 0 14.601 6.537 14.601 14.601 0 8.064-6.537 14.601-14.601 14.601z" fill="#5efc9e"/><path d="m350.771 333.982c0-8.064 6.537-14.601 14.601-14.601h-31.27c-8.064 0-14.601 6.537-14.601 14.601 0 8.064 6.537 14.601 14.601 14.601h31.27c-8.064 0-14.601-6.537-14.601-14.601z" fill="#4ce088"/><path d="m276.857 319.381h-134.621c-8.064 0-14.601 6.537-14.601 14.601s6.537 14.601 14.601 14.601h134.621c8.064 0 14.601-6.537 14.601-14.601s-6.537-14.601-14.601-14.601z" fill="#4fabf7"/><path d="m193.061 333.982c0-8.064 6.537-14.601 14.601-14.601h-65.426c-8.064 0-14.601 6.537-14.601 14.601s6.537 14.601 14.601 14.601h65.426c-8.064 0-14.601-6.537-14.601-14.601z" fill="#1886ea"/><path d="m290.96 426.75h-69.92c-5.55 0-10.049 4.499-10.049 10.049v71.061c14.592 2.709 29.632 4.14 45.009 4.14s30.417-1.431 45.008-4.141v-71.061c0-5.549-4.499-10.048-10.048-10.048z" fill="#ffdd40"/><path d="m409.752 426.75h-69.92c-5.55 0-10.049 4.499-10.049 10.049v63.885c33.747-10.645 64.336-28.398 90.017-51.503v-12.383c0-5.549-4.499-10.048-10.048-10.048z" fill="#ff4155"/><path d="m256 436.799c0-5.55 4.499-10.049 10.049-10.049h-45.009c-5.55 0-10.049 4.499-10.049 10.049v71.061c14.592 2.709 29.632 4.14 45.009 4.14z" fill="#ffb332"/><path d="m374.792 436.799c0-5.55 4.499-10.049 10.048-10.049h-45.008c-5.55 0-10.049 4.499-10.049 10.049v63.885c15.754-4.97 30.809-11.507 45.008-19.395v-44.49z" fill="#e80054"/><path d="m172.168 426.75h-69.92c-5.55 0-10.049 4.499-10.049 10.049v12.383c25.681 23.105 56.27 40.857 90.017 51.503v-63.885c.001-5.551-4.498-10.05-10.048-10.05z" fill="#4fabf7"/><g><path d="m137.208 436.799c0-5.55 4.499-10.049 10.048-10.049h-45.008c-5.55 0-10.049 4.499-10.049 10.049v12.383c13.692 12.319 28.791 23.098 45.008 32.107v-44.49z" fill="#1886ea"/></g><g><path d="m137.208 390.75h-9.573c-4.142 0-7.5-3.357-7.5-7.5s3.358-7.5 7.5-7.5h9.573c4.142 0 7.5 3.357 7.5 7.5 0 4.142-3.358 7.5-7.5 7.5z" fill="#bec8f7"/></g><g><path d="m183.861 390.75h-21.555c-4.142 0-7.5-3.357-7.5-7.5s3.358-7.5 7.5-7.5h21.555c4.142 0 7.5 3.357 7.5 7.5 0 4.142-3.358 7.5-7.5 7.5z" fill="#bec8f7"/></g><g><path d="m239.098 390.75h-9.573c-4.142 0-7.5-3.357-7.5-7.5s3.358-7.5 7.5-7.5h9.573c4.142 0 7.5 3.357 7.5 7.5 0 4.142-3.358 7.5-7.5 7.5z" fill="#bec8f7"/></g><g><path d="m285.75 390.75h-21.555c-4.142 0-7.5-3.357-7.5-7.5s3.358-7.5 7.5-7.5h21.555c4.142 0 7.5 3.357 7.5 7.5 0 4.142-3.357 7.5-7.5 7.5z" fill="#bec8f7"/></g><g><path d="m340.988 390.75h-9.573c-4.142 0-7.5-3.357-7.5-7.5s3.358-7.5 7.5-7.5h9.573c4.142 0 7.5 3.357 7.5 7.5 0 4.142-3.358 7.5-7.5 7.5z" fill="#bec8f7"/></g><g><path d="m387.641 390.75h-21.555c-4.142 0-7.5-3.357-7.5-7.5s3.358-7.5 7.5-7.5h21.555c4.142 0 7.5 3.357 7.5 7.5 0 4.142-3.358 7.5-7.5 7.5z" fill="#bec8f7"/></g><g><path d="m232.518 256.449c6.7 5.202 14.967 8.028 23.482 8.028s16.783-2.826 23.482-8.028c3.102-2.409 6.333-5.376 9.454-8.862-1.827-.59-3.685-1.132-5.589-1.609-1.135-.284-2.133-.967-2.777-1.876-2.969-4.189-3.791-10.664-3.953-15.359-2.082 2.426-4.268 4.455-6.357 6.076-8.375 6.504-20.157 6.496-28.521 0-2.089-1.622-4.274-3.651-6.357-6.076-.166 4.8-1.02 11.46-4.153 15.636-.534.712-1.358 1.295-2.346 1.539-1.979.49-3.917 1.05-5.822 1.667 3.122 3.487 6.354 6.454 9.457 8.864z" fill="#fcad6d"/><path d="m255.57 239.677c-4.895-.09-9.766-1.701-13.831-4.858-2.089-1.622-4.274-3.651-6.357-6.076-.166 4.8-1.02 11.46-4.153 15.636-.534.712-1.358 1.295-2.346 1.539-1.979.49-3.917 1.05-5.822 1.667 3.121 3.488 6.353 6.455 9.456 8.864 4.031 3.13 8.632 5.393 13.51 6.704 6.391-8.768 8.717-17.659 9.543-23.476z" fill="#fd995b"/></g><path d="m313.564 258.314c-2.66-.217-4.076-1.25-7.212-3.018-5.995-3.381-12.189-6.13-18.863-8.158-3.066 3.484-6.259 6.416-9.317 8.791-6.326 4.912-14.132 7.58-22.172 7.58s-15.846-2.668-22.172-7.58c-3.058-2.375-6.251-5.307-9.317-8.79-6.656 2.026-12.886 4.787-18.864 8.158-3.136 1.768-4.551 2.8-7.212 3.018-2.799.229-5.349.728-7.674 1.451 16.028 17.906 39.316 29.178 65.239 29.178s49.211-11.272 65.239-29.178c-2.326-.724-4.876-1.223-7.675-1.452z" fill="#3c58a0"/><g><g><path d="m249.104 131.193c-20.707 2.821-22.675 14.561-22.684 18.869-.002.903-.502 1.741-1.315 2.136-10.771 5.24-4.964 30.493-4.964 30.493 1.082.072 2.704 1.001 3.548 1.409.207-1.287.544-2.554 1.021-3.778.363-.933.817-1.876 1.385-2.766.985-1.545 1.434-3.368 1.3-5.191-.387-5.268-.691-15.159 6.263-18.288 5.891-2.651 13.118-1.116 17.727.417 2.993.995 6.235.995 9.228 0 4.609-1.533 11.835-3.068 17.727-.417 6.934 3.12 6.649 12.961 6.267 18.243-.133 1.836.303 3.678 1.296 5.236.586.919 1.051 1.894 1.42 2.857.459 1.197.785 2.433.987 3.688 1.064-.516 3.076-1.567 4.377-1.383.159-5.522.669-11.475.669-11.475 6.136-30.055-21.957-43.087-44.252-40.05z" fill="#2a428c"/><path d="m249.104 131.193c-20.707 2.821-22.675 14.561-22.684 18.869-.002.903-.502 1.741-1.315 2.136-10.771 5.24-4.964 30.493-4.964 30.493 1.082.072 2.704 1.001 3.548 1.409.207-1.287.544-2.554 1.021-3.778.363-.933.817-1.876 1.385-2.766.985-1.545 1.434-3.368 1.3-5.191-.387-5.268-.691-15.159 6.263-18.288 5.891-2.651 13.118-1.116 17.727.417 1.261.419 2.566.651 3.878.717-.201-.345-.416-.687-.656-1.025-8.883-12.486 3.465-21.584 5.848-23.174-3.822-.381-7.666-.321-11.351.181z" fill="#1c2e7a"/></g><path d="m294.523 183.434c-1.613-1.478-4.825-.729-6.214.176.304 1.895.322 3.834.059 5.748l-1.639 11.938c0 .962-.03 1.907-.086 2.834 3.997 1.206 5.982-2.383 6.317-4.845.144-1.06.379-2.105.706-3.124 1.062-3.321 4.898-9.024.857-12.727z" fill="#fcad6d"/><path d="m217.475 183.434c1.613-1.478 4.825-.729 6.214.176-.304 1.895-.322 3.834-.059 5.748l1.639 11.938c0 .962.03 1.907.086 2.834-3.997 1.206-5.982-2.383-6.317-4.845-.144-1.06-.379-2.105-.706-3.124-1.062-3.321-4.898-9.024-.857-12.727z" fill="#fd995b"/><path d="m287.813 179.922c-.369-.963-.834-1.937-1.42-2.857-.993-1.557-1.429-3.399-1.296-5.236.383-5.282.177-15.613-6.757-18.733-5.891-2.651-13.117-1.116-17.726.416-2.993.995-6.236.995-9.229 0-4.609-1.532-11.835-3.067-17.726-.416-6.954 3.129-7.141 13.51-6.753 18.778.134 1.822-.315 3.645-1.3 5.191-.568.891-1.022 1.833-1.385 2.766-1.178 3.027-1.522 6.309-1.08 9.524l1.639 11.941c0 17.167 9.164 28.835 16.959 34.888 4.069 3.16 9.09 4.876 14.261 4.876s10.192-1.716 14.261-4.876c7.795-6.053 16.959-17.721 16.959-34.888l1.639-11.938c.436-3.183.105-6.433-1.046-9.436z" fill="#f9ba8f"/><g><path d="m264.504 236.184c-7.795-6.053-16.959-17.721-16.959-34.888l-1.639-11.941c-.441-3.214-.098-6.497 1.08-9.524.363-.933.817-1.876 1.385-2.766.985-1.545 1.434-3.368 1.3-5.191-.35-4.763-.23-13.706 4.937-17.689-1.09-.104-2.173-.324-3.223-.673-4.608-1.533-11.835-3.067-17.726-.416-6.954 3.129-7.141 13.51-6.753 18.778.134 1.822-.315 3.645-1.3 5.191-.568.891-1.022 1.833-1.385 2.766-1.178 3.027-1.522 6.309-1.08 9.524l1.639 11.941c0 17.167 9.164 28.835 16.959 34.888 4.069 3.16 9.09 4.876 14.261 4.876 4.01 0 7.927-1.036 11.383-2.973-1.002-.561-1.966-1.193-2.879-1.903z" fill="#fcad6d"/></g></g><path d="m233.828 255.929c-3.058-2.375-6.251-5.307-9.317-8.79-6.656 2.026-12.886 4.787-18.864 8.158-3.136 1.768-4.551 2.8-7.212 3.018-2.799.229-5.349.728-7.674 1.451 8.578 9.583 19.237 17.263 31.264 22.335 11.869-5.405 19.585-12.607 24.621-19.823-4.629-1.237-8.995-3.38-12.818-6.349z" fill="#1c2e7a"/></g></svg>