<svg height="512pt" viewBox="-6 0 512 512.00017" width="512pt" xmlns="http://www.w3.org/2000/svg"><path d="m450.296875 388.917969h-396.460937c-12.164063 0-23.363282-6.859375-28.667969-17.808594-15.949219-32.945313-25.167969-70.476563-25.167969-109.539063 0-130.203124 99.351562-237.203124 226.367188-249.289062 7.902343-.753906 15.914062-.117188 24.011718-.117188 16.5625 0 32.769532.621094 48.460938 3.746094 115.535156 23.015625 203.269531 126.550782 201.902344 248.523438-.445313 39.601562-10.035157 76.898437-26.828126 110.046875-4.484374 8.851562-13.699218 14.4375-23.617187 14.4375zm0 0" fill="#e43950"/><path d="m356.875 26.472656v296.433594c0 8.464844-6.863281 15.328125-15.328125 15.328125h-182.335937c-8.464844 0-15.328126-6.863281-15.328126-15.328125v-296.433594c0-8.464844 6.863282-15.328125 15.328126-15.328125h182.335937c8.464844 0 15.328125 6.863281 15.328125 15.328125zm0 0" fill="#fde5bd"/><path d="m356.875 26.472656v157.644532c0 50.679687-41.082031 91.765624-91.761719 91.765624-50.679687 0-91.765625-41.085937-91.765625-91.765624v-157.644532c0-8.464844 6.863282-15.328125 15.328125-15.328125h152.871094c8.464844 0 15.328125 6.863281 15.328125 15.328125zm0 0" fill="#fff5f5"/><path d="m210.523438 326.984375v10.226563h-105.773438v-10.226563c0-16.933594 13.726562-30.660156 30.660156-30.660156h44.453125c16.933594 0 30.660157 13.726562 30.660157 30.660156zm0 0" fill="#57b79d"/><path d="m220.308594 119.058594c-5.988282 5.988281-15.691406 5.988281-21.679688 0l-36.757812-36.765625c-6.160156-6.164063-5.980469-16.261719.535156-22.195313 6.105469-5.558594 15.613281-5.019531 21.449219.816406l36.453125 36.460938c5.984375 5.988281 5.984375 15.695312 0 21.683594zm0 0" fill="#0ed1b2"/><path d="m297.390625 237.550781v5.113281c0 2.820313-2.289063 5.109376-5.109375 5.109376h-83.800781c-2.824219 0-5.109375-2.289063-5.109375-5.109376v-5.113281c0-2.820312 2.285156-5.109375 5.109375-5.109375h83.800781c2.820312 0 5.109375 2.289063 5.109375 5.109375zm24.527344-33.21875h-143.074219c-2.824219 0-5.109375 2.289063-5.109375 5.109375v5.109375c0 2.824219 2.285156 5.113281 5.109375 5.113281h143.074219c2.820312 0 5.109375-2.289062 5.109375-5.113281v-5.109375c0-2.820312-2.289063-5.109375-5.109375-5.109375zm0 0" fill="#b0dbce"/><path d="m195.417969 115.84375c-5.988281-5.988281-5.988281-15.695312 0-21.683594 5.984375-5.988281 15.691406-5.988281 21.679687 0l32.261719 32.269532 121.707031-121.734376c5.835938-5.835937 15.34375-6.375 21.449219-.816406 6.515625 5.933594 6.695313 16.03125.535156 22.195313l-132.855469 132.878906c-2.992187 2.992187-6.914062 4.492187-10.839843 4.492187-3.921875 0-7.84375-1.5-10.835938-4.492187zm169.929687 180.480469h-195.191406c-16.933594 0-30.660156 13.730469-30.660156 30.667969v10.21875h256.511718v-10.21875c0-16.9375-13.726562-30.667969-30.660156-30.667969zm0 0" fill="#5de0c3"/><path d="m473.914062 374.480469c-41.273437 81.582031-125.871093 137.519531-223.535156 137.519531-99.042968 0-184.648437-57.523438-225.257812-140.988281l2.597656-10.378907c3.820312-15.285156 17.550781-26.007812 33.300781-26.007812h375.894531c15.554688 0 29.160157 10.457031 33.167969 25.488281zm0 0" fill="#ebae56"/><path d="m473.914062 374.480469c-8.90625 17.605469-19.828124 34.015625-32.464843 48.925781-4.078125-.769531-7.695313-3.9375-8.292969-8.820312l-4.882812-39.9375c-.621094-5.089844-5.160157-8.84375-10.375-8.386719-4.652344.40625-8.25 4.292969-8.714844 8.941406l-7.027344 60.925781c-1.347656 13.476563-12.6875 23.742188-26.230469 23.742188h-.671875c-13.320312 0-24.550781-9.941406-26.164062-23.167969l-6.628906-44.886719c-.621094-5.089844-5.164063-8.84375-10.375-8.386718-4.652344.40625-8.25 4.292968-8.714844 8.941406l-5.3125 43.757812c-1.347656 13.476563-12.6875 23.742188-26.230469 23.742188h-.289063c-13.324218 0-24.550781-9.941406-26.167968-23.167969l-8.683594-61.703125c-.5625-4.621094-4.222656-8.425781-8.867188-8.75-5.226562-.367188-9.714843 3.480469-10.230468 8.609375l-7.046875 61.160156c-1.355469 13.539063-12.789063 23.824219-26.390625 23.742188-.234375 0-.464844-.003907-.695313-.003907-13.265625-.085937-24.402343-10-26.011719-23.167968l-6.613281-44.773438c-.621093-5.089844-5.160156-8.84375-10.375-8.386718-4.652343.40625-8.25 4.292968-8.714843 8.941406l-5.464844 54.640625c-.621094 6.25-7.5625 9.792969-12.925782 6.53125-38.832031-23.613281-61.035156-70.699219-49.171874-118.914063h352.734374c15.550782 0 29.160157 10.457032 33.167969 25.484375zm0 0" fill="#fbc56d"/><path d="m242.726562 487.492188-48.492187-43.890626c-34.746094-31.445312-67.246094-65.285156-97.265625-101.269531l-6.429688-7.703125h317.957032c-34.496094 42.535156-72.414063 82.179688-113.375 118.535156l-38.753906 34.394532c-3.898438 3.457031-9.773438 3.429687-13.640626-.066406zm0 0" fill="#ffdf8e"/><path d="m145.707031 334.625h263.652344c-18.6875 26.28125-54.015625 62.085938-83.011719 89.859375-25.566406 24.492187-65.722656 25.015625-91.972656 1.257813-31.457031-28.46875-61.066406-58.90625-88.667969-91.117188zm0 0" fill="#ffe899"/></svg>