<svg id="Capa_1" enable-background="new 0 0 512 512" height="512" viewBox="0 0 512 512" width="512" xmlns="http://www.w3.org/2000/svg" xmlns:xlink="http://www.w3.org/1999/xlink"><linearGradient id="SVGID_1_" gradientUnits="userSpaceOnUse" x1="74.981" x2="437.019" y1="437.019" y2="74.981"><stop offset="0" stop-color="#ff726d"/><stop offset="1" stop-color="#ffde00"/></linearGradient><radialGradient id="SVGID_2_" cx="257.014" cy="280.338" gradientUnits="userSpaceOnUse" r="256"><stop offset=".1955" stop-color="#ff726d"/><stop offset=".372" stop-color="#ff7867" stop-opacity=".767"/><stop offset=".6182" stop-color="#ff8b54" stop-opacity=".443"/><stop offset=".9043" stop-color="#ffa837" stop-opacity=".065"/><stop offset=".9537" stop-color="#ffae31" stop-opacity="0"/></radialGradient><radialGradient id="SVGID_3_" cx="256" cy="335.061" gradientUnits="userSpaceOnUse" r="143.481"><stop offset="0" stop-color="#ff726d"/><stop offset=".8085" stop-color="#ff726d" stop-opacity="0"/></radialGradient><linearGradient id="SVGID_4_" gradientUnits="userSpaceOnUse" x1="167.394" x2="327.305" y1="423.666" y2="263.756"><stop offset="0" stop-color="#fcb000"/><stop offset=".0984" stop-color="#fcb511"/><stop offset=".2925" stop-color="#fdc33c"/><stop offset=".5636" stop-color="#fed882"/><stop offset=".8981" stop-color="#fff6e1"/><stop offset="1" stop-color="#fff"/></linearGradient><radialGradient id="SVGID_5_" cx="256" cy="320.864" gradientUnits="userSpaceOnUse" r="281.169"><stop offset="0" stop-color="#fcb000" stop-opacity=".8"/><stop offset=".0046" stop-color="#fcb101" stop-opacity=".796"/><stop offset=".306" stop-color="#fcd255" stop-opacity=".504"/><stop offset=".5526" stop-color="#fdea93" stop-opacity=".265"/><stop offset=".7325" stop-color="#fdf9b9" stop-opacity=".091"/><stop offset=".8268" stop-color="#fdffc7" stop-opacity="0"/></radialGradient><linearGradient id="SVGID_6_" gradientUnits="userSpaceOnUse" x1="256" x2="256" y1="337.089" y2="517.089"><stop offset="0" stop-color="#ff726d" stop-opacity=".8"/><stop offset=".0147" stop-color="#ff746a" stop-opacity=".788"/><stop offset=".2181" stop-color="#fe8944" stop-opacity=".625"/><stop offset=".4204" stop-color="#fd9a26" stop-opacity=".462"/><stop offset=".619" stop-color="#fca611" stop-opacity=".302"/><stop offset=".8125" stop-color="#fcae04" stop-opacity=".146"/><stop offset=".9944" stop-color="#fcb000" stop-opacity="0"/></linearGradient><linearGradient id="lg1"><stop offset="0" stop-color="#fca200"/><stop offset=".2032" stop-color="#fdb739"/><stop offset=".5981" stop-color="#fedda2"/><stop offset=".8721" stop-color="#fff6e5"/><stop offset="1" stop-color="#fff"/></linearGradient><linearGradient id="SVGID_7_" gradientUnits="userSpaceOnUse" x1="76.017" x2="485.86" xlink:href="#lg1" y1="454.738" y2="44.895"/><linearGradient id="SVGID_8_" gradientUnits="userSpaceOnUse" x1="365.637" x2="475.822" y1="370.908" y2="260.723"><stop offset="0" stop-color="#fee5be" stop-opacity=".7"/><stop offset=".4936" stop-color="#fef1dc" stop-opacity=".848"/><stop offset="1" stop-color="#fff"/></linearGradient><linearGradient id="lg2"><stop offset="0" stop-color="#fca200"/><stop offset=".5982" stop-color="#fedb9b"/><stop offset="1" stop-color="#fff"/></linearGradient><linearGradient id="SVGID_9_" gradientUnits="userSpaceOnUse" x1="415.748" x2="437.846" xlink:href="#lg2" y1="379.308" y2="357.21"/><linearGradient id="SVGID_10_" gradientUnits="userSpaceOnUse" x1="392.806" x2="414.341" xlink:href="#lg2" y1="380.441" y2="358.905"/><linearGradient id="SVGID_11_" gradientUnits="userSpaceOnUse" x1="102.09" x2="446.068" xlink:href="#lg2" y1="398.934" y2="54.957"/><linearGradient id="SVGID_12_" gradientUnits="userSpaceOnUse" x1="131.927" x2="433.61" xlink:href="#lg2" y1="466.94" y2="165.257"/><linearGradient id="SVGID_13_" gradientUnits="userSpaceOnUse" x1="144.187" x2="458.683" xlink:href="#lg1" y1="394.671" y2="80.176"/><linearGradient id="SVGID_14_" gradientUnits="userSpaceOnUse" x1="170.032" x2="395.08" y1="305.952" y2="80.904"><stop offset="0" stop-color="#fee5be" stop-opacity=".7"/><stop offset=".2414" stop-color="#fee6c2" stop-opacity=".779"/><stop offset=".4628" stop-color="#feebcd" stop-opacity=".851"/><stop offset=".6764" stop-color="#fff2df" stop-opacity=".92"/><stop offset=".884" stop-color="#fffdf9" stop-opacity=".988"/><stop offset=".9221" stop-color="#fff"/></linearGradient><linearGradient id="SVGID_15_" gradientUnits="userSpaceOnUse" x1="272.838" x2="454.007" y1="387.604" y2="206.436"><stop offset="0" stop-color="#fca200"/><stop offset=".2788" stop-color="#fdc156"/><stop offset=".5384" stop-color="#fedc9e"/><stop offset=".752" stop-color="#feefd3"/><stop offset=".912" stop-color="#fffbf3"/><stop offset="1" stop-color="#fff"/></linearGradient><linearGradient id="SVGID_16_" gradientUnits="userSpaceOnUse" x1="92.946" x2="552.274" y1="306.728" y2="-152.6"><stop offset="0" stop-color="#fca200"/><stop offset=".2026" stop-color="#fdba41"/><stop offset=".6699" stop-color="#fff5e3"/><stop offset=".7486" stop-color="#fff"/></linearGradient><linearGradient id="SVGID_17_" gradientUnits="userSpaceOnUse" x1="113.907" x2="573.235" y1="405.097" y2="-54.231"><stop offset="0" stop-color="#fca200"/><stop offset=".2135" stop-color="#fdba41"/><stop offset=".7062" stop-color="#fff5e3"/><stop offset=".7892" stop-color="#fff"/></linearGradient><g><circle cx="256" cy="256" fill="url(#SVGID_1_)" r="256"/><circle cx="256" cy="256" fill="url(#SVGID_2_)" r="256"/><circle cx="256" cy="335.061" fill="url(#SVGID_3_)" r="135"/><circle cx="256" cy="335.061" fill="url(#SVGID_4_)" r="90"/><circle cx="256" cy="335.061" fill="url(#SVGID_5_)" r="90"/><circle cx="256" cy="335.061" fill="url(#SVGID_6_)" r="90"/><path d="m425.241 288.414-48.229-18.464 22.411-18.464-23.814-108.517c-11.182-55.839-60.48-97.908-119.609-97.908s-108.427 42.069-119.609 97.907l-23.813 108.517v55.207l280.445 62.849c15.372-.813 30.739-1.762 46.098-2.849 7.839-.555 13.902-7.102 13.902-14.96 0-6.888 0-13.744 0-13.744-.001-20.226-10.516-39.007-27.782-49.574z" fill="url(#SVGID_7_)"/><path d="m425.241 288.414h-51.539l19.321 81.125c15.372-.813 30.739-1.761 46.098-2.847 7.839-.555 13.902-7.102 13.902-14.96 0-6.888 0-13.744 0-13.744-.001-20.226-10.516-39.007-27.782-49.574z" fill="url(#SVGID_8_)"/><path d="m439.12 366.691c-7.678.543-15.357 1.052-23.038 1.526 7.681-.475 15.36-.983 23.038-1.526z" fill="url(#SVGID_9_)"/><path d="m415.678 368.24c-7.546.465-15.093.898-22.642 1.297 7.549-.398 15.096-.831 22.642-1.297z" fill="url(#SVGID_10_)"/><path d="m146.759 288.414h-60c-17.266 10.568-27.781 29.348-27.781 49.573v13.744c0 7.858 6.063 14.406 13.902 14.96 60.964 4.312 122.042 6.468 183.12 6.468z" fill="url(#SVGID_11_)"/><path d="m373.701 288.414h-226.942c19.169 38.337 53.118 67.22 94.032 79.997l15.209 4.749c45.69 0 91.38-1.208 137.022-3.621 0-13.223 0-31.552 0-31.552 0-20.225-7.313-39.006-19.321-49.573z" fill="url(#SVGID_12_)"/><path d="m399.423 251.485h-286.846c-3.348 15.255-12.497 28.775-25.818 36.929h338.481c-13.321-8.154-22.47-21.674-25.817-36.929z" fill="url(#SVGID_13_)"/><path d="m375.609 142.968c-11.182-55.838-60.48-97.907-119.609-97.907 41.122 0 75.407 42.069 83.184 97.907l16.562 108.517h43.677z" fill="url(#SVGID_14_)"/><path d="m355.746 251.485c2.328 15.255 8.691 28.775 17.956 36.929h51.539c-2.498-1.529-4.849-3.246-7.042-5.128-1.462-1.255-2.855-2.583-4.174-3.977-2.639-2.788-4.985-5.841-7.013-9.101-3.549-5.706-6.124-12.048-7.589-18.722h-43.677z" fill="url(#SVGID_15_)"/><path d="m164.715 251.485h-52.138c-1.443 6.574-3.963 12.827-7.43 18.466-4.578 7.446-10.807 13.823-18.388 18.463h60c9.265-8.154 15.628-21.674 17.956-36.929z" fill="url(#SVGID_16_)"/><path d="m307.577 251.485h-142.862c-2.328 15.255-8.691 28.775-17.956 36.929h186.636c-13.321-8.154-22.47-21.674-25.818-36.929z" fill="url(#SVGID_17_)"/></g></svg>