<svg viewBox="0 0 20 20" xmlns="http://www.w3.org/2000/svg" role="presentation" aria-hidden="true" focusable="false" style="height: 18px; width: 18px; display: block; fill: currentcolor;"><path d="M13.82 19.25c-1.59 0-3-1.13-3.3-2.73a3.33 3.33 0 0 1 2.72-3.84c1.82-.3 3.56.89 3.89 2.68a3.33 3.33 0 0 1-3.3 3.89zm0-5.12l-.32.03c-.5.09-.92.36-1.2.76-.28.4-.38.87-.3 1.33a1.85 1.85 0 0 0 2.15 1.47c.5-.08.92-.35 1.2-.76.28-.4.38-.86.3-1.33a1.84 1.84 0 0 0-1.82-1.5zm3.28-1.25a2.15 2.15 0 0 1-2.12-1.76 2.14 2.14 0 0 1 1.75-2.47c1.17-.2 2.28.58 2.49 1.73a2.14 2.14 0 0 1-2.12 2.5zm0-2.76a.68.68 0 0 0-.54.28.6.6 0 0 0-.1.46c.06.34.4.57.75.51a.65.65 0 0 0 .43-.27.6.6 0 0 0 .1-.45.64.64 0 0 0-.64-.53zm-8.5 4.4a.75.75 0 0 1-.63-.36c-1.9-3.05-3.38-4.09-6.89-4.82a.75.75 0 0 1-.24-1.37c3.05-1.9 4.09-3.38 4.82-6.89A.75.75 0 0 1 7.03.84c1.9 3.05 3.38 4.09 6.9 4.82a.75.75 0 0 1 .23 1.37c-3.05 1.9-4.09 3.38-4.82 6.9a.75.75 0 0 1-.74.59zM3.05 8.29c2.3.69 3.8 1.73 5.24 3.66a9.28 9.28 0 0 1 3.66-5.24 9.28 9.28 0 0 1-5.24-3.66 9.28 9.28 0 0 1-3.66 5.24z"></path></svg>