<?xml version="1.0" encoding="utf-8"?>
<!-- Generator: Adobe Illustrator 21.1.0, SVG Export Plug-In . SVG Version: 6.00 Build 0)  -->
<svg version="1.1" id="_x3C_Layer_x3E_" xmlns="http://www.w3.org/2000/svg" xmlns:xlink="http://www.w3.org/1999/xlink" x="0px"
	 y="0px" viewBox="0 0 3550 1420" style="enable-background:new 0 0 3550 1420;" xml:space="preserve">
<style type="text/css">
	.st0{fill:#FFFFFF;}
	.st1{fill:#E9F3FE;}
	.st2{opacity:0.4;fill:#9FC1F4;}
	.st3{fill:#2C3A64;}
	.st4{fill:#ED985F;}
	.st5{fill:#739CF3;}
	.st6{fill:#35488B;}
	.st7{fill:#FFB27D;}
	.st8{fill:#B84C42;}
	.st9{fill:#D66C67;}
	.st10{fill:#D8DFEB;}
	.st11{fill:#F0D170;}
	.st12{fill:#9FC1F4;}
	.st13{fill:#163560;}
	.st14{fill:#C65447;}
	.st15{fill:#E49963;}
	.st16{fill:#F4BE61;}
	.st17{fill:#F2A83D;}
	.st18{fill:#EE9849;}
	.st19{fill:#D68D5D;}
	.st20{fill:#A86337;}
	.st21{fill:#DCE3F1;}
	.st22{fill:#E57970;}
	.st23{fill:#1C468A;}
	.st24{fill:#B77446;}
	.st25{fill:#2E3552;}
	.st26{opacity:0.6;fill:#D2E4FF;}
	.st27{fill:#8FB0E2;}
	.st28{fill:#365DA4;}
	.st29{fill:#285493;}
	.st30{fill:#80BDCC;}
	.st31{fill:#5F9AA8;}
	.st32{fill:#C7DEF9;}
	.st33{fill:#E58638;}
	.st34{fill:#CE6D25;}
	.st35{fill:#D38957;}
	.st36{fill:#2F5791;}
	.st37{fill:#B74B42;}
	.st38{fill:#C45446;}
	.st39{fill:#E37970;}
	.st40{fill:#ED975D;}
	.st41{fill:#466AA5;}
	.st42{fill:#699DEE;}
	.st43{fill:#3B76CA;}
	.st44{fill:#2B478B;}
	.st45{fill:#6BB7BF;}
	.st46{fill:#599DAD;}
	.st47{fill:#A53934;}
	.st48{fill:#233862;}
	.st49{fill:#B64C41;}
	.st50{fill:#2D427C;}
	.st51{fill:#EA8E50;}
	.st52{fill:#FFB07B;}
	.st53{fill:#DDE3F2;}
	.st54{opacity:0.2;fill:#E37970;}
	.st55{fill:#325384;}
	.st56{fill:#77A4E5;}
	.st57{fill:#7CACE5;}
</style>
<rect class="st0" width="3550" height="1420"/>
<g>
	<path class="st1" d="M3383.1,785.4c0,2.8,0,5.6,0,8.4c-0.4,48.3-7.3,97.5-19.3,145.4c-1.8,7.2-3.7,14.4-5.7,21.5
		c-32.5,114.5-93.5,218.9-163.8,279.4c-0.7,0.6-1.5,1.3-2.2,1.9l-363-0.3l-382.7-0.4l-2126.1-2c0,0-25.4-38.5-50.8-97.1
		c-1-2.2-1.9-4.4-2.8-6.6v0c-3.8-8.9-7.5-18.2-11.1-27.9c-2.5-6.7-5-13.5-7.4-20.5c-0.4-1.1-0.7-2.1-1.1-3.2
		c-0.8-2.5-1.7-5.1-2.5-7.6c-0.3-0.8-0.5-1.7-0.8-2.6v0c-3.9-12.4-7.6-25.3-10.9-38.5c-2.4-9.6-4.5-19.5-6.4-29.4
		c-6.5-34.4-9.7-70.4-7.3-106.3c0.4-5.6,0.9-11.2,1.5-16.8c5.7-49.3,22.6-98.1,56.5-142.1c21.9-28.4,50.9-54.8,88.7-78
		c42.7-26.3,83.9-38.8,125.8-46.2c116.4-20.6,238-1.6,410-125.4c11.5-8.3,23.2-17.2,35.1-26.8c79.8-64.1,155.9-117.6,228.4-161.7
		c0.9-0.5,1.8-1.1,2.7-1.6c215.7-128.8,375.3,51.1,538.5,58.3c281.8,12.4,288.4-161.8,809.6,34.9c0,0,0,0,0.1,0
		c10.5,4,21.2,8.1,32.1,12.3c38.9,15.2,78.1,25,116.9,30.7c7.7,1.1,15.5,2.1,23.2,2.8c34.3,3.2,68.7,2.2,103.3-4.2
		c210-38.5,353.7-12.9,446.9,49.1c3,2,6,4,8.8,6.1c18,12.9,34.1,27.2,48.2,42.8c32.1,35.2,54.4,76.7,68.5,121.8
		c4.2,13.4,7.7,27.2,10.5,41.1c2.3,11.4,4.1,23,5.5,34.7c1.9,16.5,3,33.1,3.2,50C3383.1,782.6,3383.1,784,3383.1,785.4z"/>
	<path class="st2" d="M1174.5,960.7H915.3l-2.7-19.8c-0.1-0.4-0.2-0.9-0.4-1.2c1.7-30.4,8.5-55.3,9.8-73.1c2.8-9.6,1-15.1-1.6-18.3
		l2.1,0.3c-10.8-9.5-16.1-74.1-16.6-79.6c-0.1-0.9-0.2-1.8-0.4-2.7c-1-6.1-3.9-20.6-11-26.4l-29.7,2.1c0,0-11.4,5.5-19.9,30.6h0
		c-2.1,2.7-3.6,5.8-4,9.5c-1.4,11.3,5.7,15.6,5.7,15.6c-0.1-0.4-0.1-0.9-0.1-1.3c1,12.9,4.2,28.9,10.2,29.6c0,0,2.5,0.1,6.1-0.1
		c0.1,4-0.3,9.2-1.8,14.5c-0.6,0.1-1.3,0.2-1.9,0.4c0,0,0,0,0,0c-0.4,0.1-0.8,0.1-1.2,0.3c0,0-0.1,0-0.1,0c-0.3,0.1-0.6,0.2-0.9,0.2
		c-1.8,0.5-3.8,1.2-5.5,1.8c0,0-19.1,5.2-46.9,50.8h-4.1c-0.5-0.2-1.1-0.5-1.6-0.7c-0.4-0.2-1-0.4-1.5-0.6l0.2-4.6l0.6-12.9l0.3-6.2
		h0.9l-0.5-4.2h-19.4l-0.8,4.2h0.9l0.4,6.2l0.8,12.9l0.2,2.5c-1.4,0.2-2.5,0.6-3.1,1.2c-0.5,0.5-0.8,1.3-0.7,2.2h-9.3l0.3-5.9
		l0.6-12.9l0.3-6.2h0.9l-0.5-4.2h-19.4l-0.8,4.2h0.9l0.4,6.2l0.8,12.9l0.4,5.8c-0.8-0.1-1.7-0.2-2.5-0.4c-1.7-0.5-3.6-1.3-5.5-2.2
		c-4.7-2.4-17.3-3.9-20-1.4c-2.7,2.5,2.8,12.7,14.3,13c4,0.1,7,0.4,9.3,0.8c1.3,0.6,15.4,7.1,30.3,11.9c5.5,1.8,11.3,3.4,16.9,4.6
		c5.1,1.2,10.1,2,14.3,2.2c0,0,6.1-2.4,14.6-8.1c2.8,1.1,5.8,2.2,8.9,3.3l-1.4,16.6c-0.5,3.8-0.8,14.7-0.8,26.9H584.7
		c-1.4-10.2-3.8-22.7-4.2-27.9c-0.7-8.1-0.4-17.8,0.2-27.5c7.6-2.5,14.9-5.4,20.4-7.7c9.5,6.7,16.5,9.4,16.5,9.4
		c0.6,0,1.1-0.1,1.7-0.1c0,0,0,0,0.1,0c0.5,0,1.1-0.1,1.7-0.2c0.1,0,0.2,0,0.2,0c0.5-0.1,1-0.1,1.6-0.2c0.1,0,0.3,0,0.4-0.1
		c0.5-0.1,0.9-0.1,1.4-0.2c0.2,0,0.5-0.1,0.7-0.1c0.4-0.1,0.8-0.1,1.2-0.2c0.3-0.1,0.6-0.1,0.9-0.2c0.3-0.1,0.6-0.1,0.9-0.2
		c0.4-0.1,0.7-0.1,1.1-0.2c0.3-0.1,0.5-0.1,0.8-0.2c0.4-0.1,0.9-0.2,1.3-0.3c0.2,0,0.3-0.1,0.4-0.1c0,0,0.1,0,0.1,0
		c1.3-0.3,2.6-0.6,4-0.9c0.1,0,0.2,0,0.2-0.1c1.3-0.3,2.6-0.7,4-1.1c0.1,0,0.2-0.1,0.3-0.1c1.3-0.4,2.6-0.7,3.9-1.1
		c0.1,0,0.2-0.1,0.3-0.1c1.4-0.4,2.7-0.8,4.1-1.3c14.9-4.7,29-11.3,30.3-11.9c2.2-0.3,5.2-0.7,9.3-0.8c11.5-0.3,17-10.5,14.3-13
		c-2.7-2.5-15.2-0.9-20,1.4c-1.8,0.9-3.7,1.6-5.5,2.2c-16.4,2.4-29.1,3-37.4,3.8c0.6-1.7,0.5-3.2-0.3-4c-2.5-2.3-12.8-1.4-18.8,0.5
		c-29.3-40.1-49.7-52.9-49.7-52.9s-0.3-0.2-1.1-0.5c13.5-9.7-4.9-10.1-1-42.6c1.9-15.8-3-41.2-34.6-37.1
		c-31.6,4-41.6,35.1-35.2,48.9c6.4,13.8-9.2,17.1-14.1,32c-4.2,12.8-5.7,28.6-12.4,35.7c-18.8,19.7,10.2,48.5,35.1,51.5
		c0.1,2.5,0,5.1-0.2,7.9c-0.1,0.9-0.2,2-0.5,3.2c-1.7,9-7.6,24.4-11.3,36.2h-17.7c-6.3,0-11.5,5.2-11.5,11.5v256.5
		c0,6.3,5.2,11.5,11.5,11.5h696.6c6.3,0,11.5-5.2,11.5-11.5V972.2C1186,965.9,1180.8,960.7,1174.5,960.7z M582,885.7
		c0.1-1.6,0.2-3.2,0.3-4.7c1.4,1.5,2.7,2.9,4.1,4.3C584.8,885.4,583.4,885.6,582,885.7z"/>
	<path class="st2" d="M1939.8,960.7h-183.7l-2.7-19.8c-0.1-0.4-0.2-0.9-0.4-1.2c1.7-30.4,8.5-55.3,9.8-73.1c2.8-9.6,1-15.1-1.6-18.3
		l2.1,0.3c-10.8-9.5-16.1-74.1-16.6-79.6c-0.1-0.9-0.2-1.8-0.4-2.7c-1-6.1-3.9-20.6-11-26.4l-29.7,2.1c0,0-11.4,5.5-19.9,30.6h0
		c-2.1,2.7-3.6,5.8-4,9.5c-1.4,11.3,5.7,15.6,5.7,15.6c-0.1-0.4-0.1-0.9-0.1-1.3c1,12.9,4.2,28.9,10.2,29.6c0,0,2.5,0.1,6.1-0.1
		c0.1,4-0.3,9.2-1.8,14.5c-0.6,0.1-1.3,0.2-1.9,0.4c0,0,0,0,0,0c-0.4,0.1-0.8,0.1-1.2,0.3c0,0-0.1,0-0.1,0c-0.3,0.1-0.6,0.2-0.9,0.2
		c-1.8,0.5-3.8,1.2-5.5,1.8c0,0-19.1,5.2-46.9,50.8h-4.1c-0.5-0.2-1.1-0.5-1.6-0.7c-0.4-0.2-1-0.4-1.5-0.6l0.2-4.6l0.6-12.9l0.3-6.2
		h0.9l-0.5-4.2h-19.4l-0.8,4.2h0.9l0.4,6.2l0.8,12.9l0.2,2.5c-1.4,0.2-2.5,0.6-3.1,1.2c-0.5,0.5-0.8,1.3-0.7,2.2h-9.3l0.3-5.9
		l0.6-12.9l0.3-6.2h0.9l-0.5-4.2h-19.4l-0.8,4.2h0.9l0.4,5.7c-2,0.4-3.7,1-4.9,1.6c-1.8,0.9-3.7,1.6-5.5,2.2
		c-16.4,2.4-29.1,3-37.4,3.8c0.6-1.7,0.5-3.2-0.3-4c-2.5-2.3-12.8-1.4-18.8,0.5c-29.3-40.1-49.7-52.9-49.7-52.9s-0.3-0.2-1.1-0.5
		c13.5-9.7-4.9-10.1-1-42.6c1.9-15.8-3-41.2-34.6-37.1c-31.6,4-41.6,35.1-35.2,48.9c6.4,13.8-9.2,17.1-14.1,32
		c-4.2,12.8-5.7,28.6-12.4,35.7c-18.8,19.7,10.2,48.5,35.1,51.5c0.1,2.5,0,5.1-0.2,7.9c-0.1,0.9-0.2,2-0.5,3.2
		c-1.7,9-7.6,24.4-11.3,36.2h-106.1c-6.1,0-11,5-11,11V1229c0,6.1,5,11,11,11h647c6.1,0,11-5,11-11V971.8
		C1950.8,965.7,1945.9,960.7,1939.8,960.7z M1485.2,885.7c0.1-1.6,0.2-3.2,0.3-4.7c1.4,1.5,2.7,2.9,4.1,4.3
		C1488.1,885.4,1486.6,885.6,1485.2,885.7z M1487.9,960.7c-1.4-10.2-3.8-22.7-4.2-27.9c-0.7-8.1-0.4-17.8,0.2-27.5
		c7.6-2.5,14.9-5.4,20.4-7.7c9.5,6.7,16.5,9.4,16.5,9.4c0.6,0,1.1-0.1,1.7-0.1c0,0,0,0,0.1,0c0.5,0,1.1-0.1,1.7-0.2
		c0.1,0,0.1,0,0.2,0c0.5-0.1,1-0.1,1.6-0.2c0.1,0,0.3,0,0.4-0.1c0.5-0.1,0.9-0.1,1.4-0.2c0.2,0,0.5-0.1,0.7-0.1
		c0.4-0.1,0.8-0.1,1.2-0.2c0.3-0.1,0.6-0.1,0.9-0.2c0.3-0.1,0.6-0.1,0.9-0.2c0.4-0.1,0.7-0.1,1.1-0.2c0.3-0.1,0.5-0.1,0.8-0.2
		c0.4-0.1,0.9-0.2,1.3-0.3c0.2,0,0.3-0.1,0.4-0.1c0,0,0.1,0,0.1,0c1.3-0.3,2.6-0.6,4-0.9c0.1,0,0.2,0,0.2-0.1c1.3-0.3,2.6-0.7,4-1.1
		c0.1,0,0.2-0.1,0.3-0.1c1.3-0.4,2.6-0.7,3.9-1.1c0.1,0,0.2-0.1,0.3-0.1c1.4-0.4,2.7-0.8,4.1-1.3c4.5-1.4,8.9-3,13-4.6
		c2.2,3.4,6.8,6.8,13.4,7c4,0.1,7,0.4,9.3,0.8c1.3,0.6,15.4,7.1,30.3,11.9c5.5,1.8,11.3,3.4,16.9,4.6c5.1,1.2,10.1,2,14.3,2.2
		c0,0,6.1-2.4,14.6-8.1c2.8,1.1,5.8,2.2,8.9,3.3l-1.4,16.6c-0.5,3.8-0.8,14.7-0.8,26.9H1487.9z M1591.5,887.5c0,0,0.1,0,0.1,0l0,0.2
		l0.4,5.8c-0.8-0.1-1.7-0.2-2.5-0.4c-1.7-0.5-3.6-1.3-5.5-2.2c-1.1-0.6-2.7-1.1-4.4-1.5c1.4-0.6,2.4-1.1,2.6-1.2
		C1584.4,888,1587.4,887.7,1591.5,887.5z"/>
	<g>
		<path class="st3" d="M3028.4,746.1c0-1.2-1-14.2-20.8-14.9c0,0,9.7,1.2,11.4,5.4c0,0-6.6-5.3-12-3.6c-5.4,1.7-8.6,11.2-8.6,14.3
			c0,3.1,3,13.1,6.4,14c1.3,0.3,2.8,0.2,4.1,0c-0.9,1.4-1.8,3-2.7,4.7c-7.9,16.2,0.2,32.1,6.9,30.3c4.3-1.1,5.5,6.2,5.5,6.2
			l41.7-33.7C3060.4,768.9,3045.1,737.2,3028.4,746.1z"/>
		<path class="st4" d="M3130.6,931.9c0,0,12.1-0.5,14.1,1.6c2,2,1,12.1-2.8,15.4c-3.8,3.3-14.2-9.1-14.2-9.1L3130.6,931.9z"/>
		<path class="st4" d="M3049,840.5c0,0-14.4,7.4-13.4,27.5c0.9,20.1,28.2,55.3,41.8,63.7c10.8,6.6,52.1,8.4,52.1,8.4l1.2-8.1
			c0,0-38.5-15.7-43.9-21.7C3075.1,897.3,3059.7,836,3049,840.5z"/>
		<path class="st5" d="M3052.4,877.3c-0.2,0.5-0.4,1.1-0.7,1.6c-7.1,15.2-28.8,40.5-29.8,57.8c-0.3,6,0.4,13.5,2.9,23.4
			c12.1,48.6-83.5,7.2-78.1-5.4c10.7-25,25.7-60.8,25.7-60.8c0-0.2-0.1-25.3,0-35.2v-0.3c0-0.5,0-0.9,0-1.3v-0.5c0-3,0-5.2-0.1-5.8
			c2.7-9.9,8-26.6,8-26.6c7.5-3,20.7-1.2,20.7-1.2c0.5,0,3.4,0.3,5.7,0.5c10,1.1,28.7,7.8,29.2,8.8c0,0,4.4,1.8,5.3,2.2
			c1.9,0.8,3.7,1.6,5.1,2.4c6,3,8.3,5.1,8.3,5.1C3047.5,846.8,3057.9,862.5,3052.4,877.3z"/>
		<path class="st6" d="M3022.9,948.8l-9.3,2.5l0-0.1c-16.2,4.3-59.4-12-59.4-12s-15.7,13.8-13.6,46.8c1,16.1-2.9,18.2,1.8,17.5
			c13.7-2.2,61.7,0,61.9,0l0.6-2.4c1.3-0.1,2.4-0.3,3.1-0.4c2.4-0.4,4.8-0.7,7-0.9c6.8-0.7,12.3-0.7,14.9-0.6c0.8,0,1.5-0.7,1.4-1.5
			C3027.2,957.3,3022.9,948.8,3022.9,948.8z"/>
		<path class="st7" d="M3037.4,821.6c-1.2,4.8-2.1,9.5-1.4,10.9c-2,2.3-5.2,4.9-10,5.3c-9.5,0.9-19.2-14.1-19.2-14.1
			c3.4-1.8,9.5-10.4,13.1-24.9l1.2,0.6l20.1,9.4C3041.1,808.8,3039,815.3,3037.4,821.6z"/>
		<path class="st3" d="M3048.1,868.7c0-0.5-1.3-1.2-3.2-2c0.6-5.3,1.3-14.8,1.5-29.6c-1.5-0.7-3.2-1.5-5.1-2.4
			c0.2,6,0.4,19.5-2.6,29.7c-7.8-2.6-18.7-5.5-26.2-7.4c-0.9-5.3-3-16-8-33.6l-5.7-0.5c0,0,6.9,18.3,6.9,32.4
			c-0.6-0.1-1-0.2-1.3-0.3c-3.7-0.8-5.3,14.7-5.6,15.6c-5.6,15.6-19.9,13.7-24.8,14.3c-4.9,0.6-33.8,60.2-34.1,70.7
			c-0.3,10.6,68.5,16.9,85.6,15.9C3042.5,970.4,3048.4,871.6,3048.1,868.7z"/>
		<path class="st4" d="M3041.1,808.8c0,0-2.1,6.5-3.7,12.8c-11.7-3.3-15.3-15.6-16.4-22.2L3041.1,808.8z"/>
		<path class="st7" d="M3043.6,815.7c0,0-28.1-6.5-23.8-23.9c4.3-17.4,3.6-30,21.7-26.6c18.1,3.4,19.9,10.9,19.9,17.1
			C3061.4,788.4,3051,816.9,3043.6,815.7z"/>
		<path class="st3" d="M3063,772.4c-3-6.3-6.6-6-8.8-4.9c-13.2-12.2-26.1-2.2-26.1-2.2c-5,12-15.8,16.9-15.8,16.9s4.3,4.4,16.8,4.3
			c3.8,0,7.7-1.8,11.1-4.2c-6.7,6.8-14.6,10.9-14.6,10.9c15.6-3,26.1-21.1,27.2-23c1.3,2,3.9,6.1,4.1,9.6c0.3,4.8-1.4,14.1,1.4,14.4
			C3058.3,794.3,3067.5,781.8,3063,772.4z"/>
		<path class="st7" d="M3072.9,945.1l-2.4,8.6c0,0-3.6-0.6-9.1-1.7c0,0-0.1,0-0.1,0c-0.2,0-0.4-0.1-0.6-0.1
			c-3.5-0.7-7.7-1.6-12.2-2.6c-14.4-3.3-32.1-8.1-40.4-13.3c-15.2-9.6-36.7-63.5-37.7-86.1c-0.1-1.2-0.1-2.3-0.1-3.4
			c0.2-19.4,9.8-22.1,9.8-22.1c3.9-1.6,8.4,5.1,13,15.5c9.7,21.9,20.1,59.9,26.7,71.4c2.8,4.8,18.4,14.5,32,22.3
			c4.8,2.7,9.2,5.2,12.8,7.2C3069.7,943.4,3072.9,945.1,3072.9,945.1z"/>
		<path class="st5" d="M2993.3,839.9c-12.9-3.6-22.8,6.5-22.8,6.5c0.2-19.4,9.8-22,9.8-22C2984.2,822.7,2988.7,829.4,2993.3,839.9z"
			/>
		<path class="st5" d="M3054.7,842.1c0,0,6.8,11.8,7.8,14.8c0,0-8.8-0.3-12.3,6.4C3050.2,863.4,3050.5,843.8,3054.7,842.1z"/>
		<g>
			<path class="st8" d="M3110,970.1c22.2,0,40.2-18,40.2-40.2h-80.5C3069.7,952.1,3087.7,970.1,3110,970.1z"/>
			<path class="st9" d="M3115.6,965.2c-2.2,0.4-4.6,0.7-6.9,0.7c-19.8,0-35.9-16.1-35.9-35.9h13.9
				C3086.6,947.5,3099.1,962,3115.6,965.2z"/>
			<path class="st10" d="M3096.7,925.3c0,0-10-15-14.5-14c-4.4,1,7.9,7.7,12.3,13.3L3096.7,925.3z"/>
			<path class="st11" d="M3147.5,929.9h-75.1c2.1-1.8,6.6-4.7,14-4.3c0,0,7.6-0.8,11.7-3.9c4.1-3.1,16.4-4.3,23.1,0.9
				c6.7,5.2,14.2,3.9,18.3,4.6C3143,927.8,3146.2,928.3,3147.5,929.9z"/>
		</g>
		<path class="st7" d="M3100.7,953.5c-4.3,1.8-10.4,8.1-20,4.3c-8.1-3.2-16.8-5.2-19.3-5.8c0,0-0.1,0-0.1,0
			c-0.3-0.1-0.5-0.1-0.6-0.1c0,0,0,0,0,0l3.8-11.1c0,0,0.1,0,0.3,0.1c2.2,0.5,15.2,3.3,21.2,1.9c6.6-1.5,17.7,6.4,17.7,6.4
			S3105,951.7,3100.7,953.5z"/>
		<path class="st5" d="M3100.7,953.5c-4.3,1.8-10.4,8.1-20,4.3c-8.1-3.2-16.8-5.2-19.3-5.8c0,0-0.1,0-0.1,0c-0.2,0-0.4-0.1-0.6-0.1
			c-3.5-0.7-7.7-1.6-12.2-2.6c3.9-6.1,3.8-12.6,3.4-15.6c4.8,2.7,9.2,5.2,12.8,7.2c2.2,0.5,15.2,3.3,21.2,1.9
			c6.6-1.5,17.7,6.4,17.7,6.4S3105,951.7,3100.7,953.5z"/>
	</g>
	<path class="st12" d="M2814.7,960.7c-5.7,0-10.3,5-10.3,11V1229c0,6.1,4.6,11,10.3,11h379.6c19-16.3,37.2-35.8,54.4-57.8
		c6.9-8.8,13.5-17.9,20-27.4c1.4-2,2.8-4.1,4.1-6.1c10.8-16.3,21-33.6,30.6-51.6c2.8-5.3,5.5-10.6,8.2-16
		c7-14.2,13.7-28.8,19.8-43.8c0.1-0.1,0.1-0.3,0.2-0.4c4.4-10.7,8.6-21.6,12.5-32.7c5.1-14.3,9.7-28.8,13.9-43.5H2814.7z"/>
	<g>
		<path class="st13" d="M2454.7,756.8c0,0,1.9-3.8,11.1-2.8s11.9,9.4,12.3,14.9c0.3,4.5,3.8,46.9,10.8,68.4c1.6,5-2.6,9.9-7.8,9.1
			l-21-3.2L2454.7,756.8z"/>
		<path class="st14" d="M2452,757.5c0,0,9.9-3.3,15.1,1.6c5.2,4.9,2.3,11.5,2.3,11.5L2452,757.5z"/>
		<path class="st13" d="M2420.8,777c0,0,0.2-21.8,35.3-19.3c6,0.4,11.4,3.8,14.1,9.2c3.9,7.7,5.7,21.3-7.1,43.1L2420.8,777z"/>
		<path class="st15" d="M2465.2,841l-7.9,30.9l-22.8,1.1l-11.4-17c10.6-8.1,12.1-22.2,12-30.6c0-0.1,0-0.2,0-0.2
			c-0.1-3.9-0.5-6.6-0.5-6.6l16.2-4.9l12.3-3.8c-1.1,9.4-1.1,16.2-0.5,21C2463.4,838.4,2465.2,841,2465.2,841z"/>
		<path class="st15" d="M2488.3,1000.8l-82.9-0.1c0,0,10.3-55.6,4.6-73.8s0.3-44.8,0.3-44.8c8.3-19.8,10.4-38.3,14.2-39.3
			c2-0.5,3.7-1.6,5.7-2c32.6-6.5,59,5.3,59,5.3c7.3,18.4-8.3,32.1-9.1,73.6C2479.3,960.5,2488.3,1000.8,2488.3,1000.8z"/>
		<path class="st16" d="M2491.5,847.5c-4-7.3-25.7-7.5-25.7-7.5c-2.1,2.5-13.2,10.5-27,10.4c-13.8-0.1-7.5-9.8-7.5-9.8
			c-0.5,0.1-1,0.2-1.5,0.3c-2.9,0.9-5,3-6.4,4.9c0.1-1.8,0.1-2.9,0.1-2.9s-20.3,5.5-49.3,54.9c-0.9,1.5-3.3,1.2-9,0.1
			c-7.3-1.4-22.1-1.2-44.5-4.5c0,0-0.8,0.6-1,3c-0.5,5.4-1,7-1,7s14.7,6.9,30.4,11.9c5.5,1.8,11.3,3.4,16.9,4.6
			c5.1,1.2,10.1,2,14.3,2.2c0,0,11.6-4.4,25.1-16.1c-1.1,7.9-1.7,13.5-1.6,14.1c0.6,7.3-0.3,18.6-0.3,18.6s58.7,16,76,7.8
			c2.9-1.4,4.6-3.4,4.7-6.2c1.7-32,9.2-58,9.9-75.9C2494.6,857.5,2493.9,851.9,2491.5,847.5z"/>
		<path class="st17" d="M2466.6,882.4c10.5-3.3,21,5,20.3,16c-0.7,10.8-1.6,23.4-2.5,41.8c-0.2,2.9-1.9,4.9-4.7,6.2l-16.8-34.9
			L2466.6,882.4L2466.6,882.4z"/>
		<path class="st18" d="M2492.8,999.1l-8-58.2c-0.1-0.8-0.5-1.6-1-2.3c-10-12.7-11.1-52.2-11.1-67.3c0-3.2-2.5-5.8-5.7-5.9
			c0.2-0.7,6.3-19.3,11-24.3c0,0-1.6-0.2-2.1-0.3c-1.2-0.2-3.2-0.4-3.2-0.4s-8.7,12.2-12.5,25.1c0,0-0.1,0-0.2,0
			c-17.9,2.2-33.2,1.1-42.4,0h1.3c0,0,6.2-18.9,11-24.6c-2,0.4-4.3,1.4-6.3,2c-3,4.2-8.4,12.5-11.3,21.9c-2.2,0.2-4,1.9-4.2,4.2
			l-2.3,27.4l-3.2,37.5c-1.2,8.3-0.9,51.6-0.7,66c0,2.6,2,4.6,4.5,4.6h81.9C2491,1004.4,2493.2,1001.9,2492.8,999.1z"/>
		<path class="st19" d="M2462.6,830.9c-9.8-5.2-25-5.5-27.5-5.5c-0.2,0-0.3,0-0.3,0s0.1-0.1,0.3-0.2c1.6-1.2,8.9-6.6,15.7-11.5
			l12.3-3.8C2462,819.3,2462,826.1,2462.6,830.9z"/>
		<path class="st15" d="M2429,825.9c0,0,34.8,1.6,35.5-20.1c0.7-21.7,5.6-36.1-16.6-38s-26.8,6.2-28.8,13.4
			C2417.1,788.3,2420,824.9,2429,825.9z"/>
		<path class="st13" d="M2432.8,776.3c0,0-15.5,9.3-13.9,21.3c0,0-7.1-4.3-5.7-15.6c1.4-11.3,12.7-18.4,22.2-18.4s16.7,1.2,16.7,1.2
			L2432.8,776.3z"/>
		<path class="st13" d="M2429.9,772.5c-6.2,3.3,19.4,6,20.9,16.4c1.6,10.4,13.7,14.4,13.7,14.4S2480,746,2429.9,772.5z"/>
		<path class="st0" d="M2424.8,814.1c0,0,0.3,2.2,5.6,2.5c0,0,4.5,0.3,4.7-2.1C2435.1,814.4,2431,812.3,2424.8,814.1z"/>
		<path class="st16" d="M2378.6,906.1c0,0,23.8,12,44.5,16.9c5.9,1.4,11.7,2.4,16.6,2.7c0,0,22.2-6.8,39.2-30.6
			c32.7-45.9,7.5-50.8,7.5-50.8s-21.9,13.6-52.8,57.1c-1.1,1.5-3.8,1.2-10.8-0.2c-7.5-1.5-22.4-1.3-43.1-4.4c0,0-0.3,0.8-0.6,3.2
			C2378.6,905.4,2378.6,906.1,2378.6,906.1z"/>
		<path class="st20" d="M2365.3,897.9c-7.2-1.4-22.5-1.5-44.5-4.7c-1.7-0.5-3.7-1.3-5.5-2.2c-4.7-2.4-17.3-3.9-20-1.4
			c-2.7,2.5,2.8,12.7,14.3,13c4,0.1,7,0.4,9.3,0.8c1.2,0.6,15.3,7.1,30.3,11.9c5.5,1.8,11.3,3.4,16.9,4.6
			C2368.3,910,2366.8,902.3,2365.3,897.9z"/>
		<g>
			<g>
				<polygon class="st14" points="2370.6,868.6 2370.3,874.8 2369.7,887.7 2369.5,893.7 2353.1,893.7 2352.7,887.7 2351.9,874.8 
					2351.5,868.6 				"/>
				<polygon class="st21" points="2370.9,864.4 2351.5,864.4 2350.7,868.6 2371.4,868.6 				"/>
				<polygon class="st22" points="2370.3,874.8 2369.7,887.7 2352.7,887.7 2351.9,874.8 				"/>
			</g>
			<g>
				<polygon class="st14" points="2340.8,868.6 2340.5,874.8 2340,887.7 2339.7,893.7 2323.3,893.7 2323,887.7 2322.2,874.8 
					2321.8,868.6 				"/>
				<polygon class="st21" points="2341.1,864.4 2321.7,864.4 2320.9,868.6 2341.7,868.6 				"/>
				<polygon class="st22" points="2340.5,874.8 2340,887.7 2323,887.7 2322.2,874.8 				"/>
			</g>
			<path class="st23" d="M2384.7,898h-77.9c-1.2,0-2.2-1-2.2-2.2l0,0c0-1.2,1-2.2,2.2-2.2h77.9c1.2,0,2.2,1,2.2,2.2l0,0
				C2386.9,897,2385.9,898,2384.7,898z"/>
		</g>
		<path class="st24" d="M2423.1,923c-4.5-9-2.8-16.8-0.4-21.9c-7.5-1.5-22.6-2.2-43.2-5.2c0,0,0,0,0,0c-2.2-0.6-5.5-1.6-8.5-3.1
			c-5-2.5-18.5-4.2-21.3-1.5c-2.9,2.7,3,13.6,15.3,13.9c6.8,0.2,10.9,0.9,13.2,1.5C2380.2,907.7,2403.3,918.3,2423.1,923z"/>
		<path class="st18" d="M2437.1,742c0,0-11.4,5.5-19.9,30.6l12.7,0L2437.1,742z"/>
		<path class="st16" d="M2429.9,772.5c0,0,35.9,0.6,48.2-3.5c0,0-2.3-21.8-11.3-29.1l-29.7,2.1
			C2437.1,742,2428.1,763.5,2429.9,772.5z"/>
	</g>
	<path class="st12" d="M2746.8,960.7h-696.6c-6.3,0-11.5,5.2-11.5,11.5v256.5c0,6.3,5.2,11.5,11.5,11.5h696.6
		c6.3,0,11.5-5.2,11.5-11.5V972.2C2758.2,965.9,2753.1,960.7,2746.8,960.7z"/>
	<path class="st25" d="M3295.4,1245H183.9c-1.7,0-3-1.4-3-3l0,0c0-1.7,1.4-3,3-3h3111.5c1.7,0,3,1.4,3,3l0,0
		C3298.4,1243.6,3297,1245,3295.4,1245z"/>
	<path class="st26" d="M2548,406.3c-10.7-3.9-21.4-8-32.1-12.3c0,0,0,0-0.1,0c-521.2-196.7-527.8-22.5-809.6-34.9
		c-163.1-7.2-322.7-187-538.5-58.3c-0.9,0.5-1.8,1.1-2.7,1.6v84.3c0,10.8,11.3,19.6,25,19.6h793.1v820.1c0,6.9,5.2,12.6,11.6,12.6
		c3.2,0,6.1-1.4,8.2-3.7c2.1-2.3,3.4-5.4,3.4-8.9V406.3H2548z"/>
	<g>
		<path class="st26" d="M2734.5,490.8h-652.2c-4.7,0-8.5,3.8-8.5,8.5v147.6c0,4.7,3.8,8.5,8.5,8.5h652.2c4.7,0,8.5-3.8,8.5-8.5
			V499.3C2743,494.6,2739.2,490.8,2734.5,490.8z"/>
		<g>
			<path class="st2" d="M2273.2,524.7h-144.8c-4.5,0-8.2,3.7-8.2,8.2c0,4.5,3.7,8.2,8.2,8.2h144.8c4.5,0,8.2-3.7,8.2-8.2
				C2281.4,528.4,2277.7,524.7,2273.2,524.7z"/>
			<path class="st2" d="M2273.2,564.9h-144.8c-4.5,0-8.2,3.7-8.2,8.2c0,4.5,3.7,8.2,8.2,8.2h144.8c4.5,0,8.2-3.7,8.2-8.2
				C2281.4,568.6,2277.7,564.9,2273.2,564.9z"/>
			<path class="st2" d="M2273.2,605.1h-144.8c-4.5,0-8.2,3.7-8.2,8.2c0,4.5,3.7,8.2,8.2,8.2h144.8c4.5,0,8.2-3.7,8.2-8.2
				C2281.4,608.8,2277.7,605.1,2273.2,605.1z"/>
			<path class="st2" d="M2490.6,524.7h-144.8c-4.5,0-8.2,3.7-8.2,8.2c0,4.5,3.7,8.2,8.2,8.2h144.8c4.5,0,8.2-3.7,8.2-8.2
				C2498.8,528.4,2495.1,524.7,2490.6,524.7z"/>
			<path class="st2" d="M2490.6,564.9h-144.8c-4.5,0-8.2,3.7-8.2,8.2c0,4.5,3.7,8.2,8.2,8.2h144.8c4.5,0,8.2-3.7,8.2-8.2
				C2498.8,568.6,2495.1,564.9,2490.6,564.9z"/>
			<path class="st2" d="M2490.6,605.1h-144.8c-4.5,0-8.2,3.7-8.2,8.2c0,4.5,3.7,8.2,8.2,8.2h144.8c4.5,0,8.2-3.7,8.2-8.2
				C2498.8,608.8,2495.1,605.1,2490.6,605.1z"/>
			<path class="st2" d="M2697.1,524.7h-154.8c-7,0-12.7,5.7-12.7,12.7v71.4c0,7,5.7,12.7,12.7,12.7h154.8c7,0,12.7-5.7,12.7-12.7
				v-71.4C2709.8,530.4,2704.1,524.7,2697.1,524.7z"/>
		</g>
	</g>
	<g>
		<path class="st26" d="M1907.4,490.8h-652.2c-4.7,0-8.5,3.8-8.5,8.5v147.6c0,4.7,3.8,8.5,8.5,8.5h652.2c4.7,0,8.5-3.8,8.5-8.5
			V499.3C1915.8,494.6,1912,490.8,1907.4,490.8z"/>
		<g>
			<path class="st2" d="M1446,524.7h-144.8c-4.5,0-8.2,3.7-8.2,8.2c0,4.5,3.7,8.2,8.2,8.2H1446c4.5,0,8.2-3.7,8.2-8.2
				C1454.2,528.4,1450.5,524.7,1446,524.7z"/>
			<path class="st2" d="M1446,564.9h-144.8c-4.5,0-8.2,3.7-8.2,8.2c0,4.5,3.7,8.2,8.2,8.2H1446c4.5,0,8.2-3.7,8.2-8.2
				C1454.2,568.6,1450.5,564.9,1446,564.9z"/>
			<path class="st2" d="M1446,605.1h-144.8c-4.5,0-8.2,3.7-8.2,8.2c0,4.5,3.7,8.2,8.2,8.2H1446c4.5,0,8.2-3.7,8.2-8.2
				C1454.2,608.8,1450.5,605.1,1446,605.1z"/>
			<path class="st2" d="M1663.4,524.7h-144.8c-4.5,0-8.2,3.7-8.2,8.2c0,4.5,3.7,8.2,8.2,8.2h144.8c4.5,0,8.2-3.7,8.2-8.2
				C1671.6,528.4,1667.9,524.7,1663.4,524.7z"/>
			<path class="st2" d="M1663.4,564.9h-144.8c-4.5,0-8.2,3.7-8.2,8.2c0,4.5,3.7,8.2,8.2,8.2h144.8c4.5,0,8.2-3.7,8.2-8.2
				C1671.6,568.6,1667.9,564.9,1663.4,564.9z"/>
			<path class="st2" d="M1663.4,605.1h-144.8c-4.5,0-8.2,3.7-8.2,8.2c0,4.5,3.7,8.2,8.2,8.2h144.8c4.5,0,8.2-3.7,8.2-8.2
				C1671.6,608.8,1667.9,605.1,1663.4,605.1z"/>
			<path class="st2" d="M1869.9,524.7h-154.8c-7,0-12.7,5.7-12.7,12.7v71.4c0,7,5.7,12.7,12.7,12.7h154.8c7,0,12.7-5.7,12.7-12.7
				v-71.4C1882.6,530.4,1876.9,524.7,1869.9,524.7z"/>
		</g>
	</g>
	<path class="st26" d="M1160.8,499.3v147.6c0,4.7-3.8,8.5-8.5,8.5H500.1c-4.7,0-8.5-3.8-8.5-8.5v-30.6c116.4-20.6,238-1.6,410-125.4
		h250.7C1157,490.8,1160.8,494.6,1160.8,499.3z"/>
	<g>
		<path class="st26" d="M3364,655.4h-552.3c-4,0-7.2-3.8-7.2-8.5V499.3c0-4.7,3.3-8.5,7.2-8.5h452.6c15.4,12.9,29.1,27.2,41.2,42.8
			C3332.8,568.9,3351.9,610.3,3364,655.4z"/>
		<g>
			<path class="st2" d="M2967.9,524.7h-122.5c-4.2,0-7.6,3.4-7.6,7.6v1.2c0,4.2,3.4,7.6,7.6,7.6h122.5c4.2,0,7.6-3.4,7.6-7.6v-1.2
				C2975.4,528.1,2972,524.7,2967.9,524.7z"/>
			<path class="st2" d="M2967.9,564.9h-122.5c-4.2,0-7.6,3.4-7.6,7.6v1.2c0,4.2,3.4,7.6,7.6,7.6h122.5c4.2,0,7.6-3.4,7.6-7.6v-1.2
				C2975.4,568.3,2972,564.9,2967.9,564.9z"/>
			<path class="st2" d="M2967.9,605.1h-122.5c-4.2,0-7.6,3.4-7.6,7.6v1.2c0,4.2,3.4,7.6,7.6,7.6h122.5c4.2,0,7.6-3.4,7.6-7.6v-1.2
				C2975.4,608.5,2972,605.1,2967.9,605.1z"/>
			<path class="st2" d="M3153.6,524.7h-122.5c-4.2,0-7.6,3.4-7.6,7.6v1.2c0,4.2,3.4,7.6,7.6,7.6h122.5c4.2,0,7.6-3.4,7.6-7.6v-1.2
				C3161.1,528.1,3157.7,524.7,3153.6,524.7z"/>
			<path class="st2" d="M3153.6,564.9h-122.5c-4.2,0-7.6,3.4-7.6,7.6v1.2c0,4.2,3.4,7.6,7.6,7.6h122.5c4.2,0,7.6-3.4,7.6-7.6v-1.2
				C3161.1,568.3,3157.7,564.9,3153.6,564.9z"/>
			<path class="st2" d="M3153.6,605.1h-122.5c-4.2,0-7.6,3.4-7.6,7.6v1.2c0,4.2,3.4,7.6,7.6,7.6h122.5c4.2,0,7.6-3.4,7.6-7.6v-1.2
				C3161.1,608.5,3157.7,605.1,3153.6,605.1z"/>
			<path class="st2" d="M3249.6,524.7h-42.9c-3.9,0-7.1,3.2-7.1,7.1v82.5c0,3.9,3.2,7.1,7.1,7.1h42.9c3.9,0,7.1-3.2,7.1-7.1v-82.5
				C3256.7,527.9,3253.5,524.7,3249.6,524.7z"/>
		</g>
	</g>
	<g>
		<polygon class="st12" points="2226.1,913.4 2283.5,913.4 2292.7,950.4 2236,950.4 		"/>
		<polygon class="st12" points="2241.6,925.4 2266.8,925.4 2276.5,961.2 2249.9,961.2 		"/>
		<polygon class="st27" points="2266.8,925.4 2268.5,925.4 2279.1,961.2 2276.2,961.2 		"/>
		<polygon class="st27" points="2283.5,913.4 2284.5,913.4 2293.8,950.4 2292.7,950.4 		"/>
	</g>
	<g>
		<polygon class="st12" points="2818,890.2 2903.1,890.2 2916.7,945.1 2832.6,945.1 		"/>
		<polygon class="st12" points="2840.9,908 2878.3,908 2892.7,961.2 2853.3,961.2 		"/>
		<polygon class="st27" points="2878.3,908 2880.9,908 2896.7,961.2 2892.4,961.2 		"/>
		<polygon class="st27" points="2903.1,890.2 2904.6,890.2 2918.4,945.1 2916.7,945.1 		"/>
	</g>
	<g>
		<path class="st24" d="M2154.5,1233.4c0.4,5.3,8,4.9,16.6,3.8s6.2,1.6,18.2,1.7c12,0.1,16.1-3.9,16.6-5.6c0.5-1.5-5.3-2.8-11.5-4.2
			c-0.8-0.2-1.6-0.4-2.3-0.6c-7-1.7-13-5.5-17.6-11.4c-5.2-6.7-9.9-37-9.9-37l-18.7,3.5c0,0,10.9,26,12,34.5
			c0.5,3.8-2.2,6.4-2.9,9.7C2154.7,1229.7,2154.3,1231.6,2154.5,1233.4z"/>
		<path class="st28" d="M2171,1237.7c3.4-0.8,6.3,1.1,18.3,1.2c12,0.1,16.1-3.9,16.6-5.6c0.5-1.5-5.3-2.8-11.5-4.2l-0.1,0.1
			c0,0-7.7,4.2-17.5,3.3c-8-0.7-16.3-4-21.8-4.6c-0.3,1.8-0.7,3.7-0.5,5.6C2154.9,1238.8,2160.9,1240.2,2171,1237.7z"/>
		<g>
			<path class="st28" d="M2171.2,1202c0,0-4.9,3.2-9.5,4.1c-6.9,1.3-10.1-0.1-10.1-0.1s-33.2-83.5-31.3-111.7c0-0.7,0.1-1.4,0.1-2.2
				c0.1-4.9-0.6-11.4-1.9-18.9c-0.4-2.8-1-5.6-1.5-8.6c-1.3-7-3-14.5-4.8-22.1c-0.8-3.4-1.6-6.8-2.5-10.2
				c-8.4-33.4-18.6-66.3-18.6-66.3s60-19.6,63.4-1.3c1.3,7,5.6,35.2,3.7,78.2c-1.6,34.6-0.6,61.6,2.4,93
				C2163.2,1163.4,2167.7,1187.1,2171.2,1202z"/>
		</g>
		<path class="st29" d="M2120.3,1092.1c0.1-4.9-0.6-11.4-1.9-18.9c-0.4-2.8-1-5.6-1.5-8.6c-1.3-7-3-14.5-4.8-22.1
			c-0.8-3.4-1.6-6.8-2.5-10.2c1.2-10.2,2.1-17.2,2.1-17.2S2136.7,1049,2120.3,1092.1z"/>
		<path class="st24" d="M2078.8,1233.4c0.4,5.3,8,5.3,16.5,4.3s6.3,1.1,18.3,1.2s16.1-3.9,16.6-5.6c0.5-1.5-5.3-2.8-11.5-4.2
			c-0.8-0.2-1.6-0.4-2.3-0.6c-7-1.7-11.6-6.9-17.6-11.4c-5.7-4.3-1.7-24.9-1.7-24.9l-17.6-6.3c0,0,2.7,20.8,2.7,32.3
			c0,3.9-2.2,6.4-2.9,9.7C2079,1229.7,2078.6,1231.6,2078.8,1233.4z"/>
		<path class="st28" d="M2095.3,1237.7c2-0.5,6.3,1.1,18.3,1.2s16.1-3.9,16.6-5.6c0.5-1.5-5.3-2.8-11.5-4.2l-0.1,0.1
			c0,0-7.7,4.2-17.5,3.3c-8-0.7-16.3-4-21.8-4.6c-0.3,1.8-0.7,3.7-0.5,5.6C2079.2,1238.8,2084.3,1240.3,2095.3,1237.7z"/>
		<path class="st28" d="M2127.2,959.5c0,0-19.5,97.3-22.8,150.2c-3.3,52.9-7.4,96.8-7.4,96.8s-4.3,1.5-9.1,1.3
			c-5.2-0.3-9.3-1.9-9.3-1.9s-19.3-79.7-12.9-111.5c6.4-31.9,1.1-61.3-2-87.7c-4.4-37.9,12.6-55.5,24.4-67.6
			C2100,926.9,2127.2,959.5,2127.2,959.5z"/>
		<path class="st13" d="M2141,781.3c1.9-15.8-3-41.2-34.6-37.1c-31.6,4-41.6,35.1-35.2,48.9c6.4,13.8-9.2,17.1-14.1,32
			c-4.2,12.8-5.7,28.6-12.4,35.7c-21.9,22.9,21,58.2,46.9,50.7c47.1-13.5,53.2-15.6,51.5-52.6c-0.9-19-15.6-26.3-6.2-31.8
			C2159.5,814,2136.7,817.2,2141,781.3z"/>
		<path class="st20" d="M2134.1,822.3c-0.5,0-4.3-1.2-10.6-1.8c-3.1-9.3-1.4-19.1-1.4-19.1l-23.5-7.2c-1.1,25-3.4,28.1-3.9,28.5
			c-4.9,1.2-10.1,2.8-15.6,5c0,0,15,85.9,8.6,102.3c-6.5,16.4-8.9,30.9-8.9,30.9l70,0.9c0,0-1-56.3,2.2-76.2
			S2134.1,822.3,2134.1,822.3z"/>
		<path class="st24" d="M2128.2,803c0,0-28.2,5.7-31.4-11.9c-3.3-17.6-9.1-28.7,8.8-33.1c17.8-4.4,22.6,1.7,25.1,7.3
			C2133.2,770.9,2135.4,801.1,2128.2,803z"/>
		<path class="st30" d="M2250.3,880.1c-0.2-2.4-1-3-1-3c-22.4,3.3-37.2,3.1-44.5,4.5c-5.7,1.1-8,1.3-9-0.1
			c-30.9-43.5-52.8-57.1-52.8-57.1s-2.3-1.4-11.5-2.6c0,0-1.3,16.5-9.8,17.9c-14.7,2.4-26.5-11-30-16.4c0,0-16.9,4.3-21.8,9.9
			c-3.6,4.1-3.1,13.8-2,19.9c0.3,1.9,0.7,3.5,1.1,4.4c1,2.8,5,23,6.8,31.1c0,0.2,0.1,0.4,0.1,0.6c0.1,0.5,0.2,1,0.3,1.4c0,0,0,0,0,0
			c0.1,0.4,0.2,0.8,0.3,1c0,0.1,0.1,0.3,0.1,0.4c0,0,0,0,0,0c2.6,8.3,4.2,16.7,3.2,27.1c-0.1,1.2-0.4,2.7-0.8,4.3
			c-2.3,12-12.1,35.8-14.1,46.7c1.2,2.5,3.8,4.4,7,6c4.2,2,9.4,3.4,13.5,4.3c3.2,0.7,8.1,1.6,13.7,2.2c3,0.3,6.2,0.6,9.5,0.8
			c0.5,0,0.9,0.1,1.4,0.1c21.1,1,44.7,0.5,47.8-9.5c1.5-4.8-4.4-33.7-5.2-42.3c-1.4-15.1,0.9-35.8,1.9-51.8
			c17.3,19.1,35.2,25.9,35.2,25.9c4.3-0.2,9.2-1,14.3-2.2c5.5-1.2,11.3-2.9,16.9-4.6c15.7-5,30.4-11.9,30.4-11.9
			S2250.8,885.5,2250.3,880.1z"/>
		<path class="st13" d="M2114.4,753.6c0,0,0.5,6-8.8,16.1c-9.3,10.1-7.1,28.2-7.1,28.2s-15.6-29.3-7.3-38.7
			C2099.7,749.8,2114.4,753.6,2114.4,753.6z"/>
		<path class="st13" d="M2103.1,745.9c0,0,14-4.7,27.9,9c6,5.9,5.1,17.5,1.9,24.2c0,0-4.9-14.4-13.9-17.6
			C2110,758.4,2103.1,745.9,2103.1,745.9z"/>
		<path class="st0" d="M2119.4,794.4c0,0,0.8,2.1,6.1,1.1c0,0,4.5-0.8,4-3.1C2129.5,792.4,2125,791.2,2119.4,794.4z"/>
		<path class="st31" d="M2125.1,951.1c-4,13.5-6.3,24.7-16.3,32.2c-3.3-0.2-6.5-0.5-9.5-0.8c-5.6-0.6-10.5-1.5-13.7-2.2
			c-4.1-0.9-9.3-2.3-13.5-4.3c-3.2-1.6-5.9-3.5-7-6c2-10.9,11.8-34.7,14.1-46.7c0.2-1.2,0.4-2.2,0.5-3.2c0.9-10.8-0.5-19.7-2.9-28.3
			c0,0,0,0,0,0c-0.1-0.5-0.3-0.9-0.4-1.4c0,0,0,0,0,0c-0.1-0.3-0.2-0.8-0.3-1.4c0-0.2-0.1-0.4-0.1-0.6c-1.6-7.6-5.8-31.6-6.9-34.7
			c-0.3-1-0.7-2.7-1.1-4.8l8.4-8.1c0,0,48.3,20.6,59,49.1C2146,918.4,2130.8,931.7,2125.1,951.1z"/>
		<path class="st31" d="M2220.9,899c-10.7,3.4-22.3,6.4-31.2,6.8c0,0-18.1-6.9-35.5-26.3c-0.7-3.3-1.4-8.8,2.5-7.2
			c5.6,2.2,26.3,28.8,34.1,29.3C2196.4,902,2212.3,900.1,2220.9,899z"/>
		<path class="st30" d="M2182.7,891.4c0,0-23.8,12-44.5,16.9c-5.9,1.4-11.7,2.4-16.6,2.7c0,0-22.2-6.8-39.2-30.6
			c-32.7-45.9-7.5-50.8-7.5-50.8s21.9,13.6,52.8,57.1c1.1,1.5,3.8,1.2,10.8-0.2c7.5-1.5,22.5-1.3,43.1-4.4c0,0,0.3,0.8,0.6,3.2
			C2182.8,890.7,2182.7,891.4,2182.7,891.4z"/>
		<path class="st20" d="M2274.8,873.3c-2.7-2.5-15.2-0.9-20,1.4c-1.8,0.9-3.8,1.6-5.5,2.2c-22,3.2-37.3,3.3-44.5,4.7
			c-1.5,4.5-3,12.2-0.8,22c5.5-1.2,11.3-2.9,16.9-4.6c15-4.7,29.1-11.3,30.3-11.9c2.2-0.3,5.2-0.6,9.3-0.8
			C2272,886.1,2277.5,875.9,2274.8,873.3z"/>
		<path class="st24" d="M2211.6,876.7c-2.9-2.7-16.3-1-21.3,1.5c-2.9,1.5-6.2,2.5-8.5,3.1c0,0,0,0,0,0c-20.6,3-35.7,3.7-43.2,5.2
			c2.3,5.1,4.1,12.9-0.4,21.9c19.8-4.7,42.9-15.3,44.9-16.2c2.3-0.6,6.4-1.3,13.2-1.5C2208.6,890.3,2214.5,879.4,2211.6,876.7z"/>
	</g>
	<path class="st26" d="M3383.1,785.4c0,2.8,0,5.6,0,8.4c-0.4,48.3-7.3,97.5-19.3,145.4H3170c-5.8,0-10.6-5.7-10.6-12.7V743.9
		c0-7,4.8-12.7,10.6-12.7h209.9c1.9,16.5,3,33.1,3.2,50C3383.1,782.6,3383.1,784,3383.1,785.4z"/>
	<g>
		<path class="st32" d="M3346.8,790.2h-94.5l0.6-12.7h-1.7c-0.5-5.8-11-4-11.2,0h-2l0.8,12.7h-9.3l0.6-12.7h-1.7
			c-0.5-5.8-11-4-11.2,0h-2l0.8,12.7h-9.3l0.6-12.7h-1.7c-0.5-5.8-11-4-11.2,0h-2l0.8,12.7h-5.6c-1.9,0-3.5,1.6-3.5,3.5v1.5
			c0,1.9,1.6,3.5,3.5,3.5h159.2c1.9,0,3.5-1.6,3.5-3.5v-1.5C3350.3,791.8,3348.7,790.2,3346.8,790.2z"/>
		<path class="st32" d="M3346.8,863.4h-159.2c-1.9,0-3.5,1.6-3.5,3.5v1.5c0,1.9,1.6,3.5,3.5,3.5h159.2c1.9,0,3.5-1.6,3.5-3.5v-1.5
			C3350.3,864.9,3348.7,863.4,3346.8,863.4z"/>
		<path class="st32" d="M3245.6,842.4c-0.9-6.8-7.1-5.8-12.6-10.4c-5.4-4.6-15.6,3.9-23.7,6.7c-5.3,1.9-7.7,8-8.8,12h-8.3l3.3,12.7
			h54.7l2.6-12.7h-7C3246.1,848.5,3246,845.7,3245.6,842.4z"/>
		<path class="st32" d="M3320.4,842.4c-0.9-6.8-7.1-5.8-12.6-10.4c-5.4-4.6-15.6,3.9-23.7,6.7c-5.3,1.9-7.7,8-8.8,12h-8.3l3.3,12.7
			h54.7l2.6-12.7h-7C3320.9,848.5,3320.9,845.7,3320.4,842.4z"/>
		<path class="st32" d="M3325.2,790.1l2.6-12.7h-7c0.1-2.1,0.1-4.9-0.4-8.2c-0.9-6.8-7.1-5.8-12.6-10.4c-5.4-4.6-15.6,3.9-23.7,6.7
			c-5.3,1.9-7.7,8-8.8,12h-8.3l3.3,12.7H3325.2z"/>
		<path class="st32" d="M3346.8,915.9h-94.5l0.6-12.7h-1.7c-0.5-5.8-11-4-11.2,0h-2l0.8,12.7h-9.3l0.6-12.7h-1.7
			c-0.5-5.8-11-4-11.2,0h-2l0.8,12.7h-9.3l0.6-12.7h-1.7c-0.5-5.8-11-4-11.2,0h-2l0.8,12.7h-5.6c-1.9,0-3.5,1.6-3.5,3.5v1.5
			c0,1.9,1.6,3.5,3.5,3.5h159.2c1.9,0,3.5-1.6,3.5-3.5v-1.5C3350.3,917.5,3348.7,915.9,3346.8,915.9z"/>
		<path class="st32" d="M3320.4,894.9c-0.9-6.8-7.1-5.8-12.6-10.4c-5.4-4.6-15.6,3.9-23.7,6.7c-5.3,1.9-7.7,8-8.8,12h-8.3l3.3,12.7
			h54.7l2.6-12.7h-7C3320.9,901,3320.9,898.2,3320.4,894.9z"/>
	</g>
	<g>
		<g>
			<g>
				<path class="st18" d="M494.4,1041.5C494.4,1041.5,494.4,1041.5,494.4,1041.5c-2.1,0-3.7-1.5-3.7-3.3
					c2.1-128.8-47.7-227.8-48.2-228.8c-0.8-1.6-0.7-5.3,4.7-5.8c4.7-0.4,7.6,0.6,8.4,2.3c0.1,0.2,11.2,23.8,23.6,64.8
					c11.4,37.8,20,99.6,18.9,167.6C498.1,1040,496.4,1041.5,494.4,1041.5z"/>
			</g>
			<g>
				<path class="st18" d="M605.5,1041.5C605.5,1041.5,605.5,1041.5,605.5,1041.5c-2.1,0-3.7-1.5-3.7-3.3
					c2.1-128.8-47.7-227.8-48.2-228.8c-0.8-1.6-0.7-5.3,4.7-5.8c4.7-0.4,7.6,0.6,8.4,2.3c0.1,0.2,11.2,23.8,23.6,64.8
					c11.4,37.8,20,99.6,18.9,167.6C609.2,1040,607.5,1041.5,605.5,1041.5z"/>
			</g>
			<g>
				<path class="st18" d="M461.5,848.9c-1.8,0-3.3-1.1-3.6-2.7c-0.3-1.8,1-3.5,3-3.8c3.2-0.5,78.7-11.8,112.5-2.4
					c1.9,0.5,3,2.4,2.4,4.1c-0.6,1.7-2.7,2.7-4.6,2.1c-32.1-8.9-108.3,2.4-109.1,2.6C462,848.9,461.7,848.9,461.5,848.9z"/>
			</g>
			<g>
				<path class="st18" d="M470.2,870.6c-1.8,0-3.3-1.1-3.6-2.7c-0.3-1.8,1-3.5,3-3.8c3.2-0.5,78.7-11.8,112.5-2.4
					c1.9,0.5,3,2.4,2.4,4.1c-0.6,1.7-2.7,2.7-4.6,2.1c-32.1-8.9-108.3,2.4-109.1,2.6C470.6,870.6,470.4,870.6,470.2,870.6z"/>
			</g>
		</g>
		<path class="st18" d="M490,1041.5h227.6c0,0-5.3-22-137.1-18.7C487.2,1025.1,490,1041.5,490,1041.5z"/>
		<g>
			<path class="st33" d="M471.5,1238.9c26.4-117.5,19.6-189.5,19.6-190.5c-0.1-1.8,3.7-3.5,5.8-3.5c2.1,0,11.2-0.5,12.2,1
				c1.4,2,6.7,90.8-32.6,192.9H471.5z"/>
		</g>
		<g>
			<path class="st33" d="M664.7,1238.9c-26.4-117.5-19.6-189.5-19.6-190.5c0.1-1.8-3.7-3.5-5.8-3.5c-2.1,0-11.2-0.5-12.2,1
				c-1.4,2-6.7,90.8,32.6,192.9H664.7z"/>
		</g>
		<g>
			<path class="st34" d="M726.1,1238.9c-26.4-117.5-19.6-189.5-19.6-190.5c0.1-1.8-3.7-3.5-5.8-3.5c-2.1,0-11.2-0.5-12.2,1
				c-1.4,2-6.7,90.8,32.6,192.9H726.1z"/>
		</g>
		<g>
			<path class="st34" d="M538.3,1238.9c26.4-117.5,19.6-189.5,19.6-190.5c-0.1-1.8,3.7-3.5,5.8-3.5c2.1,0,11.2-0.5,12.2,1
				c1.4,2,6.7,90.8-32.6,192.9H538.3z"/>
		</g>
		<path class="st33" d="M718.9,1048.5H489c-1.9,0-3.5-1.6-3.5-3.5l0,0c0-1.9,1.6-3.5,3.5-3.5h229.9c1.9,0,3.5,1.6,3.5,3.5l0,0
			C722.4,1046.9,720.8,1048.5,718.9,1048.5z"/>
	</g>
	<g>
		<g>
			<g>
				<path class="st18" d="M1488.2,1071.1C1488.2,1071.1,1488.2,1071.1,1488.2,1071.1c-1.8,0-3.2-1.3-3.1-2.8
					c1.8-109.5-40.6-193.7-41-194.5c-0.7-1.4-0.6-4.5,4-4.9c4-0.3,6.5,0.5,7.2,1.9c0.1,0.2,9.6,20.2,20,55.1
					c9.7,32.1,17,84.7,16.1,142.5C1491.3,1069.9,1489.9,1071.1,1488.2,1071.1z"/>
			</g>
			<g>
				<path class="st18" d="M1582.6,1071.1C1582.6,1071.1,1582.6,1071.1,1582.6,1071.1c-1.8,0-3.2-1.3-3.1-2.8
					c1.8-109.5-40.6-193.7-41-194.5c-0.7-1.4-0.6-4.5,4-4.9c4-0.3,6.5,0.5,7.2,1.9c0.1,0.2,9.6,20.2,20,55.1
					c9.7,32.1,17,84.7,16.1,142.5C1585.7,1069.9,1584.3,1071.1,1582.6,1071.1z"/>
			</g>
			<g>
				<path class="st18" d="M1460.2,907.4c-1.5,0-2.8-1-3.1-2.3c-0.3-1.5,0.9-3,2.6-3.2c2.7-0.4,66.9-10,95.7-2c1.7,0.5,2.6,2,2.1,3.5
					c-0.5,1.5-2.3,2.3-3.9,1.8c-27.3-7.6-92.1,2.1-92.7,2.2C1460.6,907.4,1460.4,907.4,1460.2,907.4z"/>
			</g>
			<g>
				<path class="st18" d="M1467.6,925.8c-1.5,0-2.8-1-3.1-2.3c-0.3-1.5,0.9-3,2.6-3.2c2.7-0.4,66.9-10,95.7-2c1.7,0.5,2.6,2,2.1,3.5
					c-0.5,1.5-2.3,2.3-3.9,1.8c-27.3-7.6-92.1,2.1-92.7,2.2C1467.9,925.8,1467.7,925.8,1467.6,925.8z"/>
			</g>
		</g>
		<path class="st18" d="M1484.4,1071.1h193.5c0,0-4.5-18.7-116.6-15.9C1482,1057.1,1484.4,1071.1,1484.4,1071.1z"/>
		<g>
			<path class="st33" d="M1468.7,1238.9c22.4-99.9,16.7-161.1,16.6-161.9c-0.1-1.5,3.2-2.9,4.9-3c1.8,0,9.5-0.5,10.4,0.9
				c1.2,1.7,5.7,77.2-27.7,164H1468.7z"/>
		</g>
		<g>
			<path class="st33" d="M1632.9,1238.9c-22.4-99.9-16.7-161.1-16.6-161.9c0.1-1.5-3.2-2.9-4.9-3c-1.8,0-9.5-0.5-10.4,0.9
				c-1.2,1.7-5.7,77.2,27.7,164H1632.9z"/>
		</g>
		<g>
			<path class="st34" d="M1685.1,1238.9c-22.4-99.9-16.7-161.1-16.6-161.9c0.1-1.5-3.2-2.9-4.9-3c-1.8,0-9.5-0.5-10.4,0.9
				c-1.2,1.7-5.7,77.2,27.7,164H1685.1z"/>
		</g>
		<g>
			<path class="st34" d="M1525.5,1238.9c22.4-99.9,16.7-161.1,16.6-161.9c-0.1-1.5,3.2-2.9,4.9-3c1.8,0,9.5-0.5,10.4,0.9
				c1.2,1.7,5.7,77.2-27.7,164H1525.5z"/>
		</g>
		<path class="st33" d="M1679,1077.1h-195.4c-1.6,0-3-1.3-3-3l0,0c0-1.6,1.3-3,3-3H1679c1.6,0,3,1.3,3,3l0,0
			C1682,1075.7,1680.6,1077.1,1679,1077.1z"/>
	</g>
	<g>
		<g>
			<g>
				<path class="st18" d="M1386.2,1042.4C1386.2,1042.4,1386.2,1042.4,1386.2,1042.4c2.1,0,3.7-1.5,3.7-3.3
					c-2.1-128.8,47.7-227.8,48.2-228.8c0.8-1.6,0.7-5.3-4.7-5.8c-4.7-0.4-7.6,0.6-8.4,2.3c-0.1,0.3-11.2,23.8-23.6,64.8
					c-11.4,37.8-20,99.6-18.9,167.6C1382.5,1040.9,1384.2,1042.4,1386.2,1042.4z"/>
			</g>
			<g>
				<path class="st18" d="M1275.1,1042.4C1275.1,1042.4,1275.2,1042.4,1275.1,1042.4c2.1,0,3.7-1.5,3.7-3.3
					c-2.1-128.8,47.7-227.8,48.2-228.8c0.8-1.6,0.7-5.3-4.7-5.8c-4.7-0.4-7.6,0.6-8.4,2.3c-0.1,0.3-11.2,23.8-23.6,64.8
					c-11.4,37.8-20,99.6-18.9,167.6C1271.5,1040.9,1273.1,1042.4,1275.1,1042.4z"/>
			</g>
			<g>
				<path class="st18" d="M1419.1,849.8c1.8,0,3.3-1.1,3.6-2.7c0.3-1.8-1-3.5-3-3.8c-3.2-0.5-78.7-11.8-112.5-2.4
					c-1.9,0.5-3,2.4-2.4,4.1c0.6,1.7,2.7,2.7,4.6,2.1c32.1-8.9,108.3,2.4,109.1,2.6C1418.7,849.8,1418.9,849.8,1419.1,849.8z"/>
			</g>
			<g>
				<path class="st18" d="M1410.4,871.5c1.8,0,3.3-1.1,3.6-2.7c0.3-1.8-1-3.5-3-3.8c-3.2-0.5-78.7-11.8-112.5-2.4
					c-1.9,0.5-3,2.4-2.4,4.1c0.6,1.7,2.7,2.7,4.6,2.1c32.1-8.9,108.3,2.4,109.1,2.6C1410,871.5,1410.2,871.5,1410.4,871.5z"/>
			</g>
		</g>
		<path class="st18" d="M1390.6,1042.4H1163c0,0,5.3-22,137.1-18.7C1393.4,1026,1390.6,1042.4,1390.6,1042.4z"/>
		<g>
			<path class="st33" d="M1409.1,1239.8c-26.4-117.5-19.6-189.5-19.6-190.5c0.1-1.8-3.7-3.5-5.8-3.5c-2.1,0-11.2-0.5-12.2,1
				c-1.4,2-6.7,90.8,32.6,193H1409.1z"/>
		</g>
		<g>
			<path class="st33" d="M1215.9,1239.8c26.4-117.5,19.6-189.5,19.6-190.5c-0.1-1.8,3.7-3.5,5.8-3.5c2.1,0,11.2-0.5,12.2,1
				c1.4,2,6.7,90.8-32.6,193H1215.9z"/>
		</g>
		<g>
			<path class="st34" d="M1154.5,1239.8c26.4-117.5,19.6-189.5,19.6-190.5c-0.1-1.8,3.7-3.5,5.8-3.5c2.1,0,11.2-0.5,12.2,1
				c1.4,2,6.7,90.8-32.6,193H1154.5z"/>
		</g>
		<g>
			<path class="st34" d="M1342.3,1239.8c-26.4-117.5-19.6-189.5-19.6-190.5c0.1-1.8-3.7-3.5-5.8-3.5c-2.1,0-11.2-0.5-12.2,1
				c-1.4,2-6.7,90.8,32.6,193H1342.3z"/>
		</g>
		<path class="st33" d="M1161.7,1049.4h229.9c1.9,0,3.5-1.6,3.5-3.5l0,0c0-1.9-1.6-3.5-3.5-3.5h-229.9c-1.9,0-3.5,1.6-3.5,3.5l0,0
			C1158.2,1047.8,1159.8,1049.4,1161.7,1049.4z"/>
	</g>
	<g>
		<path class="st15" d="M776.2,878.5c0,0,13.3-8.3,19.1-7c5.8,1.3,21.6,5.8,22.1,12.3c0.5,6.5-22.6,16.8-39.7,11
			C760.6,889.1,776.2,878.5,776.2,878.5z"/>
		<path class="st35" d="M705.6,1225.8c0,2.9,1.4,4.9,3.9,6.3c0,0,0,0,0,0c4.5,2.5,11.8,0.6,20.4,0.2c1.1,0,2.8,2.1,3.7,2.1
			c0.2,0,0.5,0,0.7,0c0.2,0,0.4,0,0.5,0c8.6,0.2,7.7,2.8,23.9,4.2c18.5,1.6,25.4-4.1,26.5-6.7c0.9-2.2-7-4.7-15.9-7.5
			c-0.4-0.1-0.9-0.3-1.3-0.4c-1.2-0.4-2.4-0.8-3.6-1.2c-10.6-3.5-21-7.7-23.6-18.4c-2.8-11.4,5.5-43.1,5.5-43.1l-29.4-3.2
			c0,0-2.8,33.1-4.7,43.5c-1,5.5-3.5,9.9-5,14.6c-0.1,0.3-0.2,0.7-0.3,1C706.4,1220,705.6,1222.9,705.6,1225.8z"/>
		<g>
			<path class="st36" d="M785.3,1231.9c-0.6,1.4-1.8,5.4-9.6,7.1h-29.5c-0.1,0-0.2-0.1-0.3-0.1c-9.7-4.3-17.5-4.8-23.6-4.9
				c-3.3-0.1-6.1,0-8.4-0.3h0c-1.4-0.2-2.7-0.6-3.8-1.2c0,0,0,0,0,0c-0.2-0.1-0.3-0.2-0.5-0.3c0,0,0,0,0,0c-0.1-0.1-0.3-0.2-0.4-0.3
				h0l0,0c-0.3-0.2-0.5-0.3-0.8-0.5c-0.1-0.1-0.2-0.2-0.4-0.3c-0.1-0.1-0.2-0.2-0.3-0.3c-0.1-0.1-0.2-0.2-0.2-0.2
				c-0.1-0.1-0.3-0.3-0.4-0.5c0,0,0,0,0,0c-0.1-0.1-0.1-0.2-0.2-0.3c-0.1-0.1-0.1-0.2-0.2-0.3c0,0,0,0,0,0c0,0,0,0,0,0
				c-0.1-0.1-0.1-0.2-0.2-0.3c0,0,0,0,0,0c0-0.1-0.1-0.1-0.1-0.2c0-0.1-0.1-0.2-0.1-0.3c-0.1-0.1-0.1-0.3-0.2-0.4
				c0-0.1-0.1-0.2-0.1-0.3c0-0.1-0.1-0.3-0.1-0.5c0-0.1,0-0.2-0.1-0.4c0-0.1,0-0.2,0-0.3c0-0.1,0-0.2,0-0.4c0-0.2,0-0.4,0-0.5v0
				c0-0.2,0-0.3,0-0.5c0-0.2,0-0.3,0-0.5c0-0.2,0-0.3,0-0.5c0-0.2,0-0.3,0-0.5c0-0.2,0-0.5,0.1-0.7c0,0,0-0.1,0-0.1
				c0-0.1,0-0.3,0.1-0.4c0-0.2,0.1-0.4,0.1-0.6c0.1-0.4,0.1-0.7,0.2-1.1c0-0.2,0.1-0.3,0.1-0.5c0.1-0.4,0.2-0.7,0.2-1
				c0-0.2,0.1-0.4,0.1-0.5c0.1-0.3,0.2-0.7,0.3-1c0-0.2,0.1-0.3,0.1-0.5c0.1-0.3,0.2-0.7,0.3-1c8.8,2.1,21.1,8.2,33.5,10.5
				c0.2,0,0.4,0.1,0.6,0.1c6.6,1.2,12.7,0.9,17.6,0.1c5.3-0.8,9-2.1,10.3-2.6C778.2,1227.2,786.2,1229.7,785.3,1231.9z"/>
			<polygon class="st36" points="722.3,1238.9 722.3,1236.8 722.3,1235.1 722.3,1233.9 722.3,1233 721.8,1233 708.6,1230.9 
				709.1,1231.8 709.1,1231.8 709.1,1231.8 709.4,1232.4 710.4,1234.2 710.4,1234.2 712.9,1238.9 			"/>
		</g>
		<path class="st37" d="M553.9,943.3l95.1-9.1c0,0,145.5,0.7,159.1,19.9c0,0,26,18-3.4,92.4c-29.4,74.4-63.9,148.8-63.9,148.8
			s-8.8,2.4-20.8,1.5c-4.8-0.4-11.2-2-11.2-2s6.6-111.1,21.3-154.3c14.7-43.2,19.2-34.8-6.8-32.4c-26,2.4-109.6,21.6-148,16.8
			C536.9,1020.2,553.9,943.3,553.9,943.3z"/>
		<path class="st15" d="M687.3,1225.8c0,2.9,1.4,4.9,3.9,6.3c0,0,0,0,0,0c4.5,2.5,11.8,0.6,20.4,0.2c1.1,0,2.8,2.1,3.7,2.1
			c0.2,0,0.5,0,0.7,0c0.2,0,0.4,0,0.5,0c8.6,0.2,7.7,2.8,23.9,4.2c18.5,1.6,25.4-4.1,26.5-6.7c0.9-2.2-7-4.7-15.9-7.5
			c-0.4-0.1-0.9-0.3-1.3-0.4c-1.2-0.4-2.4-0.8-3.6-1.2c-10.6-3.5-21-7.7-23.6-18.4c-2.8-11.4,5.5-43.1,5.5-43.1l-29.4-3.2
			c0,0-2.8,33.1-4.7,43.5c-1,5.5-3.5,9.9-5,14.6c-0.1,0.3-0.2,0.7-0.3,1C688.1,1220,687.3,1222.9,687.3,1225.8z"/>
		<path class="st14" d="M540.6,950.1l89.2-7.5c0,0,145.5,0.6,159.1,19.2c0,0,22,13.8-7.4,85.9c-29.4,72.1-59.1,151.4-59.1,151.4
			s-6.6,0.9-14.6,0.3c-10-0.8-13.4-4.1-13.4-4.1s2.1-98.6,16.8-140.5c14.7-41.9,20.3-37.6-5.6-35.3c-26,2.3-99,20.5-149.4,10.9
			C518.1,1023.1,540.6,950.1,540.6,950.1z"/>
		<g>
			<path class="st28" d="M767,1231.5c0,0.1,0,0.2-0.1,0.3c-0.5,1.3-1.6,4.9-8,6.7c-0.5,0.1-1,0.3-1.6,0.4h-29.5
				c-1.9-0.9-3.8-1.6-5.5-2.2c-4.4-1.5-8.4-2.2-11.9-2.5h0c-2.3-0.2-4.4-0.3-6.4-0.3c-5.5-0.1-9.7,0.1-12.8-1.8c0,0,0,0,0,0
				c-0.1-0.1-0.3-0.2-0.4-0.3h0l0,0c-0.3-0.2-0.5-0.3-0.8-0.5c-0.1-0.1-0.2-0.2-0.4-0.3c-0.1-0.1-0.2-0.2-0.3-0.3
				c-0.1-0.1-0.2-0.2-0.2-0.2c-0.1-0.1-0.1-0.2-0.2-0.3c-0.1-0.1-0.1-0.2-0.2-0.3c0-0.1-0.1-0.1-0.1-0.2c-0.1-0.1-0.1-0.2-0.2-0.3
				c-0.1-0.1-0.1-0.2-0.2-0.3c-0.1-0.2-0.2-0.3-0.2-0.5c0,0,0,0,0,0c0-0.1-0.1-0.2-0.1-0.3c0-0.1-0.1-0.2-0.1-0.2c0,0,0,0,0,0
				c0,0,0,0,0,0c0,0,0,0,0,0c0-0.1-0.1-0.2-0.1-0.3c0-0.1-0.1-0.2-0.1-0.4c0-0.1-0.1-0.2-0.1-0.4c0-0.1,0-0.2,0-0.2c0,0,0,0,0,0
				c0-0.1,0-0.2,0-0.4c0-0.2,0-0.4,0-0.5c0-2.9,0.7-5.8,1.5-8.5c0.1-0.3,0.2-0.7,0.3-1c4.8,1.1,10.6,3.4,16.9,5.7
				c5.3,1.9,10.9,3.8,16.6,4.8c7.2,1.4,13.8,1,18.9,0.1c4.9-0.8,8.3-2,9.5-2.5c2.9,0.9,5.6,1.8,8,2.6c0.5,0.2,0.9,0.3,1.3,0.5
				c0.4,0.2,0.8,0.3,1.2,0.5c0.4,0.1,0.8,0.3,1.1,0.4c0.2,0.1,0.3,0.1,0.5,0.2c0.2,0.1,0.3,0.1,0.5,0.2c0.3,0.1,0.6,0.3,0.9,0.4
				c0.1,0.1,0.3,0.1,0.4,0.2c0.3,0.1,0.5,0.3,0.7,0.4c0.2,0.1,0.3,0.2,0.5,0.3c0.1,0.1,0.2,0.2,0.3,0.2c0,0,0.1,0.1,0.1,0.1
				c0.2,0.2,0.3,0.4,0.4,0.6c0,0,0,0.1,0,0.1c0,0,0,0,0,0C767,1231.4,767,1231.5,767,1231.5z"/>
			<polygon class="st28" points="704,1233 704,1238.9 694.6,1238.9 690.8,1231.8 690.8,1231.8 690.8,1231.8 690.3,1230.9 
				703.5,1233 			"/>
		</g>
		<path class="st18" d="M782.7,895.7c-0.1,0.8-0.4,1.6-0.7,2.4c-3.8,8.3-82.1,18.8-91.9,13.6c-4.4-2.4-10.7-41.8-16.4-84.8
			c-7-53.1-13.1-111.5-13.1-111.5s32.5,10.3,36.3,27.6c3.8,17.3,4.5,124.3,14.3,129.5c9.8,5.3,51.2,0.8,65.5,3
			C776.7,875.5,784.2,887.4,782.7,895.7z"/>
		<path class="st13" d="M662.7,592.3c-6.1-4.9-14.9-4.3-20.6-3.9c1.5-1.5,4.3-2.1,4.3-2.1c-3.5-0.5-11.4,3-11.4,3
			s-29.8-15.3-43.6,23.9c0,0,2.4-3,5.7-6.3c-8,22.5,0.1,56.6,25.2,62.7C638.7,673.5,725.1,642.4,662.7,592.3z"/>
		<path class="st15" d="M662.9,724c0.2,0.1-15.8,8.3-27.7,5.1c-11.3-3.1-18.6-17.7-18.5-17.7c4.8-0.9,6.1-7.5,6-35.7l2.2,0.4
			l36.3,7.2c0,0-0.8,11.4-0.9,22.2C660.3,714.5,660.9,723.1,662.9,724z"/>
		<path class="st19" d="M661.2,683.3c0,0-0.8,11.4-0.9,22.2c-20.3-0.6-31-19.1-35.4-29.4L661.2,683.3z"/>
		<path class="st13" d="M621.2,672.2c0,0-10.6-16.8-13.2-31.2c-1.8-10.3,3.4-48.3,41.6-42.8c0,0,11.1,1.1,21.5,8.1
			c8.3,5.6,20.3,17.7,6.9,50.9l-3.5,11.2L621.2,672.2z"/>
		<path class="st15" d="M668,693.5c0,0-48,0.8-48.1-29.1c0-29.9-6.3-50,24.4-51.7c30.7-1.8,36.6,9.6,39.1,19.6
			C685.8,642.2,680.5,692.5,668,693.5z"/>
		<path class="st13" d="M666.2,611.9c0,0-13.2,35.1-33.3,40.3c-20.2,5.2-28.9-0.2-28.9-0.2s15.5-12.3,18.7-33.8
			C622.6,618.2,656.3,595.2,666.2,611.9z"/>
		<path class="st33" d="M679.7,759.7c-0.8-3.4,6.4-6,8.1-2.9c3.3,5.7,4,12.9,5.3,18.6c3.8,16.3,0,38.7,0,38.7L679.7,759.7z"/>
		<path class="st13" d="M662.9,614.7c0,0,9.8,7.8,12.2,15.5c2.4,7.6,3.5,23.3,8,22.8c0,0,9.9-23.9-1.2-37.4
			C670.2,601.3,662.9,614.7,662.9,614.7z"/>
		<path class="st0" d="M657.3,675.3c0,0,0.9,3.8,10.4,3.2c0,0,7.9-0.5,7.7-4.7C675.3,673.9,667.6,670.9,657.3,675.3z"/>
		<path class="st33" d="M782.7,895.7c-0.1,0.8-0.4,1.6-0.7,2.4c-3.8,8.3-82.1,18.8-91.9,13.6c-4.4-2.4-12.1-51.5-6.5-95.4
			c5.9,25.1,7.7,76.6,21.6,79.1C720.9,898.1,762.1,892.8,782.7,895.7z"/>
		<path class="st18" d="M696,816c-19.5,93.8-3.2,108.3-13.3,117.5c-0.1,0-9,3.9-9,4c-10.5,9.1-10.8-1.9-43.9,12.4
			c-15.8,6.8-36,15.9-53.7,21.3c-6.7,2-12.9,3.5-18.5,4.2c-10.6,1.2-18.6-0.6-21.2-7.8c-7.5-20.9,28.6-76.4,19.6-114.3
			c-0.1-0.3-0.2-0.7-0.2-1c-0.7-3.3-0.8-7.1-0.4-11.3c1.7-21.1,15-51.8,28.9-78.1c15.3-28.9,31.1-52.4,32.5-51.5
			c40.3,23.9,43.9,4,43.9,4S702.7,784,696,816z"/>
		<path class="st33" d="M676.9,936.1C676.9,936.2,677,936.1,676.9,936.1c-10.5,9.1-14-0.6-47.1,13.7c-15.8,6.8-36,15.9-53.7,21.3
			c-9,1.6-15.8,3-18.5,4.2c-10.6,1.2-18.6-0.6-21.2-7.8c-7.5-20.9,28.6-76.4,19.6-114.3c-0.1-0.3-0.2-0.7-0.2-1
			c-0.8-3.7-0.9-7.5-0.4-11.3c1.9-16.1,13.7-33.5,27.1-58.8c8.9,9.5,76.1-1.5,60.2,91.9C637.8,902.6,672.7,913.9,676.9,936.1z"/>
		<g>
			<path class="st38" d="M790.7,894L790.7,894c2.9,3.3,7.1,5.4,11.8,5.4c8.7,0,15.8-7.1,15.8-15.8v-6.1c0-0.7,0-1.3-0.1-2h-31.3
				c-0.1,0.6,0.3,9.1,0.7,11.7C788.3,891.4,790.7,894,790.7,894z"/>
			<path class="st39" d="M815.7,875.5h-4.2c0.1,0.6,0.1,1.3,0.1,2v6.1c0,8-6,14.6-13.7,15.6c0.7,0.1,1.4,0.2,2.1,0.2
				c8.7,0,15.8-7.1,15.8-15.8v-6.1C815.8,876.8,815.7,876.1,815.7,875.5z"/>
			
				<rect x="796.1" y="898" transform="matrix(-1 -1.224647e-16 1.224647e-16 -1 1605.1591 1797.9961)" class="st38" width="12.9" height="1.9"/>
		</g>
		<path class="st15" d="M673.6,940.9c0,0,14.8-3.5,21.6-0.8c6.8,2.8,20.3,9.8,19.1,13.6c-1.3,3.8-17.3,5.8-24.1,2
			c-6.8-3.8-11.8,1-20.1-1.8C661.8,951.2,673.6,940.9,673.6,940.9z"/>
		<path class="st18" d="M616.7,711.4c0,0-54.6,0.7-64.4,27.1c-9.8,26.4-6.8,119,7.5,146.8s95.6,65.5,104.7,67
			c9,1.5,14.7-12.4,14.3-13.9c-0.4-1.5-85.5-70.4-85.1-77.6C594.1,853.7,616.7,711.4,616.7,711.4z"/>
	</g>
	<g>
		<path class="st40" d="M1029.1,820.8c0,0-14-16.9-17-18.9c-3-2-16.2-5.5-16.9-4.8c-0.8,0.7-0.8,1.7,0.8,3.2c1.6,1.4,7.9,5.1,7,5.5
			c-0.9,0.4-19.7-9-22.4-5.8c-2.7,3.1,1.5,16.1,8.8,22.4c7.2,6.2,28.9,8.9,30.2,9.8C1031.2,839.4,1029.1,820.8,1029.1,820.8z"/>
		<path class="st15" d="M1159.9,1226.3c0,2.8-1.4,4.8-3.9,6.1c0,0,0,0,0,0c-4.5,2.4-12.5,2.7-21.1,2.3c-1.1,0-2.1-0.1-3-0.1
			c-0.2,0-0.5,0-0.7,0c-0.2,0-0.4,0-0.5,0c-8.6,0.2-7.7,2.7-23.9,4c-18.5,1.5-25.4-4-26.5-6.5c-0.9-2.1,7-4.5,15.9-7.3
			c0.4-0.1,0.9-0.3,1.3-0.4c1.2-0.4,2.4-0.7,3.6-1.1c10.6-3.4,21-7.4,23.6-17.8c2.8-11-5.5-41.7-5.5-41.7l29.4-3.1
			c0,0,2.8,32.1,4.7,42.1c1,5.3,3.5,9.6,5,14.2c0.1,0.3,0.2,0.6,0.3,1C1159.2,1220.7,1159.9,1223.5,1159.9,1226.3z"/>
		<path class="st14" d="M1159.9,1226.3c0,2.8-1.4,4.8-3.9,6.1c0,0,0,0,0,0c-4.8,2.2-12.6,2.5-21.1,2.2c-1.1,0-2.1,0-3,0
			c-0.2,0-0.5,0-0.7,0c-0.2,0-0.4,0-0.5,0c-8.6,0.2-7.7,2.7-23.9,4c-18.5,1.5-25.4-4-26.5-6.5c-0.9-2.1,7-4.5,15.9-7.3
			c2.5,0.9,14.4,4.9,28.4,2.3c12.4-2.3,24.6-8.2,33.5-10.2c0.1,0.3,0.2,0.6,0.3,1C1159.2,1220.7,1159.9,1223.5,1159.9,1226.3z"/>
		<path class="st15" d="M969.4,1190.9c-1.6,8.2-13.3,6.8-26.2,3.6c-13-3.2-9.9,0.6-28.4-1.4c-18.5-2-24.1-8.9-24.7-11.7
			c-0.5-2.4,8.6-3.3,18.4-4.4c1.2-0.1,2.5-0.3,3.7-0.4c11.1-1.4,19.2-8.5,29.2-14.4c9.5-5.6,23.7-28.2,23.7-28.2l25.4,2
			c0,0-13.3,20.2-18.5,29c-3,5.2-2.9,12-2.5,17.3C969.8,1185.1,969.9,1188.1,969.4,1190.9z"/>
		<path class="st14" d="M943.1,1194.6c-13-3.2-9.9,0.6-28.4-1.4c-18.5-2-24.1-8.9-24.7-11.7c-0.5-2.4,8.6-3.3,18.4-4.4l0.1,0.2
			c0,0,11.1,7.9,26.5,8.2c12.5,0.3,25.8-3.3,34.5-3.1c0.2,2.9,0.4,5.8-0.2,8.7C967.7,1199.1,956.1,1197.7,943.1,1194.6z"/>
		<path class="st28" d="M1066.5,1028.8l54.6,147.1c0,0,8.4,0.8,16.4-1.5c7.4-2.1,15.9-7.7,15.9-7.7s-13.6-141.2-38.4-170.6
			C1090.2,966.7,1066.5,1028.8,1066.5,1028.8z"/>
		<path class="st41" d="M1282.6,969.3c0,0-157-53.1-192-41.8c-35,11.3-140.2,220.5-140.2,220.5s2.4,3.2,8.8,5.6
			c6,2.3,20.6,2.1,20.6,2.1s94.9-81.3,106.2-105c11.3-23.7,15.8-46.3,27.1-44.1s145.7,55.3,176.2,23.7
			c30.5-31.6,22.5-72.7,22.5-72.7L1282.6,969.3z"/>
		<path class="st37" d="M1186.7,722.4c-2.5-5.2-5.3-14.4-6.7-30.8c0.2,1.6,3,22.3,11,34c32.7,21.4,95.2,93,94,106.6
			c0,0,22-37.4,22.4-37.6c0,0,40.7-51.7-7.5-81.3c-24.5-15.1-24.4-34.4-23.3-51.2c1-16.8-6.7-89-55.8-70.1c0,0-7.9-3.5-11.4-3
			c0,0,2.9,0.6,4.3,2.1c-5.7-0.3-13.8,0.1-20.6,3.9C1175.1,605.2,1159,696.9,1186.7,722.4z"/>
		<path class="st15" d="M1192.9,726.7c-0.2,0.1,15.8,8.3,27.7,5.1c11.3-3.1,18.6-17.7,18.5-17.7c-4.8-0.9-6.1-7.5-6-35.7l-2.2,0.4
			l-36.3,7.2c0,0,0.8,11.4,0.9,22.2C1195.5,717.1,1195,725.7,1192.9,726.7z"/>
		<path class="st19" d="M1194.7,685.9c0,0,0.8,11.4,0.9,22.2c20.3-0.6,31-19.1,35.4-29.4L1194.7,685.9z"/>
		<path class="st37" d="M1234.7,674.8c0,0,10.6-16.8,13.2-31.2c1.8-10.3-3.4-48.3-41.6-42.8c0,0-11.1,1.1-21.5,8.1
			c-8.3,5.6-20.3,17.7-6.9,50.9l3.5,11.2L1234.7,674.8z"/>
		<path class="st15" d="M1187.9,696.1c0,0,48,0.8,48.1-29.1s6.3-50-24.4-51.7c-30.7-1.8-36.6,9.6-39.1,19.6
			C1170,644.9,1175.4,695.1,1187.9,696.1z"/>
		<path class="st37" d="M1189.7,614.5c0,0,13.2,35.1,33.3,40.3c20.2,5.2,28.9-0.2,28.9-0.2s-15.5-12.3-18.7-33.8
			C1233.2,620.8,1199.6,597.8,1189.7,614.5z"/>
		<path class="st37" d="M1192.9,617.4c0,0-9.8,7.8-12.2,15.5c-2.4,7.6-3.5,23.3-8,22.8c0,0-9.9-23.9,1.2-37.4
			C1185.7,603.9,1192.9,617.4,1192.9,617.4z"/>
		<path class="st42" d="M1299.9,855.9c4.7-19.9-11.4-58.4-28.2-90.3c-15.3-28.9-31.1-52.4-32.5-51.5c-40.3,23.9-43.9,4-43.9,4
			s-36.6,4.9-46.9,22.7c-14.3,24.6-29.9,98.6-45.2,97.5c-7-0.5-77.8-27.1-77.8-27.1s-11.8,11-9.5,24.6c0,0,35,23.4,64.5,38.3
			c15.6,7.9,29.8,13.4,36.4,11.9c13.5-3.2,34.5-34.4,45.9-52.8c0,0,0-0.1,0.1-0.1c14.5,82.1-5.2,100.8,4.8,109.5
			c10.5,9.1,25.6-4.4,58.7,10c21.7,9.4,51.9,23.1,72.2,25.4c10.6,1.2,18.6-0.6,21.2-7.8C1327,949.3,1290.9,893.8,1299.9,855.9z"/>
		<path class="st0" d="M1198.6,678c0,0-0.9,3.8-10.4,3.2c0,0-7.9-0.5-7.7-4.7C1180.5,676.5,1188.2,673.6,1198.6,678z"/>
		<path class="st43" d="M1319.5,970.2c-2.6,7.2-10.5,9-21.2,7.8c-14.1-6.1-74.8-29.6-74.1-45.6c1-23.6,11.7-24.3,4.1-53.5
			c-6-23.4,50-66.9,59-76.3c16.8,31.9,17.3,33.4,12.6,53.3C1290.9,893.8,1327,949.3,1319.5,970.2z"/>
		<path class="st43" d="M1162.5,833.2c-11.4,18.4-32.4,49.6-45.9,52.8c-6.6,1.6-20.8-4-36.4-11.9c11.4,2.9,22.5,2.9,33.3,1.8
			c11.7-1.1,15.1-15.4,33.5-36.9C1159,825.1,1161.9,828.6,1162.5,833.2z"/>
		<g>
			<path class="st38" d="M1201.6,876.6c-1.5-0.9-4.4-0.6-6.5-0.1v-3c0-0.7,0-1.3-0.1-2h-31.3c-0.1,0.6-0.1,1.3-0.1,2v6.1
				c0,8.7,7.1,15.8,15.8,15.8c4.7,0,8.9-2.1,11.8-5.4l0,0c0,0,7.5-1.8,9.8-4.6C1203.3,882.6,1204.1,878.1,1201.6,876.6z
				 M1199.9,882.3c-0.8,2-4.3,3.1-6.1,3.6c0.7-1.6,1.1-3.4,1.3-5.2c1.1-1.5,2.8-2.3,4-2.1C1200.3,878.7,1200.9,879.7,1199.9,882.3z"
				/>
			<path class="st39" d="M1166.1,873.5v6.1c0,8.7,7.1,15.8,15.8,15.8c0.7,0,1.4-0.1,2.1-0.2c-7.7-1-13.7-7.7-13.7-15.6v-6.1
				c0-0.7,0-1.3,0.1-2h-4.2C1166.2,872.1,1166.1,872.8,1166.1,873.5z"/>
			<rect x="1172.9" y="894" class="st38" width="12.9" height="1.9"/>
		</g>
		<path class="st15" d="M1218.8,878.4c0,0-10.2-7.9-19.8-6c-9.6,1.9-14.3,8.5-13.9,11.5c0.4,3,5.5,11.5,12.8,12.2
			c7.3,0.8,28.2-4.5,28.2-4.5L1218.8,878.4z"/>
		<path class="st42" d="M1239.2,714c0,0,39.1,2.4,52.7,21.3c19.1,26.6,52.2,135.2,43.2,160.1c0,0-37.2,3.9-63.7,3.9
			c-13.9,0-55.4-4.4-55.4-4.4s-2.9-13.5,1.1-20c4-6.5,69.3-17.1,72.3-20.1c3-3-37.7-58.7-37.7-67.8
			C1251.7,778,1239.2,714,1239.2,714z"/>
	</g>
	<path class="st44" d="M1221,905.4H688.4c-5.7,0-10.3,4.6-10.3,10.3v13.5c0,5.7,4.6,10.3,10.3,10.3h257.3v260.9
		c-45.3,1.8-83.8,17.3-99.6,38.5h216.3c-15.6-21.2-53.6-36.6-98.9-38.5V939.5H1221c5.7,0,10.3-4.6,10.3-10.3v-13.5
		C1231.3,910.1,1226.6,905.4,1221,905.4z"/>
	<path class="st44" d="M2002.1,947.4h-355.9c-4.4,0-7.9,3.6-7.9,7.9v14c0,4.4,3.6,7.9,7.9,7.9h170.1v228.1
		c-39.5,1.6-72.7,15-86.4,33.5l188.5,0.2c-13.6-18.5-46.8-32-86.4-33.6V977.2h170.1c4.4,0,7.9-3.6,7.9-7.9v-14
		C2010,950.9,2006.4,947.4,2002.1,947.4z"/>
	<g>
		<path class="st45" d="M453.9,848.3c-13.6,3.4-101.2,2.3-98.9,13.6c2.3,11.4,61.4,29.6,94.4,19.3c0,0-36.4,89.8-84.1,85.3
			c-47.7-4.5-62.5-34.1-92.1-36.4c-29.5-2.3-51.1,5.7-36.4,13.6c14.8,8,64.8,2.6,88.7,22.9c23.9,20.3,43.2,32.8-1.1,41.9
			c-27,5.5-67.1,5.6-97.9-2.9c-6.5-34.4-9.7-70.4-7.3-106.3c0.4-5.6,0.9-11.2,1.5-16.8c5.7-49.3,22.6-98.1,56.5-142.1
			c19-6.1,37.4-10.4,49.5-9.2c0,0-55.7,94.4-37.5,92.1c18.2-2.3,80.7-97.8,80.7-97.8s92.1-17,106.9,37.5
			C491.5,817.6,467.6,844.9,453.9,848.3z"/>
		<g>
			<path class="st46" d="M434.3,780.2c-117,47.3-180.8,87.6-215.2,119.1c0.4-5.6,0.9-11.2,1.5-16.8
				C297.1,825.5,427.6,782.4,434.3,780.2z"/>
		</g>
	</g>
	<g>
		<path class="st46" d="M243.7,1073.6c-3.9-12.4-7.6-25.3-10.9-38.5c0.5-0.6,0.8-0.9,0.8-0.9s39.3,14.2,48.6,25.7
			C282.3,1059.9,248.4,1068.3,243.7,1073.6z"/>
		<path class="st46" d="M316.8,1114.1c-12,20.4-27.1,21.3-32.1,18.2c-4-2.5-21.1-20-29.2-24.8c-2.5-6.7-5-13.5-7.4-20.5
			c-0.4-1.1-0.7-2.1-1.1-3.2c-0.8-2.5-1.7-5.1-2.5-7.6c8.5,3.7,52.1-5,52.1-5S328.8,1093.7,316.8,1114.1z"/>
		<g>
			<path class="st46" d="M299.2,1106.4c-19.8-8.6-36.7-14.9-51.1-19.4c-0.4-1.1-0.7-2.1-1.1-3.2
				C273.9,1093.4,297,1105.3,299.2,1106.4z"/>
		</g>
	</g>
	<g>
		<path class="st47" d="M1757.9,1194.3c0,0,21.2,21.2,26.4,26.3c5.2,5.2,25,2.9,30.4,18.2H1761c0,0-13.3-9.7-34-9.2
			c0,0-3.9-14.6,0-20.3s5.4-15,5.4-15H1757.9z"/>
		<path class="st47" d="M1727,1229.6l2.7,9.2h19v-7.8C1748.7,1231,1738.1,1227.7,1727,1229.6z"/>
		<path class="st48" d="M1725.3,1037.9c0,0-1,100.3,7.1,156.3h25.5l18-105.7L1725.3,1037.9z"/>
		<path class="st28" d="M1833.3,1194.3h-25.5c0,0,0,0,0,0c-1.2-1.3-79.3-82.2-91.5-133.1c0,0-7.3-0.7-16.1-0.3
			c-2.6,0.1-5.2,0.3-7.9,0.6c-11.8,1.5-166.7,7.1-174.8-1c-8.1-8.1-4.9-54.9-4.9-54.9l15.2-8.1l16.1-8.5c0,0,178.6,2.8,197.3,16.8
			C1759.8,1019.9,1803.4,1113.4,1833.3,1194.3z"/>
		<path class="st49" d="M1833.3,1194.3c0,0,21.2,21.2,26.4,26.4c5.3,5.2,25,2.9,30.4,18.3h-53.7c0,0-13.3-9.7-34-9.3
			c0,0-3.9-14.7,0-20.3c3.9-5.7,5.4-15.1,5.4-15.1H1833.3z"/>
		<path class="st49" d="M1802.5,1229.6l2.7,9.2h19v-7.8C1824.1,1231,1813.5,1227.7,1802.5,1229.6z"/>
		<path class="st50" d="M1700.2,1060.9c-2.6,0.1-5.2,0.3-7.9,0.6c-11.8,1.5-166.7,7.1-174.8-1c-8.1-8.1-4.9-54.9-4.9-54.9l15.2-8.1
			l25.6,10.9C1553.4,1008.4,1549.6,1056.7,1700.2,1060.9z"/>
		<path class="st51" d="M1702.2,929.1c-3.3-10-12.5-10.4-12.5-10.4s-8.8-0.6-15.2,1.2c-6.4,1.9-16.9-1.8-16.9-1.8
			s-38.7-13.5-47.8-19.1c-19.4-12.1-54.5-90.4-66.5-80.9c0,0-15.5,14.6-7,39.7c8.5,25.1,42,59.6,62.4,65.2c15,4.1,54.3,6.3,59.6,6.6
			c6.5,0.8,15.3,4.6,17.7,4.8c2.6,0.2,8.4-3.7,12.4-3.1C1703,933.3,1702.2,929.1,1702.2,929.1z"/>
		<path class="st52" d="M1550.2,819.1c-16,0.2-33.8-1.4-49-3.5c2.8-4.7,6.1-18.2,7.1-36.8v-0.1l5.7,0.3l26.7,1.4c0,0,0,0.4-0.1,1.1
			c-0.3,3.6-1,15.4-0.9,22.1c0.1,2.6,1.4,8.1,1.8,8.3C1544.4,814.5,1547.3,816.8,1550.2,819.1z"/>
		<path class="st3" d="M1502.7,706.1c-0.4-1.5-5.3-18-30.9-13.2c0,0,12.8-1.3,16.2,3.7c0,0-10-4.9-16.5-1.2
			c-6.5,3.7-7.8,16.8-7,20.8c0.8,4,7.6,16,12.2,16.2c1.8,0,3.7-0.5,5.3-1.2c-0.8,2.1-1.5,4.4-2.1,6.9c-5.5,23.1,9.5,41.1,17.5,37
			c5.2-2.7,8.8,6.4,8.8,6.4l43.9-55.2C1550.3,726.2,1521.6,689.9,1502.7,706.1z"/>
		<path class="st51" d="M1539.7,803.6c-16.2-1.9-26.6-16.2-31.4-24.8c-0.1-0.1-0.1-0.2-0.2-0.3l5.8,0.5l26.7,2.5
			C1540.4,785.2,1539.6,797,1539.7,803.6z"/>
		<path class="st52" d="M1542,791.2c0,0-37.9-0.4-37.3-24c0.6-23.6-3.9-39.6,20.3-40.3c24.2-0.8,28.7,8.4,30.4,16.3
			C1557.1,751.1,1551.9,790.7,1542,791.2z"/>
		<path class="st3" d="M1554.6,730c-5.7-7.3-10.1-5.8-12.7-3.7c-20.4-11.9-34.2,4.6-34.2,4.6c-3,16.9-15.4,26.3-15.4,26.3
			s6.8,4.4,22.8,0.8c4.9-1.1,9.3-4.5,13.1-8.6c-6.7,10.6-15.7,18.2-15.7,18.2c19.3-8.3,27.6-34.6,28.4-37.4c2.3,2.1,6.7,6.8,8,11.2
			c1.7,6.1,2.3,18.5,5.9,18.1C1554.8,759.5,1563.1,740.9,1554.6,730z"/>
		<path class="st47" d="M1579.3,862.9c0,0,24.4,31.5,29.9,32c5.5,0.5,3,21.5,0,26.9c-3,5.4-21.9,17-34.1,4.5
			C1563.1,913.8,1579.3,862.9,1579.3,862.9z"/>
		<path class="st49" d="M1609.3,993.6c-18.1,2.6-49.7,4.8-55.9,14.8c-6.2,10-45.5,3-48.8-3.3c-3.2-6.3,6.7-57.3,1.6-66
			c-3.9-6.5-17.3-42.3-24.3-62.8c-2.3-6.8-3.9-12-4.2-13.8c-1.2-7.5-5.9-34.6,12.8-42.6c0,0,9-3.9,9.8-7.1c0.2-0.8,0.2-1.9,0.2-3.3
			v0c0-4.3-0.1-10.2,4.1-8.5c5.5,2.2,11.3,7.6,20.7,7.1c9.4-0.5,17.5-4.7,18.8-2c1.2,2.7-2.2,6.3,0,8.1c2.2,1.8,29.7,18.4,38.2,42.8
			c0,0,6.9,17.6,6.9,32.3c0,1.1,0,2.3,0,3.5c-0.2,8.8-1,18.1-0.1,26.2c0,0.4,0.1,0.9,0.2,1.3c1.4,10.2,2.9,19.9,4.4,27.4
			c1.5,7.4,3.1,12.6,4.6,14.2C1605.6,969.2,1627.4,991,1609.3,993.6z"/>
		<path class="st52" d="M1706.2,929.7c-0.5-1.5-1.8-3.7-3-5.9c-1.2-2.2-10.6-11.8-14.3-12.8c-3.7-1-21.8,4.1-21.8,4.1
			s-71.2,0.9-82.5-6c-14.8-9.1-50.7-46.7-75.6-65.9c-11.9-9.1-21.3-14.1-24.8-9.8c0,0-9.5,9.1,2.5,31.7c0.7,1.3,1.4,2.6,2.2,3.9
			c15.3,25.4,74,74.4,97.6,76c23.6,1.6,83.4-18.4,83.4-18.4s6.2-1.7,9.4,0.8c3.2,2.5,15.6,2,17.3,3.7
			C1699.9,934.1,1707,932.2,1706.2,929.7z"/>
		<path class="st47" d="M1553.4,1008.4c-6.2,10-45.5,3-48.8-3.3c-3.2-6.3,6.7-57.3,1.6-66c-3.9-6.5-17.3-42.3-24.3-62.8
			c1.1-2.3,2.8-3.4,5.1-2.8c15.9,4.4,91.3,62.3,106.6,74.2c1.5,7.4,3.1,12.6,4.6,14.2C1598.2,961.8,1551.1,980.7,1553.4,1008.4z"/>
		<path class="st47" d="M1589,918.9c-23.1-9.8-80.5-65.5-81.4-66.3c0.7,0.2,19.2-8,64,32.8c5.2,4.7,12.5,14.3,14.2,18.4
			C1587.9,908.9,1588.6,915.1,1589,918.9z"/>
		<path class="st49" d="M1489.2,831.8c0,0,11.3,1.6,22.4,10.3c11.1,8.6,66.4,62.7,75.7,65c9.3,2.3,29.2,1.2,29,7
			c-0.2,5.8-4.7,34.4-10.6,39.6c-5.9,5.2-37.2,7.6-50.7-1c-13.5-8.6-80.8-89.6-76.6-107.1C1482.6,828,1489.2,831.8,1489.2,831.8z"/>
		<path class="st47" d="M1515.3,819.8c-5.9-1.5-24.7,0-24.7,0s9-3.9,9.8-7.1c0.2-0.8,0.2-1.9,0.2-3.3c1,3.9,3.8,5.7,11.6,6.1
			C1519.9,815.9,1521.2,821.3,1515.3,819.8z"/>
		<path class="st50" d="M1807.8,1194.3C1807.8,1194.3,1807.8,1194.3,1807.8,1194.3c-1.2-1.3-79.4-82.3-91.6-133.1
			c0,0,19.2-5.3,30.8,9.9C1758.6,1086.3,1807.8,1194.3,1807.8,1194.3z"/>
	</g>
	<g>
		<g>
			<path class="st15" d="M2664.9,805.8c0.4-1.3,0.7-2.7,0.7-4.3c0.6-18.3,4.7-30.5-14-32.2c-18.8-1.6-22.6,5.3-24.3,11.3
				c-1.7,6.1,0.7,37,8.4,37.8c0,0,2.5,0.1,6-0.2c0.2,2,0.4,5.5,0.8,9.3c0.6,7.3,1.3,15.9,1.5,17.9l20.8-1l11-13.7
				C2675.7,830.9,2668,821.7,2664.9,805.8z"/>
			<path class="st13" d="M2705.3,1042.2c-4.1,6.9-8.8,13.4-13.7,19.5c-15,19-31.4,34.6-34.2,49.4c-0.6,2.9-1.5,6.1-2.6,9.5
				c-1.2,3.4-2.7,6.9-4.4,10.6c-6.4,13.8-15.9,29.4-25.4,43.5c-16.5,24.4-31.9,44.7-31.9,44.7l-28.4-1.2
				c1.1-2.8,13.5-36.5,30.1-77.7c6.7-16.7,13.9-34.5,20.8-51.6c0.9-2.3,1.8-4.6,2.7-6.8c2.1-5.2,4.2-10.4,6.2-15.4
				c15.5-38.6,27.9-69.4,27.9-69.4s62.1-23.5,68.6-8.3C2726.3,1001.6,2722,1013.9,2705.3,1042.2z"/>
			<path class="st13" d="M2592.2,1215.1c0,0-1.5,23.4-6,23.8c-0.6,0-23,0-23,0l-28.6-0.2c0,0,0.2-6.9,8.5-8.3
				c8.4-1.5,22.3-7.3,27.4-18.4C2575.9,1200.5,2592.2,1215.1,2592.2,1215.1z"/>
			<path class="st13" d="M2657.9,1147.4c0,0,19.7,12.7,17.8,16.8c-0.3,0.5-11.2,20.1-11.2,20.1l-14.1,24.9c0,0-5.9-3.5-3.1-11.5
				c2.8-8,4.5-23.1-2.7-32.9C2637.1,1154.5,2657.9,1147.4,2657.9,1147.4z"/>
			<path class="st33" d="M2639.3,825.8c0.5-0.2,28.1-6.8,31-5.6s4.4,6.9,4.4,6.9l-45,7.7C2629.6,834.9,2633.5,827.9,2639.3,825.8z"
				/>
			<path class="st13" d="M2630.1,779.1c0,0,7.3,20.3,11.3,18.3c4.1-2,7.8-3.7,8.8,2.7c1,6.4-3,15.2,10.5,12.9
				c13.5-2.4,23.6-41.5,18.3-47C2663.6,750,2609,760.3,2630.1,779.1z"/>
			<path class="st18" d="M2722.5,989.5c-7.4,8.8-70.6,6.5-89.1-0.9c-1.4-0.6-2.5-1.1-3.3-1.8c-10.9-8.7,13.7-16.4-13.8-82.7
				c0,0,0-0.1,0-0.1c-17.3-49.1,5.5-63.4,13.4-70.6c0,0,38.6-11.7,59.6-5.2C2716.7,836.7,2730.5,980.1,2722.5,989.5z"/>
			<path class="st33" d="M2656,957c-1.2,9-8.5,31.3-22.7,31.7c-1.4-0.6-2.5-1.1-3.3-1.8c-10.9-8.7,13.7-16.4-13.8-82.7
				c0,0,0-0.1,0-0.1c4.6-3.2,12-6.7,16.9-1.3C2640.6,911.2,2657.3,947.6,2656,957z"/>
			<path class="st23" d="M2630.1,986.9c0,0-76.9,47.9-85.6,80.5c-8.7,32.7,103.8,102.3,103.8,102.3s12.3-10.9,14.5-18.9
				c0,0-50.8-60.9-61.9-74.6c-6.8-8.4,100.1-29,113.2-49.3c13.1-20.3,8.4-37.4,8.4-37.4L2630.1,986.9z"/>
			<path class="st15" d="M2527.6,946.7c0,0-11.8-5.1-15.7-2.7c-3.9,2.4-10.5,11.2-11.3,13.3c-0.8,2.1-1.1,5.2,2.6,4.5
				c3.7-0.7,3.9-0.6,3.9-0.6s6.3-5,7.8-5c1.5-0.1,7.9,2.9,10.9-0.6C2528.9,952,2527.6,946.7,2527.6,946.7z"/>
			<path class="st18" d="M2629.6,834.9c0,0-11.5,6.1-19.6,26.1c-8.4,20.7-19.6,67-22.7,69c-3.1,2-49.4,9.3-63.2,14.7
				c0,0-5.4,9.7-0.3,13.7c5.1,4,67.2,1.8,70.9,0.8c31.3-8.1,47.8-69.9,51.5-79.4C2649.9,870.3,2629.6,834.9,2629.6,834.9z"/>
		</g>
		<g>
			<path class="st13" d="M2708.2,1215.8V1183h33.4c1.3,0,2.4-1.1,2.4-2.4v-8.9c0-1.3-1.1-2.4-2.4-2.4h-33.4V1064
				c0-3.5-2.8-6.3-6.3-6.3h-6.8c-3.5,0-6.3,2.8-6.3,6.3v105.4h-33.4c-1.3,0-2.4,1.1-2.4,2.4v8.9c0,1.3,1.1,2.4,2.4,2.4h33.4v32.7
				c-24.7,1.9-45.8,11.7-51.3,23.2h120.7C2752.7,1227.5,2732.9,1217.6,2708.2,1215.8z"/>
			<path class="st18" d="M2778.4,1048.5h-159.6c-3.2,0-5.8,2.6-5.8,5.8v31.9c0,3.2,2.6,5.8,5.8,5.8h159.6c3.2,0,5.8-2.6,5.8-5.8
				v-31.9C2784.2,1051.2,2781.6,1048.5,2778.4,1048.5z"/>
		</g>
	</g>
	<g>
		<polygon class="st38" points="935.5,866.8 935.1,876.3 934.2,896.3 933.8,905.5 908.4,905.5 907.9,896.3 906.6,876.3 906,866.8 		
			"/>
		<polygon class="st53" points="936,860.3 905.9,860.3 904.7,866.8 936.8,866.8 		"/>
		<polygon class="st39" points="935.1,876.3 934.2,896.3 907.9,896.3 906.6,876.3 		"/>
	</g>
	<g>
		<path class="st39" d="M981.7,869.5l-0.2,3.9l-0.1,2.9l-0.8,18.4l-0.1,1.6l-0.4,9.2h-25.3l-0.6-9.2l-0.1-1.6l-1.1-18.4l-0.2-2.9
			l-0.3-5.2l0.1-0.2c0,0,5.9-1.1,9.5,1.2c3.5,2.3,7.4-2.2,10.6-0.9c3.2,1.3,3.4,2.9,6,1.8C979.4,869.9,980.5,869.6,981.7,869.5z"/>
		<polygon class="st54" points="981.8,866.8 981.7,869.5 981.5,873.4 981.4,876.3 980.6,894.7 980.5,896.3 980.1,905.5 954.8,905.5 
			954.2,896.3 954.1,894.7 953,876.3 952.8,873.4 952.5,868.2 952.4,866.8 		"/>
		<path class="st54" d="M982,866.7c0-0.2,0-0.3,0-0.5c0-8.1-6.6-14.8-14.8-14.8c-8.1,0-14.8,6.6-14.8,14.8c0,0.2,0,0.3,0,0.5H982z"
			/>
		<g>
			<path class="st38" d="M964.7,903.1l-1.3-0.2c0.1-0.8,4.2-55.4,4.8-59c0.7-4,4.6-5.2,4.8-5.2l0.1,0l20.6-3.7l0.2,1.3l-20.6,3.6
				c-0.3,0.1-3.3,1.1-3.8,4.2C968.9,847.8,964.7,902.9,964.7,903.1z"/>
		</g>
		<polygon class="st38" points="981.5,873.4 981.4,876.3 980.6,894.7 954.1,894.7 953,876.3 952.8,873.4 		"/>
	</g>
	<g>
		<path class="st53" d="M862.2,892.4c0.1-0.2,0-4.5,7.2-6.1c7.2-1.6,5.1-5.2,5.1-5.2s10.5,5.1,8.4,11.3
			C880.9,898.5,862.2,892.4,862.2,892.4z"/>
		<polygon class="st39" points="883.1,905.5 861.9,905.5 858.2,890.1 886.3,890.1 		"/>
	</g>
	<g>
		<polygon class="st28" points="1882.9,902.2 1852.8,902.2 1851.6,908.7 1852.9,908.7 1853.5,918.2 1854.8,938.2 1855.3,947.4 
			1880.7,947.4 1881.1,938.2 1881.9,918.2 1882.4,908.7 1883.7,908.7 		"/>
		<path class="st28" d="M1821.4,923c0,0,2.2,3.6-5.1,5.2c-3.9,0.8-5.6,2.4-6.5,3.8h-4.7l3.6,15.4h21.3l3.2-15.4h-3.1
			C1829.4,926.9,1821.4,923,1821.4,923z"/>
	</g>
	<path class="st47" d="M1764.4,877.4c-1.2-0.4-2.5,0.2-3,1.4l-23.3,64h-68c-1.3,0-2.3,1-2.3,2.3c0,1.3,1,2.3,2.3,2.3h69.7
		c0,0,0,0,0,0c0,0,0,0,0,0c1.2,0,2.1-0.9,2.3-2.1l23.6-65C1766.2,879.1,1765.6,877.8,1764.4,877.4z"/>
	<g>
		<path class="st41" d="M3134.1,1100.1c0,0-40.7-22.8-21.7-53.8c0,0,15.2-19,31.5-23.9c0,0-8.7,46.2,0,47.3c8.7,1.1,6-52.1,6-52.1
			s42.9-20.6,59.7-19c0,0-26.6,45.1-17.9,44c8.7-1.1,38.6-46.7,38.6-46.7s44-8.1,51.1,17.9c7.1,26.1-4.3,39.1-10.9,40.7
			s-48.3,1.1-47.3,6.5c1.1,5.4,29.3,14.1,45.1,9.2c0,0-17.4,42.9-40.2,40.7c-22.8-2.2-29.9-16.3-44-17.4
			c-14.1-1.1-24.4,2.7-17.4,6.5s31,1.2,42.4,10.9c11.4,9.7,20.6,15.7-0.5,20c-21.2,4.3-59.2,1.6-66.8-14.7
			C3134.1,1100.1,3134.1,1100.1,3134.1,1100.1z"/>
		<path class="st55" d="M3261.2,1021.9c0,0-114.1,36.9-127.1,78.2c0,0,0.5,18.5-10.9,39.6v0c-0.1,0.1-10,15.3-10.6,36.6h6.6
			c0.1-9.7,1.1-20.9,4.5-29.3c0,0,0,0,0,0c0-0.1,0.1-0.2,0.1-0.2c0.3-0.7,0.8-1.7,1.3-2.9c0,0,0,0,0-0.1c1.3-2.6,2.2-4.5,2.8-5.9
			l0,0c0,0,0,0,0,0c0,0,0,0,0,0c4.1-8.3,9.9-19.2,13.8-21.4C3141.7,1116.4,3116.2,1080.5,3261.2,1021.9z"/>
	</g>
	<g>
		<path class="st41" d="M3093.7,1135.4c0,0,30.9-17.3,16.5-40.8c0,0-11.5-14.4-23.9-18.1c0,0,6.6,35,0,35.8
			c-6.6,0.8-4.5-39.6-4.5-39.6s-32.6-15.7-45.3-14.4c0,0,20.2,34.2,13.6,33.4c-6.6-0.8-29.3-35.4-29.3-35.4s-33.4-6.2-38.7,13.6
			c-5.4,19.8,3.3,29.7,8.2,30.9c4.9,1.2,36.7,0.8,35.8,4.9c-0.8,4.1-22.2,10.7-34.2,7c0,0,13.2,32.6,30.5,30.9
			c17.3-1.6,22.7-12.4,33.4-13.2c10.7-0.8,18.5,2.1,13.2,4.9c-5.4,2.9-23.5,0.9-32.1,8.3c-8.7,7.4-15.7,11.9,0.4,15.2
			c16.1,3.3,44.9,1.2,50.7-11.1C3093.7,1135.4,3093.7,1135.4,3093.7,1135.4z"/>
		<path class="st55" d="M3103.3,1176.3h3.6c-2.3-6.7-5-10.8-5-10.8c-8.7-16.1-8.2-30.1-8.2-30.1c-9.9-31.3-96.4-59.3-96.4-59.3
			c110,44.5,90.6,71.7,90.6,71.7c3,1.7,7.4,9.9,10.5,16.3c0,0,0,0,0,0c0,0,0,0,0,0c0.4,1.1,1.1,2.6,2.2,4.6c0,0,0,0,0,0
			c0.4,0.8,0.7,1.6,0.9,2.1C3102.2,1172.5,3102.8,1174.4,3103.3,1176.3z"/>
	</g>
	<g>
		<path class="st56" d="M3112.9,1235.6c36.8,0,66.6-29.8,66.6-66.6h-133.2C3046.4,1205.8,3076.2,1235.6,3112.9,1235.6z"/>
		<path class="st57" d="M3129.3,1235c-2.7,0.3-5.5,0.5-8.3,0.5c-36.8,0-66.6-29.8-66.6-66.6h16.5C3071,1203,3096.5,1231,3129.3,1235
			z"/>
		<path class="st56" d="M3180.1,1238.9h-135l0,0c0-4.5,3.7-8.2,8.2-8.2h118.6C3176.4,1230.7,3180.1,1234.4,3180.1,1238.9
			L3180.1,1238.9z"/>
		<rect x="3044.2" y="1169" class="st41" width="136.9" height="2"/>
	</g>
</g>
</svg>
