<svg width="18" height="21" viewBox="0 0 18 21" fill="none" xmlns="http://www.w3.org/2000/svg">
<path d="M9.00003 10.316C10.355 10.316 11.872 10.166 12.84 9.06001C13.654 8.13001 13.918 6.69201 13.646 4.66801C13.266 1.84301 11.529 0.156006 9.00003 0.156006C6.47103 0.156006 4.73403 1.84301 4.35403 4.67001C4.08203 6.69201 4.34603 8.13001 5.16003 9.06001C6.12803 10.167 7.64503 10.316 9.00003 10.316ZM5.84003 4.86801C6.00203 3.66801 6.62703 1.65601 9.00003 1.65601C11.373 1.65601 11.998 3.66901 12.16 4.86801C12.367 6.41801 12.217 7.49501 11.71 8.07301C11.255 8.59301 10.444 8.81601 9.00003 8.81601C7.55603 8.81601 6.74503 8.59301 6.29003 8.07301C5.78303 7.49501 5.63303 6.41701 5.84003 4.86801ZM17.28 17.736C16.403 14.21 12.998 11.746 9.00003 11.746C5.00203 11.746 1.59703 14.21 0.720027 17.736C0.548027 18.428 0.692027 19.136 1.11503 19.676C1.52303 20.196 2.15503 20.496 2.84803 20.496H15.152C15.845 20.496 16.477 20.196 16.885 19.676C17.309 19.136 17.452 18.429 17.279 17.736H17.28ZM15.704 18.752C15.578 18.912 15.388 18.998 15.152 18.998H2.84803C2.61303 18.998 2.42203 18.913 2.29603 18.752C2.15903 18.578 2.11603 18.34 2.17603 18.098C2.88603 15.243 5.69303 13.248 9.00003 13.248C12.307 13.248 15.114 15.242 15.824 18.098C15.884 18.34 15.841 18.578 15.704 18.752Z" fill="#222222"/>
</svg>
