<svg id="Capa_1" enable-background="new 0 0 512 512" height="512" viewBox="0 0 512 512" width="512" xmlns="http://www.w3.org/2000/svg"><g><g><g><path d="m107.279 367.753c7.466-2.086 11.828-9.83 9.741-17.297l-89.461-320.144c-2.086-7.466-9.83-11.828-17.297-9.741-7.466 2.086-11.828 9.83-9.741 17.297l89.461 320.144c2.087 7.466 9.831 11.828 17.297 9.741z" fill="#db765a"/><path d="m75.145 200.601-34.061-121.888c-2.086-7.466-9.83-11.827-17.297-9.741-7.466 2.086-11.827 9.83-9.741 17.297l34.06 121.888c2.086 7.466 9.83 11.827 17.297 9.741 7.467-2.087 11.828-9.831 9.742-17.297z" fill="#f2886b"/><path d="m23.41 119.777 16.374 58.594c2.086 7.466 9.83 11.827 17.297 9.741 7.466-2.086 11.827-9.83 9.741-17.297l-16.374-58.594c-2.086-7.466-9.83-11.827-17.297-9.741-7.466 2.087-11.827 9.831-9.741 17.297z" fill="#f4a698"/></g><g><path d="m132.954 362.04c-7.646 1.277-14.88-3.887-16.156-11.534l-54.735-327.871c-1.276-7.646 3.887-14.88 11.534-16.156 7.646-1.276 14.88 3.887 16.156 11.534l54.735 327.872c1.277 7.645-3.887 14.879-11.534 16.155z" fill="#db765a"/><path d="m91.177 197.033-20.839-124.83c-1.276-7.646 3.887-14.88 11.534-16.156 7.646-1.276 14.88 3.887 16.156 11.534l20.839 124.83c1.276 7.646-3.887 14.88-11.534 16.156-7.646 1.276-14.879-3.887-16.156-11.534z" fill="#f2886b"/><path d="m103.757 101.898 10.018 60.009c1.276 7.646-3.887 14.88-11.534 16.156-7.646 1.276-14.88-3.887-16.156-11.534l-10.018-60.009c-1.277-7.646 3.887-14.88 11.534-16.156 7.646-1.276 14.88 3.888 16.156 11.534z" fill="#f4a698"/></g></g><g><g><g><path d="m135.451 117.884c.201-5.558 5.137-9.74 10.652-9.024 3.659.475 7.259-1.225 9.218-4.351 2.953-4.713 9.319-5.867 13.737-2.489 2.931 2.241 6.899 2.569 10.158.84 4.914-2.605 11.004-.421 13.141 4.713 1.418 3.406 4.69 5.674 8.377 5.807 5.558.201 9.74 5.137 9.024 10.652-.475 3.659 1.225 7.259 4.351 9.218 4.713 2.953 5.867 9.319 2.489 13.737-2.241 2.931-2.569 6.899-.84 10.158 2.605 4.914.421 11.004-4.713 13.141-3.406 1.418-5.674 4.69-5.807 8.377-.201 5.558-5.137 9.74-10.652 9.024-3.659-.475-7.259 1.225-9.218 4.351-2.953 4.713-9.319 5.867-13.737 2.489-2.931-2.241-6.899-2.569-10.158-.84-4.914 2.605-11.004.421-13.141-4.713-1.418-3.406-4.69-5.674-8.377-5.807-5.558-.201-9.74-5.137-9.024-10.652.475-3.659-1.225-7.259-4.351-9.218-4.713-2.953-5.867-9.319-2.489-13.737 2.241-2.931 2.569-6.899.841-10.158-2.605-4.914-.421-11.004 4.713-13.141 3.404-1.418 5.673-4.69 5.806-8.377z" fill="#ffe7de"/><path d="m200.737 113.379c1.877.066 3.601.679 5.031 1.67 2.794 1.937 4.464 5.332 3.994 8.982-.456 3.513 1.087 6.975 3.974 8.976.12.083.249.165.373.243.129.082.253.159.379.246 4.398 3.049 5.397 9.195 2.111 13.493-.089.116-.181.238-.264.358-2.001 2.887-2.232 6.669-.572 9.8 1.72 3.253 1.348 7.018-.589 9.812-.991 1.43-2.39 2.609-4.125 3.329-1.704.71-3.123 1.883-4.133 3.34s-1.607 3.192-1.674 5.037c-.065 1.878-.679 3.602-1.67 5.031-1.937 2.794-5.336 4.469-8.982 3.994-3.513-.456-6.979 1.093-8.98 3.979-.083.12-.165.249-.243.373-.082.129-.159.253-.246.379-2.603 3.754-7.481 5.034-11.529 3.263 1.486-1.701 2.887-3.501 4.2-5.394 19.451-28.06 12.473-66.572-15.587-86.023-1.342-.931-2.717-1.803-4.1-2.616 3.242-2.148 7.644-2.158 10.951.368.116.089.238.181.358.264 2.887 2.001 6.675 2.236 9.805.576 3.253-1.72 7.018-1.348 9.812.589 1.43.991 2.609 2.39 3.329 4.125.71 1.704 1.883 3.123 3.334 4.129 1.458 1.009 3.198 1.61 5.043 1.677z" fill="#ffccb7"/></g><g><path d="m193.724 167.183c-7.152 10.318-21.365 12.893-31.683 5.74-4.758-3.298-7.958-8.666-8.561-14.358-.523-4.923.961-9.524 4.18-12.952 3.56-3.796 8.239-5.464 12.835-4.579 4.434.854 8.115 4.004 9.846 8.427 1.005 2.571-.263 5.472-2.834 6.478s-5.473-.263-6.479-2.835c-.48-1.226-1.363-2.046-2.425-2.251-1.173-.226-2.469.343-3.651 1.602-1.53 1.641-1.677 3.651-1.528 5.057.296 2.797 1.95 5.554 4.314 7.193 5.787 4.011 13.757 2.567 17.768-3.219 5.406-7.799 3.459-18.542-4.34-23.948-10.315-7.15-24.524-4.576-31.674 5.739-1.573 2.269-4.688 2.834-6.958 1.261s-2.834-4.688-1.261-6.958c10.292-14.847 30.743-18.552 45.59-8.261 12.331 8.548 15.408 25.533 6.861 37.864z" fill="#f75e5e"/></g></g><g><g><path d="m244.178 96.851c4.682-3.002 10.931-1.327 13.485 3.613 1.694 3.277 5.142 5.268 8.828 5.097 5.556-.258 10.13 4.316 9.872 9.872-.171 3.685 1.819 7.133 5.097 8.828 4.941 2.554 6.615 8.803 3.613 13.485-1.991 3.106-1.991 7.087 0 10.193 3.002 4.682 1.327 10.931-3.613 13.485-3.277 1.694-5.268 5.142-5.097 8.828.258 5.556-4.316 10.13-9.872 9.872-3.685-.171-7.133 1.819-8.828 5.097-2.554 4.941-8.803 6.615-13.485 3.613-3.106-1.991-7.087-1.991-10.193 0-4.682 3.002-10.931 1.327-13.485-3.613-1.694-3.277-5.142-5.268-8.828-5.097-5.556.258-10.13-4.316-9.872-9.872.171-3.685-1.819-7.133-5.097-8.828-4.941-2.554-6.615-8.803-3.613-13.485 1.991-3.106 1.991-7.087 0-10.193-3.002-4.682-1.327-10.931 3.613-13.485 3.277-1.694 5.268-5.142 5.097-8.828-.258-5.556 4.316-10.13 9.872-9.872 3.685.171 7.133-1.819 8.828-5.097 2.554-4.941 8.803-6.615 13.485-3.613 3.106 1.991 7.087 1.991 10.193 0z" fill="#ffe7de"/><path d="m285.074 147.939c1.016 1.58 1.494 3.347 1.494 5.086 0 3.4-1.839 6.706-5.106 8.4-3.147 1.627-5.113 4.867-5.113 8.38 0 .146.007.299.013.445.007.153.013.299.013.452 0 5.352-4.482 9.674-9.887 9.422-.146-.007-.299-.013-.445-.013-3.513 0-6.753 1.965-8.38 5.113-1.693 3.267-5 5.106-8.399 5.106-1.74 0-3.506-.478-5.086-1.494-1.554-.996-3.327-1.494-5.099-1.494-1.773 0-3.539.498-5.093 1.494-1.58 1.016-3.347 1.494-5.086 1.494-3.4 0-6.713-1.839-8.399-5.106-1.627-3.147-4.874-5.113-8.386-5.113-.146 0-.299.007-.445.013-.153.007-.299.013-.452.013-4.568 0-8.399-3.28-9.249-7.616 2.244.252 4.522.378 6.826.378 34.142 0 61.818-27.675 61.818-61.818 0-1.633-.066-3.26-.186-4.86 3.612 1.441 6.129 5.053 5.936 9.21-.007.146-.013.299-.013.445 0 3.513 1.965 6.759 5.113 8.386 3.267 1.693 5.106 5 5.106 8.4 0 1.74-.478 3.506-1.494 5.086-.996 1.554-1.494 3.327-1.494 5.093-.001 1.771.497 3.544 1.493 5.098z" fill="#ffccb7"/></g><g><path d="m236.86 172.828c-12.554 0-22.768-10.214-22.768-22.769 0-5.789 2.588-11.478 6.923-15.216 3.749-3.234 8.375-4.636 13.026-3.943 5.148.764 9.185 3.658 11.075 7.939 1.824 4.131 1.333 8.95-1.316 12.893-1.54 2.291-4.647 2.901-6.938 1.361-2.292-1.54-2.902-4.647-1.361-6.939.734-1.093.905-2.286.468-3.275-.482-1.093-1.688-1.834-3.396-2.088-2.22-.322-3.956.702-5.026 1.625-2.13 1.837-3.454 4.767-3.454 7.644 0 7.041 5.728 12.769 12.768 12.769 9.489 0 17.209-7.721 17.209-17.21 0-12.551-10.211-22.762-22.762-22.762-2.761 0-5-2.238-5-5s2.239-5 5-5c18.065 0 32.762 14.697 32.762 32.762 0 15.003-12.206 27.209-27.21 27.209z" fill="#f75e5e"/></g></g></g><g><path d="m412.635 257.169c33.586-37.484 46.895-96.179 50.972-118.913.943-5.259-2.434-10.324-7.646-11.5l-49.073-11.073c-5.661-1.277-11.207 2.514-12.087 8.25-3.835 24.994-17.326 87.366-58.964 115.907z" fill="#595751"/><path d="m463.605 138.26c-4.07 22.73-17.38 81.42-50.97 118.91l-76.8-17.33c6.25-4.28 11.86-9.32 16.9-14.89 52.18-5.2 93.59-46.99 98.2-99.33l5.03 1.14c5.21 1.17 8.581 6.24 7.64 11.5z" fill="#44433f"/></g><g><g><path d="m384.175 208.479c-19.592 48.128-57.541 58.899-93.059 44.441s-55.155-48.671-35.563-96.799 70.993-91.946 106.511-77.487 41.702 81.717 22.111 129.845z" fill="#fffdf3"/><path d="m384.17 208.478c-19.59 48.124-57.54 58.9-93.056 44.442-7.138-2.906-13.634-6.609-19.295-11.061 41.227-8.18 77.671-36.268 94.706-78.114 10.563-25.95 12.087-53.326 6.042-78.65 26.051 22.335 29.075 80.464 11.603 123.383z" fill="#fff7c7"/><ellipse cx="315.426" cy="193.201" fill="#ffe059" rx="46.551" ry="40.519" transform="matrix(.377 -.926 .926 .377 17.557 412.506)"/><path d="m352.958 208.476c-9.696 23.818-34.356 36.277-55.085 27.839-10.889-4.433-18.526-13.753-21.911-25.051 1.59.85 3.247 1.63 4.957 2.326 26.685 10.863 57.107-1.957 67.97-28.642 2.109-5.18 3.322-10.503 3.714-15.795 5.347 11.374 5.888 25.732.355 39.323z" fill="#ffc751"/></g><path d="m322.885 174.873c1.47.598 2.797 1.661 3.9 3.082 3.063 3.945 7.948 6.014 12.859 5.104l.263-.049c9.691-1.795 14.315-13.185 8.382-21.055-3.916-5.193-9.083-9.331-15.315-11.868-20.729-8.438-45.381 4.024-55.073 27.834-1.425 3.501-2.446 7.051-3.086 10.587-1.821 10.062 7.783 18.403 17.473 15.139 4.541-1.53 8.011-5.366 8.809-10.091.305-1.806.824-3.667 1.589-5.546 4.396-10.797 14.176-15.589 20.199-13.137z" fill="#fff370"/></g><g><path d="m284.508 192.754-7.412 1.885c-3.866.983-7.796-1.353-8.779-5.219l-3.666-14.412c-.983-3.865 1.353-7.796 5.219-8.779l7.412-1.885c3.865-.983 7.796 1.353 8.779 5.219l3.666 14.412c.983 3.865-1.353 7.796-5.219 8.779z" fill="#0cc166"/><path d="m286.058 169.566 3.664 14.404c.986 3.878-1.355 7.797-5.219 8.779l-7.405 1.884c-2.926.744-5.887-.41-7.585-2.691 7.842-6.317 11.726-16.829 9.084-27.215-.05-.196-.1-.392-.16-.57 3.468-.315 6.738 1.938 7.621 5.409z" fill="#04a550"/></g><g><path d="m349.353 206.46-7.16-2.69c-3.734-1.403-5.623-5.567-4.221-9.301l5.23-13.92c1.403-3.734 5.567-5.623 9.301-4.221l7.16 2.69c3.734 1.403 5.623 5.567 4.221 9.301l-5.23 13.92c-1.403 3.734-5.567 5.624-9.301 4.221z" fill="#0cc166"/><path d="m363.879 188.32-5.227 13.913c-1.407 3.745-5.569 5.623-9.301 4.221l-7.153-2.687c-2.826-1.062-4.596-3.702-4.686-6.544 10.046-.701 19.241-7.106 23.01-17.138.071-.189.142-.378.195-.559 3.026 1.722 4.422 5.441 3.162 8.794z" fill="#04a550"/></g><g><path d="m193.506 173.437-7.16-2.69c-3.734-1.403-5.623-5.567-4.221-9.301l5.23-13.92c1.403-3.734 5.567-5.623 9.301-4.221l7.16 2.69c3.734 1.403 5.623 5.567 4.221 9.301l-5.23 13.92c-1.403 3.734-5.567 5.624-9.301 4.221z" fill="#0cc166"/><path d="m208.032 155.296-5.227 13.913c-1.407 3.745-5.569 5.623-9.301 4.221l-7.153-2.687c-2.826-1.062-4.596-3.702-4.686-6.544 10.046-.701 19.241-7.106 23.01-17.138.071-.189.142-.378.195-.559 3.026 1.723 4.422 5.441 3.162 8.794z" fill="#04a550"/></g><g><g><path d="m345.129 322.152c.648-5.535 1.008-11.157 1.008-16.863 0-79.932-65.029-144.96-144.96-144.96s-144.96 65.028-144.96 144.96c0 5.706.36 11.328 1.008 16.863z" fill="#ffc751"/><path d="m314.863 322.152c.817-5.507 1.273-11.131 1.273-16.863 0-63.39-51.571-114.96-114.96-114.96s-114.96 51.57-114.96 114.96c0 5.732.456 11.355 1.273 16.863z" fill="#fff370"/><path d="m133.639 235.137c.077.065.154.129.231.194 5.201 4.378 12.682 4.561 18.228.63 9.189-6.514 19.73-11.248 31.12-13.7 6.89-1.483 11.863-7.485 11.863-14.533v-.347c0-9.415-8.665-16.494-17.873-14.533-15.614 3.325-30.065 9.829-42.641 18.8-7.92 5.649-8.373 17.226-.928 23.489z" fill="#fff7c7"/><path d="m284.421 322.152c1.108-5.452 1.715-11.084 1.715-16.863 0-46.922-38.038-84.96-84.961-84.96-46.922 0-84.96 38.038-84.96 84.96 0 5.779.608 11.411 1.715 16.863z" fill="#ffc751"/><path d="m253.462 322.152c1.724-5.317 2.674-10.978 2.674-16.863 0-30.305-24.655-54.96-54.96-54.96s-54.96 24.655-54.96 54.96c0 5.885.95 11.546 2.674 16.863z" fill="#ffaf40"/><path d="m219.547 322.152c4.085-4.445 6.589-10.364 6.589-16.863 0-13.763-11.197-24.96-24.96-24.96s-24.96 11.197-24.96 24.96c0 6.499 2.504 12.418 6.589 16.863z" fill="#ff993a"/></g><g><g><path d="m455.513 322.152c.165-2.485.271-4.986.271-7.513 0-63.39-51.571-114.96-114.96-114.96s-114.96 51.57-114.96 114.96c0 2.526.107 5.027.271 7.513z" fill="#fff370"/><path d="m425.438 322.152c.221-2.476.347-4.979.347-7.512 0-46.922-38.038-84.961-84.961-84.961s-84.96 38.038-84.96 84.961c0 2.533.125 5.037.347 7.512z" fill="#ffe059"/><path d="m320.507 232.143c-6.128 1.501-11.995 3.667-17.52 6.417-8.679 4.32-11.107 15.56-4.854 22.969l.046.054c4.45 5.272 11.953 6.98 18.122 3.891 3.514-1.76 7.241-3.154 11.131-4.132 6.74-1.695 11.535-7.643 11.535-14.593 0-9.682-9.056-16.91-18.46-14.606z" fill="#fff370"/><path d="m395.24 322.152c.346-2.457.544-4.961.544-7.513 0-30.305-24.655-54.96-54.96-54.96s-54.96 24.655-54.96 54.96c0 2.552.199 5.055.544 7.513z" fill="#ffc751"/><path d="m364.59 322.152c.758-2.374 1.195-4.89 1.195-7.513 0-13.763-11.197-24.96-24.96-24.96s-24.96 11.197-24.96 24.96c0 2.623.437 5.138 1.195 7.513z" fill="#ffaf40"/></g><path d="m312.93 203.112c-20.831 5.211-39.428 16.12-54.032 30.972-6.287 6.394-5.571 16.842 1.592 22.237l.239.18c5.92 4.459 14.268 3.929 19.459-1.361 10.714-10.919 24.353-18.954 39.649-22.84 6.508-1.653 11.133-7.405 11.133-14.12v-.973c0-9.443-8.878-16.387-18.04-14.095z" fill="#fff7c7"/></g><path d="m83.752 264.856c5.704 0 10.944-3.247 13.376-8.406 18.395-39.035 58.117-66.117 104.052-66.117 12.912 0 25.332 2.143 36.927 6.089 7.133 2.427 14.964-.765 18.241-7.549.043-.09.087-.18.13-.27 3.891-8.055-.16-17.67-8.626-20.558-14.652-4.998-30.351-7.712-46.673-7.712-57.943 0-108.042 34.163-131.228 83.406-4.625 9.823 2.615 21.118 13.472 21.118h.329z" fill="#ffe059"/><path d="m154.268 168.147c-7.117 2.438-13.986 5.414-20.557 8.881-6.969 3.678-9.787 12.199-6.483 19.353.043.092.085.184.128.276 3.57 7.735 12.896 10.834 20.434 6.865 5.164-2.719 10.56-5.056 16.148-6.975 6.579-2.259 10.656-8.875 9.797-15.778-.013-.103-.026-.207-.039-.31-1.155-9.321-10.542-15.356-19.428-12.312z" fill="#fff370"/></g><g><path d="m341.655 469.094v20.828c0 8.722-7.07 15.792-15.792 15.792h-139.726c-8.722 0-15.792-7.07-15.792-15.792v-20.828z" fill="#595751"/><path d="m341.657 469.099v20.825c0 8.717-7.075 15.792-15.792 15.792h-90.089c33.753 0 64.222-14.045 85.899-36.617z" fill="#44433f"/><g><path d="m501.451 275.449h-490.902c-9.181 0-13.963 10.932-7.731 17.674l122.478 132.5h261.408l122.478-132.5c6.233-6.742 1.451-17.674-7.731-17.674z" fill="#706c64"/></g><g><path d="m501.453 275.445h-72.318c-16.444 60.133-51.799 112.45-99.269 150.179h56.841l122.473-132.503c6.233-6.738 1.453-17.676-7.727-17.676z" fill="#595751"/></g><path d="m391.602 420.322-49.945 54.041h-171.314l-49.945-54.041z" fill="#fe255f"/><path d="m391.602 420.322-49.945 54.041h-102.576c36.027-11.665 68.959-30.195 97.269-54.041z" fill="#e01152"/><path d="m264.766 453.667h-77.75c-9.207 0-16.671-7.464-16.671-16.671 0-9.207 7.464-16.671 16.671-16.671h77.75c9.207 0 16.671 7.464 16.671 16.671 0 9.207-7.464 16.671-16.671 16.671z" fill="#fc709b"/><path d="m264.493 308.792h-188.295c-9.207 0-16.671-7.464-16.671-16.671 0-9.207 7.464-16.671 16.671-16.671h188.295c9.207 0 16.671 7.464 16.671 16.671 0 9.207-7.464 16.671-16.671 16.671z" fill="#8f8b81"/><path d="m181.562 275.449h-63.318c-9.207 0-16.671 7.464-16.671 16.671 0 9.207 7.464 16.671 16.671 16.671h63.318c9.207 0 16.671-7.464 16.671-16.671 0-9.207-7.463-16.671-16.671-16.671z" fill="#b5b1a4"/></g><g><path d="m290.48 221.014-7.2-5.699c-3.755-2.972-4.389-8.425-1.417-12.18l11.08-13.998c2.972-3.755 8.425-4.389 12.18-1.417l7.2 5.699c3.755 2.972 4.389 8.425 1.417 12.18l-11.08 13.998c-2.973 3.754-8.426 4.389-12.18 1.417z" fill="#0cc166"/><path d="m313.735 205.598-11.075 13.991c-2.981 3.766-8.427 4.387-12.18 1.417l-7.193-5.693c-2.842-2.249-3.898-5.916-2.959-9.198 11.741 2.881 24.601-1.072 32.587-11.161.151-.19.301-.381.428-.568 2.828 3.078 3.061 7.84.392 11.212z" fill="#04a550"/></g></g></svg>