<?xml version="1.0" encoding="iso-8859-1"?>
<!-- Generator: Adobe Illustrator 19.0.0, SVG Export Plug-In . SVG Version: 6.00 Build 0)  -->
<svg version="1.1" id="Capa_1" xmlns="http://www.w3.org/2000/svg" xmlns:xlink="http://www.w3.org/1999/xlink" x="0px" y="0px"
	 viewBox="0 0 512.005 512.005" style="enable-background:new 0 0 512.005 512.005;" xml:space="preserve">
<g>
	<g>
		<path d="M258.658,138.159L239.309,9.093c-0.768-5.248-5.269-9.088-10.539-9.088c-0.107,0-0.235,0-0.363,0
			c-5.397,0.171-9.813,4.373-10.261,9.771l-9.344,112.043c-0.576,6.912-12.843,6.912-13.419,0L186.039,9.775
			c-0.448-5.525-5.077-9.771-10.624-9.771c-5.547,0-10.176,4.245-10.603,9.771l-9.344,112.043c-0.576,6.912-12.843,6.912-13.419,0
			L132.706,9.775c-0.448-5.376-4.864-9.579-10.261-9.771c-0.128,0-0.256,0-0.363,0c-5.269,0-9.771,3.84-10.56,9.088L92.173,138.159
			c-5.675,37.824,14.848,73.984,49.451,89.088l-16.469,230.827c-0.981,13.888,3.883,27.691,13.376,37.888
			c9.472,10.197,22.912,16.043,36.928,16.043c13.931,0,27.371-5.845,36.864-16.043c9.493-10.197,14.357-24,13.376-37.888
			l-16.469-230.827C243.831,212.165,264.354,175.983,258.658,138.159z M194.701,209.946c-4.672,1.515-7.701,6.016-7.36,10.901
			l17.024,238.741c0.597,8.107-2.133,15.872-7.68,21.824c-11.051,11.883-31.403,12.011-42.581,0
			c-5.525-5.952-8.256-13.696-7.68-21.824l17.045-238.763c0.32-4.885-2.688-9.387-7.36-10.901
			c-29.355-9.493-47.381-38.357-42.837-68.608l5.781-38.528l1.728,20.821c1.195,14.421,13.483,25.728,27.968,25.728
			c12.267,0,22.955-8.107,26.667-19.371c3.712,11.264,14.4,19.371,26.667,19.371c14.464,0,26.773-11.307,27.968-25.707l1.728-20.821
			l5.781,38.528C242.103,171.589,224.077,200.453,194.701,209.946z"/>
	</g>
</g>
<g>
	<g>
		<path d="M416.247,1.946c-2.816-2.005-6.443-2.475-9.707-1.344c-0.917,0.32-92.437,33.941-92.437,138.048
			c0,74.944,24.363,112.789,38.101,128.149l-13.653,13.653c-1.749,1.749-2.837,4.032-3.072,6.485l-16.875,168.768
			c-1.472,14.357,3.264,28.736,12.949,39.445s23.531,16.853,37.973,16.853c28.245,0,51.221-22.976,51.243-51.221V10.65
			C420.77,7.194,419.085,3.951,416.247,1.946z M399.394,460.805c0,16.469-13.397,29.867-29.867,29.867
			c-8.533,0-16.405-3.499-22.144-9.835c-5.739-6.336-8.427-14.507-7.573-22.997l16.491-164.971l18.624-18.645
			c2.197-2.197,3.285-5.269,3.051-8.363c-0.235-3.093-1.835-5.973-4.331-7.829c-0.384-0.277-38.251-29.355-38.251-119.36
			c0-65.899,41.365-98.325,64-111.125V460.805z"/>
	</g>
</g>
<g>
</g>
<g>
</g>
<g>
</g>
<g>
</g>
<g>
</g>
<g>
</g>
<g>
</g>
<g>
</g>
<g>
</g>
<g>
</g>
<g>
</g>
<g>
</g>
<g>
</g>
<g>
</g>
<g>
</g>
</svg>
