<svg height="512pt" viewBox="0 0 512 512.00025" width="512pt" xmlns="http://www.w3.org/2000/svg"><path d="m511.023438 260.796875c-.992188 54.125-18.765626 104.132813-48.308594 145.054687-1.644532 2.277344-4.257813 3.648438-7.066406 3.648438-14.339844 0-25.964844 11.648438-25.964844 26.015625v1.222656c0 4.246094-1.796875 8.304688-4.972656 11.113281-45.066407 39.917969-104.292969 64.148438-169.179688 64.148438-52.570312 0-101.425781-15.917969-142.050781-43.1875-2.484375-1.671875-3.992188-4.457031-3.992188-7.457031v-409.667969c0-3.652344 1.828125-7.058594 4.863281-9.082031 41.421876-27.558594 91.320313-43.351563 144.949219-42.5781252 141.960938 2.0507812 254.328125 118.5546872 251.722657 260.7695312zm0 0" fill="#ab2a3e"/><path d="m429.683594 436.039062v1.199219c0 3.914063-1.660156 7.652344-4.582032 10.25-45.113281 40.128907-104.492187 64.511719-169.570312 64.511719-54.449219 0-104.917969-17.0625-146.371094-46.144531-64.484375-45.230469-71.871094-138.230469-16.207031-193.996094l201.300781-201.667969c1.949219-1.953125 5.109375-1.953125 7.058594 0l208.691406 209.074219c-4.25 47.25-21.320312 90.796875-47.691406 127.128906-1.421875 1.964844-3.71875 3.105469-6.140625 3.105469-14.628906 0-26.488281 11.882812-26.488281 26.539062zm0 0" fill="#ec3c52"/><path d="m361.339844 256c0 119.292969-96.53125 216-215.605469 216-10.445313 0-20.714844-.757812-30.761719-2.199219-69.261718-45.792969-114.972656-124.445312-114.972656-213.800781s45.710938-168.007812 114.972656-213.800781c10.046875-1.4375 20.316406-2.199219 30.761719-2.199219 119.074219 0 215.605469 96.707031 215.605469 216zm0 0" fill="#f0eff4"/><path d="m143.722656 100.011719c-26.335937.335937-51.089844 7.226562-72.722656 19.113281-4.375 2.402344-9.21875-2.359375-6.816406-6.742188 14.707031-26.839843 33.40625-50.757812 55.203125-70.765624-1.476563.179687-2.949219.371093-4.414063.582031-46.882812 30.996093-82.964844 77.046875-101.394531 131.28125-.003906.003906-.007813.011719-.011719.019531-.035156.101562-.066406.214844-.101562.316406-8.726563 25.792969-13.464844 53.433594-13.464844 82.183594s4.738281 56.390625 13.464844 82.183594c.035156.105468.066406.21875.101562.320312.003906.003906.007813.011719.011719.019532 18.429687 54.230468 54.511719 100.28125 101.394531 131.277343 1.464844.210938 2.9375.402344 4.414063.582031-21.796875-20.007812-40.5-43.925781-55.203125-70.769531-2.390625-4.359375 2.417968-9.15625 6.769531-6.761719 22.195313 12.203126 47.675781 19.148438 74.78125 19.148438 86.339844 0 156.269531-70.398438 155.710937-157.027344-.558593-86.90625-70.980468-156.0625-157.722656-154.960937zm2.011719 291.988281c-42.683594 0-80.757813-19.738281-105.640625-50.597656-7.882812-26.921875-12.144531-55.613282-12.144531-85.402344 0-29.785156 4.261719-58.480469 12.140625-85.402344 24.886718-30.855468 62.960937-50.597656 105.644531-50.597656 74.972656 0 135.75 60.890625 135.75 136s-60.777344 136-135.75 136zm0 0" fill="#dcdce1"/><path d="m462.757812 226.605469v179.191406c-11.597656 16.070313-25 30.75-39.925781 43.714844v-222.90625c-28.488281-9.90625-49.246093-40.449219-49.246093-76.605469 0-44.183594 30.984374-80 69.207031-80 38.222656 0 69.207031 35.816406 69.207031 80 0 36.160156-20.757812 66.699219-49.242188 76.605469zm0 0" fill="#dcdce1"/><path d="m462.757812 226.605469v179.191406c-5.578124 7.730469-11.585937 15.128906-17.96875 22.179687v-192.78125c0-10.144531-5.007812-19.726562-13.539062-25.191406-21.289062-13.640625-35.703125-39.871094-35.703125-70.003906 0-28.957031 13.308594-54.316406 33.242187-68.359375 4.523438-1.074219 9.207032-1.640625 14.003907-1.640625 38.222656 0 69.207031 35.816406 69.207031 80 0 36.160156-20.757812 66.699219-49.242188 76.605469zm0 0" fill="#f0eff4"/><path d="m145.734375 402c-80.488281 0-145.734375-65.367188-145.734375-146s65.246094-146 145.734375-146 145.734375 65.367188 145.734375 146-65.25 146-145.734375 146zm0 0" fill="#f7ad3b"/><path d="m164.226562 256c0 10.230469-8.28125 18.527344-18.492187 18.527344-10.214844 0-18.496094-8.296875-18.496094-18.527344s8.28125-18.527344 18.496094-18.527344c10.210937 0 18.492187 8.296875 18.492187 18.527344zm-46.925781-38.308594c-2.707031-2.710937-7.097656-2.710937-9.808593 0-10.210938 10.234375-15.835938 23.835938-15.835938 38.308594s5.625 28.078125 15.835938 38.308594c1.355468 1.355468 3.132812 2.035156 4.90625 2.035156 1.773437 0 3.546874-.679688 4.902343-2.035156 2.707031-2.710938 2.707031-7.113282 0-9.824219-7.59375-7.609375-11.777343-17.726563-11.777343-28.484375s4.183593-20.875 11.777343-28.484375c2.710938-2.710937 2.710938-7.113281 0-9.824219zm66.671875 0c-2.707031-2.710937-7.097656-2.710937-9.804687 0-2.710938 2.710938-2.710938 7.113282 0 9.824219 7.59375 7.609375 11.773437 17.726563 11.773437 28.484375s-4.179687 20.875-11.773437 28.484375c-2.710938 2.710937-2.710938 7.109375 0 9.824219 1.351562 1.355468 3.128906 2.035156 4.902343 2.035156 1.773438 0 3.546876-.679688 4.902344-2.035156 10.214844-10.230469 15.839844-23.835938 15.839844-38.308594s-5.625-28.074219-15.839844-38.308594zm-92.179687-15.730468c2.710937-2.710938 2.710937-7.109376 0-9.824219-2.707031-2.710938-7.097657-2.710938-9.804688 0-35.152343 35.214843-35.152343 92.511719 0 127.726562 1.351563 1.355469 3.128907 2.035157 4.902344 2.035157s3.550781-.679688 4.902344-2.035157c2.710937-2.714843 2.710937-7.113281 0-9.824219-29.738281-29.796874-29.738281-78.28125 0-108.078124zm117.6875-9.824219c-2.707031-2.710938-7.097657-2.710938-9.808594 0-2.707031 2.714843-2.707031 7.113281 0 9.828125 29.742187 29.792968 29.742187 78.277344 0 108.074218-2.707031 2.714844-2.707031 7.109376 0 9.824219 1.355469 1.355469 3.128906 2.035157 4.90625 2.035157 1.773437 0 3.546875-.675782 4.902344-2.035157 35.148437-35.214843 35.148437-92.511719 0-127.726562zm25.03125-25.078125c-2.707031-2.710938-7.097657-2.710938-9.808594 0-2.707031 2.714844-2.707031 7.113281 0 9.828125 43.546875 43.625 43.546875 114.605469 0 158.230469-2.707031 2.710937-2.707031 7.109374 0 9.824218 1.355469 1.355469 3.128906 2.035156 4.90625 2.035156 1.773437 0 3.546875-.679687 4.902344-2.035156 48.953125-49.042968 48.953125-128.839844 0-177.882812zm-167.746094 9.828125c2.707031-2.714844 2.707031-7.113281 0-9.828125-2.710937-2.710938-7.101563-2.710938-9.808594 0-48.953125 49.042968-48.953125 128.839844 0 177.882812 1.355469 1.355469 3.128907 2.035156 4.902344 2.035156s3.550781-.679687 4.90625-2.035156c2.707031-2.714844 2.707031-7.113281 0-9.824218-43.546875-43.625-43.546875-114.605469 0-158.230469zm0 0" fill="#e2902a"/><path d="m144.261719 318.527344c0 4.707031-3.808594 8.523437-8.507813 8.523437-4.703125 0-8.511718-3.816406-8.511718-8.523437 0-4.710938 3.808593-8.527344 8.511718-8.527344 4.699219 0 8.507813 3.816406 8.507813 8.527344zm56.84375-168.527344c-4.699219 0-8.511719 3.816406-8.511719 8.527344 0 4.707031 3.8125 8.523437 8.511719 8.523437 4.703125 0 8.511719-3.816406 8.511719-8.523437 0-4.710938-3.808594-8.527344-8.511719-8.527344zm-142.683594 122.945312c-4.703125 0-8.511719 3.820313-8.511719 8.527344 0 4.710938 3.808594 8.527344 8.511719 8.527344 4.699219 0 8.507813-3.816406 8.507813-8.527344 0-4.707031-3.808594-8.527344-8.507813-8.527344zm0 0" fill="#a0452c"/><path d="m99.816406 154.605469c0-11.488281 5.050782-21.226563 12.039063-24.605469 5.085937 2.460938 9.132812 8.292969 10.964843 15.714844.226563-.234375.433594-.472656.664063-.703125 10.679687-10.699219 24.4375-15.058594 34.085937-11.683594 3.367188 9.664063-.984374 23.445313-11.664062 34.148437-9.984375 10-22.652344 14.457032-32.144531 12.242188-.632813-.148438-1.25-.324219-1.855469-.53125-.015625.007812-1.023438-.480469-1.492188-.777344-6.230468-3.953125-10.597656-13.121094-10.597656-23.804687zm140.605469 159.464843c-3.273437-6.800781-12.714844-11.714843-23.855469-11.714843-4.667968 0-9.035156.867187-12.773437 2.371093-2.011719.808594-3.84375 1.804688-5.441407 2.949219-.863281.617188-6.640624 6.296875-6.964843 6.6875-3.828125 4.605469-6.28125 11.628907-6.28125 19.511719 0 11.160156 4.90625 20.617188 11.691406 23.898438 4.226563-2.042969 7.722656-6.484376 9.757813-12.238282 10.027343 8.925782 22.246093 12.414063 30.992187 9.359375 3.050781-8.765625-.429687-21.003906-9.339844-31.046875 5.742188-2.042968 10.175781-5.542968 12.214844-9.777344zm-120.917969 37.347657c-12.242187-3.285157-24.066406-.667969-29.667968 5.835937 1.601562 8.441406 10.539062 16.628906 22.78125 19.917969 12.242187 3.285156 24.066406.671875 29.667968-5.835937-1.601562-8.441407-10.535156-16.628907-22.78125-19.917969zm67.308594-168.195313c-7.089844-4.832031-19.1875-4.292968-30.164062 2.054688-10.980469 6.351562-17.492188 16.574218-16.859376 25.144531 7.089844 4.832031 19.1875 4.292969 30.164063-2.054687 10.976563-6.351563 17.492187-16.574219 16.859375-25.144532zm0 0" fill="#019256"/></svg>