<svg aria-hidden="true" focusable="false" xmlns="http://www.w3.org/2000/svg" xmlns:xlink="http://www.w3.org/1999/xlink" viewBox="0 0 14 12" class="cd ce c3 cf"><path fill-rule="evenodd" clip-rule="evenodd" d="M13.973 1.429a5.556 5.556 0 01-1.649.476A3.02 3.02 0 0013.587.231c-.554.34-1.169.59-1.823.728A2.792 2.792 0 009.668 0c-1.585 0-2.87 1.356-2.87 3.025 0 .24.026.47.074.692-2.385-.12-4.5-1.328-5.916-3.154-.249.443-.388.96-.388 1.522 0 1.051.507 1.976 1.276 2.52a2.754 2.754 0 01-1.3-.378v.036c0 1.467.988 2.692 2.302 2.97a2.776 2.776 0 01-1.29.052c.368 1.202 1.426 2.077 2.685 2.102A5.566 5.566 0 010 10.641 7.856 7.856 0 004.407 12c5.282 0 8.168-4.611 8.168-8.604 0-.13 0-.259-.01-.388.56-.424 1.05-.959 1.435-1.567l-.027-.012z"></path></svg>