<svg id="Capa_1" enable-background="new 0 0 512 512" height="512" viewBox="0 0 512 512" width="512" xmlns="http://www.w3.org/2000/svg"><g><g><g><path d="m512 205.523v38.705l-256 190.742-.11.079-255.89-190.821v-38.705l70.85-54.338h370.3z" fill="#186a81"/></g><path d="m512 205.523v38.705l-256 190.742v-283.785h185.15z" fill="#00465f"/><g><path d="m447 0v298.819l-190.88 125.915-.12-.08-191-125.874v-298.78z" fill="#eaf4f4"/></g><path d="m447 0v298.819l-190.88 125.915-.12-.08v-424.654z" fill="#cae8ea"/><g><path d="m512 274.139v237.861h-512v-267.772l255.89 160.911.23.149z" fill="#ffe26f"/></g><path d="m512 244.228v267.772h-256.11v-106.861l.23.149z" fill="#ffc271"/></g><circle cx="256" cy="195.16" fill="#00dc7b" r="126.58"/><path d="m382.58 195.16c0 69.8-56.78 126.58-126.58 126.58v-253.16c69.8 0 126.58 56.78 126.58 126.58z" fill="#00aa8e"/><g><path d="m312.7 172.9-69.73 69.73-43.67-43.67 21.21-21.21 22.46 22.46 13.03-13.03 35.49-35.49z" fill="#fff"/></g><path d="m312.7 172.9-56.7 56.7v-42.42l35.49-35.49z" fill="#eaf4f4"/></g></svg>