<svg height="512pt" viewBox="0 0 512 512" width="512pt" xmlns="http://www.w3.org/2000/svg"><path d="m512 256c0 141.386719-114.613281 256-256 256s-256-114.613281-256-256 114.613281-256 256-256 256 114.613281 256 256zm0 0" fill="#b7e3ef"/><path d="m396.996094 332.648438c-48.453125 48.457031-129.082032 46.386718-180.085938-4.617188s-53.070312-131.628906-4.617187-180.085938c17.089843-17.089843 38.183593-27.890624 60.566406-32.480468 22.691406-4.652344 43.378906-15.898438 59.683594-32.355469.089843-.089844.179687-.179687.269531-.269531 33.917969-33.917969 90.355469-32.472656 126.058594 3.230468 35.703125 35.703126 37.148437 92.144532 3.230468 126.058594-.089843.089844-.179687.179688-.269531.269532-16.457031 16.304687-27.703125 36.992187-32.355469 59.683593-4.585937 22.386719-15.390624 43.476563-32.480468 60.566407zm0 0" fill="#03ad6b"/><path d="m461.832031 212.402344c-16.453125 16.304687-27.699219 36.988281-32.355469 59.683594-4.585937 22.382812-15.390624 43.472656-32.480468 60.5625-8.203125 8.203124-17.328125 14.953124-27.074219 20.265624-12.195313-6.292968-23.695313-14.589843-33.988281-24.882812-51.003906-51.003906-53.074219-131.628906-4.621094-180.082031 17.089844-17.089844 38.183594-27.894531 60.566406-32.484375 22.695313-4.652344 43.378906-15.898438 59.683594-32.355469.089844-.089844.179688-.179687.269531-.269531.570313-.570313 1.160157-1.101563 1.742188-1.652344 1.804687 1.558594 3.582031 3.167969 5.296875 4.882812 35.703125 35.703126 37.148437 92.144532 3.230468 126.0625-.085937.089844-.175781.179688-.269531.269532zm0 0" fill="#23c77d"/><path d="m281.746094 355.925781c0 68.523438-58.472656 124.074219-130.601563 124.074219-72.132812 0-130.605469-55.550781-130.605469-124.074219 0-24.167969 7.273438-46.722656 19.859376-65.792969 12.753906-19.335937 19.429687-41.917968 19.324218-65.082031-.003906-.128906-.003906-.253906-.003906-.382812 0-47.96875 40.933594-86.851563 91.425781-86.851563 50.492188 0 91.421875 38.882813 91.421875 86.851563v.382812c-.105468 23.164063 6.566406 45.742188 19.324219 65.082031 12.582031 19.070313 19.855469 41.625 19.855469 65.792969zm0 0" fill="#8cd246"/><path d="m166.476562 479.144531c-5.03125.558594-10.144531.855469-15.332031.855469-72.132812 0-130.605469-55.550781-130.605469-124.074219 0-24.167969 7.273438-46.722656 19.859376-65.792969 12.753906-19.335937 19.429687-41.917968 19.324218-65.082031-.003906-.128906-.003906-.253906-.003906-.382812 0-47.96875 40.933594-86.851563 91.425781-86.851563 5.222657 0 10.34375.421875 15.332031 1.222656-43.191406 6.929688-76.089843 42.625-76.089843 85.628907v.382812c.105469 23.164063-6.566407 45.742188-19.324219 65.082031-12.582031 19.070313-19.859375 41.625-19.859375 65.792969 0 63.59375 50.371094 116.007813 115.273437 123.21875zm0 0" fill="#75c24b"/><path d="m262.15625 355.925781c0 57.613281-49.800781 104.484375-111.011719 104.484375-61.214843 0-111.015625-46.871094-111.015625-104.484375 0-19.503906 5.746094-38.527343 16.621094-55.007812 14.882812-22.558594 22.683594-48.824219 22.5625-75.964844l-.003906-.285156c0-37.089844 32.226562-67.261719 71.832031-67.261719 39.609375 0 71.832031 30.175781 71.832031 67.261719v.292969c-.125 27.132812 7.679688 53.398437 22.5625 75.957031 10.875 16.480469 16.621094 35.503906 16.621094 55.007812zm0 0" fill="#d6ea9f"/><path d="m183.015625 456c-53.566406-13.039062-95.566406-55.839844-102.175781-110.847656-2.929688-24.375 1.394531-49.007813 12.507812-71.234375 15.210938-30.425781 21.015625-64.421875 16.785156-98.316407l-.042968-.355468c-.21875-1.816406-.351563-3.625-.441406-5.429688 11.726562-7.800781 26.042968-12.410156 41.496093-12.410156 39.609375 0 71.832031 30.175781 71.832031 67.261719l-.003906.292969c-.121094 27.132812 7.679688 53.398437 22.5625 75.957031 10.871094 16.480469 16.621094 35.503906 16.621094 55.007812 0 47.1875-33.414062 87.148438-79.140625 100.074219zm0 0" fill="#e3f0be"/><path d="m190.324219 362.457031c0 28.851563-17.542969 52.242188-39.179688 52.242188-21.640625 0-39.183593-23.390625-39.183593-52.242188 0-28.851562 17.542968-52.242187 39.183593-52.242187 21.636719 0 39.179688 23.390625 39.179688 52.242187zm0 0" fill="#bb5335"/><path d="m190.324219 362.457031c0 27.722657-16.195313 50.386719-36.660157 52.121094-9.464843-11.921875-15.582031-30.828125-15.582031-52.121094 0-21.296875 6.117188-40.203125 15.582031-52.121093 20.464844 1.730468 36.660157 24.398437 36.660157 52.121093zm0 0" fill="#d25e3e"/></svg>