<svg height="512pt" viewBox="0 0 512 512.00045" width="512pt" xmlns="http://www.w3.org/2000/svg"><path d="m398.625 468.640625c-85.5625 57.523437-198.15625 57.816406-283.984375.855469-5.398437-6.597656-11.167969-12.988282-17.320313-19.140625-12.347656-12.347657-25.648437-23.167969-39.660156-32.464844-82.273437-100.558594-76.503906-249.085937 17.320313-342.910156 99.976562-99.972657 262.070312-99.972657 362.042969 0 94.09375 94.09375 99.617187 243.195312 16.605468 343.765625-13.546875 9.105468-26.421875 19.632812-38.398437 31.609375-5.886719 5.886719-11.414063 11.992187-16.605469 18.285156zm0 0" fill="#cc4978"/><path d="m484.703125 187.433594c-5.882813 5.640625-13.085937 9.238281-20.65625 10.800781-4.667969.964844-8.039063 5.03125-8.039063 9.800781v201.976563c0 2.09375-.109374 4.167969-.320312 6.207031-5.78125 7.1875-11.992188 14.140625-18.664062 20.8125-12.570313 12.570312-26.121094 23.558594-40.410157 32.964844-.203125.003906-.40625.015625-.609375.015625h-280.003906c-.203125 0-.40625-.011719-.609375-.015625-14.285156-9.40625-27.839844-20.394532-40.410156-32.964844-6.671875-6.671875-12.882813-13.625-18.664063-20.8125-.207031-2.039062-.316406-4.113281-.316406-6.207031v-201.976563c0-4.769531-3.375-8.835937-8.042969-9.800781-7.570312-1.5625-14.769531-5.160156-20.652343-10.800781-16.300782-15.621094-16.300782-40.949219 0-56.570313 61.128906-58.59375 142.351562-90.859375 228.699218-90.859375s167.566406 32.265625 228.699219 90.859375c16.296875 15.621094 16.296875 40.949219 0 56.570313zm0 0" fill="#f5cf51"/><path d="m119.109375 355.402344c.011719 5.214844.316406 10.398437.890625 15.523437v99.085938h-4c-.308594-.09375-.765625-.230469-1.074219-.324219-14.117187-9.339844-27.511719-20.222656-39.945312-32.65625-6.671875-6.671875-12.882813-13.625-18.664063-20.8125-.207031-2.042969-.316406-4.113281-.316406-6.207031v-201.980469c0-4.78125-3.398438-8.832031-8.082031-9.804688-7.527344-1.566406-14.691407-5.136718-20.554688-10.734374-16.316406-15.574219-15.875-41.535157.441407-57.109376 15.125-14.433593 31.476562-27.246093 48.820312-38.371093l-.949219 1.875c-15.675781 30.964843-9.898437 68.511719 14.429688 93.261719.097656.097656.1875.191406.28125.285156 5.632812 5.882812 13.078125 9.234375 20.644531 10.800781 4.671875.964844 8.050781 5.03125 8.050781 9.800781v131.972656s.007813 6.355469.027344 15.394532zm0 0" fill="#f7c32a"/><path d="m422.003906 198.609375v191.398437c0 22.09375-17.90625 40.003907-40 40.003907h-252.003906c-22.09375 0-40-17.910157-40-40.003907v-191.398437c-5.667969-8.105469-9-17.964844-9-28.605469 0-11.257812 3.71875-21.644531 9.996094-30 5.292968-7.046875 23.414062-18.351562 24.894531-19.371094 83.359375-57.53125 196.859375-57.53125 280.222656 0 1.480469 1.019532 19.601563 12.324219 24.894531 19.371094 6.277344 8.355469 9.996094 18.742188 9.996094 30 .003906 10.640625-3.332031 20.496094-9 28.605469zm0 0" fill="#fae8b1"/><path d="m145.605469 244.398438c5.859375 5.859374 5.859375 15.355468 0 21.214843-4.488281 4.492188-11.117188 5.527344-16.605469 3.128907v128.996093c0 12.941407 5.507812 24.519531 14.175781 32.273438h-13.175781c-22.09375 0-40-17.910157-40-40.003907v-191.398437c-5.667969-8.105469-9-17.964844-9-28.605469 0-11.257812 3.71875-21.644531 9.996094-30 5.292968-7.046875 23.414062-18.351562 24.894531-19.371094 7.789063-5.375 15.84375-10.246093 24.109375-14.613281 0 0-21.335938 21.984375-20 59.234375.402344 11.234375 3.332031 21.660156 9 30.226563v45.789062c5.488281-2.398437 12.117188-1.363281 16.605469 3.128907zm53.789062-75c-5.859375 5.855468-5.859375 15.355468 0 21.210937 5.859375 5.859375 15.355469 5.859375 21.214844 0 5.859375-5.855469 5.859375-15.355469 0-21.210937-5.859375-5.859376-15.355469-5.859376-21.214844 0zm165.003907 195.003906c-5.859376 5.855468-5.859376 15.355468 0 21.210937 5.859374 5.859375 15.355468 5.859375 21.214843 0 5.855469-5.855469 5.855469-15.355469 0-21.210937-5.859375-5.859375-15.355469-5.859375-21.214843 0zm21.210937-28.789063c5.859375-5.855469 5.859375-15.355469 0-21.214843-5.855469-5.855469-15.355469-5.855469-21.210937 0-5.859376 5.859374-5.859376 15.359374 0 21.214843 5.859374 5.859375 15.355468 5.859375 21.210937 0zm0 0" fill="#f8df92"/></svg>