<svg height="512.00001pt" viewBox="0 0 512.00001 512.00001" width="512.00001pt" xmlns="http://www.w3.org/2000/svg"><path d="m512 256.0625c-.03125 140.902344-115.082031 255.929688-255.984375 255.9375-42.191406.003906-81.992187-10.21875-117.082031-28.292969-1.121094-.578125-2.027344-1.492187-2.621094-2.605469-23.929688-44.765624-60.765625-81.582031-105.546875-105.484374-1.027344-.546876-1.871094-1.386719-2.402344-2.417969-18.121093-35.121094-28.36718725-74.96875-28.363281-117.210938.0078125-140.898437 115.03125-255.9492185 255.929688-255.988281 141.4375-.0390625 256.105468 114.625 256.070312 256.0625zm0 0" fill="#03ad6b"/><path d="m476.578125 220c-18.796875 49.363281-52.460937 101.230469-98.90625 147.671875-76.632813 76.636719-168.042969 118.511719-238.582031 116.128906-47.539063-24.445312-86.429688-63.335937-110.878906-110.871093-1.539063-45.484376 15.320312-99.644532 48.039062-152.929688 18.027344-29.355469 40.851562-58.445312 68.078125-85.671875 111.300781-111.300781 253.761719-149.289063 318.195313-84.851563 37.550781 37.546876 40.304687 101.589844 14.054687 170.523438zm0 0" fill="#f49f1f"/><path d="m377.671875 367.671875c-76.632813 76.636719-168.042969 118.511719-238.582031 116.128906-35.972656-18.5-66.984375-45.277343-90.546875-77.804687.03125-.148438.0625-.300782.089843-.449219 4.03125-19.980469 28.902344-27.054687 43.09375-12.421875 1.894532 1.957031 3.828126 3.917969 5.792969 5.882812 17.542969 17.542969 34.824219 32.417969 49.328125 42.925782 6.269532 4.542968 14.773438 4.214844 20.078125-1.003906.039063-.035157.074219-.074219.113281-.113282.039063-.035156.074219-.074218.113282-.113281 5.214844-5.300781 5.542968-13.804687 1-20.074219-10.503906-14.503906-25.378906-31.785156-42.921875-49.328125-9.78125-9.777343-24.066407-22.046875-34.8125-31-8.828125-7.355469-11.25-19.890625-5.820313-30.015625.085938-.164062.175782-.328125.261719-.492187 8.054687-14.972657 28.617187-17.144531 39.675781-4.234375 11.5625 13.5 24.878906 27.890625 39.449219 42.460937 24.761719 24.761719 49.007813 45.902344 69.238281 60.972657 8.746094 6.515624 20.214844 6.585937 27.066406-.144532.050782-.046875.097657-.09375.148438-.144531.046875-.046875.09375-.097656.144531-.144531 6.726563-6.855469 6.65625-18.324219.144531-27.066406-15.074218-20.230469-36.214843-44.476563-60.972656-69.238282-13.917968-13.914062-35.359375-32.273437-51.859375-45.828125-13.214843-10.851562-15.101562-30.359375-4.265625-43.585937.773438-.945313 1.554688-1.890625 2.339844-2.835938l.234375-.28125c12.246094-14.746094 34.867187-14.792968 47.316406-.21875 14.234375 16.667969 32.511719 37.449219 47.023438 51.960938 27.855469 27.855468 55.0625 51.710937 77.703125 68.78125 9.789062 7.378906 22.4375 7.714844 29.839844.449218.054687-.050781.105468-.105468.15625-.15625l.160156-.160156c7.261718-7.402344 6.925781-20.050781-.453125-29.835937-17.070313-22.644531-40.921875-49.851563-68.78125-77.707031-14.207031-14.207032-34.441407-32.035157-50.941407-46.148438-15.257812-13.050781-15.058593-36.671875.359376-49.539062.191406-.160157.382812-.320313.574218-.480469 13.808594-11.496094 34.34375-9.515625 45.742188 4.375 13.511718 16.460937 31.4375 37.382812 45.058594 51.003906 24.757812 24.761719 49.003906 45.902344 69.234374 60.972656 8.746094 6.515625 20.214844 6.585938 27.066407-.144531.050781-.046875.097656-.097656.148437-.144531.050782-.050781.097656-.097657.144532-.148438 6.726562-6.851562 6.660156-18.320312.144531-27.066406-15.070313-20.230469-36.210938-44.476563-60.972657-69.238281-11.925781-11.921875-28.515624-26.566406-42.535156-38.5625-13.542968-11.585938-11.273437-33.132813 4.378906-41.660156.175782-.097657.355469-.195313.53125-.289063 10.652344-5.785156 23.90625-3.261719 31.664063 6.050781 8.964844 10.761719 21.003906 24.761719 30.59375 34.355469 17.542969 17.542969 34.824219 32.417969 49.328125 42.925781 6.269531 4.539063 14.773438 4.210938 20.078125-1.003906.039063-.035156.074219-.074219.113281-.113281.039063-.039063.074219-.074219.113282-.113281 5.214843-5.304688 5.542968-13.808594 1-20.074219-10.503907-14.511719-25.378907-31.792969-42.921876-49.335938-.140624-.140625-.285156-.28125-.425781-.425781-17.34375-17.304688-7.910156-46.964844 16.265625-50.953125 6.722656-1.109375 13.296875-1.890625 19.703125-2.332031 6.863281 4.121094 13.199219 9.015625 18.914063 14.726562 37.546875 37.550782 40.300781 101.59375 14.050781 170.527344-18.796875 49.363281-52.460937 101.230469-98.90625 147.671875zm0 0" fill="#f7b95f"/></svg>