<svg height="512pt" viewBox="0 0 512 512" width="512pt" xmlns="http://www.w3.org/2000/svg"><path d="m512 256c0 141.386719-114.613281 256-256 256s-256-114.613281-256-256 114.613281-256 256-256 256 114.613281 256 256zm0 0" fill="#6dcce4"/><path d="m485.257812 370c-41.933593 84.167969-128.835937 142-229.257812 142s-187.324219-57.832031-229.257812-142zm0 0" fill="#4da0b8"/><path d="m380 70c0 5.523438 4.476562 10 10 10h15c8.285156 0 15 6.714844 15 15s-6.714844 15-15 15h-130c-8.285156 0-15-6.714844-15-15s6.714844-15 15-15h75c5.523438 0 10-4.476562 10-10s-4.476562-10-10-10h-35c-8.285156 0-15-6.714844-15-15s6.714844-15 15-15h61.324219c15.847656 8.457031 30.699219 18.527344 44.339843 30h-30.664062c-5.523438 0-10 4.476562-10 10zm0 0" fill="#b7e3ef"/><path d="m275.027344 48.621094c8.828125 8.828125 10.421875 22.570312 3.855468 33.1875l-21.710937 35.089844c-.539063.867187-1.804687.867187-2.34375 0l-21.710937-35.089844c-6.566407-10.617188-4.972657-24.359375 3.855468-33.1875 10.507813-10.507813 27.546875-10.507813 38.054688 0zm0 0" fill="#465c5c"/><path d="m431 187c0 46.945312-78.351562 85-175 85s-175-38.054688-175-85 78.351562-85 175-85 175 38.054688 175 85zm0 0" fill="#608a97"/><path d="m431 187c0 46.945312-78.351562 85-175 85-12.085938 0-23.882812-.59375-35.277344-1.726562-54.078125-16.164063-90.722656-47.394532-90.722656-83.273438s36.644531-67.109375 90.722656-83.273438c11.394532-1.132812 23.191406-1.726562 35.277344-1.726562 96.648438 0 175 38.054688 175 85zm0 0" fill="#749eab"/><path d="m482 242c0 11.046875-8.953125 20-20 20h-412c-11.046875 0-20-8.953125-20-20s8.953125-20 20-20h412c11.046875 0 20 8.953125 20 20zm0 0" fill="#d58a2d"/><path d="m431 203.949219v176.050781c0 33.136719-26.863281 60-60 60h-230c-33.136719 0-60-26.863281-60-60v-176h-1c-5.523438 0-10-4.476562-10-10s4.476562-10 10-10h351v.050781c5.054688.5 9 4.761719 9 9.949219 0 5.183594-3.945312 9.449219-9 9.949219zm0 0" fill="#e2902a"/><path d="m130 222h301v158c0 33.136719-26.863281 60-60 60h-201c-33.136719 0-60-26.863281-60-60v-138c0-11.046875 8.953125-20 20-20zm301-38h-331c-5.523438 0-10 4.476562-10 10s4.476562 10 10 10h331c5.523438 0 10-4.476562 10-10s-4.476562-10-10-10zm0 0" fill="#f7ad3b"/><path d="m460 404.617188c0 36.109374-31.339844 65.382812-70 65.382812s-70-29.273438-70-65.382812c0-13.464844 4.359375-25.976563 11.832031-36.375 10.859375-15.109376 28.597657-21.957032 46.015625-19.09375 3.945313.648437 8.007813.984374 12.152344.984374s8.207031-.335937 12.152344-.984374c17.417968-2.863282 35.15625 3.984374 46.015625 19.09375 7.472656 10.398437 11.832031 22.910156 11.832031 36.375zm0 0" fill="#c0293e"/><path d="m402.507812 468.9375c-35.523437-5.859375-62.507812-34.699219-62.507812-69.421875 0-14.53125 4.722656-28.027344 12.820312-39.246094.476563-.664062.96875-1.3125 1.472657-1.945312 5.585937-7.027344 14.554687-10.628907 23.414062-9.203125.046875.007812.09375.015625.140625.023437 3.945313.648438 8.007813.988281 12.152344.988281 4.148438 0 8.207031-.339843 12.15625-.988281 17.414062-2.859375 35.152344 3.988281 46.011719 19.097657 7.472656 10.398437 11.832031 22.910156 11.832031 36.375 0 32.121093-24.804688 58.8125-57.492188 64.320312zm0 0" fill="#d73247"/><path d="m435.835938 370.34375c7.867187 9.804688 8.628906 20.988281 3.046874 23.285156-4.457031 1.835938-12.496093-3.589844-18.964843-10.550781-6.640625-7.148437-11.621094-15.917969-9.367188-20.113281 2.917969-5.4375 16.457031-3.625 25.285157 7.378906zm0 0" fill="#ec3c52"/><path d="m392.179688 358.570312h-4.359376c-9.367187 0-17.550781-6.882812-18.574218-16.199218-.148438-1.351563-.136719-2.625.046875-3.792969 3.664062-.566406 8.375.535156 13.382812 3.027344 1.78125-5.304688 4.332031-9.414063 7.324219-11.605469 2.992188 2.191406 5.546875 6.300781 7.324219 11.605469 5.011719-2.492188 9.71875-3.59375 13.386719-3.027344.179687 1.167969.191406 2.441406.042968 3.792969-1.023437 9.316406-9.207031 16.199218-18.574218 16.199218zm0 0" fill="#14c553"/></svg>