<svg height="512pt" viewBox="0 0 512 512" width="512pt" xmlns="http://www.w3.org/2000/svg"><path d="m512 256c0 141.386719-114.613281 256-256 256s-256-114.613281-256-256 114.613281-256 256-256 256 114.613281 256 256zm0 0" fill="#f8df92"/><path d="m243.261719 83.996094c4.355469 12.488281-1.273438 30.292968-15.097657 44.113281-10.570312 10.574219-23.472656 16.34375-34.542968 16.527344-1.453125 1.011719-2.953125 1.902343-4.496094 2.644531-1.542969-.742188-3.042969-1.632812-4.496094-2.644531-11.070312-.183594-23.96875-5.953125-34.542968-16.527344-13.820313-13.820313-19.453126-31.625-15.09375-44.113281 7.773437-2.710938 17.609374-1.550782 27.265624 3.050781 1.382813-23.496094 12.226563-42.980469 26.871094-50.046875 14.636719 7.070312 25.484375 26.550781 26.867188 50.046875 9.652344-4.601563 19.488281-5.761719 27.265625-3.050781zm206.699219 101.59375c34.164062-10.609375 58.453124-34.652344 62.039062-58.589844-16.515625-17.699219-50.148438-23.746094-84.316406-13.136719-34.167969 10.613281-58.457032 34.652344-62.042969 58.589844 16.515625 17.699219 50.152344 23.75 84.320313 13.136719zm-93.207032-185.589844c-19.957031 1.875-40.75 17.929688-54.394531 42.429688-8.703125-20.332032-23.214844-34.957032-38.867187-39.152344-17.210938 12.75-25.898438 41.71875-19.988282 72.824218 5.910156 31.101563 24.617188 54.867188 45.308594 60.414063 2.105469-1.558594 4.082031-3.367187 5.921875-5.386719 2.332031 4.75 5.203125 8.976563 8.601563 12.511719 24.097656-2.261719 49.433593-25.195313 61.90625-58.730469 12.46875-33.535156 8.277343-67.449218-8.488282-84.910156zm144.949219 283.886719c-1.589844-24.15625-23.808594-50.121094-56.980469-63.523438-33.171875-13.402343-67.191406-10.152343-85.113281 6.117188 1.03125 15.664062 10.746094 32.085937 26.488281 45.351562-2.644531 1.921875-5.210937 4.105469-7.65625 6.550781-10.574218 10.574219-16.347656 23.472657-16.53125 34.542969-1.007812 1.453125-1.898437 2.953125-2.644531 4.496094.746094 1.546875 1.632813 3.042969 2.644531 4.496094.183594 11.070312 5.957032 23.972656 16.53125 34.546875 13.820313 13.820312 31.621094 19.449218 44.109375 15.09375 2.714844-7.777344 1.554688-17.613282-3.046875-27.265625 23.496094-1.382813 42.976563-12.230469 50.046875-26.871094-3.824219-7.917969-11.277343-14.722656-21.03125-19.523437 21.59375 2.023437 41.070313-3.011719 53.183594-14.011719zm0 0" fill="#b0da3c"/><path d="m508.09375 208.953125c-8.5-20.003906-30.257812-35.398437-57.308594-40.09375 7.585938-15.257813 9.601563-30.917969 5.308594-43.222656-19.21875-6.703125-46.617188 1.960937-67.890625 23.234375-6.515625 6.515625-11.84375 13.609375-15.914063 20.863281-.386718-1.757813-.859374-3.480469-1.441406-5.144531-9.820312-3.425782-21.445312-3.46875-33.507812-.402344 3.0625-12.066406 3.019531-23.6875-.40625-33.511719-3.316406-1.15625-6.839844-1.914062-10.515625-2.3125 8.035156-1.695312 16.210937-4.257812 24.320312-7.738281 36.410157-15.628906 60.394531-44.910156 61.578125-71.695312-18.882812-16.414063-53.019531-19.925782-87.085937-7.621094.640625-16.441406-3.6875-31.058594-12.246094-40.40625-20.304687 1.417968-42.0625 20.1875-53.21875 48.128906-1.253906 3.140625-2.324219 6.289062-3.230469 9.425781-5.683594-5.863281-11.960937-10.554687-18.683594-13.800781-26.796874 12.9375-46.652343 48.59375-49.183593 91.597656-17.667969-8.417968-35.671875-10.542968-49.902344-5.578125-7.972656 22.855469 2.332031 55.441407 27.628906 80.738281 19.351563 19.351563 42.964844 29.917969 63.226563 30.253907 2.660156 1.851562 5.402344 3.476562 8.230468 4.839843 2.824219-1.363281 5.570313-2.988281 8.226563-4.839843 5.160156-.085938 10.53125-.832031 16-2.21875-1.390625 5.464843-2.132813 10.839843-2.21875 15.996093-1.851563 2.660157-3.476563 5.40625-4.839844 8.230469 1.363281 2.824219 2.988281 5.570313 4.839844 8.230469.046875 2.828125.300781 5.726562.742187 8.667969-3.777343 8.804687-5.972656 19.246093-5.972656 30.449219 0 25.25 11.117188 46.65625 26.503906 54.082031 7.820313-3.773438 14.53125-11.164063 19.246094-20.828125 23.394532 18.527344 50.605469 25.414062 70.46875 18.484375 4.964844-14.234375 2.839844-32.234375-5.574218-49.902344 43.003906-2.53125 78.660156-22.386719 91.59375-49.183594-2.394532-4.960937-5.585938-9.679687-9.441407-14.097656 28.597657-3.964844 51.816407-19.796875 60.667969-40.625zm-206.785156-78.109375c-4.730469 1.339844-9.515625 3.140625-14.277344 5.410156-.136719-2.308594-.324219-4.589844-.558594-6.851562 4.730469.863281 9.695313 1.347656 14.835938 1.441406zm0 0" fill="#75c24b"/><path d="m452.949219 193.839844c-10.523438 21.800781-40.851563 37.550781-76.628907 37.550781-27.367187 0-51.535156-9.222656-66.097656-23.316406-3.191406-.570313-6.28125-1.359375-9.242187-2.394531-1.035157-2.960938-1.824219-6.050782-2.394531-9.242188-14.09375-14.566406-23.316407-38.730469-23.316407-66.097656 0-35.777344 15.753907-66.105469 37.550781-76.628906 13.574219 6.554687 24.800782 20.785156 31.34375 39.230468 32.199219-28.617187 71.449219-39.792968 99.546876-29.992187 9.800781 28.097656-1.375 67.347656-29.992188 99.546875 18.441406 6.542968 32.675781 17.769531 39.230469 31.34375zm0 0" fill="#b0da3c"/><path d="m359.816406 181.855469c-20.390625 20.386719-46.652344 28.695312-65.074218 22.265625-.632813-1.8125-1.117188-3.703125-1.464844-5.652344-8.625-8.914062-14.269532-23.703125-14.269532-40.453125 0-21.894531 9.640626-40.449219 22.980469-46.890625 8.308594 4.007812 15.179688 12.71875 19.183594 24.007812 19.703125-17.515624 43.722656-24.351562 60.914063-18.355468 6.425781 18.421875-1.878907 44.6875-22.269532 65.078125zm0 0" fill="#75c24b"/><path d="m402.058594 265.046875c-15.808594 18.332031-49.179688 25.699219-83.738282 16.4375-.5-.132813-.984374-.289063-1.480468-.425781l-193.765625 193.765625c-37.265625-22.6875-68.273438-54.628907-89.84375-92.628907l192.371093-192.375c-.136718-.496093-.292968-.980468-.425781-1.480468-9.261719-34.558594-1.894531-67.929688 16.4375-83.734375 20.75 3.945312 40.949219 23.644531 51.917969 51.554687 3.890625 4.394532 5.527344 10.078125 4.886719 15.5625.585937 2.410156 1.101562 4.816406 1.523437 7.207032 7.09375-2.609376 15.359375-1.085938 21.054688 4.609374l2.125 2.125c5.695312 5.695313 7.21875 13.964844 4.609375 21.054688 2.390625.425781 4.796875.9375 7.210937 1.523438 5.484375-.640626 11.164063.996093 15.558594 4.886718 27.910156 10.96875 47.609375 31.167969 51.558594 51.917969zm0 0" fill="#b0da3c"/><path d="m293.167969 219.574219-217.8125 217.8125c-6.101563-6.078125-11.898438-12.464844-17.367188-19.128907l216.933594-216.929687c5.039063-5.039063 13.207031-5.039063 18.246094 0 5.039062 5.039063 5.039062 13.207031 0 18.246094zm30.410156 12.167969c-5.039063-5.039063-13.207031-5.039063-18.246094 0l-217.378906 217.375c6.53125 5.6875 13.351563 11.050781 20.4375 16.058593l215.1875-215.1875c5.039063-5.039062 5.039063-13.207031 0-18.246093zm-60.824219-60.828126c-5.039062-5.035156-13.207031-5.035156-18.246094 0l-211.277343 211.28125c4.359375 7.683594 9.101562 15.121094 14.207031 22.285157l215.316406-215.316407c5.039063-5.039062 5.039063-13.210937 0-18.25zm0 0" fill="#75c24b"/></svg>