<svg height="512pt" viewBox="0 0 512 512" width="512pt" xmlns="http://www.w3.org/2000/svg"><path d="m512 256c0 141.386719-114.613281 256-256 256s-256-114.613281-256-256 114.613281-256 256-256 256 114.613281 256 256zm0 0" fill="#b7e3ef"/><path d="m415.191406 73.660156-181.621094 181.625c-.003906 0-.003906 0-.003906 0l-169.78125 169.78125c-21.816406-24.785156-38.917968-53.820312-49.894531-85.710937l263.589844-263.589844 69.910156-69.90625c7.808594-7.8125 20.472656-7.8125 28.28125 0l39.519531 39.519531c7.8125 7.808594 7.8125 20.472656 0 28.28125zm0 0" fill="#bb5335"/><path d="m467.988281 225.644531c3.8125 4.558594 3.488281 11.285157-.714843 15.488281l-265.164063 265.164063c-74.175781-15.894531-136.429687-63.90625-171.484375-128.789063l107.511719-107.507812 234.695312-234.695312c8.914063-8.917969 23.371094-8.917969 32.285157 0l64.652343 64.652343c4.324219 4.320313 4.480469 11.242188.429688 15.816407-.011719.015624-.027344.03125-.039063.046874-25.664062 29.28125-27.996094 71.886719-6.992187 103.585938 1.132812 1.707031 2.949219 4 4.820312 6.238281zm0 0" fill="#d25e3e"/><path d="m187.515625 172.1875c-4.457031-4.457031-4.457031-11.683594 0-16.144531l56.503906-56.503907c4.457031-4.457031 11.683594-4.457031 16.140625 0l24.21875 24.21875-19.371094 19.371094-29.0625 29.058594c-4.457031 4.457031-4.457031 11.683594 0 16.144531l16.144532 16.144531-8.070313 8.070313c-4.457031 4.457031-11.6875 4.457031-16.144531 0zm-72.648437 104.933594 24.21875 24.21875c4.457031 4.457031 11.683593 4.457031 16.140624 0l8.074219-8.074219-16.144531-16.144531c-4.457031-4.457032-4.457031-11.683594 0-16.144532l48.429688-48.429687-24.214844-24.214844c-4.457032-4.460937-11.6875-4.460937-16.144532 0l-56.503906 56.503907c-4.457031 4.457031-4.457031 11.683593 0 16.140624zm137.222656-8.070313-8.070313-8.074219c-4.460937-4.457031-11.6875-4.457031-16.144531 0l-56.503906 56.503907c-4.457032 4.457031-4.457032 11.6875 0 16.144531l24.214844 24.214844c4.460937 4.457031 11.6875 4.457031 16.144531 0l8.074219-8.070313-16.144532-16.144531c-4.460937-4.460938-4.460937-11.6875 0-16.144531zm96.863281-113.003906 24.214844 24.214844c4.457031 4.457031 11.683593 4.457031 16.144531 0l8.070312-8.074219-16.144531-16.144531c-4.457031-4.457031-4.457031-11.683594 0-16.144531l48.433594-48.429688-8.074219-8.070312c-4.457031-4.457032-11.6875-4.457032-16.144531 0l-56.503906 56.503906c-4.457031 4.457031-4.457031 11.683594.003906 16.144531zm-197.761719 262.332031 32.289063-32.289062c2.226562-2.226563 2.226562-5.84375 0-8.070313l-8.074219-8.074219c-2.226562-2.226562-5.84375-2.226562-8.070312 0l-32.289063 32.289063c-2.226563 2.230469-2.226563 5.84375 0 8.070313l8.074219 8.074218c2.226562 2.230469 5.84375 2.230469 8.070312 0zm80.71875-88.789062c2.230469 2.226562 5.84375 2.226562 8.070313 0l32.289062-32.289063c2.226563-2.226562 2.226563-5.839843 0-8.070312l-8.074219-8.074219c-2.226562-2.226562-5.839843-2.226562-8.070312 0l-32.285156 32.289062c-2.230469 2.230469-2.230469 5.84375 0 8.070313zm-173.542968 20.179687 48.429687-48.429687-8.070313-8.074219-16.144531-16.144531c-4.460937-4.457032-11.6875-4.457032-16.144531 0l-54.945312 54.945312c3.347656 10.773438 7.398437 21.230469 12.078124 31.339844l2.507813 2.503906 24.214844 24.21875c4.457031 4.457032 11.6875 4.457032 16.144531 0l8.070312-8.074218-16.144531-16.144532c-4.457031-4.457031-4.457031-11.683594.003907-16.140625zm173.542968 76.679688c-2.230468-2.226563-5.84375-2.226563-8.070312 0l-32.289063 32.289062c-2.230469 2.230469-2.230469 5.84375 0 8.070313l8.070313 8.074218c2.230468 2.226563 5.84375 2.226563 8.074218 0l32.285157-32.289062c2.230469-2.226562 2.230469-5.839844 0-8.070312zm169.507813-282.511719 8.070312 8.070312c2.230469 2.230469 5.84375 2.230469 8.074219 0l32.285156-32.285156c2.230469-2.230468 2.230469-5.84375 0-8.074218l-8.070312-8.070313c-2.230469-2.230469-5.84375-2.230469-8.074219 0l-32.285156 32.285156c-2.230469 2.230469-2.230469 5.84375 0 8.074219zm-52.464844 141.257812 48.429687-48.433593-8.070312-8.070313c-4.460938-4.457031-11.6875-4.457031-16.144531 0l-56.503907 56.503906c-4.457031 4.457032-4.457031 11.683594 0 16.144532l24.214844 24.214844c4.457032 4.457031 11.6875 4.457031 16.144532 0l8.070312-8.074219-16.144531-16.144531c-4.457031-4.457032-4.457031-11.683594.003906-16.140626zm-234.085937 121.074219 48.433593-48.429687-8.074219-8.070313c-4.457031-4.460937-11.683593-4.460937-16.140624 0l-56.503907 56.5c-4.460937 4.460938-4.460937 11.6875 0 16.144531l24.214844 24.21875c4.457031 4.457032 11.6875 4.457032 16.144531 0l8.070313-8.074218-16.144531-16.144532c-4.457032-4.457031-4.457032-11.683593 0-16.144531zm68.613281-133.183593 32.285156-32.289063c2.230469-2.226563 2.230469-5.84375 0-8.070313l-8.070313-8.074218c-2.230468-2.226563-5.84375-2.226563-8.074218 0l-32.285156 32.289062c-2.230469 2.230469-2.230469 5.84375 0 8.074219l8.070312 8.070313c2.230469 2.230468 5.84375 2.230468 8.074219 0zm80.714843-88.789063c2.230469 2.226563 5.84375 2.226563 8.074219 0l32.285157-32.289063c2.230468-2.230468 2.230468-5.84375 0-8.070312l-8.070313-8.074219c-2.230469-2.226562-5.84375-2.226562-8.074219 0l-32.285156 32.289063c-2.230469 2.230468-2.230469 5.84375 0 8.070312zm-92.824218 278.476563 48.429687-48.429688-8.070312-8.074219c-4.457031-4.457031-11.6875-4.457031-16.144531 0l-56.503907 56.503907c-4.457031 4.457031-4.457031 11.6875 0 16.144531l9.511719 9.507812c10.621094 4.917969 21.632812 9.128907 32.984375 12.570313l5.933594-5.933594-16.144531-16.144531c-4.453126-4.457031-4.453126-11.6875.003906-16.144531zm-76.683594-100.898438 32.289062-32.285156c2.226563-2.230469 2.226563-5.84375 0-8.074219l-8.074218-8.070313c-2.226563-2.230468-5.839844-2.230468-8.070313 0l-32.285156 32.289063c-2.230469 2.226563-2.230469 5.839844 0 8.070313l8.070313 8.074218c2.230468 2.226563 5.84375 2.226563 8.070312-.003906zm343.054688-149.328125c-4.457032-4.457031-4.457032-11.683594 0-16.144531l12.105468-12.105469c-1.625-11.453125-.914062-23.164063 2.101563-34.386719l-46.496094 46.496094c-4.457031 4.457031-4.457031 11.683594 0 16.144531l24.21875 24.214844c4.457031 4.457031 11.683594 4.457031 16.144531 0l8.070313-8.074219zm-177.582032 161.4375 48.433594-48.429687-8.074219-8.074219c-4.457031-4.457031-11.683593-4.457031-16.144531 0l-56.503906 56.503906c-4.457032 4.457031-4.457032 11.6875 0 16.144531l24.21875 24.214844c4.457031 4.457031 11.683594 4.457031 16.140625 0l8.074219-8.074219-16.144532-16.140625c-4.457031-4.457031-4.457031-11.6875 0-16.144531zm149.328125-125.113281c-2.226562-2.230469-5.839843-2.230469-8.070312 0l-32.285157 32.285156c-2.230468 2.230469-2.230468 5.84375 0 8.074219l8.070313 8.070312c2.230469 2.230469 5.84375 2.230469 8.070313 0l32.289062-32.285156c2.226562-2.230469 2.226562-5.84375 0-8.074219zm-64.574219-161.4375 8.074219 8.074218c2.230469 2.226563 5.84375 2.226563 8.070313 0l32.289062-32.289062c2.226563-2.230469 2.226563-5.84375 0-8.070312l-8.074218-8.074219c-2.226563-2.226563-5.839844-2.226563-8.070313 0l-32.289063 32.289062c-2.226562 2.226563-2.226562 5.84375 0 8.070313zm-4.035156 92.828125-8.070312-8.074219c-4.457032-4.457031-11.6875-4.457031-16.144532 0l-56.503906 56.503906c-4.457031 4.457032-4.457031 11.6875 0 16.144532l24.21875 24.214843c4.457032 4.457031 11.683594 4.457031 16.140625 0l8.074219-8.074219-16.144531-16.140624c-4.457031-4.460938-4.457031-11.6875 0-16.144532zm-20.179687 60.539062c2.230469 2.226563 5.84375 2.226563 8.074219 0l32.285156-32.289062c2.230468-2.230469 2.230468-5.84375 0-8.070313l-8.070313-8.074218c-2.230469-2.226563-5.84375-2.226563-8.074219 0l-32.285156 32.289062c-2.230468 2.226562-2.230468 5.839844 0 8.070312zm0 96.859375c-2.226563-2.226562-5.84375-2.226562-8.070313 0l-32.289062 32.289063c-2.226563 2.226562-2.226563 5.839843 0 8.070312l8.074218 8.074219c2.226563 2.226562 5.84375 2.226562 8.070313 0l32.289063-32.289062c2.226562-2.230469 2.226562-5.84375 0-8.070313zm-28.25-238.117187 24.214843 24.214843c4.457032 4.457032 11.6875 4.457032 16.144532 0l8.070312-8.074218-16.144531-16.144532c-4.457031-4.457031-4.457031-11.683593 0-16.140624l48.433594-48.433594-8.074219-8.070313s0 0 0-.003906l-16.144531-16.140625c-4.457031-4.457031-11.683594-4.457031-16.140625 0l-56.503906 56.503906c-4.457032 4.457032-4.457032 11.683594 0 16.144532zm187.550781 140.457031c-5.523438 0-10 4.476562-10 10s4.476562 10 10 10 10-4.476562 10-10-4.476562-10-10-10zm-10 40c0-5.523438-4.476562-10-10-10s-10 4.476562-10 10 4.476562 10 10 10 10-4.476562 10-10zm0 30c-5.523438 0-10 4.476562-10 10s4.476562 10 10 10 10-4.476562 10-10-4.476562-10-10-10zm0 0" fill="#bb5335"/></svg>