<svg height="512pt" viewBox="0 0 512 511" width="512pt" xmlns="http://www.w3.org/2000/svg"><path d="m498 306c4.785156 0 8.328125 4.464844 7.238281 9.125-26.507812 113.128906-128.027343 197.375-249.238281 197.375-141.386719 0-256-114.617188-256-256 0-141.488281 115.671875-256.625 257.15625-255.996094 107.53125.472656 199.394531 67.253906 236.84375 161.554688 2.664062 6.707031 4 13.871094 4 21.085937zm0 0" fill="#f7d674"/><path d="m512 256.5c0 20.304688-2.375 40.058594-6.84375 59h-358.542969c-42.898437 0-79.132812-28.449219-90.925781-67.5h-5.6875c-5.523438 0-10-4.476562-10-10s4.476562-10 10-10h5.6875c11.792969-39.050781 48.027344-67.5 90.925781-67.5h346.757813c12.003906 29.648438 18.628906 62.046875 18.628906 96zm0 0" fill="#03ad6b"/><path d="m130.777344 270.5c-26.917969 0-51.398438-9.621094-69.6875-25.347656-5.121094-4.402344-7.210938-11.390625-5.210938-17.84375 12.011719-38.699219 48.085938-66.808594 90.734375-66.808594h346.757813c12.003906 29.648438 18.628906 62.046875 18.628906 96 0 4.699219-.136719 9.363281-.386719 14zm0 0" fill="#23c77d"/><path d="m347.5 210.5c4.140625 0 7.5 3.359375 7.5 7.5s-3.359375 7.5-7.5 7.5-7.5-3.359375-7.5-7.5 3.359375-7.5 7.5-7.5zm-240 15h215c4.140625 0 7.5-3.359375 7.5-7.5s-3.359375-7.5-7.5-7.5h-215c-4.140625 0-7.5 3.359375-7.5 7.5s3.359375 7.5 7.5 7.5zm403.988281 15h-413.988281c-4.140625 0-7.5 3.359375-7.5 7.5s3.359375 7.5 7.5 7.5h414.488281c-.019531-5.039062-.195312-10.035156-.5-15zm-253.988281-45h247.167969c-1.238281-5.058594-2.609375-10.066406-4.140625-15h-243.027344c-4.140625 0-7.5 3.359375-7.5 7.5s3.359375 7.5 7.5 7.5zm112.5 22.5c0 4.140625 3.359375 7.5 7.5 7.5h132.628906c-.609375-5.046875-1.359375-10.050781-2.257812-15h-130.371094c-4.140625 0-7.5 3.359375-7.5 7.5zm-252.5-22.5h85c4.140625 0 7.5-3.359375 7.5-7.5s-3.359375-7.5-7.5-7.5h-85c-4.140625 0-7.5 3.359375-7.5 7.5s3.359375 7.5 7.5 7.5zm110 0c4.140625 0 7.5-3.359375 7.5-7.5s-3.359375-7.5-7.5-7.5-7.5 3.359375-7.5 7.5 3.359375 7.5 7.5 7.5zm0 0" fill="#019256"/><path d="m230 385.5c0 52.464844-42.53125 95-95 95s-95-42.535156-95-95c0-52.46875 42.53125-95 95-95s95 42.53125 95 95zm0 0" fill="#8cd246"/><path d="m146.296875 479.828125c-3.707031.4375-7.472656.671875-11.296875.671875-52.46875 0-95-42.535156-95-95 0-52.46875 42.53125-95 95-95 3.824219 0 7.589844.230469 11.296875.671875-44.007813 8.382813-77.296875 47.421875-77.296875 94.328125s33.289062 85.945312 77.296875 94.328125zm0 0" fill="#75c24b"/><path d="m210 385.5c0 41.421875-33.578125 75-75 75s-75-33.578125-75-75 33.578125-75 75-75 75 33.578125 75 75zm0 0" fill="#e3f0be"/><path d="m184.171875 385.5c3.738281 8.585938 3.5 18.769531-1.539063 27.5-5.042968 8.730469-13.742187 14.03125-23.046874 15.082031-5.566407 7.53125-14.503907 12.417969-24.585938 12.417969s-19.019531-4.886719-24.585938-12.417969c-9.304687-1.054687-18.003906-6.351562-23.046874-15.082031-5.039063-8.730469-5.277344-18.914062-1.539063-27.5-3.738281-8.585938-3.5-18.769531 1.539063-27.5 5.042968-8.730469 13.742187-14.03125 23.046874-15.085938 5.566407-7.53125 14.503907-12.414062 24.585938-12.414062s19.019531 4.882812 24.585938 12.414062c9.304687 1.054688 18.003906 6.355469 23.046874 15.085938 5.039063 8.730469 5.277344 18.914062 1.539063 27.5zm0 0" fill="#d6ea9f"/><path d="m143 355.5c0 7.257812-3.4375 13.308594-8 14.699219-4.5625-1.390625-8-7.441407-8-14.699219s3.4375-13.308594 8-14.699219c4.5625 1.390625 8 7.441407 8 14.699219zm-8 45.300781c-4.5625 1.390625-8 7.441407-8 14.699219s3.4375 13.308594 8 14.699219c4.5625-1.390625 8-7.441407 8-14.699219s-3.4375-13.308594-8-14.699219zm-21.980469-37.230469c-6.285156-3.625-13.246093-3.679687-16.730469-.417968-1.078124 4.644531 2.445313 10.648437 8.730469 14.277344 6.285157 3.628906 13.242188 3.679687 16.726563.417968 1.082031-4.644531-2.441406-10.648437-8.726563-14.277344zm51.960938 30c-6.285157-3.625-13.242188-3.679687-16.726563-.417968-1.078125 4.644531 2.441406 10.648437 8.726563 14.277344 6.285156 3.628906 13.246093 3.679687 16.730469.417968 1.078124-4.644531-2.445313-10.648437-8.730469-14.277344zm-59.960938 0c-6.285156 3.628907-9.808593 9.632813-8.730469 14.277344 3.488282 3.261719 10.445313 3.207032 16.730469-.417968 6.285157-3.628907 9.808594-9.632813 8.726563-14.277344-3.484375-3.261719-10.441406-3.210938-16.726563.417968zm59.960938-16.144531c6.285156-3.625 9.808593-9.628906 8.730469-14.277343-3.488282-3.257813-10.445313-3.207032-16.730469.421874-6.285157 3.628907-9.808594 9.628907-8.726563 14.277344 3.484375 3.257813 10.441406 3.207032 16.726563-.421875zm0 0" fill="#8cd246"/></svg>