<svg height="512pt" viewBox="0 0 512.00003 512" width="512pt" xmlns="http://www.w3.org/2000/svg"><path d="m496.023438 240c8.773437 0 15.96875 7.070312 15.976562 15.839844v.160156c0 141.386719-114.613281 256-256 256-141.34375 0-255.9335938-114.546875-256-255.875-.0664062-141.058594 114.941406-256.125 256-256.125 82.589844 0 156.027344 39.117188 202.835938 99.824219 7.230468 9.378906 11.164062 20.886719 11.164062 32.730469v81.421874c0 14.371094 11.652344 26.023438 26.023438 26.023438zm0 0" fill="#ec3c52"/><path d="m512 256c0 2.796875-.0625 5.578125-.148438 8.355469-1.578124 1.589843-3.375 2.980469-5.371093 4.109375-7.777344 4.402344-17.371094 4.28125-25.035157-.316406-13.367187-8.019532-28.667968-12.257813-44.253906-12.257813h-233.90625c-15.585937 0-30.890625 4.238281-44.257812 12.257813-3.921875 2.355468-8.355469 3.535156-12.789063 3.535156-4.222656 0-8.445312-1.070313-12.242187-3.21875-7.777344-4.402344-12.609375-12.691406-12.609375-21.628906v-8.726563c0-.632813.035156-1.257813.097656-1.871094 1.558594-51.589843 22.71875-99.839843 59.6875-136.015625 37.375-36.574218 86.761719-56.71875 139.066406-56.71875 52.023438 0 101.160157 19.9375 138.464844 56.144532 33.40625 43.25 53.296875 97.472656 53.296875 156.351562zm0 0" fill="#f49f1f"/><path d="m512 256c0 2.796875-.0625 5.578125-.148438 8.355469-1.578124 1.589843-3.375 2.980469-5.371093 4.109375-7.777344 4.402344-17.371094 4.28125-25.035157-.316406-13.367187-8.019532-28.667968-12.257813-44.253906-12.257813h-233.90625c-15.585937 0-30.890625 4.238281-44.257812 12.257813-1.183594.710937-2.421875 1.304687-3.6875 1.800781-.296875-1.613281-.464844-3.261719-.464844-4.929688v-9.507812c0-.6875.035156-1.371094.105469-2.039063 1.699219-56.203125 24.753906-108.765625 65.023437-148.175781 34.410156-33.675781 78.171875-54.5625 125.292969-60.226563 42.597656 5.339844 82.148437 24.242188 113.398437 54.570313 33.414063 43.25 53.304688 97.476563 53.304688 156.359375zm0 0" fill="#f7ad3b"/><path d="m502.492188 253.316406c0 4.910156-3.980469 8.894532-8.890626 8.894532h-24.085937c-6.628906-2.691407-13.570313-4.554688-20.660156-5.523438.027343-1.121094.042969-2.242188.042969-3.367188 0-71.058593-57.601563-128.660156-128.660157-128.660156-71.054687 0-128.660156 57.601563-128.660156 128.660156 0 1.125.015625 2.246094.042969 3.367188-7.089844.96875-14.027344 2.832031-20.660156 5.523438h-24.085938c-4.910156 0-8.890625-3.980469-8.890625-8.894532 0-4.910156 3.980469-8.890625 8.890625-8.890625h26.058594c.8125-13.679687 3.484375-26.855469 7.773437-39.28125l-24.035156-9.957031c-4.539063-1.878906-6.691406-7.078125-4.8125-11.617188 1.878906-4.535156 7.078125-6.6875 11.617187-4.808593l24.039063 9.957031c5.910156-12.113281 13.429687-23.296875 22.277344-33.273438l-18.425781-18.425781c-3.472657-3.472656-3.472657-9.105469 0-12.574219 3.472656-3.472656 9.101562-3.472656 12.570312 0l18.429688 18.425782c9.976562-8.847656 21.160156-16.367188 33.273437-22.273438l-9.957031-24.042968c-1.878906-4.535157.273437-9.738282 4.808594-11.617188 4.539062-1.878906 9.738281.277344 11.617187 4.8125l9.957031 24.039062c12.425782-4.289062 25.605469-6.964843 39.28125-7.777343v-26.058594c0-4.90625 3.980469-8.890625 8.890625-8.890625 4.910157 0 8.890625 3.980469 8.890625 8.890625v26.058594c13.679688.8125 26.855469 3.484375 39.28125 7.773437l9.957032-24.035156c1.878906-4.535156 7.082031-6.691406 11.617187-4.8125s6.691406 7.078125 4.8125 11.617188l-9.960937 24.039062c12.117187 5.910156 23.296874 13.429688 33.277343 22.277344l18.425781-18.425782c3.472657-3.472656 9.101563-3.472656 12.574219 0 3.472657 3.46875 3.472657 9.101563 0 12.570313l-18.429687 18.429687c8.851562 9.976563 16.371094 21.160157 22.277344 33.273438l24.042968-9.960938c4.535156-1.878906 9.734375.277344 11.613282 4.8125 1.878906 4.539063-.273438 9.738282-4.808594 11.617188l-24.039063 9.957031c4.289063 12.425781 6.960938 25.601563 7.777344 39.28125h26.054687c4.910157.003907 8.890626 3.980469 8.890626 8.890625zm0 0" fill="#e2902a"/><path d="m420.363281 400.511719v8.726562c0 8.9375-4.832031 17.222657-12.605469 21.625-7.777343 4.40625-17.371093 4.285157-25.035156-.3125-13.367187-8.019531-28.667968-12.257812-44.253906-12.257812h-233.90625c-15.585938 0-30.890625 4.238281-44.257812 12.257812-3.921876 2.355469-8.355469 3.535157-12.785157 3.535157-4.226562 0-8.449219-1.070313-12.246093-3.222657-7.777344-4.402343-12.605469-12.6875-12.605469-21.625v-8.726562c0-.632813.03125-1.257813.09375-1.875 1.558593-51.585938 22.722656-99.835938 59.6875-136.011719 37.375-36.578125 86.761719-56.71875 139.066406-56.71875 52.300781 0 101.691406 20.140625 139.066406 56.71875 36.964844 36.175781 58.125 84.425781 59.683594 136.011719.066406.617187.097656 1.242187.097656 1.875zm0 0" fill="#f7b95f"/><path d="m407.757812 430.863281c-7.777343 4.40625-17.371093 4.285157-25.035156-.3125-13.367187-8.019531-28.667968-12.257812-44.253906-12.257812h-233.90625c-15.585938 0-30.890625 4.238281-44.257812 12.257812-1.183594.710938-2.421876 1.300781-3.6875 1.800781-.296876-1.613281-.464844-3.261718-.464844-4.933593v-9.503907c0-.691406.035156-1.371093.105468-2.042968 1.699219-56.199219 24.753907-108.761719 65.023438-148.171875 34.410156-33.675781 78.171875-54.5625 125.292969-60.226563 42.875 5.371094 82.664062 24.480469 114.007812 55.152344 36.964844 36.175781 58.128907 84.425781 59.6875 136.015625.0625.613281.09375 1.238281.09375 1.871094v8.726562c0 8.9375-4.832031 17.222657-12.605469 21.625zm0 0" fill="#f9c77e"/><path d="m403.769531 415.71875c0 4.910156-3.980469 8.890625-8.890625 8.890625h-24.085937c-6.628907-2.6875-13.566407-4.550781-20.660157-5.519531.027344-1.121094.042969-2.242188.042969-3.371094 0-71.054688-57.601562-128.65625-128.660156-128.65625-71.054687 0-128.660156 57.601562-128.660156 128.65625 0 1.128906.015625 2.25.046875 3.371094-7.09375.96875-14.03125 2.832031-20.664063 5.519531h-24.085937c-4.910156 0-8.890625-3.980469-8.890625-8.890625s3.980469-8.890625 8.890625-8.890625h26.054687c.8125-13.679687 3.488281-26.855469 7.777344-39.28125l-24.039063-9.957031c-4.535156-1.878906-6.6875-7.078125-4.808593-11.617188 1.878906-4.535156 7.078125-6.6875 11.613281-4.8125l24.042969 9.960938c5.90625-12.113282 13.425781-23.296875 22.277343-33.273438l-18.429687-18.429687c-3.46875-3.472657-3.46875-9.101563 0-12.570313 3.472656-3.472656 9.101563-3.472656 12.574219 0l18.425781 18.425782c9.980469-8.847657 21.160156-16.367188 33.277344-22.277344l-9.957031-24.039063c-1.882813-4.535156.273437-9.738281 4.808593-11.617187 4.535157-1.878906 9.738281.273437 11.617188 4.8125l9.957031 24.039062c12.425781-4.289062 25.601562-6.964844 39.28125-7.777344v-26.054687c0-4.910156 3.980469-8.890625 8.890625-8.890625s8.890625 3.976562 8.890625 8.890625v26.054687c13.679688.8125 26.855469 3.488282 39.28125 7.777344l9.957031-24.039062c1.878907-4.535156 7.082031-6.691406 11.617188-4.8125 4.535156 1.878906 6.6875 7.082031 4.808593 11.617187l-9.957031 24.039063c12.113281 5.910156 23.296875 13.429687 33.273438 22.277344l18.429687-18.425782c3.46875-3.472656 9.101563-3.472656 12.570313 0 3.472656 3.472656 3.472656 9.101563 0 12.570313l-18.425781 18.429687c8.847656 9.976563 16.367187 21.160156 22.277343 33.273438l24.039063-9.960938c4.539062-1.878906 9.738281.277344 11.617187 4.8125 1.878907 4.539063-.273437 9.738282-4.8125 11.617188l-24.035156 9.957031c4.289063 12.425781 6.960937 25.601563 7.773437 39.28125h26.058594c4.910156 0 8.890625 3.980469 8.890625 8.890625zm0 0" fill="#f7ad3b"/></svg>