<svg height="512pt" viewBox="0 0 512 512" width="512pt" xmlns="http://www.w3.org/2000/svg"><path d="m512 256c0 141.386719-114.613281 256-256 256s-256-114.613281-256-256 114.613281-256 256-256 256 114.613281 256 256zm0 0" fill="#cc4978"/><path d="m508.21875 300c-20.859375 120.417969-125.839844 212-252.21875 212s-231.359375-91.582031-252.21875-212zm0 0" fill="#b34068"/><path d="m470 405c0 35.898438-33.578125 65-75 65-33.367188 0-61.632812-18.890625-71.367188-45h-233.632812c-11.046875 0-20-8.953125-20-20s8.953125-20 20-20h233.632812c9.734376-26.109375 38-45 71.367188-45 41.421875 0 75 29.101562 75 65zm0 0" fill="#f9c77e"/><path d="m469.179688 414.609375c-5.359376 31.339844-36.527344 55.390625-74.179688 55.390625-33.367188 0-61.632812-18.890625-71.367188-45h-233.136718c-10.914063 0-20.191406-8.535156-20.488282-19.445312-.191406-7.015626 3.238282-13.226563 8.546876-16.941407 2.078124 8.824219 9.984374 15.402344 19.445312 15.402344h216.441406c9.617188 0 18.46875 4.921875 23.867188 12.878906 13.027344 19.21875 37.117187 32.121094 64.691406 32.121094 28.65625 0 53.550781-13.933594 66.179688-34.40625zm0 0" fill="#f7b95f"/><path d="m325.175781 215.667969c0 57.070312-51.40625 103.332031-114.816406 103.332031s-114.8125-46.265625-114.8125-103.332031c0-33.371094 25.148437-175.667969 114.8125-175.667969 89.667969 0 114.816406 142.296875 114.816406 175.667969zm0 0" fill="#fbf1d1"/><path d="m170.332031 68.5c0-4.167969.25-8.277344.714844-12.316406 10.214844-10.089844 24.085937-16.109375 38.886719-16.183594h.425781c64.21875 0 95.339844 72.980469 107.835937 126.667969-12.71875 5.363281-26.691406 8.332031-41.363281 8.332031-58.816406 0-106.5-47.683594-106.5-106.5zm0 0" fill="#fff5f5"/><path d="m340.722656 230.632812c0 58.675782-47.859375 107.289063-110.363281 115.949219v62.417969h26.523437c16.28125 0 29.476563 13.199219 29.476563 29.476562 0 5.523438-4.476563 10-10 10h-132c-5.519531 0-10-4.476562-10-10 0-16.277343 13.199219-29.476562 29.480469-29.476562h26.519531v-62.417969c-62.5-8.660156-110.359375-57.273437-110.359375-115.949219 0-7.945312 1.261719-21.332031 4.183594-37.515624.429687-2.382813 2.503906-4.117188 4.921875-4.117188h242.507812c2.417969 0 4.496094 1.734375 4.925781 4.117188 2.921876 16.183593 4.183594 29.570312 4.183594 37.515624zm0 0" fill="#99c8d3"/><path d="m284.792969 429h-110.433594c-5.742187 0-10.355469-4.839844-9.976563-10.664062.34375-5.316407 4.996094-9.335938 10.320313-9.335938h25.65625c5.523437 0 10-4.476562 10-10v-30c0-5.742188 4.84375-10.355469 10.667969-9.980469 5.316406.34375 9.332031 4.996094 9.332031 10.324219v39.65625h26.523437c12.964844 0 23.964844 8.371094 27.910157 20zm51.746093-235.882812c-.429687-2.382813-2.507812-4.117188-4.925781-4.117188h-193.023437c-3.46875 18.027344-4.949219 33.023438-4.949219 41.632812 0 56.519532 44.410156 103.703126 103.539063 114.832032 59.128906-11.128906 103.542968-58.3125 103.542968-114.832032 0-7.945312-1.261718-21.332031-4.183594-37.515624zm0 0" fill="#afdbe1"/></svg>