<svg height="512pt" viewBox="0 0 512 512" width="512pt" xmlns="http://www.w3.org/2000/svg"><path d="m512 256c0 141.386719-114.613281 256-256 256-141.039062 0-256-114.960938-256-256 0-141.386719 114.613281-256 256-256 30.449219 0 59.648438 5.328125 86.734375 15.085938 2.199219.792968 4.226563 1.980468 6.054687 3.433593 20.75 16.546875 44.132813 29.925781 69.414063 39.425781 57.257813 46.949219 93.796875 118.234376 93.796875 198.054688zm0 0" fill="#ec3c52"/><path d="m468.390625 210.355469c0 63.554687-57.246094 115.078125-127.867187 115.078125-70.617188 0-127.867188-51.523438-127.867188-115.078125 0-37.167969 28.007812-195.636719 127.867188-195.636719.410156 0 .816406.007812 1.21875.015625 28.527343 10.136719 54.730468 25.179687 77.578124 44.132813 36.898438 49.78125 49.070313 126.988281 49.070313 151.488281zm0 0" fill="#f9c77e"/><path d="m371.242188 296.402344c-4.242188-.464844-8.484376-1.191406-12.710938-2.191406-71.824219-16.996094-112.253906-105.980469-90.300781-198.757813 3.828125-16.167969 9.292969-31.382813 16.097656-45.398437 10.371094-21.367188 31.972656-35.21875 55.726563-35.335938h.472656c.40625 0 .8125.007812 1.21875.011719 28.527344 10.140625 54.726562 25.183593 77.574218 44.132812 36.898438 49.785157 49.070313 126.992188 49.070313 151.488281v.796876c-.386719 51.605468-45.851563 90.890624-97.148437 85.253906zm0 0" fill="#fad39c"/><path d="m285.734375 374.921875c0 63.554687-57.25 115.078125-127.867187 115.078125-70.621094 0-127.867188-51.523438-127.867188-115.078125 0-37.167969 28.007812-195.636719 127.867188-195.636719 99.859374 0 127.867187 158.46875 127.867187 195.636719zm0 0" fill="#fbf1d1"/><path d="m285.734375 374.921875c0 .261719 0 .527344-.003906.792969-.386719 51.605468-45.847657 90.894531-97.144531 85.257812-4.242188-.46875-8.484376-1.195312-12.710938-2.195312-71.824219-16.996094-112.253906-105.980469-90.300781-198.753906 3.824219-16.167969 9.292969-31.386719 16.09375-45.402344 10.371093-21.367188 31.972656-35.21875 55.726562-35.335938h.472657c99.859374 0 127.867187 158.46875 127.867187 195.636719zm0 0" fill="#fff5f5"/><path d="m219.117188 383.644531c0 33.828125-27.421876 61.25-61.25 61.25-33.828126 0-61.253907-27.421875-61.253907-61.25s27.425781-61.253906 61.253907-61.253906c33.828124 0 61.25 27.425781 61.25 61.253906zm0 0" fill="#f7c32a"/><path d="m219.117188 383.644531c0 28.238281-19.109376 51.996094-45.101563 59.085938-25.992187-7.089844-45.105469-30.847657-45.105469-59.085938s19.113282-51.996093 45.105469-59.085937c25.992187 7.085937 45.101563 30.847656 45.101563 59.085937zm0 0" fill="#f5cf51"/></svg>