<svg height="512pt" viewBox="0 0 512 512.00011" width="512pt" xmlns="http://www.w3.org/2000/svg"><path d="m51.609375 410.144531c-33.425781-44.25-52.824219-99.6875-51.5507812-159.707031 2.9492182-138.898438 117.2500002-250.5625 256.1796872-250.4375 141.277344.128906 255.761719 114.695312 255.761719 256 0 41.636719-9.945312 80.945312-27.582031 115.691406-14.347657 28.261719-43.542969 45.894532-75.238281 45.894532h-342.683594c-5.859375 0-11.359375-2.769532-14.886719-7.441407zm0 0" fill="#6dcce4"/><path d="m322.578125 39.519531 7.878906-7.882812c1.050781-1.046875 2.472657-1.636719 3.953125-1.636719 3.085938 0 5.589844 2.503906 5.589844 5.589844v64.078125c0 11.046875-8.953125 20-20 20h-250c-11.046875 0-20-8.953125-20-20v-64.078125c0-3.085938 2.503906-5.589844 5.589844-5.589844 1.480468 0 2.902344.589844 3.953125 1.636719l7.878906 7.878906c1.953125 1.953125 5.117187 1.953125 7.070313 0l4.128906-4.128906c3.449218-3.449219 8.132812-5.386719 13.011718-5.386719 4.878907 0 9.558594 1.9375 13.007813 5.386719l4.128906 4.128906c1.953125 1.953125 5.117188 1.953125 7.070313 0l4.128906-4.128906c3.449219-3.449219 8.128906-5.386719 13.007812-5.386719 4.878907 0 9.5625 1.9375 13.011719 5.386719l4.128907 4.128906c1.953124 1.953125 5.117187 1.953125 7.070312 0l4.128906-4.128906c3.449219-3.449219 8.128906-5.386719 13.007813-5.386719 4.878906 0 9.558593 1.9375 13.011719 5.386719l4.128906 4.128906c1.953125 1.953125 5.117187 1.953125 7.070312 0l4.128906-4.128906c3.449219-3.449219 8.128907-5.386719 13.007813-5.386719s9.558594 1.9375 13.007813 5.386719l4.128906 4.128906c1.953125 1.953125 5.121094 1.953125 7.074218 0l4.128907-4.128906c3.449219-3.449219 8.128906-5.386719 13.007812-5.386719 4.878907 0 9.558594 1.9375 13.007813 5.386719l4.128906 4.128906c1.953125 1.953125 5.117188 1.953125 7.070312 0l4.128907-4.128906c3.453125-3.449219 8.132812-5.386719 13.011719-5.386719 4.878906 0 9.558593 1.9375 13.007812 5.386719l4.128906 4.128906c1.957032 1.953125 5.121094 1.953125 7.074219.003906zm0 0" fill="#d9a92f"/><path d="m340 65.589844v374.410156c0 33.136719-26.863281 60-60 60h-101.636719c-51.933593-16.511719-96.679687-49.136719-128.363281-92.007812v-342.402344c0-3.085938 2.503906-5.589844 5.589844-5.589844 1.484375 0 2.902344.589844 3.953125 1.636719l7.878906 7.878906c1.953125 1.953125 5.121094 1.953125 7.070313 0l4.128906-4.128906c3.449218-3.449219 8.132812-5.386719 13.011718-5.386719 4.878907 0 9.558594 1.9375 13.007813 5.386719l4.128906 4.128906c1.953125 1.953125 5.117188 1.953125 7.070313 0l4.128906-4.128906c3.449219-3.449219 8.128906-5.386719 13.007812-5.386719 4.878907 0 9.5625 1.9375 13.011719 5.386719l4.128907 4.128906c1.953124 1.953125 5.117187 1.953125 7.070312 0l4.128906-4.128906c3.449219-3.449219 8.128906-5.386719 13.007813-5.386719 4.878906 0 9.558593 1.9375 13.011719 5.386719l4.128906 4.128906c1.953125 1.953125 5.117187 1.953125 7.070312 0l4.128906-4.128906c3.449219-3.449219 8.128907-5.386719 13.007813-5.386719s9.558594 1.9375 13.007813 5.386719l4.128906 4.128906c1.953125 1.953125 5.121094 1.953125 7.074218 0l4.128907-4.128906c3.449219-3.449219 8.128906-5.386719 13.007812-5.386719 4.878907 0 9.558594 1.9375 13.007813 5.386719l4.128906 4.128906c1.953125 1.953125 5.117188 1.953125 7.070312 0l4.128907-4.128906c3.453125-3.449219 8.132812-5.386719 13.011719-5.386719 4.878906 0 9.558593 1.9375 13.007812 5.386719l4.128906 4.128906c1.953125 1.953125 5.121094 1.953125 7.070313 0l7.882812-7.878906c1.046875-1.046875 2.46875-1.636719 3.949219-1.636719 3.09375 0 5.59375 2.503906 5.59375 5.589844zm0 0" fill="#f7c32a"/><path d="m208.363281 500h-30c-51.933593-16.511719-96.679687-49.136719-128.363281-92.007812v-342.402344c0-3.085938 2.503906-5.589844 5.589844-5.589844 1.484375 0 2.902344.589844 3.953125 1.636719l7.878906 7.878906c1.953125 1.953125 5.121094 1.953125 7.070313 0l4.128906-4.128906c.511718-.507813 1.058594-.976563 1.621094-1.417969-.15625.511719-.242188 1.054688-.242188 1.621094v342.402344c31.683594 42.871093 76.429688 75.496093 128.363281 92.007812zm0 0" fill="#f1bd1f"/><path d="m265 180c0 38.660156-31.339844 70-70 70s-70-31.339844-70-70 31.339844-70 70-70 70 31.339844 70 70zm0 0" fill="#d9a92f"/><path d="m189.167969 218.625c0 3.222656-2.613281 5.832031-5.832031 5.832031-22.554688 0-40.835938-18.28125-40.835938-40.832031 0-3.222656 2.613281-5.832031 5.835938-5.832031 8.675781 0 16.71875 2.703125 23.332031 7.316406 10.578125 7.378906 17.5 19.640625 17.5 33.515625zm52.5-40.832031c-12.222657 0-23.1875 5.367187-30.671875 13.875-6.324219 7.191406-10.160156 16.625-10.160156 26.957031 0 3.222656 2.609374 5.832031 5.832031 5.832031 22.550781 0 40.832031-18.28125 40.832031-40.832031 0-3.222656-2.613281-5.832031-5.832031-5.832031zm-42.542969-40.542969c-2.277344-2.277344-5.972656-2.277344-8.25 0-8.535156 8.535156-12.5 19.910156-11.898438 31.082031.519532 9.703125 4.488282 19.253907 11.898438 26.667969 2.277344 2.277344 5.972656 2.277344 8.25 0 15.945312-15.949219 15.945312-41.804688 0-57.75zm0 0" fill="#fff5f5"/><path d="m281 417.183594-155.539062-31.765625c-15.777344-3.222657-21.472657-22.8125-9.882813-33.992188l155.535156-150.03125c7.75-7.472656 20.023438-7.472656 27.773438 0l155.535156 150.03125c11.589844 11.179688 5.894531 30.769531-9.882813 33.992188l-155.535156 31.765625c-2.644531.539062-5.363281.539062-8.003906 0zm0 0" fill="#fae8b1"/><path d="m454.421875 351.425781-155.535156-150.03125c-3.394531-3.273437-7.652344-5.113281-12.019531-5.519531l-59.722657 68c-2.09375 2.382812-.402343 6.125 2.773438 6.125h4.867187c2.609375 0 4.941406 1.910156 5.191406 4.511719.285157 2.980469-2.054687 5.488281-4.976562 5.488281h-20c-.054688 0-.105469 0-.15625 0-1.125-.039062-2.214844.398438-2.957031 1.242188l-19.875 22.632812c-2.09375 2.382812-.402344 6.125 2.773437 6.125 2.609375 0 4.941406 1.910156 5.191406 4.511719.28125 2.980469-2.054687 5.488281-4.976562 5.488281h-11.796875c-1.753906 0-3.261719 1.234375-3.625 2.949219-2.578125 12.261719 3.585937 26.023437 15.433594 28.878906l155.539062 37.496094c2.640625.636719 5.363281.636719 8.003907 0l101.96875-24.582031c-.230469-4.761719-2.167969-9.523438-6.101563-13.316407zm-199.421875-31.425781h-10c-2.761719 0-5-2.238281-5-5s2.238281-5 5-5h10c2.761719 0 5 2.238281 5 5s-2.238281 5-5 5zm50-60h-10c-2.761719 0-5-2.238281-5-5s2.238281-5 5-5h10c2.761719 0 5 2.238281 5 5s-2.238281 5-5 5zm30 70h-10c-2.761719 0-5-2.238281-5-5s2.238281-5 5-5h10c2.761719 0 5 2.238281 5 5s-2.238281 5-5 5zm10-50h-10c-2.761719 0-5-2.238281-5-5s2.238281-5 5-5h10c2.761719 0 5 2.238281 5 5s-2.238281 5-5 5zm50 60h-10c-2.761719 0-5-2.238281-5-5s2.238281-5 5-5h10c2.761719 0 5 2.238281 5 5s-2.238281 5-5 5zm0 0" fill="#fbf1d1"/><path d="m479.871094 368c-.539063 5.542969-1.335938 11.011719-2.367188 16.402344-44.320312 76.292968-126.917968 127.597656-221.503906 127.597656-35.25 0-68.835938-7.128906-99.398438-20.015625-36.914062-30.78125-61.679687-74.601563-66.472656-123.984375zm0 0" fill="#ec3c52"/><path d="m490 368v10c0 5.523438-4.476562 10-10 10h-61c5.742188 0 10.355469 4.839844 9.976562 10.664062-.34375 5.316407-4.992187 9.335938-10.320312 9.335938h-268.964844c-6.839844 0-11.699218 6.726562-9.480468 13.195312 10.945312 31.933594 28.871093 60.226563 51.78125 82.738282-12.171876-3.132813-23.988282-7.140625-35.390626-11.949219-31.847656-26.554687-54.636718-62.820313-63.375-103.984375h-3.226562c-5.523438 0-10-4.476562-10-10v-10c0-5.523438 4.476562-10 10-10h390c5.523438 0 10 4.476562 10 10zm0 0" fill="#d73247"/><path d="m480 388h-361c-5.523438 0-10-4.476562-10-10v-10c0-5.523438 4.476562-10 10-10h361c5.523438 0 10 4.476562 10 10v10c0 5.523438-4.476562 10-10 10zm0 0" fill="#ec3c52"/></svg>