<svg height="512pt" viewBox="0 0 512 512.00022" width="512pt" xmlns="http://www.w3.org/2000/svg"><path d="m512 256c0 141.386719-114.617188 256-256 256-59.285156 0-113.851562-20.160156-157.246094-53.988281-2.785156-2.171875-4.417968-5.5-4.417968-9.03125v-133.699219c0-42.496094-34.453126-76.949219-76.949219-76.949219-9.195313 0-16.25-8.117187-15.007813-17.226562 16.894532-123.960938 122.507813-219.691407 250.769532-221.089844 141.519531-1.542969 258.851562 114.460937 258.851562 255.984375zm0 0" fill="#2b697a"/><path d="m380 110c0 5.523438 4.476562 10 10 10h15c8.285156 0 15 6.714844 15 15s-6.714844 15-15 15h-130c-8.285156 0-15-6.714844-15-15s6.714844-15 15-15h75c5.523438 0 10-4.476562 10-10s-4.476562-10-10-10h-35c-8.285156 0-15-6.714844-15-15s6.714844-15 15-15h116.882812c9.796876 9.265625 18.851563 19.300781 27.089844 30h-68.972656c-5.523438 0-10 4.476562-10 10zm0 0" fill="#347d91"/><path d="m460 360v50.660156c-5.097656 6.714844-10.523438 13.167969-16.246094 19.339844h-375.507812c-42.34375-45.671875-68.246094-106.804688-68.246094-174 0-12.015625.847656-23.828125 2.449219-35.398438 41.230469-61.269531 108.871093-103.285156 186.609375-109.730468-1.300782-10.546875-3.886719-20.921875-7.398438-31.011719-1.074218-3.085937-1.660156-6.40625-1.660156-9.859375 0-16.566406 13.429688-30 30-30s30 13.433594 30 30c0 3.457031-.582031 6.773438-1.660156 9.859375-3.511719 10.09375-6.101563 20.472656-7.398438 31.019531 128.269532 10.640625 229.058594 118.101563 229.058594 249.121094zm0 0" fill="#e2902a"/><path d="m200 65c0-8.285156 6.714844-15 15-15s15 6.714844 15 15-6.714844 15-15 15-15-6.714844-15-15zm70 52.265625c-109.089844 26.875-190 125.347656-190 242.734375 0 11.046875 8.953125 20 20 20h299.65625c5.328125 0 9.980469 4.019531 10.324219 9.335938.375 5.824218-4.238281 10.664062-9.980469 10.664062l60 30v-70c0-117.386719-80.910156-215.859375-190-242.734375zm0 0" fill="#f7ad3b"/><path d="m278.65625 152.007812c6.003906-8.328124 48.851562 10.59375 76.667969 32 48.085937 37.003907 72.058593 97.425782 62.667969 104.667969-16.261719 12.539063-151.460938-119.835937-139.335938-136.667969zm0 0" fill="#f7b95f"/><path d="m490 404.464844c0 30.375-24.625 55-55 55h-334.355469c-21.96875-16.796875-41.144531-37.066406-56.691406-60h441.046875c2.761719 0 5 2.242187 5 5zm0 0" fill="#f7d674"/><path d="m490 404.464844c0 8.808594-2.082031 17.125-5.761719 24.507812-7.378906 3.679688-15.699219 5.761719-24.503906 5.761719h-328.394531c-23.417969 0-43.40625-14.644531-51.339844-35.269531h405c2.761719 0 5 2.242187 5 5zm0 0" fill="#f8df92"/></svg>