<svg height="512pt" viewBox="0 0 512.00031 512" width="512pt" xmlns="http://www.w3.org/2000/svg"><path d="m511.957031 251.21875c2.621094 143.296875-111.628906 260.226562-254.945312 260.78125-53.191407.203125-102.625-15.824219-143.644531-43.398438-1.042969-.703124-1.949219-1.589843-2.695313-2.601562-16.738281-22.667969-37.121094-42.476562-60.289063-58.558594-1.035156-.71875-1.949218-1.597656-2.683593-2.625-30.019531-41.9375-47.699219-93.308594-47.699219-148.816406 0-141.386719 114.613281-256 256-256 139.789062 0 253.40625 112.042969 255.957031 251.21875zm0 0" fill="#6dcce4"/><path d="m403.28125 305.984375c-13.667969 13.667969-35.828125 13.667969-49.496094 0l-142.835937-142.835937c-13.667969-13.667969-13.667969-35.828126 0-49.496094 11.011719-11.011719 27.53125-13.144532 40.683593-6.414063 1.601563-5.417969 4.539063-10.523437 8.8125-14.800781 13.667969-13.667969 35.828126-13.667969 49.496094 0l2.542969 2.542969c41.339844-.816407 83.925781-19.089844 116.777344-52.644531 43.582031 34.785156 47.605469 103.246093 8.722656 153.808593-3.59375 4.671875-7.429687 9.027344-11.46875 13.0625 11.601563 13.75 10.933594 34.328125-2.023437 47.28125-4.273438 4.273438-9.378907 7.210938-14.796876 8.8125 6.730469 13.15625 4.597657 29.671875-6.414062 40.683594zm0 0" fill="#db5886"/><path d="m409.695312 265.300781c2.246094 4.386719 3.496094 9.148438 3.769532 13.953125-1.074219-.144531-2.152344-.292968-3.234375-.457031-47.921875-7.4375-87.179688-36.792969-109.742188-76.726563-12.738281-22.542968.726563-50.96875 26.265625-55.222656 50.617188-8.433594 94.578125-42.402344 116.664063-90.386718 29.761719 37.082031 28.710937 95.285156-5.433594 139.683593-3.59375 4.671875-7.429687 9.027344-11.46875 13.0625 11.601563 13.75 10.933594 34.328125-2.023437 47.28125-4.273438 4.273438-9.378907 7.210938-14.796876 8.8125zm0 0" fill="#e27196"/><path d="m380.300781 332.503906-49.496093 49.496094c-3.90625 3.90625-10.238282 3.90625-14.144532 0l-4.378906-4.378906-198.410156 91.320312c-25.882813-17.3125-48.441406-39.207031-66.492188-64.542968l91.9375-199.742188-4.382812-4.382812c-3.902344-3.902344-3.902344-10.234376 0-14.140626l49.5-49.496093c3.902344-3.90625 10.234375-3.90625 14.140625 0l181.726562 181.722656c3.90625 3.90625 3.90625 10.238281 0 14.144531zm0 0" fill="#f8df92"/><path d="m380.300781 332.503906-49.496093 49.496094c-3.90625 3.90625-10.238282 3.90625-14.144532 0l-4.378906-4.378906-198.410156 91.320312c-17.410156-11.644531-33.320313-25.355468-47.359375-40.804687 4.164062-8.078125 14.988281-9.769531 21.414062-3.339844l19.078125 19.074219c2.984375 2.984375 7.855469 2.929687 10.765625-.164063 2.816407-2.988281 2.523438-7.761719-.382812-10.664062l-28.320313-28.320313c-4.125-4.125-5.113281-10.445312-2.4375-15.632812l1.144532-2.226563c4.164062-8.078125 14.988281-9.769531 21.414062-3.339843l41.457031 41.457031c2.929688 2.925781 7.679688 2.925781 10.609375 0 3.910156 0 5.871094-4.734375 3.105469-7.5l-54.03125-54.03125c-4.125-4.125-5.109375-10.445313-2.4375-15.632813l1.144531-2.222656c4.164063-8.082031 14.988282-9.773438 21.414063-3.34375l60.300781 60.300781c2.929688 2.929688 7.679688 2.929688 10.609375 0 2.925781-2.929687 2.925781-7.675781 0-10.605469l-69.769531-69.769531c-4.125-4.125-5.109375-10.445312-2.4375-15.628906l1.144531-2.226563c4.164063-8.082031 14.988281-9.769531 21.414063-3.34375l78.925781 78.921876c2.902343 2.90625 7.671875 3.199218 10.660156.382812 3.09375-2.910156 3.148437-7.78125.167969-10.765625l-88.613282-88.613281c-4.125-4.125-5.113281-10.441406-2.441406-15.628906l1.148438-2.226563c4.164062-8.082031 14.988281-9.769531 21.414062-3.34375l103.292969 103.292969c2.984375 2.984375 7.855469 2.929687 10.765625-.164063 2.816406-2.992187 2.523438-7.761719-.382812-10.664062l-119.457032-119.464844.058594-.117187-9.335938-9.332032c-3.902343-3.90625-3.902343-10.238281 0-14.144531l49.5-49.496094c3.902344-3.90625 10.234376-3.90625 14.140626 0l158.746093 158.746094c3.90625 3.90625 3.90625 10.238281 0 14.144531zm0 0" fill="#fae8b1"/></svg>