<svg height="512pt" viewBox="0 0 512 512" width="512pt" xmlns="http://www.w3.org/2000/svg"><path d="m512 256c0 141.386719-114.613281 256-256 256s-256-114.613281-256-256 114.613281-256 256-256 256 114.613281 256 256zm0 0" fill="#6dcce4"/><path d="m450 280c0 38.660156-31.339844 70-70 70h-250c-38.660156 0-70-31.339844-70-70 0-23.8125 11.902344-44.839844 30.070312-57.480469 1.289063-23.699219 20.910157-42.519531 44.929688-42.519531 19.59375 0 36.25 12.523438 42.429688 30h165.140624c6.179688-17.476562 22.835938-30 42.429688-30 24.851562 0 45 20.148438 45 45 0 1.914062-.132812 3.796875-.367188 5.644531 12.585938 12.660157 20.367188 30.097657 20.367188 49.355469zm0 0" fill="#bb5335"/><path d="m451 280c0 38.660156-31.339844 70-70 70h-250c-38.660156 0-70-31.339844-70-70 0-12.398438 3.230469-24.035156 8.886719-34.132812 12.222656 20.441406 34.566406 34.132812 60.113281 34.132812h250c26.261719 0 49.136719-14.472656 61.113281-35.867188 6.273438 10.488282 9.886719 22.753907 9.886719 35.867188zm0 0" fill="#a0452c"/><path d="m364 135.839844c0 19.332031-15.671875 35-35 35h-36.671875c-10.914063 10.195312-24.503906 17.046875-39.773437 19.042968-21.671876 2.828126-42.589844-4.664062-58.871094-19.042968h-8.683594c-19.328125 0-35-15.667969-35-35 0-19.328125 15.671875-35 35-35h13.320312c20.441407-22.820313 32.59375-54.710938 32.222657-89.386719 42.714843-4.792969 82.21875 30.324219 88.585937 79.074219.449219 3.464844.71875 6.90625.820313 10.3125h9.050781c19.328125 0 35 15.671875 35 35zm0 0" fill="#fff5f5"/><path d="m400.351562 24.480469c-28.886718 11.574219-49.664062 38.992187-51.730468 71.265625-.253906 3.925781-3.402344 7.035156-7.339844 7.113281-4.386719.089844-7.914062-3.59375-7.636719-7.972656 2.402344-38.195313 26.976563-70.667969 61.15625-84.359375 3.761719-1.503906 8.042969.316406 9.632813 4.042968l.007812.019532c1.652344 3.863281-.191406 8.332031-4.089844 9.890625zm0 0" fill="#a0452c"/><path d="m379.085938 126.425781c-6.441407 24.039063-31.171876 38.292969-55.210938 31.796875-23.078125-6.238281-37.414062-29.925781-32.175781-53.253906.65625-2.917969 1.578125-5.703125 2.734375-8.332031 7.539062-17.167969 27.636718-24.421875 45.027344-17.40625 1.679687.675781 3.421874 1.261719 5.21875 1.742187 1.792968.480469 3.589843.84375 5.382812 1.097656 18.675781 2.636719 32.449219 19.132813 30.265625 37.871094-.25 2.15625-.664063 4.324219-1.242187 6.484375zm0 0" fill="#d73247"/><path d="m371.757812 141.59375c-10.699218 14.410156-29.488281 21.597656-47.882812 16.628906-23.078125-6.238281-37.414062-29.925781-32.175781-53.253906.65625-2.917969 1.578125-5.703125 2.734375-8.332031 5.699218-12.980469 18.582031-20.289063 32.042968-20.050781-.371093.703124-.730468 1.417968-1.054687 2.15625-1.152344 2.632812-2.074219 5.414062-2.730469 8.332031-5.238281 23.328125 9.09375 47.015625 32.175782 53.253906 5.675781 1.535156 11.386718 1.898437 16.890624 1.265625zm0 0" fill="#c0293e"/><path d="m369 220.839844h-224c-19.328125 0-35-15.667969-35-35 0-19.328125 15.671875-35 35-35h224c19.328125 0 35 15.671875 35 35 0 19.332031-15.671875 35-35 35zm0 0" fill="#fff5f5"/><path d="m415.414062 340.90625c.6875.6875.898438 1.710938.542969 2.613281l-58.246093 147.460938c-31.179688 13.511719-65.566407 21.019531-101.710938 21.019531s-70.535156-7.507812-101.714844-21.019531l-58.246094-147.457031c-.355468-.902344-.140624-1.929688.542969-2.613282l20.199219-20.195312c.453125-.457032 1.074219-.714844 1.71875-.714844s1.265625.257812 1.71875.714844l24.0625 24.058594c.949219.949218 2.488281.949218 3.4375 0l24.0625-24.058594c.453125-.457032 1.074219-.714844 1.71875-.714844s1.265625.257812 1.71875.714844l24.0625 24.058594c.949219.949218 2.488281.949218 3.4375 0l24.0625-24.058594c.453125-.457032 1.074219-.714844 1.71875-.714844s1.265625.257812 1.71875.714844l24.0625 24.058594c.949219.949218 2.488281.949218 3.4375 0l24.0625-24.058594c.453125-.457032 1.074219-.714844 1.71875-.714844s1.265625.257812 1.71875.714844l24.0625 24.058594c.949219.949218 2.488281.949218 3.4375 0l24.0625-24.058594c.453125-.457032 1.074219-.714844 1.71875-.714844s1.265625.257812 1.71875.714844l24.0625 24.058594c.949219.949218 2.488281.949218 3.4375 0l24.0625-24.058594c.453125-.457032 1.074219-.714844 1.71875-.714844s1.265625.257812 1.71875.714844zm0 0" fill="#ef586b"/><path d="m284.640625 510.199219c.285156.03125.570313.066406.855469.097656-9.679688 1.109375-19.515625 1.703125-29.496094 1.703125-36.144531 0-70.535156-7.507812-101.714844-21.019531l-58.246094-147.457031c-.355468-.902344-.140624-1.929688.542969-2.613282l20.199219-20.195312c.453125-.457032 1.074219-.714844 1.71875-.714844s1.265625.257812 1.71875.714844l24.0625 24.058594c.863281.863281 37.023438 85.945312 37.023438 85.945312 17.183593 43.5 56.859374 74.25 103.335937 79.480469zm0 0" fill="#ec3c52"/><path d="m279.898438 98.546875c.867187 6.167969-3.898438 11.453125-9.898438 11.453125h-38.484375c-.160156.015625-.324219.03125-.484375.050781-18.746094 2.113281-17.0625 29.949219 1.804688 29.949219h17.164062c6.011719 0 10.78125 5.304688 9.894531 11.484375-.714843 4.960937-5.195312 8.515625-10.207031 8.515625h-58.175781c-17.691407 1.75-31.511719 16.675781-31.511719 34.824219 0 10.328125 4.476562 19.609375 11.589844 26.015625h-26.589844c-20.046875 0-36.160156-16.855469-34.933594-37.167969 1.089844-18.082031 17.457032-32.832031 35.570313-32.832031h7.734375c-2.503906-5.273438-3.734375-11.269532-3.277344-17.59375 1.332031-18.394532 17.128906-32.40625 35.574219-32.40625 8.480469 0 16.503906-4.050782 21.371093-10.996094 15.121094-21.570312 23.816407-48.980469 23.507813-78.390625 17.96875-2.015625 35.367187 3.03125 49.972656 13.1875-.398437 21.460937-5.59375 41.742187-14.554687 59.320313-1.410156 2.765624.589844 6.039062 3.695312 6.039062 5.027344 0 9.535156 3.566406 10.238282 8.546875zm0 0" fill="#fccfc9"/></svg>