<svg height="512pt" viewBox="0 0 512 512" width="512pt" xmlns="http://www.w3.org/2000/svg"><path d="m512 256c0 141.386719-114.613281 256-256 256s-256-114.613281-256-256 114.613281-256 256-256 256 114.613281 256 256zm0 0" fill="#6dcce4"/><path d="m329.929688 273.484375-59.152344 59.152344c-17.816406 17.816406-46.707032 17.816406-64.527344 0l-26.886719-26.890625c-17.816406-17.816406-17.816406-46.707032 0-64.527344l22.375-22.375 36.777344-36.773438c17.820313-17.820312 46.707031-17.820312 64.527344 0l26.886719 26.886719c17.820312 17.816407 17.820312 46.707031 0 64.527344zm-122.476563 81.710937c-14.085937-14.085937-36.921875-14.085937-51.003906 0l-21.253907 21.25c-14.082031 14.085938-14.082031 36.921876 0 51.007813l29.070313 29.066406 17.683594 17.6875c14.085937 14.085938 36.921875 14.085938 51.007812 0l21.25-21.253906c14.085938-14.082031 14.085938-36.917969 0-51.003906zm0 0" fill="#fae8b1"/><path d="m329.929688 273.484375-59.152344 59.152344c-17.816406 17.816406-46.707032 17.816406-64.527344 0l-.535156-.539063c-17.820313-17.820312-17.820313-46.710937 0-64.527344l32.6875-32.6875 26.460937-26.464843c17.820313-17.820313 46.710938-17.820313 64.527344 0l.539063.535156c17.820312 17.820313 17.820312 46.710937 0 64.53125zm-122.476563 81.710937c-14.085937-14.085937-36.921875-14.085937-51.003906 0l-.425781.425782c-14.085938 14.082031-14.085938 36.917968 0 51.003906l46.753906 46.753906c14.082031 14.085938 36.917968 14.085938 51.003906 0l.425781-.425781c14.085938-14.082031 14.082031-36.917969 0-51.003906zm0 0" fill="#fbf1d1"/><path d="m460.5625 306.308594c-6.421875 15.324218-24.097656 22.519531-39.480469 16.234375-47.328125-19.339844-95.226562-50.980469-137.933593-93.691407-42.707032-42.707031-74.351563-90.605468-93.691407-137.933593-6.285156-15.382813.910157-33.0625 16.234375-39.480469 70.726563-29.632812 155.386719-15.671875 212.964844 41.90625s71.539062 142.238281 41.90625 212.964844zm-227.164062-54.367188c-55.902344-23.425781-122.824219-12.386718-168.335938 33.121094-45.507812 45.511719-56.546875 112.429688-33.121094 168.335938 5.074219 12.113281 19.046875 17.800781 31.203125 12.832031 37.410157-15.289063 75.269531-40.300781 109.03125-74.058594 33.753907-33.757813 58.765625-71.617187 74.054688-109.027344 4.96875-12.15625-.71875-26.128906-12.832031-31.203125zm0 0" fill="#d58a2d"/><path d="m460.5625 306.308594c-6.421875 15.324218-24.097656 22.519531-39.480469 16.238281-38.878906-15.890625-78.140625-40.089844-114.597656-71.894531-31.804687-36.457032-56.003906-75.71875-71.890625-114.597656-6.285156-15.382813.910156-33.0625 16.234375-39.480469 61.28125-25.679688 133.027344-18.613281 188.550781 21.183593 39.796875 55.523438 46.859375 127.269532 21.183594 188.550782zm-227.164062-54.367188c-48.441407-20.296875-105.148438-14.714844-149.035157 16.742188-31.457031 43.886718-37.042969 100.597656-16.746093 149.035156 5.074218 12.113281 19.050781 17.804688 31.207031 12.835938 30.730469-12.5625 61.765625-31.6875 90.582031-56.828126 25.140625-28.816406 44.265625-59.847656 56.824219-90.582031 4.96875-12.15625-.71875-26.128906-12.832031-31.203125zm0 0" fill="#e2902a"/></svg>