<svg height="512pt" viewBox="0 0 512 512.00013" width="512pt" xmlns="http://www.w3.org/2000/svg"><path d="m512 256c0 141.117188-113.613281 255.3125-254.726562 255.996094-34.089844.167968-66.636719-6.335938-96.421876-18.269532-2.339843-.9375-3.851562-3.222656-3.851562-5.742187 0-13.429687-10.886719-24.316406-24.320312-24.316406h-26.386719c-22.300781-16.105469-41.910157-35.703125-58.011719-58.007813-.617188-.859375-.949219-1.894531-.949219-2.949218v-24.8125c0-13.75-11.144531-24.898438-24.898437-24.898438-2.050782 0-3.910156-1.242188-4.664063-3.152344-11.789062-29.902344-18.128906-62.550781-17.753906-96.730468 1.550781-140.753907 115.351563-253.1875005 256.117187-253.117188 141.324219.0703125 255.867188 114.660156 255.867188 256zm0 0" fill="#f1b6c9"/><path d="m474.460938 158.152344c-6.875-4.648438-13.882813-8.246094-20.910157-10.851563-29.316406-10.859375-59.117187 14.523438-53.179687 45.214844 2.683594 13.875.371094 26.21875-7.652344 34.246094-17.574219 17.574219-55.878906 7.757812-85.558594-21.921875-29.679687-29.679688-39.496094-67.984375-21.921875-85.558594 11.46875-11.464844 31.757813-11.265625 52.722657-1.5 11.363281 5.292969 24.496093 5.09375 35.625-.671875 39.632812-20.523437 89.179687-21.304687 126.269531 1.734375 11.167969 6.933594 14.261719 21.824219 6.96875 32.761719-7.148438 10.71875-21.6875 13.761719-32.363281 6.546875zm0 0" fill="#00824d"/><path d="m400.371094 192.515625c.527344 2.726563.855468 5.390625.988281 7.976563-1.390625 4.519531-1.988281 9.382812-1.632813 14.449218-1.417968 4.53125-3.730468 8.539063-7.007812 11.820313-17.574219 17.570312-55.878906 7.757812-85.558594-21.921875-14.792968-14.792969-24.648437-31.730469-28.640625-47.171875 1.4375-4.175781 3.652344-7.882813 6.71875-10.949219 11.464844-11.464844 31.757813-11.265625 52.722657-1.5 11.359374 5.292969 24.496093 5.09375 35.625-.671875 39.632812-20.523437 89.175781-21.304687 126.269531 1.734375 2.613281 1.621094 4.777343 3.683594 6.472656 6.023438-7.300781 10.144531-21.429687 12.898437-31.867187 5.847656-6.875-4.648438-13.882813-8.246094-20.910157-10.851563-29.316406-10.859375-59.117187 14.523438-53.179687 45.214844zm0 0" fill="#019256"/><path d="m421.207031 357.207031-219.972656 127c-12.589844 7.269531-26.441406 10.339844-39.957031 9.6875-20.253906-8.070312-39.226563-18.660156-56.550782-31.371093-1.125-1.625-2.207031-3.292969-3.210937-5.035157-5.96875-10.339843-9.121094-21.53125-9.695313-32.6875-.0625-1.199219-.570312-2.320312-1.421874-3.171875-.007813-.003906-.011719-.007812-.015626-.011718-.003906-.003907-.007812-.011719-.011718-.015626-.851563-.847656-1.972656-1.359374-3.171875-1.421874-11.15625-.574219-22.347657-3.726563-32.6875-9.695313-1.742188-1.003906-3.410157-2.089844-5.035157-3.210937-12.710937-17.324219-23.296874-36.296876-31.371093-56.550782-.652344-13.515625 2.417969-27.367187 9.6875-39.957031l127-219.972656c20.15625-34.914063 64.804687-46.875 99.71875-26.71875 16.332031 9.429687 27.636719 24.21875 32.984375 40.863281 4.644531 14.460938 16.875 25.117188 31.867187 27.574219 14.542969 2.386719 28.503907 9.183593 39.722657 20.402343s18.015624 25.179688 20.402343 39.722657c2.457031 14.988281 13.113281 27.222656 27.574219 31.867187 16.644531 5.34375 31.433594 16.648438 40.863281 32.984375 20.15625 34.914063 8.195313 79.5625-26.71875 99.71875zm0 0" fill="#03ad6b"/><path d="m421.207031 357.207031-166.820312 96.3125c-37.539063 21.675781-85.210938 16.867188-116.691407-12.933593-.691406-.65625-1.378906-1.324219-2.054687-2-.027344-.023438-.046875-.046876-.074219-.070313-2.804687-2.8125-1.085937-7.621094 2.855469-8.113281 21.429687-2.6875 45.535156-11.210938 71.453125-25.519532 51.972656-28.691406 106.523438-77.773437 153.65625-138.234374 4.984375-6.390626 4.378906-15.71875-1.785156-20.988282-6.546875-5.589844-16.363282-4.539062-21.59375 2.183594-44.757813 57.496094-96.175782 103.941406-144.777344 130.777344-11.988281 6.617187-23.433594 11.808594-34.148438 15.546875-26.917968 9.394531-52.789062-16.476563-43.394531-43.394531 3.738281-10.714844 8.929688-22.160157 15.546875-34.148438 26.835938-48.601562 73.28125-100.019531 130.777344-144.777344 6.722656-5.230468 7.773438-15.046875 2.183594-21.59375-5.269532-6.167968-14.601563-6.765625-21-1.777344-49.128906 38.300782-90.746094 81.503907-120.011719 124.234376-1.308594 1.914062-2.824219 4.238281-4.417969 6.753906-2.714844 4.289062-9.339844 1.28125-7.878906-3.582032 18.40625-61.335937 58.964844-128.210937 118.066406-187.316406.082032-.082031.164063-.164062.246094-.246094 16.472656-16.449218 44.605469-11.1875 53.761719 10.214844.90625 2.128906 1.714843 4.292969 2.417969 6.492188 4.59375 14.371094 16.671874 25.054687 31.570312 27.441406 14.640625 2.34375 28.703125 9.160156 39.988281 20.445312 11.21875 11.21875 18.019531 25.179688 20.40625 39.722657 2.457031 14.988281 13.113281 27.222656 27.574219 31.867187 16.644531 5.34375 31.433594 16.648438 40.863281 32.984375 20.15625 34.914063 8.195313 79.5625-26.71875 99.71875zm0 0" fill="#23c77d"/></svg>