<svg height="512pt" viewBox="0 0 512 512" width="512pt" xmlns="http://www.w3.org/2000/svg"><path d="m512 256c0 141.386719-114.613281 256-256 256s-256-114.613281-256-256 114.613281-256 256-256 256 114.613281 256 256zm0 0" fill="#6dcce4"/><path d="m412.128906 136.015625c-12.082031 12.082031-15.511718 30.464844-8.261718 45.9375 26.613281 56.8125 16.46875 126.578125-30.457032 173.503906l-115.664062 115.664063-216.867188-216.867188 115.664063-115.664062c46.925781-46.925782 116.691406-57.074219 173.503906-30.457032 15.472656 7.25 33.855469 3.820313 45.9375-8.261718l42.054687-42.058594c13.21875 10.820312 25.328126 22.929688 36.148438 36.148438zm0 0" fill="#ec3c52"/><path d="m436.289062 74.265625-48.675781 48.675781c-13.941406 13.941406-34 19.046875-50.105469 12.429688-26.554687-10.90625-56.492187-13.628906-86.324218-8.417969-42.195313 7.375-56.054688 61.300781-22.636719 88.097656 15.875 12.726563 30.511719 28.683594 42.824219 47.472657.6875 1.050781 1.367187 2.105468 2.035156 3.164062 36.671875 58.140625 27.601562 134.066406-21.007812 182.675781l-185.464844-185.464843-8.707032 8.703124-17.347656-17.347656 115.664063-115.664062c46.925781-46.925782 116.691406-57.074219 173.503906-30.457032 15.472656 7.25 33.855469 3.820313 45.9375-8.261718l42.054687-42.058594c6.34375 5.195312 12.433594 10.683594 18.25 16.453125zm0 0" fill="#d73247"/><path d="m264.976562 463.890625c-51.902343 51.902344-142.523437 45.429687-202.410156-14.457031-59.886718-59.886719-66.359375-150.507813-14.457031-202.410156 51.898437-51.902344 142.523437-45.425782 202.410156 14.457031 59.886719 59.886719 66.359375 150.507812 14.457031 202.410156zm0 0" fill="#fab2a8"/><path d="m62.566406 449.433594c-2.179687-2.175782-4.277344-4.402344-6.3125-6.65625-26.683594-55.292969-19.238281-121.046875 23.660156-163.945313 42.898438-42.898437 108.652344-50.34375 163.945313-23.660156 2.257813 2.035156 4.480469 4.132813 6.65625 6.3125 59.886719 59.882813 66.359375 150.507813 14.460937 202.410156-51.902343 51.902344-142.523437 45.425781-202.410156-14.460937zm0 0" fill="#fccfc9"/><path d="m133.988281 378.011719c-14.375-14.371094-15.925781-36.121094-3.46875-48.578125 12.453125-12.457032 34.203125-10.902344 48.578125 3.46875 14.371094 14.375 15.925782 36.125 3.46875 48.582031-12.457031 12.453125-34.207031 10.902344-48.578125-3.472656zm38.585938-74.21875c8.648437 6.691406 16.054687 3.484375 25.09375 12.175781 11.542969 11.097656 6.402343 22.996094 15.140625 33.027344 13.210937 15.164062 50.078125 16.753906 60.988281.367187 15.367187-23.082031-27.972656-71.007812-31.035156-74.339843-18.828125-20.464844-57.480469-50.496094-75.832031-38.984376-16.859376 10.574219-12.550782 53.671876 5.644531 67.753907zm-58.597657 73.433593c-1.476562-15.335937-22.726562-22.960937-22.195312-38.863281.410156-12.175781 13.046875-13.152343 20.972656-26.875 12.558594-21.753906 4.53125-60.367187-11.128906-68.542969-18.777344-9.804687-55.964844 20.265626-69.464844 57.574219-14.738281 40.722657-5.089844 100.644531 22.160156 112.9375 23.847657 10.757813 61.722657-14.730469 59.65625-36.230469zm101.972657-4.546874c-18.226563 6.648437-13.234375 29.835937-32.320313 36.175781-17.140625 5.695312-28.488281-10.570313-49.382812-8.449219-26.558594 2.695312-49.96875 33.207031-42.796875 52.433594 9.332031 25.019531 73.976562 40.386718 120.257812 23.359375 37.765625-13.894531 72.425781-52.714844 60.59375-78.910157-8.070312-17.863281-38.363281-31.171874-56.351562-24.609374zm0 0" fill="#f79085"/></svg>