<svg height="512pt" viewBox="0 0 512 512" width="512pt" xmlns="http://www.w3.org/2000/svg"><path d="m68.246094 430c-42.34375-45.671875-68.246094-106.808594-68.246094-174 0-141.386719 114.613281-256 256-256s256 114.613281 256 256c0 67.191406-25.902344 128.328125-68.246094 174zm0 0" fill="#f7c32a"/><path d="m71 180h130v250h-130zm240 0v250h130v-250zm0 0" fill="#dcdce1"/><path d="m91 180h110v250h-110zm240 0v250h110v-250zm0 0" fill="#f0eff4"/><path d="m211 175v20c0 2.761719-2.238281 5-5 5h-140c-2.761719 0-5-2.238281-5-5v-20c0-2.761719 2.238281-5 5-5h5v-25c0-35.898438 29.101562-65 65-65s65 29.101562 65 65v25h5c2.761719 0 5 2.238281 5 5zm235-5h-5v-25c0-35.898438-29.101562-65-65-65s-65 29.101562-65 65v25h-5c-2.761719 0-5 2.238281-5 5v20c0 2.761719 2.238281 5 5 5h140c2.761719 0 5-2.238281 5-5v-20c0-2.761719-2.238281-5-5-5zm0 0" fill="#749eab"/><path d="m206 170h-5v-25c0-30.734375-21.335938-56.46875-50-63.242188-8.5625 2.023438-16.464844 5.753907-23.347656 10.789063 2.382812 2.128906 3.75 5.371094 3.242187 8.917969-.617187 4.324218-4.125 7.824218-8.449219 8.433594-3.546874.5-6.785156-.875-8.910156-3.261719-3.246094 4.429687-5.9375 9.285156-7.988281 14.464843 3.234375 1.65625 5.453125 5.015626 5.453125 8.898438 0 5.453125-4.371094 9.882812-9.800781 9.988281-.125 1.65625-.199219 3.324219-.199219 5.011719 0 5.523438 4.476562 10 10 10h62.183594c4.109375 0 7.6875 3.164062 7.8125 7.269531.125 4.246094-3.277344 7.730469-7.496094 7.730469h-87.5c-2.761719 0-5 2.238281-5 5v20c0 2.761719 2.238281 5 5 5h120c2.761719 0 5-2.238281 5-5v-20c0-2.761719-2.238281-5-5-5zm-70-30c-5.523438 0-10-4.476562-10-10s4.476562-10 10-10 10 4.476562 10 10-4.476562 10-10 10zm15-30c-5.523438 0-10-4.476562-10-10s4.476562-10 10-10 10 4.476562 10 10-4.476562 10-10 10zm20 30c-5.523438 0-10-4.476562-10-10s4.476562-10 10-10 10 4.476562 10 10-4.476562 10-10 10zm275 30h-5v-25c0-30.734375-21.335938-56.46875-50-63.242188-8.5625 2.023438-16.464844 5.753907-23.347656 10.789063 2.382812 2.128906 3.75 5.371094 3.242187 8.917969-.617187 4.324218-4.125 7.824218-8.449219 8.433594-3.546874.5-6.785156-.875-8.910156-3.261719-3.246094 4.429687-5.9375 9.285156-7.988281 14.464843 3.234375 1.65625 5.453125 5.015626 5.453125 8.898438 0 5.453125-4.371094 9.882812-9.800781 9.988281-.125 1.65625-.199219 3.324219-.199219 5.011719 0 5.523438 4.476562 10 10 10h62.183594c4.109375 0 7.6875 3.164062 7.8125 7.269531.125 4.246094-3.277344 7.730469-7.496094 7.730469h-87.5c-2.761719 0-5 2.238281-5 5v20c0 2.761719 2.238281 5 5 5h120c2.761719 0 5-2.238281 5-5v-20c0-2.761719-2.238281-5-5-5zm-70-30c-5.523438 0-10-4.476562-10-10s4.476562-10 10-10 10 4.476562 10 10-4.476562 10-10 10zm15-30c-5.523438 0-10-4.476562-10-10s4.476562-10 10-10 10 4.476562 10 10-4.476562 10-10 10zm20 30c-5.523438 0-10-4.476562-10-10s4.476562-10 10-10 10 4.476562 10 10-4.476562 10-10 10zm0 0" fill="#89b2c4"/><path d="m181 299.523438v120.476562c0 11.046875-8.953125 20-20 20h-50c-11.046875 0-20-8.953125-20-20v-120.476562c0-6.6875 3.34375-12.933594 8.90625-16.640626l25-16.667968c6.71875-4.480469 15.46875-4.480469 22.1875 0l25 16.667968c5.5625 3.710938 8.90625 9.953126 8.90625 16.640626zm0 0" fill="#f7b95f"/><path d="m181 299.523438v100.191406c-1.976562.179687-3.976562.285156-6 .285156-35.898438 0-65-29.101562-65-65v-58.847656l14.90625-9.9375c6.71875-4.480469 15.46875-4.480469 22.1875 0l25 16.667968c5.5625 3.710938 8.90625 9.953126 8.90625 16.640626zm0 0" fill="#f9c77e"/><path d="m421 275v150c0 2.761719-2.238281 5-5 5h-80c-2.761719 0-5-2.238281-5-5v-150c0-.40625.0625-.800781.15625-1.179688.917969-6.199218 6.246094-10.964843 12.699219-10.964843 4.476562 0 8.414062 2.289062 10.714843 5.757812 2.304688-3.46875 6.242188-5.757812 10.714844-5.757812s8.410156 2.289062 10.714844 5.757812c2.300781-3.46875 6.238281-5.757812 10.714844-5.757812 4.472656 0 8.410156 2.289062 10.710937 5.757812 2.304688-3.46875 6.242188-5.757812 10.714844-5.757812 6.457031 0 11.785156 4.765625 12.703125 10.964843.09375.378907.15625.773438.15625 1.179688zm0 0" fill="#bb5335"/><path d="m420.84375 273.820312c.09375.378907.15625.773438.15625 1.179688v124.714844c-1.976562.179687-3.976562.285156-6 .285156-35.898438 0-65-29.101562-65-65v-70.578125c1.84375 1.007813 3.414062 2.449219 4.570312 4.191406 2.304688-3.46875 6.242188-5.757812 10.714844-5.757812s8.410156 2.289062 10.714844 5.757812c2.300781-3.46875 6.238281-5.757812 10.714844-5.757812 4.472656 0 8.410156 2.289062 10.710937 5.757812 2.304688-3.46875 6.242188-5.757812 10.714844-5.757812 6.457031 0 11.789063 4.765625 12.703125 10.964843zm0 0" fill="#d25e3e"/><path d="m302 46c0-25.40625-20.59375-46-46-46s-46 20.59375-46 46c0 21.96875 15.40625 40.328125 36 44.898438v389.101562h20v-389.101562c20.59375-4.570313 36-22.929688 36-44.898438zm-46 26.332031c-14.542969 0-26.332031-11.789062-26.332031-26.332031s11.789062-26.332031 26.332031-26.332031 26.332031 11.789062 26.332031 26.332031-11.789062 26.332031-26.332031 26.332031zm0 0" fill="#347d91"/><path d="m433.96875 440c-46.070312 44.566406-108.8125 72-177.96875 72s-131.898438-27.433594-177.96875-72zm0 0" fill="#4da0b8"/><path d="m462 430c0 11.046875-8.953125 20-20 20h-372c-11.046875 0-20-8.953125-20-20s8.953125-20 20-20h372c11.046875 0 20 8.953125 20 20zm0 0" fill="#3a91a5"/><path d="m462 430h-372c-11.046875 0-20-8.953125-20-20h372c11.046875 0 20 8.953125 20 20zm0 0" fill="#4da0b8"/></svg>