<svg height="512pt" viewBox="0 0 512 512.00078" width="512pt" xmlns="http://www.w3.org/2000/svg"><path d="m508.722656 296.96875c-18.367187 114.179688-112.238281 203.09375-228.773437 213.90625-10.179688-132.058594-120.5625-236.050781-255.234375-236.050781-8.074219 0-16.058594.394531-23.945313 1.125-.507812-6.582031-.769531-13.234375-.769531-19.949219 0-141.382812 114.617188-256 256-256 34.359375 0 67.128906 6.785156 97.066406 19.0625-54.09375 67.496094-49.859375 166.3125 12.71875 228.894531 39.015625 39.015625 92.121094 55.347657 142.9375 49.011719zm0 0" fill="#4da0b8"/><path d="m512 256c0 14.191406-1.171875 28.101562-3.394531 41.664062-.828125.90625-1.675781 1.796876-2.550781 2.675782-14.847657 14.847656-34.070313 23.261718-54.925782 25.535156-2.277344 20.855469-10.691406 40.078125-25.539062 54.925781-14.847656 14.847657-34.070313 23.261719-54.921875 25.539063-2.277344 20.851562-10.691407 40.074218-25.539063 54.925781-14.847656 14.84375-34.070312 23.261719-54.925781 25.535156-.890625 8.171875-2.738281 16.089844-5.535156 23.59375-9.414063 1.046875-18.972657 1.605469-28.667969 1.605469-79.816406 0-151.09375-36.53125-198.042969-93.78125 1.859375-21.8125 10.339844-41.984375 25.777344-57.425781 14.847656-14.847657 34.070313-23.261719 54.925781-25.539063 2.273438-20.851562 10.6875-40.074218 25.539063-54.921875 14.847656-14.847656 34.070312-23.261719 54.921875-25.539062 2.277344-20.855469 10.691406-40.078125 25.539062-54.925781 14.847656-14.847657 34.070313-23.261719 54.925782-25.539063 2.277343-20.851563 10.6875-40.074219 25.539062-54.921875 35.460938-35.464844 95.871094-34.261719 143.882812-.242188 4.460938 5.183594 8.714844 10.550782 12.761719 16.074219 19.28125 35.976563 30.230469 77.089844 30.230469 120.761719zm0 0" fill="#f9c77e"/><path d="m280 432v50c0 15.984375-12.5 29.046875-28.261719 29.945312-44.210937-.722656-85.695312-12.644531-121.738281-33.066406v-46.878906c0-16.566406 13.429688-30 30-30h90c16.570312 0 30 13.433594 30 30zm168.488281-240.484375h-90c-16.570312 0-30 13.429687-30 30v50c0 1.101563.0625 2.1875.179688 3.261719h-43.894531c-16.566407 0-30 13.429687-30 30v50c0 16.566406 13.433593 30 30 30h90c16.570312 0 30-13.433594 30-30v-50c0-1.105469-.0625-2.191406-.175782-3.261719h43.890625c16.566407 0 30-13.433594 30-30v-50c0-16.570313-13.433593-30-30-30zm0 0" fill="#f78d9a"/><path d="m330 395c0 35.898438-29.101562 65-65 65s-65-29.101562-65-65 29.101562-65 65-65 65 29.101562 65 65zm35-175c-35.898438 0-65 29.101562-65 65s29.101562 65 65 65 65-29.101562 65-65-29.101562-65-65-65zm0 0" fill="#f45751"/><path d="m328.796875 382.5625c.78125 4.023438 1.203125 8.183594 1.203125 12.4375 0 35.898438-29.101562 65-65 65s-65-29.101562-65-65c0-4.253906.421875-8.414062 1.203125-12.4375 5.804687 29.941406 32.15625 52.558594 63.796875 52.558594s57.992188-22.617188 63.796875-52.558594zm100-110c-5.804687 29.941406-32.15625 52.558594-63.796875 52.558594s-57.992188-22.617188-63.796875-52.558594c-.78125 4.023438-1.203125 8.183594-1.203125 12.4375 0 35.898438 29.101562 65 65 65s65-29.101562 65-65c0-4.253906-.421875-8.414062-1.203125-12.4375zm0 0" fill="#ec3c52"/><path d="m306.695312 411.921875c-6.683593 16.464844-22.828124 28.078125-41.695312 28.078125s-35.007812-11.613281-41.695312-28.078125c-1.34375-3.304687 1.058593-6.921875 4.621093-6.921875h74.148438c3.566406 0 5.964843 3.617188 4.621093 6.921875zm-41.695312-61.921875c-18.867188 0-35.007812 11.613281-41.695312 28.078125-1.34375 3.304687 1.058593 6.921875 4.621093 6.921875h74.148438c3.566406 0 5.964843-3.617188 4.621093-6.921875-6.683593-16.464844-22.828124-28.078125-41.695312-28.078125zm83.078125-106.695312c-16.464844 6.6875-28.078125 22.832031-28.078125 41.695312 0 18.867188 11.613281 35.011719 28.078125 41.695312 3.304687 1.34375 6.921875-1.054687 6.921875-4.621093v-74.144531c0-3.566407-3.617188-5.964844-6.921875-4.625zm33.84375 0c-3.304687-1.339844-6.921875 1.058593-6.921875 4.625v74.144531c0 3.566406 3.617188 5.964843 6.921875 4.621093 16.464844-6.683593 28.078125-22.828124 28.078125-41.695312 0-18.863281-11.613281-35.007812-28.078125-41.695312zm0 0" fill="#d73247"/><path d="m254.539062 413.855469c1.109376 1.925781-1.109374 5.289062-4.960937 7.511719-3.851563 2.226562-7.875 2.464843-8.988281.539062-1.113282-1.925781 1.109375-5.289062 4.960937-7.511719 3.851563-2.226562 7.875-2.464843 8.988281-.539062zm10.460938 6.039062c-2.222656 0-4.027344 3.605469-4.027344 8.054688s1.804688 8.050781 4.027344 8.050781 4.027344-3.605469 4.027344-8.054688c0-4.449218-1.804688-8.050781-4.027344-8.050781zm19.449219-5.5c-3.851563-2.226562-7.875-2.464843-8.988281-.539062-1.109376 1.925781 1.109374 5.289062 4.960937 7.511719 3.851563 2.226562 7.878906 2.464843 8.988281.539062 1.113282-1.925781-1.109375-5.289062-4.960937-7.511719zm97.019531-139.855469c1.925781 1.113282 5.292969-1.109374 7.515625-4.960937s2.464844-7.878906.539063-8.988281c-1.925782-1.113282-5.289063 1.109375-7.511719 4.960937-2.226563 3.851563-2.46875 7.875-.542969 8.988281zm14.09375 6.433594c-4.445312 0-8.050781 1.804688-8.050781 4.027344s3.605469 4.027344 8.050781 4.027344c4.449219 0 8.054688-1.804688 8.054688-4.027344s-3.605469-4.027344-8.054688-4.027344zm-14.09375 14.488282c-1.925781 1.113281-1.683594 5.136718.542969 8.988281 2.222656 3.855469 5.585937 6.074219 7.511719 4.960937 1.925781-1.109375 1.683593-5.132812-.539063-8.988281-2.222656-3.851563-5.589844-6.070313-7.515625-4.960937zm0 0" fill="#f9a29b"/><path d="m487.234375 187.167969c-9.636719 9.640625-22.234375 14.511719-34.863281 14.636719-.125 12.628906-4.996094 25.226562-14.632813 34.863281-9.40625 9.402343-21.625 14.265625-33.945312 14.609375-.347657 12.324218-5.207031 24.539062-14.613281 33.945312-9.636719 9.636719-22.230469 14.507813-34.863282 14.632813-.121094 12.632812-4.996094 25.226562-14.632812 34.863281-9.636719 9.636719-22.234375 14.511719-34.863282 14.632812-.125 12.632813-4.996093 25.226563-14.636718 34.863282-9.636719 9.640625-22.230469 14.511718-34.863282 14.636718-.121093 12.628907-4.996093 25.222657-14.632812 34.863282-10.757812 10.757812-25.195312 15.574218-39.257812 14.476562-.675782 22.539063-16.261719 41.328125-37.238282 46.835938-20.742187-7.972656-40.183594-18.566406-57.917968-31.375-21.546876-15.5625-36.773438-66.984375-24.8125-66.984375 13.628906 0 25.980468 5.457031 35 14.304687 9.019531-8.847656 21.371093-14.304687 35-14.304687 1.316406 0 2.617187.066406 3.90625.164062.375-12.28125 5.234374-24.453125 14.609374-33.828125 9.636719-9.640625 22.234376-14.511718 34.863282-14.632812.125-12.632813 4.996094-25.226563 14.632812-34.867188 9.640625-9.636718 22.234375-14.507812 34.867188-14.632812.121094-12.632813 4.996094-25.226563 14.632812-34.863282 9.636719-9.636718 22.234375-14.511718 34.863282-14.632812.125-12.632812 4.996093-25.226562 14.632812-34.863281 9.40625-9.40625 21.625-14.265625 33.945312-14.613281.121094-4.359376.800782-8.703126 2.054688-12.917969-4.707031-2.347657-9.128906-5.46875-13.054688-9.394531-19.527343-19.527344-19.527343-51.183594 0-70.710938 9.636719-9.636719 22.234376-14.511719 34.867188-14.632812.121094-12.632813 4.992188-25.226563 14.632812-34.863282 19.523438-19.527344 51.183594-19.527344 70.710938 0 13.449219 13.449219 17.632812 32.652344 12.554688 49.683594 4.707031 2.347656 9.128906 5.472656 13.054687 9.398438 19.527344 19.523437 19.527344 51.183593 0 70.707031zm0 0" fill="#23c77d"/><path d="m490.183594 183.960938c-9.929688 11.765624-23.847656 17.707031-37.8125 17.84375-.125 12.628906-4.996094 25.226562-14.632813 34.863281-9.40625 9.402343-21.621093 14.265625-33.945312 14.609375-.34375 12.324218-5.207031 24.539062-14.609375 33.945312-9.640625 9.636719-22.234375 14.507813-34.867188 14.632813-.121094 12.632812-4.992187 25.226562-14.632812 34.863281-9.636719 9.636719-22.230469 14.511719-34.863282 14.632812-.125 12.632813-4.996093 25.226563-14.632812 34.863282-9.640625 9.640625-22.234375 14.511718-34.867188 14.636718-.121093 12.628907-4.992187 25.222657-14.632812 34.863282-10.757812 10.757812-25.195312 15.574218-39.257812 14.476562-.675782 22.539063-16.261719 41.328125-37.238282 46.835938-33.769531-12.980469 14.148438-8.441406 20.027344-48.511719 1.199219-8.160156 7.457031-14.605469 15.492188-16.472656 8.789062-2.039063 17.128906-6.480469 23.976562-13.328125 6.390625-6.390625 10.683594-14.074219 12.886719-22.210938 1.910156-7.035156 7.363281-12.492187 14.402343-14.398437 8.136719-2.207031 15.820313-6.5 22.207032-12.890625 6.390625-6.386719 10.683594-14.070313 12.890625-22.207032 1.90625-7.035156 7.363281-12.492187 14.402343-14.402343 8.132813-2.207031 15.820313-6.5 22.207032-12.886719 6.386718-6.386719 10.679687-14.074219 12.886718-22.207031 1.90625-7.039063 7.363282-12.492188 14.402344-14.402344 8.132813-2.207031 15.820313-6.5 22.207032-12.886719 6.257812-6.257812 10.503906-13.761718 12.746093-21.710937 1.929688-6.847657 7.25-12.167969 14.097657-14.097657 7.949218-2.246093 15.453124-6.492187 21.710937-12.746093 6.386719-6.390625 10.679687-14.074219 12.886719-22.210938 1.910156-7.035156 7.367187-12.492187 14.402344-14.402343 8.136718-2.203126 15.820312-6.496094 22.207031-12.886719 16.59375-16.59375 19.078125-41.941407 7.472656-61.167969 5.136719 3.097656 9.839844 7.1875 13.808594 12.324219 14.285156 18.472656 13.730469 44.789062-1.328125 62.636719zm0 0" fill="#03ad6b"/><path d="m422.664062 202.730469c-14.535156 14.53125-33.351562 22.769531-53.761718 24.996093-2.230469 20.414063-10.464844 39.230469-24.996094 53.761719-14.535156 14.535157-33.351562 22.773438-53.761719 25-2.101562 19.222657-9.53125 37.03125-22.53125 51.179688-.804687.875-1.621093 1.734375-2.46875 2.582031-14.53125 14.53125-33.347656 22.769531-53.761719 24.996094-2.226562 20.414062-10.460937 39.230468-24.996093 53.761718-20.632813 20.636719-49.894531 28.585938-80.109375 24.648438-60.273438-43.535156-100.828125-112.65625-105.753906-191.449219 2.613281-3.625 5.527343-7.070312 8.761718-10.300781 14.53125-14.535156 33.347656-22.769531 53.761719-25 2.226563-20.410156 10.460937-39.226562 24.996094-53.761719 14.535156-14.53125 33.351562-22.769531 53.761719-24.996093 1.484374-13.582032 5.640624-26.445313 12.527343-37.824219 3.464844-5.722657 7.605469-11.074219 12.46875-15.9375 14.535157-14.53125 33.351563-22.769531 53.761719-24.996094 2.230469-20.414063 10.464844-39.230469 25-53.761719 39.804688-39.804687 111.71875-32.429687 160.621094 16.476563 48.90625 48.90625 56.285156 120.820312 16.480468 160.625zm0 0" fill="#f9c77e"/><path d="m391.273438 171.335938c-5.933594 5.9375-12.585938 10.8125-19.769532 14.660156-5.835937 3.128906-13.035156 2.070312-17.714844-2.609375l-82.710937-82.714844c-5.859375-5.855469-15.355469-5.855469-21.214844 0-5.855469 5.859375-5.855469 15.355469 0 21.214844l67.574219 67.574219c13.128906 13.128906 15.289062 33.855468 4.703125 49.113281-2.828125 4.074219-6.035156 7.929687-9.628906 11.523437-.097657.09375-.191407.191406-.289063.289063-15.0625 14.917969-39.449218 14.617187-54.4375-.371094l-68.023437-68.023437c-5.859375-5.859376-15.355469-5.859376-21.214844 0-5.859375 5.855468-5.859375 15.355468 0 21.210937l65.070313 65.070313c16.589843 16.589843 16.957031 43.582031.460937 60.257812-.109375.109375-.214844.214844-.324219.324219-1.40625 1.40625-2.855468 2.753906-4.339844 4.042969-15.515624 13.46875-38.84375 12.539062-53.371093-1.992188l-21.710938-21.707031-45.890625-45.890625c-5.855468-5.859375-15.355468-5.859375-21.210937 0-5.859375 5.855468-5.859375 15.355468 0 21.210937l67.101562 67.105469.574219.570312c1.710938 1.710938 3.21875 3.546876 4.550781 5.472657 10.488281 15.15625 9.230469 36.117187-4.171875 49.652343-.097656.097657-.195312.195313-.292968.296876-.605469.605468-1.222657 1.199218-1.84375 1.785156-33.285157 31.324218-87.179688 24.082031-112.054688-14.261719-23.226562-35.804687-37.746094-77.78125-40.566406-122.929687 2.613281-3.625 5.523437-7.070313 8.757812-10.304688 14.535156-14.535156 33.347656-22.769531 53.761719-25 2.226563-20.410156 10.464844-39.226562 24.996094-53.761719 14.535156-14.53125 33.351562-22.769531 53.761719-24.996093 1.484374-13.582032 5.644531-26.445313 12.53125-37.824219 3.460937-5.722657 7.605468-11.074219 12.46875-15.9375 14.53125-14.535157 33.347656-22.769531 53.757812-24.996094 2.230469-20.414063 10.464844-39.230469 25-53.765625 35.445312-35.441406 96.351562-33.476562 143.796875 1.914062 35.390625 47.449219 37.359375 108.355469 1.914063 143.796876zm0 0" fill="#fad39c"/></svg>