<svg height="511pt" viewBox="0 0 511 511.99999" width="511pt" xmlns="http://www.w3.org/2000/svg"><path d="m492.859375 175c3.929687 0 7.417969 2.558594 8.5625 6.316406 7.027344 23.066406 10.890625 47.511719 11.070313 72.835938 1.003906 141.691406-114.300782 257.847656-255.992188 257.847656-140.234375 0-254.128906-112.753906-255.976562-252.546875-1.855469-140.183594 110.304687-256.449219 250.464843-259.3945312 61.820313-1.3007818 118.78125 19.3320312 163.652344 54.6328122 2.214844 1.738282 3.523437 4.378906 3.523437 7.195313v38.417969c.003907 41.253906 33.445313 74.695312 74.695313 74.695312zm0 0" fill="#bb5335"/><path d="m501.96875 183.164062c-6.304688 39.457032-25.042969 91.273438-78.285156 120.503907-14.914063 8.1875-31.128906 14.210937-48.046875 18.023437-.519531 72.757813-46.886719 140.3125-119.816407 164.355469-54.113281 17.839844-113.191406 12.542969-159.398437-13.546875-88.582031-50.019531-79.632813-162.253906-78.785156-173.695312 2.617187-35.234376 25.976562-67.117188 61.617187-78.867188 21.441406-7.070312 44.546875 4.582031 51.617188 26.019531l15.722656 47.699219c20.070312 60.878906 85.179688 95.160156 146.386719 76.113281.808593-.253906 1.621093-.515625 2.429687-.78125 26.945313-8.882812 49.664063-24.675781 66.855469-44.761719-32.054687 4.917969-66.023437 2.097657-98.132813-8.914062-77.5625-26.605469-124.246093-102.449219-117.132812-180.625 17.570312 28.535156 44.769531 51.378906 78.945312 63.097656.804688.277344 1.613282.546875 2.421876.808594 60.972656 19.78125 126.488281-13.71875 147.285156-74.355469l16.292968-47.507812c3.675782-10.714844 11.363282-18.917969 20.8125-23.503907 42.0625 32.460938 73.738282 77.714844 89.210938 129.9375zm0 0" fill="#f7b95f"/><path d="m495.558594 164.28125c-3.5625 15.789062-9.476563 33.203125-19.394532 49.363281-42.558593 69.355469-131.59375 96.84375-208.433593 70.492188-60.035157-20.589844-100.328125-73.28125-109.617188-133.753907 17.113281 21.164063 40.1875 37.921876 67.832031 47.402344.804688.277344 1.613282.546875 2.421876.808594 60.972656 19.78125 126.488281-13.71875 147.285156-74.355469l16.292968-47.507812c3.675782-10.714844 11.363282-18.917969 20.8125-23.503907 36.90625 28.480469 65.816407 66.808594 82.800782 111.054688zm-200.148438 204.707031c-.808594.265625-1.621094.523438-2.429687.777344-61.207031 19.050781-126.316407-15.230469-146.386719-76.109375l-15.722656-47.699219c-7.070313-21.4375-30.175782-33.089843-51.617188-26.023437-29.230468 9.636718-50.191406 32.816406-58.230468 60.277344.667968 6.667968-1.816407 58.421874 23.996093 101.640624 41.726563 69.859376 130.429688 98.414063 207.578125 72.976563 60.277344-19.871094 101.195313-72.074219 111.207032-132.433594-17.363282 20.957031-40.640626 37.441407-68.394532 46.59375zm0 0" fill="#f9c77e"/><path d="m232.292969 210.765625c1.203125-3.503906 2.683593-6.785156 4.371093-9.816406 16.753907 4.105469 33.679688 4.3125 49.773438 1.164062 1.320312 7.882813.574219 17.101563-2.59375 26.332031-7.324219 21.355469-24.800781 34.707032-39.035156 29.824219-14.234375-4.882812-19.839844-26.148437-12.515625-47.503906zm210.78125-106.050781c6.28125-.34375 12.367187-1.15625 18.199219-2.363282-13.886719-18.480468-30.222657-35.007812-48.515626-49.125-9.449218 4.585938-17.136718 12.789063-20.8125 23.503907l-5.625 16.398437c15.183594 8.277344 35.144532 12.761719 56.753907 11.585938zm-247.417969 107.890625c9.210938 3.160156 20.226562-3.867188 26.605469-16.140625-13.144531-4.886719-25.207031-11.441406-36.039063-19.339844-5.417968 15.964844-1.210937 31.828125 9.433594 35.480469zm143.605469-35.609375c-11.105469 9.21875-23.789063 16.339844-37.378907 20.988281-2.351562 11.613281-.367187 26.0625 6.425782 39.945313 12.445312 25.433593 36.277344 39.328124 53.230468 31.03125 16.957032-8.296876 20.613282-35.636719 8.171876-61.070313-7.402344-15.128906-18.832032-26.175781-30.449219-30.894531zm84.199219-56.945313c-16.398438-5.625-32.761719-6.035156-45.636719-2.144531l-2.171875 6.332031c-4.667969 13.609375-11.59375 25.84375-20.207032 36.421875 6.171876 14.304688 21.636719 27.75 42.15625 34.789063 31.230469 10.710937 62.335938 2.515625 69.480469-18.304688 7.136719-20.820312-12.390625-46.382812-43.621093-57.09375zm-138.808594 251.972657c-16.800782 3.902343-33.726563 3.90625-49.78125.566406-1.414063 7.867187-.777344 17.089844 2.277344 26.363281 7.070312 21.4375 24.386718 34.996094 38.675781 30.285156 14.292969-4.710937 20.152343-25.910156 13.082031-47.347656-1.160156-3.519531-2.601562-6.820313-4.253906-9.867187zm14.457031-4.3125c6.230469 12.347656 17.164063 19.503906 26.410156 16.453124 10.6875-3.523437 15.082031-19.335937 9.859375-35.363281-10.925781 7.765625-23.066406 14.179688-36.269531 18.910157zm-162.8125-105.289063-5.425781-16.464844c-7.070313-21.4375-30.179688-33.089843-51.617188-26.023437-21.246094 7.007812-38.125 21.167968-48.847656 38.921875 13.347656 7.921875 30.308594 13.226562 49.003906 14.46875 21.59375 1.433593 41.609375-2.808594 56.886719-10.902344zm30.066406 67.894531c-8.484375-10.683594-15.261719-23-19.769531-36.660156l-2.09375-6.359375c-12.832031-4.042969-29.199219-3.832031-45.664062 1.597656-31.355469 10.335938-51.1875 35.664063-44.296876 56.570313 6.890626 20.902344 37.898438 29.46875 69.253907 19.132812 20.605469-6.792968 36.230469-20.054687 42.570312-34.28125zm15.988281 16.527344c-11.671874 4.582031-23.234374 15.488281-30.816406 30.527344-12.746094 25.28125-9.414062 52.667968 7.441406 61.164062 16.855469 8.496094 40.851563-5.109375 53.597657-30.394531 6.957031-13.800781 9.113281-28.226563 6.902343-39.863281-13.53125-4.8125-26.132812-12.085938-37.125-21.433594zm0 0" fill="#fbdfba"/><path d="m190.992188 104.417969-35.199219 102.628906c-12.210938-35.441406-13.144531-75.066406-.039063-113.273437 5.253906-15.316407 12.433594-29.425782 21.167969-42.160157 14.515625 12.730469 20.722656 33.414063 14.070313 52.804688zm151.183593 170.035156c-8.335937-13.882813-18.304687-26.179687-29.503906-36.8125-11.539063 15.480469-13.289063 37.003906-2.734375 54.578125l54.230469 90.3125c.890625-2.332031 1.738281-4.683594 2.53125-7.058594 2.242187-34.199218-5.542969-69.410156-24.523438-101.019531zm0 0" fill="#f45751"/><path d="m210.257812 66.246094c11.351563 15.613281 12.84375 37.15625 2.078126 54.605468l-55.304688 89.660157c-.863281-2.347657-1.683594-4.707031-2.445312-7.089844-1.835938-34.226563 6.371093-69.339844 25.726562-100.722656 8.503906-13.78125 18.617188-25.960938 29.945312-36.453125zm156.582032 199.574218c-5.070313-15.378906-12.082032-29.574218-20.664063-42.410156-14.664062 12.554688-21.117187 33.164063-14.695312 52.632813l33.96875 103.039062c12.632812-35.292969 14.039062-74.902343 1.390625-113.261719zm0 0" fill="#f56d59"/></svg>