<svg height="512pt" viewBox="0 0 512 512" width="512pt" xmlns="http://www.w3.org/2000/svg"><path d="m512 256c0 141.386719-114.613281 256-256 256s-256-114.613281-256-256 114.613281-256 256-256 256 114.613281 256 256zm0 0" fill="#b34068"/><path d="m510.871094 280c-12.101563 130.128906-121.582032 232-254.871094 232s-242.769531-101.871094-254.871094-232zm0 0" fill="#db5886"/><path d="m420 130h-5.3125l3.722656-20.402344c6.863282-1.597656 11.921875-7.898437 11.574219-15.324218-.382813-8.066407-7.332031-14.273438-15.410156-14.273438h-299.574219c-.171875 0-.34375.007812-.511719.027344-3.171875.320312-5.003906 3.800781-3.753906 6.730468 2.761719 6.460938 13.066406 29.335938 27.015625 45.71875l47.632812 261.113282c1.734376 9.503906 10.015626 16.410156 19.675782 16.410156h141.867187c9.664063 0 17.941407-6.90625 19.675781-16.410156l18.898438-103.589844h34.5c27.613281 0 50-22.386719 50-50v-60c0-27.613281-22.386719-50-50-50zm20 110c0 11.046875-8.953125 20-20 20h-29.027344l18.242188-100h10.785156c11.046875 0 20 8.953125 20 20zm0 0" fill="#afdbe1"/><path d="m237.355469 410h-32.296875c-9.660156 0-17.941406-6.90625-19.671875-16.410156l-47.636719-261.113282c-13.949219-16.378906-24.25-39.257812-27.011719-45.71875-1.253906-2.929687.582031-6.410156 3.75-6.730468.167969-.019532.339844-.027344.511719-.027344h26.378906c3.46875 7.824219 11.917969 25.578125 23.132813 40.21875 2.460937 3.210938 4.105469 6.972656 4.832031 10.953125l47.789062 261.960937c1.78125 9.769532 10.292969 16.867188 20.222657 16.867188zm60.144531-285h-45c-4.140625 0-7.5 3.359375-7.5 7.5 0 4.144531 3.359375 7.5 7.5 7.5h45c4.140625 0 7.5-3.355469 7.5-7.5 0-4.140625-3.359375-7.5-7.5-7.5zm0 0" fill="#99c8d3"/><path d="m324.898438 380h-97.8125c-9.660157 0-17.941407-6.90625-19.675782-16.410156l-37.886718-207.691406c-.5625-3.070313 1.796874-5.898438 4.917968-5.898438h203.105469c3.121094 0 5.476563 2.828125 4.917969 5.898438l-37.890625 207.691406c-1.734375 9.503906-10.011719 16.410156-19.675781 16.410156zm0 0" fill="#f5cf51"/><path d="m260.152344 380h-33.066406c-9.660157 0-17.941407-6.90625-19.675782-16.410156l-37.886718-207.691406c-.5625-3.070313 1.796874-5.898438 4.917968-5.898438h26.347656l3.925782 21.523438c1.535156-.960938 3.34375-1.523438 5.285156-1.523438 5.523438 0 10 4.480469 10 10 0 5.523438-4.476562 10-10 10-.667969 0-1.320312-.066406-1.949219-.191406l25.941407 142.210937c1.675781-1.261719 3.75-2.019531 6.007812-2.019531 5.523438 0 10 4.480469 10 10 0 5.523438-4.476562 10-10 10-.972656 0-1.910156-.144531-2.800781-.402344l2.425781 13.28125c1.808594 9.914063 10.449219 17.121094 20.527344 17.121094zm-20.152344-120c5.523438 0 10-4.476562 10-10s-4.476562-10-10-10-10 4.476562-10 10 4.476562 10 10 10zm100-60c-5.523438 0-10 4.476562-10 10s4.476562 10 10 10 10-4.476562 10-10-4.476562-10-10-10zm-10 80c-5.523438 0-10 4.476562-10 10s4.476562 10 10 10 10-4.476562 10-10-4.476562-10-10-10zm-10 50c-5.523438 0-10 4.476562-10 10s4.476562 10 10 10 10-4.476562 10-10-4.476562-10-10-10zm0 0" fill="#f1bd1f"/><path d="m56.125 412.71875c.035156-.851562.089844-1.703125.152344-2.5625l8.566406-116.257812c.578125-7.835938 7.101562-13.898438 14.957031-13.898438h125.21875c7.792969 0 14.292969 5.972656 14.945313 13.742188l9.726562 115.507812c.070313.839844.128906 1.671875.175782 2.507812 2.074218 37.160157-28.019532 68.242188-65.238282 68.242188h-43.230468c-36.839844 0-66.917969-30.476562-65.273438-67.28125zm0 0" fill="#dcdce1"/><path d="m164.628906 480h-13.203125c-36.839843 0-66.917969-30.476562-65.273437-67.28125.035156-.851562.085937-1.703125.152344-2.5625l9.589843-130.15625h109.125c7.792969 0 14.292969 5.972656 14.945313 13.742188l9.726562 115.507812c.074219.863281.132813 1.71875.179688 2.578125 2.042968 37.136719-28.050782 68.171875-65.242188 68.171875zm0 0" fill="#f0eff4"/><path d="m126.480469 460c-25.59375 0-46.304688-21.152344-45.378907-46.730469.007813-.183593.015626-.367187.023438-.550781.035156-.851562.085938-1.703125.152344-2.558594l5.960937-80.894531c.382813-5.226563 4.734375-9.265625 9.972657-9.265625h90.773437c5.195313 0 9.527344 3.980469 9.964844 9.160156l6.742187 80.09375c.082032.941406.144532 1.878906.195313 2.816406.039062.753907.0625 1.503907.078125 2.25.4375 25.179688-20.214844 45.679688-45.398438 45.679688zm0 0" fill="#f1bd1f"/><path d="m204.886719 412.070312c-.050781-.9375-.113281-1.878906-.195313-2.816406l-6.742187-80.09375c-.4375-5.179687-4.769531-9.160156-9.964844-9.160156h-87.910156c1.710937 63.5 35.796875 116.636719 82.105469 133.996094 13.789062-7.875 23.082031-22.710938 22.785156-39.675782-.015625-.746093-.039063-1.496093-.078125-2.25zm-54.886719-42.070312c-5.523438 0-10-4.476562-10-10s4.476562-10 10-10 10 4.476562 10 10-4.476562 10-10 10zm0 0" fill="#f5cf51"/><path d="m295 289.644531c0 4.140625-3.359375 7.5-7.5 7.5h-25c-4.140625 0-7.5-3.359375-7.5-7.5 0-4.144531 3.359375-7.5 7.5-7.5h25c4.140625 0 7.5 3.355469 7.5 7.5zm-32.5-86.789062h25c4.140625 0 7.5-3.355469 7.5-7.5 0-4.140625-3.359375-7.5-7.5-7.5h-25c-4.140625 0-7.5 3.359375-7.5 7.5 0 4.144531 3.359375 7.5 7.5 7.5zm-10 31.429687h45c4.140625 0 7.5-3.355468 7.5-7.5 0-4.140625-3.359375-7.5-7.5-7.5h-45c-4.140625 0-7.5 3.359375-7.5 7.5 0 4.144532 3.359375 7.5 7.5 7.5zm35 16.429688h-25c-4.140625 0-7.5 3.355468-7.5 7.5 0 4.140625 3.359375 7.5 7.5 7.5h25c4.140625 0 7.5-3.359375 7.5-7.5 0-4.144532-3.359375-7.5-7.5-7.5zm0 94.285156h-25c-4.140625 0-7.5 3.359375-7.5 7.5 0 4.144531 3.359375 7.5 7.5 7.5h25c4.140625 0 7.5-3.355469 7.5-7.5 0-4.140625-3.359375-7.5-7.5-7.5zm10-31.429688h-45c-4.140625 0-7.5 3.359376-7.5 7.5 0 4.144532 3.359375 7.5 7.5 7.5h45c4.140625 0 7.5-3.355468 7.5-7.5 0-4.140624-3.359375-7.5-7.5-7.5zm-35-142.140624h25c4.140625 0 7.5-3.359376 7.5-7.5 0-4.144532-3.359375-7.5-7.5-7.5h-25c-4.140625 0-7.5 3.355468-7.5 7.5 0 4.140624 3.359375 7.5 7.5 7.5zm-112.5 248.570312c-5.523438 0-10 4.476562-10 10s4.476562 10 10 10 10-4.476562 10-10-4.476562-10-10-10zm-50-30c-5.523438 0-10 4.476562-10 10s4.476562 10 10 10 10-4.476562 10-10-4.476562-10-10-10zm10-50c-5.523438 0-10 4.476562-10 10s4.476562 10 10 10 10-4.476562 10-10-4.476562-10-10-10zm0 0" fill="#d9a92f"/><path d="m410 405c0 19.328125-15.671875 35-35 35-12.734375 0-23.875-6.800781-30-16.96875-6.125 10.167969-17.265625 16.96875-30 16.96875-19.328125 0-35-15.671875-35-35s15.671875-35 35-35c12.734375 0 23.875 6.800781 30 16.96875 6.125-10.167969 17.265625-16.96875 30-16.96875 19.328125 0 35 15.671875 35 35zm0 0" fill="#f5cf51"/><path d="m350 405c0 15.855469-10.542969 29.238281-25 33.542969-11.492188-3.421875-20.503906-12.585938-23.722656-24.160157.277344.101563.578125.164063.910156.128907l6.359375-.691407c.863281-.09375 1.691406.382813 2.042969 1.179688l2.582031 5.851562c.699219 1.589844 2.957031 1.589844 3.65625 0l2.582031-5.851562c.351563-.796875 1.179688-1.273438 2.042969-1.179688l6.359375.691407c1.726562.1875 2.855469-1.769531 1.828125-3.171875l-3.777344-5.15625c-.511719-.703125-.511719-1.660156 0-2.363282l3.777344-5.160156c1.027344-1.402344-.101563-3.355468-1.828125-3.167968l-6.359375.691406c-.863281.09375-1.691406-.386719-2.042969-1.183594l-2.582031-5.851562c-.699219-1.589844-2.957031-1.589844-3.65625 0l-2.582031 5.851562c-.351563.796875-1.179688 1.273438-2.042969 1.183594l-6.359375-.691406c-.332031-.039063-.628906.023437-.910156.128906 3.21875-11.578125 12.230468-20.742188 23.722656-24.164063 14.457031 4.304688 25 17.6875 25 33.542969zm-45.863281-1.183594-3.601563-4.917968c-.347656 1.980468-.535156 4.019531-.535156 6.101562s.183594 4.117188.535156 6.101562l3.601563-4.917968c.511719-.703125.511719-1.664063 0-2.367188zm80.863281-32.359375c-11.492188 3.421875-20.503906 12.585938-23.722656 24.160157.277344-.101563.578125-.164063.910156-.128907l6.355469.691407c.867187.09375 1.695312-.382813 2.046875-1.179688l2.578125-5.851562c.703125-1.589844 2.960937-1.589844 3.660156 0l2.578125 5.851562c.355469.796875 1.183594 1.273438 2.046875 1.179688l6.355469-.691407c1.730468-.1875 2.859375 1.769531 1.832031 3.171875l-3.777344 5.15625c-.515625.703125-.515625 1.660156 0 2.363282l3.777344 5.160156c1.027344 1.402344-.101563 3.355468-1.832031 3.167968l-6.355469-.691406c-.867187-.09375-1.695313.386719-2.046875 1.183594l-2.578125 5.851562c-.699219 1.589844-2.957031 1.589844-3.660156 0l-2.578125-5.851562c-.351563-.796875-1.179688-1.273438-2.046875-1.183594l-6.355469.691406c-.332031.039063-.632812-.023437-.910156-.128906 3.214844 11.578125 12.230468 20.742188 23.722656 24.164063 14.457031-4.304688 25-17.691407 25-33.542969 0-15.855469-10.542969-29.238281-25-33.542969zm-20.863281 32.359375-3.601563-4.917968c-.347656 1.980468-.535156 4.019531-.535156 6.101562s.183594 4.117188.535156 6.101562l3.601563-4.917968c.511719-.703125.511719-1.664063 0-2.367188zm0 0" fill="#f8df92"/><path d="m180 400c0 5.523438-4.476562 10-10 10s-10-4.476562-10-10 4.476562-10 10-10 10 4.476562 10 10zm159.820312 55.679688c-5.859374-5.859376-13.773437-7.441407-17.675781-3.535157-3.90625 3.902344-2.324219 11.816407 3.535157 17.675781 5.855468 5.859376 13.769531 7.441407 17.675781 3.535157s2.324219-11.820313-3.535157-17.675781zm-44.820312-25.679688c-2.929688 0-5.652344.566406-7.960938 1.535156-.347656-.796875-.8125-1.523437-1.433593-2.140625-3.902344-3.90625-11.820313-2.324219-17.675781 3.535157-5.859376 5.855468-7.441407 13.769531-3.535157 17.675781 3.902344 3.90625 11.820313 2.324219 17.675781-3.535157.34375-.339843.667969-.691406.980469-1.046874 2.738281 2.410156 7.0625 3.976562 11.949219 3.976562 8.285156 0 15-4.476562 15-10s-6.714844-10-15-10zm0 0" fill="#fbf1d1"/></svg>