<svg height="512pt" viewBox="0 0 512 512.00044" width="512pt" xmlns="http://www.w3.org/2000/svg"><path d="m488.464844 148.679688c15.097656 32.640624 23.535156 68.992187 23.535156 107.320312 0 65.410156-24.542969 125.082031-64.910156 170.332031h-382.179688c-40.363281-45.25-64.910156-104.921875-64.910156-170.332031 0-141.558594 115.789062-256.726562 257.347656-255.99609375 85.558594.44140575 161.171875 42.86328175 207.335938 107.71093775 1.359375 1.90625 2.066406 4.203125 2.066406 6.546875v16c0 6.964843 5.648438 12.613281 12.613281 12.613281 3.902344 0 7.464844 2.257812 9.101563 5.804688zm0 0" fill="#cc4978"/><path d="m440 410c0 6.875-.773438 13.566406-2.234375 20h-175.53125c-1.460937-6.433594-2.234375-13.125-2.234375-20 0-49.707031 40.292969-90 90-90s90 40.292969 90 90zm-280-90c-49.707031 0-90 40.292969-90 90 0 6.875.773438 13.566406 2.234375 20h175.53125c1.460937-6.433594 2.234375-13.125 2.234375-20 0-49.707031-40.292969-90-90-90zm0 0" fill="#fae8b1"/><path d="m289 410c0 6.875.773438 13.566406 2.234375 20h-14.46875c1.460937-6.433594 2.234375-13.125 2.234375-20 0-14.480469-3.425781-28.15625-9.5-40.277344 14.78125-29.480468 45.273438-49.722656 80.5-49.722656 4.9375 0 9.777344.40625 14.5 1.167969-42.808594 6.9375-75.5 44.0625-75.5 88.832031zm-219 0c0 6.875.773438 13.566406 2.234375 20h29c-1.460937-6.433594-2.234375-13.125-2.234375-20 0-44.769531 32.691406-81.894531 75.5-88.832031-4.722656-.765625-9.5625-1.167969-14.5-1.167969-49.707031 0-90 40.292969-90 90zm0 0" fill="#f8df92"/><path d="m430 226c0 22.054688-17.945312 40-40 40h-180c-11.027344 0-20 8.972656-20 20s8.972656 20 20 20c5.523438 0 10 4.476562 10 10s-4.476562 10-10 10c-22.054688 0-40-17.945312-40-40s17.945312-40 40-40h180c11.027344 0 20-8.972656 20-20s-8.972656-20-20-20h-30c-5.523438 0-10-4.476562-10-10s4.476562-10 10-10h30c22.054688 0 40 17.945312 40 40zm0 0" fill="#f8df92"/><path d="m350 340c-38.660156 0-70 31.339844-70 70s31.339844 70 70 70 70-31.339844 70-70-31.339844-70-70-70zm0 120c-27.613281 0-50-22.386719-50-50s22.386719-50 50-50 50 22.386719 50 50-22.386719 50-50 50zm0-80c-16.570312 0-30 13.429688-30 30s13.429688 30 30 30 30-13.429688 30-30-13.429688-30-30-30zm0 40c-5.523438 0-10-4.476562-10-10s4.476562-10 10-10 10 4.476562 10 10-4.476562 10-10 10zm-190-80c-38.660156 0-70 31.339844-70 70s31.339844 70 70 70 70-31.339844 70-70-31.339844-70-70-70zm0 120c-27.613281 0-50-22.386719-50-50s22.386719-50 50-50 50 22.386719 50 50-22.386719 50-50 50zm0-80c-16.570312 0-30 13.429688-30 30s13.429688 30 30 30 30-13.429688 30-30-13.429688-30-30-30zm0 40c-5.523438 0-10-4.476562-10-10s4.476562-10 10-10 10 4.476562 10 10-4.476562 10-10 10zm0 0" fill="#f7c32a"/><path d="m346 382c0 49.707031-40.292969 90-90 90s-90-40.292969-90-90 40.292969-90 90-90 90 40.292969 90 90zm0 0" fill="#fae8b1"/><path d="m271 470.75c-4.878906.820312-9.890625 1.25-15 1.25-49.707031 0-90-40.292969-90-90s40.292969-90 90-90c5.109375 0 10.121094.433594 15 1.25-42.566406 7.144531-75 44.15625-75 88.75s32.433594 81.605469 75 88.75zm0 0" fill="#f8df92"/><path d="m256 312c-38.660156 0-70 31.339844-70 70s31.339844 70 70 70 70-31.339844 70-70-31.339844-70-70-70zm0 120c-27.613281 0-50-22.386719-50-50s22.386719-50 50-50 50 22.386719 50 50-22.386719 50-50 50zm0-80c-16.570312 0-30 13.429688-30 30s13.429688 30 30 30 30-13.429688 30-30-13.429688-30-30-30zm0 40c-5.523438 0-10-4.476562-10-10s4.476562-10 10-10 10 4.476562 10 10-4.476562 10-10 10zm0 0" fill="#f7c32a"/><path d="m488.859375 149.519531h-178.484375c-7.566406 0-14.464844 4.085938-18.355469 10.574219-6.070312 10.117188-14.9375 18.769531-25.710937 25.191406-15.546875 9.257813-33.871094 12.726563-51.832032 10.515625l-102.308593-8.355469c-3.019531-.375-5.289063-2.9375-5.289063-5.980468 0-3.039063 2.261719-5.601563 5.277344-5.980469l103.785156-8.679687c5.992188-.746094 10.492188-5.84375 10.492188-11.882813v-.152344c0-6.039062-4.5-11.136719-10.492188-11.882812l-103.785156-8.679688c-3.015625-.375-5.277344-2.941406-5.277344-5.980469v-.007812c0-3.039062 2.261719-5.601562 5.277344-5.980469l103.785156-8.675781c5.992188-.75 10.492188-5.847656 10.492188-11.886719 0-6.03125-4.484375-11.125-10.46875-11.882812l-103.820313-8.824219c-3.011719-.378906-5.265625-2.941406-5.265625-5.976562v-.007813c0-3.046875 2.269532-5.609375 5.289063-5.980469l102.308593-8.359375c17.960938-2.210937 36.285157 1.257813 51.828126 10.519531 10.777343 6.417969 19.644531 15.070313 25.710937 25.1875 3.894531 6.488282 10.789063 10.574219 18.355469 10.574219h153.753906c9.546875 13.300781 17.847656 27.558594 24.734375 42.59375zm0 0" fill="#f0eff4"/><path d="m488.859375 149.519531h-178.441406c-7.578125 0-14.5 4.078125-18.398438 10.574219-6.070312 10.117188-14.9375 18.769531-25.710937 25.191406-15.546875 9.257813-33.871094 12.726563-51.832032 10.515625l-102.308593-8.355469c-3.019531-.375-5.289063-2.9375-5.289063-5.980468 0-3.039063 2.261719-5.601563 5.277344-5.980469l64.175781-5.367187 30.414063 2.484374c17.957031 2.210938 36.28125-1.257812 51.828125-10.515624 1.617187-.964844 3.367187-2.265626 5.175781-3.78125 14.960938-12.539063 23.402344-31.207032 23.402344-50.726563v-18.273437c1.773437 2.257812 3.402344 4.609374 4.867187 7.046874 3.886719 6.480469 10.773438 10.566407 18.332031 10.574219 0 10.710938 8.683594 19.398438 19.398438 19.398438h147c4.414062 7.496093 8.464844 15.234375 12.109375 23.195312zm0 0" fill="#dcdce1"/><path d="m190 60v140c0 5.523438-4.476562 10-10 10-2.796875 0-5.320312-1.148438-7.136719-3h-5.726562c-1.816407 1.851562-4.339844 3-7.136719 3s-5.320312-1.148438-7.136719-3h-2.863281v83c0 5.523438-4.476562 10-10 10s-10-4.476562-10-10v-83h-2.863281c-1.816407 1.851562-4.339844 3-7.136719 3s-5.320312-1.148438-7.136719-3h-2.863281v23c0 5.523438-4.476562 10-10 10s-10-4.476562-10-10v-23h-2.863281c-1.816407 1.851562-4.339844 3-7.136719 3-5.523438 0-10-4.476562-10-10v-140c0-5.523438 4.476562-10 10-10 3.121094 0 5.902344 1.429688 7.738281 3.667969h4.523438c1.835937-2.238281 4.621093-3.667969 7.738281-3.667969 3.121094 0 5.902344 1.429688 7.738281 3.667969h4.523438c1.835937-2.238281 4.621093-3.667969 7.738281-3.667969 3.121094 0 5.902344 1.429688 7.738281 3.667969h4.523438c1.835937-2.238281 4.621093-3.667969 7.738281-3.667969 3.121094 0 5.902344 1.429688 7.738281 3.667969h4.523438c1.835937-2.238281 4.621093-3.667969 7.738281-3.667969 3.121094 0 5.902344 1.429688 7.738281 3.667969h4.523438c1.835937-2.238281 4.621093-3.667969 7.738281-3.667969 5.523438 0 10 4.476562 10 10zm0 0" fill="#f7d674"/><path d="m190 175v25c0 5.523438-4.476562 10-10 10-2.796875 0-5.320312-1.148438-7.136719-3h-5.726562c-1.816407 1.851562-4.339844 3-7.136719 3s-5.320312-1.148438-7.136719-3h-2.863281v83c0 5.523438-4.476562 10-10 10s-10-4.476562-10-10v-83h-2.863281c-1.816407 1.851562-4.339844 3-7.136719 3s-5.320312-1.148438-7.136719-3h-2.863281v23c0 5.523438-4.476562 10-10 10s-10-4.476562-10-10v-23h-2.863281c-1.816407 1.851562-4.339844 3-7.136719 3-5.523438 0-10-4.476562-10-10v-25c0 5.523438 4.476562 10 10 10 3.121094 0 5.902344-1.429688 7.738281-3.667969h4.523438c1.835937 2.238281 4.621093 3.667969 7.738281 3.667969 3.121094 0 5.902344-1.429688 7.738281-3.667969h1.761719v-51.332031c0-5.523438 4.476562-10 10-10s10 4.476562 10 10v51.332031h2.761719c1.835937 2.238281 4.621093 3.667969 7.738281 3.667969 3.121094 0 5.902344-1.429688 7.738281-3.667969h2.261719v-81.332031c0-5.523438 4.476562-10 10-10s10 4.476562 10 10v81.332031h2.261719c1.835937 2.238281 4.621093 3.667969 7.738281 3.667969 5.523438 0 10-4.476562 10-10zm0 0" fill="#f7c32a"/><path d="m469 420v10c0 5.523438-4.476562 10-10 10h-25.054688c-46.0625 44.5625-108.792968 72-177.945312 72s-131.882812-27.4375-177.945312-72h-25.054688c-5.523438 0-10-4.476562-10-10v-10c0-5.523438 4.476562-10 10-10h406c5.523438 0 10 4.476562 10 10zm0 0" fill="#16badb"/><path d="m469 420v10c0 5.523438-4.476562 10-10 10h-25.058594c-39.1875 37.90625-90.4375 63.40625-147.441406 70.179688-40.816406-4.847657-78.6875-19.296876-111.289062-41.027344-4.109376-2.738282-2.140626-9.152344 2.792968-9.152344h181.996094c5.742188 0 10.355469-4.839844 9.976562-10.664062-.34375-5.316407-4.992187-9.335938-10.320312-9.335938h-259.65625c-5.523438 0-10-4.476562-10-10v-10c0-5.523438 4.476562-10 10-10h359c5.523438 0 10 4.476562 10 10zm0 0" fill="#6dcce4"/></svg>