<?xml version="1.0" encoding="iso-8859-1"?>
<!-- Generator: Adobe Illustrator 19.0.0, SVG Export Plug-In . SVG Version: 6.00 Build 0)  -->
<svg version="1.1" id="Capa_1" xmlns="http://www.w3.org/2000/svg" xmlns:xlink="http://www.w3.org/1999/xlink" x="0px" y="0px"
	 viewBox="0 0 480 480" style="enable-background:new 0 0 480 480;" xml:space="preserve">
<g>
	<g>
		<path d="M16,48H0v384h48V315.312l16-16V104C64,78.104,43.032,48,16,48z M48,292.688l-16,16V416H16V64c17.232,0,32,22,32,40
			V292.688z"/>
	</g>
</g>
<g>
	<g>
		<path d="M472,48c-4.418,0-8,3.582-8,8v72h-16V56c0-4.418-3.582-8-8-8s-8,3.582-8,8v72h-16V56c0-4.418-3.582-8-8-8s-8,3.582-8,8
			v136h16v240h48V192h16V56C480,51.582,476.418,48,472,48z M464,176h-16v240h-16V176h-16v-32h48V176z"/>
	</g>
</g>
<g>
	<g>
		<path d="M240,80c-88.366,0-160,71.634-160,160s71.634,160,160,160s160-71.634,160-160C399.899,151.676,328.324,80.101,240,80z
			 M240,384c-79.529,0-144-64.471-144-144S160.471,96,240,96s144,64.471,144,144C383.907,319.491,319.491,383.907,240,384z"/>
	</g>
</g>
<g>
	<g>
		<path d="M240,143.72c-53.174,0-96.28,43.106-96.28,96.28c0,53.174,43.106,96.28,96.28,96.28c53.174,0,96.28-43.106,96.28-96.28
			C336.218,186.852,293.148,143.782,240,143.72z M240,320.28c-44.337,0-80.28-35.943-80.28-80.28s35.943-80.28,80.28-80.28
			c44.337,0,80.28,35.943,80.28,80.28C320.227,284.315,284.315,320.227,240,320.28z"/>
	</g>
</g>
<g>
</g>
<g>
</g>
<g>
</g>
<g>
</g>
<g>
</g>
<g>
</g>
<g>
</g>
<g>
</g>
<g>
</g>
<g>
</g>
<g>
</g>
<g>
</g>
<g>
</g>
<g>
</g>
<g>
</g>
</svg>
