<svg height="511pt" viewBox="0 1 511.99985 511" width="511pt" xmlns="http://www.w3.org/2000/svg"><path d="m12.171875 321.152344c-2.308594 0-4.34375-1.566406-4.890625-3.808594-4.941406-20.273438-7.476562-41.488281-7.2695312-63.332031 1.3359372-140.363281 116.5742192-254.0234378 256.9453122-253.511719 51.742188.191406 99.855469 15.746094 140.042969 42.316406v278.335938zm0 0" fill="#db5886"/><path d="m208.441406 400.074219c-20.714844 41.425781-64.191406 63.941406-107.691406 59.972656-45.984375-35.128906-79.714844-85.480469-93.660156-143.539063 1.609375-4.789062 3.5625-9.519531 5.886718-14.167968 26.984376-53.976563 92.621094-75.851563 146.597657-48.863282 53.976562 26.984376 75.855469 92.621094 48.867187 146.597657zm0 0" fill="#2b697a"/><path d="m162.039062 129.402344c45.308594 45.308594 59.980469 107.441406 40.46875 153.605468-46.164062 19.511719-108.296874 4.839844-153.605468-40.46875-45.304688-45.304687-59.976563-107.4375-40.464844-153.601562 46.164062-19.511719 108.296875-4.839844 153.601562 40.464844zm0 0" fill="#54cc87"/><path d="m75.953125 156.453125c26.894531 13.195313 56.316406 34.433594 83.871094 61.988281 18.234375 18.234375 33.6875 37.289063 45.886719 55.890625-.9375 2.945313-2.003907 5.84375-3.203126 8.675781-2.832031 1.199219-5.730468 2.265626-8.675781 3.203126-18.601562-12.203126-37.652343-27.652344-55.890625-45.886719-27.550781-27.550781-48.792968-56.976563-61.988281-83.871094zm0 0" fill="#03ad6b"/><path d="m512 256.5c0 12.804688-.945312 25.390625-2.761719 37.6875-.105469.714844-.230469 1.421875-.359375 2.128906-10.835937 69.375-49.503906 129.519532-104.257812 168.628906-.5.355469-6.269532 4.378907-10.265625 6.984376-3.109375 2.023437-6.035157 3.746093-6.414063 3.972656-27.960937 16.855468-59.398437 28.523437-92.988281 33.652344-.023437-.003907-.046875-.007813-.070313-.011719-12.679687 1.9375-25.660156 2.957031-38.882812 2.957031-62.019531 0-118.882812-22.058594-163.183594-58.75 1.726563-10.660156 5.074219-21.242188 10.160156-31.410156 20.171876-40.34375 61.929688-62.75 104.277344-60.226563 1.265625-3.292969 2.695313-6.554687 4.304688-9.773437.449218-.894532.910156-1.773438 1.375-2.652344-1.539063-.683594-3.074219-1.402344-4.597656-2.164062-53.976563-26.988282-75.855469-92.621094-48.867188-146.597657 21.492188-42.980469 67.488281-65.609375 112.589844-59.417969-2.191406-20.136718 1.183594-41.117187 10.917968-60.582031 26.984376-53.976562 92.621094-75.855469 146.597657-48.867187 44.316406 22.160156 66.988281 70.371094 58.746093 116.792968 15.191407 32.722657 23.679688 69.191407 23.679688 107.648438zm0 0" fill="#2b697a"/><path d="m104.425781 419.570312c-40.265625-29.664062-55.628906-83.800781-35.570312-130.742187.863281-2.023437 3.058593-3.253906 5.199219-2.746094 1.828124.429688 3.039062 1.90625 3.320312 3.65625 2.40625 14.925781 12.453125 28.367188 28.191406 34.148438 19.234375 7.066406 41.414063-.675781 52.121094-18.148438.011719-.019531.019531-.035156.03125-.050781 1.28125-2.101562 4.316406-2.140625 5.570312-.023438 9.640626 16.234376 23.582032 30.152344 41.195313 39.839844.261719.144532.707031.375 1.265625.660156 3.933594 2.011719 5.582031 6.757813 3.746094 10.773438-.023438.054688-.046875.105469-.070313.15625-1.339843 2.941406-4.265625 4.863281-7.496093 4.832031-39.507813-.410156-77.722657 20.714844-97.503907 57.644531zm199.148438 88.5c0-.003906 0-.003906 0 0-.015625 0-.03125.003907-.046875.007813.015625-.003906.03125-.007813.046875-.007813zm-93.726563-61.589843c-4.796875-.046875-9.625-.882813-14.28125-2.59375-15.738281-5.78125-25.785156-19.222657-28.191406-34.144531-.230469-1.425782-1.074219-2.671876-2.367188-3.316407-2.253906-1.125-5.046874-.171875-6.042968 2.140625-11.988282 27.855469-11.476563 58.265625-.679688 84.605469 30.113282 12.445313 63.109375 19.328125 97.714844 19.328125 13.207031 0 26.175781-1.027344 38.84375-2.960938-11.675781-1.558593-23.292969-5.039062-34.417969-10.597656-23.28125-11.644531-40.585937-30.476562-50.578125-52.460937zm34.75-133.355469c24.609375-18.046875 56.132813-25.25 86.632813-18.980469 6.46875 1.332031 11.71875-5.132812 9.113281-11.195312-12.261719-28.535157-12.34375-62.070313 2.632812-92.023438.882813-1.765625 1.808594-3.488281 2.769532-5.183593-9.984375-13.832032-23.363282-25.523438-39.679688-33.683594-.0625-.03125-.121094-.0625-.183594-.089844-2.519531-1.253906-4.96875 1.734375-3.335937 4.027344 9.78125 13.71875 11.261719 32.617187 1.632813 48.328125-10.707032 17.472656-32.886719 25.214843-52.121094 18.148437-15.71875-5.773437-25.761719-19.191406-28.183594-34.097656-.179688-1.125-.714844-2.191406-1.621094-2.890625-2.335937-1.804687-5.683594-.914063-6.796875 1.664063-19.132812 44.460937-6.433593 95.4375 29.140625 125.976562zm265.566406-26.0625c.027344-.222656.0625-.441406.085938-.664062 0 0-.003906 0-.007812 0-.023438.222656-.050782.441406-.078126.664062zm-152.003906 16.414062c-.070312-.035156-.140625-.070312-.210937-.105468-2.511719-1.25-4.957031 1.734375-3.328125 4.019531 9.796875 13.722656 11.285156 32.628906 1.652344 48.347656-10.988282 17.933594-33.570313 25.480469-53.132813 17.765625-15.140625-5.972656-24.804687-19.132812-27.171875-33.714844-.183594-1.125-.71875-2.191406-1.621094-2.886718-2.335937-1.804688-5.6875-.917969-6.796875 1.664062-22.722656 52.800782-.554687 114.792969 51.515625 140.828125 13.085938 6.542969 26.851563 10.195313 40.589844 11.234375 10.679688-4.734375 20.976562-10.179687 30.828125-16.273437 6.433594-7.148438 12.03125-15.261719 16.542969-24.28125 26.984375-53.976563 5.109375-119.613281-48.867188-146.597657zm153.839844-46.976562c0 10.117188-.609375 20.089844-1.753906 29.898438-30.089844-8.925782-61.957032-4.199219-87.792969 11.515624-31.15625-30.839843-41.527344-78.542968-23.601563-120.5.867188-2.023437 3.0625-3.253906 5.203126-2.75 1.824218.433594 3.039062 1.910157 3.320312 3.660157 2.40625 14.925781 12.453125 28.367187 28.191406 34.144531 19.234375 7.070312 41.414063-.671875 52.121094-18.144531.300781-.492188.589844-.984375.871094-1.480469 13.984375-24.886719-1.699219-56.109375-29.855469-60.824219-40.523437-6.785156-82.25 9.898438-106.683594 43.929688-22.824219-30.402344-28.914062-71.6875-13.164062-108.539063.863281-2.023437 3.058593-3.25 5.199219-2.746094 1.824218.433594 3.039062 1.910157 3.320312 3.660157 2.40625 14.925781 12.453125 28.367187 28.191406 34.148437 19.234375 7.066406 41.414063-.675781 52.121094-18.148437 12.035156-19.640625 6.710938-44.253907-10.484375-57.519531 4.175781 1.484374 8.308594 3.222656 12.371094 5.253906 44.316406 22.160156 66.988281 70.371094 58.746093 116.792968 0 0 0 0 0-.003906 15.191407 32.726563 23.679688 69.195313 23.679688 107.652344zm-28.335938-117.167969c0-.003906-.003906-.003906-.003906-.007812-.246094-.105469-.5-.195313-.746094-.300781.25.105468.5.199218.75.308593zm-37.703124 190.410157c-.230469-1.425782-1.074219-2.671876-2.367188-3.316407-2.253906-1.125-5.046875-.171875-6.042969 2.140625-14.503906 33.699219-10.714843 71.140625 7.453125 100.589844 16.996094-18.59375 31.277344-39.699219 42.230469-62.699219-4.402344-.164062-8.816406-1-13.085937-2.570312-15.734376-5.78125-25.78125-19.222657-28.1875-34.144531zm0 0" fill="#3a91a5"/></svg>