<svg height="512pt" viewBox="0 0 512 512" width="512pt" xmlns="http://www.w3.org/2000/svg"><path d="m512 256c0 141.386719-114.613281 256-256 256s-256-114.613281-256-256 114.613281-256 256-256 256 114.613281 256 256zm0 0" fill="#f7d674"/><path d="m485.257812 370c-41.933593 84.167969-128.835937 142-229.257812 142s-187.324219-57.832031-229.257812-142zm0 0" fill="#f7ad3b"/><path d="m337.003906 218.714844c21.960938-26.761719 29.605469-55.871094 16.722656-68.753906-10.40625-10.40625-31.398437-7.414063-53.1875 5.691406-1.683593-38.304688-17.753906-68.351563-37.34375-68.351563-19.589843 0-35.664062 30.046875-37.34375 68.351563-21.789062-13.101563-42.785156-16.097656-53.191406-5.691406-12.882812 12.882812-5.234375 41.996093 16.726563 68.753906-6.828125.125-12.605469 2.148437-16.726563 6.265625-14.644531 14.644531-2.769531 50.257812 26.519532 79.550781 21.539062 21.539062 46.488281 33.640625 64.015624 32.722656 17.527344.917969 42.476563-11.183594 64.015626-32.722656 29.289062-29.289062 41.160156-64.90625 26.515624-79.550781-4.117187-4.121094-9.894531-6.140625-16.722656-6.265625zm-75.046875 43.554687c.414063-.007812.828125-.015625 1.238281-.035156.40625.019531.820313.027344 1.234376.035156-.410157.5-.832032 1-1.234376 1.503907-.402343-.503907-.824218-1.003907-1.238281-1.503907zm0 0" fill="#23c77d"/><path d="m167.988281 179.25c-3.085937-12.28125-1.789062-22.828125 4.671875-29.289062 10.40625-10.40625 31.402344-7.410157 53.1875 5.691406 1.683594-38.304688 17.757813-68.351563 37.347656-68.351563 6.261719 0 12.160157 3.082031 17.351563 8.511719-18.875 7.257812-33.957031 35.84375-38.738281 72.726562-.964844 7.46875-8.8125 11.816407-15.664063 8.703126-23.535156-10.691407-44.835937-11.539063-56.359375-.019532-.640625.644532-1.230468 1.324219-1.796875 2.027344zm0 0" fill="#03ad6b"/><path d="m190 127.300781v290c0 11.046875-8.953125 20-20 20h-94.730469c-9.140625-9.109375-17.585937-18.910156-25.269531-29.308593v-280.691407c0-11.046875 8.953125-20 20-20h100c11.046875 0 20 8.953125 20 20zm0 0" fill="#dcdce1"/><path d="m170 437.300781h-80c-11.046875 0-20-8.953125-20-20v-290c0-11.046875 8.953125-20 20-20h80c11.046875 0 20 8.953125 20 20v290c0 11.046875-8.953125 20-20 20zm0 0" fill="#f0eff4"/><path d="m162.359375 147.300781h2.640625c2.761719 0 5 2.238281 5 5v265h-90c-5.523438 0-10-4.476562-10-10v-235c0-2.761719 2.238281-5 5-5h2.640625c14.703125 0 29.207031-3.425781 42.359375-10 13.152344-6.578125 27.65625-10 42.359375-10zm0 0" fill="#75c24b"/><path d="m165 147.300781h-2.640625c-14.703125 0-29.207031 3.421875-42.359375 10-9.445312 4.722657-19.589844 7.808594-30 9.179688v10.820312c5.523438 0 10 4.476563 10 10 0 5.523438-4.476562 10-10 10v40c5.523438 0 10 4.476563 10 10 0 5.523438-4.476562 10-10 10v120c5.523438 0 10 4.476563 10 10 0 5.523438-4.476562 10-10 10v20h80v-265c0-2.761719-2.238281-5-5-5zm-55 212.699219c-5.523438 0-10-4.476562-10-10s4.476562-10 10-10 10 4.476562 10 10-4.476562 10-10 10zm20-70c-5.523438 0-10-4.476562-10-10s4.476562-10 10-10 10 4.476562 10 10-4.476562 10-10 10zm10-72.699219c-5.523438 0-10-4.476562-10-10 0-5.523437 4.476562-10 10-10s10 4.476563 10 10c0 5.523438-4.476562 10-10 10zm0 0" fill="#8cd246"/><path d="m190 67.300781v60h-140v-60c0-11.046875 8.953125-20 20-20h20v-10h50v10h30c11.046875 0 20 8.953125 20 20zm0 0" fill="#d73247"/><path d="m190 67.300781v60h-120v-60c0-11.046875 8.953125-20 20-20h21.203125c2.761719 0 5-2.238281 5-5s-2.238281-5-5-5h-26.203125c-2.761719 0-5-2.238281-5-5s2.238281-5 5-5h45c5.523438 0 10 4.476563 10 10v10h30c11.046875 0 20 8.953125 20 20zm0 0" fill="#ec3c52"/><path d="m436.226562 310.785156c-12.75 35.027344-47.691406 54.464844-78.050781 43.417969-30.355469-11.050781-44.628906-48.402344-31.882812-83.429687 10.269531-28.21875 34.945312-46.304688 60.019531-46.5l53.351562-146.582032c9.703126 9.988282 18.59375 20.769532 26.574219 32.234375l-46.097656 126.660157c19.082031 16.265624 26.355469 45.980468 16.085937 74.199218zm0 0" fill="#bb5335"/><path d="m346.371094 348.046875c-22.019532-15.363281-31.035156-47.167969-20.078125-77.273437 10.269531-28.21875 34.945312-46.304688 60.019531-46.5l53.351562-146.582032c4.460938 4.59375 8.742188 9.359375 12.851563 14.277344l-50.746094 139.414062c-1.273437 3.507813-4.390625 6.054688-8.09375 6.492188-22.980469 2.714844-44.683593 20.117188-54.152343 46.128906-8.394532 23.066406-5.070313 47.136719 6.847656 64.042969zm0 0" fill="#a0452c"/><path d="m255.371094 201.785156c36.652344 35.246094 106.945312 60.117188 189.253906 63.660156 10.609375.457032 19.289062 14.09375 19.371094 30.941407v.324219c0 58.117187-74.1875 105.234374-165.707032 105.234374-91.515624 0-165.703124-47.117187-165.703124-105.234374 0-45.660157 45.789062-84.523438 109.796874-99.089844 4.496094-1.027344 9.101563.425781 12.988282 4.164062zm0 0" fill="#fff5f5"/><path d="m335.90625 399.222656c-12.085938 1.78125-24.675781 2.722656-37.617188 2.722656-91.515624 0-165.703124-47.117187-165.703124-105.234374 0-45.660157 45.789062-84.523438 109.796874-99.089844 2.179688-.496094 4.382813-.40625 6.515626.238281-36.242188 21.519531-58.898438 52.152344-58.898438 86.148437 0 56.457032 62.472656 103.640626 145.90625 115.214844zm0 0" fill="#fbf1d1"/><path d="m162.03125 409.839844c-19.578125-28.269532-34.144531-62.652344-41.839844-100.722656-1.183594-5.855469 3.316406-11.328126 9.289063-11.328126h337.621093c5.972657 0 10.472657 5.472657 9.289063 11.328126-7.695313 38.070312-22.261719 72.453124-41.839844 100.722656-21.226562 30.644531-56.136719 48.921875-93.414062 48.921875h-85.695313c-37.273437 0-72.1875-18.277344-93.410156-48.921875zm0 0" fill="#d73247"/><path d="m341.136719 458.761719h-53.238281c-37.277344 0-72.1875-18.277344-93.414063-48.921875-21.503906-31.046875-36.957031-69.472656-43.910156-112.050782h316.527343c5.972657 0 10.472657 5.472657 9.289063 11.328126-7.695313 38.070312-22.261719 72.453124-41.839844 100.722656-21.226562 30.644531-56.136719 48.921875-93.414062 48.921875zm0 0" fill="#ec3c52"/><path d="m460 419.25c0 44.597656-38.054688 80.75-85 80.75s-85-36.152344-85-80.75c0-15.730469 4.734375-30.40625 12.925781-42.820312 8.300781-12.585938 12.644531-27.28125 12.574219-42.355469 0-.085938 0-.167969 0-.25 0-31.21875 26.640625-56.523438 59.5-56.523438s59.5 25.304688 59.5 56.523438v.25c-.070312 15.074219 4.273438 29.769531 12.574219 42.355469 8.191406 12.414062 12.925781 27.089843 12.925781 42.820312zm0 0" fill="#8cd246"/><path d="m384.46875 499.488281c-3.113281.328125-6.265625.511719-9.46875.511719-46.945312 0-85-36.152344-85-80.75 0-15.730469 4.734375-30.40625 12.925781-42.820312 8.300781-12.585938 12.644531-27.28125 12.574219-42.355469 0-.085938 0-.167969 0-.25 0-31.21875 26.640625-56.523438 59.5-56.523438 3.222656 0 6.382812.25 9.46875.71875-28.359375 4.308594-50.035156 27.648438-50.035156 55.804688v.25c.070312 15.074219-4.273438 29.769531-12.574219 42.355469-8.191406 12.414062-12.925781 27.089843-12.925781 42.820312 0 41.554688 33.046875 75.765625 75.535156 80.238281zm0 0" fill="#75c24b"/><path d="m447.25 419.25c0 37.496094-32.410156 68-72.25 68s-72.25-30.503906-72.25-68c0-12.695312 3.738281-25.074219 10.816406-35.800781 9.6875-14.683594 14.765625-31.777344 14.683594-49.441407v-.183593c0-24.136719 20.972656-43.773438 46.75-43.773438s46.75 19.636719 46.75 43.773438v.191406c-.082031 17.65625 4.996094 34.75 14.683594 49.433594 7.078125 10.726562 10.816406 23.105469 10.816406 35.800781zm0 0" fill="#d6ea9f"/><path d="m395.742188 484.378906c-34.863282-8.484375-62.195313-36.339844-66.5-72.140625-1.902344-15.863281.910156-31.894531 8.144531-46.359375 9.898437-19.804687 13.675781-41.929687 10.921875-63.988281l-.027344-.234375c-.140625-1.179688-.226562-2.355469-.289062-3.53125 7.636718-5.078125 16.949218-8.074219 27.007812-8.074219 25.777344 0 46.75 19.636719 46.75 43.773438v.191406c-.082031 17.65625 4.996094 34.75 14.683594 49.433594 7.078125 10.726562 10.816406 23.105469 10.816406 35.800781 0 30.710938-21.746094 56.71875-51.507812 65.128906zm0 0" fill="#e3f0be"/><path d="m400.5 423.5c0 18.777344-11.417969 34-25.5 34s-25.5-15.222656-25.5-34 11.417969-34 25.5-34 25.5 15.222656 25.5 34zm0 0" fill="#bb5335"/><path d="m400.5 423.5c0 18.042969-10.542969 32.792969-23.859375 33.921875-6.160156-7.757813-10.140625-20.0625-10.140625-33.921875s3.980469-26.164062 10.140625-33.921875c13.316406 1.128906 23.859375 15.878906 23.859375 33.921875zm0 0" fill="#d25e3e"/></svg>