<svg height="512pt" viewBox="0 0 512 512.00044" width="512pt" xmlns="http://www.w3.org/2000/svg"><path d="m0 256c0-141.222656 114.355469-255.742188 255.519531-256 140.496094-.257812 255.617188 113.90625 256.476563 254.402344.574218 94.476562-50.035156 177.179687-125.722656 222.011718-1.507813.890626-3.246094 1.304688-4.992188 1.210938-40.78125-2.191406-82.628906-3.328125-125.28125-3.328125-42.066406 0-83.351562 1.109375-123.605469 3.238281-2.914062.152344-5.796875-.585937-8.296875-2.09375-74.359375-44.792968-124.097656-126.304687-124.097656-219.441406zm0 0" fill="#23c77d"/><path d="m424.648438 255c0 19.332031-15.671876 35-35 35h-267.296876c-19.328124 0-35-15.667969-35-35 0-17.960938 13.535157-32.757812 30.960938-34.761719-2.121094-4.515625-3.3125-9.550781-3.3125-14.871093 0-18.789063 14.808594-34.117188 33.390625-34.957032-2.171875-4.558594-3.390625-9.65625-3.390625-15.042968 0-19.328126 15.671875-35 35-35h5.910156c9.324219 0 17.890625-5.195313 22.160156-13.488282 9.761719-18.957031 15.15625-41.058594 14.90625-64.421875 37.199219-4.171875 71.976563 21.710938 84.855469 60.53125 3.417969 10.308594 12.902344 17.378907 23.765625 17.378907h.402344c19.332031 0 35 15.671874 35 35 0 5.386718-1.21875 10.484374-3.390625 15.042968 18.582031.839844 33.390625 16.167969 33.390625 34.957032 0 5.320312-1.191406 10.355468-3.3125 14.871093 17.425781 2.003907 30.960938 16.800781 30.960938 34.761719zm0 0" fill="#fccfc9"/><path d="m360.644531 225.335938c.378907 5.824218-4.234375 10.664062-9.976562 10.664062 0 0-197.882813.070312-197.871094.101562-18.457031 2.125-32.796875 17.792969-32.796875 36.824219 0 6.160157 1.511719 11.960938 4.167969 17.074219h-1.160157c-19.585937 0-35.988281-16.03125-35.648437-35.617188.304687-17.683593 13.730469-32.164062 30.957031-34.144531-2.125-4.515625-3.316406-9.550781-3.316406-14.871093 0-18.789063 14.808594-34.117188 33.390625-34.957032-2.304687-4.839844-3.535156-10.285156-3.375-16.039062.53125-19.054688 16.625-34.003906 35.683594-34.003906 12.964843 0 24.835937-7.496094 30.1875-19.304688 7.972656-17.601562 12.3125-37.597656 12.089843-58.605469 14.28125-1.601562 28.207032 1.234375 40.671876 7.523438-.078126 21.46875-4.644532 41.886719-12.820313 59.929687-5.664063 12.503906-18.28125 20.398438-32.011719 20.398438-2.347656 0-4.65625.214844-6.898437.628906-19.523438 3.582031-16.835938 32.394531 3.011719 32.394531h35.070312c5.742188 0 10.355469 4.84375 9.976562 10.667969-.34375 5.3125-4.992187 9.332031-10.320312 9.332031h-65.230469c-.179687.011719-.359375.019531-.542969.035157-20.964843 1.382812-19.84375 32.632812 1.171876 32.632812h165.269531c5.324219 0 9.976562 4.019531 10.320312 9.335938zm0 0" fill="#fab2a8"/><path d="m470 5v20c0 2.761719-2.238281 5-5 5h-100.136719l-37.609375 140.367188h-7.261718c0-.121094.007812-.242188.007812-.367188 0-11.71875-6.726562-21.867188-16.527344-26.800781l37.378906-139.492188c.675782-2.523437 3.164063-4.050781 5.691407-3.605469.324219-.0664058.660156-.101562 1.003906-.101562h117.453125c2.761719 0 5 2.238281 5 5zm0 0" fill="#2b697a"/><path d="m90 300h332l-33.328125 174.984375c-38.691406 23.488281-84.101563 37.015625-132.671875 37.015625s-93.980469-13.527344-132.667969-37.015625zm0 0" fill="#99c8d3"/><path d="m435.984375 295.726562c-.382813 8.066407-7.332031 14.273438-15.40625 14.273438h-.484375l-31.421875 164.984375c-38.691406 23.488281-84.101563 37.015625-132.671875 37.015625-35.265625 0-68.863281-7.132812-99.433594-20.03125l-28.589844-150.097656c-1.175781-6.160156 3.546876-11.871094 9.820313-11.871094h242.203125c5.742188 0 10.355469-4.839844 9.976562-10.664062-.34375-5.316407-4.992187-9.335938-10.320312-9.335938h-288.65625c-8.523438 0-15.390625-7.109375-14.984375-15.722656.382813-8.070313 7.332031-14.277344 15.410156-14.277344h329.574219c8.523438 0 15.390625 7.113281 14.984375 15.726562zm0 0" fill="#afdbe1"/><path d="m367.902344 370.085938c5.117187-1.605469 10.058594 3 9.054687 8.265624l-21.652343 113.667969c-30.535157 12.867188-64.089844 19.980469-99.304688 19.980469s-68.769531-7.113281-99.304688-19.980469l-21.652343-113.667969c-1-5.265624 3.9375-9.871093 9.054687-8.265624 2.425782.761718 5.003906 1.171874 7.679688 1.171874 4.96875 0 9.601562-1.414062 13.527344-3.859374 2.359374-1.472657 5.328124-1.472657 7.683593 0 3.929688 2.445312 8.5625 3.859374 13.53125 3.859374 4.964844 0 9.601563-1.414062 13.527344-3.859374 2.359375-1.472657 5.324219-1.472657 7.683594 0 3.925781 2.445312 8.5625 3.859374 13.527343 3.859374 4.96875 0 9.601563-1.414062 13.53125-3.859374 2.355469-1.472657 5.324219-1.472657 7.683594 0 3.925782 2.445312 8.5625 3.859374 13.527344 3.859374 4.96875 0 9.601562-1.414062 13.527344-3.859374 2.359375-1.472657 5.328125-1.472657 7.6875 0 3.925781 2.445312 8.558594 3.859374 13.527344 3.859374 4.964843 0 9.601562-1.414062 13.527343-3.859374 2.359375-1.472657 5.324219-1.472657 7.683594 0 3.925781 2.445312 8.5625 3.859374 13.527344 3.859374 4.96875 0 9.605469-1.414062 13.53125-3.859374 2.359375-1.472657 5.324219-1.472657 7.683593 0 3.925782 2.445312 8.5625 3.859374 13.527344 3.859374 2.675782 0 5.257813-.410156 7.679688-1.171874zm0 0" fill="#f9c77e"/><path d="m136.964844 389.554688c-3.191406-4.132813-5.089844-9.3125-5.089844-14.9375 0-13.53125 10.96875-24.5 24.5-24.5 6.40625 0 12.238281 2.464843 16.601562 6.492187 4.367188-4.027344 10.195313-6.492187 16.605469-6.492187 6.40625 0 12.238281 2.464843 16.601563 6.492187 4.367187-4.027344 10.199218-6.492187 16.605468-6.492187s12.238282 2.464843 16.605469 6.492187c4.363281-4.027344 10.195313-6.492187 16.601563-6.492187 6.410156 0 12.238281 2.464843 16.605468 6.492187 4.367188-4.027344 10.195313-6.492187 16.605469-6.492187 6.40625 0 12.238281 2.464843 16.601563 6.492187 4.367187-4.027344 10.195312-6.492187 16.605468-6.492187 6.40625 0 12.238282 2.464843 16.601563 6.492187 4.367187-4.027344 10.199219-6.492187 16.605469-6.492187 13.53125 0 24.5 10.96875 24.5 24.5 0 5.625-1.902344 10.800781-5.089844 14.9375zm0 0" fill="#fbf1d1"/></svg>