<svg height="512pt" viewBox="0 0 512 512" width="512pt" xmlns="http://www.w3.org/2000/svg"><path d="m512 256c0 141.386719-114.613281 256-256 256s-256-114.613281-256-256 114.613281-256 256-256 256 114.613281 256 256zm0 0" fill="#ec3c52"/><path d="m370 202.664062c0 82.84375-74.320312 150-166 150s-166-67.15625-166-150 74.320312-150 166-150 166 67.15625 166 150zm0 0" fill="#f49f1f"/><path d="m231.355469 54.703125c-47.667969 6.472656-89.113281 28.035156-116.785157 58.492187 4.984376 2.4375 8.429688 7.542969 8.429688 13.46875 0 8.285157-6.714844 15-15 15-4.359375 0-8.273438-1.875-11.015625-4.84375-11.875 19.878907-18.546875 42.21875-18.546875 65.84375 0 9.582032 1.09375 18.953126 3.191406 28.035157 3.417969 14.8125 9.046875 28.117187 16.425782 39.917969.535156-7.792969 7.015624-13.953126 14.945312-13.953126 8.285156 0 15 6.714844 15 15 0 8.28125-6.714844 15-15 15-1.1875 0-2.339844-.152343-3.449219-.414062 10.515625 12.238281 23.175781 22.386719 37.25 30.460938 2.746094-3.089844 6.738281-5.046876 11.199219-5.046876 8.285156 0 15 6.714844 15 15 0 .710938-.066406 1.402344-.160156 2.089844 33.605468 12.226563 71.859375 14.640625 107.300781 7.226563 53.375-24.9375 89.859375-75.277344 89.859375-133.316407 0-74.421874-59.984375-136.175781-138.644531-147.960937zm-108.355469 161.960937c-8.285156 0-15-6.714843-15-15 0-8.285156 6.714844-15 15-15s15 6.714844 15 15c0 8.285157-6.714844 15-15 15zm60-50c-8.285156 0-15-6.714843-15-15 0-8.285156 6.714844-15 15-15s15 6.714844 15 15c0 8.285157-6.714844 15-15 15zm29 75c-8.285156 0-15-6.714843-15-15 0-8.285156 6.714844-15 15-15s15 6.714844 15 15c0 8.285157-6.714844 15-15 15zm0 0" fill="#f7ad3b"/><path d="m192 45.949219 9.539062-14.71875c1.0625-1.640625 3.859376-1.640625 4.921876 0l9.539062 14.71875c.257812.398437.644531.726562 1.117188.941406l17.441406 8.050781c1.945312.898438 1.945312 3.257813 0 4.15625l-17.441406 8.050782c-.472657.214843-.859376.542968-1.117188.941406l-9.539062 14.71875c-1.0625 1.640625-3.859376 1.640625-4.921876 0l-9.539062-14.71875c-.257812-.398438-.644531-.726563-1.117188-.941406l-17.441406-8.050782c-1.945312-.898437-1.945312-3.257812 0-4.15625l17.441406-8.050781c.472657-.214844.859376-.542969 1.117188-.941406zm0 0" fill="#d58a2d"/><path d="m501.046875 413.273438c2.53125 2.53125 1.808594 7.308593-1.621094 10.367187-77.652343 69.292969-183.292969 79.539063-241.527343 21.304687-58.230469-58.230468-47.988282-163.871093 21.304687-241.527343 3.0625-3.425781 7.839844-4.148438 10.371094-1.617188zm0 0" fill="#f49f1f"/><path d="m501.046875 413.273438c2.53125 2.53125 2.378906 6.738281-.375 9.121093-62.382813 54.019531-155.976563 52.222657-214.210937-6.007812-58.234376-58.234375-60.03125-151.832031-6.011719-214.214844 2.386719-2.753906 6.59375-2.902344 9.125-.371094zm0 0" fill="#f5cf51"/><path d="m374.363281 328.480469c-10.785156-10.785157-10.25-28.882813 1.046875-40.84375l39.800782 39.796875c-11.964844 11.296875-30.0625 11.832031-40.847657 1.046875zm-69.511719 54.152343c-8.527343 6.433594-12 16.902344-8.867187 24.234376 7.160156 3.054687 17.332031-.175782 23.824219-8.34375l41.023437-51.640626c1.519531-1.917968 2.3125-4.078124 2.378907-6.078124-1.90625.066406-3.96875.800781-5.824219 2.199218zm86.078126-27.855468c-.1875-2.421875-1.113282-4.46875-2.480469-5.871094-1.414063 1.453125-2.476563 3.472656-2.90625 5.789062l-12.222657 65.585938c-1.984374 10.644531 2.769532 20.292969 10.367188 22.941406 7.652344-3.214844 13.167969-12.90625 12.359375-23.226562zm-102.527344-93.203125 67.3125 27.710937c2.5 1.027344 5.054687 1.234375 7.222656.742188-.617188-1.941406-1.996094-3.855469-4.03125-5.371094l-57.675781-42.910156c-9.363281-6.964844-21.625-7.601563-28.621094-2.324219-1.242187 8.214844 5.140625 17.769531 15.792969 22.152344zm172.695312 140.042969-42.910156-57.675782c-1.511719-2.039062-3.425781-3.417968-5.371094-4.035156-.492187 2.171875-.285156 4.726562.746094 7.226562l27.707031 67.3125c4.386719 10.648438 13.9375 17.03125 22.15625 15.789063 5.273438-6.996094 4.636719-19.257813-2.328125-28.617187zm-104.132812-84.195313c-1.367188-1.300781-3.34375-2.195313-5.675782-2.433594l-66.0625-6.765625c-10.722656-1.097656-20.988281 4.480469-24.335937 12.324219 2.648437 7.414063 12.097656 12.132813 22.722656 10.457031l67.140625-10.601562c2.492188-.390625 4.664063-1.492188 6.210938-2.980469zm0 0" fill="#f8df92"/></svg>