<svg height="512pt" viewBox="0 0 512 512.0007" width="512pt" xmlns="http://www.w3.org/2000/svg"><path d="m512 256c0 141.484375-113.921875 255.679688-255.40625 256-42.027344.097656-81.699219-9.941406-116.71875-27.800781-6.703125-3.417969-12.289062-8.671875-16.257812-15.066407-20.578126-33.128906-48.5-61.21875-81.503907-81.980468-6.363281-4.003906-11.585937-9.617188-14.964843-16.335938-17.304688-34.417968-27.0820318-73.269531-27.148438-114.40625-.222656-141.054687 114.855469-256.3593748 255.910156-256.410156 141.425782-.0507812 256.089844 114.585938 256.089844 256zm0 0" fill="#fccfc9"/><path d="m501 158.652344c-14.550781 16.78125-45.582031 30.085937-82.410156 33.3125-31.574219 2.761718-60.226563-2.523438-78.628906-12.902344-.472657.441406-.949219.875-1.429688 1.292969-.925781-1.140625-1.820312-2.351563-2.691406-3.625-.195313.003906-.394532.015625-.589844.019531.003906-.195312.015625-.394531.023438-.589844-1.273438-.871094-2.488282-1.765625-3.625-2.691406.414062-.476562.847656-.953125 1.292968-1.429688-10.382812-18.402343-15.664062-47.054687-12.902344-78.628906 3.21875-36.832031 16.527344-67.859375 33.308594-82.410156 13.996094 17.242188 21.714844 50.113281 18.492188 86.941406-.1875 2.152344-.414063 4.277344-.667969 6.386719 1.867187-2.042969 3.796875-4.066406 5.796875-6.066406 26.144531-26.144531 56.28125-41.359375 78.488281-41.71875-.359375 22.207031-15.574219 52.347656-41.71875 78.488281-2 2-4.023437 3.929688-6.066406 5.800781 2.109375-.257812 4.238281-.480469 6.386719-.671875 36.828125-3.222656 69.699218 4.492188 86.941406 18.492188zm0 0" fill="#00824d"/><path d="m470.890625 230.0625c-19.410156 10.792969-53.121094 12.683594-88.832031 3.117188-28.847656-7.730469-52.820313-21.285157-66.988282-36.25-14.964843-14.171876-28.519531-38.144532-36.25-66.988282-9.566406-35.710937-7.675781-69.421875 3.117188-88.832031 18.980469 11.371094 37.402344 39.457031 47.003906 74.980469 1.582032-4.140625 3.34375-8.304688 5.285156-12.464844 15.621094-33.507812 38.738282-58.113281 59.484376-66.046875 7.257812 20.988281 3.265624 54.515625-12.359376 88.023437-1.625 3.488282-3.339843 6.875-5.117187 10.164063 3.289063-1.777344 6.675781-3.492187 10.164063-5.117187 33.507812-15.625 67.035156-19.617188 88.023437-12.359376-7.933594 20.742188-32.539063 43.863282-66.046875 59.484376-4.164062 1.941406-8.324219 3.703124-12.464844 5.285156 35.523438 9.601562 63.609375 28.027344 74.980469 47.003906zm0 0" fill="#03ad6b"/><path d="m434.734375 191.816406c-11.496094 14.554688-34.609375 24.5-61.246094 24.5-19.402343 0-36.925781-5.277344-49.460937-13.765625-5.664063 1.285157-11.101563 1.828125-16.152344 1.570313-.253906-5.050782.289062-10.484375 1.574219-16.148438-8.488281-12.535156-13.765625-30.058594-13.765625-49.460937 0-26.640625 9.941406-49.75 24.5-61.246094 13.144531 10.382813 22.527344 30.242187 24.222656 53.613281 22.371094-21.40625 48.535156-32.929687 68.625-31.910156 1.015625 20.089844-10.503906 46.253906-31.910156 68.625 23.371094 1.695312 43.230468 11.078125 53.613281 24.222656zm0 0" fill="#54cc87"/><path d="m335.25 176.75c56.625 56.625 56.625 148.433594 0 205.0625l-63.640625 63.636719c-35.132813 35.136719-83.8125 48.460937-129.230469 39.996093-50.132812-24.875-90.949218-65.6875-115.824218-115.824218-8.464844-45.417969 4.859374-94.097656 39.996093-129.230469l63.640625-63.640625c56.625-56.625 148.433594-56.625 205.058594 0zm0 0" fill="#d9a92f"/><path d="m335.25 176.75c56.625 56.625 56.625 148.433594 0 205.0625l-63.640625 63.636719c-35.132813 35.136719-83.8125 48.460937-129.230469 39.996093-38.160156-18.933593-70.933594-47.09375-95.378906-81.582031-8.3125-45.300781 5.023438-93.792969 40.054688-128.824219l77.78125-77.78125c42.789062-42.789062 105.664062-53.238281 158.273437-31.359374 4.195313 3.355468 8.253906 6.964843 12.140625 10.851562zm0 0" fill="#f1bd1f"/><path d="m241.300781 373.847656c-.226562.773438-.226562 1.597656 0 2.375l2.511719 8.574219c.9375 3.203125-2.035156 6.179687-5.242188 5.238281l-8.574218-2.511718c-.773438-.226563-1.597656-.226563-2.375 0l-8.574219 2.511718c-3.203125.941406-6.179687-2.035156-5.238281-5.238281l2.507812-8.574219c.226563-.777344.226563-1.601562 0-2.375l-2.511718-8.574218c-.9375-3.207032 2.039062-6.179688 5.242187-5.242188l8.574219 2.511719c.773437.226562 1.597656.226562 2.375 0l8.574218-2.511719c3.203126-.9375 6.179688 2.035156 5.242188 5.242188zm-114.191406 24.71875c-.226563-.773437-.226563-1.597656 0-2.375l2.511719-8.574218c.941406-3.203126-2.035156-6.179688-5.242188-5.238282l-8.574218 2.511719c-.773438.226563-1.597657.226563-2.375 0l-8.574219-2.511719c-3.203125-.9375-6.179688 2.035156-5.238281 5.238282l2.511718 8.574218c.226563.777344.226563 1.601563 0 2.375l-2.511718 8.574219c-.941407 3.207031 2.035156 6.179687 5.238281 5.242187l8.578125-2.511718c.773437-.226563 1.597656-.226563 2.375 0l8.574218 2.511718c3.203126.9375 6.179688-2.035156 5.238282-5.242187zm173.796875-44.46875c.9375-3.203125-2.035156-6.179687-5.242188-5.238281l-8.574218 2.511719c-.773438.226562-1.597656.226562-2.375-.003906l-8.574219-2.507813c-3.203125-.9375-6.179687 2.035156-5.238281 5.238281l2.511718 8.574219c.226563.777344.226563 1.601563 0 2.375l-2.511718 8.574219c-.941406 3.203125 2.035156 6.179687 5.242187 5.242187l8.574219-2.511719c.773438-.226562 1.597656-.226562 2.375 0l8.574219 2.511719c3.203125.9375 6.179687-2.039062 5.238281-5.242187l-2.507812-8.574219c-.230469-.773437-.230469-1.601563 0-2.375zm-162.621094-12.625c-.226562-.773437-.226562-1.597656 0-2.371094l2.511719-8.578124c.9375-3.203126-2.039063-6.179688-5.242187-5.238282l-8.574219 2.511719c-.773438.226563-1.597657.226563-2.375 0l-8.574219-2.511719c-3.207031-.9375-6.179688 2.035156-5.242188 5.238282l2.511719 8.574218c.226563.777344.226563 1.601563 0 2.375l-2.511719 8.574219c-.9375 3.207031 2.039063 6.179687 5.242188 5.242187l8.574219-2.511718c.777343-.226563 1.601562-.226563 2.375 0l8.574219 2.511718c3.207031.9375 6.179687-2.035156 5.242187-5.242187zm11.265625-157.46875 8.578125-2.511718c.773438-.226563 1.597656-.226563 2.375 0l8.574219 2.511718c3.203125.9375 6.179687-2.035156 5.238281-5.238281l-2.507812-8.574219c-.230469-.777344-.230469-1.601562 0-2.375l2.511718-8.574218c.9375-3.207032-2.039062-6.179688-5.242187-5.242188l-8.574219 2.511719c-.777344.226562-1.601562.226562-2.375 0l-1.777344-.519531c-3.691406 2.289062-7.300781 4.769531-10.816406 7.421874l1.289063 4.402344c.226562.773438.226562 1.597656 0 2.375l-2.511719 8.574219c-.941406 3.203125 2.035156 6.175781 5.238281 5.238281zm162.53125 113c.9375-3.203125-2.039062-6.179687-5.242187-5.242187l-8.574219 2.511719c-.777344.230468-1.601563.230468-2.375 0l-8.574219-2.511719c-3.207031-.9375-6.179687 2.039062-5.242187 5.242187l2.511719 8.574219c.226562.773437.226562 1.601563 0 2.375l-2.511719 8.574219c-.9375 3.203125 2.035156 6.179687 5.242187 5.238281l8.574219-2.507813c.773437-.230468 1.597656-.230468 2.375 0l8.574219 2.507813c3.203125.941406 6.179687-2.035156 5.242187-5.238281l-2.511719-8.574219c-.226562-.773437-.226562-1.601563 0-2.375zm-187.605469-15c.226563.773438.226563 1.601563 0 2.375l-2.511718 8.574219c-.9375 3.203125 2.035156 6.179687 5.242187 5.242187l8.574219-2.511718c.777344-.230469 1.597656-.230469 2.375 0l8.574219 2.511718c3.203125.9375 6.179687-2.039062 5.242187-5.242187l-2.511718-8.574219c-.226563-.773437-.226563-1.601562 0-2.375l2.511718-8.574218c.9375-3.203126-2.039062-6.179688-5.242187-5.242188l-8.574219 2.511719c-.777344.230469-1.601562.230469-2.375 0l-8.574219-2.511719c-3.207031-.9375-6.179687 2.039062-5.242187 5.242188zm122.851563-68.492187c-.941406 3.203125 2.035156 6.179687 5.238281 5.242187l8.578125-2.511718c.773438-.230469 1.597657-.230469 2.371094 0l8.574219 2.511718c3.207031.9375 6.179687-2.039062 5.242187-5.242187l-2.511719-8.574219c-.226562-.773438-.226562-1.597656 0-2.375l2.511719-8.574219c.9375-3.203125-2.035156-6.179687-5.242187-5.242187l-8.574219 2.511718c-.777344.230469-1.597656.230469-2.375 0l-8.574219-2.511718c-3.203125-.9375-6.179687 2.039062-5.242187 5.242187l2.511719 8.574219c.230468.777344.226562 1.601562 0 2.375zm11.171875-57.09375c-.9375 3.203125 2.039062 6.179687 5.242188 5.238281l8.574218-2.511719c.773438-.226562 1.601563-.226562 2.375 0l8.574219 2.511719c3.203125.941406 6.179687-2.035156 5.242187-5.238281l-2.511718-8.574219c-.226563-.777344-.226563-1.601562 0-2.375l.28125-.964844c-9.046875-3.589844-18.375-6.230468-27.847656-7.929687.023437.105469.039062.210937.070312.316406l2.511719 8.578125c.226562.773438.226562 1.597656 0 2.371094zm-188.484375 253.324219c-.226563-.773438-.226563-1.601563 0-2.375l2.511719-8.574219c.9375-3.203125-2.035156-6.179688-5.242188-5.242188l-8.574218 2.511719c-.773438.230469-1.597657.230469-2.375 0l-8.574219-2.511719c-2.621094-.769531-5.089844 1.085938-5.382813 3.542969 5.667969 8.566406 11.839844 16.773438 18.476563 24.582031l6.429687 1.882813c3.207032.9375 6.179688-2.039063 5.242188-5.242188zm48.433594 34.972656c.9375-3.203125-2.035157-6.179688-5.242188-5.242188l-8.574219 2.511719c-.773437.226563-1.597656.226563-2.375 0l-8.574218-2.511719c-3.203125-.9375-6.179688 2.039063-5.242188 5.242188l1.882813 6.433594c7.804687 6.628906 16.011719 12.800781 24.582031 18.472656 2.457031-.292969 4.308594-2.761719 3.542969-5.382813l-2.511719-8.574219c-.226562-.773437-.226562-1.601562 0-2.375zm234.3125-107.03125-8.574219 2.511718c-.777344.226563-1.601562.226563-2.375 0l-8.578125-2.511718c-3.203125-.9375-6.175781 2.039062-5.238281 5.242187l2.511718 8.574219c.226563.773438.226563 1.597656 0 2.375l-2.511718 8.574219c-.9375 3.203125 2.035156 6.179687 5.242187 5.238281l8.574219-2.511719c.773438-.226562 1.597656-.226562 2.375 0l4.402344 1.289063c2.652344-3.515625 5.128906-7.121094 7.421875-10.8125l-.523438-1.777344c-.226562-.777344-.226562-1.601562 0-2.375l2.511719-8.574219c.941406-3.203125-2.035156-6.179687-5.238281-5.242187zm-217.113281-112.773438c.226562.773438.226562 1.597656 0 2.375l-2.511719 8.574219c-.9375 3.203125 2.035156 6.179687 5.242187 5.238281l8.574219-2.511718c.777344-.226563 1.597656-.226563 2.375 0l8.574219 2.511718c3.207031.941406 6.179687-2.035156 5.242187-5.238281l-2.511719-8.574219c-.226562-.777344-.226562-1.601562 0-2.375l2.511719-8.574218c.9375-3.203126-2.039062-6.179688-5.242187-5.242188l-8.574219 2.511719c-.777344.226562-1.597656.226562-2.375 0l-8.574219-2.511719c-3.203125-.9375-6.179687 2.039062-5.242187 5.242188zm231.015624 71.867188c-.226562-.773438-.226562-1.597656 0-2.375l2.511719-8.574219c.9375-3.203125-2.039062-6.179687-5.242187-5.238281l-8.574219 2.511718c-.777344.226563-1.601563.226563-2.375 0l-8.574219-2.511718c-3.207031-.9375-6.179687 2.035156-5.242187 5.238281l2.511719 8.574219c.226562.777344.226562 1.601562 0 2.375l-2.511719 8.574218c-.9375 3.207032 2.035156 6.179688 5.242187 5.242188l8.574219-2.511719c.773437-.226562 1.597656-.226562 2.375 0l8.574219 2.511719c3.203125.9375 6.179687-2.035156 5.238281-5.242188zm-59.730468-105.386719c.226562.773437.226562 1.597656 0 2.375l-2.511719 8.574219c-.9375 3.203125 2.035156 6.179687 5.238281 5.238281l8.578125-2.511719c.773438-.226562 1.597657-.226562 2.375 0l8.574219 2.511719c3.203125.9375 6.179688-2.035156 5.238281-5.238281l-2.511719-8.574219c-.226562-.777344-.226562-1.601563 0-2.375l2.511719-8.574219c.941407-3.207031-2.035156-6.179687-5.238281-5.242187l-8.578125 2.511719c-.773437.226562-1.597656.226562-2.375 0l-8.574219-2.511719c-3.203125-.9375-6.179687 2.035156-5.242187 5.242187zm16.320312 48.519531c.9375-3.207031-2.035156-6.179687-5.242187-5.242187l-8.574219 2.511719c-.773438.226562-1.597656.226562-2.375 0l-8.574219-2.511719c-3.203125-.9375-6.179687 2.035156-5.242187 5.238281l2.511718 8.578125c.230469.773437.226563 1.597656 0 2.371094l-2.511718 8.578125c-.9375 3.203125 2.039062 6.179687 5.242187 5.238281l8.574219-2.511719c.773438-.226562 1.601562-.226562 2.375 0l8.574219 2.511719c3.203125.9375 6.179687-2.035156 5.238281-5.238281l-2.507812-8.574219c-.230469-.777344-.230469-1.601563 0-2.375zm-242.0625 112.734375c-.230468-.773437-.230468-1.597656 0-2.371093l2.507813-8.578126c.941406-3.203124-2.035157-6.175781-5.238281-5.238281l-8.578126 2.511719c-.773437.226562-1.597656.226562-2.375 0l-8.574218-2.511719c-3.203125-.9375-6.179688 2.035157-5.238282 5.238281l2.511719 8.578126c.226563.773437.226563 1.597656 0 2.371093l-2.511719 8.578125c-.941406 3.203125 2.035157 6.179688 5.238282 5.238282l8.574218-2.511719c.777344-.226563 1.601563-.226563 2.375 0l8.578126 2.511719c3.203124.9375 6.175781-2.035157 5.238281-5.238282zm-45.921875-45.917969c-.226562-.773437-.226562-1.597656 0-2.375l2.511719-8.574218c.800781-2.738282-1.257812-5.300782-3.871094-5.40625-3.570312 9.195312-6.175781 18.675781-7.796875 28.289062l6.425781 1.882813c3.203126.9375 6.179688-2.035157 5.242188-5.242188zm32.109375-13.546874c.230469.773437.230469 1.597656 0 2.375l-2.507812 8.574218c-.941406 3.203125 2.035156 6.179688 5.238281 5.238282l8.578125-2.511719c.773438-.226563 1.597656-.226563 2.375 0l8.574219 2.511719c3.203125.9375 6.179687-2.035157 5.238281-5.238282l-2.511719-8.574218c-.226562-.777344-.226562-1.601563 0-2.375l2.511719-8.574219c.941406-3.207031-2.035156-6.179688-5.242188-5.242188l-8.574218 2.511719c-.773438.226562-1.597656.226562-2.375 0l-8.574219-2.511719c-3.203125-.9375-6.179687 2.035157-5.242187 5.242188zm187.605469 14.996093c.9375-3.203125-2.035156-6.179687-5.238281-5.238281l-8.578125 2.511719c-.773438.226562-1.597657.226562-2.371094 0l-8.578125-2.511719c-3.203125-.9375-6.175781 2.035156-5.238281 5.238281l2.511719 8.578125c.226562.773438.226562 1.597656 0 2.375l-2.511719 8.570313c-.9375 3.207031 2.035156 6.183593 5.242187 5.242187l8.574219-2.511718c.773437-.226563 1.597656-.226563 2.375 0l8.574219 2.511718c3.203125.9375 6.179687-2.035156 5.238281-5.242187l-2.507813-8.574219c-.230468-.773438-.230468-1.597656 0-2.371094zm112.511719-82.453125-.964844.285156c-.773438.226563-1.597656.226563-2.375 0l-8.574219-2.515624c-3.203125-.9375-6.179687 2.039062-5.242187 5.242187l2.515625 8.574219c.226562.777344.226562 1.601562 0 2.375l-2.515625 8.574218c-.9375 3.203126 2.039062 6.179688 5.242187 5.242188l8.574219-2.511719c.777344-.226562 1.601562-.226562 2.375 0l8.578125 2.511719c.105469.03125.210937.046875.316406.066406-1.699219-9.464844-4.339843-18.796875-7.929687-27.84375zm-286.210938 26.550782 8.574219-2.511719c.773437-.226563 1.597656-.226563 2.375 0l8.574219 2.511719c3.203125.9375 6.179687-2.039063 5.242187-5.242188l-2.511719-8.574219c-.226562-.773437-.226562-1.597656 0-2.375l2.511719-8.574219c.9375-3.203124-2.039062-6.179687-5.242187-5.238281l-8.574219 2.511719c-.773437.226562-1.601563.226562-2.375 0l-5.953125-1.746094-7.09375 7.09375 1.742188 5.957032c.226562.773437.226562 1.597656 0 2.375l-2.511719 8.570312c-.9375 3.203125 2.035156 6.179688 5.242187 5.242188zm154.867188 18.332031c-.9375 3.203125 2.039062 6.179687 5.242187 5.242187l8.574219-2.511718c.777344-.230469 1.601562-.226563 2.375 0l8.574219 2.511718c3.207031.9375 6.179687-2.039062 5.242187-5.242187l-2.511718-8.574219c-.226563-.773438-.226563-1.597656 0-2.375l2.511718-8.574219c.9375-3.203125-2.035156-6.179687-5.242187-5.238281l-8.574219 2.511719c-.773438.226562-1.597656.226562-2.375 0l-8.574219-2.511719c-3.203125-.941406-6.179687 2.035156-5.238281 5.238281l2.507812 8.574219c.230469.773438.230469 1.601562 0 2.375zm48.339844 135.34375-8.574219 2.515625c-.773438.226562-1.601563.226562-2.375 0l-8.574219-2.515625c-3.207031-.9375-6.179688 2.039062-5.242188 5.242187l2.511719 8.574219c.226563.777344.226563 1.601563 0 2.375l-2.511719 8.574219c-.9375 3.207031 2.035157 6.179687 5.242188 5.242187l8.574219-2.511719c.777343-.226562 1.601562-.226562 2.375 0l5.953125 1.742188 7.09375-7.09375-1.742188-5.953125c-.226562-.773437-.226562-1.597656 0-2.375l2.511719-8.574219c.9375-3.203125-2.039063-6.175781-5.242187-5.242187zm-105.433594-124.171875c-.9375 3.207031 2.035156 6.183594 5.242187 5.242187l8.574219-2.511719c.773438-.226562 1.597656-.226562 2.375 0l8.574219 2.511719c3.203125.9375 6.179687-2.035156 5.242187-5.238281l-2.511718-8.578125c-.226563-.773437-.226563-1.597656 0-2.375l2.511718-8.570313c.9375-3.207031-2.039062-6.183593-5.242187-5.242187l-8.574219 2.511719c-.777344.226562-1.601562.226562-2.375 0l-8.574219-2.511719c-3.207031-.9375-6.179687 2.035156-5.242187 5.242187l2.511718 8.570313c.226563.777344.226563 1.601563 0 2.375zm18.832031 37.574218c.9375-3.203124-2.035156-6.179687-5.242187-5.242187l-8.574219 2.511719c-.773438.226562-1.597657.230468-2.375 0l-8.574219-2.511719c-3.203125-.9375-6.179688 2.039063-5.242188 5.242187l2.515626 8.574219c.226562.773438.226562 1.597657 0 2.375l-2.511719 8.574219c-.941407 3.203125 2.035156 6.179688 5.238281 5.238281l8.578125-2.511719c.773437-.226562 1.597656-.226562 2.375 0l8.574219 2.511719c3.203125.941407 6.175781-2.035156 5.238281-5.238281l-2.511719-8.574219c-.226562-.773437-.226562-1.601562 0-2.375zm3.515625-151.761718c-.9375 3.207031 2.035156 6.179687 5.242188 5.242187l8.574218-2.511719c.773438-.226562 1.597656-.226562 2.371094 0l8.578125 2.511719c3.203125.9375 6.179687-2.035156 5.238281-5.242187l-2.511718-8.574219c-.226563-.773437-.226563-1.597656 0-2.375l2.511718-8.574219c.941406-3.203125-2.035156-6.179687-5.242187-5.238281l-8.574219 2.511719c-.773438.226562-1.597656.226562-2.375 0l-8.574219-2.511719c-3.203125-.941406-6.179687 2.035156-5.238281 5.238281l2.511719 8.574219c.226562.777344.226562 1.601563 0 2.375zm-17.199219 219.804687c-.226562-.773437-.226562-1.597656 0-2.375l2.507813-8.574219c.941406-3.203124-2.035156-6.179687-5.238282-5.238281l-8.574218 2.511719c-.777344.226562-1.601563.226562-2.375 0l-8.574219-2.515625c-3.207031-.9375-6.179687 2.039063-5.242187 5.242187l2.511718 8.574219c.226563.777344.226563 1.601563 0 2.375l-2.511718 8.574219c-.9375 3.207031 2.035156 6.179688 5.242187 5.242188l8.574219-2.511719c.773437-.226563 1.597656-.226563 2.375 0l8.574218 2.511719c3.203126.9375 6.179688-2.035157 5.238282-5.242188zm-11.175781 57.09375c-.226562-.773437-.226562-1.597656 0-2.375l2.511719-8.574219c.9375-3.203124-2.035157-6.179687-5.242188-5.238281l-8.574219 2.511719c-.773437.226562-1.597656.226562-2.375 0l-8.574218-2.511719c-3.203125-.941406-6.175782 2.035157-5.238282 5.238281l2.511719 8.574219c.226563.777344.226563 1.601563 0 2.375l-2.511719 8.574219c-.941406 3.207031 2.035157 6.179688 5.238282 5.242188l8.578125-2.511719c.773437-.226563 1.597656-.226563 2.375 0l8.570312 2.511719c3.207031.9375 6.179688-2.035157 5.242188-5.242188zm17.203125-219.800781c-.941406 3.203125 2.035156 6.179688 5.238281 5.238281l8.574219-2.511719c.777344-.226562 1.601563-.226562 2.375 0l8.574219 2.511719c3.207031.9375 6.179687-2.035156 5.242187-5.238281l-2.511719-8.574219c-.226562-.777343-.226562-1.601562 0-2.375l2.511719-8.578125c.9375-3.203125-2.039062-6.175781-5.242187-5.238281l-8.574219 2.511719c-.773437.226562-1.597656.226562-2.375 0l-8.574219-2.511719c-3.203125-.9375-6.179687 2.035156-5.242187 5.238281l2.511719 8.578125c.226562.773438.226562 1.597657 0 2.371094zm39.890625 208.628906c-.226562-.773437-.226562-1.601562 0-2.375l2.511719-8.574218c.941406-3.207032-2.035157-6.179688-5.238281-5.242188l-8.578126 2.511719c-.773437.226562-1.597656.226562-2.375 0l-8.574218-2.511719c-3.203125-.9375-6.179688 2.035156-5.242188 5.242188l2.515625 8.574218c.226563.773438.226563 1.597656 0 2.375l-2.511719 8.574219c-.941406 3.203125 2.035157 6.179687 5.238282 5.238281l8.578125-2.511718c.773437-.226563 1.597656-.226563 2.375 0l8.574219 2.511718c3.203124.941406 6.175781-2.035156 5.238281-5.238281zm-13.902344 40.90625-8.574218 2.507813c-.773438.230469-1.597657.230469-2.375 0l-8.574219-2.507813c-3.203125-.941406-6.179688 2.035156-5.242188 5.238282l1.882813 6.429687c9.617187-1.625 19.097656-4.230469 28.289062-7.796875-.105468-2.617188-2.667968-4.675781-5.40625-3.871094zm0 0" fill="#d58a2d"/></svg>