<svg height="512pt" viewBox="0 0 512.00056 512" width="512pt" xmlns="http://www.w3.org/2000/svg"><path d="m512 255.75c.132812 140.699219-112.148438 254.527344-252.835938 256.230469-29.925781.363281-58.675781-4.425781-85.445312-13.511719-5.238281-1.777344-9.78125-5.121094-13.0625-9.570312-28.082031-38.078126-66.453125-68.09375-111.019531-85.945313-3.035157-1.21875-5.605469-3.359375-7.410157-6.089844-26.761718-40.535156-42.320312-89.117187-42.226562-141.34375.261719-142.214843 117.625-257.574219 259.824219-255.4921872 139.539062 2.0429682 252.042969 115.7304682 252.175781 255.7226562zm0 0" fill="#b34068"/><path d="m438.914062 230c-2.496093 2.101562-5.09375 4.121094-7.804687 6.039062-33.820313 23.925782-57.445313 59.660157-66.210937 100.148438l-7.1875 33.199219c-8.765626 40.492187-32.390626 76.222656-66.210938 100.148437-35.664062 25.230469-77.875 34.355469-117.992188 28.875-54.980468-18.699218-101.546874-55.585937-132.554687-103.484375-29.839844-68.769531-17.125-149.015625 32.046875-205.179687 9.914062-11.324219 21.300781-21.679688 34.128906-30.753906l94.363282-66.753907 32.65625-23.097656 44.902343-31.765625c56.359375-39.867188 134.367188-26.496094 174.234375 29.863281l5.4375 7.683594c34.949219 49.402344 25.652344 116.792969-19.808594 155.078125zm0 0" fill="#fab2a8"/><path d="m438.914062 230c-2.496093 2.101562-5.09375 4.121094-7.804687 6.039062-33.820313 23.925782-57.445313 59.660157-66.210937 100.148438l-7.1875 33.199219c-8.765626 40.492187-32.390626 76.222656-66.210938 100.148437-35.667969 25.230469-77.878906 34.355469-118 28.875-44.929688-15.289062-84.242188-42.722656-114.035156-78.382812-26.308594-63.195313-17.046875-135.621094 23.117187-190.027344 12.007813-16.269531 26.769531-30.933594 44.183594-43.25l94.363281-66.753906 32.65625-23.097656 44.902344-31.765626c52.90625-37.421874 124.886719-27.933593 166.488281 19.988282 27.078125 48.140625 16.140625 109.167968-26.261719 144.878906zm0 0" fill="#fccfc9"/><path d="m274.175781 445.046875c-61.039062 43.175781-145.820312 28.644531-188.996093-32.390625-52.355469-74.011719-34.734376-176.816406 39.273437-229.171875l171.921875-121.617187c42.765625-30.25 102.167969-20.070313 132.421875 22.695312l5.433594 7.683594c27.257812 38.527344 18.082031 92.046875-20.445313 119.300781-40.050781 28.332031-67.828125 70.34375-78.207031 118.296875l-7.1875 33.195312c-7.195313 33.242188-26.449219 62.363282-54.214844 82.007813zm0 0" fill="#f9a29b"/><path d="m338.304688 318.84375c-1.007813 3.628906-1.925782 7.292969-2.730469 11l-7.183594 33.195312c-7.195313 33.238282-26.453125 62.363282-54.21875 82.003907-54.019531 38.214843-126.632813 31.21875-172.546875-13.207031 6.15625-77.089844 121.566406-225.398438 184.507812-210.234376 31.601563 7.617188 48.804688 56.160157 52.171876 97.242188zm-.929688-208.863281c30.847656 5.273437 76.089844.085937 94.09375-21.640625l-2.671875-3.777344c-30.253906-42.765625-89.65625-52.945312-132.421875-22.695312l-24.085938 17.039062c15.105469 16.667969 44.316407 27.519531 65.085938 31.074219zm107.972656 4.054687c-18.53125-8.605468-52.859375 10.570313-67.109375 18.539063-10.90625 6.097656-65.699219 36.734375-59.773437 72.496093 2.746094 16.566407 17.175781 26.128907 19.636718 27.757813 13.117188 8.691406 29.195313 9.542969 44.539063 6.113281 9.308594-10.125 19.722656-19.316406 31.144531-27.394531 31.664063-22.398437 43.480469-62.535156 31.5625-97.511719zm-285.285156 146.964844c11.523438-8.476562 25.519531-16.152344 25.179688-27.609375-.574219-19.367187-41.867188-41.773437-77.28125-36.578125-57.539063 52.96875-70.050782 140.546875-28.121094 207.792969 15.605468-23.144531 19.425781-98.882813 80.222656-143.605469zm122.242188-70.972656c3.058593-1.925782 32.382812-20.933594 31.019531-47.054688-1.320313-25.367187-30.929688-44.921875-59.140625-51.257812l-107.554688 76.082031c16.863282 29.328125 91.1875 50.226563 135.675782 22.230469zm0 0" fill="#f56d59"/><path d="m355.742188 171.761719c-22.546876 15.949219-48.578126 17.910156-58.148438 4.382812-9.566406-13.523437.953125-37.417969 23.496094-53.367187 22.542968-15.945313 48.574218-17.910156 58.144531-4.382813 9.570313 13.527344-.949219 37.421875-23.492187 53.367188zm0 0" fill="#f8df92"/><path d="m355.742188 171.761719c-14.664063 10.375-30.796876 14.824219-42.921876 12.949219-.472656-6.796876 1.929688-14.589844 6.699219-22.25 5.847657-2.21875 11.792969-5.355469 17.515625-9.402344 8.710938-6.160156 15.621094-13.507813 20.273438-20.984375 9.128906-3.464844 18.011718-4.683594 25.402344-3.542969.933593 13.433594-9.339844 30.761719-26.96875 43.230469zm0 0" fill="#fbf1d1"/></svg>