<svg height="512pt" viewBox="0 0 512 512" width="512pt" xmlns="http://www.w3.org/2000/svg"><path d="m512 256c0 141.386719-114.613281 256-256 256s-256-114.613281-256-256 114.613281-256 256-256 256 114.613281 256 256zm0 0" fill="#fccfc9"/><path d="m360.003906 22.011719c30.664063 13.648437 58.148438 33.152343 81.035156 57.089843-2.375.773438-4.90625 1.199219-7.542968 1.199219-8.449219 0-15.886719-4.316406-20.238282-10.863281-4.351562 6.546875-11.789062 10.863281-20.238281 10.863281s-15.886719-4.316406-20.238281-10.863281c-4.351562 6.546875-11.789062 10.863281-20.238281 10.863281s-15.886719-4.316406-20.238281-10.863281c-4.351563 6.546875-11.789063 10.863281-20.238282 10.863281-13.410156 0-24.285156-10.871093-24.285156-24.285156 0-12.882813 10.03125-23.417969 22.710938-24.230469 1.0625-10.410156 8.714843-18.851562 18.710937-21.144531 7.0625 2.101563 13.996094 4.503906 20.789063 7.183594 1.273437.5 8.503906 3.515625 10.011718 4.1875zm0 0" fill="#f77b68"/><path d="m327.0625 75.105469c-4.128906 3.25-9.332031 5.195312-14.996094 5.195312-13.410156 0-24.285156-10.875-24.285156-24.285156 0-12.882813 10.03125-23.417969 22.710938-24.230469 1.0625-10.410156 8.714843-18.851562 18.710937-21.144531 6.265625 1.867187 12.433594 3.964844 18.488281 6.289063-3.957031 3.855468-6.605468 9.046874-7.199218 14.855468-12.679688.8125-22.710938 11.347656-22.710938 24.230469 0 7.746094 3.632812 14.640625 9.28125 19.089844zm0 0" fill="#f45751"/><path d="m447.78125 214.4375h-150c-22.089844 0-40-17.910156-40-40v-80c0-22.09375 17.910156-40 40-40h116.054688c31.351562 24.585938 56.8125 56.332031 73.945312 92.773438v27.226562c0 22.089844-17.910156 40-40 40zm0 0" fill="#687178"/><path d="m482.417969 194.4375h-47.8125c-78.394531 0-142.429688-61.441406-146.601563-138.792969 3.128906-.785156 6.402344-1.207031 9.777344-1.207031h116.054688c31.351562 24.585938 56.8125 56.332031 73.945312 92.773438v27.226562c0 7.285156-1.957031 14.113281-5.363281 20zm0 0" fill="#8d959c"/><path d="m300 163.796875c0 13.414063-10.871094 24.285156-24.285156 24.285156-8.449219 0-15.890625-4.316406-20.238282-10.863281-4.351562 6.546875-11.789062 10.863281-20.238281 10.863281s-15.886719-4.316406-20.238281-10.863281c-4.351562 6.546875-11.789062 10.863281-20.238281 10.863281s-15.886719-4.316406-20.238281-10.863281c-4.347657 6.546875-11.789063 10.863281-20.238282 10.863281-13.414062 0-24.285156-10.871093-24.285156-24.285156 0-12.882813 10.03125-23.414063 22.710938-24.230469 1.25-12.238281 11.589843-21.785156 24.15625-21.785156 8.449218 0 15.886718 4.316406 20.238281 10.863281 4.347656-6.542969 11.789062-10.863281 20.238281-10.863281s15.886719 4.316406 20.238281 10.863281c4.347657-6.542969 11.789063-10.863281 20.238281-10.863281 12.832032 0 23.332032 9.957031 24.214844 22.566406 10.347656 2.785156 17.964844 12.222656 17.964844 23.449219zm171.71875-45.695313c-1.269531-.207031-2.570312-.320312-3.898438-.320312-8.449218 0-15.890624 4.316406-20.238281 10.863281-4.351562-6.542969-11.789062-10.863281-20.238281-10.863281s-15.890625 4.316406-20.238281 10.863281c-4.351563-6.542969-11.789063-10.863281-20.238281-10.863281-12.570313 0-22.90625 9.546875-24.15625 21.785156-12.679688.816406-22.710938 11.347656-22.710938 24.230469 0 13.414063 10.871094 24.285156 24.285156 24.285156 8.449219 0 15.890625-4.316406 20.238282-10.863281 4.351562 6.546875 11.789062 10.863281 20.238281 10.863281s15.886719-4.316406 20.238281-10.863281c4.351562 6.546875 11.789062 10.863281 20.238281 10.863281s15.886719-4.316406 20.238281-10.863281c4.347657 6.546875 11.789063 10.863281 20.238282 10.863281 5.914062 0 11.332031-2.113281 15.542968-5.628906-6.878906-22.972656-16.878906-44.59375-29.539062-64.351563zm0 0" fill="#f77b68"/><path d="m176.867188 117.78125c5.667968 0 10.871093 1.949219 15.003906 5.203125-5.035156 3.960937-8.476563 9.859375-9.160156 16.582031-12.679688.816406-22.710938 11.347656-22.710938 24.230469 0 7.75 3.632812 14.644531 9.28125 19.089844-4.128906 3.25-9.332031 5.195312-14.996094 5.195312-13.414062 0-24.285156-10.871093-24.285156-24.285156 0-12.882813 10.03125-23.417969 22.710938-24.230469 1.25-12.238281 11.589843-21.785156 24.15625-21.785156zm210 0c-12.570313 0-22.90625 9.546875-24.15625 21.785156-12.679688.816406-22.710938 11.347656-22.710938 24.230469 0 13.414063 10.871094 24.285156 24.285156 24.285156 5.664063 0 10.867188-1.945312 14.996094-5.195312-5.648438-4.445313-9.28125-11.339844-9.28125-19.089844 0-12.882813 10.03125-23.414063 22.710938-24.226563.683593-6.722656 4.125-12.621093 9.160156-16.585937-4.128906-3.253906-9.335938-5.203125-15.003906-5.203125zm0 0" fill="#f45751"/><path d="m512 256c0 22.847656-3.007812 44.988281-8.625 66.066406-1.113281.09375-2.238281.152344-3.375.152344h-150c-11.949219 0-22.671875-5.25-30-13.558594-7.328125 8.308594-18.050781 13.558594-30 13.558594h-150c-22.089844 0-40-17.910156-40-40v-80c0-22.089844 17.910156-40 40-40h150c11.949219 0 22.671875 5.246094 30 13.554688 7.328125-8.308594 18.050781-13.554688 30-13.554688h144.277344c11.4375 29.039062 17.722656 60.675781 17.722656 93.78125zm0 0" fill="#687178"/><path d="m310 202.21875v80c0 7.289062 1.960938 14.113281 5.363281 20h-38.539062c-78.394531 0-142.429688-61.441406-146.601563-138.792969 3.128906-.785156 6.40625-1.207031 9.777344-1.207031h150c11.953125 0 22.671875 5.246094 30 13.554688-6.21875 7.050781-10 16.304687-10 26.445312zm184.277344-40h-144.277344c-3.375 0-6.648438.421875-9.777344 1.207031 4.167969 77.351563 68.207032 138.792969 146.601563 138.792969h21.003906c2.734375-14.992188 4.171875-30.4375 4.171875-46.21875 0-33.105469-6.285156-64.742188-17.722656-93.78125zm0 0" fill="#8d959c"/><path d="m200 460h-110c-33.136719 0-60-26.863281-60-60v-110c0-33.136719 26.863281-60 60-60h110c33.136719 0 60 26.863281 60 60v110c0 33.136719-26.863281 60-60 60zm0 0" fill="#fff5f5"/><path d="m78.046875 260h23.046875c4.917969 0 8.90625 3.988281 8.90625 8.90625v.9375c0 4.917969-3.988281 8.90625-8.90625 8.90625h-30.023438c-.691406 3.644531-1.070312 7.402344-1.070312 11.25v80h21.09375c4.917969 0 8.90625 3.988281 8.90625 8.90625v.9375c0 4.917969-3.988281 8.90625-8.90625 8.90625h-21.09375v11.25c0 33.136719 26.863281 60 60 60h-40c-33.136719 0-60-26.863281-60-60v-110c0-33.136719 26.863281-60 60-60h40c-22.203125 0-41.578125 12.070312-51.953125 30zm110.859375 20h22.1875c4.917969 0 8.90625-3.988281 8.90625-8.90625v-.9375c0-4.917969-3.988281-8.90625-8.90625-8.90625h-22.1875c-4.917969 0-8.90625 3.988281-8.90625 8.90625v.9375c0 4.917969 3.988281 8.90625 8.90625 8.90625zm32.1875 90h-22.1875c-4.917969 0-8.90625 3.988281-8.90625 8.90625v.9375c0 4.917969 3.988281 8.90625 8.90625 8.90625h22.1875c4.917969 0 8.90625-3.988281 8.90625-8.90625v-.9375c0-4.917969-3.988281-8.90625-8.90625-8.90625zm0-60h-32.1875c-4.917969 0-8.90625 3.988281-8.90625 8.90625v.9375c0 4.917969 3.988281 8.90625 8.90625 8.90625h32.1875c4.917969 0 8.90625-3.988281 8.90625-8.90625v-.9375c0-4.917969-3.988281-8.90625-8.90625-8.90625zm0 0" fill="#fbdfba"/><path d="m200 470h-110c-38.597656 0-70-31.402344-70-70v-110c0-38.597656 31.402344-70 70-70h110c38.597656 0 70 31.402344 70 70v110c0 38.597656-31.402344 70-70 70zm-110-230c-27.570312 0-50 22.429688-50 50v110c0 27.570312 22.429688 50 50 50h110c27.570312 0 50-22.429688 50-50v-110c0-27.570312-22.429688-50-50-50zm0 0" fill="#b3b3b9"/><path d="m165 405h-40c-22.089844 0-40-17.910156-40-40v-40c0-22.089844 17.910156-40 40-40h40c22.089844 0 40 17.910156 40 40v40c0 22.089844-17.910156 40-40 40zm0 0" fill="#f45751"/><path d="m173.859375 285.996094c10 2.261718 18.578125 8.261718 24.183594 16.460937-9.402344 41.085938-39.164063 74.472657-78.074219 88.949219-6.199219-7.046875-9.96875-16.28125-9.96875-26.40625v-3.070312c29.554688-16.558594 52.511719-43.539063 63.859375-75.933594zm-39.339844 115.894531c4.761719 2 9.992188 3.109375 15.480469 3.109375h15c22.089844 0 40-17.910156 40-40v-34.984375c-13.769531 31.800781-39.003906 57.507813-70.480469 71.875zm23.433594-116.890625h-7.953125c-22.089844 0-40 17.910156-40 40v19.089844c21.550781-14.132813 38.464844-34.761719 47.953125-59.089844zm0 0" fill="#f77b68"/><path d="m422.472656 397.71875c.992188 1.398438 1.597656 3.21875 1.597656 5.210938v30.113281c0 4.394531-2.921874 7.960937-6.523437 7.960937h-2.910156l-333.351563-15.058594c-3.507812-.160156-6.285156-3.675781-6.285156-7.957031 0-2.234375.761719-4.253906 1.980469-5.703125-.714844-1.171875-1.175781-2.589844-1.269531-4.148437-.265626-4.269531 2.285156-8.03125 5.773437-8.511719l331.480469-45.625 2.898437-.265625c3.59375-.332031 6.726563 2.953125 7 7.339844l1.859375 30.027343c.160156 2.617188-.738281 5.023438-2.25 6.617188zm0 0" fill="#f7b95f"/><path d="m424.070312 421.535156v11.507813c0 4.398437-2.921874 7.960937-6.523437 7.960937h-2.910156l-333.351563-15.0625c-3.507812-.15625-6.285156-3.671875-6.285156-7.953125 0-2.234375.761719-4.25 1.984375-5.699219-.714844-1.171874-1.179687-2.59375-1.273437-4.152343-.140626-2.253907.507812-4.363281 1.664062-5.925781 1.191406 1.191406 2.726562 1.882812 4.382812 1.804687l333.335938-15.585937 2.898438-.265626c3.59375-.332031 6.289062-4.152343 6.015624-8.539062l.710938 11.476562c.269531 4.386719-2.421875 8.207032-6.015625 8.539063l-2.898437.265625-322.394532 15.074219 321.226563 14.515625h2.910156c3.601563 0 6.523437-3.566406 6.523437-7.960938zm0 0" fill="#f49f1f"/><path d="m471.121094 394.816406-.101563.152344c-10.882812 16.804688-23.675781 32.253906-38.082031 46.035156h-18.300781v-11.507812l1.382812-29.609375-.214843.019531-2.839844-45.90625 82.597656-7.605469c-6.449219 17.085938-14.667969 33.300781-24.441406 48.421875zm0 0" fill="#c0293e"/><path d="m469.457031 394.96875h1.5625c-7.949219 12.273438-16.921875 23.820312-26.796875 34.527344h-29.585937l1.3125-29.601563zm-56.492187-40.96875 2.128906 34.429688 63.457031-5.839844c6.574219-11.535156 12.269531-23.628906 17.011719-36.195313zm0 0" fill="#ec3c52"/></svg>