<svg id="Capa_1" enable-background="new 0 0 512 512" height="512" viewBox="0 0 512 512" width="512" xmlns="http://www.w3.org/2000/svg"><g><g><path d="m497.4 170.58c-113.36 146.22-339.77 127-426.86-36.23l-17.99-33.73c46.77-61.17 120.51-100.62 203.45-100.62 95.16 0 178.2 51.93 222.33 129 7.54 13.17 13.94 27.08 19.07 41.58z" fill="#92eaff"/><g><path d="m497.4 170.58c-73.03 94.2-192.98 119.74-292.37 82.34 16.47 3.33 33.52 5.08 50.97 5.08 95.16 0 178.2-51.93 222.32-129 7.54 13.18 13.95 27.08 19.08 41.58z" fill="#63dbfa"/></g></g><path d="m511.45 239.07-3.5 3.74c-41.01 43.82-90.51 74.67-143.47 92.52h-224.32c-51.41-17.32-99.6-46.93-139.98-88.84 1.37-37.67 10.89-73.24 26.84-105.05 2.1-4.22 4.33-8.36 6.66-12.44 5.66-9.9 11.97-19.38 18.87-28.38 13.76 4.78 25.41 15.56 30.96 29.06 15.5-16.23 40-15.94 58.67-3.49 8.36-20.41 34.33-33.34 55.49-27.1 21.16 6.23 35.61 29.79 31.58 51.48 7.96-4.28 17.49-6.34 26.75-5.93 4.38.18 8.71.92 12.77 2.23 12.66 4.09 23.5 13.51 29.31 25.48 9.09-11.68 22.46-14.78 37.23-13.73 14.76 1.06 28.75 9.86 36.09 22.72 7.3-10.91 24.41-15.69 37.1-12.36 12.7 3.33 22.65 15.24 23.66 28.33 7.22-12.1 32.07-10.85 41.3-.2 3.1-11.61 13.05-21.46 23.94-26.53 3.47 9.81 6.36 19.91 8.63 30.22.15.69.3 1.37.44 2.06 2.49 11.8 4.18 23.89 4.98 36.21z" fill="#fff"/><path d="m511.45 239.07-3.5 3.74c-41.01 43.82-90.51 74.67-143.47 92.52h-108.48v-190.69c4.38.18 8.71.92 12.77 2.23 12.66 4.09 23.5 13.51 29.31 25.48 9.09-11.68 22.46-14.78 37.23-13.73 14.76 1.06 28.75 9.86 36.09 22.72 7.3-10.91 24.41-15.69 37.1-12.36 12.7 3.33 22.65 15.24 23.66 28.33 7.22-12.1 32.07-10.85 41.3-.2 3.1-11.61 13.05-21.46 23.94-26.53 3.47 9.81 6.36 19.91 8.63 30.22.15.69.3 1.37.44 2.06 2.49 11.8 4.18 23.89 4.98 36.21z" fill="#dff7fd"/><path d="m511.45 239.07-3.5 3.74c-136.99 146.37-368.67 148.05-507.77 3.68 1.37-37.67 10.89-73.24 26.84-105.05 17.67 2.4 34.13 12.72 43.97 27.6 9.19-9.32 19.46-14.85 32.55-15.03s26.18 4.98 35.63 14.04c5.35-15.68 21.97-26.55 38.15-22.97 16.18 3.57 28.27 20.39 26.51 36.87 10.8-3.84 22.13 1.12 28.55 10.61 9.63-8.43 23.3-13.85 35.54-10.11 12.24 3.75 22.23 14.13 25.5 26.5 8.25-14.77 26.56-22.35 43.33-20.07 16.78 2.27 31.52 15.53 35.54 31.97 2.95-9.06 11.59-15.06 21.06-16.13 9.47-1.08 19.11 2.67 26.34 8.89s12.21 14.72 15.53 23.66c3.74-9.12 10.92-16.58 20.51-18.86s20.21.32 27.66 6.78c2.62-11.58 11.8-19.6 22.64-24.39.15.69.3 1.37.44 2.06 2.49 11.8 4.18 23.89 4.98 36.21z" fill="#dff7fd"/><path d="m510.77 239.8-2.82 3.01c-68.22 72.88-159.9 109.89-251.95 110.85v-172.27c3.76-.36 7.54-.06 11.19 1.06 12.24 3.75 22.23 14.13 25.5 26.5 8.25-14.77 26.56-22.35 43.33-20.07 16.78 2.27 31.52 15.53 35.54 31.97 2.95-9.06 11.59-15.06 21.06-16.13 9.47-1.08 19.11 2.67 26.34 8.89s12.21 14.72 15.53 23.66c3.74-9.12 10.92-16.58 20.51-18.86s20.21.32 27.66 6.78c2.62-11.58 11.8-19.6 22.64-24.39.15.69.3 1.37.44 2.06 2.54 12.03 4.25 24.36 5.03 36.94z" fill="#c5f2f9"/><g><path d="m512 256c0 14.55-1.22 28.82-3.56 42.7-.05.35-.11.69-.17 1.04-1.21 7.12-2.74 14.14-4.55 21.04-1.28 4.91-2.7 9.76-4.26 14.55-3.2 9.85-6.99 19.43-11.32 28.71-1.02 2.2-2.08 4.39-3.18 6.55-70.11 43.46-149.92 63.68-228.96 60.95-77.07-2.65-153.42-27.11-219.38-73.12l-21.22-14.8c-1-2.74-1.96-5.51-2.86-8.29-1.56-4.79-2.99-9.64-4.27-14.55-1.33-5.09-2.5-10.25-3.52-15.47-.36-1.85-.7-3.71-1.02-5.57-1.46-8.42-2.5-16.99-3.1-25.68-.42-5.96-.63-11.99-.63-18.06 0-3.19.06-6.36.18-9.51h20.11c12.74 0 24.87-5.53 33.2-15.18 8-9.28 16.19-18.59 24.19-27.87 8.33-9.65 20.45-15.18 33.2-15.18 11.64 0 22.8-4.63 31.03-12.86l18.63-18.63c2.28-4.07 7.68-4.53 11.99-2.74s7.4 5.61 10.03 9.47c12.17 17.86 18.21 39.21 29.3 57.76 9.77 16.33 25.77 31.14 44.14 32.99.24.04.49.06.73.08 2.26.19 4.56.18 6.88-.05 28.17-2.77 50.66-30.87 74.11-46.72 7.37-4.98 15.38-10.16 24.28-9.95 7.47.18 14.25 4.16 20.65 8.02 14.88 8.98 29.75 17.96 44.62 26.94 5.94 3.58 15.27 3.03 21.54.09 6.28-2.95 12.12-7.27 18.98-8.26 7.58-1.1 15.06 2.06 22.07 5.15 7.2 3.17 14.39 6.35 21.59 9.52.31 4.77.5 9.57.54 14.41.01.84.01 1.68.01 2.52z" fill="#b6e337"/><path d="m512 256c0 14.55-1.22 28.82-3.56 42.7-.05.35-.11.69-.17 1.04-1.21 7.12-2.74 14.14-4.55 21.04-1.28 4.91-2.7 9.76-4.26 14.55-3.2 9.85-6.99 19.43-11.32 28.71-1.02 2.2-2.08 4.39-3.18 6.55-70.11 43.46-149.92 63.68-228.96 60.95v-177.29c.24.04.49.06.73.08 2.26.19 4.56.18 6.88-.05 28.17-2.77 50.66-30.87 74.11-46.72 7.37-4.98 15.38-10.16 24.28-9.95 7.47.18 14.25 4.16 20.65 8.02 14.88 8.98 29.75 17.96 44.62 26.94 5.94 3.58 15.27 3.03 21.54.09 6.28-2.95 12.12-7.27 18.98-8.26 7.58-1.1 15.06 2.06 22.07 5.15 7.2 3.17 14.39 6.35 21.59 9.52.31 4.77.5 9.57.54 14.41.01.84.01 1.68.01 2.52z" fill="#6cdc2d"/><path d="m508.44 298.7c-.05.35-.11.69-.17 1.04-1.21 7.12-2.74 14.14-4.55 21.04-1.28 4.91-2.7 9.76-4.26 14.55-3.2 9.85-6.99 19.43-11.32 28.71-1.02 2.2-2.08 4.39-3.18 6.55-70.11 43.46-149.92 63.68-228.96 60.95-77.07-2.65-153.42-27.11-219.38-73.12l-21.22-14.8c-1-2.74-1.96-5.51-2.86-8.29-1.56-4.79-2.99-9.64-4.27-14.55-1.33-5.09-2.5-10.25-3.52-15.47h15.54c12.74 0 24.87-4.18 33.2-11.48 8-7.02 16.19-14.07 24.19-21.08 8.33-7.3 20.45-11.49 33.2-11.49 11.64 0 22.8-3.5 31.03-9.72l18.63-14.09c2.28-3.09 7.68-3.43 11.99-2.08 4.31 1.36 7.4 4.25 10.03 7.16 12.17 13.51 18.21 29.66 29.3 43.69 9.77 12.36 25.77 23.56 44.14 24.95.24.03.49.05.73.06 2.26.15 4.56.14 6.88-.03 28.17-2.1 50.66-23.35 74.11-35.34 7.37-3.77 15.38-7.68 24.28-7.53 7.47.14 14.25 3.15 20.65 6.07 14.88 6.79 29.75 13.59 44.62 20.38 5.94 2.71 15.27 2.29 21.54.07 6.28-2.23 12.12-5.5 18.98-6.25 7.58-.83 15.06 1.56 22.07 3.9 6.19 2.07 12.39 4.13 18.58 6.2z" fill="#6cdc2d"/><path d="m508.44 298.7c-.05.35-.11.69-.17 1.04-1.21 7.12-2.74 14.14-4.55 21.04-1.28 4.91-2.7 9.76-4.26 14.55-3.2 9.85-6.99 19.43-11.32 28.71-1.02 2.2-2.08 4.39-3.18 6.55-70.11 43.46-149.92 63.68-228.96 60.95v-120.37c.24.03.49.05.73.06 2.26.15 4.56.14 6.88-.03 28.17-2.1 50.66-23.35 74.11-35.34 7.37-3.77 15.38-7.68 24.28-7.53 7.47.14 14.25 3.15 20.65 6.07 14.88 6.79 29.75 13.59 44.62 20.38 5.94 2.71 15.27 2.29 21.54.07 6.28-2.23 12.12-5.5 18.98-6.25 7.58-.83 15.06 1.56 22.07 3.9 6.19 2.07 12.39 4.13 18.58 6.2z" fill="#50ba4a"/></g><g fill="#50ba4a"><path d="m117.697 370.985h6.999c.423-15.05-5.697-27.255-15.441-31.559 6.554 6.781 9.964 18.332 8.442 31.559z"/><path d="m131.49 370.985h-9.048c-.546-19.456 7.365-35.234 19.962-40.798-8.474 8.766-12.882 23.699-10.914 40.798z"/></g><g><path d="m484.96 370.59c-.27.56-.55 1.12-.84 1.68-4.43 8.69-9.35 17.1-14.71 25.18l-22.32 11.98c-120.25 64.54-263.92 68.51-387.55 10.69-11.09-13.24-20.85-27.62-29.09-42.95-.03-.06-.06-.11-.09-.17-.19-.35-.38-.71-.57-1.06-2.08-3.91-4.06-7.87-5.93-11.9-3.11-6.65-5.92-13.46-8.45-20.4 1.67.06 3.34.14 5.01.26.55.04 1.11.08 1.66.12 2.59.2 5.19.47 7.79.8 2.35.29 4.7.63 7.06 1.01 2.48.4 4.96.85 7.44 1.33 27.89 5.42 56 15.56 84.06 20.26 42.98 7.19 87.93.72 127.57-17.31 4.77-2.17 9.46-4.5 14.06-7 14.57-7.91 28.24-17.47 40.61-28.54 4.08-3.65 9.81-5.91 15.76-7.61 5-1.45 10.16-2.5 14.62-3.67h57.28c20.1 0 37.92 21.22 43.36 40.56 4 14.2 25.59 22.46 43.27 26.74z" fill="#fffce4"/><path d="m484.96 370.59c-.27.56-.55 1.12-.84 1.68-4.43 8.69-9.35 17.1-14.71 25.18l-22.32 11.98c-59.7 32.04-125.17 49.15-191.09 51.19v-110.51c4.77-2.17 9.46-4.5 14.06-7 14.57-7.91 28.24-17.47 40.61-28.54 4.08-3.65 9.81-5.91 15.76-7.61 5-1.45 10.16-2.5 14.62-3.67h57.28c20.1 0 37.92 21.22 43.36 40.56 4 14.2 25.59 22.46 43.27 26.74z" fill="#f3e6d0"/><path d="m365.84 348.33c-.43 5.05-6.74 7-11.79 7.47-26.65 2.51-53.86-1.12-78.91-10.54-1.68-.63-3.4-1.34-5.08-2.15 14.57-7.91 28.24-17.47 40.61-28.54 4.08-3.65 9.81-5.91 15.76-7.61 3.03 4.86 5.48 10.25 8.25 14.75 3.92 6.37 7.87 11.56 14.73 14.99 5.19 2.6 17.13 3.3 16.43 11.63z" fill="#ffc0a4"/><path d="m93.59 391.02c-2.55 4.91-9.86 3.27-14.95 1.1-15.49-6.61-31.67-11.61-48.19-14.95-.03-.06-.06-.11-.09-.17-.19-.35-.38-.71-.57-1.06-2.08-3.91-4.06-7.87-5.93-11.9-3.11-6.65-5.92-13.46-8.45-20.4 1.67.06 3.34.14 5.01.26.55.04 1.11.08 1.66.12 2.59.2 5.19.47 7.79.8 2.35.29 4.7.63 7.06 1.01 2.48.4 4.96.85 7.44 1.33 2.86 2.05 5.7 4.13 8.53 6.2 11.42 8.38 22.85 16.77 34.28 25.15 4.13 3.04 8.78 7.96 6.41 12.51z" fill="#f3e6d0"/></g><g fill="#5dbf1d"><path d="m282.866 420.768h7.582c.458-16.305-6.172-29.528-16.729-34.191 7.102 7.346 10.796 19.861 9.147 34.191z"/><path d="m297.81 420.768h-9.802c-.592-21.079 7.979-38.173 21.627-44.201-9.181 9.497-13.957 25.676-11.825 44.201z"/></g><path d="m475.56 387.7c-1.98 3.3-4.03 6.55-6.15 9.75-.01.01-.02.03-.02.04-7.31 10.98-15.42 21.36-24.28 31.06-14.18 15.53-30.24 29.3-47.83 40.96-3.46 2.3-6.99 4.52-10.57 6.65h-.01s-.01 0-.01.01c-7.21 4.28-14.63 8.22-22.26 11.79-32.7 15.32-69.17 23.92-107.64 24.04h-.79c-38.75 0-75.49-8.61-108.41-24.04-1.29-.59-2.57-1.21-3.84-1.83-3.11-1.52-6.18-3.1-9.22-4.74-25.45-13.73-48.3-31.66-67.64-52.84-2.51-2.75-4.97-5.56-7.35-8.43-.54-.64-1.07-1.28-1.59-1.93 66.25 3.83 133.73-3.29 198.05-10.31.79-.09 1.56-.17 2.35-.26 73.17-7.99 145.07-15.97 217.21-19.92z" fill="#ffeb98"/><path d="m475.56 387.7c-1.98 3.3-4.03 6.55-6.15 9.75-.01.01-.02.03-.02.04-7.31 10.98-15.42 21.36-24.28 31.06-14.18 15.53-30.24 29.3-47.83 40.96-3.46 2.3-6.99 4.52-10.57 6.65h-.01s-.01 0-.01.01c-7.21 4.28-14.63 8.22-22.26 11.79-32.7 15.32-69.17 23.92-107.64 24.04h-.79v-104.12c.79-.09 1.56-.17 2.35-.26 73.17-7.99 145.07-15.97 217.21-19.92z" fill="#f9e073"/><path d="m413.16 426.87c-9.47 9.79-15.37 24.98-16.14 42.81-3.38 2.24-6.82 4.4-10.31 6.48h-.01c-2.78 1.66-5.6 3.26-8.44 4.81 1.08-17.14-3.72-31.95-12.39-40.92 9.69 4.29 16.87 14.06 20.12 26.86 3.45-19.15 13.32-33.92 27.17-40.04z" fill="#5dbf1d"/><g fill="#5dbf1d"><path d="m149.61 489.23c-2.21-1-4.41-2.03-6.59-3.1-.02-.01-.05-.02-.07-.03-.91-.44-1.81-.89-2.71-1.35 1.95-17.25 10.2-30.71 22.18-36.01-8.64 8.94-13.54 23.53-12.81 40.49z"/><path d="m142.95 486.1c-4.23-2.07-8.39-4.25-12.49-6.55-.73-18.48-6.81-34.21-16.59-44.34 16.49 7.28 27.51 26.52 29.08 50.89z"/></g><path d="m397.28 469.51c-3.46 2.3-6.99 4.52-10.57 6.65h-.01s-.01 0-.01.01c-7.21 4.28-14.63 8.22-22.26 11.79-32.7 15.32-69.17 23.92-107.64 24.04h-.79c-38.75 0-75.49-8.61-108.41-24.04-1.29-.59-2.57-1.21-3.84-1.83-3.11-1.52-6.18-3.1-9.22-4.74 40.78-1.43 81.21-3.34 120.85-5.25 1.19-.05 2.36-.12 3.55-.17 46.4-2.22 92.45-4.45 138.35-6.46z" fill="#ffc0a4"/><path d="m346.262 75.61c0 21.152-17.148 38.3-38.3 38.3s-38.3-17.148-38.3-38.3 17.148-38.296 38.3-38.296c21.152.001 38.3 17.145 38.3 38.296z" fill="#fdd500"/><path d="m346.262 75.61c0 21.152-17.148 38.3-38.3 38.3v-76.595c21.152 0 38.3 17.144 38.3 38.295z" fill="#ffbc02"/><path d="m397.28 469.51c-3.46 2.3-6.99 4.52-10.57 6.65h-.01s-.01 0-.01.01c-7.21 4.28-14.63 8.22-22.26 11.79-32.7 15.32-69.17 23.92-107.64 24.04h-.79v-35.89c.98-.04 1.95-.1 2.93-.14 46.4-2.22 92.45-4.45 138.35-6.46z" fill="#ffa87a"/><g fill="#fff"><path d="m362.56 292.809c7.959-4.326 17.562-6.895 22.677-14.372 7.001-10.234 3.221-26.564 13.127-34.022 11.238-8.462 28.407 3.188 41.093-2.893 6.5-3.116 10.043-10.069 14.72-15.552 7.74-9.074 19.945-14.581 31.761-12.963s22.543 10.996 24.441 22.771-6.267 24.676-17.998 26.83c-11.189 2.055-23.608-4.832-33.645.523-10.878 5.804-13.174 23.389-25.263 25.808-8.803 1.762-17.778-6.158-26.309-3.361-8.102 2.656-10.73 13.286-18.108 17.559-6.198 3.589-13.938 1.808-21.101 1.904-4.795.065-15.366 8.302-17.573 4.038-2.811-5.431 8.621-14.337 12.178-16.27z"/><path d="m295.801 473.225c-5.36-2.913-11.827-4.643-15.271-9.679-4.715-6.892-2.169-17.889-8.84-22.912-7.568-5.699-19.13 2.147-27.673-1.948-4.377-2.098-6.763-6.78-9.913-10.473-5.212-6.111-13.431-9.819-21.389-8.729s-15.181 7.405-16.459 15.335 4.221 16.617 12.12 18.068c7.535 1.384 15.898-3.254 22.658.353 7.326 3.908 8.872 15.751 17.013 17.38 5.928 1.186 11.972-4.147 17.717-2.264 5.456 1.789 7.226 8.947 12.195 11.825 4.174 2.417 9.387 1.217 14.21 1.282 3.229.044 10.348 5.591 11.834 2.719 1.892-3.658-5.807-9.656-8.202-10.957z"/></g></g></svg>