<svg id="Capa_1" enable-background="new 0 0 512 512" height="512" viewBox="0 0 512 512" width="512" xmlns="http://www.w3.org/2000/svg"><g><path d="m512 256c0 8.48-.41 16.86-1.23 25.12l-58.41 52.94c-116.53 105.6-288.55 122.2-423.12 40.83-8.94-16.99-16.01-35.12-20.97-54.11-.79-3.04-1.53-6.11-2.22-9.2-.86-3.91-1.64-7.86-2.32-11.84-1.46-8.42-2.5-16.99-3.1-25.68 0-.06-.01-.12-.01-.18-.41-5.9-.62-11.87-.62-17.88 0-46.22 12.25-89.57 33.68-127 44.12-77.07 127.16-129 222.32-129s178.2 51.93 222.32 129c12.98 22.67 22.59 47.52 28.15 73.86 3.46 16.36 5.35 33.28 5.52 50.62.01.84.01 1.68.01 2.52z" fill="#92eaff"/><g><path d="m512 256c0 8.49-.41 16.88-1.22 25.15l-.01-.03-58.41 52.94c-116.52 105.59-288.53 122.2-423.1 40.84-8.96-17-16.03-35.13-20.99-54.12-5.39-20.69-8.27-42.4-8.27-64.78 0-46.22 12.25-89.57 33.68-127 44.12 77.07 127.16 129 222.32 129s178.2-51.93 222.32-129c21.43 37.43 33.68 80.78 33.68 127z" fill="#63dbfa"/></g><g><g><path d="m510.77 281.12c-.6 6.28-1.44 12.49-2.5 18.62-.71 4.12-1.51 8.2-2.42 12.25-.66 2.95-1.37 5.88-2.13 8.79-5.97 22.93-15.05 44.6-26.74 64.54l-343.55 95.48c5.1-6.01 12.32-10.25 20.09-11.67-6.67-11.41-5.71-27.76 1.06-39.11 6.78-11.35 23.55-24.83 36.76-24.37-2.01-11.8 4.37-24.55 15.01-30.02 10.64-5.49 24.72-3.26 33.16 5.23 2.59-16.75 18.23-28.83 34.88-25.67-6.5-11.52-4.86-31.59 5.18-40.21 10.03-8.62 26.22-8.97 36.62-.8 2.56-9.64 12-13.64 21.48-16.76 9.47-3.11 20.46-1.13 28.24 5.11.01-8.17 3.82-16.97 9.95-22.41 6.55-5.81 18.43-5.98 26.8-4.65-.76-13.27 5.25-21.3 6.84-23.34 6.34-8.2 17.17-13.09 27.52-11.5 13.83 2.11 25 15.51 24.58 29.49.11-3.9 7.83-6.49 10.75-6.62 5.29-.24 10.39 1.98 14.77 4.74 6.99 4.41 11.18 11.52 10.66 19.89 3.15-4.2 7.86-6.11 12.99-7.01z" fill="#fff"/><path d="m505.85 311.99c-.66 2.95-1.37 5.88-2.13 8.79-5.97 22.93-15.05 44.6-26.74 64.54-.01-.01-.01-.02-.01-.02l-308.87 111.2c.65-.89 1.36-1.76 2.11-2.58 5.83-6.42 14.1-10.57 22.74-11.4-8.12-9.14-12.81-23.06-7.06-33.85s18.56-17.35 30.67-15.72c-2.43-9.55 3.36-21.17 12.1-25.72 8.74-4.54 20.49-2.28 26.9 5.21.44-9.79 5.38-20.43 12.83-26.79 7.44-6.35 17.57-9.45 27.3-8.35-4.65-10.56-2.84-25.85 6.02-33.25 8.85-7.39 22.66-8.1 32.22-1.64.25-8.88 7.06-17.54 15.69-19.62 8.63-2.1 18.4 2.2 22.7 9.98.98-10.59 5.22-20.45 14.15-26.24 8.93-5.77 21.93-5.54 29.4 2.03-.48-9.22 2.63-19.87 10.25-25.06 7.63-5.19 18.76-5.17 25.71.89 4.88 4.24 7.33 11.1 6.25 17.48 6.99-3.22 15.53-3.01 21.92 1.3 6.38 4.3 10.28 12.05 9.92 19.74 4.63-4.92 10-8.68 15.93-10.92z" fill="#dff7fd"/></g><path d="m476.97 385.3c-.18.32-.36.64-.55.95-13.03 22.02-29.28 41.92-48.09 59.05l-3.64 1.41c-106.42 41.19-225.91 30.88-323.69-27.94l-55.65-33.47z" fill="#63dbfa"/><g><path d="m412.13 436.528h-6.175l.33-10.348.407-12.711h4.701l.406 12.711z" fill="#ec771b"/><path d="m412.13 436.528h-2.969v-23.059h2.232l.406 12.711z" fill="#c55732"/><path d="m409.161 413.469v12.711h-2.876l.407-12.711z" fill="#c55732"/><path d="m411.799 426.18h-2.638v-12.711h2.232z" fill="#a44e3e"/><g><path d="m418.751 417.515c-2.656 2.614-6.123 3.922-9.59 3.922s-6.934-1.307-9.59-3.922c-4.237-4.17-5.084-10.413-2.542-15.412 2.658-5.228 5.435-10.396 7.694-15.809l4.438-10.634 4.431 10.613c2.263 5.421 5.043 10.597 7.704 15.834 2.539 4.998 1.691 11.239-2.545 15.408z" fill="#43af3e"/><path d="m418.751 417.515c-2.656 2.614-6.123 3.922-9.59 3.922-1.645 0-3.29-1.307-4.55-3.922-2.038-4.227-2.423-10.584-1.156-15.616 1.762-6.999 3.324-14.207 4.77-21.511l.936-4.729 4.431 10.613c2.263 5.421 5.043 10.597 7.704 15.834 2.539 4.999 1.691 11.24-2.545 15.409z" fill="#00a23e"/><path d="m418.751 417.515c-2.656 2.614-6.123 3.922-9.59 3.922v-45.777l4.431 10.613c2.263 5.421 5.043 10.597 7.704 15.834 2.539 4.998 1.691 11.239-2.545 15.408z" fill="#008839"/></g></g><g><path d="m37.935 175.31h74.006v30.109h-74.006z" fill="#4e689b"/><path d="m74.938 175.31h37.003v30.109h-37.003z" fill="#384c81"/><path d="m120.63 190.36v249.95h-.72c-2.29-1.11-4.57-2.26-6.83-3.44l-67.78-35.44c-5.65-8.16-10.83-16.67-15.51-25.49-.19-.35-.37-.7-.55-1.05v-184.53z" fill="#dff7fd"/><path d="m120.63 190.36v249.95h-.72c-2.29-1.11-4.57-2.26-6.83-3.44l-38.14-19.94v-226.57z" fill="#c5f2f9"/><path d="m37.937 205.42h74.002v14.797h-74.002z" fill="#ffc300"/><path d="m74.938 205.42h37.001v14.797h-37.001z" fill="#ff9f00"/><path d="m37.937 235.02h74.002v14.802h-74.002z" fill="#ffc300"/><path d="m74.938 235.02h37.001v14.802h-37.001z" fill="#ff9f00"/><path d="m37.935 264.623h74.006v14.801h-74.006z" fill="#ff9f00"/><path d="m37.937 294.225h74.002v14.803h-74.002z" fill="#ffc300"/><path d="m74.938 294.225h37.001v14.803h-37.001z" fill="#ff9f00"/><g><path d="m67.536 205.42h14.803v14.797h-14.803z" fill="#605f74"/><path d="m97.14 205.418h14.801v14.801h-14.801z" fill="#58586b"/></g><g><path d="m37.935 235.021h14.801v14.801h-14.801z" fill="#605f74"/><path d="m97.14 235.021h14.801v14.801h-14.801z" fill="#58586b"/></g><g><path d="m37.937 264.625h44.403v14.797h-44.403z" fill="#605f74"/><path d="m97.14 264.623h14.801v14.801h-14.801z" fill="#58586b"/></g><g><path d="m97.14 294.226h14.801v14.801h-14.801z" fill="#58586b"/></g><path d="m74.938 205.42h7.401v14.797h-7.401z" fill="#58586b"/><path d="m74.938 264.625h7.401v14.797h-7.401z" fill="#58586b"/><path d="m37.936 323.824h74.002v14.803h-74.002z" fill="#ffc300"/><path d="m74.941 323.824h36.998v14.803h-36.998z" fill="#ff9f00"/><g><path d="m97.14 323.824h14.801v14.801h-14.801z" fill="#58586b"/></g><path d="m52.736 323.824h-14.801v14.802h14.801 14.801v-14.802z" fill="#605f74"/><path d="m37.936 353.417h74.002v14.803h-74.002z" fill="#ffc300"/><path d="m74.941 353.417h36.998v14.803h-36.998z" fill="#ff9f00"/><path d="m97.14 353.419h-14.801v14.801h14.801 14.801v-14.801z" fill="#58586b"/><path d="m111.94 383.02v14.79h-69.1c-1.68-2.52-3.31-5.07-4.9-7.65v-7.14z" fill="#ffc300"/><path d="m74.941 383.016h36.998v14.796h-36.998z" fill="#ff9f00"/><g><path d="m97.14 383.014h14.801v14.801h-14.801z" fill="#58586b"/></g><g><path d="m52.737 353.419h14.801v14.801h-14.801z" fill="#58586b"/></g></g><g><path d="m288.609 197.474h74.006v30.109h-74.006z" fill="#4e689b"/><path d="m325.612 197.474h37.003v30.109h-37.003z" fill="#384c81"/><path d="m371.31 212.53v209.89c-28.06 18.94-59.17 31.74-91.39 38.22v-248.11z" fill="#fff"/><path d="m371.31 212.53v209.89c-14.51 9.8-29.83 17.95-45.7 24.43v-234.32z" fill="#dff7fd"/><path d="m288.611 227.583h74.002v14.797h-74.002z" fill="#ffc300"/><path d="m325.612 227.583h37.001v14.797h-37.001z" fill="#ff9f00"/><path d="m288.611 257.183h74.002v14.803h-74.002z" fill="#ffc300"/><path d="m325.612 257.183h37.001v14.803h-37.001z" fill="#ff9f00"/><path d="m288.609 286.787h74.006v14.801h-74.006z" fill="#ff9f00"/><path d="m288.611 316.388h74.002v14.803h-74.002z" fill="#ffc300"/><path d="m325.612 316.388h37.001v14.803h-37.001z" fill="#ff9f00"/><g><path d="m318.211 227.583h14.803v14.797h-14.803z" fill="#605f74"/><path d="m347.814 227.582h14.801v14.801h-14.801z" fill="#58586b"/></g><g><path d="m288.609 257.185h14.801v14.801h-14.801z" fill="#605f74"/><path d="m347.814 257.185h14.801v14.801h-14.801z" fill="#58586b"/></g><g><path d="m288.611 286.789h44.403v14.797h-44.403z" fill="#605f74"/><path d="m347.814 286.787h14.801v14.801h-14.801z" fill="#58586b"/></g><g><path d="m347.814 316.39h14.801v14.801h-14.801z" fill="#58586b"/></g><path d="m325.612 227.583h7.401v14.797h-7.401z" fill="#58586b"/><path d="m325.612 286.789h7.401v14.797h-7.401z" fill="#58586b"/><path d="m288.611 345.988h74.002v14.803h-74.002z" fill="#ffc300"/><path d="m325.615 345.988h36.997v14.803h-36.997z" fill="#ff9f00"/><g><path d="m347.814 345.988h14.801v14.801h-14.801z" fill="#58586b"/></g><path d="m303.41 345.988h-14.801v14.801h14.801 14.801v-14.801z" fill="#605f74"/><path d="m288.611 375.58h74.002v14.803h-74.002z" fill="#ffc300"/><path d="m325.615 375.58h36.997v14.803h-36.997z" fill="#ff9f00"/><path d="m347.814 375.583h-14.801v14.801h14.801 14.801v-14.801z" fill="#58586b"/><path d="m288.611 405.18h74.002v14.796h-74.002z" fill="#ffc300"/><path d="m325.615 405.18h36.997v14.796h-36.997z" fill="#ff9f00"/><g><path d="m347.814 405.177h14.801v14.801h-14.801z" fill="#58586b"/></g><g><path d="m303.411 375.583h14.801v14.801h-14.801z" fill="#58586b"/></g></g><g><g><path d="m105.832 144.084h74.006v30.11h-74.006z" fill="#4e689b"/><path d="m142.836 144.084h37.003v30.11h-37.003z" fill="#384c81"/><path d="m188.53 159.14v281.17h-68.62c-2.29-1.11-4.57-2.26-6.83-3.44l-15.94-8.33v-269.4z" fill="#fff"/><path d="m142.836 159.139h45.693v281.173h-45.693z" fill="#dff7fd"/><path d="m105.832 175.559h74.006v14.801h-74.006z" fill="#ffc300"/><path d="m105.834 205.42h74.002v14.797h-74.002z" fill="#ffc300"/><path d="m142.836 205.42h37.001v14.797h-37.001z" fill="#ff9f00"/><path d="m105.834 235.02h74.002v14.802h-74.002z" fill="#ffc300"/><path d="m142.836 235.02h37.001v14.802h-37.001z" fill="#ff9f00"/><path d="m105.832 264.623h74.006v14.801h-74.006z" fill="#ff9f00"/><path d="m105.834 294.225h74.002v14.803h-74.002z" fill="#ffc300"/><path d="m142.836 294.225h37.001v14.803h-37.001z" fill="#ff9f00"/><g><path d="m105.832 175.559h14.801v14.801h-14.801z" fill="#605f74"/><path d="m135.434 175.557h14.803v14.803h-14.803z" fill="#605f74"/><path d="m165.038 175.559h14.801v14.801h-14.801z" fill="#58586b"/></g><g><path d="m135.434 205.42h14.803v14.797h-14.803z" fill="#605f74"/><path d="m165.038 205.418h14.801v14.801h-14.801z" fill="#58586b"/></g><g><path d="m105.832 235.021h14.801v14.801h-14.801z" fill="#605f74"/><path d="m165.038 235.021h14.801v14.801h-14.801z" fill="#58586b"/></g><g><path d="m105.834 264.625h44.403v14.797h-44.403z" fill="#605f74"/><path d="m165.038 264.623h14.801v14.801h-14.801z" fill="#58586b"/></g><g><path d="m165.038 294.226h14.801v14.801h-14.801z" fill="#58586b"/></g><g fill="#58586b"><path d="m142.836 175.557h7.401v14.803h-7.401z"/><path d="m142.836 205.42h7.401v14.797h-7.401z"/><path d="m142.836 264.625h7.401v14.797h-7.401z"/></g><path d="m105.834 323.824h74.002v14.803h-74.002z" fill="#ffc300"/><path d="m142.839 323.824h36.998v14.803h-36.998z" fill="#ff9f00"/><g><path d="m165.038 323.824h14.801v14.801h-14.801z" fill="#58586b"/></g><path d="m120.634 323.824h-14.802v14.802h14.802 14.801v-14.802z" fill="#605f74"/><path d="m105.834 353.417h74.002v14.803h-74.002z" fill="#ffc300"/><path d="m142.839 353.417h36.998v14.803h-36.998z" fill="#ff9f00"/><path d="m165.038 353.419h-14.802v14.801h14.802 14.801v-14.801z" fill="#58586b"/><path d="m105.834 383.016h74.002v14.796h-74.002z" fill="#ffc300"/><path d="m142.839 383.016h36.998v14.796h-36.998z" fill="#ff9f00"/><g><path d="m165.038 383.014h14.801v14.801h-14.801z" fill="#58586b"/></g><g><path d="m120.635 353.419h14.801v14.801h-14.801z" fill="#58586b"/></g></g><g><g><path d="m271.229 205.291v56.499h-74.01v-28.608l37.005-13.942z" fill="#4e689b"/><path d="m271.229 205.291v56.499h-37.005v-42.55z" fill="#384c81"/></g><path d="m188.529 249.826h91.387v190.485h-91.387z" fill="#fff"/><path d="m234.222 249.826h45.693v190.485h-45.693z" fill="#dff7fd"/><path d="m197.219 264.623h74.006v14.801h-74.006z" fill="#ff9f00"/><path d="m197.221 294.225h74.002v14.803h-74.002z" fill="#ffc300"/><path d="m234.222 294.225h37.001v14.803h-37.001z" fill="#ff9f00"/><g><path d="m197.221 264.625h44.403v14.797h-44.403z" fill="#605f74"/><path d="m256.424 264.623h14.801v14.801h-14.801z" fill="#58586b"/></g><g><path d="m256.424 294.226h14.801v14.801h-14.801z" fill="#58586b"/></g><path d="m234.222 264.625h7.401v14.797h-7.401z" fill="#58586b"/><path d="m197.221 323.824h74.002v14.803h-74.002z" fill="#ffc300"/><path d="m234.226 323.824h36.998v14.803h-36.998z" fill="#ff9f00"/><g><path d="m256.424 323.824h14.801v14.801h-14.801z" fill="#58586b"/></g><path d="m212.02 323.824h-14.801v14.802h14.801 14.802v-14.802z" fill="#605f74"/><path d="m197.221 353.417h74.002v14.803h-74.002z" fill="#ffc300"/><path d="m234.226 353.417h36.998v14.803h-36.998z" fill="#ff9f00"/><path d="m256.424 353.419h-14.801v14.801h14.801 14.802v-14.801z" fill="#58586b"/><path d="m197.221 383.016h74.002v14.796h-74.002z" fill="#ffc300"/><path d="m234.226 383.016h36.998v14.796h-36.998z" fill="#ff9f00"/><g><path d="m256.424 383.014h14.801v14.801h-14.801z" fill="#58586b"/></g><g><path d="m212.022 353.419h14.801v14.801h-14.801z" fill="#58586b"/></g></g></g><path d="m272.89 471.02v40.43c-5.33.35-10.69.53-16.1.55h-.79c-74.9 0-142.29-32.17-189.11-83.45-7.79-8.53-15.01-17.59-21.59-27.12 43.31 5.03 85.91 15.46 126.79 31.08z" fill="#b6e337"/><g><path d="m128.351 438.178h-6.169l.33-10.336.407-12.698h4.695l.406 12.698z" fill="#ec771b"/><path d="m128.351 438.178h-2.967v-23.034h2.23l.406 12.698z" fill="#c55732"/><path d="m125.384 415.144v12.698h-2.872l.407-12.698z" fill="#c55732"/><path d="m128.02 427.842h-2.636v-12.698h2.23z" fill="#a44e3e"/><g><path d="m134.965 419.185c-2.653 2.612-6.117 3.917-9.58 3.917s-6.927-1.306-9.58-3.917c-4.232-4.165-5.079-10.402-2.539-15.396 2.656-5.223 5.429-10.385 7.686-15.792l4.434-10.623 4.426 10.602c2.261 5.415 5.038 10.585 7.696 15.817 2.536 4.993 1.688 11.228-2.543 15.392z" fill="#43af3e"/><path d="m134.965 419.185c-2.653 2.612-6.117 3.917-9.58 3.917-1.643 0-3.286-1.306-4.545-3.917-2.035-4.222-2.421-10.572-1.155-15.599 1.76-6.991 3.32-14.192 4.765-21.488l.935-4.724 4.426 10.602c2.261 5.415 5.038 10.585 7.696 15.817 2.537 4.993 1.689 11.228-2.542 15.392z" fill="#00a23e"/><path d="m134.965 419.185c-2.653 2.612-6.117 3.917-9.58 3.917v-45.728l4.426 10.602c2.261 5.415 5.038 10.585 7.696 15.817 2.537 4.993 1.689 11.228-2.542 15.392z" fill="#008839"/></g></g><g><path d="m212.39 405.043h-6.126l.328-10.265.403-12.611h4.663l.404 12.611z" fill="#ec771b"/><path d="m212.39 405.043h-2.946v-22.876h2.214l.404 12.611z" fill="#c55732"/><path d="m209.444 382.167v12.611h-2.852l.403-12.611z" fill="#c55732"/><path d="m212.062 394.778h-2.618v-12.611h2.214z" fill="#a44e3e"/><g><path d="m218.958 386.181c-2.635 2.594-6.074 3.89-9.514 3.89-3.439 0-6.879-1.297-9.514-3.89-4.203-4.137-5.044-10.33-2.522-15.29 2.637-5.187 5.392-10.313 7.633-15.683l4.403-10.55 4.395 10.528c2.245 5.378 5.003 10.512 7.643 15.708 2.52 4.96 1.678 11.151-2.524 15.287z" fill="#43af3e"/><path d="m218.958 386.181c-2.635 2.594-6.074 3.89-9.514 3.89-1.632 0-3.263-1.297-4.514-3.89-2.021-4.193-2.404-10.499-1.147-15.492 1.748-6.943 3.297-14.094 4.732-21.339l.929-4.691 4.395 10.528c2.245 5.378 5.003 10.512 7.643 15.708 2.52 4.959 1.678 11.15-2.524 15.286z" fill="#00a23e"/><path d="m218.958 386.181c-2.635 2.594-6.074 3.89-9.514 3.89v-45.412l4.395 10.528c2.245 5.378 5.003 10.512 7.643 15.708 2.52 4.959 1.678 11.15-2.524 15.286z" fill="#008839"/></g></g><path d="m272.89 506.64v4.81c-5.33.35-10.69.53-16.1.55h-.79c-67.93 0-129.69-26.46-175.52-69.64 31.19 5.79 61.85 14.4 91.61 25.77z" fill="#6cdc2d"/><path d="m428.33 445.3c-7.56 6.89-15.53 13.33-23.88 19.28-37.58 26.79-82.7 43.69-131.56 46.87-5.33.35-10.69.53-16.1.55h-.79c-67.93 0-129.69-26.46-175.52-69.64-1.95-1.84-3.87-3.71-5.76-5.62 25.9-3.86 52.75-1 78.18-7.42 29.45-7.43 59.94-29.89 87.01-44.14 5.26-2.77 10.62-5.56 16.09-8.09 14.16-6.59 28.99-11.49 44.32-9.97 8.88.89 17.22 3.88 25.16 7.95 9.17 4.71 17.81 10.86 26.17 16.91 17.99 13 35.98 26.01 53.97 39.02 5.22 3.77 14.53 8.84 22.71 14.3z" fill="#50ba4a"/><g><path d="m371.736 407.605h-6.121l.328-10.257.403-12.6h4.659l.403 12.6z" fill="#ec771b"/><path d="m371.736 407.605h-2.943v-22.857h2.212l.403 12.6z" fill="#c55732"/><path d="m368.793 384.748v12.6h-2.85l.403-12.6z" fill="#c55732"/><path d="m371.408 397.348h-2.615v-12.6h2.212z" fill="#a44e3e"/><g><path d="m378.299 388.759c-2.632 2.591-6.069 3.887-9.506 3.887-3.436 0-6.873-1.296-9.506-3.887-4.2-4.133-5.04-10.322-2.52-15.277 2.635-5.183 5.387-10.305 7.627-15.67l4.4-10.541 4.392 10.52c2.243 5.374 4.999 10.504 7.637 15.695 2.516 4.954 1.675 11.14-2.524 15.273z" fill="#43af3e"/><path d="m378.299 388.759c-2.632 2.591-6.069 3.887-9.506 3.887-1.63 0-3.261-1.296-4.51-3.887-2.02-4.19-2.402-10.491-1.146-15.479 1.747-6.937 3.294-14.083 4.728-21.323l.928-4.687 4.392 10.52c2.243 5.374 4.999 10.504 7.637 15.695 2.517 4.955 1.676 11.141-2.523 15.274z" fill="#00a23e"/><path d="m378.299 388.759c-2.632 2.591-6.069 3.887-9.506 3.887v-45.376l4.392 10.52c2.243 5.374 4.999 10.504 7.637 15.695 2.517 4.955 1.676 11.141-2.523 15.274z" fill="#008839"/></g></g><path d="m428.33 445.3c-7.56 6.89-15.53 13.33-23.88 19.28-12.05 8.59-24.87 16.16-38.34 22.58-28.55 13.63-60.02 22.13-93.22 24.29-5.33.35-10.69.53-16.1.55h-.79v-134.91c14.16-6.59 28.99-11.49 44.32-9.97 8.88.89 17.22 3.88 25.16 7.95 9.17 4.71 17.81 10.86 26.17 16.91 17.99 13 35.98 26.01 53.97 39.02 5.22 3.77 14.53 8.84 22.71 14.3z" fill="#00a23e"/><path d="m366.11 487.16c-28.55 13.63-60.02 22.13-93.22 24.29-5.33.35-10.69.53-16.1.55h-.79c-28.81 0-56.53-4.77-82.38-13.55 28.36-12.72 53.38-35.68 82.38-45.75 12.78-4.44 26.34-6.38 41.31-3.83 8.82 1.51 17.09 4.79 25.01 8.95 8.25 4.33 16.13 9.62 23.84 14.85 6.49 4.39 13.14 9.35 19.95 14.49z" fill="#00a23e"/><g><path d="m129.938 74.7c0-.053-.004-.105-.004-.158 0-9.675 7.843-17.517 17.517-17.517 2.298 0 4.491.447 6.502 1.252 3.884-6.959 11.317-11.668 19.853-11.668 11.085 0 20.311 7.938 22.316 18.439.598-.086 1.208-.132 1.83-.132 6.027 0 11.076 4.172 12.426 9.785h-80.44z" fill="#fff"/><path d="m147.03 74.7c0-.031-.002-.06-.002-.091 0-5.563 4.51-10.073 10.073-10.073 1.322 0 2.583.257 3.739.72 2.234-4.002 6.508-6.709 11.416-6.709 6.374 0 11.679 4.565 12.832 10.603.344-.049.695-.076 1.052-.076 3.466 0 6.369 2.399 7.145 5.626z" fill="#dff7fd"/></g><g><path d="m487.813 185.174c0-.062.005-.122.005-.184 0-11.245-9.116-20.361-20.36-20.361-2.671 0-5.22.52-7.557 1.455-4.515-8.089-13.154-13.561-23.075-13.561-12.884 0-23.607 9.227-25.938 21.432-.695-.1-1.404-.154-2.127-.154-7.005 0-12.874 4.849-14.443 11.373z" fill="#fff"/><path d="m467.947 185.174c0-.035.003-.07.003-.106 0-6.466-5.242-11.708-11.708-11.708-1.536 0-3.002.299-4.346.837-2.596-4.651-7.564-7.798-13.269-7.798-7.409 0-13.575 5.305-14.915 12.324-.399-.057-.807-.089-1.223-.089-4.028 0-7.403 2.788-8.305 6.54z" fill="#dff7fd"/></g><g><path d="m326.151 87.219c0-.062-.005-.122-.005-.184 0-11.245 9.116-20.36 20.361-20.36 2.671 0 5.22.52 7.558 1.455 4.515-8.089 13.154-13.561 23.075-13.561 12.884 0 23.607 9.227 25.938 21.431.695-.1 1.404-.154 2.126-.154 7.005 0 12.874 4.849 14.443 11.373z" fill="#fff"/><path d="m346.016 87.219c0-.035-.003-.07-.003-.106 0-6.466 5.242-11.708 11.708-11.708 1.536 0 3.002.299 4.346.837 2.596-4.651 7.564-7.798 13.269-7.798 7.408 0 13.575 5.306 14.915 12.324.4-.057.807-.088 1.223-.088 4.028 0 7.403 2.788 8.305 6.54h-53.763z" fill="#dff7fd"/></g><g><path d="m322.154 164.457c0-.075.006-.149.006-.225 0-13.773-11.166-24.939-24.939-24.939-3.272 0-6.394.637-9.257 1.782-5.53-9.907-16.112-16.611-28.264-16.611-15.781 0-28.916 11.301-31.77 26.251-.851-.122-1.72-.189-2.605-.189-8.58 0-15.769 5.94-17.69 13.93h114.519z" fill="#fff"/><path d="m297.822 164.457c0-.043.003-.086.003-.129 0-7.92-6.42-14.34-14.34-14.34-1.882 0-3.677.366-5.323 1.025-3.18-5.697-9.265-9.552-16.253-9.552-9.074 0-16.627 6.499-18.269 15.095-.489-.07-.989-.108-1.498-.108-4.934 0-9.067 3.415-10.172 8.01h65.852z" fill="#dff7fd"/></g><path d="m366.11 487.16c-28.55 13.63-60.02 22.13-93.22 24.29-5.33.35-10.69.53-16.1.55h-.79v-59.3c12.78-4.44 26.34-6.38 41.31-3.83 8.82 1.51 17.09 4.79 25.01 8.95 8.25 4.33 16.13 9.62 23.84 14.85 6.49 4.39 13.14 9.35 19.95 14.49z" fill="#008839"/><g><path d="m301.179 437.271h-6.307l.338-10.568.415-12.983h4.801l.415 12.983z" fill="#ec771b"/><path d="m301.179 437.271h-3.033v-23.551h2.28l.415 12.983z" fill="#c55732"/><path d="m298.146 413.72v12.983h-2.936l.415-12.983z" fill="#c55732"/><path d="m300.841 426.703h-2.695v-12.983h2.28z" fill="#a44e3e"/><g><path d="m307.941 417.853c-2.712 2.67-6.254 4.005-9.795 4.005s-7.082-1.335-9.795-4.005c-4.327-4.259-5.193-10.635-2.596-15.741 2.715-5.34 5.551-10.618 7.858-16.146l4.533-10.861 4.525 10.839c2.311 5.537 5.151 10.823 7.869 16.172 2.594 5.104 1.728 11.479-2.599 15.737z" fill="#b6e337"/><path d="m307.941 417.853c-2.712 2.67-6.254 4.005-9.795 4.005-1.68 0-3.36-1.335-4.647-4.005-2.081-4.317-2.475-10.809-1.181-15.949 1.8-7.148 3.394-14.51 4.872-21.97l.956-4.829 4.525 10.839c2.311 5.537 5.151 10.823 7.869 16.172 2.594 5.104 1.728 11.479-2.599 15.737z" fill="#6cdc2d"/><path d="m307.941 417.853c-2.712 2.67-6.254 4.005-9.795 4.005v-46.754l4.525 10.839c2.311 5.537 5.151 10.823 7.869 16.172 2.594 5.105 1.728 11.48-2.599 15.738z" fill="#50ba4a"/></g></g><g><path d="m377.38 462.532h-6.288l.336-10.538.415-12.944h4.786l.414 12.944z" fill="#ec771b"/><path d="m377.38 462.532h-3.024v-23.482h2.273l.414 12.944z" fill="#c55732"/><path d="m374.356 439.05v12.944h-2.928l.415-12.944z" fill="#c55732"/><path d="m377.043 451.994h-2.687v-12.944h2.273z" fill="#a44e3e"/><g><path d="m384.122 443.17c-2.704 2.662-6.235 3.993-9.766 3.993-3.53 0-7.061-1.331-9.766-3.993-4.314-4.246-5.177-10.604-2.589-15.695 2.707-5.324 5.535-10.586 7.835-16.099l4.52-10.829 4.512 10.807c2.305 5.52 5.136 10.791 7.846 16.124 2.586 5.091 1.722 11.446-2.592 15.692z" fill="#43af3e"/><path d="m384.122 443.17c-2.704 2.662-6.235 3.993-9.766 3.993-1.675 0-3.35-1.331-4.634-3.993-2.075-4.304-2.468-10.778-1.177-15.902 1.794-7.127 3.384-14.468 4.858-21.905l.953-4.815 4.512 10.807c2.305 5.52 5.136 10.791 7.846 16.124 2.586 5.09 1.722 11.445-2.592 15.691z" fill="#00a23e"/><path d="m384.122 443.17c-2.704 2.662-6.235 3.993-9.766 3.993v-46.617l4.512 10.807c2.305 5.52 5.136 10.791 7.846 16.124 2.586 5.092 1.722 11.447-2.592 15.693z" fill="#008839"/></g></g></g><g><path d="m174.268 431.035h-6.288l.336-10.537.414-12.945h4.787l.414 12.945z" fill="#ec771b"/><path d="m174.268 431.035h-3.024v-23.482h2.273l.414 12.945z" fill="#c55732"/><path d="m171.244 407.553v12.945h-2.928l.414-12.945z" fill="#c55732"/><path d="m173.931 420.498h-2.687v-12.945h2.273z" fill="#a44e3e"/><g><path d="m181.01 411.673c-2.704 2.662-6.235 3.993-9.766 3.993-3.53 0-7.061-1.331-9.766-3.993-4.314-4.246-5.177-10.604-2.589-15.695 2.707-5.324 5.535-10.586 7.835-16.099l4.52-10.829 4.512 10.807c2.305 5.52 5.136 10.791 7.846 16.124 2.586 5.091 1.722 11.447-2.592 15.692z" fill="#b6e337"/><path d="m181.01 411.673c-2.704 2.662-6.235 3.993-9.766 3.993-1.675 0-3.35-1.331-4.634-3.993-2.075-4.304-2.467-10.778-1.177-15.902 1.794-7.127 3.384-14.468 4.857-21.905l.953-4.815 4.512 10.807c2.305 5.52 5.136 10.791 7.846 16.124 2.587 5.09 1.723 11.446-2.591 15.691z" fill="#6cdc2d"/><path d="m181.01 411.673c-2.704 2.662-6.235 3.993-9.766 3.993v-46.616l4.512 10.807c2.305 5.52 5.136 10.791 7.846 16.124 2.586 5.091 1.722 11.447-2.592 15.692z" fill="#50ba4a"/></g></g></g></svg>